<svg xmlns="http://www.w3.org/2000/svg" xmlns:xlink="http://www.w3.org/1999/xlink" width="102" height="92" viewBox="0 0 102 92">
  <defs>
    <clipPath id="clip-path">
      <rect id="Rect치ngulo_402146" data-name="Rect치ngulo 402146" width="73.844" height="73.844" fill="none"/>
    </clipPath>
  </defs>
  <g id="Grupo_1103206" data-name="Grupo 1103206" transform="translate(-209.051 -1020)">
    <rect id="Rect치ngulo_402150" data-name="Rect치ngulo 402150" width="102" height="92" rx="8" transform="translate(209.051 1020)" fill="#fff"/>
    <g id="Grupo_1102095" data-name="Grupo 1102095" transform="translate(223.051 1029)">
      <g id="Grupo_1102094" data-name="Grupo 1102094" transform="translate(0 0)" clip-path="url(#clip-path)">
        <path id="Trazado_882602" data-name="Trazado 882602" d="M10.68,60.724a35.384,35.384,0,1,0,0-50.04,35.384,35.384,0,0,0,0,50.04" transform="translate(1.219 1.217)" fill="#fff"/>
        <path id="Trazado_882603" data-name="Trazado 882603" d="M36.934,73.844l-.029-.077v.077A36.924,36.924,0,0,1,0,36.92,36.928,36.928,0,0,1,55.8,5.185a1.433,1.433,0,0,1,.688.938,1.471,1.471,0,0,1-.168,1.169,1.572,1.572,0,0,1-2.107.524,33.9,33.9,0,1,0,8.879,7.643,1.556,1.556,0,0,1,.212-2.169,1.6,1.6,0,0,1,2.169.216A36.926,36.926,0,0,1,36.934,73.844M60,11.63a1.6,1.6,0,0,1-1.015-.37,1.55,1.55,0,0,1-.524-1.063,1.455,1.455,0,0,1,.37-1.106A1.579,1.579,0,0,1,61,8.922a1.551,1.551,0,0,1,.154,2.169A1.531,1.531,0,0,1,60,11.63" transform="translate(0 0)" fill="#31a854"/>
        <path id="Trazado_882604" data-name="Trazado 882604" d="M51.5,51.5a29.228,29.228,0,1,0-41.335,0,29.23,29.23,0,0,0,41.335,0" transform="translate(6.094 6.094)" fill="#acdbb9"/>
        <path id="Trazado_882605" data-name="Trazado 882605" d="M32.062,62.815l-.029-.077v.077A30.774,30.774,0,0,1,1.28,32.047,30.688,30.688,0,0,1,3.122,21.523v-.014a1.565,1.565,0,0,1,1.967-.89,1.53,1.53,0,0,1,.923,1.967,27.692,27.692,0,0,0,26.03,37.155,27.692,27.692,0,1,0-19.585-47.28l-.106.111a1.966,1.966,0,0,1-.2.2,1.562,1.562,0,0,1-2.169.048,1.534,1.534,0,0,1-.029-2.184,4.529,4.529,0,0,1,.341-.337,30.742,30.742,0,0,1,43.5,0,30.754,30.754,0,0,1,0,43.5,30.525,30.525,0,0,1-21.735,9.013M7.258,18.079a1.535,1.535,0,0,1-.818-.231,1.565,1.565,0,0,1-.683-.972,1.5,1.5,0,0,1,.192-1.15,1.584,1.584,0,0,1,2.131-.5,1.485,1.485,0,0,1,.669.972,1.543,1.543,0,0,1-.178,1.154,1.58,1.58,0,0,1-1.313.721" transform="translate(4.876 4.873)" fill="#31a854"/>
        <path id="Trazado_882606" data-name="Trazado 882606" d="M14.664,15.707l-8.34-8.34Z" transform="translate(24.093 28.067)" fill="#fff"/>
        <path id="Trazado_882607" data-name="Trazado 882607" d="M15.882,18.464a1.518,1.518,0,0,1-1.087-.452L6.455,9.677A1.539,1.539,0,0,1,8.629,7.5l8.34,8.34a1.536,1.536,0,0,1,0,2.174,1.518,1.518,0,0,1-1.087.452" transform="translate(22.875 26.849)" fill="#fc7f2b"/>
        <path id="Trazado_882608" data-name="Trazado 882608" d="M17,17.348a1.518,1.518,0,0,1-1.087-.452l-8.34-8.34A1.537,1.537,0,0,1,9.745,6.382l8.34,8.34a1.536,1.536,0,0,1,0,2.174A1.518,1.518,0,0,1,17,17.348" transform="translate(27.126 22.597)" fill="#5bba72"/>
        <path id="Trazado_882609" data-name="Trazado 882609" d="M18.647,13.025,9.581,3.959Z" transform="translate(36.501 15.083)" fill="#fff"/>
        <path id="Trazado_882610" data-name="Trazado 882610" d="M19.866,15.783a1.518,1.518,0,0,1-1.087-.452L9.712,6.264A1.537,1.537,0,0,1,11.886,4.09l9.066,9.066a1.536,1.536,0,0,1,0,2.174,1.518,1.518,0,0,1-1.087.452" transform="translate(35.283 13.865)" fill="#fc7f2b"/>
        <path id="Trazado_882611" data-name="Trazado 882611" d="M14.317,21.332a1.518,1.518,0,0,1-1.087-.452L4.163,11.813A1.537,1.537,0,1,1,6.337,9.639L15.4,18.706a1.536,1.536,0,0,1,0,2.174,1.518,1.518,0,0,1-1.087.452" transform="translate(14.143 35.005)" fill="#5bba72"/>
        <path id="Trazado_882612" data-name="Trazado 882612" d="M17.521,18.391a23.356,23.356,0,0,1-6.527-1.01,1.528,1.528,0,0,1-.986-.986c-.1-.313-2.434-7.672.356-12.356A1.539,1.539,0,1,1,13.01,5.612c-1.525,2.559-.866,6.873-.3,9.062,2.2.568,6.522,1.222,9.066-.293a1.539,1.539,0,1,1,1.573,2.645,11.465,11.465,0,0,1-5.829,1.366" transform="translate(34.284 12.516)" fill="#8440cc"/>
        <path id="Trazado_882613" data-name="Trazado 882613" d="M15.774,24.033A1.542,1.542,0,0,1,14.451,21.7c1.52-2.544.861-6.863.3-9.062-2.2-.563-6.522-1.222-9.066.293A1.539,1.539,0,0,1,4.11,10.291C8.8,7.5,16.154,9.834,16.466,9.935a1.542,1.542,0,0,1,.991.991c.1.308,2.429,7.667-.361,12.356a1.542,1.542,0,0,1-1.323.75" transform="translate(12.791 34.007)" fill="#8440cc"/>
        <path id="Trazado_882614" data-name="Trazado 882614" d="M11.154,26.14a24.885,24.885,0,0,1-4-.3,1.534,1.534,0,0,1-1.246-1.246C5.839,24.183,4.19,14.506,9.384,9.311S24.256,5.766,24.665,5.839A1.534,1.534,0,0,1,25.91,7.084c.072.409,1.722,10.086-3.473,15.281C19.3,25.5,14.531,26.14,11.154,26.14M8.8,22.947c2.439.236,8.287.418,11.462-2.756s3-9.028,2.756-11.462c-2.434-.236-8.287-.418-11.462,2.756S8.566,20.513,8.8,22.947" transform="translate(21.36 21.082)" fill="#8440cc"/>
        <path id="Trazado_882615" data-name="Trazado 882615" d="M10.856,14.881a1.518,1.518,0,0,1-1.087-.452L9,13.659a1.537,1.537,0,1,1,2.174-2.174l.77.77a1.536,1.536,0,0,1,0,2.174,1.518,1.518,0,0,1-1.087.452" transform="translate(32.567 42.038)" fill="#8440cc"/>
        <path id="Trazado_882616" data-name="Trazado 882616" d="M12.136,14.242a1.518,1.518,0,0,1-1.087-.452l-.77-.77a1.537,1.537,0,0,1,2.174-2.174l.77.77a1.536,1.536,0,0,1,0,2.174,1.518,1.518,0,0,1-1.087.452" transform="translate(37.443 39.604)" fill="#5bba72"/>
        <path id="Trazado_882617" data-name="Trazado 882617" d="M11.237,9.566l-.77-.77Z" transform="translate(39.876 33.511)" fill="#fff"/>
        <path id="Trazado_882618" data-name="Trazado 882618" d="M12.456,12.323a1.518,1.518,0,0,1-1.087-.452l-.77-.77a1.537,1.537,0,1,1,2.174-2.174l.77.77a1.536,1.536,0,0,1,0,2.174,1.518,1.518,0,0,1-1.087.452" transform="translate(38.662 32.293)" fill="#fc7f2b"/>
        <path id="Trazado_882619" data-name="Trazado 882619" d="M14.375,12.323a1.518,1.518,0,0,1-1.087-.452l-.77-.77a1.537,1.537,0,0,1,2.174-2.174l.77.77a1.536,1.536,0,0,1,0,2.174,1.518,1.518,0,0,1-1.087.452" transform="translate(45.973 32.293)" fill="#5bba72"/>
        <path id="Trazado_882620" data-name="Trazado 882620" d="M4.779,10.723a1.518,1.518,0,0,1-1.087-.452l-.77-.77A1.537,1.537,0,0,1,5.1,7.327l.77.77a1.536,1.536,0,0,1,0,2.174,1.518,1.518,0,0,1-1.087.452" transform="translate(9.415 26.197)" fill="#5bba72"/>
        <path id="Trazado_882621" data-name="Trazado 882621" d="M6.378,10.723a1.518,1.518,0,0,1-1.087-.452l-.77-.77A1.537,1.537,0,0,1,6.7,7.327l.77.77a1.536,1.536,0,0,1,0,2.174,1.518,1.518,0,0,1-1.087.452" transform="translate(15.507 26.197)" fill="#8440cc"/>
        <path id="Trazado_882622" data-name="Trazado 882622" d="M5.16,4.768,4.39,4Z" transform="translate(16.725 15.232)" fill="#fff"/>
        <path id="Trazado_882623" data-name="Trazado 882623" d="M6.378,7.525a1.518,1.518,0,0,1-1.087-.452l-.77-.77A1.537,1.537,0,0,1,6.7,4.129l.77.77a1.536,1.536,0,0,1,0,2.174,1.518,1.518,0,0,1-1.087.452" transform="translate(15.507 14.014)" fill="#fc7f2b"/>
        <path id="Trazado_882624" data-name="Trazado 882624" d="M7.338,9.124a1.518,1.518,0,0,1-1.087-.452l-.77-.77A1.537,1.537,0,0,1,7.655,5.728l.77.77a1.536,1.536,0,0,1,0,2.174,1.518,1.518,0,0,1-1.087.452" transform="translate(19.164 20.105)" fill="#5bba72"/>
        <path id="Trazado_882625" data-name="Trazado 882625" d="M9.257,6.565A1.518,1.518,0,0,1,8.17,6.113l-.77-.77A1.537,1.537,0,1,1,9.574,3.169l.77.77a1.536,1.536,0,0,1,0,2.174,1.518,1.518,0,0,1-1.087.452" transform="translate(26.475 10.356)" fill="#8440cc"/>
        <path id="Trazado_882626" data-name="Trazado 882626" d="M8.039,5.408l-.77-.77Z" transform="translate(27.693 17.67)" fill="#fff"/>
        <path id="Trazado_882627" data-name="Trazado 882627" d="M9.257,8.165A1.518,1.518,0,0,1,8.17,7.713l-.77-.77A1.537,1.537,0,1,1,9.574,4.769l.77.77a1.536,1.536,0,0,1,0,2.174,1.518,1.518,0,0,1-1.087.452" transform="translate(26.475 16.452)" fill="#fc7f2b"/>
        <path id="Trazado_882628" data-name="Trazado 882628" d="M8.039,13.084l-.77-.77Z" transform="translate(27.693 46.914)" fill="#fff"/>
        <path id="Trazado_882629" data-name="Trazado 882629" d="M9.257,15.841a1.518,1.518,0,0,1-1.087-.452l-.77-.77a1.537,1.537,0,1,1,2.174-2.174l.77.77a1.536,1.536,0,0,1,0,2.174,1.518,1.518,0,0,1-1.087.452" transform="translate(26.475 45.695)" fill="#fc7f2b"/>
        <path id="Trazado_882630" data-name="Trazado 882630" d="M14.375,10.723a1.518,1.518,0,0,1-1.087-.452l-.77-.77a1.537,1.537,0,0,1,2.174-2.174l.77.77a1.536,1.536,0,0,1,0,2.174,1.518,1.518,0,0,1-1.087.452" transform="translate(45.973 26.197)" fill="#8440cc"/>
      </g>
    </g>
  </g>
</svg>
