<svg xmlns="http://www.w3.org/2000/svg" xmlns:xlink="http://www.w3.org/1999/xlink" width="88" height="88" viewBox="0 0 88 88">
  <defs>
    <clipPath id="clip-path">
      <rect id="Rectángulo_402238" data-name="Rectángulo 402238" width="40.034" height="65.664" fill="none"/>
    </clipPath>
  </defs>
  <g id="Grupo_1102200" data-name="Grupo 1102200" transform="translate(-600.051 -3542)">
    <circle id="Elipse_11598" data-name="Elipse 11598" cx="44" cy="44" r="44" transform="translate(600.051 3542)" fill="#fff"/>
    <g id="Grupo_1102196" data-name="Grupo 1102196" transform="translate(624.034 3550.971)">
      <g id="Grupo_1102195" data-name="Grupo 1102195" clip-path="url(#clip-path)">
        <path id="Trazado_883447" data-name="Trazado 883447" d="M121.279,148.9a14.937,14.937,0,0,1,11.658-3.836.363.363,0,0,1,.313.482c-.585,1.652-2.931,7.461-7.212,8.149-5,.8-7.379-.729-7.379-.729Z" transform="translate(-94.186 -115.097)" fill="#678650"/>
        <path id="Trazado_883448" data-name="Trazado 883448" d="M123.434,91.49a74.1,74.1,0,0,0,8.648-5.331.36.36,0,0,1,.579.317c-.255,2.865-1.636,12.375-8.858,15.648l-4.042-6.394Z" transform="translate(-95.061 -68.33)" fill="#91af7e"/>
        <path id="Trazado_883449" data-name="Trazado 883449" d="M101.61,9.152c-.759,3.49-3.291,13.295-8.812,19.07L88.22,42.679l8.533-6.272s10.782-11.447,5.555-27.291a.362.362,0,0,0-.7.036" transform="translate(-70.025 -7.039)" fill="#91af7e"/>
        <path id="Trazado_883450" data-name="Trazado 883450" d="M94.407,88.859l.008-.016a11.51,11.51,0,0,1,.828-1.81A24.4,24.4,0,0,0,96.8,75.352a26.392,26.392,0,0,1-4,5.642L88.219,95.451l5.575-4.1a13.139,13.139,0,0,1,.615-2.494Z" transform="translate(-70.024 -59.811)" fill="#678650"/>
        <path id="Trazado_883451" data-name="Trazado 883451" d="M86.669,134.643a20.466,20.466,0,0,1,6.753-4.716,18.822,18.822,0,0,0,5.624-3.576.361.361,0,0,1,.609.258c.031,2.322-.405,8.862-6.022,11.789l-7.322-.932Z" transform="translate(-68.51 -100.213)" fill="#91af7e"/>
        <path id="Trazado_883452" data-name="Trazado 883452" d="M56,6.175c1.065,2.075,4.316,9.44,3.112,20.1l-2.22,7.876-5.012-6.229s.468-15.586,3.474-21.736A.361.361,0,0,1,56,6.175" transform="translate(-41.181 -4.746)" fill="#678650"/>
        <path id="Trazado_883453" data-name="Trazado 883453" d="M10.729,138.011s-6.847-1.53-6.722-11.374a.361.361,0,0,1,.363-.36.349.349,0,0,1,.08.009c1.729.412,8.244,2.539,12.437,11.725Z" transform="translate(-3.18 -100.233)" fill="#678650"/>
        <path id="Trazado_883454" data-name="Trazado 883454" d="M24.011,55.024a13.062,13.062,0,0,1-.405-3.256A22.094,22.094,0,0,0,20.995,42a27.42,27.42,0,0,1-2.056-20.085C19.852,19.629,29.075,38.546,31.1,54.53v.495Z" transform="translate(-14.242 -17.246)" fill="#91af7e"/>
        <path id="Trazado_883455" data-name="Trazado 883455" d="M44.379,121.769h7.088v-.495a99.247,99.247,0,0,0-3.593-15.459l-.075.071c.111,2.581-.014,4.936-1.4,7.2a3.917,3.917,0,0,1-2.8,2.006,21.455,21.455,0,0,1,.371,3.417,13.057,13.057,0,0,0,.405,3.257" transform="translate(-34.61 -83.991)" fill="#678650"/>
        <path id="Trazado_883456" data-name="Trazado 883456" d="M87.92,153.586l6.256.8a10.072,10.072,0,0,0,3.042-2.417c-4.453-.225-4.62-3.247-4.164-5.452l-.13-.124a19.218,19.218,0,0,0-1.736.977h0a20.746,20.746,0,0,0-3.971,3.26L87,152.332Z" transform="translate(-69.054 -116.197)" fill="#678650"/>
        <path id="Trazado_883457" data-name="Trazado 883457" d="M66.693,83.24s-3.225-9.407,2.952-17.09a34.719,34.719,0,0,0,2.337-3.215,20.759,20.759,0,0,0,2.556-5.392.361.361,0,0,1,.663-.084c1.136,2.035,3.563,7.876-.468,15.552a14.375,14.375,0,0,0-1.58,4.978,7.894,7.894,0,0,0,.913,5.251Z" transform="translate(-52.27 -45.461)" fill="#91af7e"/>
        <path id="Trazado_883458" data-name="Trazado 883458" d="M35,200.016H18.879l.26,1.606,3.112,21.98H47.756l3.112-21.979.26-1.606Z" transform="translate(-14.985 -158.764)" fill="#ffc998"/>
        <path id="Trazado_883459" data-name="Trazado 883459" d="M5.112,180.776l.518,3.252a2.672,2.672,0,0,0,2.582,2.322H39.941a2.672,2.672,0,0,0,2.582-2.322l.518-3.252Z" transform="translate(-4.058 -143.492)" fill="#ffc998"/>
        <path id="Trazado_883460" data-name="Trazado 883460" d="M91.7,180.776l-.918,3.493a2.829,2.829,0,0,1-1.345,1.926,1.767,1.767,0,0,1-.731.155H73.965a.621.621,0,0,0-.1,1.234l9.215,1.532a5.239,5.239,0,0,1,4.321,5.947l-2,13.266h5.584L94.1,186.351a2.672,2.672,0,0,0,2.582-2.322l.518-3.252Z" transform="translate(-58.216 -143.492)" fill="#f49d70"/>
        <path id="Trazado_883461" data-name="Trazado 883461" d="M66.678,156.679h7.375a6.136,6.136,0,0,1-.911-2.532,7.36,7.36,0,0,1-7.28-4.352,20.3,20.3,0,0,0,.816,6.883" transform="translate(-52.255 -118.901)" fill="#678650"/>
        <path id="Trazado_883462" data-name="Trazado 883462" d="M127.347,15.911a.825.825,0,0,0,1.114-.346,53.189,53.189,0,0,0,4.263-11.494,27.143,27.143,0,0,1-1.218,17.256.827.827,0,0,0,1.21.827c1.393-.8,3.156-1.886,4.675-2.967-.343,2.588-1.349,7.388-4.254,10.839a.825.825,0,1,0,1.262,1.063c4.519-5.37,4.8-13.344,4.813-13.68a.825.825,0,0,0-1.355-.656,36.632,36.632,0,0,1-3.967,2.773A28.3,28.3,0,0,0,133.345.605a.828.828,0,0,0-1.585.152A54.375,54.375,0,0,1,127,14.8a.825.825,0,0,0,.346,1.114" transform="translate(-100.732 -0.064)" fill="#2f313f"/>
        <path id="Trazado_883463" data-name="Trazado 883463" d="M3.648,36.459H1.054a.83.83,0,0,0-.815.955l.518,3.252A3.527,3.527,0,0,0,3.425,43.6L6.448,64.954a.825.825,0,0,0,.817.709H32.771a.825.825,0,0,0,.817-.709l2.662-18.8a.825.825,0,0,0-1.634-.231L32.054,64.014H7.982L5.1,43.684H35.883a3.486,3.486,0,0,0,3.4-3.017l.518-3.252a.825.825,0,0,0-.815-.955h-2.3A19.773,19.773,0,0,0,40,30.252a.831.831,0,0,0-.7-1.059,17.628,17.628,0,0,0-2.637-.1.825.825,0,0,0,.062,1.649c.443-.017.891-.014,1.343.008a15.236,15.236,0,0,1-3.692,5.711H32.132a13.569,13.569,0,0,0,2.263-2.442.825.825,0,0,0-1.363-.929,12.179,12.179,0,0,1-3.787,3.371h-.589c3.879-4.367,3.3-10.686,3.272-10.984a.825.825,0,0,0-1.445-.456A17.041,17.041,0,0,1,24.6,28.952a18.937,18.937,0,0,0-2.332,1.172c.111-.337.235-.673.374-1.007a29.214,29.214,0,0,0,6.865-9.3.825.825,0,1,0-1.48-.729A33.273,33.273,0,0,1,24.6,24.666c2.7-8.01-1.244-14.9-2.36-14.25a.825.825,0,0,0-.61.686,16.617,16.617,0,0,1-2.607,5.925C18.958,6.946,15.471-.259,14.495.008c-1.573.066-2.948,6.8-3.52,10.631a.825.825,0,0,0,1.633.24,38.667,38.667,0,0,1,1.909-8.173,35.682,35.682,0,0,1,2.768,16.766,18.488,18.488,0,0,0-4.164,8.516A67,67,0,0,0,10.777,21.4a.825.825,0,1,0-1.524.632,58.5,58.5,0,0,1,3.977,14.425H10.345a17.114,17.114,0,0,1-.156-1.959A23.042,23.042,0,0,0,7.482,24.368,26.368,26.368,0,0,1,5.245,5.923a73.564,73.564,0,0,1,7.332,16.46.83.83,0,1,0,1.526-.642,34.879,34.879,0,0,0,1.685-10.528.825.825,0,0,0-1.65,0,37.735,37.735,0,0,1-.937,7.839C9.548,9.069,5.574,2.482,4.75,3.1a.825.825,0,0,0-.644.588C1.4,13.343,3.655,20.684,6.024,25.143a21.528,21.528,0,0,1,2.443,8.163,20.282,20.282,0,0,1-2.814-2.754.825.825,0,0,0-1.282,1.039A19.925,19.925,0,0,0,8.579,35.4c.027.4.062.747.1,1.055H6.471c-1.866-.99-4.714-3.478-4.818-9.444a14.677,14.677,0,0,1,3.572,1.691.825.825,0,1,0,.912-1.375l-.02-.013A14.243,14.243,0,0,0,.954,25.147a.83.83,0,0,0-.935.709c0,.026-.006.053-.007.08-.183,5.559,1.7,8.735,3.635,10.523m21.581-5.984A20.147,20.147,0,0,0,30.3,27.449c-.123,2.35-.825,6.453-4.028,9.01H22.046a5.379,5.379,0,0,1-.178-.53,14.315,14.315,0,0,0,5.838-3.51.825.825,0,0,0-1.174-1.16,12.969,12.969,0,0,1-4.9,3.03,10.442,10.442,0,0,1,.1-1.858A18.193,18.193,0,0,1,25.229,30.475ZM18.018,21.2a28.964,28.964,0,0,0,4.7-7.806c1.4,2.741,2.083,8.633-1.5,14.829a12.794,12.794,0,0,0-.923,8.231H18.788a14.47,14.47,0,0,1,.192-8.57.825.825,0,0,0-1.574-.495,16.266,16.266,0,0,0-.339,9.064H14.919c-.909-4.74-1.084-9.695,3.1-15.253M6.266,38.109H38.016l-.366,2.3a1.845,1.845,0,0,1-1.767,1.627H4.153a1.845,1.845,0,0,1-1.767-1.627l-.366-2.3Z" transform="translate(0 0)" fill="#2f313f"/>
        <path id="Trazado_883464" data-name="Trazado 883464" d="M36.33,82.307c-.631.4-.506.9-.133,1.55a.825.825,0,0,0,1.495-.7l-.013-.027c-.311-.724-.642-1.108-1.348-.824" transform="translate(-28.485 -65.257)" fill="#2f313f"/>
        <path id="Trazado_883465" data-name="Trazado 883465" d="M92.579,112.146a.825.825,0,0,0,1.129-.3c.371-.491.436-1.041-.077-1.407-.583-.325-1.048-.047-1.348.574a.825.825,0,0,0,.3,1.129" transform="translate(-73.161 -87.556)" fill="#2f313f"/>
        <path id="Trazado_883466" data-name="Trazado 883466" d="M145.02,70.9c.307-.733.365-1.272-.347-1.571a.825.825,0,0,0-1.038.531c0,.008-.058.178-.166.478a.825.825,0,0,0,1.551.562" transform="translate(-113.838 -55.002)" fill="#2f313f"/>
      </g>
    </g>
  </g>
</svg>
