<svg xmlns="http://www.w3.org/2000/svg" xmlns:xlink="http://www.w3.org/1999/xlink" width="190" height="172" viewBox="0 0 190 172">
  <defs>
    <clipPath id="clip-path">
      <rect id="Rect치ngulo_402162" data-name="Rect치ngulo 402162" width="160.748" height="140.387" fill="none"/>
    </clipPath>
  </defs>
  <g id="Grupo_1103213" data-name="Grupo 1103213" transform="translate(-1230.051 -1218)">
    <rect id="Rect치ngulo_402161" data-name="Rect치ngulo 402161" width="190" height="172" rx="8" transform="translate(1230.051 1218)" fill="#acdbb9"/>
    <g id="Grupo_1102105" data-name="Grupo 1102105" transform="translate(1251.178 1240.307)">
      <g id="Grupo_1102104" data-name="Grupo 1102104" clip-path="url(#clip-path)">
        <path id="Trazado_882705" data-name="Trazado 882705" d="M140.412,74.858c-.384-.192-.774-.379-1.163-.565s-.779-.373-1.163-.565a7.852,7.852,0,0,1-1.213-.777l-.122-.146-.056-.14c.006-.061.011-.121.02-.188l.15-.212a7.522,7.522,0,0,1,1.088-.857,22.243,22.243,0,0,1,2.549-1.271l.115-.051c.565-.25,1.149-.508,1.739-.708a1.927,1.927,0,0,0,.525-.181,1.191,1.191,0,0,0,.661-.941,1.177,1.177,0,0,0-.738-1.189,3.567,3.567,0,0,0-1.153-.237l-.209-.021c-.2-.02-.4-.042-.594-.067l-.279-.033c-.44-.052-.876-.142-1.314-.239a9.4,9.4,0,0,1-1.4-.449,8.448,8.448,0,0,1-1.2-.867,2.372,2.372,0,0,1-.147-.633,5.709,5.709,0,0,1,.085-.8,8.545,8.545,0,0,1,.592-1.488,17.724,17.724,0,0,1,2.278-3.059,9.726,9.726,0,0,1,1.394-1.224l.205-.13.206-.13c.122-.122.235-.244.34-.373a1.412,1.412,0,0,0,.244-1.083,1.531,1.531,0,0,0-.574-.909,3.092,3.092,0,0,0-1.595-.568l-.2-.033c-.316-.053-.628-.109-.943-.166l-.148-.028c-.409-.08-.812-.161-1.215-.252l-.574-.133a5.283,5.283,0,0,1-1.113-.392,3.739,3.739,0,0,1-.368-.242,1.981,1.981,0,0,1-.127-.154l-.08-.149.012,0a2.831,2.831,0,0,1-.072-.4,4.248,4.248,0,0,1,.067-.642,6.119,6.119,0,0,1,.3-.785,9.788,9.788,0,0,1,1.227-1.649c.338-.355.683-.707,1.039-1.044a6.839,6.839,0,0,1,.824-.631l.176-.123a1.323,1.323,0,0,0,.35-1.567,1.286,1.286,0,0,0-.426-.512,1.262,1.262,0,0,0-.8-.232l-.194.006a4.041,4.041,0,0,0-.667.107l-.217.045a8.64,8.64,0,0,1-1.2.157h-.145a9.933,9.933,0,0,1-1.722-.153,11.7,11.7,0,0,1,.567-1.216l.162-.305.086-.16c.247-.446.516-.882.8-1.314a4.068,4.068,0,0,0,.391-.672,1.866,1.866,0,0,0,.115-1.013,1.619,1.619,0,0,0-.689-.957,2.245,2.245,0,0,0-1.045-.341,6.6,6.6,0,0,0-.95-.055l-.4-.006c-.286,0-.566-.013-.851-.023l-.21-.008a12.855,12.855,0,0,1-1.615-.131,4.6,4.6,0,0,1-.689-.264,3.8,3.8,0,0,1-.465-.3,4.09,4.09,0,0,1-.337-.688c-.027-.135-.048-.241-.062-.354a5.036,5.036,0,0,1,.11-.959,15.845,15.845,0,0,1,1.144-2.866,5.722,5.722,0,0,1,.473-.714,2.1,2.1,0,0,0,.38-.366.981.981,0,0,0-.8-1.554.993.993,0,0,0-.411.089,2.062,2.062,0,0,0-.6.444,5.156,5.156,0,0,1-.774.386,5.1,5.1,0,0,1-.97.16l-.215,0a7.182,7.182,0,0,1-.918-.049,3.759,3.759,0,0,1-.5-.208l-.129-.07.01-.007a2.935,2.935,0,0,1-.18-.336,1.664,1.664,0,0,1,.03-.381,8.248,8.248,0,0,1,.568-1.406c.337-.6.707-1.173,1.082-1.742.139-.214.28-.418.428-.623l.143-.193a3.129,3.129,0,0,0,.456-.749,1.03,1.03,0,0,0-.173-1.03,1.161,1.161,0,0,0-.836-.413,1.082,1.082,0,0,0-.183.016,3.623,3.623,0,0,0-.824.282c-.36.162-.726.317-1.1.45a10.935,10.935,0,0,1-2.21.332,8.17,8.17,0,0,1-1.313-.08,4.159,4.159,0,0,1-.746-.284,4.633,4.633,0,0,1-.406-.288,4.021,4.021,0,0,1-.3-.339,3.814,3.814,0,0,1-.2-.434,5.886,5.886,0,0,1-.157-.993,20.094,20.094,0,0,1,.546-3.844l.091-.435c.152-.769.309-1.539.474-2.3.058-.226.127-.452.194-.678a9.737,9.737,0,0,0,.309-1.22,1.021,1.021,0,0,0-.24-.834,1.316,1.316,0,0,0-.974-.452,1.017,1.017,0,0,0-.706.272,7.317,7.317,0,0,0-.685.775c-.1.122-.194.243-.294.361a11.941,11.941,0,0,1-1.844,1.469c-.3.175-.53.313-.773.431a7.964,7.964,0,0,1-.882.369,7.35,7.35,0,0,1-1.308.208l-.216,0a4.862,4.862,0,0,1-.772-.056,1.982,1.982,0,0,1-.249-.08,4.566,4.566,0,0,1-.328-.361,4.92,4.92,0,0,1-.269-.656,16.174,16.174,0,0,1-.526-2.586c-.047-.4-.083-.811-.119-1.215-.032-.361-.064-.722-.1-1.083a2.636,2.636,0,0,0-.812-1.936,1.545,1.545,0,0,0-.784-.32,1.231,1.231,0,0,0-.2-.016,2.063,2.063,0,0,0-.713.163,2.1,2.1,0,0,0-.889.84l-.205.293c-.156.223-.313.447-.478.666s-.336.418-.521.622a7.474,7.474,0,0,1-.744.672,2.719,2.719,0,0,1-.372.164,2.885,2.885,0,0,1-.3.071l-.139-.015a8.554,8.554,0,0,1-1.06-.435c-.112-.071-.226-.141-.335-.222a4.29,4.29,0,0,1-.4-.476,5.642,5.642,0,0,1-.311-.733,16.491,16.491,0,0,1-.415-3.31l-.008-.124c0-.219-.013-.437-.023-.661a1.889,1.889,0,0,0,.2-1.9,1.8,1.8,0,0,0-.342-.5,1.634,1.634,0,0,0-.166-.495,1.473,1.473,0,0,0-1.382-1.027,1.654,1.654,0,0,0-.264.023,1.491,1.491,0,0,0-1.206,1.595l-.266.164a1.213,1.213,0,0,0-.534-.13,1.952,1.952,0,0,0-1.319.406,1.8,1.8,0,0,0-.411,2.28,28.463,28.463,0,0,1-1.888,2.46l-.212.222a13.647,13.647,0,0,1-1.045,1.03c-.26-.567-.49-1.171-.713-1.756l-.573-1.486c-.371-.992-.75-1.98-1.13-2.967-.309-.8-.643-1.591-.993-2.346-.21-.467-.374-.831-.574-1.179A3.205,3.205,0,0,0,87.293.114,1.892,1.892,0,0,0,86.654,0a2.058,2.058,0,0,0-.326.028A1.96,1.96,0,0,0,85.164.76a3.242,3.242,0,0,0-.578,2l-.028.434-.024.416a21.841,21.841,0,0,1-.289,2.52,16.837,16.837,0,0,1-1.358,3.5,11.74,11.74,0,0,1-.692,1.09c-.1-.046-.209-.093-.318-.141a6.869,6.869,0,0,1-.718-.515,8.769,8.769,0,0,1-.871-1.1,35.614,35.614,0,0,1-1.836-3.8l-.175-.4c-.116-.27-.231-.539-.352-.806l-.091-.2a3.215,3.215,0,0,0-1.12-1.567,1.735,1.735,0,0,0-.942-.265c-.064,0-.129,0-.2.008a1.97,1.97,0,0,0-.636.181A3.046,3.046,0,0,0,73.62,3.768a9.037,9.037,0,0,0-.528,1.764L73,5.925c-.168.7-.3,1.416-.439,2.128l-.113.587a11.421,11.421,0,0,1-.724,2.007l-.123.09,0-.012c-.137.028-.242.048-.35.062-.087,0-.178-.015-.267-.028a4.228,4.228,0,0,1-.713-.242,5.692,5.692,0,0,1-.605-.421,7.114,7.114,0,0,1-.568-.733c-.312-.528-.6-1.072-.893-1.616l-.108-.2-.1-.192-.3-.553-.062-.118a2.585,2.585,0,0,0-.854-1.093,1.521,1.521,0,0,0-.793-.249,1.371,1.371,0,0,0-.227.019A1.458,1.458,0,0,0,64.9,5.9a2.842,2.842,0,0,0-.568,1.349c-.086.371-.152.746-.209,1.121-.067.437-.133.874-.2,1.31-.129.784-.266,1.562-.441,2.336a7.679,7.679,0,0,1-.28.943c-.073.007-.125.01-.166.01a.7.7,0,0,1-.111-.009,5.227,5.227,0,0,1-.642-.25A13.876,13.876,0,0,1,60,10.9l-.155-.143-.323-.306-.239-.222c-.2-.185-.4-.371-.607-.543a3.947,3.947,0,0,0-.357-.267,2.363,2.363,0,0,0-.863-.338,2.218,2.218,0,0,0-2.54,1.317,7.127,7.127,0,0,0-.462,2.7A23.4,23.4,0,0,0,54.6,15.59l.033.356c.059.687.115,1.329.152,1.98a13.1,13.1,0,0,1-.113,2.523l-.052.149a9.149,9.149,0,0,1-1.46.686c-.282.087-.565.171-.848.254s-.569.167-.851.254a4.507,4.507,0,0,1-.705.123,6.821,6.821,0,0,1-1.084-.08c-.362-.1-.71-.228-1.062-.359l-.228-.083c-.375-.136-.756-.259-1.136-.381L46.6,20.8c-.584-.195-1.158-.418-1.732-.642a10.792,10.792,0,0,0-2.062-.565,1.212,1.212,0,0,0-.207-.018,1.576,1.576,0,0,0-1.268.736,5.954,5.954,0,0,0-.966-.242,1.136,1.136,0,0,0-.187-.015,1.018,1.018,0,0,0-.7.231.887.887,0,0,0-.331.9,4.023,4.023,0,0,0,.158.462,2.171,2.171,0,0,0,.259.418,11.355,11.355,0,0,0,.863,1.032c.485.532.926.984,1.377,1.435a22.684,22.684,0,0,1,2.738,3.16,3.493,3.493,0,0,1,.232.478,2.907,2.907,0,0,1,.079.344,1,1,0,0,1-.018.167,3.437,3.437,0,0,1-.194.5,3.467,3.467,0,0,1-.2.292l-.11.1-.006-.01a7.257,7.257,0,0,1-1.337.574,32.838,32.838,0,0,1-4.349.887l-.692.108c-1.221.193-2.47.284-3.545.352l-.445.027-.447.026c-.261.018-.427.029-.594.057a1.193,1.193,0,0,0-.9.731,1.23,1.23,0,0,0-.076.6,1.355,1.355,0,0,0,.254.57,6.368,6.368,0,0,0,.8.81,8.115,8.115,0,0,0,.9.651l.237.155.766.52.768.52c.223.153.443.319.663.484l.139.1A16.973,16.973,0,0,1,37.9,37.846a7.476,7.476,0,0,1,.938,1.08,4.973,4.973,0,0,1,.3.615,2.5,2.5,0,0,1,.061.315c0,.112-.015.217-.028.326a2.657,2.657,0,0,1-.142.371c-.071.1-.141.2-.222.3a5.876,5.876,0,0,1-.505.406,8.123,8.123,0,0,1-1.554.692,27,27,0,0,1-3.648.722l-.651.1-.732.117-.73.117-.3.042a2.4,2.4,0,0,0-1.838.8,1.217,1.217,0,0,0-.22.6,1.287,1.287,0,0,0,.277.89,3.16,3.16,0,0,0,.892.765l.274.187a13.284,13.284,0,0,1,1.077.874,10.2,10.2,0,0,1,1.195,1.413,9.966,9.966,0,0,1,.848,1.891,12.1,12.1,0,0,1,.513,2.622,10.511,10.511,0,0,1-.2,2.208,9.324,9.324,0,0,1-.588,1.651,6.185,6.185,0,0,1-.625.861,13.262,13.262,0,0,1-2.357,1.911,16.328,16.328,0,0,1-2.908,1.447l-.343.093c-.38.1-.762.209-1.138.333a3.332,3.332,0,0,0-1.334.973,1.978,1.978,0,0,0-.525,1.151,1.878,1.878,0,0,0,.164.87,1.612,1.612,0,0,0,.586.694c.21.127.377.214.543.3a2.583,2.583,0,0,0,.436.158,12.093,12.093,0,0,0,1.214.285l.132.024.712.128.173.028c.492.08.981.159,1.465.266a4.426,4.426,0,0,1,.544.165,7.538,7.538,0,0,1,.773.332,11.922,11.922,0,0,1,1.589,1.09,7.837,7.837,0,0,1,.88,1.028,3.371,3.371,0,0,1,.171.363,11.8,11.8,0,0,1,.242,1.51,4.393,4.393,0,0,1-.053.7,3.994,3.994,0,0,1-.2.552,7.242,7.242,0,0,1-.734,1.013c-.492.5-1.032.964-1.554,1.413-.344.3-.688.591-1.022.9q-1.247,1.154-2.459,2.336c-.395.38-.789.76-1.178,1.145a6.01,6.01,0,0,0-.424.447,2.362,2.362,0,0,0-.315.53,1.365,1.365,0,0,0-.07.717,1.527,1.527,0,0,0,.94,1.232,1.718,1.718,0,0,0,.7.131,3.647,3.647,0,0,0,.5-.04,8.243,8.243,0,0,0,.843-.187c.228-.058.456-.118.686-.159l.234-.047c.194-.041.39-.081.587-.1l.508-.057.508-.057c.353-.016.707-.032,1.061-.045l.1.009.879-.008a14.01,14.01,0,0,1,2.609.2,2.635,2.635,0,0,1,1.049.529c.069.084.141.169.206.259a6.762,6.762,0,0,1,.5,1.1,5.4,5.4,0,0,1,.142.705.686.686,0,0,1-.051.154,4.614,4.614,0,0,1-.425.553,9.326,9.326,0,0,1-1.413,1.17,1.24,1.24,0,0,0-.371.518,1.255,1.255,0,0,0,.028.941c-.167.147-.339.309-.514.466a11.84,11.84,0,0,1-1.1.839,6.543,6.543,0,0,0-1.161,1.018,1.649,1.649,0,0,0-.44.923,1.329,1.329,0,0,0,.547,1.179,1.3,1.3,0,0,0,.784.236,3.927,3.927,0,0,0,.94-.157c.52-.135,1.031-.267,1.542-.395s.95-.238,1.379-.308l.359-.057c.459-.073.915-.146,1.38-.195.506-.057,1.014-.1,1.527-.142l.325,0a8.093,8.093,0,0,1,1.42.1l.2.071.095.1-.012,0a3.944,3.944,0,0,1,.109.687,6.528,6.528,0,0,1-.127,1.251,11.249,11.249,0,0,1-.854,2.2,42.377,42.377,0,0,1-2.325,3.574l-.4.579c-.366.532-.732,1.063-1.106,1.586l-.373.518-.216.3-.115.156a3.744,3.744,0,0,0-.341.5,1.554,1.554,0,0,0,1.121,2.452c.051,0,.1.009.15.009a1.639,1.639,0,0,0,.987-.357,2.565,2.565,0,0,0,.381-.36A14.977,14.977,0,0,1,42,102.064a21.642,21.642,0,0,1,4.317-2.031,18.775,18.775,0,0,1,2.866-.622c.518-.071,1.026-.137,1.538-.175h.012a7.708,7.708,0,0,1,1.381.1,2.365,2.365,0,0,1,.252.966,9.958,9.958,0,0,1-.228,1.915,29.121,29.121,0,0,1-.973,2.985q-.471,1.254-.894,2.522a25.093,25.093,0,0,0-.787,2.754,4.209,4.209,0,0,0-.053,1.367c.048.173.1.349.162.52.081.145.168.284.262.421a1.607,1.607,0,0,0,.757.522,1.466,1.466,0,0,0,.523.1,1.658,1.658,0,0,0,.266-.023,1.283,1.283,0,0,0,.5-.192,2.7,2.7,0,0,0,.571-.424c.2-.2.394-.408.58-.617.27-.285.5-.518.741-.745a12.48,12.48,0,0,1,1.688-1.314,19.43,19.43,0,0,1,3.616-1.708c.193-.052.388-.1.586-.147a9.123,9.123,0,0,1,.166.981,6.612,6.612,0,0,1-.1,1.227l-.064.322a5.418,5.418,0,0,0-.15,1.138,1.525,1.525,0,0,0,.311.994,1.162,1.162,0,0,0,1.095.4c.513-.089.768-.5,1.015-.895l.159-.255.3-.464a3.762,3.762,0,0,1,.322-.4,5.723,5.723,0,0,1,.8-.72,4.606,4.606,0,0,1,.534-.254,5.571,5.571,0,0,1,1.041-.227,2.606,2.606,0,0,1,.339.037c.079.023.159.052.235.08.1.13.155.205.213.289a5.061,5.061,0,0,1,.384.81,20.889,20.889,0,0,1,.659,4.843c.006.355,0,.708,0,1.061,0,.545-.009,1.091.018,1.636a.876.876,0,0,0,.789.728h.01a.89.89,0,0,0,.9-.569,9.1,9.1,0,0,1,.8-1.922l.068-.131a8.122,8.122,0,0,1,.541-.92c.195-.265.394-.522.606-.773a3.648,3.648,0,0,1,.563-.448,4.347,4.347,0,0,1,.635-.327l.108,0a1.986,1.986,0,0,1,.327.028,2.81,2.81,0,0,1,.492.333,5.519,5.519,0,0,1,.548.692,7.341,7.341,0,0,1,.7,1.488,22.335,22.335,0,0,1,.8,4.554c.018.6.028,1.206,0,1.809-.014.44-.051.88-.089,1.321l-.049.6a1.012,1.012,0,0,0,.9,1.082h.009a1.018,1.018,0,0,0,1.068-.9c.061-.518.17-1.03.28-1.533a11.262,11.262,0,0,1,.882-2.389,9.786,9.786,0,0,1,1.147-1.536,7.665,7.665,0,0,1,1.1-.938,3.134,3.134,0,0,1,.438-.2,1.578,1.578,0,0,1,.22-.043,1.1,1.1,0,0,1,.265.084,4.371,4.371,0,0,1,.681.5,5.751,5.751,0,0,1,.61.743,12.508,12.508,0,0,1,.635,1.219,11.131,11.131,0,0,1,.446,1.2c.072.228.137.46.2.693s.093.327.129.433a3.527,3.527,0,0,0,.156.446,1.106,1.106,0,0,0,.374.419.854.854,0,0,0,.529.174.869.869,0,0,0,.169-.016.954.954,0,0,0,.7-.576,2.706,2.706,0,0,0,.177-.558c.052-.214.119-.518.186-.821a7.4,7.4,0,0,1,.5-1.251,5.2,5.2,0,0,1,.573-.823,3.541,3.541,0,0,1,.492-.417,3.217,3.217,0,0,1,.4-.193,4.953,4.953,0,0,1,.828-.146,1.509,1.509,0,0,1,.2.023l.155.1a6.1,6.1,0,0,1,.757,1.021,14.015,14.015,0,0,1,.7,1.244,4.645,4.645,0,0,1,.218.544l.051.137a1.322,1.322,0,0,0,.451.714,1.2,1.2,0,0,0,.495.192l.129,0a.857.857,0,0,0,.385-.083,1.243,1.243,0,0,0,.6-.661l.119-.261c.072-.158.145-.316.209-.475l.124-.3c.067-.159.133-.318.193-.481l.129-.343c.145-.384.287-.766.456-1.139A8.575,8.575,0,0,1,95.1,118.8a3.624,3.624,0,0,1,.425-.34,3.811,3.811,0,0,1,.429-.208c.083-.012.168-.022.253-.027a1.393,1.393,0,0,1,.4.123,6.67,6.67,0,0,1,.862.615,4.321,4.321,0,0,1,.478.605c.108.175.212.35.317.531l.16.264a3.106,3.106,0,0,0,.749.879,1.324,1.324,0,0,0,.8.261,1.228,1.228,0,0,0,.2-.016,1.306,1.306,0,0,0,.829-.614,3.175,3.175,0,0,0,.4-1.019c.118-.433.2-.874.284-1.312.066-.365.127-.729.187-1.1.114-.692.228-1.383.378-2.066a4.486,4.486,0,0,1,.166-.5,2.355,2.355,0,0,1,.38-.327c.064-.036.131-.069.2-.1l.147-.011,0,.012a2.637,2.637,0,0,1,.341.133,4.479,4.479,0,0,1,.51.383,9.044,9.044,0,0,1,1.133,1.383c.118.205.234.417.348.627l.25.455a2.813,2.813,0,0,0,.824,1.03,1.213,1.213,0,0,0,.688.209,1.385,1.385,0,0,0,.569-.126,1.775,1.775,0,0,0,.769-.833,4.161,4.161,0,0,0,.236-1.812,10.952,10.952,0,0,1,.121-2.169,8.925,8.925,0,0,1,.564-1.573,3.271,3.271,0,0,1,.284-.391,3.971,3.971,0,0,1,.458-.378,5.6,5.6,0,0,1,.862-.4,5.026,5.026,0,0,1,.918-.123l.287,0a11.989,11.989,0,0,1,2.093.169,5.727,5.727,0,0,1,.909.33,16.3,16.3,0,0,1,1.451.959c.526.389,1.063.76,1.6,1.13a6.432,6.432,0,0,0,1.732.862c.232.071.454.156.682.246l.105.22.112.226a1.17,1.17,0,0,0,1.036.652,1.1,1.1,0,0,0,.472-.106,1.156,1.156,0,0,0,.592-.668,1.07,1.07,0,0,0-.045-.84,11.4,11.4,0,0,1-.6-1.35c-.143-.554-.238-1.112-.333-1.67l-.084-.488a24.378,24.378,0,0,1-.333-2.42c-.01-.4-.01-.8,0-1.2a7.352,7.352,0,0,1,.152-1.256c.052-.175.1-.345.161-.516a8.046,8.046,0,0,1,.4-.9l.158-.328a8.21,8.21,0,0,0,.467-1.241,1,1,0,0,0,.205-.052l.451-.152.451-.152-.095.021.125-.047v.012l.118-.05,0-.012c.441-.109.953-.271,1.471-.408a15.529,15.529,0,0,1,2.026-.374c.672-.09,1.353-.123,2.049-.152h.276a9.04,9.04,0,0,1,1.659.12c.265.066.531.133.8.184a1.8,1.8,0,0,0,.339.032,1.426,1.426,0,0,0,.847-.269,1.235,1.235,0,0,0,.466-1.228,2.138,2.138,0,0,0-.949-1.249c-.322-.263-.544-.462-.767-.661l-.178-.171-.179-.171a7.274,7.274,0,0,1-.929-1.162c-.371-.607-.729-1.273-1.129-2.1a15.807,15.807,0,0,1-.66-1.617,9.167,9.167,0,0,1-.241-1.455c0-.15.008-.3.018-.451a2.349,2.349,0,0,1,.629-.305,29.86,29.86,0,0,1,4.286-.944c.616-.1,1.231-.185,1.846-.272l.617-.089c.347-.047.688-.095,1.031-.147l.279-.035a1.8,1.8,0,0,0,1.434-.611,1.181,1.181,0,0,0,.2-.877,1.2,1.2,0,0,0-.733-.882c-.072-.036-.155-.07-.235-.1a7.849,7.849,0,0,1-1.375-1.027l-.1-.09a9.041,9.041,0,0,1-1.171-1.257,4.99,4.99,0,0,1-.283-.628,6.53,6.53,0,0,1-.217-1.179,4.291,4.291,0,0,1,.037-.558,3.756,3.756,0,0,1,.15-.4l.071-.114.008.008a4.293,4.293,0,0,1,.417-.35,7.207,7.207,0,0,1,.961-.43,27.3,27.3,0,0,1,2.815-.617l.587-.109.463-.085a11.287,11.287,0,0,0,2.189-.543,1.681,1.681,0,0,0,.588-.46,1.363,1.363,0,0,0,.264-1,2.559,2.559,0,0,0-.692-1.251,9.811,9.811,0,0,0-2.838-1.9" transform="translate(-10.809)" fill="#31a854"/>
        <path id="Trazado_882706" data-name="Trazado 882706" d="M38.394,218.083c.033.045.06.092.092.137l.05.062Z" transform="translate(-17.535 -99.599)" fill="#bebebe"/>
        <path id="Trazado_882707" data-name="Trazado 882707" d="M113.556,85.254a4.2,4.2,0,0,0-.456-.735,4.069,4.069,0,0,0-.778-.7,2.984,2.984,0,0,0-1.77-.55,3.212,3.212,0,0,0-.377.022,4.032,4.032,0,0,0-.522.1,6.176,6.176,0,0,0-1.3.1,4.7,4.7,0,0,0-2.374,1.193,2.911,2.911,0,0,0-.931,2.117,3,3,0,0,0,.291,1.248,3.649,3.649,0,0,0,.915,1.163,2.1,2.1,0,0,0,.169.14,3.8,3.8,0,0,0,.582.605,3.536,3.536,0,0,0,1,.565,3.3,3.3,0,0,0,1.4.209,4.206,4.206,0,0,0,3.58-2.33c.086-.142.158-.293.232-.437a4.774,4.774,0,0,0,.409-1.22c.033-.176.072-.342.1-.518,0-.161-.01-.323-.015-.479-.048-.167-.1-.328-.147-.49" transform="translate(-47.976 -38.028)" fill="#fefefe"/>
        <path id="Trazado_882708" data-name="Trazado 882708" d="M175.074,79.626a3.141,3.141,0,0,0-.7-.622,3.394,3.394,0,0,0-2.091-.564,3.858,3.858,0,0,0-.688-.061,3.966,3.966,0,0,0-1.917.5,4.642,4.642,0,0,0-1.738,1.7,3.441,3.441,0,0,0-.4,2.853,3.63,3.63,0,0,0,1.7,1.9,5.138,5.138,0,0,0,1.281.561,7.149,7.149,0,0,0,.751.152,4.133,4.133,0,0,0,.969-.01,3.3,3.3,0,0,0,.678-.171,4.761,4.761,0,0,0,.518-.2,3.8,3.8,0,0,0,1.044-.75,4.656,4.656,0,0,0,.851-1.145,4.724,4.724,0,0,0,.469-1.452,3.815,3.815,0,0,0-.237-1.9,2.962,2.962,0,0,0-.48-.789" transform="translate(-76.445 -35.796)" fill="#fefefe"/>
        <path id="Trazado_882709" data-name="Trazado 882709" d="M99.2,58.456a.649.649,0,0,0-.179.026,2.149,2.149,0,0,0-.237.085,2.522,2.522,0,0,0-.409.3c-.109.095-.219.191-.333.281-.209.18-.413.366-.616.545-.375.337-.742.68-1.12,1.011-.409.366-.822.727-1.24,1.088a13.336,13.336,0,0,0-1.372,1.224.928.928,0,0,0-.247.371.869.869,0,0,0,.555,1.1,5.006,5.006,0,0,0,1.681-.309c.373-.534.77-1.045,1.194-1.541.254-.284.518-.563.786-.838s.559-.525.84-.791c.194-.18.39-.366.585-.546.213-.2.446-.394.645-.6a.808.808,0,0,0,.175-.968.83.83,0,0,0-.708-.439" transform="translate(-42.656 -26.697)" fill="#161616"/>
        <path id="Trazado_882710" data-name="Trazado 882710" d="M186.61,56.3c-.346-.451-.7-.9-1.044-1.358-.323-.418-.642-.844-.979-1.253-.241-.29-.474-.58-.731-.859a8.883,8.883,0,0,0-.882-.807,1.031,1.031,0,0,0-.485-.167h-.045a.864.864,0,0,0-.4.106.807.807,0,0,0-.224,1.248c.594.685,1.22,1.345,1.815,2.032.18.206.358.414.535.623.363.482.714.97,1.066,1.459A13.118,13.118,0,0,1,186,58.532a.9.9,0,1,0,1.595-.83,10.48,10.48,0,0,0-.987-1.406" transform="translate(-82.947 -23.681)" fill="#161616"/>
        <path id="Trazado_882711" data-name="Trazado 882711" d="M4,23.9l.078.039h0l-.032-.016L4,23.9" transform="translate(-1.825 -10.914)" fill="#161616"/>
        <path id="Trazado_882712" data-name="Trazado 882712" d="M25.536,57.666q-.628-1.247-1.263-2.493c-.285-.561-.565-1.121-.85-1.681a2.621,2.621,0,0,1-.118-.271c-.138-.312-.271-.631-.408-.945L20.93,47.7c-.139-.312-.261-.635-.385-.954-.346-.864-.688-1.728-1.034-2.592-.423-1.059-.845-2.122-1.272-3.181-.513-1.263-1.006-2.53-1.544-3.784-.545-1.282-1.087-2.568-1.652-3.841q-.883-2-1.756-4.007c-.323-.74-.622-1.5-.936-2.246-.28-.673-.536-1.357-.835-2.022-.167-.374-.323-.76-.508-1.126-.209-.4-.418-.8-.642-1.191-.046-.085-.094-.169-.142-.253a2.432,2.432,0,0,0-.02-.246,1.327,1.327,0,0,0-.191-.411.877.877,0,0,0,.21-.525c.033-.982.176-1.965.294-2.944.123-1.03.276-2.05.443-3.07l-.015.076.015-.076c.007-.048.016-.1.023-.143-.007.047-.016.1-.023.143.115-.593.246-1.19.336-1.786a.847.847,0,0,0-1.552-.508,3.007,3.007,0,0,0-.328,1.021c-.085.371-.167.741-.247,1.11-.152.7-.289,1.41-.423,2.122-.012.067-.024.135-.038.2-.188-.424-.377-.85-.555-1.279-.328-.794-.65-1.586-.974-2.383l-.513-1.254c-.057-.147-.118-.3-.185-.441a2.711,2.711,0,0,0-.176-.337.958.958,0,0,0-.807-.493.436.436,0,0,0-.06,0,.909.909,0,0,0-.859,1.094,18.345,18.345,0,0,0,.611,1.971c.152.461.323.912.495,1.363q.434,1.169.892,2.321c.087.222.175.444.263.665-.508-.361-1.033-.7-1.564-1.03-.47-.3-.964-.551-1.462-.8-.276-.137-.556-.27-.836-.4a3.391,3.391,0,0,0-.7-.256.988.988,0,0,0-.688.057.914.914,0,0,0-.437.513.9.9,0,0,0,.057.689.862.862,0,0,0,.308.331l0,.006a5.488,5.488,0,0,0,.706.359l.028.014,0,0,.008,0A26.622,26.622,0,0,1,4.571,19.7a12.329,12.329,0,0,0-1.4.1c-.517.061-1.025.128-1.538.2-.209.028-.413.061-.618.1a1.437,1.437,0,0,0-.726.351.924.924,0,0,0-.247.374,1,1,0,0,0-.018.49.828.828,0,0,0,.787.663H.832a5.928,5.928,0,0,0,.794-.113l.725-.114c.582-.1,1.163-.184,1.743-.246a8.244,8.244,0,0,1,1.73.095,10.184,10.184,0,0,1,2.021.635c.154.068.305.142.458.214.127.15.25.3.373.456l-.01-.015.01.013a.881.881,0,0,0,.085.118.213.213,0,0,0,.02.026v0l.016.017.021.038c.294.537.6,1.078.845,1.643.513,1.173.993,2.359,1.482,3.542.545,1.329,1.115,2.655,1.689,3.974.461,1.054.941,2.093,1.392,3.147.513,1.2,1.039,2.393,1.534,3.6s1,2.421,1.485,3.637Q18.2,45,19.155,47.373c.384.949.793,1.89,1.206,2.829.461,1.068.926,2.132,1.387,3.2.195.446.389.879.611,1.306q.769,1.517,1.548,3.034c.523,1.021,1.059,2.027,1.609,3.033a.738.738,0,1,0,1.31-.678c-.437-.807-.878-1.609-1.291-2.426M4.139,21.495l.065-.006-.065.006" transform="translate(0 -5.153)" fill="#161616"/>
        <path id="Trazado_882713" data-name="Trazado 882713" d="M265.858,33.412a1.783,1.783,0,0,0-.466.2,4.855,4.855,0,0,0-.441.332c-.123.1-.247.209-.366.318-.227.209-.451.418-.673.632-.179.175-.354.355-.529.534.108-.426.218-.852.334-1.275.1-.379.2-.76.312-1.134.143-.47.291-.94.413-1.42a1.147,1.147,0,0,0-.451-1.282,1.13,1.13,0,0,0-1.542.323A4.092,4.092,0,0,0,262,31.779c-.1.313-.2.627-.307.94-.181.574-.366,1.149-.547,1.723-.19.6-.369,1.2-.569,1.8-.106.321-.211.641-.316.963-.011-.029-.021-.06-.031-.089-.274-.812-.545-1.619-.812-2.431s-.531-1.643-.8-2.464c-.123-.389-.242-.778-.361-1.172-.01-.034-.02-.067-.028-.1a7.541,7.541,0,0,0-.261-1.072v0c-.012-.039-.024-.076-.039-.113a1.089,1.089,0,0,0-.044-.112v0h0a.881.881,0,0,0-.142-.21.95.95,0,0,0-.66-.317h-.037a1,1,0,0,0-.656.248.962.962,0,0,0-.265.412.925.925,0,0,0-.029.508c.062.657.194,1.307.3,1.952.109.683.242,1.367.366,2.05s.271,1.354.413,2.032c.123.594.269,1.177.441,1.757a13.864,13.864,0,0,0,.456,1.315,4.412,4.412,0,0,0,.3.593c.024.04.049.079.074.116-.4.72-.865,1.414-1.318,2.1-.689,1.054-1.4,2.085-2.109,3.115-.612.882-1.276,1.728-1.923,2.583q-.591.789-1.181,1.571c-.637.84-1.336,1.643-2.023,2.444a.117.117,0,0,1,.014-.018q-2.791,3.248-5.9,6.2c-1.012.964-2.047,1.9-3.091,2.829-.461.408-.926.817-1.406,1.206l-3.1,2.488q-.669.534-1.339,1.073c-.57.456-1.163.884-1.747,1.32a.991.991,0,0,0,.612,1.728,1.035,1.035,0,0,0,.716-.256c.7-.518,1.4-1.036,2.08-1.581.707-.569,1.42-1.139,2.127-1.709.664-.528,1.325-1.058,1.985-1.586.845-.679,1.648-1.41,2.45-2.136q2.164-1.945,4.216-4.017c1.348-1.367,2.639-2.792,3.888-4.254.8-.926,1.6-1.853,2.341-2.829.536-.712,1.077-1.425,1.614-2.137.959-1.268,1.9-2.55,2.777-3.875q.517-.782,1.032-1.565c.731-.175,1.466-.3,2.2-.442.5-.1,1.008-.207,1.512-.3l.254.023a8.842,8.842,0,0,0,1.054.052c.171,0,.337-.009.508-.024a2.464,2.464,0,0,0,1.031-.224,1.075,1.075,0,0,0,.408-.365,1.2,1.2,0,0,0,.147-.826,1.052,1.052,0,0,0-.475-.769,2.128,2.128,0,0,0-.869-.285,3.334,3.334,0,0,0-.755-.015,9.652,9.652,0,0,0-1.172.129c-.072.01-.143.022-.214.033.406-.423.814-.844,1.215-1.272.461-.494.907-1,1.358-1.5.18-.2.356-.413.536-.622.114-.128.223-.261.338-.394a4.847,4.847,0,0,0,.74-.959,1.031,1.031,0,0,0,.176-.532,1.121,1.121,0,0,0-.119-.55,1.075,1.075,0,0,0-1.182-.551M263.9,35.544c.023-.028.046-.056.071-.084-.024.028-.047.056-.071.084" transform="translate(-106.412 -13.303)" fill="#161616"/>
        <path id="Trazado_882714" data-name="Trazado 882714" d="M108.042,210.686a.913.913,0,1,0,.864.959.928.928,0,0,0-.864-.959" transform="translate(-48.905 -96.221)" fill="#161616"/>
        <path id="Trazado_882715" data-name="Trazado 882715" d="M103.195,232.325a1.314,1.314,0,0,0-.185-.1c-.249-1.22-.465-2.441-.7-3.666-.5-2.668-.742-5.394-1-8.094-.011-.115-.024-.229-.035-.342q-.126-1.75-.25-3.494c-.047-.617-.1-1.235-.133-1.852-.029-.431-.062-.864-.09-1.3,0-.1-.015-.2-.02-.309-.015-.221-.033-.444-.043-.67v-.035c0-.1.009-.2,0-.293a.484.484,0,0,0-.223-.426.459.459,0,0,0-.259-.08.566.566,0,0,0-.344.128,1.129,1.129,0,0,0-.318.869c-.018.2-.023.4-.023.593,0,.455,0,.911,0,1.367,0,.641.015,1.287.023,1.933.02,1.21.015,2.421.062,3.632.11,2.769.219,5.536.418,8.3.09,1.281.2,2.562.2,3.846-1.135.068-2.27.073-3.41.114-.7.024-1.41.077-2.112.147a16.766,16.766,0,0,0-3.4.508,2.521,2.521,0,0,0-1.448.969,1.786,1.786,0,0,0,.175,2.132,3.1,3.1,0,0,0,2.308.844,16.246,16.246,0,0,0,1.889-.057,19.056,19.056,0,0,0,2.1-.2c.394-.065.788-.128,1.178-.194.327-.052.645-.147.969-.222.645-.152,1.281-.338,1.913-.545.271-.092.541-.187.806-.292q.312-.031.624-.074a4.23,4.23,0,0,0,1.2-.38,1.592,1.592,0,0,0,.137-2.748" transform="translate(-40.933 -96.667)" fill="#161616"/>
        <path id="Trazado_882716" data-name="Trazado 882716" d="M191.744,225.487a17.588,17.588,0,0,0-1.965-.114c-.8-.024-1.6,0-2.4.018s-1.6.015-2.393,0c-.338,0-.669-.024-1-.014a7.551,7.551,0,0,0-.921.07,1.565,1.565,0,0,0-.171.038c-.008-.049-.014-.1-.018-.146-.1-.756-.181-1.515-.266-2.27-.166-1.457-.3-2.914-.451-4.371-.356-3.561-.746-7.118-1.15-10.669a1.154,1.154,0,0,0-1.17-.916,1.042,1.042,0,0,0-.23.024,1.207,1.207,0,0,0-.727.5,1.257,1.257,0,0,0-.16.9c.369,3.29.735,6.58,1.058,9.875.273,2.779.535,5.559.82,8.339.018.243.03.485.034.73a1.628,1.628,0,0,0,.526,1.153,3.807,3.807,0,0,0,1.235.769,9.322,9.322,0,0,0,3.3.409c1.4.024,2.787-.11,4.173-.223l-.374.028c.821-.067,1.642-.162,2.459-.28.338-.047.674-.1,1.011-.152a2.452,2.452,0,0,0,1.743-.906,1.4,1.4,0,0,0,.071-1.425c-.579-1.064-1.951-1.21-3.029-1.363" transform="translate(-81.613 -94.587)" fill="#161616"/>
        <path id="Trazado_882717" data-name="Trazado 882717" d="M181.452,121.288h.01l.012,0-.022,0" transform="translate(-82.87 -55.39)" fill="#161616"/>
        <path id="Trazado_882718" data-name="Trazado 882718" d="M146.013,121.267a1.132,1.132,0,0,0-.871.422,1.637,1.637,0,0,0-.171.294c-.019.068-.04.137-.059.208a1.541,1.541,0,0,1-.081.192,24.953,24.953,0,0,1-3.08,3.619c-.317.3-.63.6-.943.908a15.259,15.259,0,0,1-2.772,2.056c-.548.3-1.1.583-1.662.864-.409.209-.83.384-1.248.57s-.864.347-1.305.5c-.318.118-.643.21-.968.3-.988.226-1.991.416-2.992.6a22.772,22.772,0,0,1-2.942.254c-1.05-.007-2.1-.049-3.149-.087-1.168-.044-2.336-.072-3.5-.2-.546-.057-1.091-.191-1.628-.3s-1.05-.222-1.576-.327c-.566-.109-1.135-.2-1.705-.309q-.731-.139-1.457-.313a14.51,14.51,0,0,1-1.515-.556,22.53,22.53,0,0,1-2.05-.986,14.319,14.319,0,0,1-1.372-.942,12.108,12.108,0,0,1-1.22-1.106c.037.037.075.081.113.119-.526-.537-1.054-1.073-1.557-1.638a6.149,6.149,0,0,1-.555-.755c-.191-.29-.373-.586-.551-.886.016.027.03.054.043.079-.012-.026-.027-.052-.043-.079l-.024-.04.024.04c-.277-.508-.517-1.036-.764-1.559a.493.493,0,0,0-.912.375c.261.551.493,1.111.75,1.661a12.974,12.974,0,0,0,1.021,1.709,16.26,16.26,0,0,0,1.149,1.406c.348.409.684.82,1.063,1.2a13.354,13.354,0,0,0,2.213,1.781c.683.441,1.415.812,2.132,1.181a11.02,11.02,0,0,0,1.679.742c1.259.4,2.56.626,3.847.93.631.148,1.268.3,1.9.443a13.645,13.645,0,0,0,1.9.261c1.345.1,2.692.165,4.042.252.583.037,1.176.1,1.761.1.707,0,1.41,0,2.112-.043a15.257,15.257,0,0,0,1.8-.237c.58-.1,1.159-.185,1.733-.309.356-.08.707-.161,1.064-.261.313-.085.632-.16.94-.274.352-.124.707-.252,1.064-.381.317-.113.631-.274.939-.412.593-.256,1.163-.557,1.743-.841a19.669,19.669,0,0,0,2.041-1.206,13.575,13.575,0,0,0,1.833-1.453c.523-.5,1.054-1,1.557-1.514.261-.271.528-.542.789-.817.252-.256.479-.547.717-.817a11.493,11.493,0,0,0,1.058-1.462,5.609,5.609,0,0,0,.57-1.078,1.935,1.935,0,0,0,.109-.855,1.185,1.185,0,0,0-.337-.688.831.831,0,0,0-.705-.332m-13.438,10.016.1-.029-.1.029" transform="translate(-47.259 -55.383)" fill="#161616"/>
        <path id="Trazado_882719" data-name="Trazado 882719" d="M117.192,85.665a1.492,1.492,0,0,0-.294-.228l-.17-.1c-.124-.038-.248-.077-.371-.1-.143-.014-.287-.027-.43-.027a1.827,1.827,0,0,0-.381.036,1.477,1.477,0,0,0-.637.322,1.954,1.954,0,0,0-.512.68,2.048,2.048,0,0,0-.072,1.571,3.2,3.2,0,0,0,.261.5,2.537,2.537,0,0,0,.222.242,1.67,1.67,0,0,0,.452.318,2.486,2.486,0,0,0,.417.133,2.558,2.558,0,0,0,.465,0c.12-.023.237-.053.356-.085a3.036,3.036,0,0,0,.466-.256c.047-.039.095-.08.141-.124.077-.024.151-.051.225-.08a1.38,1.38,0,0,0,.631-.631,1.236,1.236,0,0,0,.214-.76,2.683,2.683,0,0,0-.983-1.416m-1.2,1.038h0Z" transform="translate(-52.157 -38.914)" fill="#161616"/>
        <path id="Trazado_882720" data-name="Trazado 882720" d="M179.169,81.371a1.238,1.238,0,0,0-.227-.337,2.245,2.245,0,0,0-.68-.508,3.028,3.028,0,0,0-.755-.232,2.115,2.115,0,0,0-.513-.074,1.245,1.245,0,0,0-.18.012,1.937,1.937,0,0,0-1.163.7,1.351,1.351,0,0,0-.271.6,1.753,1.753,0,0,0,.072.812,2.136,2.136,0,0,0,.227.466,1.658,1.658,0,0,0,.4.48,2.381,2.381,0,0,0,.553.3.772.772,0,0,0,.383.161,1.565,1.565,0,0,0,.664.009,2.058,2.058,0,0,0,.294-.028,1.55,1.55,0,0,0,.684-.284,1.87,1.87,0,0,0,.465-.585c.011-.024.021-.05.03-.076a1.321,1.321,0,0,0,.174-.49,2.224,2.224,0,0,0,.014-.436c-.028-.124-.062-.237-.1-.356-.024-.042-.047-.085-.077-.134" transform="translate(-80.089 -36.637)" fill="#161616"/>
      </g>
    </g>
  </g>
</svg>
