<svg id="Grupo_1103201" data-name="Grupo 1103201" xmlns="http://www.w3.org/2000/svg" xmlns:xlink="http://www.w3.org/1999/xlink" width="398.23" height="299.766" viewBox="0 0 398.23 299.766">
  <defs>
    <clipPath id="clip-path">
      <rect id="Rectángulo_402716" data-name="Rectángulo 402716" width="398.23" height="299.766" fill="none"/>
    </clipPath>
  </defs>
  <g id="Grupo_1103200" data-name="Grupo 1103200" clip-path="url(#clip-path)">
    <path id="Trazado_885536" data-name="Trazado 885536" d="M380.07,288.243s33.277-77.1,9.738-151.465c-12.184-38.5-41.438-83.258-94.392-70.324-24.421,5.965-49.458-13.818-66.278-35.123-19.788-25.062-57.562-41.756-91.7-23.826C84.957,35.069,91.7,80.752,74.666,101.537s-47.194,11.683-64.717,50.9c-25.6,57.284,6.293,135.806,6.293,135.806Z" fill="#ece4d8"/>
    <path id="Trazado_885537" data-name="Trazado 885537" d="M368.506,285.063c-2.422-15.887-9.992-38.307-18.172-52.318-12.144-20.8-39.4-34.245-82.926-45.979H225.727c-10.813,3.326-37.321,11.922-54.633,26.129-13.631,11.184-33.268,61.773-35.957,72.168Z" fill="#b8e2fd"/>
    <path id="Trazado_885538" data-name="Trazado 885538" d="M176.087,213.8a266.969,266.969,0,0,0-22.048,70.262c-.1.584.8.836.9.246a266.055,266.055,0,0,1,21.956-70.037c.254-.539-.549-1.012-.8-.471" fill="#88cefc"/>
    <path id="Trazado_885539" data-name="Trazado 885539" d="M330.129,214.832c-12.635,20.75-15.48,45.4-17.85,69.09-.058.6.873.592.932,0,2.35-23.524,5.174-48.016,17.721-68.619a.466.466,0,0,0-.8-.471" fill="#88cefc"/>
    <path id="Trazado_885540" data-name="Trazado 885540" d="M213.6,191.717c14.852,13.1,38.893,15.693,56.838,7.846a29.629,29.629,0,0,0,11.018-7.846c.38-.455-.274-1.119-.659-.656-5.365,6.426-13.918,9.545-21.937,10.957a59.316,59.316,0,0,1-29.549-2.28,45.272,45.272,0,0,1-15.053-8.677c-.445-.4-1.107.26-.658.656" fill="#88cefc"/>
    <path id="Trazado_885541" data-name="Trazado 885541" d="M226.482,171.235l-.755,15.531c16.378,14,45.29,1.092,45.29,1.092-1.134-15.469,1.488-25.266.35-40.734,4.6-16.617-1.294-36.232-1.294-36.232C263.466,34.712,201.4,50.733,197.9,73.348a139.146,139.146,0,0,0-4.313,28.328c-.795,12.542-16.959,42.518,12.9,66.036a21.347,21.347,0,0,0,20,3.523" fill="#fda78c"/>
    <path id="Trazado_885542" data-name="Trazado 885542" d="M305.9,63.226c-3.863-13.717-18.816-32.364-42.435-30.411-30.4,2.511-28.8-9.415-40.75-13.259-16.233-5.217-27.247,8.26-27.247,18.7,0,13.992-6.959,10.287-10.724,17.823-4.7,9.407-4.636,19.422,9.582,36.75,0,0,1.045-15.683,6.262-21.675,4.753-5.455,8.871-3.949,14.589-.871,5.024,2.705,10.973,2.206,19.623-.21,11.944-3.335,19.893,7.169,20.862,15.476a91.048,91.048,0,0,1-.11,16.89c-1.32,15.819,13.217,30.375,16.457,31.436-4,13.64-7.384,28.942-.83,33.839C284.207,135.9,316.7,101.579,305.9,63.226" fill="#14232f"/>
    <path id="Trazado_885543" data-name="Trazado 885543" d="M285.916,118.156c-1.375-4.391-5.221-7.963-9.857-8.25-5.5-.342-9.889,2.19-11.52,7.535-1.879,6.156-1.771,11.918,4.275,15.641,4.127,2.539,10.733,1.879,14.223-1.817a13.631,13.631,0,0,0,2.879-13.109" fill="#fda78c"/>
    <path id="Trazado_885544" data-name="Trazado 885544" d="M277.279,114.578a7.451,7.451,0,0,0-5.307,2.952,8.462,8.462,0,0,0-1.486,6.312.554.554,0,0,0,.676.386.565.565,0,0,0,.385-.678c-.522-3.658,1.857-7.547,5.732-7.873.7-.057.707-1.16,0-1.1" fill="#f5816c"/>
    <path id="Trazado_885545" data-name="Trazado 885545" d="M226.482,171.235l-.235,5.168s14.077-3.8,19.769-14.457c0,0-11.606,7.662-19.534,9.289" fill="#f5816c"/>
    <path id="Trazado_885546" data-name="Trazado 885546" d="M384.023,288.044c0,6.471-83,11.722-185.391,11.722s-185.39-5.251-185.39-11.722,83-11.717,185.39-11.717,185.391,5.247,185.391,11.717" fill="#87d4c7"/>
    <path id="Trazado_885547" data-name="Trazado 885547" d="M184.74,245.127a2.044,2.044,0,0,0,1.559-1.91H198.51a2.039,2.039,0,0,0,1.558,1.91,7.729,7.729,0,0,1,5.9,7.318v34.718a2.364,2.364,0,0,1-2.446,2.271H181.285a2.364,2.364,0,0,1-2.446-2.271V252.445a7.729,7.729,0,0,1,5.9-7.318" fill="#ffbd66"/>
    <path id="Trazado_885548" data-name="Trazado 885548" d="M185.222,243.217h14.364A1.014,1.014,0,0,0,200.6,242.2v-4.5a1.014,1.014,0,0,0-1.014-1.012H185.222a1.012,1.012,0,0,0-1.013,1.012v4.5a1.012,1.012,0,0,0,1.013,1.013" fill="#224a5f"/>
    <rect id="Rectángulo_402713" data-name="Rectángulo 402713" width="15.068" height="18.091" transform="translate(190.901 258.866)" fill="#ffa53d"/>
    <path id="Trazado_885549" data-name="Trazado 885549" d="M195.443,263.507h10.525v.867H195.443a.434.434,0,1,1,0-.867" fill="#fff"/>
    <path id="Trazado_885550" data-name="Trazado 885550" d="M195.443,267.844h10.525v.866H195.443a.433.433,0,1,1,0-.866" fill="#fff"/>
    <path id="Trazado_885551" data-name="Trazado 885551" d="M201.016,272.07h4.953v.866h-4.953a.433.433,0,1,1,0-.866" fill="#fff"/>
    <path id="Trazado_885552" data-name="Trazado 885552" d="M217.357,293.128l-1.13-6.58-6.185,1.064a3.169,3.169,0,0,0-2.589,3.661l.056.33a3.171,3.171,0,0,0,3.662,2.588Z" fill="#1c6f73"/>
    <path id="Trazado_885553" data-name="Trazado 885553" d="M226.131,288.4l-.057-.329a3.17,3.17,0,0,0-3.662-2.587l-6.185,1.064,1.131,6.581,6.185-1.065a3.175,3.175,0,0,0,2.588-3.664" fill="#3a8f92"/>
    <path id="Trazado_885554" data-name="Trazado 885554" d="M374.83,259.09a128.218,128.218,0,0,0-5.924,12.186c-1.834,4.428-3.361,8.978-4.838,13.538-.119.358.43.566.551.209,1.459-4.483,2.954-8.96,4.747-13.315a125.715,125.715,0,0,1,5.946-12.277c.178-.331-.3-.68-.482-.341" fill="#87d4c7"/>
    <path id="Trazado_885555" data-name="Trazado 885555" d="M378.534,253.45a6.08,6.08,0,0,0-3.967,6.51.136.136,0,0,0,.162.1,6.08,6.08,0,0,0,3.969-6.512.124.124,0,0,0-.164-.1" fill="#87d4c7"/>
    <path id="Trazado_885556" data-name="Trazado 885556" d="M378.411,262.948a6.071,6.071,0,0,0-7.048,2.908.123.123,0,0,0,.072.168,6.069,6.069,0,0,0,7.049-2.9.124.124,0,0,0-.073-.175" fill="#87d4c7"/>
    <path id="Trazado_885557" data-name="Trazado 885557" d="M366.95,264.522a6.068,6.068,0,0,0,2.194,7.3.119.119,0,0,0,.173-.053,6.073,6.073,0,0,0-2.183-7.3.126.126,0,0,0-.184.056" fill="#87d4c7"/>
    <path id="Trazado_885558" data-name="Trazado 885558" d="M373.307,274.468a6.073,6.073,0,0,0-6.865,3.323.126.126,0,0,0,.08.165,6.071,6.071,0,0,0,6.865-3.312.128.128,0,0,0-.08-.176" fill="#87d4c7"/>
    <path id="Trazado_885559" data-name="Trazado 885559" d="M369.467,240.9c-7.142,13.713-11.648,28.8-14.855,43.877-.094.445.585.666.679.213,3.2-15,7.664-30.051,14.774-43.706.212-.4-.389-.795-.6-.384" fill="#87d4c7"/>
    <path id="Trazado_885560" data-name="Trazado 885560" d="M373.608,233.856a7.351,7.351,0,0,0-4.4,8.117.149.149,0,0,0,.192.108,7.357,7.357,0,0,0,4.418-8.113.15.15,0,0,0-.2-.112" fill="#87d4c7"/>
    <path id="Trazado_885561" data-name="Trazado 885561" d="M374.882,243.925a7.358,7.358,0,0,0-8.354,3.941.156.156,0,0,0,.1.2,7.358,7.358,0,0,0,8.357-3.935.153.153,0,0,0-.1-.21" fill="#87d4c7"/>
    <path id="Trazado_885562" data-name="Trazado 885562" d="M363.409,239.309a7.352,7.352,0,0,0,3.091,8.709.149.149,0,0,0,.206-.075,7.351,7.351,0,0,0-3.081-8.706.146.146,0,0,0-.216.072" fill="#87d4c7"/>
    <path id="Trazado_885563" data-name="Trazado 885563" d="M371.145,252.463a7.348,7.348,0,0,0-8.348,3.94.152.152,0,0,0,.091.2,7.358,7.358,0,0,0,8.358-3.934.15.15,0,0,0-.1-.211" fill="#87d4c7"/>
    <path id="Trazado_885564" data-name="Trazado 885564" d="M359.674,247.85a7.349,7.349,0,0,0,3.088,8.7.157.157,0,0,0,.213-.072,7.355,7.355,0,0,0-3.084-8.707.145.145,0,0,0-.217.075" fill="#87d4c7"/>
    <path id="Trazado_885565" data-name="Trazado 885565" d="M367.965,260.881a7.347,7.347,0,0,0-8.1,4.428.153.153,0,0,0,.1.2,7.356,7.356,0,0,0,8.111-4.426.146.146,0,0,0-.111-.2" fill="#87d4c7"/>
    <path id="Trazado_885566" data-name="Trazado 885566" d="M356.234,256.953a7.362,7.362,0,0,0,3.6,8.507.152.152,0,0,0,.207-.087,7.358,7.358,0,0,0-3.6-8.51.154.154,0,0,0-.217.09" fill="#87d4c7"/>
    <path id="Trazado_885567" data-name="Trazado 885567" d="M364.879,270.91a7.349,7.349,0,0,0-7.918,4.752.151.151,0,0,0,.113.193A7.362,7.362,0,0,0,365,271.108a.15.15,0,0,0-.121-.2" fill="#87d4c7"/>
    <path id="Trazado_885568" data-name="Trazado 885568" d="M353,267.456a7.359,7.359,0,0,0,3.938,8.357.161.161,0,0,0,.206-.092,7.354,7.354,0,0,0-3.935-8.359.149.149,0,0,0-.209.094" fill="#87d4c7"/>
    <path id="Trazado_885569" data-name="Trazado 885569" d="M65.783,285.669h.687a3.264,3.264,0,0,0,3.264-3.264V244.374H62.519V282.4a3.264,3.264,0,0,0,3.264,3.264" fill="#b8e2fd"/>
    <path id="Trazado_885570" data-name="Trazado 885570" d="M62.322,244.374h7.752a.591.591,0,0,0,.59-.591V242.26a.59.59,0,0,0-.59-.59H62.322a.59.59,0,0,0-.59.59v1.523a.591.591,0,0,0,.59.591" fill="#b8e2fd"/>
    <path id="Trazado_885571" data-name="Trazado 885571" d="M62.692,244.535h6.871a.147.147,0,0,0,.145-.146v-.03a.147.147,0,0,0-.145-.144H62.692a.145.145,0,0,0-.145.144v.03a.145.145,0,0,0,.145.146" fill="#88cefc"/>
    <path id="Trazado_885572" data-name="Trazado 885572" d="M68.322,260.973v21.188a2.2,2.2,0,0,1-4.391,0V260.973Z" fill="#e3405b"/>
    <path id="Trazado_885573" data-name="Trazado 885573" d="M50.6,285.669h.687a3.265,3.265,0,0,0,3.266-3.264V244.374H47.341V282.4a3.265,3.265,0,0,0,3.264,3.264" fill="#b8e2fd"/>
    <path id="Trazado_885574" data-name="Trazado 885574" d="M47.145,244.374H54.9a.591.591,0,0,0,.59-.591V242.26a.59.59,0,0,0-.59-.59H47.145a.59.59,0,0,0-.59.59v1.523a.591.591,0,0,0,.59.591" fill="#b8e2fd"/>
    <path id="Trazado_885575" data-name="Trazado 885575" d="M47.514,244.535h6.871a.146.146,0,0,0,.145-.146v-.03a.146.146,0,0,0-.145-.144H47.514a.143.143,0,0,0-.142.144v.03a.143.143,0,0,0,.142.146" fill="#88cefc"/>
    <path id="Trazado_885576" data-name="Trazado 885576" d="M53.145,269.144v13.018a2.2,2.2,0,0,1-4.391,0V269.144Z" fill="#e3405b"/>
    <path id="Trazado_885577" data-name="Trazado 885577" d="M35.43,285.669h.686a3.265,3.265,0,0,0,3.265-3.264V244.374H32.164V282.4a3.265,3.265,0,0,0,3.266,3.264" fill="#b8e2fd"/>
    <path id="Trazado_885578" data-name="Trazado 885578" d="M31.969,244.374h7.75a.591.591,0,0,0,.59-.591V242.26a.59.59,0,0,0-.59-.59h-7.75a.592.592,0,0,0-.592.59v1.523a.592.592,0,0,0,.592.591" fill="#b8e2fd"/>
    <path id="Trazado_885579" data-name="Trazado 885579" d="M32.336,244.535h6.871a.146.146,0,0,0,.145-.146v-.03a.146.146,0,0,0-.145-.144H32.336a.145.145,0,0,0-.143.144v.03a.146.146,0,0,0,.143.146" fill="#88cefc"/>
    <path id="Trazado_885580" data-name="Trazado 885580" d="M37.967,251.955v30.206a2.2,2.2,0,0,1-4.391,0V251.955Z" fill="#e3405b"/>
    <rect id="Rectángulo_402714" data-name="Rectángulo 402714" width="43.611" height="1.128" transform="translate(28.59 285.522)" fill="#20759e"/>
    <rect id="Rectángulo_402715" data-name="Rectángulo 402715" width="43.607" height="1.126" transform="translate(29.147 274.98)" fill="#20759e"/>
    <path id="Trazado_885581" data-name="Trazado 885581" d="M28.58,286.65h1.129V262.088a3,3,0,0,1,3-3H69.193a3,3,0,0,1,3,3V286.65h1.127V262.088a4.128,4.128,0,0,0-4.125-4.123H32.705a4.129,4.129,0,0,0-4.125,4.123Z" fill="#398fb9"/>
    <path id="Trazado_885582" data-name="Trazado 885582" d="M276.99,170.475c-2.661.009-5.5.446-7.406,2.474a11.591,11.591,0,0,0-2.209,4.416c-1.539,4.478-1.09,9.453-.2,14.024a70.42,70.42,0,0,0,5.8,16.967,58.809,58.809,0,0,0,9.145,14.1,20.471,20.471,0,0,0,5.31,4.529,15.851,15.851,0,0,0,8.961,1.446.641.641,0,0,0-.188-1.267,14.68,14.68,0,0,1-8.124-1.287,16.787,16.787,0,0,1-4.23-3.443A52.864,52.864,0,0,1,275.18,209.9a73.261,73.261,0,0,1-6.025-15.536c-1.147-4.5-1.976-9.354-1.228-13.988a18.209,18.209,0,0,1,1.606-5.124c1.4-2.78,4.4-3.5,7.3-3.5.814-.006.984-1.273.16-1.273" fill="#398fb9"/>
    <path id="Trazado_885583" data-name="Trazado 885583" d="M299.117,168.53c2.463-.72,5.287-1.007,7.393.736a14.578,14.578,0,0,1,2.878,3.7c2.34,3.867,3.065,8.647,3.383,13.079a70.958,70.958,0,0,1-.9,16.518,58.539,58.539,0,0,1-4.377,15.021,21.287,21.287,0,0,1-3.664,5.865,14.22,14.22,0,0,1-7.624,3.723.64.64,0,0,0,.188,1.266,16.24,16.24,0,0,0,7.95-3.723,16.466,16.466,0,0,0,3.2-4.413,52.68,52.68,0,0,0,5.217-15.479,73.513,73.513,0,0,0,1.334-18.037c-.262-4.836-1.013-10.068-3.518-14.31a14.97,14.97,0,0,0-3.539-4.424c-2.477-1.846-5.631-1.508-8.431-.694-.788.231-.268,1.4.513,1.176" fill="#398fb9"/>
    <path id="Trazado_885584" data-name="Trazado 885584" d="M307.443,217.06a28.262,28.262,0,0,1-2.6,4.681,9.1,9.1,0,0,1-1.655,1.934,13.545,13.545,0,0,1-14.664,2.117,8.8,8.8,0,0,1-2.045-1.321,28.017,28.017,0,0,1-3.908-3.823c-.752-.866-2.158.24-1.4,1.119a30.589,30.589,0,0,0,4.152,4.07,11.048,11.048,0,0,0,2.535,1.613,15.342,15.342,0,0,0,16.453-2.373,11.034,11.034,0,0,0,1.911-2.172,30.491,30.491,0,0,0,2.888-5.171c.48-1.06-1.183-1.724-1.658-.674" fill="#224a5f"/>
    <path id="Trazado_885585" data-name="Trazado 885585" d="M276.1,171.925q.612-.075,1.227-.146c.076-.011.152-.021.226-.035a.888.888,0,0,0,.758-1.012.908.908,0,0,0-.348-.591.972.972,0,0,0-.664-.171c-.427.063-.857.111-1.282.163-.059.008-.114.014-.177.02a.891.891,0,0,0-.754,1.015.879.879,0,0,0,.349.588.931.931,0,0,0,.665.169" fill="#224a5f"/>
    <path id="Trazado_885586" data-name="Trazado 885586" d="M297.286,168.872c.4-.052.814-.1,1.224-.151.078-.012.152-.021.228-.03a.932.932,0,0,0,.589-.35.912.912,0,0,0,.17-.664.887.887,0,0,0-1.016-.757c-.424.057-.852.1-1.28.157a1.348,1.348,0,0,0-.172.021.894.894,0,0,0-.41,1.6.958.958,0,0,0,.667.172" fill="#224a5f"/>
    <path id="Trazado_885587" data-name="Trazado 885587" d="M256.428,293.427a37.582,37.582,0,0,1-25.6-9.776c-9.413-8.457-14.878-21.672-13.925-33.665a.547.547,0,0,1,1.091.086c-.927,11.667,4.4,24.527,13.566,32.765,6.272,5.637,17.134,11.717,33.27,8.685,37.5-7.053,32.7-47.639,30.9-62.917l-.084-.731a.545.545,0,0,1,.479-.607.532.532,0,0,1,.607.478l.088.732c1.84,15.555,6.726,56.88-31.781,64.12a46.511,46.511,0,0,1-8.6.83" fill="#224a5f"/>
    <path id="Trazado_885588" data-name="Trazado 885588" d="M218.219,249.984c.1-1.495.2-2.985.3-4.478.014-.215.025-.425.045-.646a.775.775,0,1,0-1.549-.063q-.15,2.233-.3,4.464c-.014.216-.029.437-.04.651a.775.775,0,0,0,.739.807.79.79,0,0,0,.807-.735" fill="#20759e"/>
    <path id="Trazado_885589" data-name="Trazado 885589" d="M211.443,243.513a7.374,7.374,0,1,1,9.811,3.538,7.37,7.37,0,0,1-9.811-3.538" fill="#20759e"/>
    <path id="Trazado_885590" data-name="Trazado 885590" d="M215.016,241.835a3.426,3.426,0,1,1,4.556,1.646,3.424,3.424,0,0,1-4.556-1.646" fill="#398fb9"/>
    <path id="Trazado_885591" data-name="Trazado 885591" d="M305.94,176.226c.322,1.048,1.641,5.131,3.188,6.906a2.762,2.762,0,0,0,3.42.747,14.85,14.85,0,0,1,.586,2.372c2.106-.217,5.858-2.318,5.858-2.318A31.714,31.714,0,0,1,316.3,179c-4.052-3.695-10.365-2.773-10.365-2.773" fill="#fda78c"/>
    <path id="Trazado_885592" data-name="Trazado 885592" d="M318.332,169.684a2.229,2.229,0,0,0-.782-.659,3.563,3.563,0,0,1-.393-.12c-.2-.152-.174-.359-.286-.543-.844-1.382-2.373-.959-3.421-.12a2.642,2.642,0,0,0-2.727-1.115,6.424,6.424,0,0,0-2.064.691,4.287,4.287,0,0,0-.793.527c-.339.288-.568.648-1.03.744-1.18.25-2.527.692-2.743,2.074a4.782,4.782,0,0,1-.01.659c-.067.212-.313.386-.418.6a2.458,2.458,0,0,0-.126,1.716,3.008,3.008,0,0,0,1.177,1.8A14.562,14.562,0,0,0,307,176.957a15.963,15.963,0,0,1,.748,1.505c.252.478.706,1.177,1.328,1.149a2.293,2.293,0,0,0,1.35.775c.8.138,1.608-.077,2.407.054a3.784,3.784,0,0,1,1.316.645,2.282,2.282,0,0,0,.99.307,2.514,2.514,0,0,0,.6-.031,1.723,1.723,0,0,0,1.363.246c.053-.012.471.047.455-.016a1.723,1.723,0,0,1,.543-1.586,2.394,2.394,0,0,0,.446-.923,2.891,2.891,0,0,0,.017-1.093,2.8,2.8,0,0,1,.359-1.482,2.9,2.9,0,0,0-.3-2.2c-.152-.317-.406-.641-.263-1.03a2.478,2.478,0,0,1,.365-.522,1.957,1.957,0,0,0,.372-.947,3.007,3.007,0,0,0-.766-2.125" fill="#14232f"/>
    <path id="Trazado_885593" data-name="Trazado 885593" d="M310.034,179.293c.077.779-.278,1.452-.795,1.5s-1-.54-1.076-1.319.294-1.309.81-1.359.985.393,1.061,1.174" fill="#fda78c"/>
    <path id="Trazado_885594" data-name="Trazado 885594" d="M288.509,214.987a12.586,12.586,0,0,1-3.015,1.615c-1,.182-1.975-.63-3.527-.227-1.581.411-3.354.179-2.936,1.085.54,1.174,2.766-.149,2.666.888-.053.556-.584,1.109-2.453.9a4.683,4.683,0,0,0-2.732.3c-1.324.758.238,2.216,1.069,2.577a9.642,9.642,0,0,0,4.636.531,14.543,14.543,0,0,0,4.468-2.635c1.069-.742,2.528-.688,3.329-.953Z" fill="#fda78c"/>
    <path id="Trazado_885595" data-name="Trazado 885595" d="M316.67,285.91l-3.226.215-1.353-7.839,4.3-.224Z" fill="#fda78c"/>
    <path id="Trazado_885596" data-name="Trazado 885596" d="M308.955,288.954c-.025,1.22,2.054,1.094,3.086,1.1,1.3,0,3.414-.1,4.364-.8s.367-3.23.24-3.976a8.346,8.346,0,0,1-3.309.224,15.865,15.865,0,0,1-1.493.842A13.742,13.742,0,0,0,310,287.489c-.468.362-1.035.832-1.047,1.465" fill="#14232f"/>
    <path id="Trazado_885597" data-name="Trazado 885597" d="M344.641,284.554l-3.08.977-3.175-7.3L342.515,277Z" fill="#fda78c"/>
    <path id="Trazado_885598" data-name="Trazado 885598" d="M337.87,289.344c.266,1.191,2.254.575,3.258.331,1.259-.31,3.291-.907,4.051-1.808s-.411-3.223-.713-3.922a8.328,8.328,0,0,1-3.16,1,15.569,15.569,0,0,1-1.251,1.171,13.812,13.812,0,0,0-1.517,1.552,2.149,2.149,0,0,0-.668,1.672" fill="#14232f"/>
    <path id="Trazado_885599" data-name="Trazado 885599" d="M327.749,247.194c.124,1.028,1.249,11.036,2.137,13.954,1.761,5.8,8.458,20.419,8.777,21.169l6.366-1.3c-.867-4.245-4.465-19.314-4.465-23.184,0-9.661,1.79-16.464,1.106-24.236-.206-2.348-.487-4.693-.88-7.017l-24.9,1.676c-1.138,7.7-7.819,24.978-8.373,29.577-.448,3.723,3.043,20.86,3.707,24.9l6.779-.416c.014-2.858-.732-19.076.286-22.1,1.028-3.068,6.882-10.523,9.46-13.02" fill="#398fb9"/>
    <path id="Trazado_885600" data-name="Trazado 885600" d="M318.842,183.745l-5.8,2c-7.241,4.1-7.461,8.381-9.127,12.367-2.038,4.878-2.8,7.87-5.105,9.958-3.026,1.856-9.9,5.875-12.18,7.5l1.972,4.765c4.841-1.311,13.064-3.817,16.229-6.269a22.708,22.708,0,0,0,5.216-4.824c2.53,8.106,5.132,15.439,4.771,23.847,0,0,4.014-3.3,18.24-2.349,7.682.515,8.991-1.4,8.991-1.4-3.915-26.209-9.8-40.732-23.206-45.6" fill="#ffdec9"/>
    <path id="Trazado_885601" data-name="Trazado 885601" d="M328,247.1l5.3-7.05c.087-.114-.106-.221-.188-.109q-2.654,3.523-5.306,7.05c-.085.113.1.221.189.109" fill="#20759e"/>
    <path id="Trazado_885602" data-name="Trazado 885602" d="M310.16,209.157c3.014-3.854,4.7-6.039,5.018-11.111.008-.141-.211-.139-.22,0-.312,5.007-1.982,7.151-4.956,10.954-.086.11.069.265.158.153" fill="#e6b08e"/>
    <path id="Trazado_885603" data-name="Trazado 885603" d="M311.845,211.416a58.023,58.023,0,0,0,10.571,13.231c.106.1.26-.058.157-.153a57.813,57.813,0,0,1-10.536-13.187c-.073-.12-.264-.011-.192.109" fill="#e6b08e"/>
    <path id="Trazado_885604" data-name="Trazado 885604" d="M314.551,212.82a36.7,36.7,0,0,0,4.677,4.5c.109.087.264-.066.155-.156a36.74,36.74,0,0,1-4.675-4.5c-.1-.106-.251.049-.157.155" fill="#e6b08e"/>
    <path id="Trazado_885605" data-name="Trazado 885605" d="M130.912,286.975a.435.435,0,0,1-.422-.336L127.9,274.813H115.559l-2.592,11.827a.433.433,0,0,1-.42.335.791.791,0,0,1-.1-.01.435.435,0,0,1-.316-.512l2.551-11.64H104l2.547,11.641a.418.418,0,0,1-.057.323.438.438,0,0,1-.271.19.753.753,0,0,1-.092.008.431.431,0,0,1-.42-.336l-2.59-11.826H90.99l-.183-.031-.071.17L88.182,286.64a.433.433,0,0,1-.42.335.568.568,0,0,1-.1-.01.432.432,0,0,1-.322-.511l9.18-41.909.029-.073a.775.775,0,0,1,.045-.1l.053-.044.058-.06.076-.032.063-.03h.008l.037-.014.093.006.006.007h.061a1.172,1.172,0,0,1,.142.065l.106.108a.443.443,0,0,1,.031.073l.037.082,3.248,14.827h17.448l3.25-14.819.023-.056a.608.608,0,0,1,.045-.107l.113-.113.086-.035.057-.027.121,0,0,.005h.072a.279.279,0,0,0,.049.023.525.525,0,0,1,.1.042l.107.112a.324.324,0,0,1,.035.082l.037.082,9.176,41.911a.432.432,0,0,1-.33.513.7.7,0,0,1-.09.008M121.537,247.5l-5.793,26.454h11.969L121.918,247.5Zm-17.728,26.454h11.054l3.008-13.73H100.8Zm-12.85,0h11.967l-3.008-13.73H93.965ZM96.75,247.5l-2.6,11.86H99.73l-2.6-11.86Z" fill="#224a5f"/>
    <path id="Trazado_885606" data-name="Trazado 885606" d="M94.02,245.674a1.057,1.057,0,1,1,0-2.114h30.633a1.057,1.057,0,0,1,0,2.114Z" fill="#30617a"/>
    <path id="Trazado_885607" data-name="Trazado 885607" d="M133.711,121.457l-2.975-.107q.012-1.685.022-3.368a4.5,4.5,0,0,1-.469-2.473,5.946,5.946,0,0,0,.1-2.382c-.219-.712-.467-2.9.133-3.09.851-.269,2.58,1.407,3.025,2.037a2.719,2.719,0,0,1,.377,1.748,32.178,32.178,0,0,1-.656,4.781c.148.953.3,1.9.445,2.854" fill="#fda78c"/>
    <path id="Trazado_885608" data-name="Trazado 885608" d="M115.934,141.4l-.738-3.5a3.131,3.131,0,0,0,2.74-.707c1.156-1.4,1.187-4.026.168-6.775a11.712,11.712,0,0,0-1.252-2.946c-.881-.51-2.244-.624-4.959-.194-1.246.2-1.857,6.553-1.961,6.559a3.219,3.219,0,0,1-.353,1.976c.22,1.742.7,5.584.7,5.584a20.732,20.732,0,0,0,5.656,0" fill="#fda78c"/>
    <path id="Trazado_885609" data-name="Trazado 885609" d="M115.992,123.829a3.176,3.176,0,0,0-2.574-.345,5.471,5.471,0,0,0-4.555.633,10.02,10.02,0,0,0-1.957,1.423,4.591,4.591,0,0,0-2.543-1.4,3.557,3.557,0,0,0-3.432,1.09c-1.648,2.084.575,5.121,2.8,5.544a3.911,3.911,0,0,0,1.373.01,9.818,9.818,0,0,0,.717,3.1,8.578,8.578,0,0,0,3.961,4.039.112.112,0,0,0,.16-.1,6.48,6.48,0,0,1,1.561-4.343c.023.026.244-.147.861-1.3.551-1.022-.1-3.733,2.121-5.061,1.108-.663,3,1.929,3.283,2.367-.033-1.145.014-4.552-1.779-5.657" fill="#402013"/>
    <path id="Trazado_885610" data-name="Trazado 885610" d="M110.086,133.752c.5.586,1.223.788,1.609.455s.295-1.076-.209-1.66-1.13-.68-1.517-.348-.387.97.117,1.553" fill="#fda78c"/>
    <path id="Trazado_885611" data-name="Trazado 885611" d="M115.105,137.876a5.624,5.624,0,0,1-2.7-.619.109.109,0,0,0-.109.189,5.853,5.853,0,0,0,2.805.647.109.109,0,0,0,0-.217" fill="#f5816c"/>
    <path id="Trazado_885612" data-name="Trazado 885612" d="M83.313,201.63l-1.373,2.811,6.533,4.085,3.83-3.216Z" fill="#fda78c"/>
    <path id="Trazado_885613" data-name="Trazado 885613" d="M79.455,207.031a13.557,13.557,0,0,0,1.7-1.229,15.771,15.771,0,0,1,1.3-1.035,8.073,8.073,0,0,1,1.414-2.883c-.625-.386-2.695-1.833-3.654-1.244-.975.6-1.838,2.463-2.311,3.625-.381.927-1.254,2.743-.15,3.168a2.1,2.1,0,0,0,1.7-.4" fill="#14232f"/>
    <path id="Trazado_885614" data-name="Trazado 885614" d="M108.1,240.422l3.119.268,1.455-7.567-4.164-.295Z" fill="#fda78c"/>
    <path id="Trazado_885615" data-name="Trazado 885615" d="M114.531,242.074a13.691,13.691,0,0,0-1.762-1.144,16.264,16.264,0,0,1-1.433-.84,8.09,8.09,0,0,1-3.2-.281c-.134.723-.738,3.175.159,3.857.912.693,2.959.826,4.215.851,1,.017,3.009.177,3.007-1.005,0-.613-.543-1.078-.986-1.438" fill="#14232f"/>
    <path id="Trazado_885616" data-name="Trazado 885616" d="M133.494,119.6l-2.82.225c-.772,4.79-1.518,8.893-1.994,13.19a105.491,105.491,0,0,1-12.747,8.392l4.924,62.043c1.246-.523,4.963-1.512,5.973-2.469,0,0-2.289-10.816-2.2-19.644a152.709,152.709,0,0,0-1.51-23.882,69.7,69.7,0,0,0-1.426-7.141c3.209-2.984,6.473-5.944,9.43-9.171a11.316,11.316,0,0,0,3.119-5.544c.443-2.384-.313-13.109-.75-16" fill="#ffdec9"/>
    <path id="Trazado_885617" data-name="Trazado 885617" d="M121.971,170.132H104.635a147.189,147.189,0,0,0-4.555,29.891q-.1,2.23-.14,4.461a56.139,56.139,0,0,0-13.229-2.038q-1.033,2.135-2.072,4.271a53.268,53.268,0,0,0,12.914,8.813c1.941.873,4.137,1.611,6.264,1.008a6.762,6.762,0,0,0,2.49-1.362c.008,1.8.146,3.607.238,5.4q.211,4.056.469,8.107c.172,2.694.346,5.387.561,8.078h5.093a189.643,189.643,0,0,0,7.239-24.427,87.081,87.081,0,0,0,2.1-13.171c.285-4.579.258-9.185.348-13.773a108.789,108.789,0,0,0-.387-15.256" fill="#398fb9"/>
    <path id="Trazado_885618" data-name="Trazado 885618" d="M122.061,169.345c-.223-3.235-.367-6.488-.752-9.708a60.174,60.174,0,0,0-1.7-8.735,60.84,60.84,0,0,0-3.674-9.5c-.422-.031-.877-.062-1.342-.093-2.5-.171-5.345-.344-5.345-.344v29.19c3.043.027,5.623,1.906,8.572,2.418a6.466,6.466,0,0,0,3.5-.241c.367-.147.8-.364.8-.364.025-.519-.024-2.165-.053-2.624" fill="#88cefc"/>
    <path id="Trazado_885619" data-name="Trazado 885619" d="M113.393,119.2c-1.146,4.885-1.9,10-2.58,13.659-.266,1.429-2.17,2.472-4.408,4.382-.846.72-1.928,1.47-2.8,2.165-2.781,1.285-4,3.768-4.238,6.895-.17,2.258.84,8.343,1.431,10.53,2.3,8.455,1.924,12.252.987,15.069-1.145,3.431-6.032,14.137-6.885,25.979,1.709,4.158,15.072,6.119,15.072,6.119-.015-9.135-2.873-18.814.326-39.206,1.01-6.451,1.057-14.607-.269-19.349,4.443-5.59,5.906-6.989,6.306-10.983a73.006,73.006,0,0,0,.3-15.012Z" fill="#ffdec9"/>
    <path id="Trazado_885620" data-name="Trazado 885620" d="M109.8,145.642a64.455,64.455,0,0,1-5.537,4.976c-.109.085.027.256.137.167a64.412,64.412,0,0,0,5.537-4.972c.1-.1-.039-.27-.137-.171" fill="#e6b08e"/>
    <path id="Trazado_885621" data-name="Trazado 885621" d="M121.869,150.057a55.877,55.877,0,0,0-3.086-7.585c-.062-.126-.25-.015-.187.109a55.256,55.256,0,0,1,3.062,7.533c.043.134.254.078.211-.057" fill="#e6b08e"/>
    <path id="Trazado_885622" data-name="Trazado 885622" d="M106.369,215.391c6.355-7.17,9.406-16.44,11.291-25.67.027-.137-.182-.2-.209-.059-1.879,9.194-4.908,18.435-11.234,25.577-.092.1.06.259.152.152" fill="#20759e"/>
    <path id="Trazado_885623" data-name="Trazado 885623" d="M119.7,171.8a54.064,54.064,0,0,0-1.008-13.042c-.023-.139-.232-.08-.211.057a53.747,53.747,0,0,1,1,12.985c-.011.142.207.14.219,0" fill="#65bceb"/>
    <path id="Trazado_885624" data-name="Trazado 885624" d="M118.328,166.8a35.24,35.24,0,0,0-4.436-12.708.109.109,0,0,0-.189.11,35.1,35.1,0,0,1,4.414,12.655c.021.138.23.08.211-.057" fill="#65bceb"/>
    <path id="Trazado_885625" data-name="Trazado 885625" d="M139.725,110.8c11.451,7.534,32.283,15.126,33.383,15.525l-.565,1.611c-1.109-.378-22.115-7.466-35.765-8.737a77.247,77.247,0,0,1-18.389-4.145l-25.846-9.069a3.155,3.155,0,0,1-1.931-4.02l2.3-6.554a3.153,3.153,0,0,1,4.021-1.931l25.844,9.069a77.336,77.336,0,0,1,16.947,8.251" fill="#3a8f92"/>
    <path id="Trazado_885626" data-name="Trazado 885626" d="M177.377,128.674l-.027.08a.815.815,0,0,1-1.039.5l-3.768-1.322.566-1.621,3.768,1.321a.816.816,0,0,1,.5,1.04" fill="#14232f"/>
    <path id="Trazado_885627" data-name="Trazado 885627" d="M114.477,104.808l-1.127,3.219a.872.872,0,0,0,.533,1.115l10.143,3.558a.873.873,0,0,0,1.117-.536l1.129-3.216a.878.878,0,0,0-.537-1.118l-10.141-3.558a.875.875,0,0,0-1.117.536" fill="#87d4c7"/>
    <path id="Trazado_885628" data-name="Trazado 885628" d="M115.676,103.779l10.3,3.614a1.288,1.288,0,0,1,.785,1.637l-1.186,3.378a1.284,1.284,0,0,1-1.637.785l-10.3-3.614a1.286,1.286,0,0,1-.786-1.635l1.186-3.379a1.285,1.285,0,0,1,1.635-.786m10.158,4.926a.3.3,0,0,0-.182-.383l-10.3-3.615a.3.3,0,0,0-.381.184l-1.186,3.38a.3.3,0,0,0,.184.379l10.3,3.613a.3.3,0,0,0,.38-.182Z" fill="#1c6f73"/>
    <path id="Trazado_885629" data-name="Trazado 885629" d="M96.375,107.327l-3.832-1.344a3.154,3.154,0,0,1-1.932-4.02l2.3-6.554a3.154,3.154,0,0,1,4.022-1.931l3.828,1.345Z" fill="#14232f"/>
    <path id="Trazado_885630" data-name="Trazado 885630" d="M107.381,102.007a2.038,2.038,0,1,0,1.248,2.6,2.04,2.04,0,0,0-1.248-2.6" fill="#1c6f73"/>
    <path id="Trazado_885631" data-name="Trazado 885631" d="M113.291,121.022l2.977.04q.069-1.681.142-3.366a4.479,4.479,0,0,0,.592-2.445,5.95,5.95,0,0,1,.021-2.382c.254-.7.608-2.873.02-3.1-.838-.312-2.648,1.278-3.121,1.886a2.707,2.707,0,0,0-.465,1.726,32.2,32.2,0,0,0,.42,4.807c-.195.943-.391,1.888-.586,2.829" fill="#fda78c"/>
  </g>
</svg>
