<svg xmlns="http://www.w3.org/2000/svg" xmlns:xlink="http://www.w3.org/1999/xlink" width="117" height="117" viewBox="0 0 117 117">
  <defs>
    <clipPath id="clip-path">
      <rect id="Rectángulo_402656" data-name="Rectángulo 402656" width="49" height="73" transform="translate(0 0.324)" fill="none"/>
    </clipPath>
  </defs>
  <g id="Grupo_1103216" data-name="Grupo 1103216" transform="translate(-988 -2381)">
    <g id="Grupo_1103209" data-name="Grupo 1103209">
      <circle id="Elipse_11646" data-name="Elipse 11646" cx="58.5" cy="58.5" r="58.5" transform="translate(988 2381)" fill="#fff"/>
      <g id="Grupo_1103158" data-name="Grupo 1103158" transform="translate(1022 2402.691)">
        <g id="Grupo_1103157" data-name="Grupo 1103157" transform="translate(0 -0.016)" clip-path="url(#clip-path)">
          <path id="Trazado_885046" data-name="Trazado 885046" d="M56.208,164.144h0a3.919,3.919,0,0,1-3.891-2.822c-.786-2.151,0-4.467,1.764-5.173a2.64,2.64,0,0,1,.513-.148c3.845,2.63,3.863,5.572,1.615,8.143" transform="translate(-44.445 -133.299)" fill="#f7b6ad"/>
          <path id="Trazado_885047" data-name="Trazado 885047" d="M239.662,156.149c1.76.706,2.55,3.021,1.764,5.173a3.919,3.919,0,0,1-3.891,2.822h0c-4.085-3.109-4.4-6.149,1.615-8.143a2.64,2.64,0,0,1,.513.148" transform="translate(-200.42 -133.299)" fill="#f7b6ad"/>
          <path id="Trazado_885048" data-name="Trazado 885048" d="M24.365,47.058C18.367,48.9,6.682,55.385,4,76.151H51.712C49.03,55.385,37.345,48.9,31.347,47.058V42.985h0a16.051,16.051,0,0,0,8.145-6.4,12.6,12.6,0,0,0,1.04-2.33,36.971,36.971,0,0,0,1.615-8.143A37.287,37.287,0,0,0,41.8,16.24C40.574,9.722,36.891,4,27.856,4,18.708,4,15.048,9.866,13.87,16.483A32.215,32.215,0,0,0,13.4,21.6a44.494,44.494,0,0,0,.164,4.512,36.971,36.971,0,0,0,1.615,8.143,12.6,12.6,0,0,0,1.04,2.33,16.051,16.051,0,0,0,8.145,6.4h0Z" transform="translate(-3.418 -3.409)" fill="#fec4b9"/>
          <path id="Trazado_885049" data-name="Trazado 885049" d="M51.712,346.364H4c47.13,0,33.535-26.153,33.535-26.153,5.749,3.772,12.261,11.317,14.177,26.153" transform="translate(-3.418 -273.622)" fill="#f7b6ad"/>
          <path id="Trazado_885050" data-name="Trazado 885050" d="M150.982,272v2.108c-3.2,1.238-6.982-.47-6.982-.47V272a10.764,10.764,0,0,0,6.982,0" transform="translate(-123.053 -232.425)" fill="#f7b6ad"/>
          <path id="Trazado_885051" data-name="Trazado 885051" d="M18.32,17.095a.582.582,0,1,1,0,1.164,3.9,3.9,0,1,0,0,7.809,2.967,2.967,0,0,0,3.16-3.15,2.221,2.221,0,0,0-2.238-2.378c-.516,0-1.988.3-1.988,1.623a1.067,1.067,0,0,0,1.863.711.582.582,0,1,1,.867.776,2.231,2.231,0,0,1-3.893-1.487,2.985,2.985,0,0,1,3.152-2.787,3.388,3.388,0,0,1,3.4,3.512c0,.007,0,.013,0,.019a4.136,4.136,0,0,1-4.323,4.323,5.068,5.068,0,1,1,0-10.136M31.3,27.231a4.136,4.136,0,0,0,4.323-4.323c0-.007,0-.013,0-.019a3.388,3.388,0,0,0-3.4-3.512,2.985,2.985,0,0,0-3.152,2.787,2.231,2.231,0,0,0,3.893,1.487.582.582,0,0,0-.867-.776,1.067,1.067,0,0,1-1.862-.711c0-1.325,1.473-1.623,1.988-1.623a2.22,2.22,0,0,1,2.238,2.378,2.967,2.967,0,0,1-3.159,3.15,3.9,3.9,0,1,1,0-7.809.582.582,0,1,0,0-1.164,5.068,5.068,0,1,0,0,10.136M9.988,12.366a16.934,16.934,0,0,1,3.851-8.217C16.366,1.4,19.932,0,24.438,0s8.072,1.4,10.6,4.149a16.731,16.731,0,0,1,3.786,7.912c2.544-.9,3.744-1.934,3.744-2.765a1.631,1.631,0,0,0-.651-1.141.582.582,0,0,1,.782-.861,2.719,2.719,0,0,1,1.032,2c0,1.269-1.09,2.4-3.241,3.357-.441.2-.925.384-1.445.561a38.081,38.081,0,0,1,.3,9.044c.037.013.074.027.112.042,2.046.82,2.986,3.473,2.095,5.913a4.645,4.645,0,0,1-4.035,3.22,12.357,12.357,0,0,1-.945,2.031A16.849,16.849,0,0,1,28.51,39.98v3.234c5.522,1.818,17.616,8.193,20.361,29.444a.582.582,0,0,1-.577.656H.582A.582.582,0,0,1,0,72.657C2.75,51.407,14.843,45.031,20.365,43.214V39.98A16.848,16.848,0,0,1,12.3,33.465a12.357,12.357,0,0,1-.945-2.031,4.644,4.644,0,0,1-4.035-3.22c-.891-2.44.049-5.093,2.095-5.913l.111-.042c-.087-1.143-.14-2.36-.134-3.614a27.263,27.263,0,0,1-5.326-1.709A.582.582,0,0,1,4.56,15.88a25.585,25.585,0,0,0,4.858,1.575,32.742,32.742,0,0,1,.365-3.941c-3.692-.811-7.24-2.148-7.24-4.291,0-1.2,1.143-2.262,3.4-3.158a.582.582,0,0,1,.43,1.081c-1.693.673-2.664,1.43-2.664,2.077,0,.992,2.168,2.217,6.282,3.142m.965,17.862a38.363,38.363,0,0,1-1.308-6.749,3.491,3.491,0,0,0-1.229,4.336,3.643,3.643,0,0,0,2.537,2.413M27.346,43.639v-3.3a11.142,11.142,0,0,1-5.817,0v3.3a.582.582,0,0,1-.411.556C16.079,45.745,4.14,51.56,1.247,72.15H47.628C44.735,51.56,32.8,45.745,27.757,44.2a.582.582,0,0,1-.411-.556M39.23,23.478a38.405,38.405,0,0,1-1.307,6.749,3.643,3.643,0,0,0,2.536-2.413,3.491,3.491,0,0,0-1.229-4.336M11.123,12.6a58.259,58.259,0,0,0,5.958.814.582.582,0,0,1-.051,1.162l-.052,0c-1.27-.112-3.619-.362-6.059-.829a31.879,31.879,0,0,0-.347,3.96q.589.12,1.205.23a.582.582,0,0,1-.1,1.155.588.588,0,0,1-.1-.009q-.518-.092-1.017-.192c0,1.306.069,2.572.169,3.747.434,4.441,1.4,8.265,2.574,10.227,1.554,2.59,5.952,6.7,11.137,6.7s9.583-4.11,11.137-6.7c1.178-1.963,2.14-5.788,2.574-10.231a37.782,37.782,0,0,0-.222-9.07,37.752,37.752,0,0,1-5.121,1.049.591.591,0,0,1-.081.006.582.582,0,0,1-.08-1.158,35.969,35.969,0,0,0,5.069-1.044,15.666,15.666,0,0,0-3.534-7.48c-2.3-2.5-5.575-3.772-9.742-3.772S16.993,2.433,14.7,4.936A15.8,15.8,0,0,0,11.123,12.6m-2.822-7A1.164,1.164,0,1,0,9.465,4.442,1.164,1.164,0,0,0,8.3,5.605m39.411,5.768a1.164,1.164,0,1,0-1.164,1.164,1.164,1.164,0,0,0,1.164-1.164M1.745,15.567A1.164,1.164,0,1,0,.582,14.4a1.164,1.164,0,0,0,1.164,1.164M38.281,6.03a1.164,1.164,0,1,0,1.164-1.164A1.164,1.164,0,0,0,38.281,6.03m6.963,7.841a10.135,10.135,0,0,1-3.67,2.363.582.582,0,1,0,.453,1.072,11.091,11.091,0,0,0,4.1-2.673.582.582,0,0,0-.88-.761" transform="translate(0 0.01)" fill="#3a322b"/>
        </g>
      </g>
    </g>
  </g>
</svg>
