<svg xmlns="http://www.w3.org/2000/svg" xmlns:xlink="http://www.w3.org/1999/xlink" width="117" height="117" viewBox="0 0 117 117">
  <defs>
    <clipPath id="clip-path">
      <rect id="Rectángulo_402655" data-name="Rectángulo 402655" width="61.113" height="78.614" fill="none"/>
    </clipPath>
  </defs>
  <g id="Grupo_1103213" data-name="Grupo 1103213" transform="translate(-237 -2381)">
    <circle id="Elipse_11643" data-name="Elipse 11643" cx="58.5" cy="58.5" r="58.5" transform="translate(237 2381)" fill="#fff"/>
    <g id="Grupo_1103155" data-name="Grupo 1103155" transform="translate(265 2400)" clip-path="url(#clip-path)">
      <path id="Trazado_885040" data-name="Trazado 885040" d="M52.92,80.995a8.869,8.869,0,1,0-8.869-8.869,8.87,8.87,0,0,0,8.869,8.869M68.56,65.551c-1.792,4.1-2.472,9.262-2.472,15.8H37.681A66.311,66.311,0,0,0,40.428,69.26,108.773,108.773,0,0,0,41.37,56.3a13.472,13.472,0,0,0-.884-5.027c-1.674-4.4-5-14.594-4.076-24.161C37.632,14.475,44.758,8.665,54,5.4s23.223-.95,28.48,7.453,2.463,15.4,3.747,20.428,4.857,6.024,4.857,9.411-6.171,4.223-6.171,4.223,1.485,1.632.892,3.148-2.582,1.4-2.582,1.4a3.772,3.772,0,0,1,.735,3.046c-.465,1.633-2.207,2.3-2.647,4.12s1.424,4.831-1.856,6.932c-2.084,1.334-7.339.658-10.9-.012" transform="translate(-30.595 -3.362)" fill="#fec4b9"/>
      <path id="Trazado_885041" data-name="Trazado 885041" d="M95.134,383.974a8.869,8.869,0,1,1-8.869,8.869,8.87,8.87,0,0,1,8.869-8.869" transform="translate(-72.809 -324.08)" fill="#c43b58"/>
      <path id="Trazado_885042" data-name="Trazado 885042" d="M112.538,404.6a5.651,5.651,0,1,1-5.653,5.651,5.651,5.651,0,0,1,5.653-5.651" transform="translate(-90.213 -341.492)" fill="#d14b62"/>
      <path id="Trazado_885043" data-name="Trazado 885043" d="M131.047,426.524a2.232,2.232,0,1,1-2.232,2.232,2.233,2.233,0,0,1,2.232-2.232" transform="translate(-108.722 -359.993)" fill="#e15c63"/>
      <path id="Trazado_885044" data-name="Trazado 885044" d="M73.831,333.7H45.425a66.311,66.311,0,0,0,2.747-12.092,108.775,108.775,0,0,0,.942-12.956,13.472,13.472,0,0,0-.884-5.027c-.078-.206-.161-.424-.245-.655,4.687,8.815,24.8,14.162,24.8,14.162s1.48.382,3.521.767c-1.792,4.1-2.472,9.262-2.472,15.8m-13.167-.357a8.869,8.869,0,1,0-8.869-8.869,8.87,8.87,0,0,0,8.869,8.869" transform="translate(-38.339 -255.715)" fill="#f7b6ad"/>
      <path id="Trazado_885045" data-name="Trazado 885045" d="M59.04,34.866c1.066,1.316,2.073,2.559,2.073,4.467,0,3.009-3.857,4.238-5.727,4.657a3.434,3.434,0,0,1,.405,2.941,2.815,2.815,0,0,1-2.128,1.693,3.883,3.883,0,0,1,.3,2.7,5.354,5.354,0,0,1-1.4,2.164,4.423,4.423,0,0,0-1.238,1.932,5.39,5.39,0,0,0,.039,1.688c.193,1.664.457,3.943-2.166,5.622-2.187,1.4-7.22.841-10.857.179-1.516,3.714-2.224,8.528-2.224,15.084a.624.624,0,0,1-1.248,0c0-6.589.708-11.49,2.223-15.325-1.421-.289-2.475-.555-2.8-.64a.624.624,0,0,1,.312-1.208c3.024.782,11.422,2.46,13.923.858,1.966-1.259,1.788-2.8,1.6-4.428a6.177,6.177,0,0,1-.012-2.125,5.546,5.546,0,0,1,1.532-2.484,4.268,4.268,0,0,0,1.12-1.661,3.167,3.167,0,0,0-.621-2.486.625.625,0,0,1,.524-1.013c.013,0,1.546.066,1.964-1,.442-1.133-.762-2.489-.774-2.5a.625.625,0,0,1,.379-1.037c1.566-.214,5.632-1.279,5.632-3.6,0-1.465-.792-2.444-1.8-3.681a13.736,13.736,0,0,1-3.043-5.574,22.894,22.894,0,0,1-.393-5.844c.058-4.2.124-8.97-3.278-14.409C49.009,6.072,44.62,3.294,39,2a28.818,28.818,0,0,0-15.387.628C12.781,6.453,7.483,12.986,6.435,23.815,5.511,33.368,8.951,43.7,10.473,47.693a14.038,14.038,0,0,1,.925,5.261,109.886,109.886,0,0,1-.947,13.031A67.2,67.2,0,0,1,7.676,78.19a.624.624,0,0,1-1.182-.4,65.98,65.98,0,0,0,2.72-11.977,108.669,108.669,0,0,0,.936-12.882,12.8,12.8,0,0,0-.843-4.8C7.754,44.058,4.243,33.51,5.193,23.694c.592-6.117,2.536-10.935,5.945-14.731C14.017,5.757,17.962,3.3,23.2,1.453c9.45-3.335,23.774-.989,29.216,7.711,3.6,5.75,3.526,10.927,3.468,15.088a21.711,21.711,0,0,0,.355,5.517,12.494,12.494,0,0,0,2.8,5.1M43.976,65.29l-4.715,1.057a.624.624,0,1,0,.273,1.218l4.715-1.057a.624.624,0,1,0-.273-1.218m.751,5.719a.624.624,0,0,0-.5-.724l-4.543-.81a.624.624,0,0,0-.219,1.228l4.543.81a.623.623,0,0,0,.724-.5m-6.839,1.417a.624.624,0,0,0,.15.869l4.172,2.943a.624.624,0,0,0,.719-1.02l-4.172-2.943a.624.624,0,0,0-.869.15M22.325,71.62a2.856,2.856,0,1,1,2.856-2.856,2.859,2.859,0,0,1-2.856,2.856m0-1.248a1.608,1.608,0,1,0-1.608-1.608,1.61,1.61,0,0,0,1.608,1.608m0,4.667A6.276,6.276,0,1,1,28.6,68.764a6.283,6.283,0,0,1-6.276,6.275m0-1.248A5.028,5.028,0,1,0,17.3,68.764a5.033,5.033,0,0,0,5.028,5.028m0,4.465a9.493,9.493,0,1,1,9.493-9.493,9.5,9.5,0,0,1-9.493,9.493m0-1.248a8.245,8.245,0,1,0-8.245-8.245,8.255,8.255,0,0,0,8.245,8.245M6.164,62.685a.624.624,0,1,0,.768-.983L2.789,58.465a.624.624,0,1,0-.768.983Zm-5.872,3.2a.624.624,0,0,0,.624.624H5.156a.624.624,0,1,0,0-1.248H.915a.624.624,0,0,0-.624.624m6.147,3.794a.623.623,0,0,0-.854-.221L.307,72.565A.624.624,0,1,0,.941,73.64l5.277-3.108a.624.624,0,0,0,.221-.854" transform="translate(0 0)" fill="#3a322b"/>
    </g>
  </g>
</svg>
