<svg xmlns="http://www.w3.org/2000/svg" xmlns:xlink="http://www.w3.org/1999/xlink" width="88" height="88" viewBox="0 0 88 88">
  <defs>
    <clipPath id="clip-path">
      <rect id="Rectángulo_402236" data-name="Rectángulo 402236" width="49.934" height="56.138" fill="none"/>
    </clipPath>
    <clipPath id="clip-path-2">
      <path id="Trazado_883433" data-name="Trazado 883433" d="M90.5,144.115c-.8,2.68-1.95,6.2-3.34,9.6q-.418,1.022-.866,2.02a13.579,13.579,0,0,0,1.953,2.971,5.344,5.344,0,0,0,1.182,1,2.342,2.342,0,0,0,1.2.371l.1,0a.871.871,0,0,1,.106,0l.1,0a2.137,2.137,0,0,0,.886-.2,3.983,3.983,0,0,0,.986-.661,10.506,10.506,0,0,0,2.029-2.662c.149-.262.3-.536.438-.818-.682-1.52-1.317-3.1-1.895-4.664-1.088-2.941-1.976-5.79-2.595-7.915q-.133.457-.282.957" transform="translate(-86.292 -143.158)" fill="none"/>
    </clipPath>
  </defs>
  <g id="Grupo_1102201" data-name="Grupo 1102201" transform="translate(-282.051 -3542)">
    <circle id="Elipse_11597" data-name="Elipse 11597" cx="44" cy="44" r="44" transform="translate(282.051 3542)" fill="#fff"/>
    <g id="Grupo_1102194" data-name="Grupo 1102194" transform="translate(300.565 3555.733)">
      <g id="Grupo_1102189" data-name="Grupo 1102189" transform="translate(0)">
        <g id="Grupo_1102188" data-name="Grupo 1102188" clip-path="url(#clip-path)">
          <path id="Trazado_883428" data-name="Trazado 883428" d="M49.147,43.651l-3.474-.786L44.6,37.921a1.011,1.011,0,0,0-.539-.69L40.141,35.3a1.027,1.027,0,0,0-.164-.061,43.22,43.22,0,0,0-4.594-8.884l4.792-.962a1.007,1.007,0,0,0,.787-.774l1.857-8.525L47.891,13.2a1.009,1.009,0,0,0-1-1.754L41.43,14.56a1.013,1.013,0,0,0-.486.662l-1.813,8.32-5.039,1.011q-.273-.36-.556-.716a10.576,10.576,0,0,0-.543-3.073,6.375,6.375,0,0,0-.944-1.757l4.163-2.185a1.013,1.013,0,0,0,.524-.714L37.8,10.23a1.009,1.009,0,0,0-1.986-.359l-.975,5.392-4.409,2.314c-.06-.035-.121-.07-.182-.1.01-.025.022-.047.031-.072a4.9,4.9,0,0,0,.268-1.694v.006c0-.018,0-.038,0-.061a5.951,5.951,0,0,0-.041-.69c.062,0,.124.011.186.011a2.534,2.534,0,0,0,1.085-.244,2.769,2.769,0,0,0,1.176-1.069,3.031,3.031,0,0,0,.438-1.578q0-.106-.007-.215a8,8,0,0,0-.353-1.892,6.565,6.565,0,0,0-.689-1.492,6.165,6.165,0,0,0-2-1.971,8.6,8.6,0,0,0-3.308-1.141,2.575,2.575,0,0,0-.375-.028,2.547,2.547,0,0,0-1.08.242,2.678,2.678,0,0,0-.613.4,2.673,2.673,0,0,0-.612-.4A2.539,2.539,0,0,0,22.9,5.371a8.857,8.857,0,0,0-3.007.965,6.389,6.389,0,0,0-1.565,1.2A6.261,6.261,0,0,0,16.99,9.726a7.868,7.868,0,0,0-.438,2.141v0c-.005.075-.007.148-.007.218A3,3,0,0,0,17.3,14.09a2.713,2.713,0,0,0,.857.641,2.534,2.534,0,0,0,1.085.244c.061,0,.123-.007.185-.011a5.951,5.951,0,0,0-.041.69c0,.018,0,.036,0,.054v.013h0a4.811,4.811,0,0,0,.3,1.753c-.06.032-.117.07-.175.1L15.1,15.263l-.975-5.392a1.009,1.009,0,0,0-1.986.359L13.2,16.107a1.012,1.012,0,0,0,.524.714L17.881,19a6.671,6.671,0,0,0-1.1,2.271,11.291,11.291,0,0,0-.382,2.563q-.283.355-.556.714L10.8,23.541,8.99,15.222A1.014,1.014,0,0,0,8.5,14.56L3.04,11.449a1.009,1.009,0,0,0-1,1.754l5.072,2.888,1.857,8.525a1.006,1.006,0,0,0,.787.774l4.793.962a43.221,43.221,0,0,0-4.6,8.884,1.012,1.012,0,0,0-.163.061L5.876,37.231a1.011,1.011,0,0,0-.539.69L4.26,42.866l-3.474.786a1.009,1.009,0,1,0,.445,1.968l4.1-.927a1.008,1.008,0,0,0,.763-.769l1.111-5.1,1.827-.9A40.7,40.7,0,0,0,7.151,49.712a25.732,25.732,0,0,0,.292,4,12.007,12.007,0,0,0,1.51,4.5,4.787,4.787,0,0,0,1.336,1.426,3.377,3.377,0,0,0,.86.42,3.154,3.154,0,0,0,.958.148,3.642,3.642,0,0,0,1.411-.3,7.719,7.719,0,0,0,2.7-2.09,19.567,19.567,0,0,0,2.039-2.859c.4-.663.782-1.368,1.156-2.1a11.815,11.815,0,0,0,2.2,2.755,5.986,5.986,0,0,0,1.493.989,4.16,4.16,0,0,0,1.714.382c.05,0,.1,0,.15,0s.1,0,.15,0a4.356,4.356,0,0,0,2.237-.656,7.326,7.326,0,0,0,1.641-1.379,13.412,13.412,0,0,0,1.531-2.093c.287.562.579,1.112.88,1.635a20.589,20.589,0,0,0,2.314,3.326,7.718,7.718,0,0,0,2.7,2.09,3.642,3.642,0,0,0,1.412.3,3.151,3.151,0,0,0,.985-.157,3.657,3.657,0,0,0,1.449-.924,6.918,6.918,0,0,0,1.458-2.406,15.429,15.429,0,0,0,.822-3.342,1.009,1.009,0,0,0-.857-1.141h-.025a1.008,1.008,0,0,0-1.115.858,10.73,10.73,0,0,1-1.219,3.962,2.934,2.934,0,0,1-.784.894,1.377,1.377,0,0,1-.358.182,1.124,1.124,0,0,1-.355.057,1.628,1.628,0,0,1-.631-.142,5.788,5.788,0,0,1-1.963-1.564,17.573,17.573,0,0,1-1.822-2.562,45.932,45.932,0,0,1-2.954-6.085c-1.353-3.307-2.485-6.778-3.275-9.416-.395-1.319-.7-2.431-.916-3.211-.083-.308-.15-.562-.2-.759l6.49-8.591a40.922,40.922,0,0,1,5.768,10.711,40.652,40.652,0,0,1,2.39,11.352,1.008,1.008,0,0,0,1.048.949h.017a1.009,1.009,0,0,0,.95-1.065,42,42,0,0,0-1.828-9.89l1.828.9,1.111,5.1a1.008,1.008,0,0,0,.763.769l4.1.927a1.009,1.009,0,1,0,.445-1.968M25.976,8.242a.984.984,0,0,1,.24-.665.7.7,0,0,1,.219-.165.526.526,0,0,1,.225-.051.545.545,0,0,1,.079.006,6.853,6.853,0,0,1,2.328.735,4.372,4.372,0,0,1,1.075.823,4.243,4.243,0,0,1,.9,1.489A5.862,5.862,0,0,1,31.368,12h0c0,.026,0,.052,0,.078a.98.98,0,0,1-.238.657.7.7,0,0,1-.218.166.514.514,0,0,1-.224.051.54.54,0,0,1-.067,0l-4.648-.58ZM24.967,14.28l3.442.43a3.9,3.9,0,0,1,.118.943v.055a2.713,2.713,0,0,1-.181,1.088l-.075-.017a12.821,12.821,0,0,0-2.583-.234c-.238,0-.478.005-.721.014-.243-.009-.483-.014-.72-.014a12.667,12.667,0,0,0-2.657.25c-.013-.029-.026-.056-.038-.088a2.923,2.923,0,0,1-.145-1h0V15.7s0-.006,0-.008h0v-.042a3.9,3.9,0,0,1,.118-.943ZM19.31,12.952a.543.543,0,0,1-.067,0,.515.515,0,0,1-.224-.051.754.754,0,0,1-.313-.294,1.012,1.012,0,0,1-.143-.528c0-.028,0-.053,0-.076v0a5.985,5.985,0,0,1,.261-1.413A4.551,4.551,0,0,1,19.3,9.557a4.141,4.141,0,0,1,1.351-1.329,6.592,6.592,0,0,1,2.541-.86.543.543,0,0,1,.079-.006.526.526,0,0,1,.225.051.755.755,0,0,1,.315.294,1.025,1.025,0,0,1,.145.537v4.13ZM16.651,53.711a17.787,17.787,0,0,1-2.015,2.851,5.661,5.661,0,0,1-1.9,1.491,1.627,1.627,0,0,1-.631.142,1.136,1.136,0,0,1-.458-.1,1.619,1.619,0,0,1-.417-.27,3.624,3.624,0,0,1-.781-1.046,10.405,10.405,0,0,1-.933-2.907,22.854,22.854,0,0,1-.349-4.163,39.1,39.1,0,0,1,2.068-12.06,41.133,41.133,0,0,1,6.142-11.788l6.489,8.591c-.389,1.491-1.712,6.371-3.592,11.349a53.376,53.376,0,0,1-3.625,7.905m10.91-7.748c.578,1.56,1.212,3.144,1.895,4.664-.143.282-.289.556-.438.818a10.519,10.519,0,0,1-2.029,2.662,4,4,0,0,1-.986.661,2.139,2.139,0,0,1-.886.2l-.1,0a.88.88,0,0,0-.106,0l-.1,0a2.338,2.338,0,0,1-1.2-.371,5.344,5.344,0,0,1-1.182-1,13.566,13.566,0,0,1-1.953-2.971q.447-1,.866-2.02c1.391-3.4,2.538-6.922,3.34-9.6q.149-.5.282-.957c.619,2.125,1.506,4.974,2.595,7.914m-2.595-13.4-6.552-8.674a8.577,8.577,0,0,1,.427-2.449,4.216,4.216,0,0,1,.789-1.392,3.5,3.5,0,0,1,.8-.677,5.041,5.041,0,0,1,1.637-.615,10.834,10.834,0,0,1,2.175-.192q.334,0,.684.013H25q.35-.013.684-.013a10.037,10.037,0,0,1,2.52.273,4.627,4.627,0,0,1,1.391.6,3.479,3.479,0,0,1,.781.7,4.567,4.567,0,0,1,.833,1.684,9.262,9.262,0,0,1,.306,2.064Z" transform="translate(0 -4.075)" fill="#191817"/>
          <path id="Trazado_883429" data-name="Trazado 883429" d="M90.2,44.377v.042h0s0,.006,0,.008v.005h0a2.921,2.921,0,0,0,.145,1c.012.032.025.059.038.088a12.655,12.655,0,0,1,2.657-.25c.237,0,.478.005.72.014.243-.008.483-.014.721-.014a12.822,12.822,0,0,1,2.584.234l.075.017a2.712,2.712,0,0,0,.181-1.088v-.055a3.893,3.893,0,0,0-.118-.943L93.763,43l-3.443.43a3.894,3.894,0,0,0-.118.943" transform="translate(-68.796 -32.799)" fill="#836353"/>
          <path id="Trazado_883430" data-name="Trazado 883430" d="M90.5,144.116c-.8,2.68-1.95,6.2-3.34,9.6q-.418,1.022-.866,2.02a13.579,13.579,0,0,0,1.953,2.971,5.338,5.338,0,0,0,1.182,1,2.341,2.341,0,0,0,1.2.371l.1,0a.785.785,0,0,1,.106,0l.1,0a2.147,2.147,0,0,0,.886-.2,4,4,0,0,0,.986-.662,10.509,10.509,0,0,0,2.029-2.662c.15-.262.3-.536.438-.819-.683-1.52-1.317-3.1-1.895-4.664-1.088-2.941-1.976-5.79-2.595-7.914q-.133.457-.282.957" transform="translate(-65.814 -109.186)" fill="#bb8019"/>
        </g>
      </g>
      <g id="Grupo_1102191" data-name="Grupo 1102191" transform="translate(20.478 33.973)">
        <g id="Grupo_1102190" data-name="Grupo 1102190" clip-path="url(#clip-path-2)">
          <path id="Trazado_883431" data-name="Trazado 883431" d="M86.406,160.214a54.288,54.288,0,0,1-16.987,0l.616-3.89a50.344,50.344,0,0,0,15.755,0q.308,1.945.616,3.89" transform="translate(-73.423 -153.2)" fill="#66480f"/>
          <path id="Trazado_883432" data-name="Trazado 883432" d="M84.393,184.406a60.1,60.1,0,0,1-18.805,0l.616-3.89a56.158,56.158,0,0,0,17.573,0q.308,1.945.616,3.89" transform="translate(-70.501 -171.651)" fill="#66480f"/>
        </g>
      </g>
      <g id="Grupo_1102193" data-name="Grupo 1102193" transform="translate(0)">
        <g id="Grupo_1102192" data-name="Grupo 1102192" clip-path="url(#clip-path)">
          <path id="Trazado_883434" data-name="Trazado 883434" d="M89.566,62.628a3.472,3.472,0,0,0-.781-.7,4.626,4.626,0,0,0-1.391-.6,10.035,10.035,0,0,0-2.52-.273q-.334,0-.684.013h-.074q-.35-.013-.684-.013a10.818,10.818,0,0,0-2.175.192,5.028,5.028,0,0,0-1.637.615,3.49,3.49,0,0,0-.8.676,4.211,4.211,0,0,0-.789,1.392,8.56,8.56,0,0,0-.427,2.449l6.551,8.674L90.7,66.377a9.264,9.264,0,0,0-.306-2.064,4.564,4.564,0,0,0-.833-1.684" transform="translate(-59.185 -46.564)" fill="#836353"/>
          <path id="Trazado_883435" data-name="Trazado 883435" d="M46.849,91.82a41.129,41.129,0,0,0-6.141,11.788,39.092,39.092,0,0,0-2.069,12.06,22.835,22.835,0,0,0,.349,4.163,10.393,10.393,0,0,0,.933,2.907,3.629,3.629,0,0,0,.781,1.046,1.611,1.611,0,0,0,.417.27,1.13,1.13,0,0,0,.458.1,1.631,1.631,0,0,0,.631-.142,5.67,5.67,0,0,0,1.9-1.491,17.816,17.816,0,0,0,2.015-2.851,53.365,53.365,0,0,0,3.625-7.905c1.88-4.979,3.2-9.859,3.592-11.349Zm1.727,8.9-.01.023-.034.075c-.03.067-.075.167-.132.3-.115.262-.281.647-.484,1.136-.407.977-.963,2.366-1.558,4.009a63.836,63.836,0,0,0-3.13,11.578,1.009,1.009,0,0,1-2-.3A65.742,65.742,0,0,1,44.46,105.57c1.215-3.357,2.271-5.674,2.279-5.691a1.009,1.009,0,0,1,1.836.837" transform="translate(-29.47 -70.03)" fill="#beaa8b"/>
          <path id="Trazado_883436" data-name="Trazado 883436" d="M124.484,113.882a41.623,41.623,0,0,0-8.158-22.063l-6.49,8.591c.051.2.119.451.2.759.211.78.521,1.891.916,3.211.79,2.638,1.921,6.109,3.274,9.416a45.941,45.941,0,0,0,2.954,6.085A17.556,17.556,0,0,0,119,122.443a5.786,5.786,0,0,0,1.963,1.564,1.629,1.629,0,0,0,.631.142,1.124,1.124,0,0,0,.355-.057,1.376,1.376,0,0,0,.358-.182,2.934,2.934,0,0,0,.784-.894,10.735,10.735,0,0,0,1.218-3.962,1.008,1.008,0,0,1,1.115-.858,27.957,27.957,0,0,0,.1-3.364,1.008,1.008,0,0,1-1.048-.949m-3.388,4.8a1.009,1.009,0,0,1-1.149-.847,63.084,63.084,0,0,0-3.018-11.267c-1.16-3.242-2.2-5.573-2.319-5.828l-.01-.023a1.009,1.009,0,1,1,1.836-.837c.008.018,1.064,2.334,2.279,5.691a65.745,65.745,0,0,1,3.228,11.963,1.009,1.009,0,0,1-.847,1.149" transform="translate(-83.771 -70.029)" fill="#beaa8b"/>
          <path id="Trazado_883437" data-name="Trazado 883437" d="M56.373,123.381a1.009,1.009,0,0,0-1.337.5c-.008.018-1.064,2.334-2.279,5.691a65.744,65.744,0,0,0-3.228,11.963,1.009,1.009,0,0,0,2,.3,63.856,63.856,0,0,1,3.13-11.578c.594-1.642,1.151-3.032,1.557-4.009.2-.488.369-.874.484-1.136.057-.131.1-.231.132-.3l.034-.075.011-.023a1.009,1.009,0,0,0-.5-1.337" transform="translate(-37.767 -94.032)" fill="#191817"/>
          <path id="Trazado_883438" data-name="Trazado 883438" d="M133.728,129.571c-1.215-3.357-2.272-5.674-2.279-5.691a1.009,1.009,0,0,0-1.836.837l.01.023c.116.256,1.159,2.586,2.319,5.828a63.1,63.1,0,0,1,3.018,11.267,1.009,1.009,0,0,0,2-.3,65.746,65.746,0,0,0-3.228-11.963" transform="translate(-98.784 -94.031)" fill="#191817"/>
          <path id="Trazado_883439" data-name="Trazado 883439" d="M83.618,14.728a1.025,1.025,0,0,0-.145-.537.754.754,0,0,0-.315-.294.525.525,0,0,0-.225-.051.54.54,0,0,0-.079.006,6.592,6.592,0,0,0-2.541.86,4.138,4.138,0,0,0-1.351,1.329,4.545,4.545,0,0,0-.476,1.035,5.986,5.986,0,0,0-.262,1.413v0c0,.023,0,.048,0,.076a1.012,1.012,0,0,0,.143.528.753.753,0,0,0,.313.294.519.519,0,0,0,.224.051.541.541,0,0,0,.066,0l4.648-.58Z" transform="translate(-59.66 -10.561)" fill="#537d34"/>
          <path id="Trazado_883440" data-name="Trazado 883440" d="M114.176,19.443a.519.519,0,0,0,.224-.051.7.7,0,0,0,.218-.166.98.98,0,0,0,.239-.657c0-.026,0-.052,0-.078h0a5.85,5.85,0,0,0-.322-1.591,4.24,4.24,0,0,0-.9-1.489,4.366,4.366,0,0,0-1.075-.823,6.848,6.848,0,0,0-2.328-.735.514.514,0,0,0-.079-.006.524.524,0,0,0-.225.051.7.7,0,0,0-.219.165.984.984,0,0,0-.24.664v4.13l4.648.58a.5.5,0,0,0,.066,0" transform="translate(-83.485 -10.562)" fill="#537d34"/>
          <path id="Trazado_883441" data-name="Trazado 883441" d="M75.652,8.85a4.6,4.6,0,1,1-4.6-4.6,4.6,4.6,0,0,1,4.6,4.6" transform="translate(-50.685 -3.243)" fill="#fff"/>
          <path id="Trazado_883442" data-name="Trazado 883442" d="M67.811,11.213a5.607,5.607,0,1,1,5.607-5.607,5.614,5.614,0,0,1-5.607,5.607m0-9.2A3.589,3.589,0,1,0,71.4,5.606a3.593,3.593,0,0,0-3.589-3.589" transform="translate(-47.442 0.001)" fill="#191817"/>
          <path id="Trazado_883443" data-name="Trazado 883443" d="M81.671,17.587a1.88,1.88,0,1,1-1.88-1.88,1.88,1.88,0,0,1,1.88,1.88" transform="translate(-59.422 -11.98)" fill="#191817"/>
          <path id="Trazado_883444" data-name="Trazado 883444" d="M114.4,8.85a4.6,4.6,0,1,1-4.6-4.6,4.6,4.6,0,0,1,4.6,4.6" transform="translate(-80.241 -3.243)" fill="#fff"/>
          <path id="Trazado_883445" data-name="Trazado 883445" d="M106.564,11.213a5.607,5.607,0,1,1,5.607-5.607,5.614,5.614,0,0,1-5.607,5.607m0-9.2a3.589,3.589,0,1,0,3.589,3.589,3.593,3.593,0,0,0-3.589-3.589" transform="translate(-76.999 0.001)" fill="#191817"/>
          <path id="Trazado_883446" data-name="Trazado 883446" d="M120.422,17.587a1.88,1.88,0,1,1-1.88-1.88,1.88,1.88,0,0,1,1.88,1.88" transform="translate(-88.977 -11.98)" fill="#191817"/>
        </g>
      </g>
    </g>
  </g>
</svg>
