<svg xmlns="http://www.w3.org/2000/svg" xmlns:xlink="http://www.w3.org/1999/xlink" width="117" height="117" viewBox="0 0 117 117">
  <defs>
    <clipPath id="clip-path">
      <rect id="Rectángulo_402658" data-name="Rectángulo 402658" width="54.719" height="79.008" fill="none"/>
    </clipPath>
  </defs>
  <g id="Grupo_1103214" data-name="Grupo 1103214" transform="translate(-483 -2381)">
    <g id="Grupo_1103211" data-name="Grupo 1103211">
      <circle id="Elipse_11644" data-name="Elipse 11644" cx="58.5" cy="58.5" r="58.5" transform="translate(483 2381)" fill="#fff"/>
      <g id="Grupo_1103162" data-name="Grupo 1103162" transform="translate(515 2400)">
        <g id="Grupo_1103161" data-name="Grupo 1103161" clip-path="url(#clip-path)">
          <path id="Trazado_885068" data-name="Trazado 885068" d="M230.45,88.842a93.242,93.242,0,0,1,.731-10.255c-7.139-2.161-13.587-1.985-19.283.74q-.39,16.58-.034,32.741.372,15.905,1.588,31.334h16.777s2.221-22.257,2.221-32.829-2-17.031-2-21.73" transform="translate(-178.503 -65.021)" fill="#fec4b9"/>
          <path id="Trazado_885069" data-name="Trazado 885069" d="M32.618,85.147a6.8,6.8,0,0,0-1.607-4.062,13.2,13.2,0,0,1,1.445-3.062c-4.3-3.3-8.45-3.71-12.4-.4,0,0,.072,1.687.287,3.457,0,0-2.605,8.838-2.605,15.392s3.769,45.431,3.769,45.431h8.258A152.359,152.359,0,0,1,28.5,124.433c0-8.183,4.4-35.681,4.117-39.286" transform="translate(-14.957 -63.528)" fill="#fec4b9"/>
          <path id="Trazado_885070" data-name="Trazado 885070" d="M222.479,16.939a69.782,69.782,0,0,1-10.226,1.068,68.4,68.4,0,0,1-9.058-.328q-.912-.094-1.828-.212V4h22.525V16.671q-.705.141-1.414.268" transform="translate(-169.801 -3.373)" fill="#6fceae"/>
          <path id="Trazado_885071" data-name="Trazado 885071" d="M24.548,4V17.467q-1.846.261-3.678.4a56.791,56.791,0,0,1-6.253.138,57.5,57.5,0,0,1-6.147-.533q-2.246-.315-4.472-.8V4Z" transform="translate(-3.371 -3.373)" fill="#6fceae"/>
          <path id="Trazado_885072" data-name="Trazado 885072" d="M24.548,4V17.467q-1.846.261-3.678.4a56.791,56.791,0,0,1-6.253.138,57.5,57.5,0,0,1-6.147-.533q-2.246-.315-4.472-.8s20.55.8,20.55-12.671" transform="translate(-3.371 -3.373)" fill="#53b79a"/>
          <path id="Trazado_885073" data-name="Trazado 885073" d="M222.479,16.939a69.782,69.782,0,0,1-10.226,1.068,68.4,68.4,0,0,1-9.058-.328q-.912-.094-1.828-.212s22.525-.8,22.525-13.467V16.671q-.705.141-1.414.268" transform="translate(-169.801 -3.373)" fill="#53b79a"/>
          <path id="Trazado_885074" data-name="Trazado 885074" d="M44.928,90.345a14.9,14.9,0,0,0-.966,1.8c-3.558,1.594-11.281,0-11.281,0h0c-.111-1.232-.152-2.192-.152-2.192a57.5,57.5,0,0,0,6.147.533,56.79,56.79,0,0,0,6.253-.138" transform="translate(-27.429 -75.849)" fill="#f7b6ad"/>
          <path id="Trazado_885075" data-name="Trazado 885075" d="M232.025,86.54c-.008.06-.176,1.358-.351,3.207a50.56,50.56,0,0,1-18.985,0q.024-1.232.053-2.467a68.4,68.4,0,0,0,9.058.328,69.782,69.782,0,0,0,10.226-1.068" transform="translate(-179.347 -72.974)" fill="#f7b6ad"/>
          <path id="Trazado_885076" data-name="Trazado 885076" d="M17.87,15.093a12.68,12.68,0,0,0-1.11,2.328,7.77,7.77,0,0,1,1.527,4.148c.136,1.716-.709,8.318-1.687,15.962-1.138,8.9-2.428,18.977-2.428,23.374A152.982,152.982,0,0,0,15.429,78.3a.627.627,0,0,1-.537.706.655.655,0,0,1-.085.006.627.627,0,0,1-.62-.543,154.35,154.35,0,0,1-1.269-17.56c0-4.476,1.3-14.6,2.438-23.533.929-7.26,1.806-14.118,1.68-15.7a6.917,6.917,0,0,0-.7-2.55,8.061,8.061,0,0,0-.078.862,4.54,4.54,0,0,1-.914,2.616L14.122,24.2a.627.627,0,1,1-1-.761l1.226-1.606a3.294,3.294,0,0,0,.658-1.9A10.879,10.879,0,0,1,16.372,15.2q-1.638.093-3.274.094-.938,0-1.872-.031c-1.81-.059-3.635-.207-5.46-.44.112,1.754.409,4.841.955,5.95a7.687,7.687,0,0,0,2.985,2.656.627.627,0,1,1-.571,1.116A9.032,9.032,0,0,1,5.6,21.324a5.346,5.346,0,0,1-.322-.886A58.26,58.26,0,0,0,3.408,32.95c0,6.449,3.727,44.982,3.765,45.371a.627.627,0,0,1-.564.685c-.021,0-.041,0-.061,0a.627.627,0,0,1-.623-.567C5.771,76.853,2.154,39.46,2.154,32.95c0-6.211,2.255-14.269,2.592-15.437-.136-1.146-.211-2.233-.247-2.866q-2.007-.3-4.006-.736A.627.627,0,0,1,0,13.3V.627a.627.627,0,0,1,1.254,0V12.791a58.168,58.168,0,0,0,10.013,1.217,56.906,56.906,0,0,0,9.283-.46V.627a.627.627,0,0,1,1.254,0V14.094a.627.627,0,0,1-.539.621q-1.691.239-3.4.378m36.345-1.18a.627.627,0,0,0,.5-.615V.627a.627.627,0,0,0-1.254,0V12.781a69.709,69.709,0,0,1-11.032,1.226,68.368,68.368,0,0,1-10.239-.467V.627a.627.627,0,1,0-1.254,0V14.094a.627.627,0,0,0,.547.622q.633.082,1.268.151c-.253,11.116-.261,21.945-.021,32.2.252,10.813.788,21.367,1.591,31.369a.627.627,0,0,0,.624.577l.051,0a.627.627,0,0,0,.575-.675c-.8-9.978-1.335-20.508-1.587-31.3-.238-10.2-.231-20.976.019-32.039,2.136.2,4.281.3,6.416.3q1.026,0,2.049-.031a70.653,70.653,0,0,0,9.484-.939,90.83,90.83,0,0,0-.633,9.5,48.834,48.834,0,0,0,.71,6.727,95.876,95.876,0,0,1,1.288,15c0,10.42-2.2,32.545-2.218,32.767a.627.627,0,0,0,.562.686.61.61,0,0,0,.063,0,.627.627,0,0,0,.623-.565c.022-.223,2.225-22.409,2.225-32.892a96.921,96.921,0,0,0-1.3-15.187,48.1,48.1,0,0,1-.7-6.543,91.106,91.106,0,0,1,.669-9.726c.324-.06.647-.119.97-.183M39.478,25.9a.627.627,0,0,0,.631-1.084,4.671,4.671,0,0,1-2.439-3.689.627.627,0,0,0-1.245.148A5.926,5.926,0,0,0,39.478,25.9m7.872-3.67a4.479,4.479,0,0,1-2.4,2.971.627.627,0,1,0,.523,1.14A5.737,5.737,0,0,0,48.548,22.6a.627.627,0,1,0-1.2-.371" fill="#3a322b"/>
        </g>
      </g>
    </g>
  </g>
</svg>
