<svg xmlns="http://www.w3.org/2000/svg" xmlns:xlink="http://www.w3.org/1999/xlink" width="117" height="117" viewBox="0 0 117 117">
  <defs>
    <clipPath id="clip-path">
      <rect id="Rectángulo_402648" data-name="Rectángulo 402648" width="79.152" height="66.128" fill="none"/>
    </clipPath>
  </defs>
  <g id="Grupo_1103215" data-name="Grupo 1103215" transform="translate(-742 -2381)">
    <g id="Grupo_1103208" data-name="Grupo 1103208" transform="translate(13)">
      <circle id="Elipse_11645" data-name="Elipse 11645" cx="58.5" cy="58.5" r="58.5" transform="translate(729 2381)" fill="#fff"/>
      <g id="Grupo_1103163" data-name="Grupo 1103163" transform="translate(752.848 2400.508)">
        <g id="Grupo_1103152" data-name="Grupo 1103152" clip-path="url(#clip-path)">
          <path id="Trazado_885030" data-name="Trazado 885030" d="M22.005,42.189a60.477,60.477,0,0,1,0,30.531c-2.388,1.691-4.646,1.969-6.7,0H8.749A4.749,4.749,0,0,1,4,67.971V42.189a4.75,4.75,0,0,1,4.749-4.751h8.507a4.75,4.75,0,0,1,4.749,4.751" transform="translate(-3.372 -31.559)" fill="#e7f2f1"/>
          <path id="Trazado_885031" data-name="Trazado 885031" d="M45.137,67.628a3.017,3.017,0,1,1-3.017,3.017,3.017,3.017,0,0,1,3.017-3.017" transform="translate(-35.505 -57.007)" fill="#655f68"/>
          <path id="Trazado_885032" data-name="Trazado 885032" d="M123.468,6.407V44.532a3.871,3.871,0,0,1-4.818,0V6.407a2.409,2.409,0,1,1,4.818,0" transform="translate(-100.016 -3.37)" fill="#d6eae8"/>
          <path id="Trazado_885033" data-name="Trazado 885033" d="M109.516,262.1H76s-.155,11.2,7.942,16.757a5.317,5.317,0,0,1,2.305,4.389v3.193H105.4l-.912-3.267a4.05,4.05,0,0,1,1.6-4.405,15.939,15.939,0,0,0,3.812-3.8c1.817-4.634,1.936-8.967-.38-12.87" transform="translate(-64.063 -220.937)" fill="#c3ddda"/>
          <path id="Trazado_885034" data-name="Trazado 885034" d="M213.237,202.912l6.2,5.63a2.313,2.313,0,0,1-2.544,3.8c-2.01-.949-5.547-2.343-8.339-1.987-4.148.529-18.379,6.55-20.75-.963-1.475-4.675,4.444-7.837,8.711-9.462a8.7,8.7,0,0,0-.738-3.208,7.731,7.731,0,0,0-2.114-2.753c-1.008,2.53-2.406,5.143-4.223,6.641a6.988,6.988,0,0,1-1.936,1.076c-3.629,1.4-9.475,1.316-13.036,1.1a3.267,3.267,0,0,1,.316-6.527c3.543.126,8.782.06,10.183-1.313,1.156-1.134,1.7-3.65,2.158-6.128H169.894a8.172,8.172,0,0,1-1.834-5.148,8.758,8.758,0,0,1,8.991-8.5A11.893,11.893,0,0,1,182.626,177a7.335,7.335,0,0,0,2.329.719,3.362,3.362,0,0,0,2.409-.5,13.042,13.042,0,0,1,8.733-1.954c6.031.71,21.705,14.547,19.83,23.376a7.685,7.685,0,0,1-2.69,4.267" transform="translate(-141.667 -147.659)" fill="#fec4b9"/>
          <path id="Trazado_885035" data-name="Trazado 885035" d="M207.351,340.533a16.107,16.107,0,0,1-2.587,2.843h0a78.172,78.172,0,0,1-9.135.432,3.8,3.8,0,0,1-4.017-3.929,3.34,3.34,0,0,0,.521.73,3.269,3.269,0,0,0,2.183,1.022c3.562.218,9.407.3,13.036-1.1" transform="translate(-161.518 -286.501)" fill="#b8d3cf"/>
          <path id="Trazado_885036" data-name="Trazado 885036" d="M362.963,351.828l1.69,1.536c-6.773,5.778-18.973,3.5-18.973,3.5s11.733-.3,17.283-5.033" transform="translate(-291.392 -296.575)" fill="#f7b6ad"/>
          <path id="Trazado_885037" data-name="Trazado 885037" d="M333.109,251.388s5.225,7.04,4.846,11.507a36.66,36.66,0,0,0-4.044,1.289,8.7,8.7,0,0,0-.738-3.208,7.731,7.731,0,0,0-2.114-2.753,43.21,43.21,0,0,0,2.049-6.835" transform="translate(-279.068 -211.908)" fill="#f7b6ad"/>
          <path id="Trazado_885038" data-name="Trazado 885038" d="M276.05,218.532c.1-9.236,7.461-8.069,7.461-8.069a5.117,5.117,0,0,0-4.047,2.6,24.21,24.21,0,0,0-1.314,5.471h-2.1Z" transform="translate(-232.697 -177.371)" fill="#f7b6ad"/>
          <path id="Trazado_885039" data-name="Trazado 885039" d="M9.631,9.992a3.645,3.645,0,1,0,3.645,3.645A3.649,3.649,0,0,0,9.631,9.992m0,6.034a2.389,2.389,0,1,1,2.389-2.389,2.391,2.391,0,0,1-2.389,2.389M72.506,55.255a8.065,8.065,0,0,0,2.369-4.138c.822-3.867-1.518-8.183-3.626-11.122-4.523-6.308-12.5-12.509-16.745-13.009a13.67,13.67,0,0,0-9.152,2.054,2.731,2.731,0,0,1-1.96.4,6.546,6.546,0,0,1-2.113-.64,12.349,12.349,0,0,0-5.9-1.919,9.4,9.4,0,0,0-9.619,9.132,8.694,8.694,0,0,0,1.259,4.519H24.08V3.037a3.037,3.037,0,1,0-6.075,0V7.18a5.367,5.367,0,0,0-4.121-1.928H5.377A5.383,5.383,0,0,0,0,10.63V36.412a5.383,5.383,0,0,0,5.377,5.377h5.944a26.469,26.469,0,0,0,.944,5.835,18.916,18.916,0,0,0,7.257,10.812,4.69,4.69,0,0,1,2.033,3.871V65.5a.628.628,0,0,0,.628.628H41.338a.628.628,0,0,0,.605-.8l-.913-3.266a3.433,3.433,0,0,1,1.351-3.723,16.608,16.608,0,0,0,3.848-3.791,7.447,7.447,0,0,0,1.94-1.111A16.318,16.318,0,0,0,52.227,47.4a6.993,6.993,0,0,1,1.307,1.929,7.915,7.915,0,0,1,.649,2.526c-3.01,1.192-6.666,3.112-8.184,5.8a5.205,5.205,0,0,0-.466,4.278c.877,2.778,3.3,4.185,7.2,4.185.133,0,.269,0,.406,0A45.471,45.471,0,0,0,63.264,64.2a34.4,34.4,0,0,1,3.7-.877c2.67-.339,6.154,1.064,7.993,1.931a2.941,2.941,0,0,0,3.234-4.836ZM19.262,3.037a1.781,1.781,0,1,1,3.562,0v37.5H19.262ZM1.256,36.412V10.63A4.126,4.126,0,0,1,5.377,6.508h8.507a4.126,4.126,0,0,1,4.121,4.121v29.9H5.377a4.126,4.126,0,0,1-4.121-4.121m40.4,20.9a4.692,4.692,0,0,0-1.84,5.09l.69,2.469h-17.7V62.307A5.946,5.946,0,0,0,20.233,57.4c-6.648-4.562-7.534-13.227-7.651-15.611H44.694c-.407,2.106-.925,4.154-1.84,5.051s-4.545,1.317-9.72,1.134A3.9,3.9,0,0,0,29.1,51.867a3.9,3.9,0,0,0,3.661,3.889c1.272.078,2.637.13,4.021.13a34.014,34.014,0,0,0,7.278-.668,15.039,15.039,0,0,1-2.4,2.1m35.85,6.354a1.684,1.684,0,0,1-2.019.451c-2.4-1.131-5.852-2.4-8.688-2.041a34.762,34.762,0,0,0-3.866.911c-5.781,1.557-14.518,3.91-16.206-1.439a3.943,3.943,0,0,1,.361-3.281C49.548,53.925,58.94,51.62,59.035,51.6a.628.628,0,0,0-.294-1.222c-.149.036-1.526.373-3.346,1.022a9.02,9.02,0,0,0-.717-2.59,8.318,8.318,0,0,0-1.937-2.668A43.222,43.222,0,0,0,54.657,39.6a.628.628,0,0,0-1.233-.242c-.019.1-1.948,9.727-6.055,13.113-2.1,1.728-7.394,2.468-14.535,2.03a2.646,2.646,0,0,1-2.482-2.635,2.641,2.641,0,0,1,2.737-2.638c5.842.208,9.423-.294,10.644-1.492,1.434-1.406,1.971-4.416,2.491-7.326a18.992,18.992,0,0,1,1.1-4.433,4.441,4.441,0,0,1,3.52-2.259.628.628,0,0,0-.061-1.255A5.715,5.715,0,0,0,46.209,35.4a19.429,19.429,0,0,0-1.221,4.788l-.061.343H28.536a7.491,7.491,0,0,1-1.514-4.519,8.139,8.139,0,0,1,8.363-7.876,11.4,11.4,0,0,1,5.256,1.745,7.618,7.618,0,0,0,2.545.8,3.985,3.985,0,0,0,2.858-.592,12.407,12.407,0,0,1,8.315-1.855c3.492.412,11.186,5.959,15.871,12.493,1.96,2.734,4.144,6.71,3.418,10.129-1.751,8.243-19.2,8.8-19.375,8.8a.628.628,0,0,0,.016,1.256H54.3c.59-.015,11.489-.364,17.247-4.831l5.793,5.265a1.683,1.683,0,0,1,.166,2.319M54.251,11.77l-3.607,2.72,1.534,1.354a.628.628,0,0,1-.007.948l-4.055,3.47,1.187.969a.628.628,0,0,1,0,.972L45.85,25.043a.628.628,0,0,1-.8-.97l2.862-2.354-1.175-.959a.628.628,0,0,1-.011-.964L50.8,16.307l-1.569-1.385a.629.629,0,0,1,.037-.973l4.222-3.183a.628.628,0,0,1,.756,1m-9.358,1.2-2.936,4.456,1.409.6a.628.628,0,0,1,.271.933L41.1,22.648a.628.628,0,0,1-1.035-.712l2.1-3.054-1.395-.6a.628.628,0,0,1-.278-.923l2.952-4.481-1.891-.9a.628.628,0,0,1-.233-.945L44.5,6.814a.628.628,0,1,1,1,.755L42.789,11.18l1.849.876a.628.628,0,0,1,.256.913m-9.853,9.9.256-3.7-1.5.2a.628.628,0,0,1-.708-.654l.266-5.359-2.084.189a.628.628,0,0,1-.681-.7l.588-5.255a.628.628,0,1,1,1.249.14l-.5,4.49,2.037-.184a.628.628,0,0,1,.684.657l-.265,5.33,1.519-.2a.628.628,0,0,1,.707.666l-.31,4.462a.628.628,0,0,1-.626.585h-.044a.628.628,0,0,1-.583-.67" fill="#3a322b"/>
        </g>
      </g>
    </g>
  </g>
</svg>
