<svg xmlns="http://www.w3.org/2000/svg" xmlns:xlink="http://www.w3.org/1999/xlink" width="88" height="88" viewBox="0 0 88 88">
  <defs>
    <clipPath id="clip-path">
      <rect id="Rectángulo_402239" data-name="Rectángulo 402239" width="64.018" height="64.037" transform="translate(0 0)" fill="none"/>
    </clipPath>
  </defs>
  <g id="Grupo_1102199" data-name="Grupo 1102199" transform="translate(-912.051 -3542)">
    <circle id="Elipse_11599" data-name="Elipse 11599" cx="44" cy="44" r="44" transform="translate(912.051 3542)" fill="#fff"/>
    <g id="Grupo_1102198" data-name="Grupo 1102198" transform="translate(924.042 3552.805)">
      <g id="Grupo_1102197" data-name="Grupo 1102197" clip-path="url(#clip-path)">
        <path id="Trazado_883467" data-name="Trazado 883467" d="M39.008,36.017a3,3,0,1,1-3,3,3,3,0,0,1,3-3" fill="#00a0aa"/>
        <path id="Trazado_883468" data-name="Trazado 883468" d="M25.008,36.017a3,3,0,1,1-3,3,3,3,0,0,1,3-3" fill="#00a0aa"/>
        <path id="Trazado_883469" data-name="Trazado 883469" d="M25.008,22.017a3,3,0,1,1-3,3,3,3,0,0,1,3-3" fill="#00a0aa"/>
        <path id="Trazado_883470" data-name="Trazado 883470" d="M39.008,22.017a3,3,0,1,1-3,3,3,3,0,0,1,3-3" fill="#00a0aa"/>
        <path id="Trazado_883471" data-name="Trazado 883471" d="M50.118,47.227a4,4,0,0,0-2.9,2.9,37.5,37.5,0,0,0-3.67-3.02l-.01-.02a17.989,17.989,0,0,0,3.54-3.54l.02.01a37.5,37.5,0,0,0,3.02,3.67" fill="#108d91"/>
        <path id="Trazado_883472" data-name="Trazado 883472" d="M16.938,43.547a17.989,17.989,0,0,0,3.54,3.54l-.01.02a37.5,37.5,0,0,0-3.67,3.02,4,4,0,0,0-2.9-2.9,37.5,37.5,0,0,0,3.02-3.67Z" fill="#108d91"/>
        <path id="Trazado_883473" data-name="Trazado 883473" d="M20.468,16.927l.01.02a17.989,17.989,0,0,0-3.54,3.54l-.02-.01a37.5,37.5,0,0,0-3.02-3.67,4,4,0,0,0,2.9-2.9,37.5,37.5,0,0,0,3.67,3.02" fill="#108d91"/>
        <path id="Trazado_883474" data-name="Trazado 883474" d="M50.118,16.807a37.5,37.5,0,0,0-3.02,3.67l-.02.01a17.989,17.989,0,0,0-3.54-3.54l.01-.02a37.5,37.5,0,0,0,3.67-3.02,4,4,0,0,0,2.9,2.9" fill="#108d91"/>
        <path id="Trazado_883475" data-name="Trazado 883475" d="M50.118,47.227a4,4,0,1,1-2.9,2.9,4,4,0,0,1,2.9-2.9" fill="#00a0aa"/>
        <path id="Trazado_883476" data-name="Trazado 883476" d="M16.8,50.127a4,4,0,1,1-2.9-2.9,4,4,0,0,1,2.9,2.9" fill="#00a0aa"/>
        <path id="Trazado_883477" data-name="Trazado 883477" d="M16.8,13.907a4,4,0,1,1,0-1.957,4,4,0,0,1,0,1.957" fill="#00a0aa"/>
        <path id="Trazado_883478" data-name="Trazado 883478" d="M50.118,16.807a4,4,0,1,1,1.957,0,4,4,0,0,1-1.957,0" fill="#00a0aa"/>
        <path id="Trazado_883479" data-name="Trazado 883479" d="M59.008,28.017a4,4,0,1,1-3.43,6.03,37.09,37.09,0,0,0-4.76.51,18.833,18.833,0,0,1-3.74,8.99,17.989,17.989,0,0,1-3.54,3.54,18.833,18.833,0,0,1-8.99,3.74,37.091,37.091,0,0,0-.51,4.76,4,4,0,1,1-4.06,0,37.091,37.091,0,0,0-.51-4.76,18.833,18.833,0,0,1-8.99-3.74,17.989,17.989,0,0,1-3.54-3.54,18.833,18.833,0,0,1-3.74-8.99,37.09,37.09,0,0,0-4.76-.51,4,4,0,1,1,0-4.06,37.09,37.09,0,0,0,4.76-.51,18.833,18.833,0,0,1,3.74-8.99,17.989,17.989,0,0,1,3.54-3.54,18.833,18.833,0,0,1,8.99-3.74,37.091,37.091,0,0,0,.51-4.76,4,4,0,1,1,4.06,0,37.091,37.091,0,0,0,.51,4.76,18.833,18.833,0,0,1,8.99,3.74,17.989,17.989,0,0,1,3.54,3.54,18.833,18.833,0,0,1,3.74,8.99,37.09,37.09,0,0,0,4.76.51,3.979,3.979,0,0,1,3.43-1.97m-17-3a3,3,0,1,0-3,3,3,3,0,0,0,3-3m0,14a3,3,0,1,0-3,3,3,3,0,0,0,3-3m-14-14a3,3,0,1,0-3,3,3,3,0,0,0,3-3m0,14a3,3,0,1,0-3,3,3,3,0,0,0,3-3" fill="#64e1dc"/>
        <path id="Trazado_883480" data-name="Trazado 883480" d="M24.008,22.2a3,3,0,1,0,0,5.634,2.984,2.984,0,0,1,0-5.634" fill="#00c8c8"/>
        <path id="Trazado_883481" data-name="Trazado 883481" d="M23.008,42.017a2.969,2.969,0,0,0,1-.183,2.984,2.984,0,0,1,0-5.634,3,3,0,1,0-1,5.817" fill="#00c8c8"/>
        <path id="Trazado_883482" data-name="Trazado 883482" d="M38.008,22.2a3,3,0,1,0,0,5.634,2.984,2.984,0,0,1,0-5.634" fill="#00c8c8"/>
        <path id="Trazado_883483" data-name="Trazado 883483" d="M37.008,42.017a2.969,2.969,0,0,0,1-.183,2.984,2.984,0,0,1,0-5.634,3,3,0,1,0-1,5.817" fill="#00c8c8"/>
        <path id="Trazado_883484" data-name="Trazado 883484" d="M6.438,29.987c.682-.032,1.308-.081,1.907-.136a3.966,3.966,0,0,0-3.337-1.834,3.958,3.958,0,0,0-.98.135,4,4,0,0,1,2.41,1.835" fill="#00c8c8"/>
        <path id="Trazado_883485" data-name="Trazado 883485" d="M6.438,34.047a4,4,0,0,1-2.41,1.835,3.958,3.958,0,0,0,.98.135,3.966,3.966,0,0,0,3.337-1.834c-.6-.055-1.225-.1-1.907-.136" fill="#00c8c8"/>
        <path id="Trazado_883486" data-name="Trazado 883486" d="M59.008,28.017a3.979,3.979,0,0,0-3.43,1.97,37.09,37.09,0,0,1-4.76-.51,18.833,18.833,0,0,0-3.74-8.99,17.989,17.989,0,0,0-3.54-3.54,18.833,18.833,0,0,0-8.99-3.74,37.091,37.091,0,0,1-.51-4.76,4,4,0,1,0-4.06,0,37.091,37.091,0,0,1-.51,4.76c-.147.02-.29.05-.435.073a18.976,18.976,0,0,1,0,37.474c.145.023.288.053.435.073a37.091,37.091,0,0,1,.51,4.76,4,4,0,1,0,4.06,0,37.091,37.091,0,0,1,.51-4.76,18.833,18.833,0,0,0,8.99-3.74,17.989,17.989,0,0,0,3.54-3.54,18.833,18.833,0,0,0,3.74-8.99,37.09,37.09,0,0,1,4.76-.51,3.994,3.994,0,1,0,3.43-6.03" fill="#00c8c8"/>
        <path id="Trazado_883487" data-name="Trazado 883487" d="M25.008,21.017a4,4,0,1,0,4,4,4,4,0,0,0-4-4m0,6a2,2,0,1,1,2-2,2,2,0,0,1-2,2"/>
        <path id="Trazado_883488" data-name="Trazado 883488" d="M25.008,35.017a4,4,0,1,0,4,4,4,4,0,0,0-4-4m0,6a2,2,0,1,1,2-2,2,2,0,0,1-2,2"/>
        <path id="Trazado_883489" data-name="Trazado 883489" d="M39.008,21.017a4,4,0,1,0,4,4,4,4,0,0,0-4-4m0,6a2,2,0,1,1,2-2,2,2,0,0,1-2,2"/>
        <path id="Trazado_883490" data-name="Trazado 883490" d="M39.008,35.017a4,4,0,1,0,4,4,4,4,0,0,0-4-4m0,6a2,2,0,1,1,2-2,2,2,0,0,1-2,2"/>
        <path id="Trazado_883491" data-name="Trazado 883491" d="M59.008,27.017a5,5,0,0,0-3.938,1.941c-1.193-.071-2.324-.189-3.374-.349A19.864,19.864,0,0,0,48.322,20.5c.613-.82,1.341-1.7,2.167-2.614a5,5,0,1,0-4.349-4.355c-.923.832-1.8,1.559-2.614,2.169a19.864,19.864,0,0,0-8.106-3.374c-.16-1.05-.278-2.181-.349-3.374a5,5,0,1,0-6.118,0c-.071,1.193-.189,2.324-.349,3.374A19.864,19.864,0,0,0,20.5,15.7c-.82-.613-1.7-1.342-2.614-2.168a4.992,4.992,0,1,0-4.349,4.354c.832.924,1.558,1.8,2.168,2.614a19.864,19.864,0,0,0-3.374,8.106c-1.05.16-2.181.278-3.374.349a5,5,0,1,0,0,6.118c1.193.071,2.324.189,3.374.349A19.864,19.864,0,0,0,15.7,43.531c-.613.82-1.342,1.7-2.168,2.615A5,5,0,1,0,17.889,50.5c.923-.832,1.8-1.559,2.614-2.169a19.864,19.864,0,0,0,8.106,3.374c.16,1.05.278,2.181.349,3.374a5,5,0,1,0,6.118,0c.071-1.193.189-2.324.349-3.374a19.864,19.864,0,0,0,8.106-3.374c.82.613,1.7,1.342,2.614,2.168a4.987,4.987,0,0,0,4.338,5.562,4.89,4.89,0,0,0,.628.038,5,5,0,1,0-.611-9.958c-.832-.923-1.559-1.8-2.169-2.614a19.87,19.87,0,0,0,3.374-8.106c1.05-.16,2.181-.278,3.374-.349a4.994,4.994,0,1,0,3.929-8.057M47.561,16.465a4.962,4.962,0,0,0,.9.7q-.768.882-1.4,1.7a19.024,19.024,0,0,0-1.894-1.894q.818-.636,1.7-1.4a5.05,5.05,0,0,0,.694.894m1.411-5.658a3.005,3.005,0,1,1-.784,2.857,3.005,3.005,0,0,1,.784-2.857m-32.008,8.06q-.636-.818-1.4-1.7a4.653,4.653,0,0,0,1.6-1.6q.882.768,1.7,1.4a18.988,18.988,0,0,0-1.9,1.9M10.8,15.053a3.005,3.005,0,1,1,2.857.784,3.005,3.005,0,0,1-2.857-.784m5.657,32.516a5.054,5.054,0,0,0-.895-.7q.768-.882,1.4-1.7a19.024,19.024,0,0,0,1.894,1.894c-.545.424-1.112.89-1.7,1.4a4.985,4.985,0,0,0-.7-.9m-1.411,5.658a3.005,3.005,0,1,1,.784-2.857,3.005,3.005,0,0,1-.784,2.857m32.008-8.06c.424.545.89,1.112,1.405,1.7a4.653,4.653,0,0,0-1.6,1.6q-.882-.768-1.7-1.4a19.044,19.044,0,0,0,1.895-1.9m6.166,3.814a3.02,3.02,0,1,1-2.128-.874,3.021,3.021,0,0,1,2.128.874m5.79-13.964a2.963,2.963,0,0,1-2.569-1.478,1.021,1.021,0,0,0-.909-.491,38.519,38.519,0,0,0-4.887.525,1,1,0,0,0-.816.851,17.872,17.872,0,0,1-3.542,8.513l-.006.008a16.985,16.985,0,0,1-3.351,3.349,17.872,17.872,0,0,1-8.513,3.542,1,1,0,0,0-.851.816,38.52,38.52,0,0,0-.525,4.887,1,1,0,0,0,.491.909,2.963,2.963,0,0,1,1.478,2.569,3,3,0,1,1-6,0,2.963,2.963,0,0,1,1.478-2.569,1,1,0,0,0,.491-.909,38.52,38.52,0,0,0-.525-4.887,1,1,0,0,0-.851-.816,17.885,17.885,0,0,1-8.521-3.548,16.985,16.985,0,0,1-3.349-3.351,17.872,17.872,0,0,1-3.542-8.513,1,1,0,0,0-.816-.851,38.52,38.52,0,0,0-4.887-.525H8.438a1,1,0,0,0-.861.492,2.963,2.963,0,0,1-2.569,1.477,3,3,0,1,1,0-6A2.963,2.963,0,0,1,7.577,30.5a1.016,1.016,0,0,0,.909.491,38.52,38.52,0,0,0,4.887-.525,1,1,0,0,0,.816-.851,17.885,17.885,0,0,1,3.548-8.521,16.985,16.985,0,0,1,3.351-3.349A17.872,17.872,0,0,1,29.6,14.2a1,1,0,0,0,.851-.816,38.52,38.52,0,0,0,.525-4.887,1,1,0,0,0-.491-.909,2.963,2.963,0,0,1-1.478-2.569,3,3,0,1,1,6,0A2.963,2.963,0,0,1,33.53,7.586a1,1,0,0,0-.491.909,38.52,38.52,0,0,0,.525,4.887,1,1,0,0,0,.851.816,17.885,17.885,0,0,1,8.521,3.548A16.985,16.985,0,0,1,46.285,21.1a17.872,17.872,0,0,1,3.542,8.513,1,1,0,0,0,.816.851,38.52,38.52,0,0,0,4.887.525,1.03,1.03,0,0,0,.909-.491,2.963,2.963,0,0,1,2.569-1.478,3,3,0,1,1,0,6"/>
      </g>
    </g>
  </g>
</svg>
