<svg id="Grupo_1102213" data-name="Grupo 1102213" xmlns="http://www.w3.org/2000/svg" xmlns:xlink="http://www.w3.org/1999/xlink" width="335.406" height="259.937" viewBox="0 0 335.406 259.937">
  <defs>
    <clipPath id="clip-path">
      <rect id="Rectángulo_402255" data-name="Rectángulo 402255" width="335.406" height="259.937" fill="none"/>
    </clipPath>
    <clipPath id="clip-path-3">
      <rect id="Rectángulo_402246" data-name="Rectángulo 402246" width="38.968" height="38.966" fill="none"/>
    </clipPath>
    <clipPath id="clip-path-4">
      <rect id="Rectángulo_402247" data-name="Rectángulo 402247" width="22.063" height="32.286" fill="none"/>
    </clipPath>
  </defs>
  <g id="Grupo_1102212" data-name="Grupo 1102212" clip-path="url(#clip-path)">
    <g id="Grupo_1102211" data-name="Grupo 1102211">
      <g id="Grupo_1102210" data-name="Grupo 1102210" clip-path="url(#clip-path)">
        <path id="Trazado_883497" data-name="Trazado 883497" d="M19.023,250.251S-13.159,180.658,6.194,116.68C16.212,83.559,39.819,41.192,88.816,46.219c20.486,2.1,40.47,1.342,54.3-16.987C159.383,7.672,192.572-6.93,222.351,3.38c49.707,17.212,40.654,57.686,54.66,75.567s36.655,18.412,51.064,52.15c21.048,49.282-9.924,119.153-9.924,119.153Z" transform="translate(0 0)" fill="#c7dece"/>
        <path id="Trazado_883498" data-name="Trazado 883498" d="M325.438,306.909c0,5.446-68.189,9.866-152.3,9.866s-152.3-4.419-152.3-9.866,68.189-9.859,152.3-9.859,152.3,4.416,152.3,9.859" transform="translate(-3.987 -56.838)" fill="#87d4c7"/>
        <path id="Trazado_883499" data-name="Trazado 883499" d="M335.555,295.807a4.776,4.776,0,0,0,.619-1.42,3.319,3.319,0,0,0-1.123-3.565,4.342,4.342,0,0,0-3.778-.273,9.154,9.154,0,0,0-1.629.714,21.983,21.983,0,0,0,1.4-2.3c.7-1.337,1.394-3.159.162-4.421-.95-.973-2.516-.954-3.752-.707a15.479,15.479,0,0,0-4.665,1.9c-.389.23-.767.475-1.135.734a24.15,24.15,0,0,0,2.6-5.574c.817-2.57,1.684-6.561-1.092-8.308s-6.4.532-8.666,2.119a33.265,33.265,0,0,0-7.193,7.011,52.947,52.947,0,0,0-4.33,6.663,4.363,4.363,0,0,0-.352-1.786c-.843-1.87-2.919-.662-4.012.226a14.733,14.733,0,0,0-5.175,8.985Z" transform="translate(-56.146 -52.038)" fill="#87d4c7"/>
        <path id="Trazado_883500" data-name="Trazado 883500" d="M320.66,283.016a64.956,64.956,0,0,0-4.541,15.817c-.04.261.361.373.4.109a64.432,64.432,0,0,1,4.5-15.715c.1-.245-.255-.457-.361-.212" transform="translate(-60.486 -54.132)" fill="#1c6f73"/>
        <path id="Trazado_883501" data-name="Trazado 883501" d="M332.93,290.316a27.993,27.993,0,0,0-6.741,9.935c-.1.248.3.357.4.11a27.514,27.514,0,0,1,6.635-9.751c.195-.184-.1-.48-.3-.294" transform="translate(-62.411 -55.538)" fill="#1c6f73"/>
        <path id="Trazado_883502" data-name="Trazado 883502" d="M340.761,296.586a14.839,14.839,0,0,0-4.019,4.81c-.142.23.219.437.36.209a27.124,27.124,0,0,1,1.823-2.615,8.862,8.862,0,0,1,2.047-2.044c.225-.145.016-.505-.21-.36" transform="translate(-64.427 -56.743)" fill="#1c6f73"/>
        <path id="Trazado_883503" data-name="Trazado 883503" d="M301.127,293a26.31,26.31,0,0,0-1.44,7.8c-.009.268.408.268.416,0a25.96,25.96,0,0,1,1.426-7.685c.087-.255-.315-.363-.4-.112" transform="translate(-57.343 -56.036)" fill="#1c6f73"/>
        <path id="Trazado_883504" data-name="Trazado 883504" d="M314.847,291.921q.8,2.334,1.8,4.584c.11.243.469.033.361-.21q-.984-2.2-1.765-4.484c-.085-.251-.487-.143-.4.11" transform="translate(-60.241 -55.808)" fill="#1c6f73"/>
        <path id="Trazado_883505" data-name="Trazado 883505" d="M338.607,296.97a13.8,13.8,0,0,0,.025,2.217c.025.264.441.268.417,0a13.711,13.711,0,0,1-.027-2.217c.018-.268-.4-.267-.416,0" transform="translate(-64.783 -56.784)" fill="#1c6f73"/>
        <path id="Trazado_883506" data-name="Trazado 883506" d="M301.469,297l-1.251,1.5c-.171.2.122.5.3.294q.625-.751,1.25-1.5c.171-.2-.121-.5-.294-.294" transform="translate(-57.434 -56.814)" fill="#1c6f73"/>
        <path id="Trazado_883507" data-name="Trazado 883507" d="M244.349,81.039c4.439-13.69,13.539-17.649,23.012-11.139,11.907,8.183,25.263,27.386,37.172,64.035,7.41,22.8,16.5,68.44,3.437,82.152-6.561,6.884-21.45-3.529-33.632-10.62-7.591-4.417-18.383,1.369-28.218-7.184-19.886-17.3-1.407-60.862-4.685-74.774-4.529-19.227-1.8-27.907,2.914-42.469" transform="translate(-45.301 -12.789)" fill="#e3405b"/>
        <path id="Trazado_883508" data-name="Trazado 883508" d="M180.826,81.039c-4.437-13.69-13.538-17.649-23.01-11.139-11.905,8.183-25.262,27.386-37.172,64.035-7.409,22.8-16.5,68.44-3.436,82.152,6.559,6.884,21.45-3.529,33.631-10.62,7.592-4.417,23.39,3.339,30.453-7.615,19.886-30.838-.828-60.431,2.449-74.343,4.529-19.227,1.807-27.907-2.916-42.469" transform="translate(-21.162 -12.789)" fill="#e3405b"/>
        <path id="Trazado_883509" data-name="Trazado 883509" d="M225,86.367c-3.593-9.326-3.593-35-3.281-46.553h-14.1c.312,11.557.312,37.227-3.279,46.553-2.926,7.592-9.784,14.821-20.717,23.723l3.068,5.64s14.369-12.093,19.991-19.278c3.33-4.253,4.74-7.645,7.985-7.888,3.262-.243,4.657,3.635,7.985,7.888,5.623,7.185,19.992,19.278,19.992,19.278l3.068-5.64c-10.932-8.9-17.792-16.13-20.716-23.723" transform="translate(-35.135 -7.618)" fill="#ff999d"/>
        <path id="Trazado_883510" data-name="Trazado 883510" d="M212.681,50.4c5.182,1.688,9.536,2.026,14.676,0,1.851-.73,1.045-3.752-.831-3.012-4.638,1.83-8.333,1.524-13.014,0-1.921-.626-2.737,2.39-.83,3.012" transform="translate(-40.487 -9.046)" fill="#ff6f7f"/>
        <path id="Trazado_883511" data-name="Trazado 883511" d="M212.681,58.68c5.182,1.688,9.536,2.027,14.676,0,1.851-.73,1.046-3.751-.831-3.012-4.638,1.831-8.333,1.525-13.014,0-1.921-.626-2.737,2.392-.83,3.012" transform="translate(-40.487 -10.629)" fill="#ff6f7f"/>
        <path id="Trazado_883512" data-name="Trazado 883512" d="M212.133,67.479c5.349,1.725,10.132,2.067,15.438,0,1.854-.723,1.047-3.744-.831-3.011-4.814,1.876-8.926,1.564-13.778,0-1.921-.621-2.738,2.4-.829,3.011" transform="translate(-40.382 -12.314)" fill="#ff6f7f"/>
        <path id="Trazado_883513" data-name="Trazado 883513" d="M212.133,75.164c5.368,1.718,10.148,1.857,15.438-.218,1.853-.727,1.046-3.749-.831-3.012-4.8,1.881-8.9,1.779-13.778.218-1.923-.615-2.74,2.4-.829,3.012" transform="translate(-40.382 -13.742)" fill="#ff6f7f"/>
        <path id="Trazado_883514" data-name="Trazado 883514" d="M211.139,83.162c5.661,1.793,11.208,2.145,16.827,0,1.861-.711,1.054-3.732-.832-3.012-5.13,1.96-9.989,1.638-15.164,0-1.926-.61-2.744,2.407-.83,3.012" transform="translate(-40.191 -15.315)" fill="#ff6f7f"/>
        <path id="Trazado_883515" data-name="Trazado 883515" d="M227.392,39.529c0,.97-3.154,1.757-7.049,1.757s-7.048-.787-7.048-1.757,3.156-1.756,7.048-1.756,7.049.786,7.049,1.756" transform="translate(-40.812 -7.228)" fill="#ff6f7f"/>
        <path id="Trazado_883516" data-name="Trazado 883516" d="M305.091,133.924c-11.907-36.649-25.265-55.852-37.172-64.035-7.812-5.369-17.573-3.887-20.414,5.366-6,19.529,5,27.522-3.742,48.242a43.977,43.977,0,0,0-3.979,21.055c.71,9.322,5.648,18.4,11.371,22.674,8.024,6,21.449,8.121,19.574,24.365-.932,8.085,6.789,16.127,13.276,20.305,9.723,5.667,19.556,9.39,24.522,4.179,13.067-13.712,3.973-59.348-3.437-82.152" transform="translate(-45.859 -12.779)" fill="#ff6f7f"/>
        <path id="Trazado_883517" data-name="Trazado 883517" d="M120.464,133.924c11.909-36.649,25.266-55.852,37.172-64.035,7.813-5.369,17.573-3.887,20.415,5.366,6,19.529-9.381,24.5,3.742,48.242,2.379,4.305,4.226,12.987,5,19.836,1.042,9.29-.906,18.272-10.309,26.082-7.706,6.4-11.4,10.829-12.026,23.01-.416,8.129-6.633,13.575-13.12,17.752-9.75,7.289-26.435,12.184-34.3,5.9-14.8-11.821-3.973-59.348,3.436-82.152" transform="translate(-20.981 -12.779)" fill="#ff6f7f"/>
        <path id="Trazado_883518" data-name="Trazado 883518" d="M142.491,176.311c-12.419,0-24.048-7.043-24.612-7.389a.625.625,0,0,1,.655-1.065c.155.1,15.728,9.52,29.607,6.65,20.542-4.251,33.968-21.283,36.284-29.034a.625.625,0,1,1,1.2.357c-2.387,7.993-16.175,25.544-37.227,29.9a29.147,29.147,0,0,1-5.9.581" transform="translate(-22.498 -27.75)" fill="#e3405b"/>
        <path id="Trazado_883519" data-name="Trazado 883519" d="M158.146,232.33a.527.527,0,0,1-.1-.009.624.624,0,0,1-.518-.716c.484-3.015-.049-5.292-1.631-6.964-2.939-3.1-9.462-4.149-19.4-3.108a28.357,28.357,0,0,1-25.408-10.239.625.625,0,1,1,1.021-.721,27.1,27.1,0,0,0,24.257,9.718c10.34-1.082,17.216.092,20.436,3.493,1.867,1.972,2.508,4.6,1.956,8.023a.624.624,0,0,1-.615.525" transform="translate(-21.235 -40.241)" fill="#e3405b"/>
        <path id="Trazado_883520" data-name="Trazado 883520" d="M288.735,228.418a.616.616,0,0,1-.362-.117c-2.562-1.824-2.332-8.673-2.015-18.154.528-15.811,1.253-37.466-12.6-40.784a45.359,45.359,0,0,1-31.367-26.009.625.625,0,1,1,1.175-.424,44.079,44.079,0,0,0,30.482,25.217c14.85,3.556,14.106,25.8,13.563,42.043-.268,8.052-.523,15.659,1.493,17.094a.625.625,0,0,1-.363,1.134" transform="translate(-46.371 -27.269)" fill="#e3405b"/>
        <path id="Trazado_883521" data-name="Trazado 883521" d="M153.656,151.3a1.392,1.392,0,1,0,1.393-1.392,1.393,1.393,0,0,0-1.393,1.392" transform="translate(-29.401 -28.683)" fill="#cc1b38"/>
        <path id="Trazado_883522" data-name="Trazado 883522" d="M150.056,150.609a4.3,4.3,0,1,1,4.3,4.3,4.309,4.309,0,0,1-4.3-4.3m.628,0a3.678,3.678,0,1,0,3.676-3.677,3.68,3.68,0,0,0-3.676,3.677" transform="translate(-28.712 -27.994)" fill="#cc1b38"/>
        <path id="Trazado_883523" data-name="Trazado 883523" d="M146.844,150a6.9,6.9,0,1,1,6.9,6.9,6.909,6.909,0,0,1-6.9-6.9m.624,0a6.277,6.277,0,1,0,6.277-6.278A6.284,6.284,0,0,0,147.468,150" transform="translate(-28.097 -27.379)" fill="#cc1b38"/>
        <path id="Trazado_883524" data-name="Trazado 883524" d="M143.628,149.38a9.5,9.5,0,1,1,9.5,9.5,9.513,9.513,0,0,1-9.5-9.5m.624,0a8.877,8.877,0,1,0,8.877-8.877,8.887,8.887,0,0,0-8.877,8.877" transform="translate(-27.482 -26.765)" fill="#cc1b38"/>
        <path id="Trazado_883525" data-name="Trazado 883525" d="M166.058,109.841a.865.865,0,1,0,.865-.864.866.866,0,0,0-.865.864" transform="translate(-31.774 -20.852)" fill="#cc1b38"/>
        <path id="Trazado_883526" data-name="Trazado 883526" d="M163.823,109.413a2.672,2.672,0,1,1,2.673,2.672,2.676,2.676,0,0,1-2.673-2.672m.39,0a2.284,2.284,0,1,0,2.283-2.284,2.285,2.285,0,0,0-2.283,2.284" transform="translate(-31.346 -20.424)" fill="#cc1b38"/>
        <path id="Trazado_883527" data-name="Trazado 883527" d="M161.829,109.032a4.285,4.285,0,1,1,4.285,4.286,4.29,4.29,0,0,1-4.285-4.286m.387,0a3.9,3.9,0,1,0,3.9-3.9,3.9,3.9,0,0,0-3.9,3.9" transform="translate(-30.965 -20.042)" fill="#cc1b38"/>
        <path id="Trazado_883528" data-name="Trazado 883528" d="M159.833,108.65a5.9,5.9,0,1,1,5.9,5.9,5.906,5.906,0,0,1-5.9-5.9m.388,0a5.511,5.511,0,1,0,5.511-5.51,5.517,5.517,0,0,0-5.511,5.51" transform="translate(-30.583 -19.661)" fill="#cc1b38"/>
        <path id="Trazado_883529" data-name="Trazado 883529" d="M75.606,212.577l-3.018-2.5s2.7-4.062,3.255-5.124c.361-.691.572-1.726,1.29-2.189.829-.535,1.831-.494,3.152-1.819.168-.169.438,0,.431.26a1.348,1.348,0,0,1-.313.8,4.968,4.968,0,0,1-.982.985,7.655,7.655,0,0,0,2.49-.061c.632-.209,1.522-1.643,1.972-1.705.375-.053.552.222.6.547a4.324,4.324,0,0,1-1.528,3.151c-1.2.789-5.007,1.492-5.007,1.492-.192.375-2.34,6.156-2.34,6.156" transform="translate(-13.889 -38.437)" fill="#a76b63"/>
        <path id="Trazado_883530" data-name="Trazado 883530" d="M61.7,304.532l2.863-.04.638-7.02-3.818.108Z" transform="translate(-11.745 -56.919)" fill="#a76b63"/>
        <path id="Trazado_883531" data-name="Trazado 883531" d="M67.744,306.982a12.6,12.6,0,0,0-1.7-.882,14.087,14.087,0,0,1-1.383-.636,7.37,7.37,0,0,1-2.939.036c-.057.67-.383,2.956.492,3.5.893.548,2.77.485,3.916.393.911-.074,2.753-.112,2.646-1.186-.055-.558-.591-.932-1.029-1.22" transform="translate(-11.789 -58.448)" fill="#14232f"/>
        <path id="Trazado_883532" data-name="Trazado 883532" d="M38.245,304.532l2.863-.04.639-7.02-3.816.108Z" transform="translate(-7.258 -56.919)" fill="#a76b63"/>
        <path id="Trazado_883533" data-name="Trazado 883533" d="M44.29,306.982a12.566,12.566,0,0,0-1.706-.882,14.351,14.351,0,0,1-1.383-.636,7.353,7.353,0,0,1-2.935.036c-.061.67-.385,2.956.492,3.5.892.548,2.769.485,3.914.393.915-.074,2.757-.112,2.648-1.186-.055-.558-.591-.932-1.029-1.22" transform="translate(-7.301 -58.448)" fill="#14232f"/>
        <path id="Trazado_883534" data-name="Trazado 883534" d="M62.761,288.216H53.91c.3-5.079,1.03-21.541.429-24.162-.812-3.531-8.275-15.322-8.275-15.322.23,4.518-1.109,12.353-1.722,19.281-.763,8.577-1,14.976-.948,20.2H35.073s.587-16.447.215-24.817c-.192-4.315-1.143-9.739-1.763-14.667-1.105-8.8-.068-17.245.009-20.242l17.048-.349a5.556,5.556,0,0,0,.932,4.564c4.626,7.39,11.307,23.152,12.207,28.624.393,2.4-.256,8.117-.416,11.526-.17,3.7-.543,15.36-.543,15.36" transform="translate(-6.318 -43.653)" fill="#ffdec9"/>
        <path id="Trazado_883535" data-name="Trazado 883535" d="M49.129,249.755c.032-6.086.029-8.386-.012-14.473a.1.1,0,0,1,.194,0c.04,6.088.045,8.387.011,14.473a.1.1,0,0,1-.193,0" transform="translate(-9.398 -45.001)" fill="#e6b08e"/>
        <path id="Trazado_883536" data-name="Trazado 883536" d="M16.556,218.492c-.945-2.838,2.273-6.355,4.49-9.889,1.591-2.535,4.676-6.54,7.138-7.787a23.03,23.03,0,0,1,5.994-1.743s11.33-1.261,15.113,1.59c2.783,2.1,6.959,7.9,9.835,11.575a18.515,18.515,0,0,0,2.773-3.077l3.548,2.224c-.229.439-3.62,7.932-7.071,7.951-3.481.019-8.646-7.895-9.079-8.185.546,3.977-.739,8.033-.424,11.873.4,4.863,5.409,13.449,5.409,13.449-10.027,6.837-25,4.237-25,4.237-1.207-6.255.62-15.239.551-19.749-.053-3.323-1.037-5.884-1.494-9.93,0,0-4.127,4.163-5.387,5.844.734.963,2.834,4.179,2.834,4.179l-2.261,3.2c-2.3-1.468-6.367-3.946-6.972-5.762" transform="translate(-3.135 -38.038)" fill="#398fb9"/>
        <path id="Trazado_883537" data-name="Trazado 883537" d="M45.645,192.368l-.027,1.973,2.09,1.133s-.526,1.409-1.223,3.179H39.666c-.728-1.693-1.278-3.028-1.278-3.028a20.533,20.533,0,0,0,2.631-1.164c.062-.644.167-3.542.244-4.754a2.749,2.749,0,0,0,.615-1.6c.089.011,1.636-5.086,2.707-5.2,2.443-.248,3.345-.214,4,.357a15.068,15.068,0,0,1,.712,3.289c.412,2.472-.04,4.676-1.237,5.661a2.676,2.676,0,0,1-2.417.153" transform="translate(-7.345 -34.97)" fill="#a76b63"/>
        <path id="Trazado_883538" data-name="Trazado 883538" d="M46.681,194.547a5.007,5.007,0,0,1-2.252-1c-.1-.081.044-.218.136-.139a4.828,4.828,0,0,0,2.168.953c.122.024.07.211-.052.188" transform="translate(-8.495 -37.002)" fill="#8b5348"/>
        <path id="Trazado_883539" data-name="Trazado 883539" d="M46.538,202.4c-1.15,3.223-2.61,7.063-3.022,7.063-.366,0-2.008-3.84-3.323-7.063Z" transform="translate(-7.691 -38.729)" fill="#fff"/>
        <path id="Trazado_883540" data-name="Trazado 883540" d="M56.793,212.565q-.114-2.4-.23-4.8c-.007-.125.185-.159.19-.033q.116,2.4.232,4.8c0,.124-.185.158-.192.035" transform="translate(-10.823 -39.732)" fill="#20759e"/>
        <path id="Trazado_883541" data-name="Trazado 883541" d="M30.933,212.66q-.27-2.239-.54-4.477c-.015-.124.175-.168.19-.044q.27,2.238.539,4.476c.014.124-.174.169-.189.044" transform="translate(-5.815 -39.812)" fill="#20759e"/>
        <path id="Trazado_883542" data-name="Trazado 883542" d="M29.6,200.132a.092.092,0,0,0,.065.114c2.978.755,6.029.032,9.049.054a.091.091,0,0,0,.087-.067,29.909,29.909,0,0,0,1.079-7.412,18.779,18.779,0,0,1,.44-3.945,6.983,6.983,0,0,1,1.295-1.966,10.162,10.162,0,0,0,4.972-4.566,25.118,25.118,0,0,1,.935,2.757,8.49,8.49,0,0,0-.3-4.157,3.4,3.4,0,0,0-2.022-1.887,6.539,6.539,0,0,0-5.865-.131,7.577,7.577,0,0,0-3.75,4.127,12.3,12.3,0,0,0-.785,3.1,33.74,33.74,0,0,1-.446,3.755c-.908,3.713-4.211,6.375-4.752,10.225" transform="translate(-5.663 -34.116)" fill="#14232f"/>
        <path id="Trazado_883543" data-name="Trazado 883543" d="M42.837,188.97c.328.573.9.86,1.282.643s.42-.858.092-1.43-.841-.753-1.221-.535-.48.751-.153,1.322" transform="translate(-8.159 -35.888)" fill="#a76b63"/>
        <path id="Trazado_883544" data-name="Trazado 883544" d="M45.042,202.163a.1.1,0,0,0,.088.118c2.241.252,4.444-.521,6.688-.292a.09.09,0,0,0,.1-.094c-.229-3.615-.75-7.276-1.273-10.861a5.329,5.329,0,0,1-1.06,2.512c-.722.7-1.185.693-2.665.4a26.088,26.088,0,0,0-1.114,4.02q-.382,2.1-.763,4.192" transform="translate(-8.618 -36.553)" fill="#14232f"/>
        <path id="Trazado_883545" data-name="Trazado 883545" d="M33.631,247.326l15.241-8.665a.443.443,0,0,0,.165-.6l-5.74-10.1a.442.442,0,0,0-.6-.165l-15.237,8.664a.443.443,0,0,0-.167.6l5.741,10.1a.441.441,0,0,0,.6.165" transform="translate(-5.21 -43.576)" fill="#14232f"/>
        <path id="Trazado_883546" data-name="Trazado 883546" d="M27.384,226.561a33.778,33.778,0,0,0,3.845,3.85,18.566,18.566,0,0,1,2.884,1.021,3.4,3.4,0,0,1,.611.778c.758,1.157,1.233,4.285.717,4.611-.686.431-1.706-.388-2.063-.817a8.044,8.044,0,0,0-1.583-1.553,6.388,6.388,0,0,1-1.458-1.2,3.88,3.88,0,0,1-.662-1.228c-2.562-1.364-1.709-1.3-4.266-2.669Z" transform="translate(-4.862 -43.351)" fill="#a76b63"/>
        <path id="Trazado_883547" data-name="Trazado 883547" d="M153.653,255.41h7.318a.552.552,0,0,0,.551-.552V253.41a.55.55,0,0,0-.551-.549h-7.318a.551.551,0,0,0-.552.549v1.448a.552.552,0,0,0,.552.552" transform="translate(-29.295 -48.383)" fill="#b8e2fd"/>
        <path id="Trazado_883548" data-name="Trazado 883548" d="M151.549,267.67V256.013h6.8V267.67a3.332,3.332,0,0,0,.319,1.427l10.149,21.559a3.36,3.36,0,0,1-3.041,4.79H144.12a3.359,3.359,0,0,1-3.04-4.79l10.15-21.559a3.355,3.355,0,0,0,.319-1.427" transform="translate(-26.933 -48.986)" fill="#b8e2fd"/>
        <path id="Trazado_883549" data-name="Trazado 883549" d="M154.27,256.127h6.479a.134.134,0,0,0,.134-.134v-.032a.134.134,0,0,0-.134-.133H154.27a.134.134,0,0,0-.135.133v.032a.135.135,0,0,0,.135.134" transform="translate(-29.492 -48.951)" fill="#398fb9"/>
        <path id="Trazado_883550" data-name="Trazado 883550" d="M142.991,295.363l8.518-18.095h7.666l8.518,18.095a1.881,1.881,0,0,1-1.7,2.681h-21.3a1.88,1.88,0,0,1-1.7-2.681" transform="translate(-27.325 -53.053)" fill="#ffbd66"/>
        <path id="Trazado_883551" data-name="Trazado 883551" d="M159.474,289.04a1.929,1.929,0,1,0,1.929-1.929,1.929,1.929,0,0,0-1.929,1.929" transform="translate(-30.514 -54.936)" fill="#ffa53d"/>
        <path id="Trazado_883552" data-name="Trazado 883552" d="M156.454,294.055a1.221,1.221,0,1,0,1.222-1.221,1.222,1.222,0,0,0-1.222,1.221" transform="translate(-29.936 -56.031)" fill="#ffa53d"/>
        <path id="Trazado_883553" data-name="Trazado 883553" d="M65.331,59.1A26.442,26.442,0,1,0,91.772,32.654,26.442,26.442,0,0,0,65.331,59.1" transform="translate(-12.501 -6.248)" fill="#f8fcff"/>
        <path id="Trazado_883554" data-name="Trazado 883554" d="M64.7,58.975A26.952,26.952,0,1,1,91.652,85.927,26.981,26.981,0,0,1,64.7,58.975m1.021,0a25.931,25.931,0,1,0,25.93-25.93,25.96,25.96,0,0,0-25.93,25.93" transform="translate(-12.38 -6.127)" fill="#20759e"/>
        <path id="Trazado_883555" data-name="Trazado 883555" d="M125.484,107.374h25.368a.325.325,0,0,0,0-.65H125.484a1.5,1.5,0,0,1-.879-.364L112.728,94.483a.325.325,0,0,0-.46.459l11.878,11.877a2.147,2.147,0,0,0,1.338.555" transform="translate(-21.463 -18.06)" fill="#224a5f"/>
        <path id="Trazado_883556" data-name="Trazado 883556" d="M159.624,111.015a1.27,1.27,0,1,0-1.27-1.27,1.27,1.27,0,0,0,1.27,1.27" transform="translate(-30.3 -20.756)" fill="#224a5f"/>
        <path id="Trazado_883557" data-name="Trazado 883557" d="M111.431,95.445a1.271,1.271,0,1,1,1.8,0,1.272,1.272,0,0,1-1.8,0" transform="translate(-21.25 -17.847)" fill="#224a5f"/>
        <path id="Trazado_883558" data-name="Trazado 883558" d="M99.545,58.254q1.228,2.039,2.453,4.077l.353.585a.178.178,0,0,1-.307.179q-1.225-2.039-2.452-4.077l-.353-.585a.178.178,0,0,1,.306-.18" transform="translate(-18.983 -11.13)" fill="#224a5f"/>
        <path id="Trazado_883559" data-name="Trazado 883559" d="M113.961,60.236l-1.9,3.086-.269.437c-.119.194-.426.016-.306-.18q.947-1.543,1.9-3.085c.09-.146.179-.292.269-.437.12-.195.429-.017.308.179" transform="translate(-21.326 -11.475)" fill="#224a5f"/>
        <path id="Trazado_883560" data-name="Trazado 883560" d="M107.186,59V62.6a.178.178,0,0,1-.355,0V59a.178.178,0,0,1,.355,0" transform="translate(-20.441 -11.255)" fill="#224a5f"/>
        <path id="Trazado_883561" data-name="Trazado 883561" d="M92.979,66.18l4.562,1.325.664.194a.177.177,0,0,1-.094.341l-4.562-1.325-.662-.194a.177.177,0,0,1,.093-.342" transform="translate(-17.749 -12.662)" fill="#224a5f"/>
        <path id="Trazado_883562" data-name="Trazado 883562" d="M120.386,67.969l-4.562,1.325-.662.192a.178.178,0,0,1-.1-.342l4.561-1.327.665-.192a.178.178,0,0,1,.095.343" transform="translate(-21.993 -12.938)" fill="#224a5f"/>
        <path id="Trazado_883563" data-name="Trazado 883563" d="M115.2,73.911l2.877,1.3.412.187c.208.094.027.4-.18.306q-1.441-.649-2.878-1.3l-.412-.186c-.208-.094-.027-.4.18-.306" transform="translate(-21.991 -14.139)" fill="#224a5f"/>
        <path id="Trazado_883564" data-name="Trazado 883564" d="M112.561,78.49,114.47,81l.276.362c.138.182-.17.359-.306.18q-.957-1.255-1.911-2.51l-.274-.362c-.14-.182.17-.359.306-.179" transform="translate(-21.472 -15.004)" fill="#224a5f"/>
        <path id="Trazado_883565" data-name="Trazado 883565" d="M97.528,74.182l-3.012.921c-.148.045-.293.091-.439.134-.22.067-.314-.276-.095-.343L97,73.973l.438-.134a.178.178,0,0,1,.095.343" transform="translate(-17.959 -14.127)" fill="#224a5f"/>
        <path id="Trazado_883566" data-name="Trazado 883566" d="M100.006,79.287q-1.567,1.459-3.138,2.917l-.442.411c-.167.156-.418-.1-.252-.251l3.141-2.918q.218-.2.442-.41c.167-.155.418.1.25.252" transform="translate(-18.392 -15.113)" fill="#224a5f"/>
        <path id="Trazado_883567" data-name="Trazado 883567" d="M106.243,79.912q-.22,1.566-.433,3.132-.03.222-.061.444c-.031.225-.374.129-.343-.095q.217-1.565.432-3.13c.021-.149.042-.3.061-.446.031-.225.374-.129.344.095" transform="translate(-20.168 -15.248)" fill="#224a5f"/>
        <path id="Trazado_883568" data-name="Trazado 883568" d="M97.535,70.678a7.626,7.626,0,1,0,7.626-7.626,7.626,7.626,0,0,0-7.626,7.626" transform="translate(-18.663 -12.064)" fill="#1c6f73"/>
        <path id="Trazado_883569" data-name="Trazado 883569" d="M105.182,57.026a1.511,1.511,0,1,0,1.511-1.511,1.511,1.511,0,0,0-1.511,1.511" transform="translate(-20.126 -10.622)" fill="#398fb9"/>
        <path id="Trazado_883570" data-name="Trazado 883570" d="M112.751,57.881a2.163,2.163,0,1,0,2.163-2.162,2.164,2.164,0,0,0-2.163,2.162" transform="translate(-21.574 -10.661)" fill="#224a5f"/>
        <path id="Trazado_883571" data-name="Trazado 883571" d="M118.994,76.317a1.06,1.06,0,1,0,1.06-1.06,1.06,1.06,0,0,0-1.06,1.06" transform="translate(-22.769 -14.4)" fill="#398fb9"/>
        <path id="Trazado_883572" data-name="Trazado 883572" d="M89.01,75.626a2.163,2.163,0,1,0,2.162-2.162,2.162,2.162,0,0,0-2.162,2.162" transform="translate(-17.031 -14.057)" fill="#224a5f"/>
        <path id="Trazado_883573" data-name="Trazado 883573" d="M89.485,65.612A1.512,1.512,0,1,0,91,64.1a1.512,1.512,0,0,0-1.512,1.511" transform="translate(-17.122 -12.265)" fill="#398fb9"/>
        <path id="Trazado_883574" data-name="Trazado 883574" d="M97.582,57.2a1.06,1.06,0,1,0,1.06-1.059,1.06,1.06,0,0,0-1.06,1.059" transform="translate(-18.672 -10.743)" fill="#398fb9"/>
        <path id="Trazado_883575" data-name="Trazado 883575" d="M115.489,81.73a1.511,1.511,0,1,0,1.589,1.429,1.509,1.509,0,0,0-1.589-1.429" transform="translate(-21.824 -15.638)" fill="#398fb9"/>
        <path id="Trazado_883576" data-name="Trazado 883576" d="M94.267,83.833a1.059,1.059,0,1,0,1.059-1.059,1.058,1.058,0,0,0-1.059,1.059" transform="translate(-18.037 -15.838)" fill="#398fb9"/>
        <path id="Trazado_883577" data-name="Trazado 883577" d="M102.715,86.419a2.162,2.162,0,1,0,2.16-2.162,2.16,2.16,0,0,0-2.16,2.162" transform="translate(-19.654 -16.122)" fill="#224a5f"/>
        <path id="Trazado_883578" data-name="Trazado 883578" d="M121.266,67.1a1.51,1.51,0,1,0,1.51-1.511,1.511,1.511,0,0,0-1.51,1.511" transform="translate(-23.203 -12.55)" fill="#398fb9"/>
        <path id="Trazado_883579" data-name="Trazado 883579" d="M73.376,56.046q.748,1.241,1.494,2.483l.214.357a.108.108,0,0,1-.186.109q-.748-1.242-1.493-2.483c-.073-.119-.143-.237-.215-.357a.108.108,0,0,1,.186-.109" transform="translate(-14.001 -10.714)" fill="#224a5f"/>
        <path id="Trazado_883580" data-name="Trazado 883580" d="M78.031,56.5v2.2a.108.108,0,0,1-.217,0V56.5a.108.108,0,0,1,.217,0" transform="translate(-14.889 -10.79)" fill="#224a5f"/>
        <path id="Trazado_883581" data-name="Trazado 883581" d="M70.323,61.77q1.39.4,2.779.808l.4.118a.108.108,0,0,1-.058.207L70.67,62.1l-.4-.118a.108.108,0,0,1,.057-.208" transform="translate(-13.43 -11.818)" fill="#224a5f"/>
        <path id="Trazado_883582" data-name="Trazado 883582" d="M85.1,62.406l-2.777.808-.4.117a.108.108,0,0,1-.057-.209l2.779-.808c.133-.04.268-.078.4-.118a.108.108,0,0,1,.056.209" transform="translate(-15.649 -11.9)" fill="#224a5f"/>
        <path id="Trazado_883583" data-name="Trazado 883583" d="M81.3,68.371q.579.763,1.163,1.528c.056.074.111.147.168.22.084.111-.1.22-.188.11L81.283,68.7c-.055-.073-.11-.146-.167-.221-.083-.111.1-.218.188-.108" transform="translate(-15.517 -13.073)" fill="#224a5f"/>
        <path id="Trazado_883584" data-name="Trazado 883584" d="M74.621,67.647l-1.912,1.777-.27.25c-.1.1-.256-.058-.153-.153L74.2,67.744q.133-.125.27-.25c.1-.1.254.057.152.153" transform="translate(-13.825 -12.909)" fill="#224a5f"/>
        <path id="Trazado_883585" data-name="Trazado 883585" d="M77.456,69.238q-.133.953-.264,1.907c-.012.091-.024.181-.037.271-.019.137-.228.079-.209-.057q.132-.953.264-1.907c.013-.091.024-.18.037-.271.019-.137.227-.078.209.057" transform="translate(-14.723 -13.222)" fill="#224a5f"/>
        <path id="Trazado_883586" data-name="Trazado 883586" d="M72.151,63.613A4.645,4.645,0,1,0,76.8,58.968a4.644,4.644,0,0,0-4.646,4.645" transform="translate(-13.806 -11.283)" fill="#20759e"/>
        <path id="Trazado_883587" data-name="Trazado 883587" d="M76.809,55.3a.92.92,0,1,0,.921-.92.92.92,0,0,0-.921.92" transform="translate(-14.697 -10.405)" fill="#398fb9"/>
        <path id="Trazado_883588" data-name="Trazado 883588" d="M68.2,61.423a.92.92,0,1,0,.92-.919.92.92,0,0,0-.92.919" transform="translate(-13.049 -11.577)" fill="#398fb9"/>
        <path id="Trazado_883589" data-name="Trazado 883589" d="M72.181,55.405a.645.645,0,1,0,.645-.644.645.645,0,0,0-.645.644" transform="translate(-13.811 -10.478)" fill="#224a5f"/>
        <path id="Trazado_883590" data-name="Trazado 883590" d="M83.087,70.344a.92.92,0,1,0,.967.871.921.921,0,0,0-.967-.871" transform="translate(-15.731 -13.459)" fill="#398fb9"/>
        <path id="Trazado_883591" data-name="Trazado 883591" d="M71.123,70.415a.645.645,0,1,0,.645-.644.646.646,0,0,0-.645.644" transform="translate(-13.609 -13.35)" fill="#398fb9"/>
        <path id="Trazado_883592" data-name="Trazado 883592" d="M75.307,73.2a1.316,1.316,0,1,0,1.316-1.316A1.315,1.315,0,0,0,75.307,73.2" transform="translate(-14.409 -13.754)" fill="#224a5f"/>
        <path id="Trazado_883593" data-name="Trazado 883593" d="M85.638,61.877a.92.92,0,1,0,.92-.92.92.92,0,0,0-.92.92" transform="translate(-16.386 -11.664)" fill="#398fb9"/>
        <path id="Trazado_883594" data-name="Trazado 883594" d="M91.114,39.318l1.091,1.7c.051.081.1.16.154.241.068.107-.1.218-.165.111-.363-.567-.728-1.135-1.088-1.7-.054-.08-.1-.161-.156-.242-.069-.107.1-.219.164-.11" transform="translate(-17.399 -7.515)" fill="#224a5f"/>
        <path id="Trazado_883595" data-name="Trazado 883595" d="M88.724,42.681l1.589.767.225.108a.1.1,0,0,1-.085.178q-.8-.382-1.589-.767l-.226-.108a.1.1,0,0,1,.087-.179" transform="translate(-16.95 -8.165)" fill="#224a5f"/>
        <path id="Trazado_883596" data-name="Trazado 883596" d="M88.892,51.031q.888-.986,1.772-1.972c.086-.1.171-.192.26-.286s.234.035.148.129q-.886.989-1.773,1.972l-.257.286c-.085.1-.235-.034-.15-.13" transform="translate(-17.004 -9.326)" fill="#224a5f"/>
        <path id="Trazado_883597" data-name="Trazado 883597" d="M98.166,41.96l1.35-1.131.193-.163c.1-.082.207.084.111.164l-1.351,1.133-.193.161c-.1.082-.208-.083-.11-.164" transform="translate(-18.776 -7.777)" fill="#224a5f"/>
        <path id="Trazado_883598" data-name="Trazado 883598" d="M99.827,44.607l1.725-.351.25-.051c.125-.026.139.171.015.2l-1.725.352-.248.051c-.126.026-.14-.172-.017-.2" transform="translate(-19.085 -8.458)" fill="#224a5f"/>
        <path id="Trazado_883599" data-name="Trazado 883599" d="M94.143,50.809q-.135.868-.267,1.737c-.013.085-.027.168-.039.253a.1.1,0,0,1-.2-.035q.133-.87.266-1.738c.015-.086.027-.169.04-.254.019-.126.214-.091.195.036" transform="translate(-17.917 -9.7)" fill="#224a5f"/>
        <path id="Trazado_883600" data-name="Trazado 883600" d="M99.038,48.169l1.469.977.209.137c.106.071-.026.22-.13.15l-1.469-.976-.209-.138c-.107-.07.024-.218.13-.15" transform="translate(-18.918 -9.213)" fill="#224a5f"/>
        <path id="Trazado_883601" data-name="Trazado 883601" d="M92.587,48.922A4.257,4.257,0,1,0,90.6,43.24a4.257,4.257,0,0,0,1.984,5.682" transform="translate(-17.255 -7.813)" fill="#224a5f"/>
        <path id="Trazado_883602" data-name="Trazado 883602" d="M87.309,42.954a.843.843,0,1,0-.394-1.126.842.842,0,0,0,.394,1.126" transform="translate(-16.614 -7.912)" fill="#398fb9"/>
        <path id="Trazado_883603" data-name="Trazado 883603" d="M89.6,39.229a1.207,1.207,0,1,0-.562-1.611,1.207,1.207,0,0,0,.562,1.611" transform="translate(-17.014 -7.067)" fill="#224a5f"/>
        <path id="Trazado_883604" data-name="Trazado 883604" d="M100.334,40.773a.592.592,0,1,0-.276-.789.593.593,0,0,0,.276.789" transform="translate(-19.134 -7.586)" fill="#398fb9"/>
        <path id="Trazado_883605" data-name="Trazado 883605" d="M92.767,55.465a1.207,1.207,0,1,0-.562-1.611,1.206,1.206,0,0,0,.562,1.611" transform="translate(-17.62 -10.174)" fill="#398fb9"/>
        <path id="Trazado_883606" data-name="Trazado 883606" d="M87.818,52.925a.844.844,0,1,0-.393-1.126.843.843,0,0,0,.393,1.126" transform="translate(-16.712 -9.82)" fill="#398fb9"/>
        <path id="Trazado_883607" data-name="Trazado 883607" d="M102.226,43.76a.843.843,0,1,0,1.1-.453.839.839,0,0,0-1.1.453" transform="translate(-19.547 -8.274)" fill="#398fb9"/>
        <path id="Trazado_883608" data-name="Trazado 883608" d="M101.514,51.193a1.206,1.206,0,1,0-.563-1.612,1.208,1.208,0,0,0,.563,1.612" transform="translate(-19.293 -9.356)" fill="#224a5f"/>
        <path id="Trazado_883609" data-name="Trazado 883609" d="M81.826,195.829h.729a2.807,2.807,0,0,0,2.807-2.807V159.528H79.018v33.495a2.808,2.808,0,0,0,2.808,2.807" transform="translate(-15.119 -30.524)" fill="#b8e2fd"/>
        <path id="Trazado_883610" data-name="Trazado 883610" d="M78.671,158.965h6.836a.508.508,0,0,0,.508-.508V157.1a.507.507,0,0,0-.508-.507H78.671a.507.507,0,0,0-.508.507v1.363a.508.508,0,0,0,.508.508" transform="translate(-14.956 -29.962)" fill="#b8e2fd"/>
        <path id="Trazado_883611" data-name="Trazado 883611" d="M79.173,159.635h6.046a.124.124,0,0,0,.123-.124v-.032a.124.124,0,0,0-.123-.123H79.173a.124.124,0,0,0-.125.123v.032a.124.124,0,0,0,.125.124" transform="translate(-15.125 -30.491)" fill="#398fb9"/>
        <path id="Trazado_883612" data-name="Trazado 883612" d="M84.413,177.458v18.72a1.929,1.929,0,0,1-3.859,0v-18.72Z" transform="translate(-15.413 -33.955)" fill="#e3405b"/>
        <path id="Trazado_883613" data-name="Trazado 883613" d="M82.032,187.146a1.138,1.138,0,1,0,1.139-1.138,1.139,1.139,0,0,0-1.139,1.138" transform="translate(-15.696 -35.591)" fill="#cc1b38"/>
        <path id="Trazado_883614" data-name="Trazado 883614" d="M81.161,190.718a.7.7,0,1,0,.7-.7.7.7,0,0,0-.7.7" transform="translate(-15.529 -36.358)" fill="#cc1b38"/>
        <path id="Trazado_883615" data-name="Trazado 883615" d="M233.525,269.227v-2.2a1.578,1.578,0,0,1,.459-1.038,3.533,3.533,0,0,0,.358-4.251,10.775,10.775,0,0,1-1.427-5.848v-.939a1.654,1.654,0,0,0-3.294,0v.941a10.782,10.782,0,0,1-1.426,5.846,3.528,3.528,0,0,0,.357,4.251,1.575,1.575,0,0,1,.46,1.038v2.2l-.657.67a4.183,4.183,0,0,0-1.218,2.9l-.124,19.8a1.97,1.97,0,0,0,2.055,1.885h4.41a1.97,1.97,0,0,0,2.055-1.873V272.9a4.194,4.194,0,0,0-1.343-3.041Z" transform="translate(-43.437 -48.496)" fill="#398fb9"/>
        <path id="Trazado_883616" data-name="Trazado 883616" d="M230.55,262.151a7.166,7.166,0,0,0-1.017,2.627,4.049,4.049,0,0,0,.735,2.411c.108.178.389.015.278-.162a3.724,3.724,0,0,1-.688-2.25,6.777,6.777,0,0,1,.97-2.465c.1-.183-.18-.347-.278-.163" transform="translate(-43.918 -50.145)" fill="#b8e2fd"/>
        <path id="Trazado_883617" data-name="Trazado 883617" d="M230.12,278.314c.015,3.382-.015,6.763,0,10.143a.161.161,0,0,0,.322,0c-.013-3.38.017-6.761,0-10.143a.161.161,0,0,0-.322,0" transform="translate(-44.031 -53.223)" fill="#b8e2fd"/>
        <path id="Trazado_883618" data-name="Trazado 883618" d="M230.128,293.593v1.835a.16.16,0,0,0,.32,0v-1.835a.16.16,0,0,0-.32,0" transform="translate(-44.033 -56.147)" fill="#b8e2fd"/>
        <path id="Trazado_883619" data-name="Trazado 883619" d="M301.994,158.774a1.766,1.766,0,1,0,1.767-1.767,1.768,1.768,0,0,0-1.767,1.767" transform="translate(-57.784 -30.042)" fill="#cc1b38"/>
        <path id="Trazado_883620" data-name="Trazado 883620" d="M297.427,157.9a5.46,5.46,0,1,1,5.46,5.459,5.467,5.467,0,0,1-5.46-5.459m.795,0a4.665,4.665,0,1,0,4.665-4.664,4.673,4.673,0,0,0-4.665,4.664" transform="translate(-56.91 -29.168)" fill="#cc1b38"/>
        <path id="Trazado_883621" data-name="Trazado 883621" d="M293.354,157.122a8.754,8.754,0,1,1,8.754,8.756,8.762,8.762,0,0,1-8.754-8.756m.792,0a7.96,7.96,0,1,0,7.962-7.963,7.968,7.968,0,0,0-7.962,7.963" transform="translate(-56.131 -28.389)" fill="#cc1b38"/>
        <path id="Trazado_883622" data-name="Trazado 883622" d="M289.273,156.34a12.052,12.052,0,1,1,12.053,12.053,12.067,12.067,0,0,1-12.053-12.053m.794,0a11.259,11.259,0,1,0,11.259-11.258,11.27,11.27,0,0,0-11.259,11.258" transform="translate(-55.35 -27.609)" fill="#cc1b38"/>
        <rect id="Rectángulo_402245" data-name="Rectángulo 402245" width="4.09" height="10.301" transform="translate(256.376 146.324) rotate(-35.66)" fill="#398fb9"/>
        <path id="Trazado_883623" data-name="Trazado 883623" d="M322.3,180.7a10.325,10.325,0,0,1-3.328,2.382l-.852-1.191,3.324-2.384Z" transform="translate(-60.87 -34.347)" fill="#20759e"/>
        <path id="Trazado_883624" data-name="Trazado 883624" d="M312.051,172.317a23.006,23.006,0,1,1,5.288-32.1,23.027,23.027,0,0,1-5.288,32.1m-25.423-35.453A20.62,20.62,0,1,0,315.4,141.6a20.65,20.65,0,0,0-28.772-4.741" transform="translate(-52.743 -24.994)" fill="#398fb9"/>
        <path id="Trazado_883625" data-name="Trazado 883625" d="M311.687,171.689a21.691,21.691,0,1,1,4.987-30.268,21.714,21.714,0,0,1-4.987,30.268m-24-33.463a19.49,19.49,0,1,0,27.2,4.479,19.5,19.5,0,0,0-27.2-4.479" transform="translate(-53.071 -25.33)" fill="#20759e"/>
        <path id="Trazado_883626" data-name="Trazado 883626" d="M351.029,222.936l-1.31.935a2.191,2.191,0,0,1-3.062-.5l-23.042-32.123a2.2,2.2,0,0,1,.508-3.067l1.306-.939a2.2,2.2,0,0,1,3.07.5l23.035,32.125a2.2,2.2,0,0,1-.506,3.07" transform="translate(-61.843 -35.747)" fill="#14232f"/>
        <g id="Grupo_1102206" data-name="Grupo 1102206" transform="translate(226.492 109.25)" opacity="0.5">
          <g id="Grupo_1102205" data-name="Grupo 1102205">
            <g id="Grupo_1102204" data-name="Grupo 1102204" clip-path="url(#clip-path-3)">
              <path id="Trazado_883627" data-name="Trazado 883627" d="M288.209,138.746a19.49,19.49,0,1,0,27.2,4.479,19.5,19.5,0,0,0-27.2-4.479" transform="translate(-280.084 -135.1)" fill="#b8e2fd"/>
            </g>
          </g>
        </g>
        <g id="Grupo_1102209" data-name="Grupo 1102209" transform="translate(228.012 110.631)" opacity="0.7">
          <g id="Grupo_1102208" data-name="Grupo 1102208">
            <g id="Grupo_1102207" data-name="Grupo 1102207" clip-path="url(#clip-path-4)">
              <path id="Trazado_883628" data-name="Trazado 883628" d="M288.246,143.75a18.857,18.857,0,0,1,15.78-6.5,18.082,18.082,0,0,0-15.77,31.355c.207.176.427.325.637.492a18.916,18.916,0,0,1-.648-25.343" transform="translate(-281.963 -136.808)" fill="#fff"/>
            </g>
          </g>
        </g>
        <path id="Trazado_883629" data-name="Trazado 883629" d="M363.147,305.326l-2.773.086-.921-6.77,3.7-.057Z" transform="translate(-68.778 -57.132)" fill="#fda78c"/>
        <path id="Trazado_883630" data-name="Trazado 883630" d="M355.718,309.167c-.057,1.048,1.727,1.005,2.613,1.035,1.113.041,2.931.018,3.775-.546.826-.561.407-2.762.323-3.407a7.193,7.193,0,0,1-2.842.092,13.661,13.661,0,0,1-1.312.675,12.263,12.263,0,0,0-1.617.928c-.409.294-.908.684-.94,1.223" transform="translate(-68.063 -58.598)" fill="#14232f"/>
        <path id="Trazado_883631" data-name="Trazado 883631" d="M383.761,303.762l-2.711.58-2.115-6.5,3.633-.716Z" transform="translate(-72.506 -56.853)" fill="#fda78c"/>
        <path id="Trazado_883632" data-name="Trazado 883632" d="M377.26,308.742c.133,1.042,1.881.677,2.757.552,1.1-.158,2.893-.506,3.612-1.215s-.087-2.789-.287-3.408a7.1,7.1,0,0,1-2.78.6,14.3,14.3,0,0,1-1.17.9,11.93,11.93,0,0,0-1.422,1.2,1.857,1.857,0,0,0-.709,1.374" transform="translate(-72.184 -58.296)" fill="#14232f"/>
        <path id="Trazado_883633" data-name="Trazado 883633" d="M359.349,183.769c-.053.927-.2,4.566.519,6.433a2.341,2.341,0,0,0,2.5,1.6,9.617,9.617,0,0,1,.037,1.377,13.857,13.857,0,0,0,4.578-.07,13.457,13.457,0,0,1-.195-4.1c-2.145-4.131-7.443-5.238-7.443-5.238" transform="translate(-68.749 -35.163)" fill="#fda78c"/>
        <path id="Trazado_883634" data-name="Trazado 883634" d="M370.006,177.666a1.11,1.11,0,0,1,.408.049.121.121,0,0,0,.118-.2,4.869,4.869,0,0,0-3.348-1.58.114.114,0,0,0,0-.2,4.409,4.409,0,0,0-3.734-.266.1.1,0,0,0-.073-.075,3.486,3.486,0,0,0-2.67.155,3.318,3.318,0,0,0-1.131.871c-.387.463-.564,1.038-1.058,1.411a2.151,2.151,0,0,0-.947,2.238,2.736,2.736,0,0,0,1.416,2,4.554,4.554,0,0,1,.222,1.12,5.957,5.957,0,0,0,.064,1.359.871.871,0,0,0,.64.653.655.655,0,0,0,.357-.053,2.421,2.421,0,0,0,.771,1.021c.593.454,1.253.811,1.832,1.295a11.81,11.81,0,0,1,1.55,1.768,2.931,2.931,0,0,0,1.625,1.16.124.124,0,0,0,.152-.15,2.7,2.7,0,0,1-.062-.327c.057.05.114.1.171.153a.123.123,0,0,0,.208-.087c.033-1.078.925-1.726,1.657-2.383a4,4,0,0,0,1.241-1.87,10.912,10.912,0,0,0,.37-3.473c.06.083.115.169.17.258a.122.122,0,0,0,.221-.029c.1-.288.2-.577.294-.867.078-.239.161-.478.218-.727a.123.123,0,0,0,.23-.013,2.951,2.951,0,0,0-.915-3.2" transform="translate(-68.412 -33.52)" fill="#14232f"/>
        <path id="Trazado_883635" data-name="Trazado 883635" d="M361.9,187.969c-.165.644-.646,1.077-1.071.968s-.639-.723-.473-1.365.618-.961,1.045-.851.666.6.5,1.248" transform="translate(-68.941 -35.723)" fill="#fda78c"/>
        <path id="Trazado_883636" data-name="Trazado 883636" d="M381.6,225.362c1.17-1.806,0-7.6-.335-8.712h-3.548v11.467a9.278,9.278,0,0,0,3.882-2.755" transform="translate(-72.273 -41.454)" fill="#fda78c"/>
        <path id="Trazado_883637" data-name="Trazado 883637" d="M378.585,291.07c-.246-3.091-2.2-16.557-3.047-19.639-1.661-6.04-1.295-20.71-1.661-25.382l-23.2-.692c-.79,5.364-.242,13.365.353,19.365.666,6.709,2.7,18.914,6.5,27.945l4.408-.111c.35-8.617.294-17.229,1.179-25.812,0-.011,1.056,3.518,2.5,7.084,1.9,4.708,7.7,16.21,8.688,18.208Z" transform="translate(-67.023 -46.947)" fill="#398fb9"/>
        <path id="Trazado_883638" data-name="Trazado 883638" d="M349.552,213.224c-.1,6.243-1.229,25.749-1.24,25.892a37.035,37.035,0,0,1,11.092,0c8.491,1.431,14.036,0,14.036,0,.222-6.918.118-16.866-.417-23.767.611-.3,2.841-1.291,2.841-1.291-.917-6.258-1.45-10.167-3.929-13.493-1.775-2.373-5.61-3.954-6.953-4.592,0,0-.417-.719-.649-1.154l-5.246-.053a6.6,6.6,0,0,0-.488,1.221c-3.542,1.038-7.036,2.434-9.017,5.313-2.941,4.272-5.007,7.544-5.007,7.544a38.937,38.937,0,0,0,4.978,4.38" transform="translate(-65.931 -37.267)" fill="#ffdec9"/>
        <path id="Trazado_883639" data-name="Trazado 883639" d="M366.1,268.883q.693-6.111,1.092-12.254c.01-.125-.18-.122-.189,0q-.4,6.139-1.094,12.254c-.015.123.18.123.192,0" transform="translate(-70.013 -49.086)" fill="#20759e"/>
        <path id="Trazado_883640" data-name="Trazado 883640" d="M379.472,217.088a58.412,58.412,0,0,0-1.676-12.961.1.1,0,0,0-.184.052,57.628,57.628,0,0,1,1.667,12.909c.006.124.2.124.193,0" transform="translate(-72.252 -39.045)" fill="#e6b08e"/>
        <path id="Trazado_883641" data-name="Trazado 883641" d="M355.892,236.2a70.8,70.8,0,0,0,5.346-12.567c.039-.116-.149-.165-.183-.05a71.272,71.272,0,0,1-5.325,12.521c-.06.107.106.2.162.1" transform="translate(-68.064 -42.769)" fill="#e6b08e"/>
        <path id="Trazado_883642" data-name="Trazado 883642" d="M359.554,232.839a27.614,27.614,0,0,1-3.457,9.886.1.1,0,0,0,.163.1,27.874,27.874,0,0,0,3.48-9.934c.015-.12-.167-.172-.186-.051" transform="translate(-68.134 -44.539)" fill="#e6b08e"/>
        <path id="Trazado_883643" data-name="Trazado 883643" d="M342.918,211.411a32.919,32.919,0,0,0-2.056,2.778c-.662-.494-2.589-2.593-5.021-4.9.066-.491.14-.971.207-1.459.049-.331.094-.653.14-.982a2.671,2.671,0,0,0,.082-.767.31.31,0,0,0-.255-.286c-.153-.017-.23.111-.3.224-.313.514-.94,1.474-1.2,1.211a36.164,36.164,0,0,1-2.69-3.5,3.812,3.812,0,0,0-.1,3.386,12.427,12.427,0,0,0,1.811,2.8c1.062,2.464,4.09,8.323,5.3,9.59a4.2,4.2,0,0,0,3.629,1.307c2.286-.2,5.83-4.216,6.095-4.588Z" transform="translate(-63.408 -38.982)" fill="#fda78c"/>
        <path id="Trazado_883644" data-name="Trazado 883644" d="M356.932,198.956c1.923,2.392,2.062,5.733,1.365,8.606a28.714,28.714,0,0,1-4.319,8.707c-.066.1-.226,0-.16-.108a30.378,30.378,0,0,0,4.131-8.045c.857-2.959.857-6.519-1.16-9.034-.079-.094.067-.221.143-.125" transform="translate(-67.697 -38.062)" fill="#e6b08e"/>
        <path id="Trazado_883645" data-name="Trazado 883645" d="M352.734,219.268c.408.3.391.322.8.625.058.043.112.086.176.129a.1.1,0,0,1,.032.13.093.093,0,0,1-.131.036c-.408-.3-.392-.325-.8-.624-.056-.043-.118-.088-.175-.129a.1.1,0,0,1-.036-.129.1.1,0,0,1,.131-.038" transform="translate(-67.466 -41.952)" fill="#e6b08e"/>
        <path id="Trazado_883646" data-name="Trazado 883646" d="M212.758,294.06H197.13a2.3,2.3,0,0,1-2.288-2.3V264.715a13.113,13.113,0,0,1,1-5.027l2.4-5.791h13.387l2.407,5.791a13.112,13.112,0,0,1,1,5.027v27.042a2.3,2.3,0,0,1-2.287,2.3" transform="translate(-37.281 -48.581)" fill="#1c6f73"/>
        <path id="Trazado_883647" data-name="Trazado 883647" d="M198.652,251.775h13.687a.922.922,0,0,0,.922-.921v-7.128a.922.922,0,0,0-.922-.922H198.652a.921.921,0,0,0-.921.922v7.128a.921.921,0,0,0,.921.921" transform="translate(-37.834 -46.459)" fill="#14232f"/>
        <rect id="Rectángulo_402248" data-name="Rectángulo 402248" width="9.398" height="16.794" transform="translate(168.364 218.774)" fill="#3a8f92"/>
        <path id="Trazado_883648" data-name="Trazado 883648" d="M168.43,309.359l-.022-.329-26.35,1.763a.157.157,0,0,0-.147.167l0,.016a.156.156,0,0,0,.167.147Z" transform="translate(-27.153 -59.13)" fill="#224a5f"/>
        <path id="Trazado_883649" data-name="Trazado 883649" d="M242.469,307.46l-.667-9.969a.787.787,0,0,0-.837-.733l-54.838,3.666a.788.788,0,0,0-.732.839l.666,9.967a.788.788,0,0,0,.837.734l54.836-3.668a.787.787,0,0,0,.734-.836" transform="translate(-35.474 -56.782)" fill="#b8e2fd"/>
        <rect id="Rectángulo_402249" data-name="Rectángulo 402249" width="3.241" height="3.023" transform="translate(146.921 248.171) rotate(-3.773)" fill="#b8e2fd"/>
        <rect id="Rectángulo_402250" data-name="Rectángulo 402250" width="10.878" height="2.095" transform="translate(206.592 244.65) rotate(-3.851)" fill="#20759e"/>
        <path id="Trazado_883650" data-name="Trazado 883650" d="M270.323,306.983l.243-.016-.726-10.855-.243.018a1.053,1.053,0,0,0-.978,1.118l.587,8.759a1.048,1.048,0,0,0,1.117.977" transform="translate(-51.398 -56.658)" fill="#20759e"/>
        <path id="Trazado_883651" data-name="Trazado 883651" d="M180.566,310.243l-4.409-.1a1.557,1.557,0,0,1-.207-3.1l4.357-.688Z" transform="translate(-33.415 -58.619)" fill="#20759e"/>
        <path id="Trazado_883652" data-name="Trazado 883652" d="M201.188,308.267l-.53-7.944-.564.037.535,7.942a.26.26,0,0,0,.282.251h.027a.268.268,0,0,0,.251-.285" transform="translate(-38.286 -57.464)" fill="#30617a"/>
        <path id="Trazado_883653" data-name="Trazado 883653" d="M206.11,303.811l-.256-3.839-.564.04.256,3.837a.269.269,0,0,0,.286.25l.026,0a.269.269,0,0,0,.252-.287" transform="translate(-39.28 -57.397)" fill="#30617a"/>
        <path id="Trazado_883654" data-name="Trazado 883654" d="M211.578,307.57l-.531-7.943-.564.039.53,7.943a.271.271,0,0,0,.286.251l.028,0a.269.269,0,0,0,.25-.287" transform="translate(-40.274 -57.331)" fill="#30617a"/>
        <path id="Trazado_883655" data-name="Trazado 883655" d="M216.5,303.117l-.256-3.838-.564.037.256,3.839a.268.268,0,0,0,.285.251h.027a.269.269,0,0,0,.25-.289" transform="translate(-41.268 -57.265)" fill="#30617a"/>
        <path id="Trazado_883656" data-name="Trazado 883656" d="M221.967,306.876l-.531-7.943-.564.036.531,7.948a.268.268,0,0,0,.285.248l.03,0a.268.268,0,0,0,.248-.286" transform="translate(-42.262 -57.198)" fill="#30617a"/>
        <path id="Trazado_883657" data-name="Trazado 883657" d="M226.889,302.424l-.258-3.84-.563.039.256,3.838a.268.268,0,0,0,.286.25h.028a.271.271,0,0,0,.25-.287" transform="translate(-43.256 -57.132)" fill="#30617a"/>
        <path id="Trazado_883658" data-name="Trazado 883658" d="M232.358,306.181l-.53-7.945-.562.039.53,7.943a.268.268,0,0,0,.285.25h.028a.27.27,0,0,0,.25-.287" transform="translate(-44.251 -57.065)" fill="#30617a"/>
        <path id="Trazado_883659" data-name="Trazado 883659" d="M237.276,301.728l-.256-3.84-.564.039.259,3.839a.271.271,0,0,0,.286.251l.029,0a.267.267,0,0,0,.246-.286" transform="translate(-45.244 -56.998)" fill="#30617a"/>
        <path id="Trazado_883660" data-name="Trazado 883660" d="M242.585,305.5l-.532-7.943-.564.036.531,7.945a.271.271,0,0,0,.284.251l.031,0a.268.268,0,0,0,.251-.285" transform="translate(-46.207 -56.935)" fill="#30617a"/>
        <path id="Trazado_883661" data-name="Trazado 883661" d="M90.74,251.954l2.546,4.544a15.462,15.462,0,0,0,8.6,28.324,15.293,15.293,0,0,0,8.321-2.468h7.714a20.655,20.655,0,1,1-27.177-30.4" transform="translate(-15.538 -48.209)" fill="#88cefc"/>
        <path id="Trazado_883662" data-name="Trazado 883662" d="M104.081,266.731l6.81-4.9a.407.407,0,0,0,.091-.568l-18.9-26.276a.406.406,0,0,0-.568-.093l-6.81,4.9a.411.411,0,0,0-.092.569l18.9,26.277a.408.408,0,0,0,.569.091" transform="translate(-16.175 -44.931)" fill="#ffdec9"/>
        <rect id="Rectángulo_402251" data-name="Rectángulo 402251" width="5.846" height="7.459" transform="translate(65.203 188.065) rotate(-35.724)" fill="#88cefc"/>
        <path id="Trazado_883663" data-name="Trazado 883663" d="M80.272,231.638,85.327,228a.3.3,0,0,0,.068-.421l-.228-.32a.3.3,0,0,0-.422-.068l-5.057,3.636a.306.306,0,0,0-.069.423l.231.319a.3.3,0,0,0,.421.07" transform="translate(-15.224 -43.46)" fill="#224a5f"/>
        <path id="Trazado_883664" data-name="Trazado 883664" d="M86.212,239.25l4.524-3.256a.122.122,0,0,0,.028-.171l-.04-.057a.122.122,0,0,0-.171-.029L86.027,239a.123.123,0,0,0-.028.171l.043.056a.122.122,0,0,0,.171.028" transform="translate(-16.451 -45.102)" fill="#65bceb"/>
        <rect id="Rectángulo_402252" data-name="Rectángulo 402252" width="6.078" height="1.321" transform="matrix(0.812, -0.584, 0.584, 0.812, 88.844, 221.127)" fill="#224a5f"/>
        <rect id="Rectángulo_402253" data-name="Rectángulo 402253" width="3.516" height="0.931" transform="matrix(0.812, -0.584, 0.584, 0.812, 90.642, 221.431)" fill="#224a5f"/>
        <path id="Trazado_883665" data-name="Trazado 883665" d="M115.967,289.295h9.4a.2.2,0,0,0,.2-.2v-.744a.206.206,0,0,0-.2-.205h-9.4a.205.205,0,0,0-.2.205v.744a.2.2,0,0,0,.2.2" transform="translate(-22.151 -55.133)" fill="#224a5f"/>
        <path id="Trazado_883666" data-name="Trazado 883666" d="M100.585,303.646h8.978v-6.411l-.9-5.581a.83.83,0,0,0-.826-.7l-5.506.042a.83.83,0,0,0-.813.693l-.935,5.544Z" transform="translate(-19.246 -55.672)" fill="#ffdec9"/>
        <path id="Trazado_883667" data-name="Trazado 883667" d="M100.07,307.8h9.811v-.95a.2.2,0,0,0-.2-.2h-9.4a.2.2,0,0,0-.2.2Z" transform="translate(-19.148 -58.675)" fill="#224a5f"/>
        <path id="Trazado_883668" data-name="Trazado 883668" d="M92.27,252.53l2.906,4.072a.121.121,0,0,0,.171.029l.057-.04a.126.126,0,0,0,.03-.171l-2.907-4.072a.12.12,0,0,0-.169-.03l-.057.043a.12.12,0,0,0-.03.17" transform="translate(-17.651 -48.275)" fill="#65bceb"/>
        <path id="Trazado_883669" data-name="Trazado 883669" d="M104.106,294.621a1.642,1.642,0,1,0,1.641-1.641,1.642,1.642,0,0,0-1.641,1.641" transform="translate(-19.92 -56.059)" fill="#224a5f"/>
        <path id="Trazado_883670" data-name="Trazado 883670" d="M110.532,292.376l.876,4.8a.124.124,0,0,0,.143.1l.069-.013a.121.121,0,0,0,.1-.142l-.877-4.8a.121.121,0,0,0-.142-.1l-.069.012a.123.123,0,0,0-.1.143" transform="translate(-21.149 -55.914)" fill="#65bceb"/>
        <path id="Trazado_883671" data-name="Trazado 883671" d="M101.589,292.086l-.878,4.8a.123.123,0,0,1-.142.1l-.069-.012a.125.125,0,0,1-.1-.144l.877-4.8a.121.121,0,0,1,.142-.1l.068.013a.122.122,0,0,1,.1.142" transform="translate(-19.211 -55.858)" fill="#65bceb"/>
        <path id="Trazado_883672" data-name="Trazado 883672" d="M90.536,309.994h30.805a.2.2,0,0,0,.2-.205V308.28a.2.2,0,0,0-.2-.2H90.536a.2.2,0,0,0-.2.2v1.509a.2.2,0,0,0,.2.205" transform="translate(-17.284 -58.948)" fill="#224a5f"/>
      </g>
    </g>
  </g>
</svg>
