<svg xmlns="http://www.w3.org/2000/svg" xmlns:xlink="http://www.w3.org/1999/xlink" width="117" height="117" viewBox="0 0 117 117">
  <defs>
    <clipPath id="clip-path">
      <rect id="Rectángulo_402657" data-name="Rectángulo 402657" width="75.198" height="75.19" fill="none"/>
    </clipPath>
  </defs>
  <g id="Grupo_1103217" data-name="Grupo 1103217" transform="translate(-1230 -2381)">
    <g id="Grupo_1103210" data-name="Grupo 1103210">
      <circle id="Elipse_11647" data-name="Elipse 11647" cx="58.5" cy="58.5" r="58.5" transform="translate(1230 2381)" fill="#fff"/>
      <g id="Grupo_1103160" data-name="Grupo 1103160" transform="translate(1250.901 2401.8)">
        <g id="Grupo_1103159" data-name="Grupo 1103159" clip-path="url(#clip-path)">
          <path id="Trazado_885052" data-name="Trazado 885052" d="M112.952,359.726l-.421,17.788h18.577l.373-6.561a5.943,5.943,0,0,0,3.178,0l.371,6.561h19.333V359.726c-14.986-4.778-28.859-5.061-41.411,0" transform="translate(-95.743 -302.92)" fill="#1ea6bc"/>
          <path id="Trazado_885053" data-name="Trazado 885053" d="M4,4V6.512l10.157,7.521q.683-.571,1.328-1.162A28.415,28.415,0,0,0,21.917,4Z" transform="translate(-3.404 -3.404)" fill="#6fceae"/>
          <path id="Trazado_885054" data-name="Trazado 885054" d="M114.243,4l-.568,24.814a7.508,7.508,0,0,0-.176,7.716L113.105,53.2l-.166,7.007a87.979,87.979,0,0,0,24.234,2.284c10.151-10.557,17.137-21.8,17.177-34.537V11.178c.978-2.614,1.207-5.058,0-7.177Z" transform="translate(-95.731 -3.404)" fill="#4aaf8f"/>
          <path id="Trazado_885055" data-name="Trazado 885055" d="M323.215,323.667q4.814-.591,9.669-1.662V311.7c-7.448.4-12.665,2.69-9.669,11.966" transform="translate(-274.263 -265.199)" fill="#4aaf8f"/>
          <path id="Trazado_885056" data-name="Trazado 885056" d="M26.37,60.26a1.776,1.776,0,0,1,.912,2.679,1.643,1.643,0,0,1-1.825.677q-.638-.184-1.244-.4a1.557,1.557,0,0,1,.558,2.553,1.49,1.49,0,0,1-1.467.352c-.17-.045-.345-.094-.518-.146a2.96,2.96,0,0,1-2.008,1.544,4.283,4.283,0,0,1-1.074.128c-2.393,0-4.962-2.087-6.311-4.6s-.9-4.8-1.8-6.934S4,51.128,4,51.128v-30.3a14.762,14.762,0,0,1,5.86,2.611,16.446,16.446,0,0,1,4.3,4.91h0a48.535,48.535,0,0,1-7.864,5.324,48.962,48.962,0,0,1,12.06,11.159s1.505-1.7,2.994-1.7l-.176,7.716a3.559,3.559,0,0,0,1.122,2.685,15.315,15.315,0,0,0,2.462,1.859,20.192,20.192,0,0,0,3.331,1.62,1.824,1.824,0,0,1,1.065,2.2,1.746,1.746,0,0,1-1.665,1.3,1.649,1.649,0,0,1-.439-.058c-.23-.063-.455-.128-.679-.2" transform="translate(-3.404 -17.723)" fill="#fec4b9"/>
          <path id="Trazado_885057" data-name="Trazado 885057" d="M407.878,4H392.931v7.177c.4,2.585.853,5.043,1.38,7.267L408.8,14.7c-.261-5.887-.921-10.7-.921-10.7" transform="translate(-334.311 -3.404)" fill="#6fceae"/>
          <path id="Trazado_885058" data-name="Trazado 885058" d="M215.66,162.721c-2.867-1.255-6.391-5.79-12.99-4.491s-9.4,10.574-7.967,14.635c1.483,4.183,11.581,6.451,11.729,6.484h0c9.937-.865,17.178-4.186,15.407-15.709a13.491,13.491,0,0,1-6.181-.919" transform="translate(-165.344 -134.427)" fill="#e15c63"/>
          <path id="Trazado_885059" data-name="Trazado 885059" d="M258.848,84.215a35.323,35.323,0,0,1-1.883-5.933,17.263,17.263,0,0,1,6.84-3.425,20.819,20.819,0,0,1,7.647-.321c.228,5.131.155,11.077-.92,15.369-1.974,7.873-11.226,16.135-14.947,19.837a14.965,14.965,0,0,0-1.358,1.471c-1.716,2.347-4.049,7.589-6.8,9.623a8.065,8.065,0,0,1-1.516.873c-2.681,1.195-6.048,1.231-7.228.756a2.308,2.308,0,0,1-.28-.134,4.422,4.422,0,0,1-1.743-2.253c-.427-.031-.835-.073-1.2-.119a1.755,1.755,0,0,1-1.5-1.766,1.818,1.818,0,0,1,.333-1.056,1.721,1.721,0,0,1,.841-.637c-.634-.04-1.243-.091-1.766-.142a1.833,1.833,0,0,1-1.177-.591,1.99,1.99,0,0,1-.521-1.249,1.945,1.945,0,0,1,1.4-1.99,1.792,1.792,0,0,1-1.052-.551,1.93,1.93,0,0,1-.515-1.246,1.859,1.859,0,0,1,1.734-1.962,23.652,23.652,0,0,0,4.723-.579l.094-.028h0A31.229,31.229,0,0,0,244,104.988l-5.029.146h-.055A2.072,2.072,0,0,1,238.78,101c2.8-.194,7.946-.755,10.41-2.324,1.977-1.259,3.2-3.733,4.271-6.227a47.449,47.449,0,0,1,2.123-4.659c.112-.2.225-.382.343-.561a12,12,0,0,1,2.92-3.018" transform="translate(-196.965 -63.241)" fill="#fec4b9"/>
          <path id="Trazado_885060" data-name="Trazado 885060" d="M27.243,62.826h0a48.419,48.419,0,0,1-7.862,5.323,61.749,61.749,0,0,0,6.9-6.8q.506.7.961,1.475" transform="translate(-16.49 -52.198)" fill="#f7b6ad"/>
          <path id="Trazado_885061" data-name="Trazado 885061" d="M70.172,4h4.189A28.415,28.415,0,0,1,67.93,12.87q-.647.591-1.328,1.162-.457-.774-.961-1.475C68.006,9.778,70.087,6.609,70.172,4" transform="translate(-55.848 -3.404)" fill="#53b79a"/>
          <path id="Trazado_885062" data-name="Trazado 885062" d="M406.885,95.3a13.706,13.706,0,0,0-2.821,1.629,35.321,35.321,0,0,1-1.883-5.933,18.383,18.383,0,0,1,2.529-1.723,46.007,46.007,0,0,0,2.175,6.027" transform="translate(-342.181 -75.953)" fill="#f7b6ad"/>
          <path id="Trazado_885063" data-name="Trazado 885063" d="M394.8,4a49.043,49.043,0,0,0,2.039,12.721,18.386,18.386,0,0,0-2.529,1.723c-.527-2.224-.976-4.681-1.38-7.267V4Z" transform="translate(-334.311 -3.404)" fill="#53b79a"/>
          <path id="Trazado_885064" data-name="Trazado 885064" d="M337.79,311.7v3.425c-.012,0-.44.046-4.055,6.879a9.359,9.359,0,0,1-.546.907q-2.54.445-5.068.755a8.067,8.067,0,0,0,1.516-.873c2.747-2.033,5.08-7.276,6.8-9.623a14.957,14.957,0,0,1,1.358-1.471" transform="translate(-279.17 -265.199)" fill="#3fa07f"/>
          <path id="Trazado_885065" data-name="Trazado 885065" d="M293.493,387.606q2.529-.311,5.068-.755c-3.822,5.575-11.01,1.822-11.14,1.753a13.059,13.059,0,0,0,6.072-1" transform="translate(-244.542 -329.138)" fill="#1498b7"/>
          <path id="Trazado_885066" data-name="Trazado 885066" d="M124.528,275.441c.058.057,1.458,1.464.552,2.875,0,0,.483,3.078-2.186,4.192a4.006,4.006,0,0,1-3.193,3.114s-.413,2.013-3.68,1.292l.066-2.766a2.961,2.961,0,0,0,2.008-1.544c.173.052.348.1.518.146a1.49,1.49,0,0,0,1.466-.352,1.557,1.557,0,0,0-.558-2.553q.606.213,1.244.4a1.643,1.643,0,0,0,1.825-.677,1.776,1.776,0,0,0-.912-2.679c.224.07.449.136.679.2a1.649,1.649,0,0,0,.439.058,1.746,1.746,0,0,0,1.665-1.3,1.8,1.8,0,0,0,.067-.4" transform="translate(-98.712 -234.349)" fill="#3fa07f"/>
          <path id="Trazado_885067" data-name="Trazado 885067" d="M31.991,23.118a.6.6,0,0,1,.156-.828,15.437,15.437,0,0,1,8.822-2.23c.344.016.7.047,1.048.092a.6.6,0,1,1-.154,1.184c-.318-.041-.637-.07-.948-.084a14.5,14.5,0,0,0-8.095,2.024.6.6,0,0,1-.829-.157m12.953-1.644a.6.6,0,0,0,.333.775,18.562,18.562,0,0,1,4.474,2.57.6.6,0,1,0,.764-.917,19.418,19.418,0,0,0-4.8-2.761.6.6,0,0,0-.775.333m-18.6,16.034h.019a.6.6,0,0,0,.6-.578,25.743,25.743,0,0,1,3.125-11.158.6.6,0,1,0-1.018-.623,27.086,27.086,0,0,0-3.3,11.743.6.6,0,0,0,.578.616M52.4,26.107l1.847.691a.6.6,0,1,0,.418-1.118l-1.847-.691a.6.6,0,1,0-.418,1.118M38.562,18.255h0a20.739,20.739,0,0,1,9.468,2.093.6.6,0,1,0,.528-1.07,21.951,21.951,0,0,0-10.006-2.216.6.6,0,0,0,0,1.193m1.13,48.865a5.522,5.522,0,0,1-4.732,0,.6.6,0,0,0-.488,1.089c.213.1.428.179.643.253l-.346,6.1a.6.6,0,0,0,.562.63h.034a.6.6,0,0,0,.6-.563l.332-5.866a6.347,6.347,0,0,0,2.065,0l.332,5.866a.6.6,0,0,0,.6.563h.034a.6.6,0,0,0,.562-.63l-.346-6.1c.215-.074.429-.158.643-.253a.6.6,0,0,0-.488-1.089M74.146,26.809c-1.8,7.184-9.555,14.715-13.721,18.762-.439.427-.846.822-1.208,1.179V74.594a.6.6,0,0,1-1.193,0V57.544c-2.991.638-5.991,1.145-8.929,1.507A13.9,13.9,0,0,1,43.813,60.1a6.76,6.76,0,0,1-2.313-.318c-.065-.026-.129-.055-.191-.085q-1.874.077-3.743.078a88.681,88.681,0,0,1-19.778-2.219l-.4,17.057a.6.6,0,0,1-.6.583h-.014a.6.6,0,0,1-.582-.611L16.761,50.5c-.147.013-.3.02-.461.02-2.471,0-5.282-2.02-6.836-4.911a11.943,11.943,0,0,1-1.2-4.249,10.894,10.894,0,0,0-.625-2.738c-.583-1.393-4.774-3.605-7.279-4.673a.6.6,0,0,1,.468-1.1c.709.3,6.951,3.016,7.912,5.31A11.968,11.968,0,0,1,9.448,41.2a10.819,10.819,0,0,0,1.067,3.85c1.334,2.482,3.767,4.283,5.785,4.283a2.932,2.932,0,0,0,2.121-.757,17.338,17.338,0,0,1-2.746-1.16,16.047,16.047,0,0,1-3.162-2.395.6.6,0,0,1,.88-.806,14.89,14.89,0,0,0,2.876,2.166,18.955,18.955,0,0,0,3.785,1.446.9.9,0,0,0,.89-.2.956.956,0,0,0,.251-.895.906.906,0,0,0-.585-.673h0a19.748,19.748,0,0,1-3.253-1.471,15.425,15.425,0,0,1-4.336-3.642.6.6,0,0,1,.926-.753,14.232,14.232,0,0,0,4,3.359,19.493,19.493,0,0,0,4.267,1.769,1.054,1.054,0,0,0,1.165-.438,1.183,1.183,0,0,0,.133-1.065,1.12,1.12,0,0,0-.726-.711v0a19.786,19.786,0,0,1-3.031-1.2,16.207,16.207,0,0,1-4.671-3.48.6.6,0,1,1,.876-.81,15.018,15.018,0,0,0,4.329,3.223A19.035,19.035,0,0,0,23.8,42.159a1.128,1.128,0,0,0,1.372-.825,1.228,1.228,0,0,0-.7-1.484,20.851,20.851,0,0,1-3.43-1.669,16.073,16.073,0,0,1-2.557-1.93,4.152,4.152,0,0,1-1.311-3.136l.16-6.987A5.537,5.537,0,0,0,15.4,27.51a.6.6,0,0,1-.911-.022A47.964,47.964,0,0,0,2.576,16.462a.6.6,0,0,1,.027-1.03A48.69,48.69,0,0,0,9.975,10.5,15.714,15.714,0,0,0,6.1,6.2a14.24,14.24,0,0,0-5.626-2.5A.6.6,0,0,1,.72,2.525,15.428,15.428,0,0,1,6.813,5.24,16.828,16.828,0,0,1,10.9,9.722c.265-.23.527-.462.782-.7A27.589,27.589,0,0,0,17.963.362a.6.6,0,0,1,1.145.249l-.569,24.9-.174,7.632a2.958,2.958,0,0,0,.931,2.235,14.867,14.867,0,0,0,2.367,1.786A19.64,19.64,0,0,0,24.9,38.735a2.43,2.43,0,0,1,1.427,2.922A2.375,2.375,0,0,1,24.6,43.325c.013.032.028.063.04.1a2.365,2.365,0,0,1-.268,2.129,2.256,2.256,0,0,1-1.869,1c-.043,0-.086,0-.129,0a2.14,2.14,0,0,1-.586,1.921,2.023,2.023,0,0,1-1.445.586,2.317,2.317,0,0,1-.6-.08l-.087-.024a3.628,3.628,0,0,1-1.7,1.287l-.144,6.091a87.7,87.7,0,0,0,22.138,2.212,5.737,5.737,0,0,1-.671-1.142c-.308-.027-.6-.059-.857-.092A2.353,2.353,0,0,1,36.4,54.951a2.43,2.43,0,0,1,.319-1.206l-.372-.034a2.526,2.526,0,0,1-2.236-2.4,2.6,2.6,0,0,1,.736-1.947,2.5,2.5,0,0,1-.906-1.847,2.459,2.459,0,0,1,2.3-2.58c.628-.027,1.36-.071,2.088-.142-3.24-1-8.438-3.055-9.536-6.153-.912-2.573-.221-6.815,1.642-10.086a10.287,10.287,0,0,1,6.771-5.334c5.121-1.009,8.53,1.361,11.019,3.091a15.12,15.12,0,0,0,2.327,1.438,12.737,12.737,0,0,0,5.533.9q.155-.365.308-.73A36.034,36.034,0,0,1,58.023,24.4V.6a.6.6,0,1,1,1.193,0V7.728c.371,2.373.755,4.451,1.159,6.272A17.828,17.828,0,0,1,66.7,11.036a21.163,21.163,0,0,1,7.154-.414c-.275-5.471-.866-9.859-.877-9.944A.6.6,0,0,1,74.158.516c.095.693,2.3,17.073-.012,26.293M17.856,3.2a30.023,30.023,0,0,1-5.371,6.709A47.2,47.2,0,0,1,4.05,15.987,49.676,49.676,0,0,1,15,26.224a5.486,5.486,0,0,1,2.363-1.345ZM59.217,22.652a13,13,0,0,1,1.934-1.873,39.753,39.753,0,0,1-1.934-6.494ZM41.065,44.3a21.966,21.966,0,0,0,3.8-1.9l-2.844.083a2.667,2.667,0,0,1-.247-5.321c2.776-.192,7.783-.737,10.13-2.233,1.614-1.028,2.706-2.97,3.657-5.081a13.634,13.634,0,0,1-5.485-1.015,16.1,16.1,0,0,1-2.529-1.552c-2.442-1.7-5.482-3.811-10.107-2.9a9.151,9.151,0,0,0-5.965,4.754C29.8,32.09,29.13,36,29.923,38.239c1.113,3.141,8.273,5.4,11.142,6.065m16.958,3.679c-.114.129-.208.244-.28.342-.529.725-1.142,1.774-1.792,2.884a28.484,28.484,0,0,1-4.465,6.31c2.166-.324,4.354-.725,6.536-1.2ZM73.908,11.827a20.086,20.086,0,0,0-6.926.369,16.482,16.482,0,0,0-6.311,3.076,36.089,36.089,0,0,0,1.475,4.786,13.618,13.618,0,0,1,2.341-1.267.6.6,0,0,1,.436,1.111,13.074,13.074,0,0,0-5.46,4.418A26.6,26.6,0,0,0,57.5,28.38c-1.246,2.962-2.535,6.024-4.951,7.563-2.57,1.637-7.8,2.217-10.689,2.417a1.476,1.476,0,0,0,.092,2.938h.038l5.03-.146a.6.6,0,0,1,.35,1.092,30.492,30.492,0,0,1-6.209,3.281,24.122,24.122,0,0,1-4.861.6,1.3,1.3,0,0,0-.023,2.58,34.42,34.42,0,0,0,4.832.043,20.455,20.455,0,0,0,5.479-1.729.6.6,0,0,1,.518,1.075,21.261,21.261,0,0,1-5.885,1.842c-.569.054-1.22.075-1.889.075-1.088,0-2.224-.055-3.132-.115l-.029,0a1.358,1.358,0,0,0-.863,1.354,1.326,1.326,0,0,0,1.157,1.276,34.778,34.778,0,0,0,4.666.191,19.392,19.392,0,0,0,5.391-1.508.6.6,0,0,1,.487,1.09,20.225,20.225,0,0,1-5.811,1.61c-.3.017-.621.024-.955.024-.632,0-1.308-.027-1.964-.067a1.181,1.181,0,0,0-.681,1.088,1.158,1.158,0,0,0,.979,1.175,15.43,15.43,0,0,0,3.375.1,18.573,18.573,0,0,0,4.818-1.641.6.6,0,0,1,.536,1.066,19.391,19.391,0,0,1-5.219,1.76,10.749,10.749,0,0,1-1.2.062l-.214,0a2.842,2.842,0,0,0,1.279,1.194,10.969,10.969,0,0,0,8.167-1.554c1.772-1.312,3.456-4.194,4.81-6.509.665-1.137,1.293-2.212,1.858-2.986a32.178,32.178,0,0,1,2.813-2.906c4.081-3.964,11.677-11.341,13.4-18.2,1.021-4.071,1.119-9.716.92-14.692M23.92,34.841l.056,0a.6.6,0,0,0,.593-.541,23.782,23.782,0,0,1,1.9-7.2.6.6,0,0,0-1.1-.473,24.969,24.969,0,0,0-1.988,7.567.6.6,0,0,0,.538.65m8.225,10.433a.6.6,0,0,0,.448-1.106A9.3,9.3,0,0,1,28.931,41.6a.6.6,0,1,0-.909.773,10.478,10.478,0,0,0,4.123,2.9" transform="translate(0 0)" fill="#3a322b"/>
        </g>
      </g>
    </g>
  </g>
</svg>
