<svg id="Grupo_1103165" data-name="Grupo 1103165" xmlns="http://www.w3.org/2000/svg" xmlns:xlink="http://www.w3.org/1999/xlink" width="84" height="76.203" viewBox="0 0 84 76.203">
  <defs>
    <clipPath id="clip-path">
      <rect id="Rectángulo_402659" data-name="Rectángulo 402659" width="84" height="76.203" fill="none"/>
    </clipPath>
  </defs>
  <g id="Grupo_1103164" data-name="Grupo 1103164" clip-path="url(#clip-path)">
    <path id="Trazado_885077" data-name="Trazado 885077" d="M195.3,208.938H156.2V188.9a21.087,21.087,0,0,1,8.2-16.675,21.369,21.369,0,0,1,9.845-2.447A21.131,21.131,0,0,1,195.3,190.9ZM174.639,178.6h5.293a1.142,1.142,0,0,1,1.138,1.138v5.52h5.463a1.142,1.142,0,0,1,1.138,1.138v5.293a1.142,1.142,0,0,1-1.138,1.138H181.07v5.52a1.142,1.142,0,0,1-1.138,1.138h-5.293a1.142,1.142,0,0,1-1.138-1.138v-5.52h-5.52a1.142,1.142,0,0,1-1.138-1.138V186.4a1.142,1.142,0,0,1,1.138-1.138h5.52v-5.52a1.142,1.142,0,0,1,1.138-1.138m17.984,6.545a1.232,1.232,0,0,1-.854,1.48,1.321,1.321,0,0,1-1.48-.911,11.946,11.946,0,0,0-1.878-4.268,13.97,13.97,0,0,0-3.187-3.415,1.2,1.2,0,0,1,1.423-1.935,16.048,16.048,0,0,1,3.813,4.041,15.2,15.2,0,0,1,2.163,5.008M181.7,173.6a1.188,1.188,0,0,1-.683,2.276c-.626-.171-1.309-.341-1.992-.455-.626-.057-1.309-.114-1.992-.114a1.224,1.224,0,0,1,0-2.447,16.881,16.881,0,0,1,2.39.171,16.639,16.639,0,0,1,2.276.569" transform="translate(-135.257 -147.019)" fill="#a79f92" fill-rule="evenodd"/>
    <path id="Trazado_885078" data-name="Trazado 885078" d="M64.138,21.569a1.168,1.168,0,0,1-1.65,0,1.141,1.141,0,0,1,0-1.707L70,12.293A1.207,1.207,0,0,1,71.707,14ZM72.163,43.2A1.215,1.215,0,0,1,70.91,42a1.253,1.253,0,0,1,1.252-1.2H82.8A1.2,1.2,0,0,1,84,42a1.167,1.167,0,0,1-1.2,1.2ZM11.894,40.8a1.242,1.242,0,0,1,1.2,1.2,1.2,1.2,0,0,1-1.2,1.2H1.2A1.167,1.167,0,0,1,0,42a1.2,1.2,0,0,1,1.2-1.2Zm9.675-20.943a1.207,1.207,0,1,1-1.707,1.707L12.293,14A1.207,1.207,0,0,1,14,12.293ZM43.2,11.894a1.2,1.2,0,1,1-2.39,0V1.2a1.2,1.2,0,1,1,2.39,0Z" fill="#f0c363"/>
    <path id="Trazado_885079" data-name="Trazado 885079" d="M158.389,494.747H106.828a1.142,1.142,0,0,1-1.138-1.138V488.2a6.99,6.99,0,0,1,.74-3.073,7.654,7.654,0,0,1,2.277-.4H152.7c3.585,0,5.691,1.423,5.691,5.008Z" transform="translate(-91.519 -419.739)" fill="#acdbb9" fill-rule="evenodd"/>
    <path id="Trazado_885080" data-name="Trazado 885080" d="M253.558,271.487H249.8v5.52a1.142,1.142,0,0,1-1.138,1.138h-5.293a1.142,1.142,0,0,1-1.138-1.138v-5.52h-5.52a1.142,1.142,0,0,1-1.138-1.138v-5.293a1.142,1.142,0,0,1,1.138-1.138h5.52v-3.3h3.528a1.106,1.106,0,0,1,1.138,1.138v4.325a1.107,1.107,0,0,0,1.138,1.138h4.382a1.142,1.142,0,0,1,1.138,1.138Z" transform="translate(-203.989 -225.674)" fill="#f9c047" fill-rule="evenodd"/>
    <path id="Trazado_885081" data-name="Trazado 885081" d="M104.516,452.9h42.569a7.738,7.738,0,0,1,5.52,2.276,7.949,7.949,0,0,1,2.277,5.463v5.407a2.239,2.239,0,0,1-.74,1.65,2.105,2.105,0,0,1-1.65.683H99.109a2.189,2.189,0,0,1-1.65-.683,2.1,2.1,0,0,1-.683-1.65v-5.407a7.772,7.772,0,0,1,7.74-7.74m42.569,2.39H104.516a5.443,5.443,0,0,0-5.35,5.35v5.35h53.268v-5.35a5.242,5.242,0,0,0-1.537-3.756,5.425,5.425,0,0,0-3.813-1.594" transform="translate(-83.8 -392.173)" fill="#2a4a47"/>
    <path id="Trazado_885082" data-name="Trazado 885082" d="M169.539,146.438a22.345,22.345,0,0,1,22.309,22.252v21.228H147.287V168.69a22.346,22.346,0,0,1,22.252-22.252m0,2.39a20.015,20.015,0,0,0-19.862,19.862v18.837H189.4V168.69a19.916,19.916,0,0,0-19.862-19.862" transform="translate(-127.539 -126.804)" fill="#2a4a47"/>
    <path id="Trazado_885083" data-name="Trazado 885083" d="M235.653,226.661h5.293a2.535,2.535,0,0,1,1.65.683,2.42,2.42,0,0,1,.683,1.651v4.325h4.268a2.333,2.333,0,0,1,2.39,2.333v5.293a2.535,2.535,0,0,1-.683,1.65H249.2a2.315,2.315,0,0,1-1.65.683h-4.268V247.6a2.332,2.332,0,0,1-2.333,2.333h-5.293a2.432,2.432,0,0,1-2.39-2.333v-4.325h-4.268a2.421,2.421,0,0,1-1.65-.683,2.189,2.189,0,0,1-.683-1.65v-5.293a2.105,2.105,0,0,1,.683-1.65,2.189,2.189,0,0,1,1.65-.683h4.268v-4.325a2.24,2.24,0,0,1,.74-1.651,2.315,2.315,0,0,1,1.65-.683m5.236,2.39H235.71v6.659h-6.659v5.179h6.659v6.6h5.179v-6.6h6.6V235.71h-6.6Z" transform="translate(-196.271 -196.271)" fill="#2a4a47"/>
  </g>
</svg>
