<svg id="Grupo_1103009" data-name="Grupo 1103009" xmlns="http://www.w3.org/2000/svg" xmlns:xlink="http://www.w3.org/1999/xlink" width="267.422" height="115.923" viewBox="0 0 267.422 115.923">
  <defs>
    <clipPath id="clip-path">
      <rect id="Rectángulo_402527" data-name="Rectángulo 402527" width="267.422" height="115.923" fill="none"/>
    </clipPath>
    <clipPath id="clip-path-3">
      <rect id="Rectángulo_402519" data-name="Rectángulo 402519" width="207.688" height="56.748" fill="none"/>
    </clipPath>
    <clipPath id="clip-path-4">
      <rect id="Rectángulo_402520" data-name="Rectángulo 402520" width="26.573" height="26.484" fill="none"/>
    </clipPath>
    <clipPath id="clip-path-5">
      <rect id="Rectángulo_402521" data-name="Rectángulo 402521" width="15.424" height="14.112" fill="none"/>
    </clipPath>
    <clipPath id="clip-path-6">
      <rect id="Rectángulo_402522" data-name="Rectángulo 402522" width="138.698" height="64.597" fill="none"/>
    </clipPath>
    <clipPath id="clip-path-7">
      <rect id="Rectángulo_402523" data-name="Rectángulo 402523" width="198.981" height="77.647" fill="none"/>
    </clipPath>
    <clipPath id="clip-path-8">
      <rect id="Rectángulo_402524" data-name="Rectángulo 402524" width="6.873" height="6.367" fill="none"/>
    </clipPath>
    <clipPath id="clip-path-9">
      <rect id="Rectángulo_402525" data-name="Rectángulo 402525" width="71.42" height="74.59" fill="none"/>
    </clipPath>
  </defs>
  <g id="Grupo_1103008" data-name="Grupo 1103008" clip-path="url(#clip-path)">
    <g id="Grupo_1103007" data-name="Grupo 1103007">
      <g id="Grupo_1103006" data-name="Grupo 1103006" clip-path="url(#clip-path)">
        <path id="Trazado_884654" data-name="Trazado 884654" d="M207.193.6a177.127,177.127,0,0,0-40.829,1.335c-8.818,1.293-9.5-1.987-27.784.251C131.5,3.05,121.3,6.806,113.77,8.089c-5.207.888-7.66-.846-12.959.362C89.346,11.067,74.894,16.533,66.1,21.986c-6.528,4.048-10.271,2.629-16.3,6.287A117.626,117.626,0,0,0,1.014,84.931c-5.982,14.335,14.894,28.145,52.421,30.021s144.007.919,149.636-1.9S211.415,7.634,207.193.6" transform="translate(0 0)" fill="#d6a44f"/>
        <g id="Grupo_1102987" data-name="Grupo 1102987" transform="translate(0.235 59.175)" opacity="0.5" style="mix-blend-mode: multiply;isolation: isolate">
          <g id="Grupo_1102986" data-name="Grupo 1102986">
            <g id="Grupo_1102985" data-name="Grupo 1102985" clip-path="url(#clip-path-3)">
              <path id="Trazado_884655" data-name="Trazado 884655" d="M167.673,108.219c-36.193-22.066-80.521,11.3-140.328-6.94C13.373,97.018,5.694,109.115.3,108.153c2.262,11.526,21.95,21.365,53.2,22.928,37.526,1.876,144.007.918,149.636-1.9,2.786-1.392,4.422-27.256,4.853-53.881-20.254,17.349-38.162,34.229-40.315,32.916" transform="translate(-0.299 -75.303)" fill="#d6a44f"/>
            </g>
          </g>
        </g>
        <g id="Grupo_1102990" data-name="Grupo 1102990" transform="translate(12.378 81.015)" opacity="0.7">
          <g id="Grupo_1102989" data-name="Grupo 1102989">
            <g id="Grupo_1102988" data-name="Grupo 1102988" clip-path="url(#clip-path-4)">
              <path id="Trazado_884656" data-name="Trazado 884656" d="M20.112,126.711c-.05,1.1,1.741,1.061,2.445,1.055a8.885,8.885,0,0,1,1.786-.025c.673.149,1.031.758,1.594,1.107.893.555,1.908.171,2.952.4a4.187,4.187,0,0,0,1.778.3c.824-.162,1.249-.873,1.948-1.242.813-.43,1.736.053,2.59-.211,2.688-.829,1.914-4.489,3.408-6.169.4-.445.926-.5,1.38-.838a7.779,7.779,0,0,0,2.328-4.1,3.051,3.051,0,0,0-1.093-2.34c-1.011-1.128-1.76-1.9-1.783-3.517-.013-.936.151-1.615-.491-2.344a11.067,11.067,0,0,1-1.719-1.825c-.465-.854-.211-1.492-1.317-1.7-.319-.06-.667.071-.971,0-.644-.142-.714-.336-1.262-.791a4.309,4.309,0,0,0-2.794-1.361c-1.128-.041-2.266.024-3.4.024a10.631,10.631,0,0,0-3.795.255,4.347,4.347,0,0,1-1.784.431,4.993,4.993,0,0,0-2.831.809,6.456,6.456,0,0,0-.334.835,2.365,2.365,0,0,1-1.367,1.1c-.63.3-1.3.457-1.537,1.187a11.091,11.091,0,0,0,.035,2.892c.033.709.315,1.271.38,1.97.041.442-.11.921-.047,1.356a5.211,5.211,0,0,0,.526,1.29,11.776,11.776,0,0,1,.284,2.218c.018.083.263.336.3.472a3.226,3.226,0,0,1-.2,1.524A7.493,7.493,0,0,0,16.581,123a3.785,3.785,0,0,0,1.6,2.317c1.2.75,2.066,1.729,1.935,1.394" transform="translate(-15.752 -103.096)" fill="#bcbdaa"/>
            </g>
          </g>
        </g>
        <path id="Trazado_884657" data-name="Trazado 884657" d="M34.681,118a5.485,5.485,0,0,1-.984-1.907,3.088,3.088,0,0,0-.394-.969c-.1-.108-.447-.176-.515-.3-.388-.687.466-1.341-.02-2.135-.35-.573-1.029-.831-1.341-1.463-.228-.461-.159-.9-.574-1.259a4.62,4.62,0,0,0-2.829-.764c-1.9-.02-4.066-1.006-5.454.69a2.208,2.208,0,0,0-.45,2.123,3.844,3.844,0,0,1-.156,2.549c-.3,1.051-1.273,1.633-1.334,2.727-.05.875.366,1.386.357,2.288a4.746,4.746,0,0,1-.35,2.286c-.19.391-.327.443-.207.88.16.582.928.573.206,1.231.552.719.662,1.014,1.579,1.058,1.081.052,1.352-.4,2.258-.856.6-.3,1.326,0,1.869-.414.522-.4.512-1.34.979-1.732.3-.254.635-.173,1.048-.166.945.016,2.008-.312,2.648.407.8.893.83,1.76,2.108,1.015a9.61,9.61,0,0,0,2.3-1.751,3.493,3.493,0,0,0,.659-1.827c-.027-.965-.835-1.118-1.407-1.717" transform="translate(-4.366 -23.324)" fill="#6d7052"/>
        <path id="Trazado_884658" data-name="Trazado 884658" d="M30.419,113.956c-.123-.221-.185-.188-.362-.273a.163.163,0,0,1-.206-.035,1.954,1.954,0,0,0-.094-.3c-.247-.592-.772-.614-1.348-.607a3.244,3.244,0,0,1-.586.009c-.121-.024-.218-.132-.34-.14-.559-.039-.341.676-.49.932a3.789,3.789,0,0,1-.335.255,3.373,3.373,0,0,0-.354.38c-.14.178-.262.3-.169.493s.186.038.162.291c-.031.308-.623.542-.7.823-.136.462.367.515.574.736.146.157.187.407.372.541.21.151.621.221.472.023-.039-.387,1.147-.233,1.407-.234a1.982,1.982,0,0,1,.415,0c.116.028.171.1.282.128.372.094.442-.072.564-.364.314-.754,1.238-1.764.74-2.656" transform="translate(-5.477 -24.119)" fill="#5b5f3b"/>
        <g id="Grupo_1102993" data-name="Grupo 1102993" transform="translate(40.512 98.111)" opacity="0.7">
          <g id="Grupo_1102992" data-name="Grupo 1102992">
            <g id="Grupo_1102991" data-name="Grupo 1102991" clip-path="url(#clip-path-5)">
              <path id="Trazado_884659" data-name="Trazado 884659" d="M66.839,129.66a14.45,14.45,0,0,0-1.9-3.561,2.949,2.949,0,0,0-2.706-1.242c-1.678-.082-3.553.91-5.15.508-1.254-.316-2.216-.671-2.766,1.136-.168.55-.441,2.55.422,2.589l-2.815.468a11.244,11.244,0,0,1-.239,2.86c-.333,1.389.039,1.44.253,2.517.08.4-.09.78.068,1.192.167.437.661.776.87,1.215.565,1.188.254,1.667,1.664,1.619.97-.034,1.792-.443,2.757-.491a7.556,7.556,0,0,0,1.6-.054c1.007-.262,1.783-1.051,2.8-1.289,1.1-.259,2.763.4,3.774-.082.871-.414.481-1.173.518-2.1.074-1.834,1.408-3.2.846-5.289" transform="translate(-51.553 -124.852)" fill="#bcbdaa"/>
            </g>
          </g>
        </g>
        <g id="Grupo_1102996" data-name="Grupo 1102996" transform="translate(42.987 0.541)" opacity="0.5" style="mix-blend-mode: screen;isolation: isolate">
          <g id="Grupo_1102995" data-name="Grupo 1102995">
            <g id="Grupo_1102994" data-name="Grupo 1102994" clip-path="url(#clip-path-6)">
              <path id="Trazado_884660" data-name="Trazado 884660" d="M213.383.688c-4.841.288-10.27.8-16.144,1.66-5.169.758-6.98-.205-11.8-.7C165.574,11.026,146,49.714,148.162,59.693c4.045,18.646,20.933-38.875,65.221-59" transform="translate(-74.685 -0.688)" fill="#d6a44f"/>
              <path id="Trazado_884661" data-name="Trazado 884661" d="M85.321,22.692a81.116,81.116,0,0,0-8.329,4.422,26.762,26.762,0,0,1-8.851,3.414C60.758,42.265,57.877,51.118,55.18,61.415,51.311,76.188,71.844,35.158,85.321,22.692" transform="translate(-54.703 -5.401)" fill="#d6a44f"/>
              <path id="Trazado_884662" data-name="Trazado 884662" d="M147.324,6.557c-4.491,1.237-9.061,2.546-12.925,3.2-4.225.721-7.109-.837-9.725-.05-8.924,9.5-20.9,20.659-23.873,43.5-3.342,25.681,7.418,7.54,10.378.879,2.815-6.333,25.148-39.3,36.145-47.533" transform="translate(-64.44 -1.945)" fill="#d6a44f"/>
            </g>
          </g>
        </g>
        <g id="Grupo_1102999" data-name="Grupo 1102999" transform="translate(8.804)" opacity="0.5">
          <g id="Grupo_1102998" data-name="Grupo 1102998">
            <g id="Grupo_1102997" data-name="Grupo 1102997" clip-path="url(#clip-path-7)">
              <path id="Trazado_884663" data-name="Trazado 884663" d="M209.593.6a177.15,177.15,0,0,0-40.829,1.334c-8.818,1.294-9.5-1.986-27.784.251C133.9,3.05,123.7,6.806,116.169,8.089c-5.207.888-7.661-.846-12.959.362C91.746,11.067,77.294,16.533,68.5,21.986c-6.528,4.048-10.271,2.629-16.3,6.287A117.416,117.416,0,0,0,11.452,68.942c.106,1.172-.068,2.483-.067,3.619,0,.846-.474,3.356.107,4.093,1.207,1.532,4.659.831,6.243.832,2.995,0,9.044.839,10.433-2.8.952-2.492-.246-4.229,2.868-5.093,2.105-.585,4.258-1.613,6.383-1.994a6.567,6.567,0,0,1,2.814.156c.776.3,1.142,1.488,2.112,1.443,1.844-.084,2.86-4.641,3.818-5.816,1.5-1.84,6.105.313,7.383-2.045.618-1.139.06-3.857.057-5.116-.006-2.384-.124-4.01,2.075-5.509,1.2-.817,2.494-.523,2.917-2.042.269-.965-.385-2.141-.064-3.137.981-3.043,5.125-2.484,7.592-2.522.434-.006,1.751-.29,2.15.1.032.032.638,2.085.653,2.166.207,1.084-.5,4.529.263,5.362.554.606,4.639.205,5.4,0a9.954,9.954,0,0,1,1.522-4.025c.831-1.111,1.337-.808,2.82-.792,1.9.021,4.439-.47,6.212.12.081.389.16.778.24,1.167,1.66.491,4.028-.55,5.582.068,1.176.468,1.965,1.851,3.393,2.2a5.89,5.89,0,0,0,6.653-3.051c.441-.846.511-1.767.925-2.607A17.735,17.735,0,0,1,103.6,41.6c1.412-2.1,2.11-5.339,2.607-7.817.653-3.249,3.451-4.227,4.231-7.505.686-2.887.93-4.007,3.562-5.645a11.478,11.478,0,0,0,4.664-4.742c.853-1.809.987-3.764,2.717-4.895,2.075-1.358,5-2.026,7.3-2.619a18.21,18.21,0,0,1,5.838-.566c1.927.12,2.467,1.121,3.87,2.065s2.393.46,3.007,2.332a11.921,11.921,0,0,0,1.04,2.617,12.508,12.508,0,0,1,1.091,2.149,4.153,4.153,0,0,1-1.268,4.769c-.588.456-1.653.5-1.507,1.6.134,1.009,1.337.681,2.093.787-.1,1.418,1.41,1.84,2.281.849-.54,2.032,1.055,1.756,1.423,3.219.449,1.78-1.661,2.5-.08,4.115.978,1,2.2.921,3.527.86,1.714-.079,1.917-1.236,3.5-1.435a38.9,38.9,0,0,1,4.7.014,40.26,40.26,0,0,0,6.961-.637c3.792-.628,7.725-.427,11.538-.865,2.959-.341,5.676-1.712,8.573-2.394a68.906,68.906,0,0,1,7.964-1.672c5.639-.638,11.258-1.418,16.914-1.859-.386-12.539.618-21.771-.556-23.726" transform="translate(-11.204 0)" fill="#d0d1bc"/>
            </g>
          </g>
        </g>
        <path id="Trazado_884664" data-name="Trazado 884664" d="M242.328.908c17.281-1.608,42.021,9.923,53.279,37.129s13.331,49,2.072,59.315-31.111,13.817-59.572,16.606c-27.077,2.654-61.919,4.972-61.919-13.322,0-37.632,5.629-94.1,66.14-99.728" transform="translate(-37.736 -0.163)" fill="#f0c171"/>
        <path id="Trazado_884665" data-name="Trazado 884665" d="M243.785,3.748c16.609-1.545,40.386,9.538,51.206,35.686s12.812,47.089,1.992,57.007-29.9,13.28-57.256,15.961c-26.024,2.55-59.511,4.778-59.511-12.8,0-36.168,5.41-90.439,63.568-95.849" transform="translate(-38.599 -0.772)" fill="#f5d7a4"/>
        <path id="Trazado_884666" data-name="Trazado 884666" d="M195.342,88.6a96.426,96.426,0,0,1,3.171-19.838A3.9,3.9,0,0,0,198.7,66.8a1.306,1.306,0,0,0-1.459-1.036,1.7,1.7,0,0,0-.776.573c-4.277,4.86-5.48,13.977-5.949,20.192-.286,3.8-1.291,10.808,2.515,10.844,3.084.028,2.145-5.691,2.311-8.771" transform="translate(-40.733 -14.079)" fill="#cca25a"/>
        <path id="Trazado_884667" data-name="Trazado 884667" d="M188.56,115.656a1,1,0,0,0-.855-.088c-.083.038-.152.228-.208.3a10.484,10.484,0,0,0-2.4,5.029c-.16,1.127.074,2.552,1.149,2.925a2.383,2.383,0,0,0,2.519-1.252c1.37-2.043,1.941-5.707-.2-6.913" transform="translate(-39.634 -24.739)" fill="#cca25a"/>
        <path id="Trazado_884668" data-name="Trazado 884668" d="M197.568,111.843a.918.918,0,0,0-.387-.38.868.868,0,0,0-.6.024c-1.189.392-.586,2.346-1.661,2.987-.077.046-.2-.3-.267-.24-.483.49.029,1.362.292,2a1.206,1.206,0,0,0,1.395.608,2.178,2.178,0,0,0,1.253-1.022,3.815,3.815,0,0,0-.024-3.976" transform="translate(-41.648 -23.864)" fill="#e3bf81"/>
        <path id="Trazado_884669" data-name="Trazado 884669" d="M205.624,100.587a4.065,4.065,0,0,0,.534-2.017,21.5,21.5,0,0,0-.054-3.55,3.447,3.447,0,0,0-.61-1.9,1.324,1.324,0,0,0-1.793-.3,1.754,1.754,0,0,0-.464.862,7.528,7.528,0,0,0-.336,3.04c.195,1.539-.078,3.363.9,4.564.444.546,1.428-.109,1.821-.693" transform="translate(-43.448 -19.828)" fill="#e3bf81"/>
        <path id="Trazado_884670" data-name="Trazado 884670" d="M201.237,97.714c-.041.007-.019.169.023.165.02,0,0-.042,0-.063s.014-.108-.02-.1" transform="translate(-43.096 -20.928)" fill="#e3bf81"/>
        <path id="Trazado_884671" data-name="Trazado 884671" d="M201.193,97.924c-.5.05-.29,1.573.2,1.483.368-.068.171-1.52-.2-1.483" transform="translate(-43.03 -20.973)" fill="#e3bf81"/>
        <path id="Trazado_884672" data-name="Trazado 884672" d="M204.845,110.269c.256.279.7-.321.756-.695s.091-.877-.213-1.1a.5.5,0,0,0-.573-.038c-.128.12,0,.528,0,.7.005.376-.225.853.03,1.13" transform="translate(-43.848 -23.208)" fill="#cca25a"/>
        <path id="Trazado_884673" data-name="Trazado 884673" d="M205.428,117.971a.927.927,0,0,0-1.259-.787,2.619,2.619,0,0,0-.5.2c-.449.385-.039,1.269.522,1.459a.977.977,0,0,0,1.24-.875" transform="translate(-43.58 -25.084)" fill="#e3bf81"/>
        <path id="Trazado_884674" data-name="Trazado 884674" d="M212.79,112.675c-.727.038-1.753.689-1.489,1.368a3.586,3.586,0,0,0,1.685,1.308c.681.255,1.382-.679,1.317-1.4a1.477,1.477,0,0,0-1.513-1.271" transform="translate(-45.247 -24.132)" fill="#e3bf81"/>
        <path id="Trazado_884675" data-name="Trazado 884675" d="M207.361,123.377c-.034.053-.157.117-.176.177a.814.814,0,0,0,.1.594c.277.523,1.307.092,1.3-.5s-.908-.769-1.228-.272" transform="translate(-44.37 -26.363)" fill="#e3bf81"/>
        <path id="Trazado_884676" data-name="Trazado 884676" d="M198.539,128.942c-.1.145-.438.31-.549.448-.474.585.4,1.478,1.151,1.5a1.516,1.516,0,0,0,1.506-1.824,1.21,1.21,0,0,0-2.108-.125" transform="translate(-42.376 -27.499)" fill="#cca25a"/>
        <path id="Trazado_884677" data-name="Trazado 884677" d="M234.5,135.356c-4.686.853-9.49.678-14.245.943-1.373.076-3.6-.644-4.071.646-1.046,2.863,12.266,1.464,14.988,1.245,2.769-.223,8.5-.64,7.375-3.181-.551-1.245-2.707.1-4.046.347" transform="translate(-46.29 -28.805)" fill="#cca25a"/>
        <path id="Trazado_884678" data-name="Trazado 884678" d="M215.812,78.748c2.418-1.582,4-5.674,4.61-8.348a5.627,5.627,0,0,0-.023-3.281c-2.141-5.464-10.449,4.879-9.739,8.69.488,2.621,2.915,4.4,5.152,2.938" transform="translate(-45.11 -14.041)" fill="#e3bf81"/>
        <path id="Trazado_884679" data-name="Trazado 884679" d="M301.186,61.2a6.022,6.022,0,0,0-.22-1.808c-.793-2.733-6.184-8.214-7.194-3.034-.607,3.117,1.652,9.8,5.7,9.385a1.222,1.222,0,0,0,.805-.356,1.647,1.647,0,0,0,.3-.706,15.594,15.594,0,0,0,.6-3.481" transform="translate(-62.899 -11.611)" fill="#e3bf81"/>
        <path id="Trazado_884680" data-name="Trazado 884680" d="M284.454,83.531a14.808,14.808,0,0,0,3.3-7.625,5.889,5.889,0,0,0-.486-3.274,4.754,4.754,0,0,0-5.789-1.939c-2.082.791-3.352,2.878-4.01,5-.3.954-1.152,2.768-1.472,3.715a9.84,9.84,0,0,0-.572,3.4,4.285,4.285,0,0,0,1.286,3.107,4.178,4.178,0,0,0,4.291.506,8.885,8.885,0,0,0,3.451-2.892" transform="translate(-58.99 -15.075)" fill="#cca25a"/>
        <path id="Trazado_884681" data-name="Trazado 884681" d="M256.978,21.677c-2.232,4.6,6.731,8.363,10.05,8.925a4.5,4.5,0,0,0,3.663-.835c1.679-1.44,1.488-4.267.116-6-2.254-2.844-11.7-6.467-13.829-2.089" transform="translate(-54.964 -4.207)" fill="#e3bf81"/>
        <path id="Trazado_884682" data-name="Trazado 884682" d="M241.25,33.825c-.715,4.783,4.946,4.108,7.908,3.151,1.444-.467,3.007-1.427,3.11-2.941a2.9,2.9,0,0,0-1.454-2.522c-2.764-1.746-8.953-1.781-9.565,2.313" transform="translate(-51.658 -6.509)" fill="#cca25a"/>
        <path id="Trazado_884683" data-name="Trazado 884683" d="M230.055,46.611c.931-.657,1.983-1.64,1.643-2.728a1.794,1.794,0,0,0-1.568-1.13c-.68-.066-1.581-.137-1.984.415-.2.271,0,1.025-.119,1.338-.33.862-1.1,1.833-.446,2.489s1.729.141,2.475-.384" transform="translate(-48.689 -9.147)" fill="#e3bf81"/>
        <path id="Trazado_884684" data-name="Trazado 884684" d="M248.053,56.741a5.5,5.5,0,0,0-3.462,2.172,13.473,13.473,0,0,0-.728,1.616c-.344.734-.71,1.457-1.065,2.185a.724.724,0,0,0-.106.5c.068.238.349.335.593.375,2.017.329,3.969-.767,5.681-1.884,1.088-.71,2.287-1.693,2.192-2.988-.1-1.379-1.744-2.214-3.106-1.971" transform="translate(-51.977 -12.144)" fill="#e3bf81"/>
        <path id="Trazado_884685" data-name="Trazado 884685" d="M318.242,98.428c.828-1.691,1.128-8.745-1.6-6.293-1.061.954-1.061,3.136-1.917,4.284-.75,1.006-3.3,1.964-2.747,3.555a1.748,1.748,0,0,0,1.18.977,4.493,4.493,0,0,0,5.086-2.523" transform="translate(-66.802 -19.624)" fill="#e3bf81"/>
        <path id="Trazado_884686" data-name="Trazado 884686" d="M313.814,55.407a4.611,4.611,0,0,0,.8,2.332,10.905,10.905,0,0,0,1.246,2.225c.405.439,1.582.89,1.989,1.327,1.145,1.232,1.657,2.928,2.484,4.392.365.644.879,1.377,1.62,1.344a1.373,1.373,0,0,0,1.165-1.228,3.646,3.646,0,0,0-.332-1.786,26.579,26.579,0,0,0-6.2-9.472,2.21,2.21,0,0,0-1.238-.747c-.827-.086-1.5.781-1.532,1.613" transform="translate(-67.212 -11.52)" fill="#cca25a"/>
        <path id="Trazado_884687" data-name="Trazado 884687" d="M283.862,43.773c-1.268,1.568-1.454,1.956.584,2.06,3.536.18,6.14-1.953,9.754.13a14.72,14.72,0,0,0,2.9,1.661c1.069.325,2.48-.028,2.811-1.095.3-.979-.433-1.962-1.2-2.643-3.906-3.471-11.144-4.693-14.849-.113" transform="translate(-60.593 -8.736)" fill="#cca25a"/>
        <path id="Trazado_884688" data-name="Trazado 884688" d="M285.687,114.91a5.158,5.158,0,0,0-2.361.508,27.932,27.932,0,0,0-7.848,4.829c-1.2,1.048-5.841,4.993-1.609,4.628l4.059-.35c2.259-.2,4.671-.449,6.423-1.89a10.967,10.967,0,0,0,2.845-4.6,2.98,2.98,0,0,0,.308-1.739,2.007,2.007,0,0,0-1.818-1.38" transform="translate(-58.283 -24.609)" fill="#e3bf81"/>
        <path id="Trazado_884689" data-name="Trazado 884689" d="M212.208,91.106a.95.95,0,1,0-.95-.95.95.95,0,0,0,.95.95" transform="translate(-45.247 -19.106)" fill="#e3bf81"/>
        <path id="Trazado_884690" data-name="Trazado 884690" d="M212,96.979a.611.611,0,1,0,.611-.611.612.612,0,0,0-.611.611" transform="translate(-45.407 -20.64)" fill="#e3bf81"/>
        <path id="Trazado_884691" data-name="Trazado 884691" d="M218.441,93.384c-.793,0-1.436.21-1.436.469s.643.469,1.436.469,1.436-.211,1.436-.469-.643-.469-1.436-.469" transform="translate(-46.478 -20.001)" fill="#e3bf81"/>
        <path id="Trazado_884692" data-name="Trazado 884692" d="M221.4,87.5c0,.292.472.528,1.055.528s1.055-.237,1.055-.528-.472-.527-1.055-.527-1.055.236-1.055.527" transform="translate(-47.42 -18.627)" fill="#e3bf81"/>
        <path id="Trazado_884693" data-name="Trazado 884693" d="M228.049,95.557c.4,0,.722-.667.722-1.489s-.323-1.489-.722-1.489-.722.667-.722,1.489.323,1.489.722,1.489" transform="translate(-48.689 -19.828)" fill="#e3bf81"/>
        <path id="Trazado_884694" data-name="Trazado 884694" d="M222.109,104.236c.388,0,.7-.525.7-1.172s-.315-1.173-.7-1.173-.7.525-.7,1.173.315,1.172.7,1.172" transform="translate(-47.42 -21.823)" fill="#e3bf81"/>
        <path id="Trazado_884695" data-name="Trazado 884695" d="M228.049,106.264c.4,0,.722-.574.722-1.283s-.323-1.283-.722-1.283-.722.574-.722,1.283.323,1.283.722,1.283" transform="translate(-48.689 -22.21)" fill="#e3bf81"/>
        <path id="Trazado_884696" data-name="Trazado 884696" d="M224.809,113.68a.718.718,0,1,0,.717.717.718.718,0,0,0-.717-.717" transform="translate(-47.996 -24.348)" fill="#e3bf81"/>
        <path id="Trazado_884697" data-name="Trazado 884697" d="M216.7,106.517a.821.821,0,1,0-.821-.821.821.821,0,0,0,.821.821" transform="translate(-46.238 -22.462)" fill="#e3bf81"/>
        <path id="Trazado_884698" data-name="Trazado 884698" d="M218.031,101.57c.566,0,1.025-.262,1.025-.586s-.46-.586-1.025-.586-1.025.262-1.025.586.459.586,1.025.586" transform="translate(-46.478 -21.503)" fill="#e3bf81"/>
        <path id="Trazado_884699" data-name="Trazado 884699" d="M221.48,99.888a.821.821,0,1,0-.821-.821.821.821,0,0,0,.821.821" transform="translate(-47.261 -21.042)" fill="#e3bf81"/>
        <path id="Trazado_884700" data-name="Trazado 884700" d="M224.912,98.246a.821.821,0,1,0,.821.821.821.821,0,0,0-.821-.821" transform="translate(-47.996 -21.042)" fill="#e3bf81"/>
        <path id="Trazado_884701" data-name="Trazado 884701" d="M206.494,50.593a1.02,1.02,0,1,0-1.02-1.02,1.02,1.02,0,0,0,1.02,1.02" transform="translate(-44.008 -10.399)" fill="#e3bf81"/>
        <path id="Trazado_884702" data-name="Trazado 884702" d="M211.551,39.2c.162,0,.293-.364.293-.813s-.131-.813-.293-.813-.293.365-.293.813.131.813.293.813" transform="translate(-45.247 -8.047)" fill="#e3bf81"/>
        <path id="Trazado_884703" data-name="Trazado 884703" d="M199.837,44.1a.693.693,0,1,0-.693-.693.694.694,0,0,0,.693.693" transform="translate(-42.653 -9.147)" fill="#e3bf81"/>
        <path id="Trazado_884704" data-name="Trazado 884704" d="M197.031,51.022a.233.233,0,1,0-.233-.233.233.233,0,0,0,.233.233" transform="translate(-42.15 -10.828)" fill="#e3bf81"/>
        <path id="Trazado_884705" data-name="Trazado 884705" d="M194.919,56.166c.259,0,.468-.438.468-.978s-.21-.978-.468-.978-.468.438-.468.978.21.978.468.978" transform="translate(-41.647 -11.61)" fill="#e3bf81"/>
        <path id="Trazado_884706" data-name="Trazado 884706" d="M194.685,58.036a.234.234,0,1,0-.234-.234.234.234,0,0,0,.234.234" transform="translate(-41.647 -12.33)" fill="#e3bf81"/>
        <path id="Trazado_884707" data-name="Trazado 884707" d="M202.935,57.771a1.158,1.158,0,1,0-1.158-1.158,1.158,1.158,0,0,0,1.158,1.158" transform="translate(-43.216 -11.877)" fill="#e3bf81"/>
        <path id="Trazado_884708" data-name="Trazado 884708" d="M211.132,60.837a.515.515,0,1,0-.516-.515.516.516,0,0,0,.516.515" transform="translate(-45.11 -12.809)" fill="#e3bf81"/>
        <path id="Trazado_884709" data-name="Trazado 884709" d="M208.07,66.394c0,.365.141.662.314.662s.314-.3.314-.662-.141-.662-.314-.662-.314.3-.314.662" transform="translate(-44.564 -14.078)" fill="#e3bf81"/>
        <path id="Trazado_884710" data-name="Trazado 884710" d="M192.955,65.989c.194,0,.352-.315.352-.7s-.158-.7-.352-.7-.352.315-.352.7.158.7.352.7" transform="translate(-41.252 -13.832)" fill="#e3bf81"/>
        <path id="Trazado_884711" data-name="Trazado 884711" d="M191.611,70.951a.284.284,0,1,0-.284-.284.284.284,0,0,0,.284.284" transform="translate(-40.978 -15.075)" fill="#e3bf81"/>
        <path id="Trazado_884712" data-name="Trazado 884712" d="M190.017,74.731c.231,0,.419-.368.419-.821s-.188-.82-.419-.82-.419.367-.419.82.188.821.419.821" transform="translate(-40.608 -15.654)" fill="#e3bf81"/>
        <path id="Trazado_884713" data-name="Trazado 884713" d="M187.865,80.177a.485.485,0,1,0-.485-.485.485.485,0,0,0,.485.485" transform="translate(-40.133 -16.964)" fill="#e3bf81"/>
        <path id="Trazado_884714" data-name="Trazado 884714" d="M185.379,85.686a.329.329,0,1,0-.329-.329.329.329,0,0,0,.329.329" transform="translate(-39.634 -18.211)" fill="#e3bf81"/>
        <path id="Trazado_884715" data-name="Trazado 884715" d="M185.449,75.976a.4.4,0,1,0-.4-.4.4.4,0,0,0,.4.4" transform="translate(-39.634 -16.102)" fill="#e3bf81"/>
        <path id="Trazado_884716" data-name="Trazado 884716" d="M189,66.505a.387.387,0,1,0-.387-.387.386.386,0,0,0,.387.387" transform="translate(-40.397 -14.078)" fill="#e3bf81"/>
        <path id="Trazado_884717" data-name="Trazado 884717" d="M190.6,64.074c.259,0,.47-.417.47-.931s-.211-.931-.47-.931-.47.416-.47.931.211.931.47.931" transform="translate(-40.722 -13.325)" fill="#e3bf81"/>
        <path id="Trazado_884718" data-name="Trazado 884718" d="M187.865,64.06a.485.485,0,1,0-.485-.485.485.485,0,0,0,.485.485" transform="translate(-40.133 -13.513)" fill="#e3bf81"/>
        <path id="Trazado_884719" data-name="Trazado 884719" d="M186.3,68.779a.233.233,0,1,0-.233-.233.233.233,0,0,0,.233.233" transform="translate(-39.851 -14.631)" fill="#e3bf81"/>
        <path id="Trazado_884720" data-name="Trazado 884720" d="M187.06,70.887c0-.079-.262-.141-.586-.141s-.587.063-.587.141.263.141.587.141.586-.063.586-.141" transform="translate(-39.813 -15.152)" fill="#e3bf81"/>
        <path id="Trazado_884721" data-name="Trazado 884721" d="M186.19,95.858c.167,0,.3-.42.3-.938s-.135-.938-.3-.938-.3.42-.3.938.136.938.3.938" transform="translate(-39.813 -20.129)" fill="#e3bf81"/>
        <path id="Trazado_884722" data-name="Trazado 884722" d="M183.553,99.291c-.194,0-.352.326-.352.728s.158.728.352.728.352-.326.352-.728-.158-.728-.352-.728" transform="translate(-39.238 -21.266)" fill="#e3bf81"/>
        <path id="Trazado_884723" data-name="Trazado 884723" d="M182.445,103.383a.586.586,0,1,0,.586.586.586.586,0,0,0-.586-.586" transform="translate(-38.95 -22.142)" fill="#e3bf81"/>
        <path id="Trazado_884724" data-name="Trazado 884724" d="M188.058,105.233c.375,0,.678-.08.678-.179s-.3-.179-.678-.179-.678.08-.678.179.3.179.678.179" transform="translate(-40.133 -22.462)" fill="#e3bf81"/>
        <path id="Trazado_884725" data-name="Trazado 884725" d="M186.474,112.054a.587.587,0,1,0-.586-.586.586.586,0,0,0,.586.586" transform="translate(-39.813 -23.748)" fill="#e3bf81"/>
        <path id="Trazado_884726" data-name="Trazado 884726" d="M208,82.891a.839.839,0,1,0,.839.839.839.839,0,0,0-.839-.839" transform="translate(-44.37 -17.754)" fill="#e3bf81"/>
        <path id="Trazado_884727" data-name="Trazado 884727" d="M200.714,85.446a.688.688,0,1,0,.688.688.688.688,0,0,0-.688-.688" transform="translate(-42.841 -18.301)" fill="#e3bf81"/>
        <path id="Trazado_884728" data-name="Trazado 884728" d="M205.7,79.3c0-.545-.879-.985-1.962-.985s-1.962.441-1.962.985.879.985,1.962.985,1.962-.441,1.962-.985" transform="translate(-43.217 -16.773)" fill="#e3bf81"/>
        <path id="Trazado_884729" data-name="Trazado 884729" d="M206.392,74.874c.6,0,1.086-.666,1.086-1.489s-.486-1.49-1.086-1.49-1.086.667-1.086,1.49.486,1.489,1.086,1.489" transform="translate(-43.972 -15.398)" fill="#e3bf81"/>
        <path id="Trazado_884730" data-name="Trazado 884730" d="M203.827,65.478c-.318,0-.576.6-.576,1.347s.258,1.347.576,1.347.576-.6.576-1.347-.258-1.347-.576-1.347" transform="translate(-43.532 -14.024)" fill="#e3bf81"/>
        <path id="Trazado_884731" data-name="Trazado 884731" d="M214.984,53.275a1.775,1.775,0,1,0-1.308-1.712,1.552,1.552,0,0,0,1.308,1.712" transform="translate(-45.765 -10.677)" fill="#e3bf81"/>
        <path id="Trazado_884732" data-name="Trazado 884732" d="M221.733,48.553c-.593,0-1.074.995-1.074,2.222S221.14,53,221.733,53s1.074-1,1.074-2.223-.481-2.222-1.074-2.222" transform="translate(-47.261 -10.399)" fill="#e3bf81"/>
        <path id="Trazado_884733" data-name="Trazado 884733" d="M207.161,57.165c0,.945.23,1.71.515,1.71s.513-.765.513-1.71-.23-1.71-.513-1.71-.515.765-.515,1.71" transform="translate(-44.37 -11.877)" fill="#e3bf81"/>
        <path id="Trazado_884734" data-name="Trazado 884734" d="M216.713,41.609c1.677,0,3.036-.9,3.036-2.019s-1.359-2.019-3.036-2.019-3.037.9-3.037,2.019,1.36,2.019,3.037,2.019" transform="translate(-45.765 -8.047)" fill="#e3bf81"/>
        <path id="Trazado_884735" data-name="Trazado 884735" d="M220.1,30.8c1.176,0,2.13-.656,2.13-1.466s-.953-1.466-2.13-1.466-2.13.656-2.13,1.466.953,1.466,2.13,1.466" transform="translate(-46.685 -5.969)" fill="#e3bf81"/>
        <path id="Trazado_884736" data-name="Trazado 884736" d="M225.088,24.45c.55,0,1-.6,1-1.348s-.446-1.348-1-1.348-1,.6-1,1.348.446,1.348,1,1.348" transform="translate(-47.996 -4.659)" fill="#e3bf81"/>
        <path id="Trazado_884737" data-name="Trazado 884737" d="M231.774,19.039c1.948,0,3.528-.5,3.528-1.106s-1.579-1.1-3.528-1.1-3.528.494-3.528,1.1,1.579,1.106,3.528,1.106" transform="translate(-48.886 -3.604)" fill="#cca25a"/>
        <path id="Trazado_884738" data-name="Trazado 884738" d="M242.392,13.268c1.513,0,2.739-.472,2.739-1.055s-1.227-1.055-2.739-1.055-2.739.472-2.739,1.055,1.227,1.055,2.739,1.055" transform="translate(-51.329 -2.39)" fill="#e3bf81"/>
        <path id="Trazado_884739" data-name="Trazado 884739" d="M240.759,19.039a1.105,1.105,0,1,0-1.106-1.106,1.105,1.105,0,0,0,1.106,1.106" transform="translate(-51.329 -3.604)" fill="#e3bf81"/>
        <path id="Trazado_884740" data-name="Trazado 884740" d="M244.984,18.16c0,.324.573.586,1.28.586s1.28-.262,1.28-.586-.573-.586-1.28-.586-1.28.262-1.28.586" transform="translate(-52.47 -3.764)" fill="#e3bf81"/>
        <path id="Trazado_884741" data-name="Trazado 884741" d="M233.619,30.419c.488,0,.884-.971.884-2.17s-.4-2.17-.884-2.17-.884.971-.884,2.17.4,2.17.884,2.17" transform="translate(-49.847 -5.586)" fill="#e3bf81"/>
        <path id="Trazado_884742" data-name="Trazado 884742" d="M237.634,27.882c.226,0,.41-.6.41-1.348s-.184-1.348-.41-1.348-.41.6-.41,1.348.184,1.348.41,1.348" transform="translate(-50.808 -5.394)" fill="#e3bf81"/>
        <path id="Trazado_884743" data-name="Trazado 884743" d="M228.994,34.286c.413,0,.748-.6.748-1.341s-.335-1.342-.748-1.342-.748.6-.748,1.342.335,1.341.748,1.341" transform="translate(-48.886 -6.768)" fill="#e3bf81"/>
        <path id="Trazado_884744" data-name="Trazado 884744" d="M238.044,34.628c0-.519-.184-.939-.41-.939s-.411.42-.411.939.184.939.411.939.41-.42.41-.939" transform="translate(-50.808 -7.215)" fill="#e3bf81"/>
        <path id="Trazado_884745" data-name="Trazado 884745" d="M238.813,46.835c.3,0,.545-.726.545-1.622s-.244-1.622-.545-1.622-.544.727-.544,1.622.244,1.622.544,1.622" transform="translate(-51.032 -9.336)" fill="#e3bf81"/>
        <path id="Trazado_884746" data-name="Trazado 884746" d="M233.764,56.075c.437,0,.791-.512.791-1.144s-.354-1.144-.791-1.144-.791.512-.791,1.144.354,1.144.791,1.144" transform="translate(-49.898 -11.52)" fill="#e3bf81"/>
        <path id="Trazado_884747" data-name="Trazado 884747" d="M230.605,60.39a1.18,1.18,0,1,0-1.18,1.18,1.18,1.18,0,0,0,1.18-1.18" transform="translate(-48.886 -12.682)" fill="#e3bf81"/>
        <path id="Trazado_884748" data-name="Trazado 884748" d="M261.4,48.609a.89.89,0,1,0,.89-.89.89.89,0,0,0-.89.89" transform="translate(-55.986 -10.22)" fill="#e3bf81"/>
        <path id="Trazado_884749" data-name="Trazado 884749" d="M256.114,51.134c0-.321-.42-.58-.939-.58s-.938.259-.938.58.42.58.938.58.939-.259.939-.58" transform="translate(-54.452 -10.828)" fill="#e3bf81"/>
        <path id="Trazado_884750" data-name="Trazado 884750" d="M260.214,43.692a.983.983,0,1,0-.983.983.983.983,0,0,0,.983-.983" transform="translate(-55.311 -9.147)" fill="#e3bf81"/>
        <path id="Trazado_884751" data-name="Trazado 884751" d="M270.652,61.893a.775.775,0,1,0,.775-.775.775.775,0,0,0-.775.775" transform="translate(-57.968 -13.09)" fill="#e3bf81"/>
        <path id="Trazado_884752" data-name="Trazado 884752" d="M260.989,74.535a.745.745,0,1,0-.745.745.745.745,0,0,0,.745-.745" transform="translate(-55.579 -15.804)" fill="#e3bf81"/>
        <path id="Trazado_884753" data-name="Trazado 884753" d="M251.985,75.686a1.032,1.032,0,1,0,1.032,1.032,1.032,1.032,0,0,0-1.032-1.032" transform="translate(-53.749 -16.21)" fill="#e3bf81"/>
        <path id="Trazado_884754" data-name="Trazado 884754" d="M241.412,77.848a.879.879,0,1,0-.879.879.879.879,0,0,0,.879-.879" transform="translate(-51.329 -16.485)" fill="#e3bf81"/>
        <path id="Trazado_884755" data-name="Trazado 884755" d="M243.053,69.487a.581.581,0,1,0-.581.581.581.581,0,0,0,.581-.581" transform="translate(-51.808 -14.758)" fill="#e3bf81"/>
        <path id="Trazado_884756" data-name="Trazado 884756" d="M250.953,73.909a.821.821,0,1,0,.821-.821.821.821,0,0,0-.821.821" transform="translate(-53.749 -15.654)" fill="#e3bf81"/>
        <path id="Trazado_884757" data-name="Trazado 884757" d="M250.729,90.531a1.325,1.325,0,1,0-1.326,1.326,1.325,1.325,0,0,0,1.326-1.326" transform="translate(-53.133 -19.106)" fill="#e3bf81"/>
        <path id="Trazado_884758" data-name="Trazado 884758" d="M243.97,96.214a1.039,1.039,0,1,0-1.039,1.039,1.039,1.039,0,0,0,1.039-1.039" transform="translate(-51.808 -20.385)" fill="#e3bf81"/>
        <path id="Trazado_884759" data-name="Trazado 884759" d="M255.431,92.093a.47.47,0,1,0,.469-.47.469.469,0,0,0-.469.47" transform="translate(-54.708 -19.624)" fill="#e3bf81"/>
        <path id="Trazado_884760" data-name="Trazado 884760" d="M264.356,90.892a.663.663,0,1,0,.663.663.663.663,0,0,0-.663-.663" transform="translate(-56.478 -19.467)" fill="#e3bf81"/>
        <path id="Trazado_884761" data-name="Trazado 884761" d="M266.175,103.383a.676.676,0,1,0,.676.676.676.676,0,0,0-.676-.676" transform="translate(-56.864 -22.142)" fill="#e3bf81"/>
        <path id="Trazado_884762" data-name="Trazado 884762" d="M255.3,110.116a.5.5,0,1,0,.5-.5.495.495,0,0,0-.5.5" transform="translate(-54.679 -23.478)" fill="#e3bf81"/>
        <path id="Trazado_884763" data-name="Trazado 884763" d="M237.213,110.881a.587.587,0,1,0,.586.586.586.586,0,0,0-.586-.586" transform="translate(-50.681 -23.748)" fill="#e3bf81"/>
        <path id="Trazado_884764" data-name="Trazado 884764" d="M245.869,107.362a1.365,1.365,0,1,0-1.365,1.365,1.365,1.365,0,0,0,1.365-1.365" transform="translate(-52.075 -22.702)" fill="#e3bf81"/>
        <path id="Trazado_884765" data-name="Trazado 884765" d="M255.952,102.382a1.237,1.237,0,1,0-1.237,1.237,1.237,1.237,0,0,0,1.237-1.237" transform="translate(-54.29 -21.663)" fill="#e3bf81"/>
        <path id="Trazado_884766" data-name="Trazado 884766" d="M260.691,97.924a1.192,1.192,0,1,0,1.191,1.191,1.192,1.192,0,0,0-1.191-1.191" transform="translate(-55.58 -20.973)" fill="#e3bf81"/>
        <path id="Trazado_884767" data-name="Trazado 884767" d="M219.96,128.446a1.128,1.128,0,1,0-1.128-1.128,1.129,1.129,0,0,0,1.128,1.128" transform="translate(-46.869 -27.027)" fill="#cca25a"/>
        <path id="Trazado_884768" data-name="Trazado 884768" d="M228.278,127.371a.951.951,0,1,0-.951-.951.951.951,0,0,0,.951.951" transform="translate(-48.689 -26.873)" fill="#e3bf81"/>
        <path id="Trazado_884769" data-name="Trazado 884769" d="M233.149,120.548a2.614,2.614,0,1,0-2.614,2.614,2.614,2.614,0,0,0,2.614-2.614" transform="translate(-48.816 -25.259)" fill="#e3bf81"/>
        <path id="Trazado_884770" data-name="Trazado 884770" d="M206.549,136.064a1.243,1.243,0,1,0,1.242,1.242,1.243,1.243,0,0,0-1.242-1.242" transform="translate(-43.972 -29.142)" fill="#e3bf81"/>
        <path id="Trazado_884771" data-name="Trazado 884771" d="M212.661,134.488a.657.657,0,1,0,.657.658.657.657,0,0,0-.657-.658" transform="translate(-45.407 -28.805)" fill="#e3bf81"/>
        <path id="Trazado_884772" data-name="Trazado 884772" d="M195.808,137.182a1.059,1.059,0,1,0,1.059,1.059,1.059,1.059,0,0,0-1.059-1.059" transform="translate(-41.711 -29.382)" fill="#e3bf81"/>
        <path id="Trazado_884773" data-name="Trazado 884773" d="M193.329,136.064a.726.726,0,1,0,.726.726.726.726,0,0,0-.726-.726" transform="translate(-41.252 -29.142)" fill="#e3bf81"/>
        <path id="Trazado_884774" data-name="Trazado 884774" d="M193.6,131.572a.55.55,0,1,0,.55.55.55.55,0,0,0-.55-.55" transform="translate(-41.348 -28.18)" fill="#e3bf81"/>
        <path id="Trazado_884775" data-name="Trazado 884775" d="M195.744,124.558a.647.647,0,1,0-.647.647.647.647,0,0,0,.647-.647" transform="translate(-41.647 -26.539)" fill="#e3bf81"/>
        <path id="Trazado_884776" data-name="Trazado 884776" d="M185.387,132.93a1.29,1.29,0,1,0,1.29,1.29,1.29,1.29,0,0,0-1.29-1.29" transform="translate(-39.43 -28.471)" fill="#e3bf81"/>
        <path id="Trazado_884777" data-name="Trazado 884777" d="M256.538,120.848a1.107,1.107,0,1,0,1.107,1.107,1.107,1.107,0,0,0-1.107-1.107" transform="translate(-54.708 -25.883)" fill="#e3bf81"/>
        <path id="Trazado_884778" data-name="Trazado 884778" d="M247.851,127.623a1.238,1.238,0,1,0,1.238,1.238,1.239,1.239,0,0,0-1.238-1.238" transform="translate(-52.819 -27.334)" fill="#e3bf81"/>
        <path id="Trazado_884779" data-name="Trazado 884779" d="M247.371,120.312a.94.94,0,1,0,.941-.941.941.941,0,0,0-.941.941" transform="translate(-52.982 -25.567)" fill="#e3bf81"/>
        <path id="Trazado_884780" data-name="Trazado 884780" d="M247.787,116.46a.954.954,0,1,0-.954.954.954.954,0,0,0,.954-.954" transform="translate(-52.662 -24.739)" fill="#e3bf81"/>
        <path id="Trazado_884781" data-name="Trazado 884781" d="M241.736,122.3a1.042,1.042,0,1,0-1.042,1.042,1.041,1.041,0,0,0,1.042-1.042" transform="translate(-51.329 -25.972)" fill="#e3bf81"/>
        <path id="Trazado_884782" data-name="Trazado 884782" d="M239.365,127.662a1.1,1.1,0,1,0-1.1-1.1,1.1,1.1,0,0,0,1.1,1.1" transform="translate(-51.032 -26.873)" fill="#e3bf81"/>
        <path id="Trazado_884783" data-name="Trazado 884783" d="M259.852,115.328a1.648,1.648,0,1,0-1.647,1.648,1.648,1.648,0,0,0,1.647-1.648" transform="translate(-54.949 -24.348)" fill="#e3bf81"/>
        <path id="Trazado_884784" data-name="Trazado 884784" d="M270.652,111.2a.952.952,0,1,0,.952-.952.951.951,0,0,0-.952.952" transform="translate(-57.968 -23.613)" fill="#e3bf81"/>
        <path id="Trazado_884785" data-name="Trazado 884785" d="M260.118,129.2a.619.619,0,1,0,.619.619.619.619,0,0,0-.619-.619" transform="translate(-55.579 -27.672)" fill="#e3bf81"/>
        <path id="Trazado_884786" data-name="Trazado 884786" d="M251.053,136.064a1.288,1.288,0,1,0,1.288,1.288,1.289,1.289,0,0,0-1.288-1.288" transform="translate(-53.494 -29.142)" fill="#e3bf81"/>
        <path id="Trazado_884787" data-name="Trazado 884787" d="M255.984,138.53a.554.554,0,1,0,.553.553.553.553,0,0,0-.553-.553" transform="translate(-54.708 -29.67)" fill="#e3bf81"/>
        <path id="Trazado_884788" data-name="Trazado 884788" d="M255.978,133.143a.87.87,0,1,0-.871.871.871.871,0,0,0,.871-.871" transform="translate(-54.452 -28.33)" fill="#e3bf81"/>
        <path id="Trazado_884789" data-name="Trazado 884789" d="M283.851,132.93a.941.941,0,1,0,.941.941.941.941,0,0,0-.941-.941" transform="translate(-60.593 -28.471)" fill="#e3bf81"/>
        <path id="Trazado_884790" data-name="Trazado 884790" d="M270.785,135.324a.73.73,0,1,0,.73.73.73.73,0,0,0-.73-.73" transform="translate(-57.84 -28.984)" fill="#e3bf81"/>
        <path id="Trazado_884791" data-name="Trazado 884791" d="M277.216,130.775a1.16,1.16,0,1,0,1.161,1.161,1.161,1.161,0,0,0-1.161-1.161" transform="translate(-59.125 -28.009)" fill="#e3bf81"/>
        <path id="Trazado_884792" data-name="Trazado 884792" d="M276.923,135.324a.867.867,0,1,0,.868.867.867.867,0,0,0-.868-.867" transform="translate(-59.125 -28.984)" fill="#e3bf81"/>
        <path id="Trazado_884793" data-name="Trazado 884793" d="M295.611,126.189a1.84,1.84,0,1,0,1.84,1.84,1.84,1.84,0,0,0-1.84-1.84" transform="translate(-62.92 -27.027)" fill="#e3bf81"/>
        <path id="Trazado_884794" data-name="Trazado 884794" d="M302.57,116.135a.431.431,0,1,0,.431.431.43.43,0,0,0-.431-.431" transform="translate(-64.712 -24.874)" fill="#e3bf81"/>
        <path id="Trazado_884795" data-name="Trazado 884795" d="M296.644,112.673a1.22,1.22,0,1,0,1.22,1.22,1.22,1.22,0,0,0-1.22-1.22" transform="translate(-63.274 -24.132)" fill="#e3bf81"/>
        <path id="Trazado_884796" data-name="Trazado 884796" d="M300.413,105.107a.979.979,0,1,0-.979.979.979.979,0,0,0,.979-.979" transform="translate(-63.923 -22.302)" fill="#e3bf81"/>
        <path id="Trazado_884797" data-name="Trazado 884797" d="M306.464,103.7a1.831,1.831,0,1,0,1.831,1.831,1.831,1.831,0,0,0-1.831-1.831" transform="translate(-65.246 -22.21)" fill="#e3bf81"/>
        <path id="Trazado_884798" data-name="Trazado 884798" d="M311.522,113.829a.727.727,0,1,0-.728-.727.727.727,0,0,0,.728.727" transform="translate(-66.566 -24.068)" fill="#e3bf81"/>
        <path id="Trazado_884799" data-name="Trazado 884799" d="M310.627,116.135a.877.877,0,1,0,.877.877.877.877,0,0,0-.877-.877" transform="translate(-66.342 -24.874)" fill="#e3bf81"/>
        <path id="Trazado_884800" data-name="Trazado 884800" d="M307.484,123.665a.42.42,0,1,0,.42.42.42.42,0,0,0-.42-.42" transform="translate(-65.767 -26.486)" fill="#e3bf81"/>
        <path id="Trazado_884801" data-name="Trazado 884801" d="M300.874,122.586a1.174,1.174,0,1,0,1.174,1.174,1.174,1.174,0,0,0-1.174-1.174" transform="translate(-64.19 -26.255)" fill="#e3bf81"/>
        <path id="Trazado_884802" data-name="Trazado 884802" d="M288,110.207a1.236,1.236,0,1,0-1.237-1.237A1.237,1.237,0,0,0,288,110.207" transform="translate(-61.42 -23.074)" fill="#e3bf81"/>
        <path id="Trazado_884803" data-name="Trazado 884803" d="M281.247,114.333a.653.653,0,1,0,.654-.653.654.654,0,0,0-.654.653" transform="translate(-60.237 -24.348)" fill="#e3bf81"/>
        <path id="Trazado_884804" data-name="Trazado 884804" d="M272.987,120.755a1.855,1.855,0,1,0-1.855,1.855,1.854,1.854,0,0,0,1.855-1.855" transform="translate(-57.674 -25.466)" fill="#e3bf81"/>
        <path id="Trazado_884805" data-name="Trazado 884805" d="M278.263,99.763a.894.894,0,1,0,.893-.894.893.893,0,0,0-.893.894" transform="translate(-59.598 -21.176)" fill="#e3bf81"/>
        <path id="Trazado_884806" data-name="Trazado 884806" d="M274.912,106.122a.914.914,0,1,0-.915-.915.915.915,0,0,0,.915.915" transform="translate(-58.684 -22.337)" fill="#e3bf81"/>
        <path id="Trazado_884807" data-name="Trazado 884807" d="M295.1,94.847a2.216,2.216,0,1,0-2.216-2.216,2.215,2.215,0,0,0,2.216,2.216" transform="translate(-62.73 -19.365)" fill="#cca25a"/>
        <path id="Trazado_884808" data-name="Trazado 884808" d="M304.632,86.669a1.642,1.642,0,1,0,1.642-1.642,1.641,1.641,0,0,0-1.642,1.642" transform="translate(-65.246 -18.211)" fill="#e3bf81"/>
        <path id="Trazado_884809" data-name="Trazado 884809" d="M293.9,103.259a1.369,1.369,0,1,0-1.369,1.369,1.369,1.369,0,0,0,1.369-1.369" transform="translate(-62.362 -21.823)" fill="#e3bf81"/>
        <path id="Trazado_884810" data-name="Trazado 884810" d="M286.123,100.51a.82.82,0,1,0-.82-.82.82.82,0,0,0,.82.82" transform="translate(-61.106 -21.176)" fill="#e3bf81"/>
        <path id="Trazado_884811" data-name="Trazado 884811" d="M288.079,97.871a.687.687,0,1,0-.688-.687.687.687,0,0,0,.688.687" transform="translate(-61.553 -20.668)" fill="#e3bf81"/>
        <path id="Trazado_884812" data-name="Trazado 884812" d="M290.611,94.556a1.173,1.173,0,1,0-1.172,1.172,1.172,1.172,0,0,0,1.172-1.172" transform="translate(-61.74 -20.001)" fill="#cca25a"/>
        <path id="Trazado_884813" data-name="Trazado 884813" d="M305.512,95.613a1.139,1.139,0,1,0-1.139,1.139,1.139,1.139,0,0,0,1.139-1.139" transform="translate(-64.947 -20.234)" fill="#e3bf81"/>
        <path id="Trazado_884814" data-name="Trazado 884814" d="M301.052,97.819a.7.7,0,1,0,.7.7.7.7,0,0,0-.7-.7" transform="translate(-64.328 -20.951)" fill="#e3bf81"/>
        <path id="Trazado_884815" data-name="Trazado 884815" d="M316.3,86.923a1.477,1.477,0,1,0,1.477-1.477,1.478,1.478,0,0,0-1.477,1.477" transform="translate(-67.746 -18.301)" fill="#e3bf81"/>
        <path id="Trazado_884816" data-name="Trazado 884816" d="M312.875,97.129a.977.977,0,1,0-.977-.977.977.977,0,0,0,.977.977" transform="translate(-66.802 -20.385)" fill="#e3bf81"/>
        <path id="Trazado_884817" data-name="Trazado 884817" d="M331.442,96.5a1.1,1.1,0,1,0,1.1,1.1,1.1,1.1,0,0,0-1.1-1.1" transform="translate(-70.753 -20.668)" fill="#e3bf81"/>
        <path id="Trazado_884818" data-name="Trazado 884818" d="M330.222,87.455a1.133,1.133,0,1,0-1.133,1.133,1.133,1.133,0,0,0,1.133-1.133" transform="translate(-70.241 -18.488)" fill="#e3bf81"/>
        <path id="Trazado_884819" data-name="Trazado 884819" d="M332.707,79.207a1.867,1.867,0,1,0,1.867,1.867,1.867,1.867,0,0,0-1.867-1.867" transform="translate(-70.859 -16.964)" fill="#e3bf81"/>
        <path id="Trazado_884820" data-name="Trazado 884820" d="M324.789,81.449a1.625,1.625,0,1,0-1.625,1.625,1.625,1.625,0,0,0,1.625-1.625" transform="translate(-68.867 -17.097)" fill="#e3bf81"/>
        <path id="Trazado_884821" data-name="Trazado 884821" d="M325.316,91.624a2.347,2.347,0,1,0,1.709,2.258,2.042,2.042,0,0,0-1.709-2.258" transform="translate(-69.31 -19.624)" fill="#e3bf81"/>
        <path id="Trazado_884822" data-name="Trazado 884822" d="M319.742,112.307a1.426,1.426,0,1,0,1.426-1.426,1.427,1.427,0,0,0-1.426,1.426" transform="translate(-68.482 -23.748)" fill="#e3bf81"/>
        <path id="Trazado_884823" data-name="Trazado 884823" d="M330.539,105.456a1.141,1.141,0,1,0,1.14,1.14,1.141,1.141,0,0,0-1.14-1.14" transform="translate(-70.55 -22.586)" fill="#e3bf81"/>
        <path id="Trazado_884824" data-name="Trazado 884824" d="M325.469,105.331a.944.944,0,1,0,.944.945.944.944,0,0,0-.944-.945" transform="translate(-69.506 -22.56)" fill="#e3bf81"/>
        <path id="Trazado_884825" data-name="Trazado 884825" d="M324.716,103.273a.554.554,0,1,0-.554.554.554.554,0,0,0,.554-.554" transform="translate(-69.31 -22)" fill="#e3bf81"/>
        <path id="Trazado_884826" data-name="Trazado 884826" d="M322.6,116.683a1.057,1.057,0,1,0,1.057,1.057,1.057,1.057,0,0,0-1.057-1.057" transform="translate(-68.867 -24.991)" fill="#e3bf81"/>
        <path id="Trazado_884827" data-name="Trazado 884827" d="M319.225,121.26a1.042,1.042,0,1,0,1.042,1.041,1.042,1.042,0,0,0-1.042-1.041" transform="translate(-68.148 -25.971)" fill="#e3bf81"/>
        <path id="Trazado_884828" data-name="Trazado 884828" d="M312.554,124.734a.572.572,0,1,0,.572.572.571.571,0,0,0-.572-.572" transform="translate(-66.82 -26.715)" fill="#e3bf81"/>
        <path id="Trazado_884829" data-name="Trazado 884829" d="M317.7,118.027a.343.343,0,1,0,.343.343.343.343,0,0,0-.343-.343" transform="translate(-67.972 -25.279)" fill="#e3bf81"/>
        <path id="Trazado_884830" data-name="Trazado 884830" d="M330.149,114.225a.75.75,0,1,0,.75.75.751.751,0,0,0-.75-.75" transform="translate(-70.55 -24.465)" fill="#e3bf81"/>
        <path id="Trazado_884831" data-name="Trazado 884831" d="M303.753,76.418a1.066,1.066,0,1,0-1.066-1.066,1.065,1.065,0,0,0,1.066,1.066" transform="translate(-64.829 -15.911)" fill="#e3bf81"/>
        <path id="Trazado_884832" data-name="Trazado 884832" d="M296.683,81.581a.57.57,0,1,0-.57-.571.57.57,0,0,0,.57.571" transform="translate(-63.421 -17.229)" fill="#e3bf81"/>
        <path id="Trazado_884833" data-name="Trazado 884833" d="M298.528,74.743a.61.61,0,1,0,.61-.61.61.61,0,0,0-.61.61" transform="translate(-63.938 -15.878)" fill="#e3bf81"/>
        <path id="Trazado_884834" data-name="Trazado 884834" d="M310.6,70.926a.85.85,0,1,0,.85.849.849.849,0,0,0-.85-.849" transform="translate(-66.342 -15.191)" fill="#e3bf81"/>
        <path id="Trazado_884835" data-name="Trazado 884835" d="M310.8,79.977a.77.77,0,1,0,.77-.77.77.77,0,0,0-.77.77" transform="translate(-66.566 -16.964)" fill="#e3bf81"/>
        <path id="Trazado_884836" data-name="Trazado 884836" d="M304.048,83.516a.813.813,0,1,0-.813-.813.813.813,0,0,0,.813.813" transform="translate(-64.947 -17.539)" fill="#e3bf81"/>
        <path id="Trazado_884837" data-name="Trazado 884837" d="M310.06,65.894a1.249,1.249,0,1,0-1.249-1.249,1.249,1.249,0,0,0,1.249,1.249" transform="translate(-66.141 -13.578)" fill="#cca25a"/>
        <path id="Trazado_884838" data-name="Trazado 884838" d="M306.133,55.815a.572.572,0,1,0,.572-.572.572.572,0,0,0-.572.572" transform="translate(-65.567 -11.832)" fill="#e3bf81"/>
        <path id="Trazado_884839" data-name="Trazado 884839" d="M310.866,45.485a1.01,1.01,0,1,0,1.011-1.011,1.01,1.01,0,0,0-1.011,1.011" transform="translate(-66.581 -9.525)" fill="#e3bf81"/>
        <path id="Trazado_884840" data-name="Trazado 884840" d="M317.4,42.992a1.1,1.1,0,1,0-1.1-1.1,1.1,1.1,0,0,0,1.1,1.1" transform="translate(-67.746 -8.736)" fill="#e3bf81"/>
        <path id="Trazado_884841" data-name="Trazado 884841" d="M322.186,55.894a1.476,1.476,0,1,0-1.477-1.476,1.476,1.476,0,0,0,1.477,1.476" transform="translate(-68.689 -11.339)" fill="#e3bf81"/>
        <path id="Trazado_884842" data-name="Trazado 884842" d="M317.655,53.851A1.351,1.351,0,1,0,316.3,52.5a1.351,1.351,0,0,0,1.351,1.351" transform="translate(-67.746 -10.955)" fill="#e3bf81"/>
        <path id="Trazado_884843" data-name="Trazado 884843" d="M323.554,50.19a.669.669,0,1,0-.669-.669.669.669,0,0,0,.669.669" transform="translate(-69.155 -10.463)" fill="#e3bf81"/>
        <path id="Trazado_884844" data-name="Trazado 884844" d="M330.526,66.578a1.127,1.127,0,1,0-1.127-1.127,1.127,1.127,0,0,0,1.127,1.127" transform="translate(-70.55 -13.777)" fill="#e3bf81"/>
        <path id="Trazado_884845" data-name="Trazado 884845" d="M281.143,60.462a.606.606,0,1,0,.606.606.606.606,0,0,0-.606-.606" transform="translate(-60.085 -12.95)" fill="#e3bf81"/>
        <path id="Trazado_884846" data-name="Trazado 884846" d="M283.648,54.821a.738.738,0,1,0,.738.738.737.737,0,0,0-.738-.738" transform="translate(-60.593 -11.742)" fill="#e3bf81"/>
        <path id="Trazado_884847" data-name="Trazado 884847" d="M278.636,52.942a1.476,1.476,0,1,0,1.476,1.477,1.476,1.476,0,0,0-1.476-1.477" transform="translate(-59.362 -11.339)" fill="#e3bf81"/>
        <path id="Trazado_884848" data-name="Trazado 884848" d="M265.012,59.642a1.24,1.24,0,1,0-1.24,1.24,1.24,1.24,0,0,0,1.24-1.24" transform="translate(-56.229 -12.508)" fill="#e3bf81"/>
        <path id="Trazado_884849" data-name="Trazado 884849" d="M255.452,66.755a1.216,1.216,0,1,0-1.216-1.216,1.216,1.216,0,0,0,1.216,1.216" transform="translate(-54.452 -13.777)" fill="#e3bf81"/>
        <path id="Trazado_884850" data-name="Trazado 884850" d="M231.851,74.109a1.02,1.02,0,1,0,1.021-1.021,1.021,1.021,0,0,0-1.021,1.021" transform="translate(-49.658 -15.654)" fill="#e3bf81"/>
        <path id="Trazado_884851" data-name="Trazado 884851" d="M234.574,69.59a.981.981,0,1,0,.981-.981.981.981,0,0,0-.981.981" transform="translate(-50.241 -14.695)" fill="#e3bf81"/>
        <path id="Trazado_884852" data-name="Trazado 884852" d="M226.085,82.3a1.994,1.994,0,1,0-1.994-1.994,1.994,1.994,0,0,0,1.994,1.994" transform="translate(-47.996 -16.773)" fill="#e3bf81"/>
        <path id="Trazado_884853" data-name="Trazado 884853" d="M237.679,84.888a.928.928,0,1,0-.928.928.928.928,0,0,0,.928-.928" transform="translate(-50.508 -17.982)" fill="#e3bf81"/>
        <path id="Trazado_884854" data-name="Trazado 884854" d="M230.35,91.575a1.185,1.185,0,1,0-1.185-1.185,1.185,1.185,0,0,0,1.185,1.185" transform="translate(-49.082 -19.106)" fill="#e3bf81"/>
        <path id="Trazado_884855" data-name="Trazado 884855" d="M237.271,92.221a.645.645,0,1,0,.645.645.645.645,0,0,0-.645-.645" transform="translate(-50.68 -19.752)" fill="#e3bf81"/>
        <path id="Trazado_884856" data-name="Trazado 884856" d="M235.771,100.506a.9.9,0,1,0-.9.9.9.9,0,0,0,.9-.9" transform="translate(-50.113 -21.334)" fill="#e3bf81"/>
        <path id="Trazado_884857" data-name="Trazado 884857" d="M246.787,81.892a.908.908,0,1,0,.908.908.908.908,0,0,0-.908-.908" transform="translate(-52.662 -17.54)" fill="#e3bf81"/>
        <path id="Trazado_884858" data-name="Trazado 884858" d="M265.612,77a1.5,1.5,0,1,0,1.5,1.5,1.5,1.5,0,0,0-1.5-1.5" transform="translate(-56.567 -16.492)" fill="#e3bf81"/>
        <path id="Trazado_884859" data-name="Trazado 884859" d="M259.837,83.854a2.271,2.271,0,1,0-2.271,2.271,2.271,2.271,0,0,0,2.271-2.271" transform="translate(-54.679 -17.473)" fill="#e3bf81"/>
        <path id="Trazado_884860" data-name="Trazado 884860" d="M272.168,70.636a1.184,1.184,0,1,0,1.184,1.184,1.185,1.185,0,0,0-1.184-1.184" transform="translate(-58.039 -15.129)" fill="#e3bf81"/>
        <path id="Trazado_884861" data-name="Trazado 884861" d="M266.983,72.007a1.485,1.485,0,1,0,1.484,1.484,1.484,1.484,0,0,0-1.484-1.484" transform="translate(-56.864 -15.422)" fill="#e3bf81"/>
        <path id="Trazado_884862" data-name="Trazado 884862" d="M270.984,51.118a1.133,1.133,0,1,0,1.132-1.133,1.132,1.132,0,0,0-1.132,1.133" transform="translate(-58.039 -10.706)" fill="#e3bf81"/>
        <path id="Trazado_884863" data-name="Trazado 884863" d="M274.919,41.713a.923.923,0,1,0-.923.923.922.922,0,0,0,.923-.923" transform="translate(-58.487 -8.736)" fill="#e3bf81"/>
        <path id="Trazado_884864" data-name="Trazado 884864" d="M289.438,27.531a1.173,1.173,0,1,0-1.172-1.172,1.172,1.172,0,0,0,1.172,1.172" transform="translate(-61.741 -5.394)" fill="#e3bf81"/>
        <path id="Trazado_884865" data-name="Trazado 884865" d="M281.354,22.206a2.316,2.316,0,1,0-2.316-2.316,2.316,2.316,0,0,0,2.316,2.316" transform="translate(-59.764 -3.764)" fill="#e3bf81"/>
        <path id="Trazado_884866" data-name="Trazado 884866" d="M282.91,32.741a1.139,1.139,0,1,0,1.139-1.139,1.139,1.139,0,0,0-1.139,1.139" transform="translate(-60.593 -6.768)" fill="#e3bf81"/>
        <path id="Trazado_884867" data-name="Trazado 884867" d="M278.486,36.345a1.327,1.327,0,1,0-1.327-1.327,1.327,1.327,0,0,0,1.327,1.327" transform="translate(-59.362 -7.216)" fill="#e3bf81"/>
        <path id="Trazado_884868" data-name="Trazado 884868" d="M281.143,27.871a.605.605,0,1,0,.606.606.606.606,0,0,0-.606-.606" transform="translate(-60.085 -5.969)" fill="#e3bf81"/>
        <path id="Trazado_884869" data-name="Trazado 884869" d="M261.711,36.079a1.264,1.264,0,1,0,1.264,1.264,1.264,1.264,0,0,0-1.264-1.264" transform="translate(-55.782 -7.727)" fill="#e3bf81"/>
        <path id="Trazado_884870" data-name="Trazado 884870" d="M267.388,38.249a.678.678,0,1,0,.678-.678.678.678,0,0,0-.678.678" transform="translate(-57.269 -8.047)" fill="#e3bf81"/>
        <path id="Trazado_884871" data-name="Trazado 884871" d="M249.439,44.19a.6.6,0,1,0-.6.6.6.6,0,0,0,.6-.6" transform="translate(-53.168 -9.336)" fill="#e3bf81"/>
        <path id="Trazado_884872" data-name="Trazado 884872" d="M246.332,49.76a.454.454,0,1,0-.453-.453.453.453,0,0,0,.453.453" transform="translate(-52.662 -10.463)" fill="#e3bf81"/>
        <path id="Trazado_884873" data-name="Trazado 884873" d="M252.506,21.178a1.055,1.055,0,1,0-1.055-1.055,1.055,1.055,0,0,0,1.055,1.055" transform="translate(-53.856 -4.084)" fill="#e3bf81"/>
        <path id="Trazado_884874" data-name="Trazado 884874" d="M246.934,25.185a1.055,1.055,0,1,0,1.055,1.055,1.055,1.055,0,0,0-1.055-1.055" transform="translate(-52.662 -5.394)" fill="#e3bf81"/>
        <path id="Trazado_884875" data-name="Trazado 884875" d="M256.7,11.871a1.4,1.4,0,1,0-1.4-1.4,1.4,1.4,0,0,0,1.4,1.4" transform="translate(-54.679 -1.942)" fill="#e3bf81"/>
        <path id="Trazado_884876" data-name="Trazado 884876" d="M268.375,8.53a.987.987,0,1,0-.987-.987.986.986,0,0,0,.987.987" transform="translate(-57.269 -1.404)" fill="#e3bf81"/>
        <path id="Trazado_884877" data-name="Trazado 884877" d="M264.7,18a.586.586,0,1,0-.586-.586A.586.586,0,0,0,264.7,18" transform="translate(-56.567 -3.604)" fill="#e3bf81"/>
        <path id="Trazado_884878" data-name="Trazado 884878" d="M264.987,14.253a.876.876,0,1,0-.876-.876.876.876,0,0,0,.876.876" transform="translate(-56.567 -2.677)" fill="#e3bf81"/>
        <path id="Trazado_884879" data-name="Trazado 884879" d="M276.105,15.208a.682.682,0,1,0-.682-.682.682.682,0,0,0,.682.682" transform="translate(-58.99 -2.965)" fill="#e3bf81"/>
        <path id="Trazado_884880" data-name="Trazado 884880" d="M280.825,9.654a.921.921,0,1,0-.921-.921.921.921,0,0,0,.921.921" transform="translate(-59.95 -1.673)" fill="#e3bf81"/>
        <path id="Trazado_884881" data-name="Trazado 884881" d="M272.467,21.3a.829.829,0,1,0-.83-.83.83.83,0,0,0,.83.83" transform="translate(-58.179 -4.207)" fill="#e3bf81"/>
        <path id="Trazado_884882" data-name="Trazado 884882" d="M298.552,23.731a.989.989,0,1,0-.989-.989.989.989,0,0,0,.989.989" transform="translate(-63.732 -4.659)" fill="#e3bf81"/>
        <path id="Trazado_884883" data-name="Trazado 884883" d="M268.779,12.5a.528.528,0,1,0,.527.527.528.528,0,0,0-.527-.527" transform="translate(-57.454 -2.677)" fill="#e3bf81"/>
        <path id="Trazado_884884" data-name="Trazado 884884" d="M273.324,12.253a.7.7,0,1,0-.7-.7.7.7,0,0,0,.7.7" transform="translate(-58.39 -2.324)" fill="#e3bf81"/>
        <path id="Trazado_884885" data-name="Trazado 884885" d="M290.183,17.667a1.043,1.043,0,1,0-1.043-1.043,1.043,1.043,0,0,0,1.043,1.043" transform="translate(-61.928 -3.337)" fill="#e3bf81"/>
        <path id="Trazado_884886" data-name="Trazado 884886" d="M304.531,32.984a1.3,1.3,0,1,0-1.3-1.3,1.3,1.3,0,0,0,1.3,1.3" transform="translate(-64.947 -6.509)" fill="#e3bf81"/>
        <path id="Trazado_884887" data-name="Trazado 884887" d="M295.388,36.518a1.009,1.009,0,1,0-1.008-1.008,1.008,1.008,0,0,0,1.008,1.008" transform="translate(-63.05 -7.389)" fill="#e3bf81"/>
        <path id="Trazado_884888" data-name="Trazado 884888" d="M298.454,30.449a1.037,1.037,0,1,0,1.036-1.037,1.036,1.036,0,0,0-1.036,1.037" transform="translate(-63.923 -6.299)" fill="#e3bf81"/>
        <path id="Trazado_884889" data-name="Trazado 884889" d="M288.16,40.145a.769.769,0,1,0-.769-.769.769.769,0,0,0,.769.769" transform="translate(-61.553 -8.269)" fill="#cca25a"/>
        <path id="Trazado_884890" data-name="Trazado 884890" d="M302.1,40.322a.858.858,0,1,0-.858-.858.858.858,0,0,0,.858.858" transform="translate(-64.52 -8.269)" fill="#e3bf81"/>
        <path id="Trazado_884891" data-name="Trazado 884891" d="M310.94,38.149a.54.54,0,1,0-.54-.54.54.54,0,0,0,.54.54" transform="translate(-66.481 -7.939)" fill="#e3bf81"/>
        <path id="Trazado_884892" data-name="Trazado 884892" d="M313.479,36.345a1.327,1.327,0,1,0-1.327-1.327,1.327,1.327,0,0,0,1.327,1.327" transform="translate(-66.856 -7.216)" fill="#e3bf81"/>
        <path id="Trazado_884893" data-name="Trazado 884893" d="M309.158,43.4a.347.347,0,1,0-.347-.347.347.347,0,0,0,.347.347" transform="translate(-66.141 -9.148)" fill="#e3bf81"/>
        <path id="Trazado_884894" data-name="Trazado 884894" d="M289.675,51.854a.7.7,0,1,0-.7.7.705.705,0,0,0,.7-.7" transform="translate(-61.741 -10.955)" fill="#e3bf81"/>
        <path id="Trazado_884895" data-name="Trazado 884895" d="M291.423,61.8a.681.681,0,1,0-.682.682.682.682,0,0,0,.682-.682" transform="translate(-62.125 -13.09)" fill="#e3bf81"/>
        <path id="Trazado_884896" data-name="Trazado 884896" d="M285.473,67.706a1.114,1.114,0,1,0-1.114-1.114,1.114,1.114,0,0,0,1.114,1.114" transform="translate(-60.904 -14.024)" fill="#e3bf81"/>
        <path id="Trazado_884897" data-name="Trazado 884897" d="M293.976,67.962a1.49,1.49,0,1,0,1.49,1.49,1.49,1.49,0,0,0-1.49-1.49" transform="translate(-62.644 -14.556)" fill="#e3bf81"/>
        <path id="Trazado_884898" data-name="Trazado 884898" d="M278.237,65.554a1.079,1.079,0,1,0-1.078-1.078,1.079,1.079,0,0,0,1.078,1.078" transform="translate(-59.362 -13.578)" fill="#e3bf81"/>
        <path id="Trazado_884899" data-name="Trazado 884899" d="M273.268,88.652a1.684,1.684,0,1,0-1.685,1.685,1.684,1.684,0,0,0,1.685-1.685" transform="translate(-57.807 -18.627)" fill="#e3bf81"/>
        <path id="Trazado_884900" data-name="Trazado 884900" d="M272.576,98.715a.47.47,0,1,0-.469.469.469.469,0,0,0,.469-.469" transform="translate(-58.179 -21.042)" fill="#e3bf81"/>
        <path id="Trazado_884901" data-name="Trazado 884901" d="M45.18,72.725c.317-1.114.644-2.154-.07-3.227a5.711,5.711,0,0,0-2.761-2.111c-1.112-.576-.794-1.872-1.858-2.486a3.465,3.465,0,0,0-4.819,2.135A1.851,1.851,0,0,1,34.8,68.59c-.583.43-1.233.87-1.842,1.271a11.782,11.782,0,0,1-3.615,1.67c-1.611.394-2.759-1.121-3.611-2.3a4.244,4.244,0,0,1-.539-3.538,4.044,4.044,0,0,1,.2-.506,115.188,115.188,0,0,0-9.172,11.778,7.245,7.245,0,0,1,.387.981c.206.735-.044,1.018.6,1.586a3.643,3.643,0,0,0,2.607.882c1.554.018,2.678-.355,4.234-.358.659,0,1.723.193,2.275-.174.248-.164.463-1,.611-1.225a6.333,6.333,0,0,1,1.081-1.186c1.178-.984,2.357-.934,3.773-.934a9.293,9.293,0,0,1,1.939.011c1.018.235,1.548,1.3,2.4,1.79,1.785,1.04,2.309-.708,3.481-1.535a8.371,8.371,0,0,1,3.457-1.322c1.917-.194,1.653-1.145,2.112-2.754" transform="translate(-3.476 -13.823)" fill="#e7e1cd"/>
        <path id="Trazado_884902" data-name="Trazado 884902" d="M63.6,32.384a23.55,23.55,0,0,0-7.255,2.825,121.073,121.073,0,0,0-25.795,20.86,8.368,8.368,0,0,1,2.574-.142,4.857,4.857,0,0,0,1.557-.027c.379-.157.471-.56.889-.694a3.031,3.031,0,0,1,1.346.1c.081.018.259.255.412.292a5.649,5.649,0,0,0,1.073-.018,13.292,13.292,0,0,1,1.415-.008c.784.082.528.326,1.117.642,1.071.572,1.689-.141,2.119-.9a5.06,5.06,0,0,1,1.682-1.844,2.392,2.392,0,0,1,1.046-.354,7.089,7.089,0,0,1,1.774-.366c.818.065.363.131.775.64a1.084,1.084,0,0,0,1.163.446c.465-.09.731-.279,1.213-.369.666-.126.932-.155,1.337-.791a4.067,4.067,0,0,1,.521-.879c.486-.505.4-.394.963-.269.881.195,2.174.46,2.9-.147a3.471,3.471,0,0,0,.985-3.015c-.094-.66-.649-.952-.754-1.583-.128-.773.593-1.3,1.088-1.767A15.482,15.482,0,0,0,60.208,42.2c.549-.82,1.736-1.541,2.041-2.438a2.778,2.778,0,0,0,.072-.806,3.632,3.632,0,0,1,.265-1.056,15.435,15.435,0,0,0,.438-1.68c.106-.521.289-.864.36-1.391a13.825,13.825,0,0,1,.07-1.767c.06-.228.105-.453.143-.676" transform="translate(-6.542 -6.936)" fill="#e7e1cd"/>
        <path id="Trazado_884903" data-name="Trazado 884903" d="M191.444,2.836a2.214,2.214,0,0,1,.213-.67c-3.651-.417-8.383-.805-18.193.394a80.535,80.535,0,0,0-10.592,2.35,3.432,3.432,0,0,0,.426.1,17.514,17.514,0,0,0,2.717.027,7.824,7.824,0,0,0,1.356.017,11.428,11.428,0,0,0,1.266-.484c.874-.3,1.669-.679,2.507-1.057.405-.183.62-.355.984-.185a8.486,8.486,0,0,0,.791.721,1.8,1.8,0,0,0,.791.22c.462.083.92.007,1.378.056a8.1,8.1,0,0,1-.222,1.98c.424.2.829-.157,1.23-.035s.629.721.853,1.036a2.217,2.217,0,0,1,.624,1.279,4.759,4.759,0,0,1-.046,1.4c-.133.45-.443.694-.332,1.215a2.889,2.889,0,0,0,.185.369,4.325,4.325,0,0,1,.19,1.011c.945.242,1.961-.337,2.912-.339.482,0,.835.109,1.143-.312a2.716,2.716,0,0,0,.326-1.589,1.132,1.132,0,0,1,.348-1.011,6.084,6.084,0,0,1,1.744-1.052c.452-.207,1.326-.343,1.661-.7.3-.318.093-.752-.06-1.125s-.329-.771.016-1.085c.459-.418,1.773-.332,2.332-.343a10.989,10.989,0,0,1,2.046.153c.321.052.7.148.962-.072.622-.527.358-1.577.442-2.269" transform="translate(-34.884 -0.376)" fill="#5b5f3b"/>
        <path id="Trazado_884904" data-name="Trazado 884904" d="M130.3,10.139c-5.207.888-7.66-.846-12.958.362-11.465,2.614-25.916,8.081-34.712,13.534a23.961,23.961,0,0,1-3.461,1.789c.016.024.024.059.042.08.141.17.446.291.5.5a3.441,3.441,0,0,1-.017.7c0,.332-.207,1.139.321,1.095a1.383,1.383,0,0,1-.357,1.429c-.2.181-.476.256-.625.479a15.118,15.118,0,0,0-.611,1.506c-.294.587-.976,1.149-1.177,1.759a2.958,2.958,0,0,0,.152,1.805c.161.258.266.289.37.558a.392.392,0,0,0,.021.31l.142.078a1.685,1.685,0,0,0,1.058.883,8.524,8.524,0,0,0,1.047.172c.678.12.957.272,1.571-.207a6.367,6.367,0,0,0,1.437-1.248.7.7,0,0,1,.9-.313,5.4,5.4,0,0,1,1.564.592c.565.49.391,1.841.688,2.481.116.249.409.414.511.635a1.753,1.753,0,0,1,.027.691,2.577,2.577,0,0,0,.117,1.239,2.064,2.064,0,0,0,1.294,1c.336.072.685-.042,1.018.01.287.045.575.158.86.215.876.178,1.723.464,2.606.608a7.639,7.639,0,0,0,2.519.061c.144-1.228,1.574-1.4,2.563-1.419a23.192,23.192,0,0,1,2.482.154,4.459,4.459,0,0,1,1.129.064.983.983,0,0,0,.105.6c.215.289.89.315,1.215.362a3.316,3.316,0,0,0,2-.416c.393-.164,1.314-.329,1.557-.742.127-.215.03-.467.089-.707a1.948,1.948,0,0,1,.631-.915c1.08-1.029,2.688-2.078,2.226-3.795a8.255,8.255,0,0,1-.643-2.515,3.8,3.8,0,0,1,.743-1.884,17.089,17.089,0,0,0,1.167-2.392,3.239,3.239,0,0,1,1.147-1.551c.566-.386,1.066-.86,1.664-1.2.813-.457,1.688-.856,2.525-1.269.755-.373,1.486-.736,2.2-1.175.334-.2.719-.3,1.036-.515.77-.527,1.255-1.261,2.238-1.424.414-.068.642.047,1.026-.2a8.391,8.391,0,0,0,1.516-1.507,5.213,5.213,0,0,0,1.155-2.214,10.754,10.754,0,0,0,.152-1.9c.031-.448.08-.59.463-.794a8.338,8.338,0,0,1,2.577-.629,5.084,5.084,0,0,0,1.843-.581c.417-.25.453-.551.736-.941s.676-.711.945-1.14a17.276,17.276,0,0,0,.826-1.547,12.066,12.066,0,0,1,.686-1.186c-.982.218-1.938.413-2.851.569" transform="translate(-16.528 -2.05)" fill="#5b5f3b"/>
        <path id="Trazado_884905" data-name="Trazado 884905" d="M17.119,74.325l.811.377c.241-.05.323.031.512.155a6.783,6.783,0,0,0,1.012.733c.673.3,1.917.82,2.669.493a2.135,2.135,0,0,0,.776-.843c.266-.44.344-.572.809-.708a16.338,16.338,0,0,0,2.119-.358c.491-.222.476-.637.749-1.063.428-.67,1.688-.851,2.425-.883,1.054-.046,1.818.237,2.613-.555a3.389,3.389,0,0,0,.752-1.191c.116-.519-.269-.686-.511-1.059-.345-.532-.686-1.843-.09-2.244.431-.29.749-.21.983-.692a4.506,4.506,0,0,0,.136-1.814,2.29,2.29,0,0,0-.205-1.423c-.2-.291-.5-.488-.685-.793a2.238,2.238,0,0,1,0-2.5c.413-.442.949-.439,1.08-1.127a1.825,1.825,0,0,0-.364-1.367,2.845,2.845,0,0,0-.6-.658,114.891,114.891,0,0,0-14.99,17.518" transform="translate(-3.667 -12.167)" fill="#8e9374"/>
        <path id="Trazado_884906" data-name="Trazado 884906" d="M86.23,28.373c.438.141.842-.157,1.3.035A2.348,2.348,0,0,1,88.6,30.683c.6.164.875-.229,1.314-.421.241,1.51.133,3.163,1.97,3.243.954.042,2.364-.3,2.792-1.164.211-.423.116-.937.354-1.421a1.9,1.9,0,0,1,1.548-1.186c.995-.266,3.469-.268,3.338-1.785,1.033-.319,2.6.378,3.5-.137.813-.463.973-2.566,1.094-3.44a7.511,7.511,0,0,1,.627-2.59,7.437,7.437,0,0,0,.831-2.346c.079-.767-.027-1.584-.012-2.357.022-1.187,0-1.161-.623-1.269a115.031,115.031,0,0,0-20.3,9.1,2.7,2.7,0,0,0-.09,1.91,3.249,3.249,0,0,0,1.29,1.546" transform="translate(-18.164 -3.387)" fill="#c7c6a4"/>
        <path id="Trazado_884907" data-name="Trazado 884907" d="M54.819,133.689c.006.466-.069,1.093.446,1.367s1.344-.029,1.906.035c.533.061.7.357,1.231.07.361-.2.741-.7,1.232-.527s.6.995,1.188,1.15c.273.072.348-.042.563-.1a2.674,2.674,0,0,1,.821-.116c.545.005,1.113.162,1.416-.331.46-.75.057-1.6.864-2.19.53-.385,1.078-.617,1.133-1.354.027-.35-.138-.4-.2-.634a3.2,3.2,0,0,0-.222-.9c-.241-.438-.693-.786-.949-1.213-.183-.3-.046-.434-.4-.663-.4-.258-.941-.051-1.319-.212-.3-.128-.278-.325-.413-.6-.173-.36-.127-.36-.532-.52a3.054,3.054,0,0,0-2.2-.188c-.523.265-.6.928-1.147,1.077-.768.21-1.348-.134-2.11.31a1.657,1.657,0,0,0-.733.615c-.152.3-.036.512-.1.832-.089.462-.575.765-.858,1.156a1.217,1.217,0,0,0-.328.948c.009.331.156.457.218.721.071.3-.053.63.011.926.075.336.263.522.479.343" transform="translate(-11.589 -27.119)" fill="#6d7052"/>
        <g id="Grupo_1103002" data-name="Grupo 1103002" transform="translate(42.124 87.471)" opacity="0.7">
          <g id="Grupo_1103001" data-name="Grupo 1103001">
            <g id="Grupo_1103000" data-name="Grupo 1103000" clip-path="url(#clip-path-8)">
              <path id="Trazado_884908" data-name="Trazado 884908" d="M55.289,116.476c-.1.566.358.887.832,1.065a1.335,1.335,0,0,0,1.7-.427,1.721,1.721,0,0,1,.979-.644c.434-.1,1.243-.013,1.565-.453s-.13-1.258-.154-1.758a7.945,7.945,0,0,1,.265-1.3c.046-.5-.611-.962-1.013-1.19a2.877,2.877,0,0,0-2.06-.1,1.8,1.8,0,0,1-1.317-.088,2.782,2.782,0,0,0-1.326-.266c-.793.013-1.059.264-1.125,1.125a3.183,3.183,0,0,0,.126,1.466c.058.118.25.158.314.273a1.406,1.406,0,0,1,.047.658,6.423,6.423,0,0,0,.247,1.172c.071.41-.191.736.205.949a3.752,3.752,0,0,0,1.424.223Z" transform="translate(-53.605 -111.312)" fill="#bcbdaa"/>
            </g>
          </g>
        </g>
        <path id="Trazado_884909" data-name="Trazado 884909" d="M243.806,49.889a4.471,4.471,0,0,0-.847-2.136,2.419,2.419,0,0,0-.945-1.082c-.695-.364-1.539-.3-2.262-.61a5.742,5.742,0,0,1-2.1-1.035c-.329-.358-.325-.93-.616-1.265-.332-.381-1.011-.252-1.473-.248a9.894,9.894,0,0,0-2.872.057,2.328,2.328,0,0,0-1.359,1.49c-.082.39.086.806-.1,1.169a2.113,2.113,0,0,1-1.124.8,4.352,4.352,0,0,0-1.793,1.051,9.789,9.789,0,0,1-1.9,2.115c-1.055.679-2.434,1-3.207,2.027a8,8,0,0,0-1.4,2.028,2.518,2.518,0,0,1-.349.887,14.141,14.141,0,0,1-1.665,1.728c-.49.439-.882.711-.96,1.4s-.1,1.4-.2,2.075c-.17,1.132-1.2,1.868-1.646,2.873a6.712,6.712,0,0,1-1.045,2.211c-.313.277-.82.479-.826.967,0,.35.244.446.508.651a2.116,2.116,0,0,1,.785.876c.156.352.266.673.49.543a5.934,5.934,0,0,0-.03,1.6c.067,1.456,1.1,1.535,2.079,2.26.642.476,1.241,1.742,2.175,1.625.515-.064.618-.619,1.172-.816.57-.2,1.146.035,1.4-.607a15.993,15.993,0,0,0,.8-2.145,2.081,2.081,0,0,1,1.019-1.232c.937-.673.4-1.8,1.08-2.592.617-.721,1.325-1.135,1.616-2.092A3.788,3.788,0,0,1,229.061,63a6.138,6.138,0,0,1,2.369-1.471c.545-.208.728-.252.764-.944.085-1.691,1.957-2.833,3.5-3.025a1.8,1.8,0,0,1,.125-.6,2.474,2.474,0,0,1,1.114-.781c.743-.35,1.553-.471,2.279-.87a14.192,14.192,0,0,0,1.28-.827c.447-.314.921-.6,1.348-.94.444-.356.967-.666,1.374-1.056.754-.725.661-1.607.595-2.595" transform="translate(-46.073 -9.301)" fill="#f4ebcc"/>
        <path id="Trazado_884910" data-name="Trazado 884910" d="M220.955,67.923c0,.846-.163,1.87.915,2.082.759.149,1.349-.643,1.714-1.264.327-.556.127-1.189.435-1.78a9.5,9.5,0,0,1,2.387-2.856,2.175,2.175,0,0,0,.845-2.139c-.2-.789-.046-.94.718-1.425.637-.4,1.572-.679,1.981-1.376.068-.115.1-.436.178-.524a4.844,4.844,0,0,1,.673-.435c.541-.4,1.2-.446,1.735-.832.42-.3.332-.661.591-1.059.772-1.185,2.306-1.114,3.35-1.887a10.78,10.78,0,0,1,1.022-.765,11.9,11.9,0,0,1,1.889-.466,3.542,3.542,0,0,0,1.007-.436,1.784,1.784,0,0,0,.4-.843c.283-1.049-1.616-.707-2.238-.7-.571,0-1.217.147-1.608-.378a2.947,2.947,0,0,1-.331-1.609,3.2,3.2,0,0,0-.141-.549c-.045-.276.008-.556-.035-.824-.075-.471-.391-.589-.91-.492a3.473,3.473,0,0,0-1.93,1.349c-.2.3-.068.637-.353.871-.352.289-.837.243-1.089.7-.116.212-.061.383-.138.606-.18.527-.725.809-1.059,1.217a6.715,6.715,0,0,1-.649.894c-.668.6-1.635.857-2.213,1.546a3.112,3.112,0,0,0-.815,1.587,1.528,1.528,0,0,1-.019.525c-.154.383-.711.7-1.037.9-.467.281-.98.284-1.44.547a2.72,2.72,0,0,0-1.154,1.825c-.157.49-.164.937-.541,1.3-.314.3-.761.44-1.064.752a1.559,1.559,0,0,0-.369,1.156c-.037.488-.149.938-.173,1.442-.021.436-.341.622-.359,1.056a11.307,11.307,0,0,1-.172,2.287" transform="translate(-47.322 -10.137)" fill="#878e70"/>
        <path id="Trazado_884911" data-name="Trazado 884911" d="M254.53,43.418l-.106.027c.138.392.943.454,1.262.563a3.329,3.329,0,0,0,1.157.233c.52-.01.585-.27.97-.578a1.727,1.727,0,0,1,1.294-.363,1.511,1.511,0,0,0,.62-.022c.369-.195.32-.833.35-1.18a5.981,5.981,0,0,1,.245-1.371,1.876,1.876,0,0,0,.185-.818c-.11-.577-.732-1.065-1.048-1.552-.261-.4-.523-1.116-.994-1.329a1.612,1.612,0,0,0-.7-.06,4.648,4.648,0,0,0-1.232.038,10.278,10.278,0,0,0-1.2.565,2.628,2.628,0,0,0-.583.262c-.507.354-.98.8-1.451,1.2a1.315,1.315,0,0,0-.379,1.366c.062.345.028.688.083,1.023.067.413.451.644.48,1.061.049.686.593.724,1.053.939" transform="translate(-54.16 -7.913)" fill="#f4ebcc"/>
        <path id="Trazado_884912" data-name="Trazado 884912" d="M255.469,42.163c.2.262.568.025.823.135.284.123.236.525.585.578.4.061.438-.359.61-.569.2-.244.455-.046.685-.13.363-.135.139-.675.224-.958.053-.179.257-.265.332-.446a.778.778,0,0,0-.088-.765c-.072-.066-.191-.084-.272-.16a2.547,2.547,0,0,1-.38-.736c-.244-.464-.785-.35-1.232-.351-.3,0-.535.111-.818.121a.839.839,0,0,0-.8.465c-.056.12-.015.248-.1.361-.13.165-.16.051-.332.1-.2.061-.141.021-.174.237a1.307,1.307,0,0,0,0,.354,3.685,3.685,0,0,0,.255.63c.054.141.088.122.079.279,0,.086-.16.112-.105.27.068.194.5.155.481.463Z" transform="translate(-54.511 -8.299)" fill="#bfbba8"/>
        <path id="Trazado_884913" data-name="Trazado 884913" d="M316.054,108.472a3.947,3.947,0,0,0-1.75-2.061,1.687,1.687,0,0,1-.492-.539c-.118-.2-.13-.438-.321-.588a1.015,1.015,0,0,0-.93-.06,3.763,3.763,0,0,0-.915.671,4.031,4.031,0,0,1-.986.557c-.22.088-.5.038-.69.113-.205.08-.324.4-.442.59a3.508,3.508,0,0,1-1.022,1.238,3.68,3.68,0,0,1-.518.139,6.8,6.8,0,0,0-1,.486,6.361,6.361,0,0,0-1.611.97,3.873,3.873,0,0,0-.93,1.475,7.123,7.123,0,0,1-.21.956,5.76,5.76,0,0,1-1.227,1.36c-.328.326-.866.7-1.011,1.149a3.194,3.194,0,0,1-1.518,1.972,14.208,14.208,0,0,1-1.66.435c-.28.083-.541.207-.817.3a5.5,5.5,0,0,1-1.745.077,5.464,5.464,0,0,0-2.114.369,3.481,3.481,0,0,1-.7.1c-.229.045-.4.294-.583.424a1.477,1.477,0,0,1-.625.224c-.562.122-1.12.248-1.671.423a8.537,8.537,0,0,0-2.848,1.469,1.39,1.39,0,0,0-.6.989,1.727,1.727,0,0,1-.292,1.047.993.993,0,0,1-.529.23,4.935,4.935,0,0,1-.921.008c-.387,0-.516.213-.851.339-.451.169-1.212-.153-1.658-.2a5.66,5.66,0,0,0-2.19.16,18.916,18.916,0,0,0-2.74,1.113,1.775,1.775,0,0,0-.62.479c-.479.493-.967.922-1.408,1.462-.306.375-.754.946-.65,1.486.121.629.8.864,1.314,1.058a2.514,2.514,0,0,0,1.337.026c.487-.1.521-.069.765.356a1.109,1.109,0,0,0,.9.5,12.417,12.417,0,0,0,1.412.158c.7.024,1.232-.4,1.9-.473.466-.053.585.391,1.011.542a1.214,1.214,0,0,0,1.21-.19c.214-.248.347-.789.651-.928a2.1,2.1,0,0,1,.744-.02,4.824,4.824,0,0,1,.8-.006c.313.054.339.324.605.493.328.208.722,0,.5-.6.185-.049.2.088.346.124a2.563,2.563,0,0,0,.491,0,10.131,10.131,0,0,0,2.1-.222,4.66,4.66,0,0,0,1.694-.88,2.364,2.364,0,0,1,1.471-.308c.862.026,1.552-.582,2.394-.754.27-.056.541-.06.8-.14a5.681,5.681,0,0,0,.907-.441,9,9,0,0,0,1.236-.757,2.294,2.294,0,0,0,.38-.251,1.865,1.865,0,0,0,.259-.82,3.577,3.577,0,0,1,.222-.936c.21-.245.66-.114.948-.134a7.278,7.278,0,0,0,2.806-.8c.831-.409,1.555-1.038,2.42-1.378.3-.12.66-.1.939-.23a6.537,6.537,0,0,0,1.2-.968,3.7,3.7,0,0,1,.717-.382,12.751,12.751,0,0,0,1.019-.871c.348-.241.771-.224,1.106-.456a4.07,4.07,0,0,0,.712-.878c.189-.233.409-.45.612-.672.093-.1.339-.282.393-.4.065-.14.013-.173.028-.354a4.609,4.609,0,0,1,.189-.772c.068-.258-.009-.525.064-.769a1.456,1.456,0,0,1,.575-.661c.579-.339,1.431-.455,1.56-1.236.056-.335.024-.688.075-1.014a3.648,3.648,0,0,0,.125-.7,9.371,9.371,0,0,0-.143-2.205" transform="translate(-58.95 -22.519)" fill="#f4ebcc"/>
        <path id="Trazado_884914" data-name="Trazado 884914" d="M281.021,132.95a1.574,1.574,0,0,0,.763.112c.272-.05.542-.271.829-.24.544.06.963.569,1.565.3a1.477,1.477,0,0,0,.805-.985c.191-.765-.56-.4-.829-.7-.135-.152-.133-.262-.314-.389a.962.962,0,0,0-.65-.207,1.345,1.345,0,0,0-.766.109c-.218.128-.385.342-.586.486-.255.182-.849-.055-1.035.127-.236.231.255.673.217.92Z" transform="translate(-60.129 -28.022)" fill="#bfbba8"/>
        <path id="Trazado_884915" data-name="Trazado 884915" d="M292.25,129.305a.885.885,0,0,0,.116.468c.106.268.155.308.457.361a7.279,7.279,0,0,0,1.192-.008c.348,0,.714.035,1.06.009.481-.036.39-.363.49-.758a1.236,1.236,0,0,1,.31-.568,2.536,2.536,0,0,1,1.541-.8c.206-.025.414.009.624-.018a2.609,2.609,0,0,0,1.2-.424c.321-.2.66-.159.989-.373a2.517,2.517,0,0,0,.442-.375c.189-.213.1-.44.215-.682.26-.574,1.044-.461,1.55-.617.387-.119.716-.326,1.09-.471.4-.154,1.018.147.891-.428-.1-.45-.013-.739-.554-.832-.223-.039-.5.075-.715.016-.263-.072-.386-.331-.6-.488-.488-.357-.974-.106-1.512-.109-.582,0-1.165,0-1.748,0a5.336,5.336,0,0,0-1.916.109c-.631.25-.758.64-.8,1.28a14.046,14.046,0,0,0-1.747.5,3.121,3.121,0,0,0-1.26.678,2.473,2.473,0,0,0-.377.545,2.688,2.688,0,0,1-.133.41c-.253.354-.875.369-1.217.64-.5.394-.209.81-.178,1.325.02.326.163.23.361.464s.108.64.226.145" transform="translate(-62.445 -26.371)" fill="#878e70"/>
        <path id="Trazado_884916" data-name="Trazado 884916" d="M311.165,119.615c-.021.463.92.184,1.1.1.222-.106.479-.4.726-.433.205-.025.485.185.7.214.71.093,1.106-.582,1.459-1.089a.953.953,0,0,1,.61-.464,3.571,3.571,0,0,0,.861-.38.959.959,0,0,0,.5-.55c.081-.266-.071-.577.027-.832.1-.272.492-.4.7-.563a9.6,9.6,0,0,0,.69-.684,5.309,5.309,0,0,0,.979-1.067.6.6,0,0,1,.31-.317c.35-.19.7-.346,1.052-.554.719-.431,1.281-1.81.267-2.277-.448-.207-.866-.453-1.313-.664a2.144,2.144,0,0,0-1.423-.391c-.563.116-.9.59-1.5.572a1.754,1.754,0,0,0-1.658.93c-.248.465-.146,1.275-.538,1.6-.321.266-.761.361-1.087.629-.445.365-.323.708-.367,1.216a4.742,4.742,0,0,1-.452,1.494,2.116,2.116,0,0,1-.954.875c-.086.054-.163.133-.253.179-.182.094-.519.088-.672.222-.172.15-.114.268-.123.475-.012.25-.123.31-.228.528-.061.128-.175.315-.221.436-.171.457.293.638.8.8" transform="translate(-66.467 -23.482)" fill="#878e70"/>
        <g id="Grupo_1103005" data-name="Grupo 1103005" transform="translate(105.21 41.332)" opacity="0.5">
          <g id="Grupo_1103004" data-name="Grupo 1103004">
            <g id="Grupo_1103003" data-name="Grupo 1103003" clip-path="url(#clip-path-9)">
              <path id="Trazado_884917" data-name="Trazado 884917" d="M205.306,126.285a13.841,13.841,0,0,1-.18-3.705c.019-1.486.32-2.323-1-3.124-1.466-.889-3.758-1.184-5.383-1.852a4.445,4.445,0,0,1-2.643-2.159c-.918-1.627-1.394-3.319-2.712-4.655-1.466-1.487-.912-2.537-.108-4.165A6.268,6.268,0,0,0,193.9,104c.023-1.685-.842-2.34-1.694-3.64a9.066,9.066,0,0,1-1.687-3.612c-.134-1.442.6-3.18-.447-4.419-.934-1.1-2.8-1.737-4.017-2.431-1.3-.743-.941-.84-1.087-2.276-.1-1.005-.7-1.46-1.15-2.365-.7-1.4-.595-2.886-.8-4.4a46.271,46.271,0,0,1-.4-5.787c-.017-1.242-.39-2.346-.5-3.564a21.076,21.076,0,0,0-.08-2.931,22.44,22.44,0,0,1-.365-5.271c0-2.148.031-4.3.009-6.446-.009-.9.086-1.857-.937-2.273-.649-.263-1.27.065-1.881-.273-.8-.443-1.12-1.153-2.116-1.475a3.008,3.008,0,0,0-2.367.013c-.635.325-.775.7-1.137,1.286-.262.424-.557.929-.847,1.348-.075.109-.941.958-.961,1.007-.28.681.011,1.333-.318,2.042a10.192,10.192,0,0,1-2.938,3.036c-1.018.769-1.4.864-1.759,2.085a5.823,5.823,0,0,0-.112,2.95c.1.5.413.849.316,1.383-.153.851-1.451,2.083-1.943,2.6a29.884,29.884,0,0,0-2.746,2.94c-1.066,1.468-1.889,2.629-1.9,4.518a8.89,8.89,0,0,0,.51,3.166c.287.741,1.024,1.485.936,2.31-3.869,1.948-5.023,5.9-4.687,9.989.157,1.918.982,3.589.965,5.537-.01,1.116,0,2.233,0,3.348,0,1.365-.355,3.243.27,4.477.86,1.7,3.407,2.411,3.933,4.2.791,2.688-1.7,3.494-3.528,4.659a7.786,7.786,0,0,1-3.978,1.649c-1.836.1-2.941-.846-4.678-1.211-1.391-.292-5.731-.978-6.525.715-.4.847-.022,1.931-.977,2.625-1.447,1.053-4.314-.734-5.706.27-.541.391-.807,1.826-1.2,2.406-.455.673-1.315,1.339-1.451,2.225-.2,1.278,1.015.7,1.348,1.843a4.437,4.437,0,0,1,.146.929c24.508.045,50.908-.273,69.905-.9" transform="translate(-133.886 -52.598)" fill="#e0e3af"/>
            </g>
          </g>
        </g>
      </g>
    </g>
  </g>
</svg>
