<svg id="Grupo_1103011" data-name="Grupo 1103011" xmlns="http://www.w3.org/2000/svg" xmlns:xlink="http://www.w3.org/1999/xlink" width="178.945" height="139.84" viewBox="0 0 178.945 139.84">
  <defs>
    <clipPath id="clip-path">
      <rect id="Rectángulo_402528" data-name="Rectángulo 402528" width="178.945" height="139.84" fill="none"/>
    </clipPath>
  </defs>
  <g id="Grupo_1103010" data-name="Grupo 1103010" clip-path="url(#clip-path)">
    <path id="Trazado_884918" data-name="Trazado 884918" d="M147.456,110.792c19.237,5.067,31.624,12.623,31.447,21.076a12.068,12.068,0,0,1-.891,4.412l-.031-.43c-1.635,3.506-5.376,6.786-10.815,9.731a1.31,1.31,0,0,1-.147.073c-6.089-13.7-12.623-25.383-19.561-34.863M.979,131.867c0-11.182,21.406-20.809,52.166-25.147-1.127,1.085-2.259,2.2-3.4,3.369a33.688,33.688,0,0,0-5.334,6.938q-12.591,21.388-33.139,27.731C7.535,142.285,3.746,140.6.979,131.867" transform="translate(-0.466 -50.797)" fill="#abbec4" fill-rule="evenodd"/>
    <path id="Trazado_884919" data-name="Trazado 884919" d="M176.367,123.282C147.032,57.3,107.711,38.02,59.093,87.723a33.67,33.67,0,0,0-5.334,6.938Q41.167,116.048,20.62,122.392c14.913,8.751,44.546,14.7,78.665,14.7,32.95,0,61.692-5.555,77.082-13.813" transform="translate(-9.815 -28.425)" fill="#f4d58f" fill-rule="evenodd"/>
    <path id="Trazado_884920" data-name="Trazado 884920" d="M195.112,134.035c-7.085-15.925-14.751-29.13-22.994-39.3-23.56-19.892-51.233-16.742-82.841,15.568a34.587,34.587,0,0,0-5.345,6.938Q74.3,133.613,60,141.172c15.584,4.176,35.858,6.686,58.034,6.686,32.945-.01,61.687-5.565,77.077-13.823" transform="translate(-28.559 -39.178)" fill="#f7e0ad" fill-rule="evenodd"/>
    <path id="Trazado_884921" data-name="Trazado 884921" d="M1.451,162.31c6.225,13.352,43.268,23.617,88.023,23.617,44.772,0,81.814-10.265,88.039-23.617l1.394,21.05c3,44.829-181.885,45.138-178.872,0Z" transform="translate(0 -77.257)" fill="#c8e8f1" fill-rule="evenodd"/>
    <path id="Trazado_884922" data-name="Trazado 884922" d="M30.8,173.954c16.041,7.231,42.9,11.974,73.336,11.974,44.772,0,81.814-10.265,88.039-23.617l1.394,21.05a15.746,15.746,0,0,1-2.51,9.61C146.1,213.543,34.692,207.349,30.8,173.954" transform="translate(-14.66 -77.257)" fill="#e1f3f9" fill-rule="evenodd"/>
    <path id="Trazado_884923" data-name="Trazado 884923" d="M77.375,3.668a3.668,3.668,0,0,1,7.336,0V5.717a3.668,3.668,0,0,1-7.336,0Zm30.183,14.615a3.668,3.668,0,0,1,7.336,0v2.049a3.668,3.668,0,0,1-7.336,0ZM73.6,38.725a3.668,3.668,0,1,1,7.336,0v2.049a3.668,3.668,0,1,1-7.336,0ZM68.42,23.942a3.66,3.66,0,1,1,7.32,0v2.049a3.66,3.66,0,1,1-7.32,0Zm19.488-4.4a3.668,3.668,0,0,1,7.336,0v2.049a3.668,3.668,0,0,1-7.336,0ZM104.886,3.668a3.668,3.668,0,0,1,7.336,0V5.717a3.668,3.668,0,0,1-7.336,0Z" transform="translate(-32.567)" fill="#f4d58f"/>
  </g>
</svg>
