<svg id="Grupo_1103177" data-name="Grupo 1103177" xmlns="http://www.w3.org/2000/svg" xmlns:xlink="http://www.w3.org/1999/xlink" width="300.215" height="248.895" viewBox="0 0 300.215 248.895">
  <defs>
    <clipPath id="clip-path">
      <rect id="Rectángulo_402676" data-name="Rectángulo 402676" width="300.215" height="248.895" fill="none"/>
    </clipPath>
    <clipPath id="clip-path-2">
      <path id="Trazado_885094" data-name="Trazado 885094" d="M738.214,377.838c0,10.517,3.681,19.723,9.187,24.79,1.372,1.263,4.424.2,4.293-1.66-.108-1.532-.165-3.127-.165-4.765,0-11.707,2.081-21.2,5.675-21.2s5.676,9.49,5.676,21.2c0,1.638-.057,3.234-.165,4.765-.131,1.861,2.921,2.924,4.293,1.661,5.505-5.067,9.187-14.273,9.187-24.791,0-15.984-8.5-28.942-18.99-28.942s-18.989,12.958-18.989,28.942" transform="translate(-738.214 -348.896)" fill="none"/>
    </clipPath>
  </defs>
  <g id="Grupo_1103172" data-name="Grupo 1103172">
    <g id="Grupo_1103171" data-name="Grupo 1103171" clip-path="url(#clip-path)">
      <path id="Trazado_885088" data-name="Trazado 885088" d="M73.271,48.467c9.22-32.294,78.835-50.6,129.5-31.1,8.622,3.319,42.159,16.227,48.514,42.571,4.1,17-6.763,24.5-1.577,43.386,6.053,22.04,23.976,23.184,29.406,42.413,6.729,23.826-13.281,48.653-16.959,53.217-21.5,26.673-53.547,31.331-103.494,37.83-54.388,7.077-83.1,9.605-110.274-9.048-33.147-22.754-53.076-70.584-38.67-91.784,15.776-23.216,65.506-3.867,77.125-26.407C96.3,91.195,66.452,72.354,73.271,48.467" transform="translate(-3.236 -6.092)" fill="#b2e2c4"/>
      <path id="Trazado_885089" data-name="Trazado 885089" d="M374.75,81.5c-26.507-23.041-17.32-48.7-37.636-57.726-15.085-6.7-34.907.878-46.347,12.145-16.858,16.6-17.829,43.92-8.121,60.552,12.566.176,26.8-1.285,41.785-2.828a264.911,264.911,0,0,0,52.11-10.759c-.73-.518-1.324-.977-1.791-1.383" transform="translate(-180.055 -13.846)" fill="#12263f"/>
      <path id="Trazado_885090" data-name="Trazado 885090" d="M816.44,497.376l2.582-.1.749-2-1.5-1.749Z" transform="translate(-531.758 -321.438)" fill="#8a8aff"/>
      <path id="Trazado_885091" data-name="Trazado 885091" d="M769.211,348.9c-6.322,0-11.923,4.709-15.374,11.952h24.411v42.214a2.014,2.014,0,0,0,.766-.433c5.505-5.067,9.186-14.274,9.186-24.791,0-15.984-8.5-28.942-18.989-28.942" transform="translate(-490.984 -227.241)" fill="#bbb4f8"/>
      <path id="Trazado_885092" data-name="Trazado 885092" d="M757.2,348.9c-10.487,0-18.989,12.958-18.989,28.942,0,10.517,3.681,19.723,9.186,24.791,1.372,1.263,4.424.2,4.293-1.661-.108-1.532-.165-3.127-.165-4.765,0-11.706,2.081-21.2,5.675-21.2s5.675,9.49,5.675,21.2c0,1.638-.057,3.234-.165,4.765-.131,1.861,2.921,2.924,4.293,1.661,5.505-5.067,9.186-14.273,9.186-24.791,0-15.984-8.5-28.942-18.99-28.942" transform="translate(-480.809 -227.241)" fill="#f95f6a"/>
    </g>
  </g>
  <g id="Grupo_1103174" data-name="Grupo 1103174" transform="translate(257.406 121.655)">
    <g id="Grupo_1103173" data-name="Grupo 1103173" clip-path="url(#clip-path-2)">
      <path id="Trazado_885093" data-name="Trazado 885093" d="M772.242,397.477c0-5.658-10.478-10.244-23.4-10.244s-23.4,4.586-23.4,10.244,10.478,10.244,23.4,10.244S772.242,403.135,772.242,397.477Z" transform="translate(-729.891 -373.865)" fill="none" stroke="#fb9c98" stroke-linecap="round" stroke-miterlimit="10" stroke-width="2.627"/>
      <circle id="Elipse_11651" data-name="Elipse 11651" cx="20.905" cy="20.905" r="20.905" transform="translate(-1.915 2.748)" fill="none" stroke="#fb9c98" stroke-linecap="round" stroke-miterlimit="10" stroke-width="2.627"/>
      <ellipse id="Elipse_11652" data-name="Elipse 11652" cx="10.661" cy="6.913" rx="10.661" ry="6.913" transform="translate(8.329 16.158)" fill="none" stroke="#fb9c98" stroke-linecap="round" stroke-miterlimit="10" stroke-width="2.627"/>
    </g>
  </g>
  <g id="Grupo_1103176" data-name="Grupo 1103176">
    <g id="Grupo_1103175" data-name="Grupo 1103175" clip-path="url(#clip-path)">
      <path id="Trazado_885095" data-name="Trazado 885095" d="M790.625,410.034a2.5,2.5,0,1,0-2.5,2.5,2.5,2.5,0,0,0,2.5-2.5" transform="translate(-511.69 -265.433)" fill="#d3d5fc"/>
      <path id="Trazado_885096" data-name="Trazado 885096" d="M791.542,386.087c0-1.61-.522-2.915-1.166-2.915s-1.166,1.305-1.166,2.915.522,2.915,1.166,2.915,1.166-1.305,1.166-2.915" transform="translate(-514.023 -249.565)" fill="#d3d5fc"/>
      <path id="Trazado_885097" data-name="Trazado 885097" d="M791.542,345.959c0-1.61-.522-2.915-1.166-2.915s-1.166,1.305-1.166,2.915.522,2.915,1.166,2.915,1.166-1.305,1.166-2.915" transform="translate(-514.023 -223.429)" fill="#d3d5fc"/>
      <path id="Trazado_885098" data-name="Trazado 885098" d="M547.024,18.911a2.455,2.455,0,0,0-.345-3.436,2.455,2.455,0,0,0-3.45-.157,2.455,2.455,0,0,0,.345,3.436,2.455,2.455,0,0,0,3.45.157" transform="translate(-353.451 -9.563)" fill="#186963"/>
      <path id="Trazado_885099" data-name="Trazado 885099" d="M532.456,9.324a2.455,2.455,0,0,0-.345-3.436,2.455,2.455,0,0,0-3.45-.157,2.455,2.455,0,0,0,.345,3.436,2.455,2.455,0,0,0,3.45.157" transform="translate(-343.963 -3.318)" fill="#186963"/>
      <path id="Trazado_885100" data-name="Trazado 885100" d="M524.491,15.721a12.658,12.658,0,0,1,3.883.2,13.557,13.557,0,0,1,2.75.889l-.027-4.415a13.548,13.548,0,0,1-2.74.922c-.382.084-.752.147-1.111.193a31.379,31.379,0,0,1,3.224-2.021l-4.13-3.912A31.381,31.381,0,0,1,523.8,11.95q-.233.336-.468.656a15.142,15.142,0,0,1,.2-1.917,15.764,15.764,0,0,1,.836-3.018l-4.414.1a15.751,15.751,0,0,1,.975,2.976,15.07,15.07,0,0,1,.3,4.422c-.328.361-1.589,1.692-3.016,3.185q.951.917,1.863,1.876c1.872-1.982,3.729-3.9,4.4-4.511" transform="translate(-337.527 -4.933)" fill="#a6de99"/>
      <path id="Trazado_885101" data-name="Trazado 885101" d="M525.833,6.367a2.03,2.03,0,1,0-2.869.078,2.029,2.029,0,0,0,2.869-.078" transform="translate(-340.201 -1.916)" fill="#7bc46a"/>
      <path id="Trazado_885102" data-name="Trazado 885102" d="M553.047,24.614a2.641,2.641,0,0,0-3.795-3.593,2.455,2.455,0,0,0,.345,3.436,2.455,2.455,0,0,0,3.45.157" transform="translate(-357.374 -13.277)" fill="#7bc46a"/>
      <path id="Trazado_885103" data-name="Trazado 885103" d="M533.916,5.009a2.968,2.968,0,1,0-4.2.114,2.969,2.969,0,0,0,4.2-.114" transform="translate(-344.41 0)" fill="#7bc46a"/>
      <path id="Trazado_885104" data-name="Trazado 885104" d="M546.307,7.089a3.818,3.818,0,1,0-5.4.147,3.818,3.818,0,0,0,5.4-.147" transform="translate(-351.525 -0.421)" fill="#7bc46a"/>
      <path id="Trazado_885105" data-name="Trazado 885105" d="M626.62,172.8a29.434,29.434,0,0,0,2.009-6.025l-.015,0a.047.047,0,0,0,0,.008,10.743,10.743,0,0,0-20.033-7.443l-.066.135a4.033,4.033,0,0,1-5.821,1.652A15.069,15.069,0,1,0,588.266,187.5a15.407,15.407,0,0,0,1.46.581A29.335,29.335,0,0,0,626.62,172.8" transform="translate(-377.415 -99.887)" fill="#653087"/>
      <path id="Trazado_885106" data-name="Trazado 885106" d="M681.823,143.684h0a10.419,10.419,0,0,0-13.811,5.134l-.547,1.195,5.939.8a6.906,6.906,0,0,0,2-.023,6.952,6.952,0,0,0-.043,1.5l.475,5.974,4.6-3.836a6.944,6.944,0,0,0,.529-.491,6.951,6.951,0,0,0,.925,1.178l4.188,4.286.871-1.9a10.419,10.419,0,0,0-5.134-13.811" transform="translate(-434.728 -92.965)" fill="#a6de99"/>
      <path id="Trazado_885107" data-name="Trazado 885107" d="M707.3,142.887l.466-1.018a3.29,3.29,0,0,1,4.361-1.621" transform="translate(-460.677 -91.15)" fill="none" stroke="#1b8756" stroke-linecap="round" stroke-linejoin="round" stroke-width="2.549"/>
      <path id="Trazado_885108" data-name="Trazado 885108" d="M702.34,143.768h0a10.4,10.4,0,0,0-3.374-.9,10.425,10.425,0,0,1,2.53,11.163,6.968,6.968,0,0,0,.919,1.168l4.188,4.286.871-1.9a10.419,10.419,0,0,0-5.134-13.811" transform="translate(-455.246 -93.049)" fill="#7bc46a"/>
      <path id="Trazado_885109" data-name="Trazado 885109" d="M604.8,183.6a3.024,3.024,0,1,0-4.008,1.49,3.024,3.024,0,0,0,4.008-1.49" transform="translate(-390.153 -116.788)" fill="#8754af"/>
      <path id="Trazado_885110" data-name="Trazado 885110" d="M656.778,186.359a15.3,15.3,0,0,0-4.292-5.917" transform="translate(-424.973 -117.524)" fill="none" stroke="#8754af" stroke-linecap="round" stroke-linejoin="round" stroke-width="2.549"/>
      <path id="Trazado_885111" data-name="Trazado 885111" d="M52.977,379.938,20.319,345.787,9.445,349.855l5.274,14.1,4.831-1.807L18.1,392.988Z" transform="translate(-6.152 -225.215)" fill="#f89f4f"/>
      <path id="Trazado_885112" data-name="Trazado 885112" d="M65.067,450.264l-10.285,5.684c9.454-3.537,27.765-11.205,27.71-12.2Z" transform="translate(-35.68 -289.016)" fill="#f89f4f"/>
      <path id="Trazado_885113" data-name="Trazado 885113" d="M3.079,468.466c.615.789,8.574-1.372,18.028-4.909s16.877-7.132,16.823-8.131Z" transform="translate(-2.005 -296.626)" fill="#fdc854"/>
      <path id="Trazado_885114" data-name="Trazado 885114" d="M5.3,357.455,3.858,388.1a2.089,2.089,0,1,1-.2,4.174l-.582,12.38,34.878-13.05Z" transform="translate(-2.005 -232.815)" fill="#fdc854"/>
      <path id="Trazado_885115" data-name="Trazado 885115" d="M22.126,452.4a2.089,2.089,0,1,0-1.225,2.689,2.089,2.089,0,0,0,1.225-2.689" transform="translate(-11.775 -293.77)" fill="#f89f4f"/>
      <path id="Trazado_885116" data-name="Trazado 885116" d="M98.173,425.517a1.477,1.477,0,1,0-.866,1.9,1.477,1.477,0,0,0,.866-1.9" transform="translate(-62.077 -276.52)" fill="#f89f4f"/>
      <path id="Trazado_885117" data-name="Trazado 885117" d="M74.963,409.454a1.734,1.734,0,1,0-1.017,2.232,1.735,1.735,0,0,0,1.017-2.232" transform="translate(-46.637 -265.948)" fill="#f89f4f"/>
      <path id="Trazado_885118" data-name="Trazado 885118" d="M65.122,383.014a1.226,1.226,0,1,0-.719,1.578,1.227,1.227,0,0,0,.719-1.578" transform="translate(-40.868 -248.943)" fill="#f89f4f"/>
      <path id="Trazado_885119" data-name="Trazado 885119" d="M40.431,373.938a.773.773,0,1,0-.453,1,.773.773,0,0,0,.453-1" transform="translate(-25.357 -243.223)" fill="#f89f4f"/>
      <path id="Trazado_885120" data-name="Trazado 885120" d="M66.508,440.4a2.788,2.788,0,1,0-1.634,3.589,2.788,2.788,0,0,0,1.634-3.589" transform="translate(-39.8 -285.657)" fill="#f89f4f"/>
      <path id="Trazado_885121" data-name="Trazado 885121" d="M16.845,402.892a2.115,2.115,0,1,0-1.24,2.722,2.115,2.115,0,0,0,1.24-2.722" transform="translate(-8.303 -261.514)" fill="#f89f4f"/>
      <path id="Trazado_885122" data-name="Trazado 885122" d="M21.169,429.685a1.119,1.119,0,1,0-.656,1.44,1.119,1.119,0,0,0,.656-1.44" transform="translate(-12.376 -279.386)" fill="#f89f4f"/>
      <path id="Trazado_885123" data-name="Trazado 885123" d="M67.131,416.92a1.119,1.119,0,1,0-.656,1.44,1.119,1.119,0,0,0,.656-1.44" transform="translate(-42.311 -271.072)" fill="#f89f4f"/>
      <path id="Trazado_885124" data-name="Trazado 885124" d="M43.706,390.066a1.119,1.119,0,1,0-.656,1.44,1.119,1.119,0,0,0,.656-1.44" transform="translate(-27.054 -253.581)" fill="#f89f4f"/>
      <path id="Trazado_885125" data-name="Trazado 885125" d="M20.386,379.52a1.521,1.521,0,1,0-.892,1.957,1.521,1.521,0,0,0,.892-1.957" transform="translate(-11.359 -246.542)" fill="#f89f4f"/>
      <path id="Trazado_885126" data-name="Trazado 885126" d="M42.116,416.652a2.22,2.22,0,1,0,2.857,1.3,2.22,2.22,0,0,0-2.857-1.3" transform="translate(-26.491 -271.279)" fill="#f89f4f"/>
      <path id="Trazado_885127" data-name="Trazado 885127" d="M652.052,338.771c3.489-4.731,5.573-15.587.842-19.076s-14.486,1.71-17.975,6.441a10.644,10.644,0,1,0,17.133,12.635" transform="translate(-412.178 -207.479)" fill="#fff"/>
      <path id="Trazado_885128" data-name="Trazado 885128" d="M658.912,348.174a5.61,5.61,0,1,0-8.12,1.6,5.863,5.863,0,0,0,8.12-1.6" transform="translate(-422.467 -220.75)" fill="#fdc854"/>
      <path id="Trazado_885129" data-name="Trazado 885129" d="M676.278,349.82a5.517,5.517,0,0,0-1.186-7.3" transform="translate(-439.696 -223.086)" fill="none" stroke="#ed8b02" stroke-linecap="round" stroke-linejoin="round" stroke-width="1.823"/>
      <path id="Trazado_885130" data-name="Trazado 885130" d="M668.777,368.268a6.074,6.074,0,0,0,2.558-1.637" transform="translate(-435.583 -238.792)" fill="none" stroke="#ed8b02" stroke-linecap="round" stroke-linejoin="round" stroke-width="1.823"/>
      <path id="Trazado_885131" data-name="Trazado 885131" d="M655.311,369.341a4.986,4.986,0,0,0,2.983.967" transform="translate(-426.813 -240.557)" fill="none" stroke="#ed8b02" stroke-linecap="round" stroke-linejoin="round" stroke-width="1.823"/>
      <path id="Trazado_885132" data-name="Trazado 885132" d="M656.222,352.958a1.317,1.317,0,1,0-1.842.278,1.317,1.317,0,0,0,1.842-.278" transform="translate(-425.858 -228.519)" fill="#f0f1ec"/>
      <path id="Trazado_885133" data-name="Trazado 885133" d="M93.4,175.3c6.035,5.183,1.506,20.324-2.545,28.2-2.338,4.549-8.458,16.456-18.025,16.54-10.26.091-20.037-13.459-18.873-24.386C55.8,178.3,85.18,168.244,93.4,175.3" transform="translate(-35.08 -112.693)" fill="#efeefe"/>
      <path id="Trazado_885134" data-name="Trazado 885134" d="M366.149,404.4c-3.568-47.558-5.526-82.448-4.428-101.955.391-6.954,1.894-24.8-9.4-38.269-1.448-1.726-2.468-3.252-3.378-3.519L303.309,247.3l-38.951,12.317q-3.132,43.942-6.5,87.86-2.128,27.761-4.35,55.521a257.031,257.031,0,0,0,112.641,1.4" transform="translate(-165.113 -161.071)" fill="#f9e0d2"/>
      <path id="Trazado_885135" data-name="Trazado 885135" d="M480.3,413.881c-2.81-21.55-3.777-39.086-4.147-51.009-.8-25.795,1-31.747-1.718-49.984-3.372-22.593-4.475-25.065-8.077-39.68-.349-1.415-.457-6.673-1.855-7.082-9.575-2.8-20.122-1.464-29.7-4.266a17.946,17.946,0,0,0-5.377,8.026c-3.254,10.608,6.379,20.389,11.756,30.3,5.921,10.918,4.223,17.406,3.262,55.549-.362,14.384-.686,35.972-.219,63.134,5.293-.357,10.887-.9,16.744-1.676,6.882-.915,13.337-2.054,19.329-3.316" transform="translate(-279.267 -170.554)" fill="#f9e0d2"/>
      <path id="Trazado_885136" data-name="Trazado 885136" d="M34.681,562.005s-3.85,10.528-20.908,7.519-6.427-9.567-6.427-9.567a22.11,22.11,0,0,0,20.215.051Z" transform="translate(-2.652 -364.707)" fill="#f6a19e"/>
      <path id="Trazado_885137" data-name="Trazado 885137" d="M591.974,481.474a357.363,357.363,0,0,0-2.057-39.548q-.3-2.823-.649-5.59l-28.009.969c-.27,19.387,2.8,43.792,12.438,73.6a6.726,6.726,0,0,0,8.811,4.2c7.852-3.011,23.29-10.863,50.186-31.334l-16.91-5.7Z" transform="translate(-365.545 -284.191)" fill="#f6a19e"/>
      <path id="Trazado_885138" data-name="Trazado 885138" d="M1.746,563.9s-4.15-5.056.348-6.309,10.363,4.909,10.363,4.909l-.028,3.871-2.285.9Z" transform="translate(0 -363.053)" fill="#f6a19e"/>
      <path id="Trazado_885139" data-name="Trazado 885139" d="M69.462,559.681a2.948,2.948,0,1,0-3.9,1.475,2.948,2.948,0,0,0,3.9-1.475" transform="translate(-41.571 -361.818)" fill="#f6a19e"/>
      <path id="Trazado_885140" data-name="Trazado 885140" d="M605.357,566c5.223-2.466,13.635-3.248,13.719-3.256a1.017,1.017,0,0,0,.247-.054.987.987,0,0,0,.461-.356c0-.385,0-.772,0-1.159a.988.988,0,0,0-.887-.4c-.359.032-8.844.823-14.388,3.437a.991.991,0,0,0,.846,1.793" transform="translate(-393.356 -365.233)" fill="#f26d6d"/>
      <path id="Trazado_885141" data-name="Trazado 885141" d="M98,464.033q-.316,1.741-.613,3.508a245.773,245.773,0,0,0-3.326,38.467L58.775,496.47,53.288,505.1c28.125,25.124,43.263,33.468,49.926,36.225a4.511,4.511,0,0,0,5.875-2.422c12.89-30.613,18.018-55.871,19.145-75.919Z" transform="translate(-34.707 -301.55)" fill="#f6a19e"/>
      <path id="Trazado_885142" data-name="Trazado 885142" d="M184.821,585.321c-5.322-3.041-13.719-4.5-14.074-4.555a.977.977,0,0,0-.5.047q-.014.931-.022,1.85a.992.992,0,0,0,.187.057c.083.014,8.4,1.454,13.422,4.322a.991.991,0,1,0,.984-1.721" transform="translate(-110.872 -378.252)" fill="#f26d6d"/>
      <path id="Trazado_885143" data-name="Trazado 885143" d="M669.617,564.989s-27.826,22.191-41.572,33.089c8.109-3.42,22.507-11.191,45.951-28.845Z" transform="translate(-409.054 -367.985)" fill="#f26d6d"/>
      <path id="Trazado_885144" data-name="Trazado 885144" d="M717.662,549.8s2.9,10.838,22.471,8.339c12.233-1.562,12.5-4.892,10.984-7.169-.228-.342-1.173-1.785-4.142-2.362-4.841-.942-6.879,1.979-10.976,1.428a10.412,10.412,0,0,1-6.22-3.573L717.662,549.8" transform="translate(-467.423 -355.917)" fill="#f6a19e"/>
      <path id="Trazado_885145" data-name="Trazado 885145" d="M388.273,206.822q-2.306-.508-4.548-.985a9.823,9.823,0,0,1-7.761-9.267l-.77-22.273-25.854.894.7,20.116a9.825,9.825,0,0,1-8.067,10.007l-3.693.669a25.509,25.509,0,0,0-.815,7.354h0c.487,14.076,18.581,26.666,32.657,26.179s18.8-13.866,18.318-27.942h0c-.035-1.013-.015-3.773-.164-4.752" transform="translate(-219.784 -113.521)" fill="#fb9c98"/>
      <path id="Trazado_885146" data-name="Trazado 885146" d="M396.743,161.81l-.534-11.64-25.849,2.154.815,18.117a15.613,15.613,0,0,0,7.25,2.5c7.308.565,14.1-4.36,18.318-11.132" transform="translate(-241.22 -97.808)" fill="#f26d6d"/>
      <path id="Trazado_885147" data-name="Trazado 885147" d="M349,66.444c-.909.706-7.807,6.235-9.27,15.432-1.944,12.215,6.114,28.293,18.424,29.244,11.779.91,22.212-12.435,22.721-24.8.452-10.961-6.8-23.451-16.861-24.974-7.075-1.07-13.137,3.644-15.013,5.1" transform="translate(-221.081 -39.851)" fill="#fb9c98"/>
      <path id="Trazado_885148" data-name="Trazado 885148" d="M381.423,177.169c-.2.916,1.392,2.441,2.754,3.055,2.384,1.075,5.3-.075,6.833-3.117-7.436-1.372-9.39-.832-9.587.061" transform="translate(-248.414 -114.81)" fill="#fff"/>
      <path id="Trazado_885149" data-name="Trazado 885149" d="M386.33,124.925c-.04.7-.923,6.193-1.346,8.8a1.459,1.459,0,0,0,1.136,1.661l2.427.522" transform="translate(-250.732 -81.365)" fill="none" stroke="#f26d6d" stroke-linecap="round" stroke-miterlimit="10" stroke-width="2.64"/>
      <path id="Trazado_885150" data-name="Trazado 885150" d="M427.428,150.935c-.055-1.592-1.972-2.818-4.281-2.739s-4.137,1.436-4.082,3.028,1.972,2.818,4.282,2.738,4.137-1.435,4.082-3.028" transform="translate(-272.942 -96.52)" fill="#f26d6d"/>
      <path id="Trazado_885151" data-name="Trazado 885151" d="M346.026,150.918a5.04,5.04,0,0,0-3.241,1.21,31.362,31.362,0,0,0,1.588,4.322,5.747,5.747,0,0,0,1.853.234c2.309-.08,4.137-1.435,4.082-3.028s-1.972-2.818-4.281-2.739" transform="translate(-223.26 -98.293)" fill="#f26d6d"/>
      <path id="Trazado_885152" data-name="Trazado 885152" d="M364.639,117.485s-3.657-3.182-5.69.2" transform="translate(-233.788 -75.635)" fill="none" stroke="#2e3192" stroke-linecap="round" stroke-miterlimit="10" stroke-width="3.044"/>
      <path id="Trazado_885153" data-name="Trazado 885153" d="M412.118,115.842s-3.657-3.181-5.69.2" transform="translate(-264.712 -74.566)" fill="none" stroke="#2e3192" stroke-linecap="round" stroke-miterlimit="10" stroke-width="3.044"/>
      <path id="Trazado_885154" data-name="Trazado 885154" d="M449.833,113.71a6.683,6.683,0,1,0-7.014,6.336,6.683,6.683,0,0,0,7.014-6.336" transform="translate(-284.282 -69.487)" fill="#fb9c98"/>
      <path id="Trazado_885155" data-name="Trazado 885155" d="M461.037,119.568c.046-1.84-.958-3.423-2.242-3.536s-2.362,1.288-2.408,3.128.958,3.423,2.242,3.536,2.362-1.287,2.408-3.128" transform="translate(-297.25 -75.568)" fill="#f26d6d"/>
      <path id="Trazado_885156" data-name="Trazado 885156" d="M344.966,39.654c-1.973,5.5,10.768,14.24,12.026,15.089,10.85,7.321,27.3,10.636,31.18,4.923,2.85-4.2-1.469-12.713-6.272-17.455-11.679-11.531-34.608-9.042-36.933-2.557" transform="translate(-224.546 -22.259)" fill="#12263f"/>
      <path id="Trazado_885157" data-name="Trazado 885157" d="M356.883,56.319a45.232,45.232,0,0,0,33.592,15.932" transform="translate(-232.443 -36.681)" fill="none" stroke="#191245" stroke-linecap="round" stroke-miterlimit="10" stroke-width="3.044"/>
      <path id="Trazado_885158" data-name="Trazado 885158" d="M209.224,352.135q.561-2.534,1.095-5.121c4.961-24.076.251-45.767.648-64.511,0,0-27.205,15.89-39.514,64.663Z" transform="translate(-111.669 -183.998)" fill="#f9e0d2"/>
      <path id="Trazado_885159" data-name="Trazado 885159" d="M537.337,343.34q-.735-2.489-1.446-5.033c-6.612-23.676-3.412-45.641-5.1-64.311,0,0,28.238,13.973,43.887,61.779Z" transform="translate(-345.709 -178.457)" fill="#f9e0d2"/>
      <path id="Trazado_885160" data-name="Trazado 885160" d="M736.782,542.22c-.617-1.423,3.4-4.207,5.206-5.253,1.9-1.1,2.475-.927,2.737-.759.812.517.62,2.282.221,3.351a5.172,5.172,0,0,1-2.393,2.636c-2.147,1.189-5.295,1.125-5.771.025" transform="translate(-479.834 -349.16)" fill="#f6a19e"/>
      <path id="Trazado_885161" data-name="Trazado 885161" d="M172.141,196.762s.974-5.741,3.965-6.6" transform="translate(-112.118 -123.855)" fill="none" stroke="#a54c4c" stroke-linecap="round" stroke-linejoin="round" stroke-width="4.449"/>
      <path id="Trazado_885162" data-name="Trazado 885162" d="M145.083,201.405a3.171,3.171,0,0,0-3.385-.508,5.224,5.224,0,0,1-6.4-1.742,3.2,3.2,0,0,0-3.238-1.267,15.3,15.3,0,0,0-8.19,25.525,6.911,6.911,0,0,0,5.71,2.166,5.245,5.245,0,0,1,3.634.99,6.911,6.911,0,0,0,6.019,1.03,15.3,15.3,0,0,0,5.845-26.193" transform="translate(-77.957 -128.846)" fill="#f95f6a"/>
      <path id="Trazado_885163" data-name="Trazado 885163" d="M148.314,166.526h0a11.662,11.662,0,0,1,8.186,14.318A11.662,11.662,0,0,1,148.314,166.526Z" transform="translate(-96.33 -108.461)" fill="#a6de99"/>
      <path id="Trazado_885164" data-name="Trazado 885164" d="M174.291,206.752a3.152,3.152,0,0,0-1.443-.718,17.575,17.575,0,0,1-8.311,26.919,7.034,7.034,0,0,0,3.909-.008,15.3,15.3,0,0,0,5.845-26.193" transform="translate(-107.165 -134.193)" fill="#ce3a5e"/>
      <path id="Trazado_885165" data-name="Trazado 885165" d="M133.832,216.184c1.025-1.831,1.226-3.669.448-4.1s-2.241.7-3.266,2.527-1.226,3.669-.448,4.1,2.241-.7,3.266-2.527" transform="translate(-84.73 -138.069)" fill="#fb9c98"/>
      <path id="Trazado_885166" data-name="Trazado 885166" d="M307.452,453.311c1.028.932,14.354,9.891,32.626,2.855" transform="translate(-200.248 -295.247)" fill="none" stroke="#ffc5ae" stroke-miterlimit="10" stroke-width="7.807"/>
      <path id="Trazado_885167" data-name="Trazado 885167" d="M513.5,418.58s1.766,17.439-19.337,17.64" transform="translate(-321.856 -272.627)" fill="none" stroke="#ffc5ae" stroke-miterlimit="10" stroke-width="7.807"/>
    </g>
  </g>
</svg>
