<svg id="Grupo_1103077" data-name="Grupo 1103077" xmlns="http://www.w3.org/2000/svg" xmlns:xlink="http://www.w3.org/1999/xlink" width="118.347" height="116.466" viewBox="0 0 118.347 116.466">
  <defs>
    <clipPath id="clip-path">
      <rect id="Rectángulo_402622" data-name="Rectángulo 402622" width="118.347" height="116.466" fill="none"/>
    </clipPath>
  </defs>
  <g id="Grupo_1103076" data-name="Grupo 1103076" clip-path="url(#clip-path)">
    <path id="Trazado_885004" data-name="Trazado 885004" d="M36.083,221.22a7.544,7.544,0,0,1-1.13,1.534,1.642,1.642,0,0,1-1.211.484c-11.543-.565-11.543-.565-22.44,3.471a1.463,1.463,0,0,1-1.292-.081c-2.5-1.292-4.036-4.763-4.278-8.153a2.389,2.389,0,0,1,.161-.807,11.507,11.507,0,0,1,1.13-1.614,1.642,1.642,0,0,1,1.211-.484c11.543.565,11.543.565,22.359-3.471a1.628,1.628,0,0,1,1.372.161c1.937,1.049,3.309,3.471,4.2,7.184v.161c0,.242.081.565.081.807a2.867,2.867,0,0,1-.161.807" transform="translate(-4.031 -149.076)" fill="#f0c363" fill-rule="evenodd"/>
    <path id="Trazado_885005" data-name="Trazado 885005" d="M79.623,126.54a6.653,6.653,0,0,1-3.148.888,1.453,1.453,0,0,1-1.211-.565c-7.749-8.637-7.749-8.637-18.162-13.561a1.347,1.347,0,0,1-.888-.969c-.726-2.179.081-5,1.7-7.264a1.086,1.086,0,0,1,.565-.484,6.4,6.4,0,0,1,3.31-1.049A1.716,1.716,0,0,1,63,104.1c7.749,8.637,7.749,8.637,18.162,13.561a1.523,1.523,0,0,1,.888.969,7.27,7.27,0,0,1-.081,3.713,12.132,12.132,0,0,1-1.776,3.713,1.084,1.084,0,0,1-.565.484" transform="translate(-39.338 -72.8)" fill="#f9c047" fill-rule="evenodd"/>
    <path id="Trazado_885006" data-name="Trazado 885006" d="M178.968,312.979a8.237,8.237,0,0,1-5.57-3.148,1.719,1.719,0,0,1-.242-1.292c2.825-11.139,2.825-11.22,1.049-22.44a1.626,1.626,0,0,1,.484-1.453,11.255,11.255,0,0,1,4.359-2.341,1.373,1.373,0,0,1,.807,0,7.727,7.727,0,0,1,5.166,3.067,1.794,1.794,0,0,1,.242,1.291c-2.825,11.22-2.825,11.22-1.049,22.682a1.635,1.635,0,0,1-.323,1.211,7.513,7.513,0,0,1-4.278,2.421.884.884,0,0,1-.646,0" transform="translate(-121.732 -198.458)" fill="#f0c363" fill-rule="evenodd"/>
    <path id="Trazado_885007" data-name="Trazado 885007" d="M210.207,62.951C216.18,52.377,216.18,52.539,217.472,41c3.632.242,7.345,1.614,8.879,3.794a1.6,1.6,0,0,1,0,1.7c-5.489,9.928-5.489,11.7-6.78,22.924a13.059,13.059,0,0,1-5.166-1.453,10.028,10.028,0,0,1-4.2-5" transform="translate(-147.805 -28.826)" fill="#f0c363" fill-rule="evenodd"/>
    <path id="Trazado_885008" data-name="Trazado 885008" d="M314.72,217.577h-.161c-12.027-3.067-11.623-2.987-23.892-1.211-1.857-1.13-2.987-3.471-3.229-6.134a10.717,10.717,0,0,1,.4-4.843c.081-.081.161-.081.242-.161,11.865,3.067,11.623,3.067,23.247,1.372a1.514,1.514,0,0,1,1.291.323c2.583,2.018,3.229,6.861,2.1,10.655" transform="translate(-202.03 -144.303)" fill="#f0c363" fill-rule="evenodd"/>
    <path id="Trazado_885009" data-name="Trazado 885009" d="M204.249,189.082a7.551,7.551,0,0,1-5.408,2.26,7.734,7.734,0,0,1-7.668-7.749,7.956,7.956,0,0,1,.242-1.937,7.705,7.705,0,0,1,13.157,5.489,5.424,5.424,0,0,1-.323,1.937" transform="translate(-134.421 -126.14)" fill="#f0c363" fill-rule="evenodd"/>
    <path id="Trazado_885010" data-name="Trazado 885010" d="M131.013,36.431c4.359,1.372,8.314,7.991,6.7,12.188a33.8,33.8,0,0,0-7.184,3.874c-3.713,2.26-5.166,4.359-9.121,8.233a28.439,28.439,0,0,1,2.421,7.264c-1.614-.4-3.552-.888-5.973-1.534a6.1,6.1,0,0,0-2.664,2.5,10.768,10.768,0,0,0-1.372,7.023c.242,2.664,1.372,5,3.229,6.135,2.664-.4,4.762-.646,6.457-.888-1.372,5.327-4.359,10.574-7.91,15.417,5.812,9.444,6.861,11.7,16.628,18.646.888,2.744-.888,6.054-3.552,8.314a5.556,5.556,0,0,1-2.825-.161c-6.377-10.251-6.3-10.251-15.5-16.789a39.935,39.935,0,0,1-16.224,5.489c-.323-4.2.4-6.7,2.341-14.53-1.372-3.067-5.812-4.44-9.767-3.955a10.658,10.658,0,0,0-5.892,3.229c1.211,7.91,1.7,10.574,1.049,14.691a38.344,38.344,0,0,1-15.336-6.861c-8.233,4.52-8.556,5.085-15.659,13.964-5.247,1.292-12.108-6.861-10.09-12.027,9.606-5.247,10.493-5.65,15.9-12.35a36.488,36.488,0,0,1-4.763-10.332c1.776,0,3.955.081,6.861.242,2.1-1.534,2.825-4.763,2.5-7.83-.969-4.278-2.664-6.78-4.924-7.668-2.421.888-4.359,1.614-5.973,2.179a39.584,39.584,0,0,1,4.359-15.982c3.148,1.937,5,4.036,10.009,9.686,2.26.4,4.682-.807,6.538-2.825a13.709,13.709,0,0,0,3.067-5.327,6.4,6.4,0,0,0-.242-4.44c-6.861-3.229-9.363-4.44-12.269-6.942a37.766,37.766,0,0,1,8.072-6.215C69.344,28.359,69.182,28.2,64.1,17.623a5.724,5.724,0,0,1,1.776-2.987c3.148-.726,6.538-.323,8.395,1.614.565,11.22,2.1,15.579,6.054,23.812,2.018-.323,2.18-1.049,7.023-1.534a28.381,28.381,0,0,1,6.377.484c-.807,1.372-1.7,3.067-2.906,5.166a10.028,10.028,0,0,0,4.2,5c3.552,1.857,8.314,2.18,10.736-.161.242-2.421.484-4.278.726-5.892a27.484,27.484,0,0,1,6.538,4.682,37.036,37.036,0,0,0,6.215-3.067c5.408-2.341,7.023-3.552,11.785-8.314M92.833,59.839a7.709,7.709,0,1,1-7.668,7.668,7.682,7.682,0,0,1,7.668-7.668M73.46,79.938a4.892,4.892,0,0,1,4.924,4.924,4.924,4.924,0,0,1-9.847,0,4.892,4.892,0,0,1,4.924-4.924m34.709,4.924a4.892,4.892,0,0,1,4.924,4.924,4.924,4.924,0,1,1-9.847,0,4.892,4.892,0,0,1,4.924-4.924" transform="translate(-28.413 -10.054)" fill="#a79f92" fill-rule="evenodd"/>
    <path id="Trazado_885011" data-name="Trazado 885011" d="M207.76,53.707a1.659,1.659,0,0,1-2.341.646,1.615,1.615,0,0,1-.646-2.26l.323-.565c2.664-4.924,4.117-7.346,4.924-9.848.807-2.583,1.13-5.408,1.776-11.139a3.987,3.987,0,0,1,.4-1.292,3.349,3.349,0,0,1,.888-.969,6.883,6.883,0,0,1,2.018-1.049,11.732,11.732,0,0,1,7.426.161,12.113,12.113,0,0,1,6.215,4.117,7.581,7.581,0,0,1,1.13,2.1,2.791,2.791,0,0,1,.161,1.372,2.974,2.974,0,0,1-.4,1.372c-2.744,4.924-4.117,7.426-4.924,9.928s-1.13,5.327-1.776,10.978a3.45,3.45,0,0,1-.4,1.291,3.019,3.019,0,0,1-.969,1.049,8.878,8.878,0,0,1-5.65,1.453,14.576,14.576,0,0,1-6.3-1.615,1.735,1.735,0,0,1,1.614-3.067,10.035,10.035,0,0,0,4.763,1.291,5.55,5.55,0,0,0,3.551-.807c.646-5.812.969-8.8,1.937-11.623.888-2.906,2.341-5.408,5.166-10.574a4.9,4.9,0,0,0-.565-1.13,9.625,9.625,0,0,0-4.6-2.906,8.4,8.4,0,0,0-5.247-.161,4.188,4.188,0,0,0-1.049.484c-.646,5.973-.968,8.879-1.937,11.785-.969,2.825-2.341,5.408-5.247,10.413Z" transform="translate(-143.824 -18.775)" fill="#2a4a47"/>
    <path id="Trazado_885012" data-name="Trazado 885012" d="M286.576,189.553a1.659,1.659,0,0,1-2.341.646,1.727,1.727,0,0,1-.646-2.341,10.752,10.752,0,0,1,1.13-1.534,9.287,9.287,0,0,1,1.372-1.13,3.566,3.566,0,0,1,1.292-.484,2.353,2.353,0,0,1,1.291.081h.081c5.489,1.372,8.233,2.1,10.9,2.26,2.664.081,5.408-.323,11.058-1.13v-.081a7.829,7.829,0,0,1,1.372.081,4.424,4.424,0,0,1,1.211.646,7.369,7.369,0,0,1,1.534,1.614,12.648,12.648,0,0,1,1.776,7.265,13.152,13.152,0,0,1-2.421,7.1,6.857,6.857,0,0,1-1.776,1.614,3.708,3.708,0,0,1-1.292.565,4.045,4.045,0,0,1-1.372-.081c-5.489-1.453-8.233-2.1-10.9-2.26-2.583-.161-5.408.323-11.059,1.13a2.652,2.652,0,0,1-1.372-.08,2.54,2.54,0,0,1-1.211-.646,7.359,7.359,0,0,1-2.179-2.986,11.935,11.935,0,0,1-1.049-3.875,1.769,1.769,0,0,1,1.534-1.857,1.719,1.719,0,0,1,1.857,1.534,7.666,7.666,0,0,0,.726,2.825,4.576,4.576,0,0,0,1.211,1.7c5.812-.888,8.718-1.291,11.7-1.13,3.067.161,5.893.888,11.543,2.341a9.666,9.666,0,0,0,.969-.888,9.562,9.562,0,0,0,1.614-5.166,8.206,8.206,0,0,0-1.13-5.166,4.222,4.222,0,0,0-.807-.888c-5.812.888-8.718,1.372-11.7,1.211-3.067-.161-5.892-.888-11.543-2.341a2.512,2.512,0,0,0-.726.565,3.569,3.569,0,0,0-.646.888" transform="translate(-198.264 -129.839)" fill="#2a4a47"/>
    <path id="Trazado_885013" data-name="Trazado 885013" d="M176.155,279.1a1.706,1.706,0,0,1-1.857-1.453,1.681,1.681,0,0,1,1.453-1.937,15.773,15.773,0,0,1,6.457.646,8.677,8.677,0,0,1,4.6,3.39,1.98,1.98,0,0,1,.484,1.292,3.473,3.473,0,0,1,0,1.291v.081c-1.372,5.489-2.1,8.233-2.179,10.9-.161,2.664.242,5.489,1.13,11.058a3.916,3.916,0,0,1,0,1.372,4.417,4.417,0,0,1-.646,1.211,7.362,7.362,0,0,1-1.614,1.534,12.647,12.647,0,0,1-7.265,1.776,12.46,12.46,0,0,1-7.1-2.341A6.728,6.728,0,0,1,168,306.137a2.655,2.655,0,0,1-.565-1.292,4.044,4.044,0,0,1,.081-1.372c2.744-10.9,2.744-10.9.969-21.955l-.081-.646a1.712,1.712,0,0,1,3.39-.484l.081.646c1.857,11.7,1.857,11.785-1.049,23.247a4.634,4.634,0,0,0,.888.888,8.979,8.979,0,0,0,5.166,1.7,8.783,8.783,0,0,0,5.166-1.211,4.214,4.214,0,0,0,.888-.807c-.969-5.812-1.372-8.718-1.291-11.7.161-2.987.888-5.892,2.341-11.543a5.92,5.92,0,0,0-2.906-2.018,12.362,12.362,0,0,0-4.924-.484" transform="translate(-117.709 -193.795)" fill="#2a4a47"/>
    <path id="Trazado_885014" data-name="Trazado 885014" d="M31.164,201.382a1.667,1.667,0,1,1,3.309-.4,12.528,12.528,0,0,1-.242,4.924,8.253,8.253,0,0,1-2.1,3.874A4.436,4.436,0,0,1,31,210.5a4.1,4.1,0,0,1-1.372.242c-5.65-.323-8.556-.4-11.139,0s-5.247,1.372-10.655,3.39a2.394,2.394,0,0,1-1.292.161,3.382,3.382,0,0,1-1.291-.323A9.573,9.573,0,0,1,3.4,212.683,12.72,12.72,0,0,1,.169,205.9a12.886,12.886,0,0,1,.969-7.426,6.509,6.509,0,0,1,1.372-1.937,5.729,5.729,0,0,1,1.13-.807,2.593,2.593,0,0,1,1.372-.161c11.22.484,11.22.484,21.713-3.39l.646-.242a1.742,1.742,0,0,1,2.18,1.049,1.71,1.71,0,0,1-1.049,2.179l-.565.161c-11.139,4.117-11.22,4.2-23,3.632A3.072,3.072,0,0,0,4.2,200.01a8.585,8.585,0,0,0-.646,5.408,8.266,8.266,0,0,0,2.26,4.763,2.528,2.528,0,0,0,.888.726c5.489-2.018,8.314-3.067,11.3-3.552,2.906-.4,5.892-.323,11.785-.081a4.275,4.275,0,0,0,1.13-2.26,8.922,8.922,0,0,0,.242-3.632" transform="translate(0 -134.889)" fill="#2a4a47"/>
    <path id="Trazado_885015" data-name="Trazado 885015" d="M77.044,111.921a1.682,1.682,0,0,1,2.421-.081,1.755,1.755,0,0,1,.081,2.421,12.266,12.266,0,0,1-3.39,2.5,8.383,8.383,0,0,1-3.713.888,2.367,2.367,0,0,1-1.291-.323,2.679,2.679,0,0,1-1.13-.807c-3.713-4.2-5.65-6.3-7.749-7.91-2.179-1.614-4.762-2.825-9.848-5.247h-.08a2.462,2.462,0,0,1-1.049-.807,5.133,5.133,0,0,1-.646-1.13,6.961,6.961,0,0,1-.323-2.26,12.178,12.178,0,0,1,2.5-6.942,12.66,12.66,0,0,1,5.973-4.6,7.5,7.5,0,0,1,2.341-.4,2.653,2.653,0,0,1,1.372.323,2.68,2.68,0,0,1,1.13.807c3.794,4.2,5.65,6.3,7.749,7.91,2.179,1.614,4.762,2.825,9.847,5.247a3.023,3.023,0,0,1,1.776,2.018,6.961,6.961,0,0,1,.323,2.26,10.911,10.911,0,0,1-.323,2.341,1.748,1.748,0,0,1-2.1,1.211,1.627,1.627,0,0,1-1.211-2.018,5.481,5.481,0,0,0,.242-1.534,4.882,4.882,0,0,0-.161-1.211c-5.327-2.5-7.991-3.794-10.413-5.57-2.341-1.776-4.359-3.955-8.233-8.395-.4.08-.888.161-1.291.242a9.043,9.043,0,0,0-4.278,3.39,8.687,8.687,0,0,0-1.857,4.924,4.761,4.761,0,0,0,.161,1.13c5.327,2.5,7.991,3.794,10.413,5.57,2.341,1.776,4.359,3.955,8.314,8.395a4.762,4.762,0,0,0,2.018-.565,8.515,8.515,0,0,0,2.421-1.776" transform="translate(-35.386 -61.329)" fill="#2a4a47"/>
    <path id="Trazado_885016" data-name="Trazado 885016" d="M170.778,186.826a6.659,6.659,0,0,1,4.681,1.937,6.519,6.519,0,0,1,1.937,4.681,6.614,6.614,0,0,1-6.619,6.619,6.519,6.519,0,0,1-4.682-1.937,6.66,6.66,0,0,1-1.937-4.682,6.614,6.614,0,0,1,6.619-6.619m-15.337-25.1a9.444,9.444,0,0,1,0,18.888,9.081,9.081,0,0,1-6.619-2.825,9.353,9.353,0,0,1,0-13.238,9.081,9.081,0,0,1,6.619-2.825m4.278,5.166a6.144,6.144,0,0,0-8.475,0,6.041,6.041,0,0,0,0,8.556,6.144,6.144,0,0,0,8.475,0,6.041,6.041,0,0,0,0-8.556M136.069,181.9a6.66,6.66,0,0,1,4.681,1.937,6.52,6.52,0,0,1,1.937,4.682,6.614,6.614,0,0,1-6.619,6.619,6.52,6.52,0,0,1-4.682-1.937,6.662,6.662,0,0,1-1.937-4.682,6.614,6.614,0,0,1,6.619-6.619m2.26,4.359a3.2,3.2,0,1,0-4.52,4.52,3.2,3.2,0,1,0,4.52-4.52m34.709,4.924a3.2,3.2,0,1,0-4.52,4.52,3.2,3.2,0,1,0,4.52-4.52" transform="translate(-91.021 -113.714)" fill="#2a4a47"/>
    <path id="Trazado_885017" data-name="Trazado 885017" d="M130.483,21.856a7,7,0,0,1,2.26.4,11.8,11.8,0,0,1,5.731,4.681,12.642,12.642,0,0,1,2.341,7.1,7.5,7.5,0,0,1-.4,2.341,3.036,3.036,0,0,1-.726,1.211,3.634,3.634,0,0,1-1.13.807,83.567,83.567,0,0,0-8.96,4.036,31.812,31.812,0,0,0-5.731,4.681,42.09,42.09,0,0,1,2.341,7.668,36.07,36.07,0,0,1,.565,4.117,24.809,24.809,0,0,1-3.39-.242c-.161-1.13-.323-2.18-.565-3.229a41.448,41.448,0,0,0-2.1-7.023,4.024,4.024,0,0,1-.242-1.937,3.594,3.594,0,0,1,.969-1.7,28.768,28.768,0,0,1,6.458-5.247,78.235,78.235,0,0,1,9.283-4.278,3.346,3.346,0,0,0,.242-1.292,9.241,9.241,0,0,0-1.776-5.085,8.072,8.072,0,0,0-4.036-3.39,3.17,3.17,0,0,0-1.13-.242c-6.942,7.023-8.153,8.233-14.771,11.139a4.027,4.027,0,0,1-1.937.242,3.448,3.448,0,0,1-1.7-.888,37.677,37.677,0,0,0-9.041-6.457,19.828,19.828,0,0,1,.969-3.309,40.872,40.872,0,0,1,10.413,7.264c5.973-2.583,7.1-3.713,13.642-10.413a3.388,3.388,0,0,1,1.13-.726,3.346,3.346,0,0,1,1.292-.242M84.231,25.165h-.807c-.726.081-1.534.161-2.341.242a3.508,3.508,0,0,1-2.018-.4,3.419,3.419,0,0,1-1.372-1.453A39.315,39.315,0,0,1,74.545,15a78.184,78.184,0,0,1-.888-10.574,4.94,4.94,0,0,0-1.13-.565,8.793,8.793,0,0,0-5.408-.081,8.862,8.862,0,0,0-4.6,2.583,3.355,3.355,0,0,0-.565,1.049c2.341,4.924,3.632,7.587,4.359,10.251.807,2.664.969,5.247,1.211,10.09a2.917,2.917,0,0,1-.323,1.7,3.738,3.738,0,0,1-1.211,1.291,33.85,33.85,0,0,0-6.78,5.408A33.85,33.85,0,0,1,56.626,33.8a40.967,40.967,0,0,1,7.507-5.893c-.242-4.52-.4-6.942-1.13-9.363-.646-2.421-1.857-4.924-4.2-9.686a3.8,3.8,0,0,1-.323-1.291A4.1,4.1,0,0,1,58.725,6.2a5.822,5.822,0,0,1,1.13-1.937A11.924,11.924,0,0,1,66.231.466a13.159,13.159,0,0,1,7.507.161,10.891,10.891,0,0,1,2.1,1.211,5.565,5.565,0,0,1,.888,1.049,3.8,3.8,0,0,1,.323,1.372,89.769,89.769,0,0,0,.807,10.09,33.67,33.67,0,0,0,2.906,7.668c.807-.081,1.614-.161,2.5-.242a3.321,3.321,0,0,0,.888-.08,1.938,1.938,0,0,1,1.211.484,1.594,1.594,0,0,1,.484,1.13v.242a1.734,1.734,0,0,1-1.614,1.614M52.105,45.83A38.78,38.78,0,0,0,48.15,60.2c-1.292.484-2.421.888-3.471,1.211A41.952,41.952,0,0,1,49.2,43.973a30.332,30.332,0,0,1,2.906,1.857m-.242,33.659c.565.969,1.049,2.018,1.614,2.986a2.707,2.707,0,0,1,.484,1.937,2.845,2.845,0,0,1-.726,1.857,37.207,37.207,0,0,1-6.054,6.215,78.458,78.458,0,0,1-8.96,5.247,6.939,6.939,0,0,0-.081,1.291,10.035,10.035,0,0,0,6.619,7.91,6.105,6.105,0,0,0,1.211.081,74.372,74.372,0,0,1,7.023-8.153A35.525,35.525,0,0,1,60.742,93.7a3.508,3.508,0,0,1,3.552.161,38.01,38.01,0,0,0,10.251,5.085c1.13.323,2.26.646,3.471.888a31.027,31.027,0,0,1-.484,3.39c-1.372-.323-2.744-.646-4.036-1.049a42.135,42.135,0,0,1-11.139-5.489,35.769,35.769,0,0,0-7.1,4.682c-1.776,1.614-3.471,3.874-6.619,7.83a3.329,3.329,0,0,1-1.049.807,2.44,2.44,0,0,1-1.291.4,7.127,7.127,0,0,1-2.26-.161,12.432,12.432,0,0,1-6.215-4.117,12.092,12.092,0,0,1-3.067-6.78,8.168,8.168,0,0,1,.161-2.421,2.811,2.811,0,0,1,.565-1.211,3.959,3.959,0,0,1,1.049-.969,79.181,79.181,0,0,0,8.637-5,32.585,32.585,0,0,0,5.408-5.57c-.646-1.049-1.211-2.179-1.776-3.229a1.356,1.356,0,0,1,.081-1.453,1.56,1.56,0,0,1,1.13-.888h.242a1.518,1.518,0,0,1,1.615.888M90.043,100.4a38.89,38.89,0,0,0,5.489-1.049,36.1,36.1,0,0,0,9.121-3.713,3.081,3.081,0,0,1,3.552.161c4.2,2.987,6.377,4.6,8.314,6.78,1.937,2.1,3.471,4.6,6.377,9.363h1.291a9.229,9.229,0,0,0,4.843-2.583,8.55,8.55,0,0,0,2.663-4.52,6.109,6.109,0,0,0,.081-1.211c-9.2-6.458-9.686-6.861-15.094-15.5a3.749,3.749,0,0,1-.484-1.857,2.82,2.82,0,0,1,.646-1.776,34.714,34.714,0,0,0,4.278-8.233,1.662,1.662,0,0,1,2.018-.969h.161a1.523,1.523,0,0,1,.969.888,1.293,1.293,0,0,1,.081,1.211,35.047,35.047,0,0,1-4.682,8.96c4.924,8.072,5.408,8.395,14.045,14.529h.081a5.556,5.556,0,0,1,.888,1.049,2.175,2.175,0,0,1,.4,1.211,7.073,7.073,0,0,1,0,2.26,12.2,12.2,0,0,1-3.794,6.457,12.455,12.455,0,0,1-6.619,3.39,5.723,5.723,0,0,1-2.341,0,3.081,3.081,0,0,1-1.291-.484,3.022,3.022,0,0,1-.969-1.049c-2.906-4.6-4.359-7.023-6.054-8.879s-3.794-3.39-7.749-6.215a40.909,40.909,0,0,1-15.982,5.166,26.723,26.723,0,0,1-.242-3.39" transform="translate(-24.413 0)" fill="#2a4a47"/>
  </g>
</svg>
