<svg id="Grupo_1102154" data-name="Grupo 1102154" xmlns="http://www.w3.org/2000/svg" xmlns:xlink="http://www.w3.org/1999/xlink" width="347.885" height="267.588" viewBox="0 0 347.885 267.588">
  <defs>
    <clipPath id="clip-path">
      <rect id="Rect치ngulo_402207" data-name="Rect치ngulo 402207" width="347.885" height="267.588" fill="none"/>
    </clipPath>
  </defs>
  <g id="Grupo_1102153" data-name="Grupo 1102153" clip-path="url(#clip-path)">
    <path id="Trazado_882905" data-name="Trazado 882905" d="M18.173,258.6S-13.442,179.725,6.726,113.612c10.44-34.226,33.12-71.045,84.181-65.85,21.348,2.172,42.175,1.386,56.584-17.553C164.447,7.928,199.036-7.16,230.069,3.494c51.8,17.786,42.364,59.61,56.962,78.088s38.2,19.026,53.215,53.889C362.18,186.4,329.9,258.6,329.9,258.6Z" transform="translate(0 0)" fill="#c4e0cc"/>
    <path id="Trazado_882906" data-name="Trazado 882906" d="M18.063,299.582c0,4.646,71.068,8.415,158.73,8.415s158.729-3.769,158.729-8.415-71.064-8.412-158.729-8.412-158.73,3.767-158.73,8.412" transform="translate(-2.507 -40.409)" fill="#87d4c7"/>
    <path id="Trazado_882907" data-name="Trazado 882907" d="M241.266,254.624c-5.206,11.108-8.272,23.217-10.313,35.272-.059.358.486.511.548.152,2.032-12,5.072-24.077,10.253-35.136.156-.329-.333-.618-.487-.288" transform="translate(-32.052 -35.317)" fill="#87d4c7"/>
    <path id="Trazado_882908" data-name="Trazado 882908" d="M245.921,248a5.837,5.837,0,0,0-3.224,6.582.119.119,0,0,0,.159.078,5.832,5.832,0,0,0,3.23-6.578.12.12,0,0,0-.164-.082" transform="translate(-33.657 -34.417)" fill="#87d4c7"/>
    <path id="Trazado_882909" data-name="Trazado 882909" d="M246.986,257.2a5.837,5.837,0,0,0-6.492,3.4.12.12,0,0,0,.084.156,5.836,5.836,0,0,0,6.494-3.4.121.121,0,0,0-.085-.162" transform="translate(-33.375 -35.68)" fill="#87d4c7"/>
    <path id="Trazado_882910" data-name="Trazado 882910" d="M237.25,253.406a5.834,5.834,0,0,0,2.739,6.8.121.121,0,0,0,.165-.065,5.835,5.835,0,0,0-2.734-6.8.119.119,0,0,0-.17.069" transform="translate(-32.892 -35.157)" fill="#87d4c7"/>
    <path id="Trazado_882911" data-name="Trazado 882911" d="M243.876,265.206a5.839,5.839,0,0,0-6.49,3.4.12.12,0,0,0,.082.157,5.837,5.837,0,0,0,6.494-3.4.119.119,0,0,0-.085-.162" transform="translate(-32.944 -36.791)" fill="#87d4c7"/>
    <path id="Trazado_882912" data-name="Trazado 882912" d="M234.141,261.409a5.838,5.838,0,0,0,2.74,6.8.121.121,0,0,0,.164-.065,5.834,5.834,0,0,0-2.732-6.8.12.12,0,0,0-.172.069" transform="translate(-32.461 -36.267)" fill="#87d4c7"/>
    <path id="Trazado_882913" data-name="Trazado 882913" d="M241.309,273.084a5.828,5.828,0,0,0-6.276,3.782.12.12,0,0,0,.089.152,5.834,5.834,0,0,0,6.28-3.778.115.115,0,0,0-.093-.156" transform="translate(-32.618 -37.892)" fill="#87d4c7"/>
    <path id="Trazado_882914" data-name="Trazado 882914" d="M231.349,269.919a5.833,5.833,0,0,0,3.137,6.623.116.116,0,0,0,.158-.076,5.831,5.831,0,0,0-3.129-6.625.119.119,0,0,0-.166.078" transform="translate(-32.085 -37.447)" fill="#87d4c7"/>
    <path id="Trazado_882915" data-name="Trazado 882915" d="M238.883,282.439a5.835,5.835,0,0,0-6.122,4.031.119.119,0,0,0,.1.146,5.838,5.838,0,0,0,6.126-4.024.12.12,0,0,0-.1-.153" transform="translate(-32.302 -39.194)" fill="#87d4c7"/>
    <path id="Trazado_882916" data-name="Trazado 882916" d="M228.786,279.71a5.836,5.836,0,0,0,3.4,6.493.119.119,0,0,0,.156-.082,5.837,5.837,0,0,0-3.393-6.5.123.123,0,0,0-.164.086" transform="translate(-31.736 -38.805)" fill="#87d4c7"/>
    <path id="Trazado_882917" data-name="Trazado 882917" d="M254.634,265.631a123.971,123.971,0,0,0-4.6,12.188c-1.368,4.4-2.429,8.894-3.448,13.388-.079.352.468.5.546.149,1-4.418,2.045-8.835,3.383-13.166a121.684,121.684,0,0,1,4.612-12.273c.144-.331-.344-.62-.488-.286" transform="translate(-34.22 -36.844)" fill="#87d4c7"/>
    <path id="Trazado_882918" data-name="Trazado 882918" d="M258.926,259.007a5.832,5.832,0,0,0-3.224,6.581.117.117,0,0,0,.158.077,5.833,5.833,0,0,0,3.23-6.576.118.118,0,0,0-.164-.082" transform="translate(-35.462 -35.944)" fill="#87d4c7"/>
    <path id="Trazado_882919" data-name="Trazado 882919" d="M259.259,269.562a5.84,5.84,0,0,0-6.492,3.4.121.121,0,0,0,.083.158,5.84,5.84,0,0,0,6.494-3.4.121.121,0,0,0-.085-.163" transform="translate(-35.078 -37.395)" fill="#87d4c7"/>
    <path id="Trazado_882920" data-name="Trazado 882920" d="M247.685,272.485a5.836,5.836,0,0,0,2.742,6.8.119.119,0,0,0,.163-.066,5.836,5.836,0,0,0-2.734-6.8.121.121,0,0,0-.171.068" transform="translate(-34.34 -37.804)" fill="#87d4c7"/>
    <path id="Trazado_882921" data-name="Trazado 882921" d="M254.789,282.9a5.833,5.833,0,0,0-6.277,3.784.115.115,0,0,0,.09.149,5.831,5.831,0,0,0,6.281-3.774.12.12,0,0,0-.094-.159" transform="translate(-34.488 -39.254)" fill="#87d4c7"/>
    <path id="Trazado_882922" data-name="Trazado 882922" d="M241.669,16.389H92.007a2.887,2.887,0,0,0-2.878,2.878v5.78H244.545v-5.78a2.886,2.886,0,0,0-2.876-2.878" transform="translate(-12.369 -2.274)" fill="#88cefc"/>
    <path id="Trazado_882923" data-name="Trazado 882923" d="M241.553,192.513H91.891a3.6,3.6,0,0,1-3.6-3.6V19.151a3.6,3.6,0,0,1,3.6-3.6H241.553a3.6,3.6,0,0,1,3.6,3.6V188.915a3.6,3.6,0,0,1-3.6,3.6M91.891,16.993a2.161,2.161,0,0,0-2.159,2.158V188.915a2.159,2.159,0,0,0,2.159,2.157H241.553a2.159,2.159,0,0,0,2.157-2.157V19.151a2.16,2.16,0,0,0-2.157-2.158Z" transform="translate(-12.254 -2.159)" fill="#88cefc"/>
    <path id="Trazado_882924" data-name="Trazado 882924" d="M95.563,21.154a1.627,1.627,0,1,1-1.628-1.628,1.628,1.628,0,0,1,1.628,1.628" transform="translate(-12.811 -2.71)" fill="#398fb9"/>
    <path id="Trazado_882925" data-name="Trazado 882925" d="M100.86,21.154a1.626,1.626,0,1,1-1.628-1.628,1.628,1.628,0,0,1,1.628,1.628" transform="translate(-13.546 -2.71)" fill="#ffbd66"/>
    <path id="Trazado_882926" data-name="Trazado 882926" d="M106.158,21.154a1.627,1.627,0,1,1-1.627-1.628,1.627,1.627,0,0,1,1.627,1.628" transform="translate(-14.281 -2.71)" fill="#3a8f92"/>
    <path id="Trazado_882927" data-name="Trazado 882927" d="M204.615,115c-2.717,2.614-4.86,6.057-5.348,9.255-.01.057,0,.109-.01.164a17.648,17.648,0,0,0-8.787,4.3c-8.169-2.771-18.894-2.15-21.077,6.551a9.908,9.908,0,0,0-.153,1.083,11.924,11.924,0,0,0-5.613,6.777,16.282,16.282,0,0,0-.716,3.932,19.2,19.2,0,0,1-6.257-2.564c-5.054-3.249-7.286-8.879-9.312-14.265a.5.5,0,0,0-.424-.291,15.437,15.437,0,0,1-13.845-9.4,14.577,14.577,0,0,0-1.374-10.131,11.551,11.551,0,0,0,.2-14.34A13.012,13.012,0,0,0,133.89,85.7a7.9,7.9,0,0,0-.859-2.011,10.906,10.906,0,0,0,2.9-6.842,9.987,9.987,0,0,0-1.418-5.545c.276-.294.464-.658.715-.976a13.109,13.109,0,0,0,6.643,1.655,11.483,11.483,0,0,0,4.43-1.01,12.086,12.086,0,0,0,10.729,3.4,11.41,11.41,0,0,0,3.68-1.43,12.205,12.205,0,0,0,7.3,3.006,10.066,10.066,0,0,0,7.055-2.436c5.452,1.519,12.227-.048,16.788-3.611a12.99,12.99,0,0,0,8.061,1.1,11.931,11.931,0,0,0,3-1.01,12.393,12.393,0,0,0,2.126,1.9c-1.615,3.236-2.462,6.767-1.01,10.351a8.952,8.952,0,0,0,1.237,1.942,13.1,13.1,0,0,0,1.064,14.353c-3.564,4.93-4.61,11.775-1.711,16.455" transform="translate(-18.277 -9.702)" fill="#ffdec9"/>
    <path id="Trazado_882928" data-name="Trazado 882928" d="M220.8,110.689c.158-.245.338-.473.481-.729,2.573-4.626,2.258-10.085.56-14.97a11.894,11.894,0,0,0,2.057-3.312c1.756-4.31.938-8.962-1.161-12.936.154-.217.368-.385.507-.612,2.6-4.171,1.575-8.545-.512-12.5a12.431,12.431,0,0,0,2.744-6.745c.572-6.174-3.807-11.5-9.443-13.451a17.053,17.053,0,0,0-13.781,1.383,10.328,10.328,0,0,0-3.978-1.941,12.3,12.3,0,0,0-10.143,2.453,11.518,11.518,0,0,0-8.8-1.1,11.718,11.718,0,0,0-7.115,6.083,10.216,10.216,0,0,0-2.443-1.624,9.779,9.779,0,0,0-9.063.609,9.567,9.567,0,0,0-6.55-3.92,10.425,10.425,0,0,0-9.1,3.3,11.719,11.719,0,0,0-6.254-3.234,11.115,11.115,0,0,0-9.066,2.726,9.713,9.713,0,0,0-2.065-1.157c-5.743-2.262-11.973.836-14.8,6.018a14.6,14.6,0,0,0-.983,11.521,12.961,12.961,0,0,0-1.643,2.439,13.141,13.141,0,0,0,.134,11.874,12.1,12.1,0,0,0-1.494,3.588,12.5,12.5,0,0,0,1.089,8.462,16.713,16.713,0,0,0-.689,14.829c-1.924,3.884-2.6,8.531-.482,12.479a11.3,11.3,0,0,0,10.787,5.726c9.7-.908,12.824-11.49,8.736-19.053a11.556,11.556,0,0,0,.2-14.338,13.035,13.035,0,0,0,1.994-10.368,8.157,8.157,0,0,0-.86-2.013,10.906,10.906,0,0,0,2.9-6.842,9.982,9.982,0,0,0-1.418-5.545c.276-.295.462-.659.71-.977a13.128,13.128,0,0,0,6.643,1.657,11.493,11.493,0,0,0,4.434-1.011,12.082,12.082,0,0,0,10.731,3.4,11.457,11.457,0,0,0,3.679-1.428,12.194,12.194,0,0,0,7.3,3A10.09,10.09,0,0,0,171.706,70c5.446,1.517,12.225-.051,16.784-3.612a13,13,0,0,0,8.065,1.1,12.036,12.036,0,0,0,3-1.01,12.23,12.23,0,0,0,2.126,1.9c-1.615,3.235-2.464,6.767-1.01,10.351a8.947,8.947,0,0,0,1.237,1.943,13.1,13.1,0,0,0,1.06,14.353c-3.56,4.93-4.608,11.776-1.707,16.454-2.721,2.612-4.863,6.057-5.352,9.256-.005.057,0,.108-.005.163a17.673,17.673,0,0,0-8.791,4.3c-8.166-2.772-18.894-2.147-21.076,6.55a9.785,9.785,0,0,0-.153,1.087,11.916,11.916,0,0,0-5.616,6.775c-1.821,5.6-.38,14.133,4.349,17.977a.243.243,0,0,1,.032.025,6.989,6.989,0,0,1,2.685,5.816c-.156,3,.555,8.6,2.008,11.24,1.25,2.265,2.791,1.871,4.023.914a6.17,6.17,0,0,0,2.24-4.566c.016-.351.036-.7.06-1.046.152-2.412.39-4.815.692-7.211a6.657,6.657,0,0,1,3.077-4.731,12.838,12.838,0,0,0,2.041-1.625,14.753,14.753,0,0,0,4.319-10.5,37.587,37.587,0,0,0,5.675-2.523c.034-.02.048-.052.082-.07,7.847,3.383,17.9-.655,21.2-9.206a11.666,11.666,0,0,0,6.612-4.664c3.952-5.6,2.907-12.5,1.438-18.751" transform="translate(-14.921 -6.184)" fill="#ff6f7f"/>
    <path id="Trazado_882929" data-name="Trazado 882929" d="M205.951,157.784a9.262,9.262,0,0,0,3.342-7.928c-.057-.661-1.072-.47-1.016.187a8.19,8.19,0,0,1-2.992,6.952c-.518.419.15,1.208.666.79" transform="translate(-28.464 -20.74)" fill="#e3405b"/>
    <path id="Trazado_882930" data-name="Trazado 882930" d="M112.282,70.906a5.6,5.6,0,0,0,4.3,3.826.516.516,0,0,0,.088-1.029,4.558,4.558,0,0,1-3.374-2.986.53.53,0,0,0-.6-.413.52.52,0,0,0-.414.6" transform="translate(-15.58 -9.756)" fill="#e3405b"/>
    <path id="Trazado_882931" data-name="Trazado 882931" d="M217.911,104.05a8.46,8.46,0,0,0,5.75,3.526c.659.094.746-.934.088-1.029a7.444,7.444,0,0,1-5.048-3.162.52.52,0,0,0-.728-.061.528.528,0,0,0-.062.727" transform="translate(-30.226 -14.323)" fill="#e3405b"/>
    <path id="Trazado_882932" data-name="Trazado 882932" d="M131,115.447a7.262,7.262,0,0,0-7.066-3.624.521.521,0,0,0-.415.6.531.531,0,0,0,.6.413,6.183,6.183,0,0,1,5.946,3.054c.3.589,1.238.149.933-.444" transform="translate(-17.141 -15.517)" fill="#e3405b"/>
    <path id="Trazado_882933" data-name="Trazado 882933" d="M150.287,137.132c9.271-1.635,13.887-10.887,14.077-19.558q-.409.189-.815.378a15.784,15.784,0,0,0,14.251.445.515.515,0,0,0-.441-.931,14.689,14.689,0,0,1-13.215-.359.523.523,0,0,0-.81.379c-.176,8.21-4.409,17.075-13.234,18.63a.517.517,0,0,0,.188,1.016" transform="translate(-20.775 -16.242)" fill="#e6b08e"/>
    <path id="Trazado_882934" data-name="Trazado 882934" d="M135.393,71.708c3.553,6.635,9.059,12.7,16.746,14.222,4.3.852,8.542-.609,12.833-.081,4.924.6,7.652,4.693,10.02,8.605.338.563,1.275.126.931-.444-1.724-2.85-3.582-5.9-6.484-7.7-3.331-2.062-7.139-1.592-10.85-1.252a19.5,19.5,0,0,1-13.376-3.221,29.244,29.244,0,0,1-8.889-10.574c-.311-.583-1.245-.145-.931.444" transform="translate(-18.781 -9.852)" fill="#e6b08e"/>
    <path id="Trazado_882935" data-name="Trazado 882935" d="M199.549,129.536A13.308,13.308,0,0,1,198.434,122c.509-2.513,2.309-3.911,3.944-5.711a11.451,11.451,0,0,0,3.176-9.069c-.57-4.308-3.664-7.761-3.143-12.3a10.986,10.986,0,0,1,9.951-9.584c.659-.071.469-1.087-.191-1.015a12.056,12.056,0,0,0-9.421,6.135c-2.349,4.372-1.278,8.567.524,12.873,1.184,2.838,1.862,5.628.661,8.6-1.03,2.561-2.991,4.092-4.71,6.14-2.9,3.461-2.168,8.019-.607,11.912.249.615,1.178.171.933-.444" transform="translate(-27.374 -11.701)" fill="#e6b08e"/>
    <path id="Trazado_882936" data-name="Trazado 882936" d="M171.3,86.373c2.705-5.781,9-8.353,14.988-9.1.657-.083.468-1.1-.19-1.015-6.38.8-12.9,3.64-15.767,9.761-.281.6.689.955.97.358" transform="translate(-23.631 -10.582)" fill="#e6b08e"/>
    <path id="Trazado_882937" data-name="Trazado 882937" d="M189.986,91.611a32.776,32.776,0,0,0,2.156,2.815,16.617,16.617,0,0,0,2.643,2.346,21.059,21.059,0,0,0,6.1,3.445c.635.2.995-.773.36-.969a20.114,20.114,0,0,1-5.861-3.321,15.237,15.237,0,0,1-2.516-2.242,33.455,33.455,0,0,1-2.089-2.74c-.383-.543-1.171.126-.79.665" transform="translate(-26.352 -12.594)" fill="#e6b08e"/>
    <path id="Trazado_882938" data-name="Trazado 882938" d="M158.426,95.832a10.07,10.07,0,0,0-6.593,2.541c-2.129,1.907-2.946,4.459-3.521,7.179-.678,3.184-1.433,6.519-3.572,9.084a11,11,0,0,1-8.384,3.884c-.66,0-.751,1.03-.086,1.027,5.8-.018,10.1-3.873,11.894-9.212,1.014-3.017,1.051-6.522,2.74-9.27a8.977,8.977,0,0,1,7.433-4.2c.659-.011.754-1.04.089-1.029" transform="translate(-18.848 -13.3)" fill="#e6b08e"/>
    <path id="Trazado_882939" data-name="Trazado 882939" d="M143.746,99.6a24.941,24.941,0,0,0,4.474,11.031c.391.541,1.18-.128.79-.664a23.83,23.83,0,0,1-4.248-10.557c-.1-.658-1.11-.469-1.016.189" transform="translate(-19.948 -13.739)" fill="#e6b08e"/>
    <path id="Trazado_882940" data-name="Trazado 882940" d="M157.49,136.755a17.46,17.46,0,0,1,7.837,13.642c.034.66,1.049.468,1.015-.191a18.441,18.441,0,0,0-8.257-14.294c-.556-.361-1.153.481-.6.844" transform="translate(-21.826 -18.85)" fill="#e6b08e"/>
    <path id="Trazado_882941" data-name="Trazado 882941" d="M166.257,144.317a19.106,19.106,0,0,1,9.918-12.389c.59-.3.152-1.23-.444-.933a20.111,20.111,0,0,0-10.445,12.967c-.158.639.808,1,.971.355" transform="translate(-22.936 -18.172)" fill="#e6b08e"/>
    <path id="Trazado_882942" data-name="Trazado 882942" d="M177.418,92.986a20.425,20.425,0,0,1-3.887,12.31c-.394.538.451,1.131.843.593a21.356,21.356,0,0,0,4.072-12.816c-.007-.66-1.039-.752-1.028-.088" transform="translate(-24.069 -12.842)" fill="#e6b08e"/>
    <path id="Trazado_882943" data-name="Trazado 882943" d="M190.144,114.592a33.624,33.624,0,0,0,6.271,13.312c.407.526,1.2-.142.791-.666a32.431,32.431,0,0,1-6.047-12.835c-.143-.647-1.159-.462-1.015.189" transform="translate(-26.387 -15.821)" fill="#e6b08e"/>
    <path id="Trazado_882944" data-name="Trazado 882944" d="M182,125.022c4.037-.772,8.326-.328,11.713,2.155.538.394,1.132-.45.6-.845-3.6-2.64-8.2-3.147-12.5-2.326a.517.517,0,0,0,.189,1.016" transform="translate(-25.176 -17.16)" fill="#e6b08e"/>
    <path id="Trazado_882945" data-name="Trazado 882945" d="M205.17,73.677a21.733,21.733,0,0,0,.769,2.864,19.982,19.982,0,0,1,.321,9.231c-.129.651.9.733,1.026.086a21.052,21.052,0,0,0,.277-6.268,20.832,20.832,0,0,0-.55-3.025,25.2,25.2,0,0,1-.828-3.076c-.091-.66-1.1-.47-1.015.188" transform="translate(-28.473 -10.142)" fill="#e6b08e"/>
    <path id="Trazado_882946" data-name="Trazado 882946" d="M122.962,137.239c-1.161-4.67-2.39-10.248-2.18-15.56a52.3,52.3,0,0,0-1.586-15.274,32.831,32.831,0,0,1-.011-16.927c.891-3.31,2.485-6.542,3.1-9.9l-.967-.083c-.7,4.124-2.907,8.211-3.714,12.2a34.475,34.475,0,0,0,.778,15.7,41.357,41.357,0,0,1,1.459,8.8c.084,2.633-.106,5.265-.182,7.893-.138,4.673-.273,9.634,2.367,13.6.869,1.3,1.095.206.933-.442" transform="translate(-16.241 -11.032)" fill="#ff999d"/>
    <path id="Trazado_882947" data-name="Trazado 882947" d="M225.685,54.56a6.2,6.2,0,0,0-.316-.723c-5.259-3.428-12.973-3.174-18.762-1.784-7.822,1.877-13.844,7.754-21.939,8.827-8.3,1.1-16.094-3-24.418-2.063-7.508.847-15.074,4.218-22.712,2.768-4.522-.859-8.139-3.8-12.265-5.632a19.892,19.892,0,0,0-10.52-1.548s-.168.211-.359.493c-.111.163-.4.672-.4.672a19.331,19.331,0,0,1,11.645,1.685c3.44,1.648,6.553,3.98,10.271,5.005,6.563,1.809,13.319-.332,19.758-1.641a34.532,34.532,0,0,1,11.57-.739c4.14.561,8.14,1.924,12.321,2.2a26.994,26.994,0,0,0,10.4-1.379c3.484-1.182,6.513-3.221,9.745-4.924a30.358,30.358,0,0,1,13.1-3.534c4.523-.149,9.647.354,13.208,3.38a8.13,8.13,0,0,0-.326-1.066" transform="translate(-15.82 -7.091)" fill="#ff999d"/>
    <path id="Trazado_882948" data-name="Trazado 882948" d="M224.462,101.428c-.052-7.912-2.817-16.02-.3-23.75l-1.035-.088c-1.687,5.405-.941,11.053-.273,16.609a45.9,45.9,0,0,1,.411,10.546c-.39,3.533-1.864,6.805-2.433,10.3-1.024,6.277.977,15.772-6.165,19.122-6.012,2.82-12.81-.916-19.044.534-3.374.782-5.876,3.14-8.834,4.765a12.634,12.634,0,0,1-11.681.274l-.09,1.072a13.625,13.625,0,0,0,8.017,1.1c3.267-.571,5.768-2.579,8.508-4.289,3.721-2.323,7.473-2.443,11.732-1.942,3.058.357,6.167.841,9.23.239,5.932-1.159,8.317-6.453,8.784-11.991.355-4.195.233-8.194,1.406-12.295a35.532,35.532,0,0,0,1.764-10.21" transform="translate(-24.29 -10.768)" fill="#ff999d"/>
    <path id="Trazado_882949" data-name="Trazado 882949" d="M174.539,147.8a11.917,11.917,0,0,0,10.874,13.4.518.518,0,0,0,.089-1.031,10.889,10.889,0,0,1-9.936-12.28c.081-.66-.948-.748-1.027-.09" transform="translate(-24.211 -20.45)" fill="#e3405b"/>
    <path id="Trazado_882950" data-name="Trazado 882950" d="M209.561,133.582a13.063,13.063,0,0,0,16.5,13.571c.637-.171.456-1.189-.188-1.015a12.031,12.031,0,0,1-15.286-12.47.515.515,0,0,0-1.025-.087" transform="translate(-29.079 -18.475)" fill="#e3405b"/>
    <path id="Trazado_882951" data-name="Trazado 882951" d="M236.873,119.682a11.742,11.742,0,0,0-15.138-2.221c-.554.353-.119,1.291.444.932a10.724,10.724,0,0,1,13.9,1.954c.435.5,1.225-.163.79-.665" transform="translate(-30.737 -16.049)" fill="#e3405b"/>
    <path id="Trazado_882952" data-name="Trazado 882952" d="M213.9,66.944c-2.987-3.68-2.667-9.729.1-13.451.4-.534-.448-1.127-.842-.594-3.052,4.1-3.323,10.676-.049,14.71.419.518,1.209-.148.791-.665" transform="translate(-29.25 -7.312)" fill="#e3405b"/>
    <path id="Trazado_882953" data-name="Trazado 882953" d="M136.7,68.191c1.951-4.02,2.629-8.924.176-12.9-.345-.558-1.281-.121-.93.444,2.323,3.76,1.63,8.294-.213,12.095-.294.6.681.949.967.357" transform="translate(-18.83 -7.638)" fill="#e3405b"/>
    <path id="Trazado_882954" data-name="Trazado 882954" d="M109.83,101.562a10.538,10.538,0,0,0,6.817,5.546c3.3.828,6.653.68,9.333-1.618a.517.517,0,0,0-.667-.79c-2.449,2.1-5.586,2.2-8.585,1.368a9.508,9.508,0,0,1-5.964-4.95.518.518,0,0,0-.934.444" transform="translate(-15.234 -13.994)" fill="#e3405b"/>
    <path id="Trazado_882955" data-name="Trazado 882955" d="M239.457,82.456a11,11,0,0,0-14.053-4.45.516.516,0,0,0,.443.932A9.936,9.936,0,0,1,238.524,82.9c.335.568,1.273.131.933-.444" transform="translate(-31.242 -10.688)" fill="#e3405b"/>
    <path id="Trazado_882956" data-name="Trazado 882956" d="M131.895,84.078a11.425,11.425,0,0,0-11.485-4.937.517.517,0,0,0,.191,1.015,10.407,10.407,0,0,1,10.5,4.588c.365.554,1.15-.117.79-.667" transform="translate(-16.654 -10.96)" fill="#e3405b"/>
    <path id="Trazado_882957" data-name="Trazado 882957" d="M167.374,51.806a9.138,9.138,0,0,0-4.626,8.775c.064.661,1.077.469,1.015-.189a8.07,8.07,0,0,1,4.055-7.654c.579-.319.14-1.253-.443-.932" transform="translate(-22.581 -7.181)" fill="#e3405b"/>
    <path id="Trazado_882958" data-name="Trazado 882958" d="M182.815,72.451c2.566-2.477,4.282-6.006,3.393-9.617-.157-.642-1.176-.457-1.015.19.8,3.247-.732,6.406-3.041,8.637-.476.459.184,1.251.663.79" transform="translate(-25.256 -8.665)" fill="#e3405b"/>
    <path id="Trazado_882959" data-name="Trazado 882959" d="M336.456,69.3a38.188,38.188,0,1,1-38.187-38.187A38.187,38.187,0,0,1,336.456,69.3" transform="translate(-36.094 -4.318)" fill="#f8fcff"/>
    <path id="Trazado_882960" data-name="Trazado 882960" d="M298.15,108.1a38.925,38.925,0,1,1,38.925-38.925A38.969,38.969,0,0,1,298.15,108.1m0-76.375A37.45,37.45,0,1,0,335.6,69.179,37.492,37.492,0,0,0,298.15,31.73" transform="translate(-35.976 -4.199)" fill="#20759e"/>
    <path id="Trazado_882961" data-name="Trazado 882961" d="M292.957,53.111a19.776,19.776,0,0,1-4.537-4.17,51.67,51.67,0,0,1,6.141-3.583,1.312,1.312,0,0,0-1.111-2.376c-.85.419-1.682.864-2.5,1.325a38.349,38.349,0,0,1-2.36-4.935c-.608-1.582-2.979-.455-2.378,1.113a38.991,38.991,0,0,0,2.485,5.155,56.5,56.5,0,0,0-5.32,3.775c-.016-.014-.028-.028-.042-.04-1.486-1.2-3.055-2.287-4.564-3.46-1.331-1.038-2.8,1.136-1.469,2.171s2.7,2.007,4.03,3.046q-1.625,1.417-3.152,2.95c-1.373-.755-2.738-1.533-4.084-2.337-1.443-.863-2.926,1.3-1.47,2.171q1.821,1.09,3.685,2.114-1.855,2.007-3.559,4.163c-1.05,1.325,1.126,2.789,2.173,1.47q1.788-2.259,3.749-4.346,1.309.695,2.627,1.376c1.482.761,2.973-1.4,1.47-2.171q-1.1-.568-2.2-1.146a58.294,58.294,0,0,1,5.708-4.913,21.823,21.823,0,0,0,5.206,4.819,1.312,1.312,0,0,0,1.471-2.171" transform="translate(-37.752 -5.358)" fill="#ffbd66"/>
    <path id="Trazado_882962" data-name="Trazado 882962" d="M308.513,46.376c-1.264.23-1.171,2.247.109,2.015a16.047,16.047,0,0,1,5.6-.387,12.146,12.146,0,0,0,1.158,6.943c.617,1.15,2.309.047,1.7-1.089a7.959,7.959,0,0,1-.822-2.5c1.032.393,2.066.768,3.09,1.182,1.2.483,2.108-1.318.9-1.807-1.363-.552-2.753-1.038-4.119-1.586a15.447,15.447,0,0,1,.138-1.607c.013-.068.023-.137.03-.208.049-.357.112-.712.185-1.067a8.393,8.393,0,0,1,2.845.56,1.034,1.034,0,0,0,1.355-.453,1.018,1.018,0,0,0-.456-1.356,11.662,11.662,0,0,0-3.253-.752c.286-1,.615-1.95.94-2.817.456-1.2-1.344-2.12-1.808-.9A33.614,33.614,0,0,0,314.513,46a17.262,17.262,0,0,0-6,.375" transform="translate(-42.691 -5.548)" fill="#ffbd66"/>
    <path id="Trazado_882963" data-name="Trazado 882963" d="M309.573,65.712c1.45-.677.27-2.853-1.166-2.181a5.432,5.432,0,0,1-4.018.157,24.578,24.578,0,0,1,5.955-7.865c1.191-1.064-.515-2.85-1.7-1.792a28.1,28.1,0,0,0-2.785,2.871,13.3,13.3,0,0,1-4.463-3.312c-1.058-1.2-2.846.514-1.79,1.7a15.524,15.524,0,0,0,4.725,3.59q-.641.92-1.2,1.893a13.007,13.007,0,0,1-2.493-1.285c-1.332-.878-2.605,1.243-1.275,2.12a15.161,15.161,0,0,0,2.65,1.368,18.788,18.788,0,0,0-1.635,6.587,1.236,1.236,0,0,0,2.471.062,15.158,15.158,0,0,1,.671-3.661,8.01,8.01,0,0,0,6.058-.257" transform="translate(-41.467 -7.381)" fill="#ffbd66"/>
    <path id="Trazado_882964" data-name="Trazado 882964" d="M280.212,86.9c1.891,3.912,4.877,6.488,9.359,6.577a1.479,1.479,0,0,0,1.534-1.266,1.672,1.672,0,0,0,2.051.768,9.359,9.359,0,0,1,7.047.084,1.408,1.408,0,0,0,.84.09,1.329,1.329,0,0,0,.256.746,16.048,16.048,0,0,1,2.566,7.586c.212,1.974,3.222,1.284,3.013-.676a17.945,17.945,0,0,0-2.84-8.335,1.653,1.653,0,0,0-1.9-.63,1.552,1.552,0,0,0-.966-1.713,12.557,12.557,0,0,0-9.437.109,1.246,1.246,0,0,0-.816.809,1.352,1.352,0,0,0-1.193-.655c-3.426-.069-5.339-1.958-6.771-4.92a1.354,1.354,0,0,0-1.039-.8,1.271,1.271,0,0,0,.48-1.124,17.024,17.024,0,0,1,2.163-9.827c1.02-1.707-1.567-3.394-2.588-1.685A19.859,19.859,0,0,0,279.309,83.4a1.608,1.608,0,0,0,1.47,1.542,1.491,1.491,0,0,0-.567,1.96" transform="translate(-38.76 -9.899)" fill="#398fb9"/>
    <path id="Trazado_882965" data-name="Trazado 882965" d="M299.132,102.19c1.706-1.008.294-3.752-1.425-2.737a13.876,13.876,0,0,1-8.579,1.844,1.38,1.38,0,0,0-1.021.282,1.472,1.472,0,0,0-.639-.977,18.289,18.289,0,0,0-9.5-2.938,1.48,1.48,0,0,0-.785.158,1.355,1.355,0,0,0-.462-.8c-2.45-2.226-3.349-5.39-3.818-8.57-.293-1.967-3.3-1.284-3.013.676.539,3.652,1.736,7.418,4.546,9.967a1.6,1.6,0,0,0,1.973.162,1.462,1.462,0,0,0,1.41,1.485,15.176,15.176,0,0,1,7.96,2.443,1.361,1.361,0,0,0,1.808-.132,1.492,1.492,0,0,0,1.385,1.321,16.713,16.713,0,0,0,10.158-2.189" transform="translate(-37.453 -12.113)" fill="#398fb9"/>
    <path id="Trazado_882966" data-name="Trazado 882966" d="M287.368,83.788a8.2,8.2,0,0,1,6.5.208,1.557,1.557,0,0,0,1.4.042A1.26,1.26,0,0,0,296,85.08a10.959,10.959,0,0,1,4.195,3.976c1.039,1.682,3.788.272,2.739-1.426a14,14,0,0,0-5.248-5.135,1.548,1.548,0,0,0-1.406-.047,1.251,1.251,0,0,0-.733-1.039,11.175,11.175,0,0,0-8.856-.635c-1.885.584-1.232,3.6.674,3.013" transform="translate(-39.631 -11.124)" fill="#398fb9"/>
    <path id="Trazado_882967" data-name="Trazado 882967" d="M314.691,79.571c.309-2.243,1.358-4.266,2.963-4.045s2.243,2.119,1.935,4.363-1.449,3.981-3.053,3.76-2.152-1.835-1.845-4.078" transform="translate(-43.662 -10.479)" fill="#87d4c7"/>
    <path id="Trazado_882968" data-name="Trazado 882968" d="M336.889,72.435c1.269-1.762,2.659-2.518,3.92-1.611s1.111,2.809-.158,4.571-3.18,2.717-4.438,1.809-.6-3.007.675-4.769" transform="translate(-46.567 -9.776)" fill="#87d4c7"/>
    <path id="Trazado_882969" data-name="Trazado 882969" d="M334.173,85.045c-.108-1.92.428-3.213,1.8-3.29s2.326,1.314,2.436,3.232-.674,3.639-2.047,3.715-2.082-1.738-2.189-3.658" transform="translate(-46.375 -11.346)" fill="#87d4c7"/>
    <path id="Trazado_882970" data-name="Trazado 882970" d="M333.579,62.422c-1.615-.667-3.356-.823-4.008.154-.005-.026-.007-.053-.013-.079-.385-1.607-2.166-1.967-4.415-1.43-2.218.532-4.055,1.74-3.736,3.316-1-.406-2.442.059-3.744,1.043-1.672,1.262-2.474,2.876-1.573,4.07s2.7.734,4.372-.527c1.33-1,2.158-2.207,2-3.261a5.738,5.738,0,0,0,3.611.058,5.088,5.088,0,0,0,3.307-1.915,4.014,4.014,0,0,0,2.46,2.33c1.736.716,3.368.462,3.879-.779s-.4-2.262-2.136-2.981" transform="translate(-43.816 -8.443)" fill="#87d4c7"/>
    <path id="Trazado_882971" data-name="Trazado 882971" d="M330.862,76.264c.159-2.539-.5-4.611-2.315-4.724s-2.765,1.644-2.925,4.182c-.119,1.908.244,3.713,1.2,4.539-1.608.095-3.118,1.665-3.747,3.929-.607,2.184-.2,4.329,1.011,5.322a4.4,4.4,0,0,0-3.008,1.583c-1.432,1.53-1.93,3.443-.835,4.465s2.947.476,4.378-1.055c1.411-1.511,1.881-3.406.847-4.441,1.742.133,3.418-1.613,4.1-4.054.632-2.274.185-4.4-1.143-5.3,1.516-.226,2.293-2.125,2.437-4.444" transform="translate(-44.362 -9.928)" fill="#87d4c7"/>
    <path id="Trazado_882972" data-name="Trazado 882972" d="M256.939,133.583H220.3a.469.469,0,1,1,0-.938h36.636a2.178,2.178,0,0,0,1.27-.525l17.154-17.154a.469.469,0,1,1,.662.663l-17.152,17.153a3.094,3.094,0,0,1-1.934.8" transform="translate(-30.509 -15.936)" fill="#224a5f"/>
    <path id="Trazado_882973" data-name="Trazado 882973" d="M220.19,137.6a1.835,1.835,0,1,1,1.834-1.835,1.834,1.834,0,0,1-1.834,1.835" transform="translate(-30.304 -18.587)" fill="#224a5f"/>
    <path id="Trazado_882974" data-name="Trazado 882974" d="M285.623,116.452a1.836,1.836,0,1,0-2.6,0,1.837,1.837,0,0,0,2.6,0" transform="translate(-39.205 -15.727)" fill="#224a5f"/>
    <path id="Trazado_882975" data-name="Trazado 882975" d="M127.869,171.668h-6.418a.188.188,0,0,1,0-.376h6.418a.188.188,0,0,1,0,.376" transform="translate(-16.829 -23.772)" fill="#398fb9"/>
    <path id="Trazado_882976" data-name="Trazado 882976" d="M144.024,169.779H121.451a.188.188,0,0,1,0-.376h22.573a.188.188,0,0,1,0,.376" transform="translate(-16.829 -23.51)" fill="#398fb9"/>
    <path id="Trazado_882977" data-name="Trazado 882977" d="M138.716,167.889H121.451a.188.188,0,1,1,0-.375h17.265a.188.188,0,0,1,0,.375" transform="translate(-16.829 -23.248)" fill="#398fb9"/>
    <path id="Trazado_882978" data-name="Trazado 882978" d="M141.98,166H121.451a.189.189,0,0,1,0-.379H141.98a.189.189,0,0,1,0,.379" transform="translate(-16.829 -22.986)" fill="#398fb9"/>
    <path id="Trazado_882979" data-name="Trazado 882979" d="M144.024,164.112H121.451a.188.188,0,0,1,0-.376h22.573a.188.188,0,0,1,0,.376" transform="translate(-16.829 -22.724)" fill="#398fb9"/>
    <path id="Trazado_882980" data-name="Trazado 882980" d="M140.222,189.426H121.451a.189.189,0,0,1-.188-.189.187.187,0,0,1,.188-.187h18.771a.188.188,0,0,1,.189.187.19.19,0,0,1-.189.189" transform="translate(-16.829 -26.237)" fill="#398fb9"/>
    <path id="Trazado_882981" data-name="Trazado 882981" d="M134.2,187.537H121.451a.189.189,0,0,1-.188-.189.187.187,0,0,1,.188-.187H134.2a.187.187,0,0,1,.188.187.189.189,0,0,1-.188.189" transform="translate(-16.829 -25.975)" fill="#398fb9"/>
    <path id="Trazado_882982" data-name="Trazado 882982" d="M144.024,185.648H121.451a.188.188,0,0,1,0-.376h22.573a.188.188,0,0,1,0,.376" transform="translate(-16.829 -25.712)" fill="#398fb9"/>
    <path id="Trazado_882983" data-name="Trazado 882983" d="M141.477,183.759H121.451a.188.188,0,0,1,0-.376h20.026a.188.188,0,0,1,0,.376" transform="translate(-16.829 -25.45)" fill="#398fb9"/>
    <path id="Trazado_882984" data-name="Trazado 882984" d="M144.024,181.87H121.451a.188.188,0,0,1,0-.376h22.573a.188.188,0,0,1,0,.376" transform="translate(-16.829 -25.188)" fill="#398fb9"/>
    <path id="Trazado_882985" data-name="Trazado 882985" d="M131.134,207.184h-9.684a.188.188,0,0,1,0-.376h9.684a.188.188,0,0,1,0,.376" transform="translate(-16.829 -28.701)" fill="#398fb9"/>
    <path id="Trazado_882986" data-name="Trazado 882986" d="M136.456,205.295H121.451a.187.187,0,1,1,0-.375h15.005a.187.187,0,1,1,0,.375" transform="translate(-16.829 -28.439)" fill="#398fb9"/>
    <path id="Trazado_882987" data-name="Trazado 882987" d="M144.024,203.407H121.451a.19.19,0,0,1-.188-.19.187.187,0,0,1,.188-.186h22.573a.188.188,0,0,1,.187.186.191.191,0,0,1-.187.19" transform="translate(-16.829 -28.177)" fill="#398fb9"/>
    <path id="Trazado_882988" data-name="Trazado 882988" d="M144.024,201.516H121.451a.188.188,0,1,1,0-.375h22.573a.188.188,0,0,1,0,.375" transform="translate(-16.829 -27.915)" fill="#398fb9"/>
    <path id="Trazado_882989" data-name="Trazado 882989" d="M140.724,199.629H121.451a.189.189,0,0,1,0-.378h19.273a.189.189,0,0,1,0,.378" transform="translate(-16.829 -27.652)" fill="#398fb9"/>
    <path id="Trazado_882990" data-name="Trazado 882990" d="M112.932,172.126h-6.453a2.01,2.01,0,0,1-2.012-2.008v-6.456a2.009,2.009,0,0,1,2.012-2.009h6.453a2.01,2.01,0,0,1,2.011,2.009v6.456a2.01,2.01,0,0,1-2.011,2.008" transform="translate(-14.498 -22.435)" fill="#ffbd66"/>
    <path id="Trazado_882991" data-name="Trazado 882991" d="M107.227,167.848c.525.629,1.052,1.261,1.576,1.89.074.089.145.176.218.262a.352.352,0,0,0,.549-.07c.11-.189.226-.377.337-.565.272-.451.539-.9.814-1.354.326-.549.656-1.1.984-1.645.283-.473.566-.942.849-1.416.14-.231.283-.458.416-.693,0,0,.008-.006.008-.01a.348.348,0,0,0-.6-.351c-.115.191-.23.378-.341.568-.27.451-.543.9-.808,1.353-.334.547-.66,1.1-.987,1.644q-.43.709-.852,1.416c-.14.232-.289.457-.416.692a.02.02,0,0,1-.006.011c.181-.024.365-.046.546-.07q-.789-.943-1.573-1.89c-.079-.088-.149-.176-.222-.263a.349.349,0,0,0-.491,0,.356.356,0,0,0,0,.491" transform="translate(-14.868 -22.722)" fill="#fff"/>
    <path id="Trazado_882992" data-name="Trazado 882992" d="M112.932,207.642h-6.453a2.009,2.009,0,0,1-2.012-2.009v-6.457a2.01,2.01,0,0,1,2.012-2.009h6.453a2.011,2.011,0,0,1,2.011,2.009v6.457a2.01,2.01,0,0,1-2.011,2.009" transform="translate(-14.498 -27.363)" fill="#87d4c7"/>
    <path id="Trazado_882993" data-name="Trazado 882993" d="M107.227,203.364q.788.943,1.576,1.89c.074.088.145.174.218.263a.353.353,0,0,0,.549-.071c.11-.189.226-.376.337-.565.272-.451.539-.9.814-1.354.326-.548.656-1.1.984-1.645q.425-.707.849-1.417c.14-.231.282-.46.416-.692,0-.005.007-.006.008-.01a.372.372,0,0,0-.125-.474.352.352,0,0,0-.475.124c-.113.188-.23.376-.341.567-.27.45-.541.9-.808,1.353-.334.544-.66,1.095-.987,1.643q-.43.708-.852,1.415c-.14.233-.293.456-.416.694l-.006.011.546-.071q-.789-.946-1.573-1.891c-.079-.086-.149-.174-.222-.262a.347.347,0,0,0-.491,0,.357.357,0,0,0,0,.492" transform="translate(-14.868 -27.651)" fill="#fff"/>
    <path id="Trazado_882994" data-name="Trazado 882994" d="M112.932,189.883h-6.453a2.01,2.01,0,0,1-2.012-2.009V181.42a2.01,2.01,0,0,1,2.012-2.011h6.453a2.01,2.01,0,0,1,2.011,2.011v6.454a2.011,2.011,0,0,1-2.011,2.009" transform="translate(-14.498 -24.899)" fill="#398fb9"/>
    <path id="Trazado_882995" data-name="Trazado 882995" d="M107.227,185.607c.525.629,1.052,1.261,1.576,1.89.074.087.145.176.218.262a.354.354,0,0,0,.549-.071c.11-.186.226-.375.337-.567.272-.45.539-.9.814-1.353.326-.545.656-1.094.984-1.641l.849-1.418c.14-.232.283-.457.416-.692l.008-.011a.347.347,0,0,0-.6-.35c-.113.189-.23.376-.341.564-.27.452-.541.9-.808,1.353-.334.548-.66,1.1-.987,1.646-.287.471-.57.945-.852,1.415-.14.232-.289.458-.416.7l-.006.009c.181-.024.365-.047.546-.07q-.789-.947-1.573-1.89c-.079-.086-.149-.175-.222-.263a.347.347,0,0,0-.491,0,.357.357,0,0,0,0,.492" transform="translate(-14.868 -25.187)" fill="#fff"/>
    <path id="Trazado_882996" data-name="Trazado 882996" d="M221.344,209.176H205a.478.478,0,1,1,0-.957h16.345a.478.478,0,1,1,0,.957" transform="translate(-28.383 -28.897)" fill="#b8e2fd"/>
    <path id="Trazado_882997" data-name="Trazado 882997" d="M243.064,204.368H205a.479.479,0,1,1,0-.959h38.064a.479.479,0,0,1,0,.959" transform="translate(-28.383 -28.229)" fill="#b8e2fd"/>
    <path id="Trazado_882998" data-name="Trazado 882998" d="M235.259,199.556H205a.479.479,0,1,1,0-.959h30.26a.479.479,0,0,1,0,.959" transform="translate(-28.383 -27.562)" fill="#b8e2fd"/>
    <path id="Trazado_882999" data-name="Trazado 882999" d="M243.572,194.745H205a.48.48,0,1,1,0-.959h38.571a.48.48,0,0,1,0,.959" transform="translate(-28.383 -26.894)" fill="#b8e2fd"/>
    <path id="Trazado_883000" data-name="Trazado 883000" d="M248.778,189.933H205a.479.479,0,1,1,0-.958h43.778a.479.479,0,0,1,0,.958" transform="translate(-28.383 -26.226)" fill="#b8e2fd"/>
    <path id="Trazado_883001" data-name="Trazado 883001" d="M285.011,296.654l-3.664.2-.585-9.126h5.4Z" transform="translate(-38.965 -39.932)" fill="#fda78c"/>
    <path id="Trazado_883002" data-name="Trazado 883002" d="M276.1,300.973c-.158,1.393,1.385,1.472,2.569,1.585,1.486.135,3.921.251,5.088-.446,1.149-.686.737-3.754.672-4.626,0,0-2.572.512-3.787,0-.549.315-2.482,1.468-3.184,1.921-.573.365-1.275.845-1.358,1.567" transform="translate(-38.316 -41.286)" fill="#14232f"/>
    <path id="Trazado_883003" data-name="Trazado 883003" d="M305.26,293.6l-.127,3.065h-3.507l-.268-3.065Z" transform="translate(-41.823 -40.746)" fill="#fda78c"/>
    <path id="Trazado_883004" data-name="Trazado 883004" d="M301.8,302.6a.834.834,0,0,1-.729-.4,2.345,2.345,0,0,1-.3-1.371,18.7,18.7,0,0,1,.423-2.414,9.762,9.762,0,0,1,.343-1.357l3.516.052a8.772,8.772,0,0,1,.669,2.108,4.8,4.8,0,0,1-.174,2.932.839.839,0,0,1-.758.447Z" transform="translate(-41.741 -41.227)" fill="#14232f"/>
    <path id="Trazado_883005" data-name="Trazado 883005" d="M301.743,215.148H283.261c-2.336,7.788-4.248,16.6-3.9,24.973.189,4.614-.063,37.464,1.125,43.144h5.334c3.453-11.346,2.48-21.486,2.836-27.339.257-4.229,2.667-11.986,3.548-19.293.881,7.307,2.223,19.3,2.448,22.121.542,6.761.283,12.744,2.7,24.511h5.333c2.592-17.007.591-22.35.6-26.989s1.911-29.125-1.531-41.128" transform="translate(-38.764 -29.859)" fill="#398fb9"/>
    <path id="Trazado_883006" data-name="Trazado 883006" d="M260.4,175.625q-.775-1.227-1.559-2.454a.073.073,0,0,0,0-.058,14.423,14.423,0,0,0-3.964-5.854c-.258-.23-1.926-1.88-2.2-.982-.065.2.08.376.2.521.2.248.43.479.627.733a11.825,11.825,0,0,1,.875,1.3.939.939,0,0,0-.676.708.76.76,0,0,0-.61.245,1,1,0,0,0-.17.3c-.051.115-.056.1-.146.192-.46.474-.1,1.313.173,1.791a7.708,7.708,0,0,0,1.523,1.787c.516.477,1.056.925,1.608,1.35.346.818.688,1.635,1.033,2.454Z" transform="translate(-35.05 -23.039)" fill="#fda78c"/>
    <path id="Trazado_883007" data-name="Trazado 883007" d="M304.674,184.057c-1.336-4.376-4.816-5.273-6.671-5.785a16.677,16.677,0,0,0-5.625-.375c-10.868-.109-12.919,2.455-16.014,3.935a26.8,26.8,0,0,1-9.255,2.482s-5.031-7.158-5.685-7.927c-.773,0-4.311,2.547-4.311,2.547,1.367,3.712,4.651,10.409,7.017,12.476,2.751,2.411,14.406-.555,14.406-.555-.91,6.364,1.219,11.529.7,17.168-.725,7.841-5.079,15.8-5.144,35.474a79.312,79.312,0,0,0,14.892,2.321,60.452,60.452,0,0,0,13.985-.866c.129-7.137-.864-22.219-2.227-27.209,3.064-3.4,7.115-8.634,7.577-12.306.508-4.039-2.618-18.025-3.644-21.381m-3.067,20.251a15.8,15.8,0,0,1-1.728,3.789,41.536,41.536,0,0,1,.932-7.88,22.436,22.436,0,0,1,.8,4.091" transform="translate(-35.682 -24.479)" fill="#ffdec9"/>
    <path id="Trazado_883008" data-name="Trazado 883008" d="M307.14,177.328a25.2,25.2,0,0,0-1.532-4.722,12.363,12.363,0,0,1-.819-2.411,11.368,11.368,0,0,1-.053-3.02,15.489,15.489,0,0,0-1.87-9.368,6.6,6.6,0,0,0-3.213-2.853,4.441,4.441,0,0,0-3.719.221c-1.882-.812-4.125.278-5.3,1.881a11.588,11.588,0,0,0-1.659,3.744,23.937,23.937,0,0,0-.856,4.335,12.414,12.414,0,0,0,.285,4.229,15.377,15.377,0,0,0,2.106,4.086c1.783,2.883,1.89,6.3,1.6,9.586-.171,1.973-.469,3.934-.555,5.913-.054,1.15.015,2.483,1.052,3.2a.1.1,0,0,0,.138-.036,7.677,7.677,0,0,1,1.008-1.406,6.951,6.951,0,0,1,.359,2.494.1.1,0,0,0,.1.1c2.312-.229,4.851-.561,6.424-2.423a6.72,6.72,0,0,1-.481,2.139c-.029.078.056.133.124.123a3.092,3.092,0,0,0,1.9-1.181,3.651,3.651,0,0,1,.183,1.573c-.007.068.068.109.129.1,2.976-.716,4.048-3.994,4.622-6.642a23.225,23.225,0,0,0,.025-9.656" transform="translate(-39.977 -21.463)" fill="#402013"/>
    <path id="Trazado_883009" data-name="Trazado 883009" d="M282.22,192.817a16,16,0,0,0,1.86-.409,5.8,5.8,0,0,0,3.269-1.965.109.109,0,0,0-.173-.133,5.908,5.908,0,0,1-3.229,1.9c-.717.2-1.576.37-1.753.394a.109.109,0,0,0,.026.216" transform="translate(-39.151 -26.406)" fill="#e6b08e"/>
    <path id="Trazado_883010" data-name="Trazado 883010" d="M287.129,206.678a26.576,26.576,0,0,0,.371,9.51c.029.134.234.075.2-.06a26.42,26.42,0,0,1-.369-9.4c.018-.137-.188-.19-.206-.053" transform="translate(-39.812 -28.672)" fill="#e6b08e"/>
    <path id="Trazado_883011" data-name="Trazado 883011" d="M288.495,213.261a21.111,21.111,0,0,0,3.075,7.6.106.106,0,0,0,.181-.109,20.85,20.85,0,0,1-3.048-7.55c-.027-.136-.231-.078-.208.059" transform="translate(-40.038 -29.578)" fill="#e6b08e"/>
    <path id="Trazado_883012" data-name="Trazado 883012" d="M307.613,222.948a.112.112,0,0,1-.107-.1,63.064,63.064,0,0,1-.872-9.664.11.11,0,0,1,.11-.111.113.113,0,0,1,.111.111,62.883,62.883,0,0,0,.871,9.632.111.111,0,0,1-.095.126.059.059,0,0,1-.018,0" transform="translate(-42.555 -29.571)" fill="#e6b08e"/>
    <path id="Trazado_883013" data-name="Trazado 883013" d="M307.872,203.058a.055.055,0,0,1-.023,0,.109.109,0,0,1-.085-.132l.149-.658a49.715,49.715,0,0,0,1.108-6.152.107.107,0,0,1,.121-.1.11.11,0,0,1,.1.123,50.37,50.37,0,0,1-1.112,6.178l-.15.656a.11.11,0,0,1-.108.087" transform="translate(-42.712 -27.203)" fill="#e6b08e"/>
    <rect id="Rect치ngulo_402201" data-name="Rect치ngulo 402201" width="7.139" height="9.92" transform="translate(40.842 206.137)" fill="#ffdec9"/>
    <path id="Trazado_883014" data-name="Trazado 883014" d="M37.481,295.515l3.554.129.555-8.564-4.761-.252Z" transform="translate(-5.111 -39.807)" fill="#a76b63"/>
    <path id="Trazado_883015" data-name="Trazado 883015" d="M44.847,298.393a15.182,15.182,0,0,0-2.063-1.186,17.711,17.711,0,0,1-1.672-.864,8.649,8.649,0,0,1-3.621-.191c-.109.824-.655,3.709.4,4.426,1.075.726,3.4.752,4.819.7,1.133-.041,3.414.016,3.341-1.322-.038-.693-.68-1.187-1.2-1.565" transform="translate(-5.17 -41.101)" fill="#14232f"/>
    <path id="Trazado_883016" data-name="Trazado 883016" d="M58.191,295.554l3.528.017.115-9.271h-4.9Z" transform="translate(-7.901 -39.733)" fill="#a76b63"/>
    <path id="Trazado_883017" data-name="Trazado 883017" d="M65.609,298.4a15.448,15.448,0,0,0-2.063-1.186,17.768,17.768,0,0,1-1.675-.864,9.136,9.136,0,0,1-3.633-.117c-.11.825-.639,3.635.416,4.352,1.072.726,3.4.752,4.819.7,1.132-.041,3.416.016,3.341-1.322-.04-.693-.681-1.187-1.2-1.565" transform="translate(-8.05 -41.112)" fill="#14232f"/>
    <path id="Trazado_883018" data-name="Trazado 883018" d="M33.464,259.195c.036,6.506.824,21.866,1.1,23.2h8.45c1.578-13.494,3.626-26.559,5.193-39.7,1.187,8,1.828,16.146,2.653,24.207.3,2.907,1.261,13.208,1.627,15.5h8.213c.438-7.332.791-23.2.831-29.459a328.032,328.032,0,0,0-1.4-36.2H33.816c.082,14.141-.438,28.325-.351,42.465" transform="translate(-4.643 -30.078)" fill="#398fb9"/>
    <path id="Trazado_883019" data-name="Trazado 883019" d="M50.76,244.419q.429-7.122.857-14.241c.039-.673.08-1.35.122-2.024.008-.146-.217-.146-.225,0q-.43,7.119-.859,14.238-.059,1.015-.121,2.027c-.01.146.215.143.225,0" transform="translate(-7.013 -31.649)" fill="#20759e"/>
    <path id="Trazado_883020" data-name="Trazado 883020" d="M79.381,198.568a1.873,1.873,0,0,0-2.566-.079,5.283,5.283,0,0,0-1.207,1.457,20.177,20.177,0,0,1-1.2,1.726q-1.694.84-3.424,1.589l1.288,3.451a31.721,31.721,0,0,1,3.793-.982,4.415,4.415,0,0,0,2.555-.94,3.468,3.468,0,0,0,1.367-3.051c.073-1.058.164-2.325-.6-3.171" transform="translate(-9.851 -27.482)" fill="#a76b63"/>
    <path id="Trazado_883021" data-name="Trazado 883021" d="M50.536,167.126,50.5,165.06a3.438,3.438,0,0,0,3.1-.3c1.5-1.319,1.994-4.173,1.362-7.343A12.9,12.9,0,0,0,54.113,154c-.5-1.456-2.027-2.291-5.112-1.65-1.362.283-3.41,7.39-3.526,7.375a3.539,3.539,0,0,1-.728,2.09c-.062,1.935-.258,5.014-.258,5.014a13.961,13.961,0,0,0,6.046.3" transform="translate(-6.174 -21.113)" fill="#a76b63"/>
    <path id="Trazado_883022" data-name="Trazado 883022" d="M50.937,166.843a6.128,6.128,0,0,1-2.64-1.486c-.1-.109-.284.049-.175.159a6.364,6.364,0,0,0,2.738,1.554.12.12,0,0,0,.077-.227" transform="translate(-6.674 -22.943)" fill="#8b5348"/>
    <path id="Trazado_883023" data-name="Trazado 883023" d="M55.055,171.625c-1.422-.591-2.922-1.007-4.322-1.728l-.389-1.458H43.784l-.586,1.469a9.437,9.437,0,0,1-1.3.665l1,39.457H58.089Z" transform="translate(-5.815 -23.376)" fill="#88cefc"/>
    <path id="Trazado_883024" data-name="Trazado 883024" d="M43.444,170.438c2.466.083,4.938.066,7.409.044a.112.112,0,0,0,0-.225c-2.471.021-4.943.038-7.409-.045-.146-.005-.146.221,0,.226" transform="translate(-6.014 -23.622)" fill="#65bceb"/>
    <path id="Trazado_883025" data-name="Trazado 883025" d="M57.755,152.6a6.179,6.179,0,0,1-.293-.759,1.651,1.651,0,0,1,.144-.9,2.252,2.252,0,0,0,.131-1.2,2.525,2.525,0,0,0-1.586-1.821,3.709,3.709,0,0,0-1.183-.257,2.866,2.866,0,0,1-1.888-.446,2.29,2.29,0,0,0-1.187-.686,2.841,2.841,0,0,0-1.388.184,5.734,5.734,0,0,0-1.671.86,5.068,5.068,0,0,0-3.668-.159,4.521,4.521,0,0,0-3.264,2.24,2.35,2.35,0,0,0-.2.838c-.015.407.147.795.147,1.2a3.16,3.16,0,0,1-.456,1.232,2.989,2.989,0,0,0-.232.844,2.652,2.652,0,0,0,1.032,2.362,10.668,10.668,0,0,0,.537,3.429c.246.717.759,1.286,1.02,1.989a7.208,7.208,0,0,1,.324,2.374.12.12,0,0,0,.152.116c2.12-.823,2.572-3.139,2.41-5.183a7.185,7.185,0,0,0,.813-.73,2.456,2.456,0,0,0,.533-1.311,8.867,8.867,0,0,0-.023-1.677q-.061-.807-.121-1.616a2.911,2.911,0,0,0,4.15,1.258c.41-.253.67-.7,1.083-.935.635-.361,1.277.194,1.765.547a2.124,2.124,0,0,0,2.385.265,1.628,1.628,0,0,0,.532-2.062" transform="translate(-5.711 -20.332)" fill="#14232f"/>
    <path id="Trazado_883026" data-name="Trazado 883026" d="M46.539,160.624c.447.721,1.2,1.068,1.672.773s.508-1.12.063-1.844-1.113-.937-1.593-.642-.591.987-.142,1.712" transform="translate(-6.42 -22.036)" fill="#a76b63"/>
    <path id="Trazado_883027" data-name="Trazado 883027" d="M40.461,170.356c-4.012,1.2-9.715.881-12.19,7.118C26.6,181.7,22.51,197.9,25.461,203.06c1.118,1.948,5.98,1.393,5.98,1.393.084,2.114-2.692,20.464-1.6,35.785,0,0,6.6,1.136,11.49-.539l.13-37.062,1.848-.4-.343-4.285-1.505-.052Z" transform="translate(-3.389 -23.642)" fill="#ffdec9"/>
    <path id="Trazado_883028" data-name="Trazado 883028" d="M70.25,197.927s-2.767.265-4.721.527c0,0-1.089-13.926-2.313-19.246-.485-2.1-1.1-4.105-2.7-5.547-1.826-1.652-7.288-3.03-7.288-3.03,5.39,20.531,7.325,69.1,7.325,69.1a13.36,13.36,0,0,0,4.328.539c0-18.637-1.933-36.416-1.933-36.416,6.02-.527,7.831-.893,7.831-.893Z" transform="translate(-7.387 -23.681)" fill="#ffdec9"/>
    <path id="Trazado_883029" data-name="Trazado 883029" d="M42.6,207.84a43.89,43.89,0,0,1-5.355,1.1c-1.517.245-3.04.461-4.57.619-.144.016-.146.241,0,.227,1.5-.158,3-.369,4.491-.605a45.686,45.686,0,0,0,5.433-1.1Z" transform="translate(-4.519 -28.844)" fill="#e6b08e"/>
    <path id="Trazado_883030" data-name="Trazado 883030" d="M42.163,201.948c-1.636-.135-3.284-.218-4.92-.333-2.562-.184-5.121-.392-7.687-.5-.145-.005-.145.219,0,.227,2.566.112,5.125.32,7.687.5,1.636.115,3.284.2,4.92.334Z" transform="translate(-4.087 -27.91)" fill="#e6b08e"/>
    <path id="Trazado_883031" data-name="Trazado 883031" d="M36.081,176.761c1.687,3.2,1.492,7.11,1.107,10.6-.41,3.672-1.9,7.152-3.077,10.622-.047.137.173.2.219.059,1.211-3.565,2.725-7.129,3.106-10.907.351-3.479.521-7.3-1.16-10.491-.066-.13-.264-.015-.195.114" transform="translate(-4.733 -24.508)" fill="#e6b08e"/>
    <path id="Trazado_883032" data-name="Trazado 883032" d="M64.4,204.771a163.012,163.012,0,0,0-1.668-20.079c-.223-1.625-.478-3.246-.774-4.859-.028-.144-.245-.084-.219.059a145.624,145.624,0,0,1,2.434,24.88c.005.145.231.145.227,0" transform="translate(-8.567 -24.946)" fill="#e6b08e"/>
    <path id="Trazado_883033" data-name="Trazado 883033" d="M55.112,190.178,52.123,202.31a.347.347,0,0,0,.337.428H72.833a.343.343,0,0,0,.335-.262l2.982-12.116a.351.351,0,0,0-.32-.449h-20.4a.338.338,0,0,0-.321.266" transform="translate(-7.232 -26.356)" fill="#14232f"/>
    <path id="Trazado_883034" data-name="Trazado 883034" d="M52.858,198.9a4.6,4.6,0,0,0-1.289.2,20.144,20.144,0,0,0-2.932,2.383c-.014.01-2.678.431-2.678.431l.329,3.947s2.9-.8,3.231-.971a5.933,5.933,0,0,0,4.017-1.178,10.672,10.672,0,0,1,2.807-.813c.724-.13,2.321-.775,2.269-1.84-.04-.8-3.939-2.28-5.755-2.157" transform="translate(-6.378 -27.603)" fill="#a76b63"/>
    <path id="Trazado_883035" data-name="Trazado 883035" d="M78.455,198.025c-1.833-.095-5.663,1.361-5.7,2.156-.053,1.064,1.548,1.708,2.271,1.84a10.716,10.716,0,0,1,2.8.813c.2.1.4.233.628.375Z" transform="translate(-10.097 -27.482)" fill="#a76b63"/>
    <path id="Trazado_883036" data-name="Trazado 883036" d="M359.488,295.718l3.144.047.922-7.689h-4.2Z" transform="translate(-49.873 -39.98)" fill="#fda78c"/>
    <path id="Trazado_883037" data-name="Trazado 883037" d="M359.071,298.1a17.6,17.6,0,0,0,.175,2.272,2.083,2.083,0,0,0,1.009,1.508,3.094,3.094,0,0,0,1.883.2,2.075,2.075,0,0,0,1.492-1A4.608,4.608,0,0,0,361,295.576a1.528,1.528,0,0,0-1.5.526,3.311,3.311,0,0,0-.434,2" transform="translate(-49.832 -41.018)" fill="#14232f"/>
    <path id="Trazado_883038" data-name="Trazado 883038" d="M344.129,295.545l-3.281.86L337.9,288.6l4.388-1.085Z" transform="translate(-46.894 -39.902)" fill="#fda78c"/>
    <path id="Trazado_883039" data-name="Trazado 883039" d="M336.6,301.4c.216,1.263,2.332.72,3.4.515,1.336-.259,3.5-.78,4.34-1.688s-.265-3.4-.545-4.146a8.742,8.742,0,0,1-3.362.891,17.371,17.371,0,0,1-1.375,1.164,14.479,14.479,0,0,0-1.667,1.548,2.261,2.261,0,0,0-.787,1.716" transform="translate(-46.712 -41.091)" fill="#14232f"/>
    <path id="Trazado_883040" data-name="Trazado 883040" d="M337.01,227.685h28.763c-.115,7.65-3.416,21.507-3.416,30.125,0,10.108-2.253,23.981-2.77,27.889l-5.267-.059c-2.057-14.13-3.372-40.612-4.611-46.53-1.244,2.327-6.354,13.9-8.291,18.818.849,8.641,1.773,18.929,2.163,27.583l-5.546,1.35s-7.261-23.88-7.261-31.062c0-6.915,5.005-23.683,6.236-28.114" transform="translate(-45.905 -31.599)" fill="#398fb9"/>
    <path id="Trazado_883041" data-name="Trazado 883041" d="M330.187,182.876l3.165,7.949c1.244-4.15,4.169-12.594,7.232-15.25,2.452-2.125,6.6-3.1,7.58-3.264l11.7-.041c2.671,1.033,5.5,1.834,7.357,3.921,2.153,2.418,3.055,5.923,3.875,9.163,1.47,5.813,2.445,15.985.683,18.11-1.641,1.979-4.465,2.078-6.418,2.084.413,9.1.03,18.587.03,18.587s-7.686.975-12.35.5-7.847-3.109-11.457-4.01c-2.994-.746-4.926-.434-5.831-.631,1.437-7.587,3.493-14.263,3.337-23.806-2.078,2.6-3.574,5.028-6.426,4.979-1.7-.029-4.313-1.985-5.644-6.194-1.349-4.263-1.319-10.943-1.319-10.943Z" transform="translate(-45.201 -23.908)" fill="#88cefc"/>
    <path id="Trazado_883042" data-name="Trazado 883042" d="M351.64,206.5c-4.125-1.434-4.762-1.022-7.793-.686a4.184,4.184,0,0,1-3.013-.415c-1.221-.741-2.922-1.994-3.242-3.138-.116-.413-.088-1.049.382-1.121.678-.105,1.8.975,2.879,1.292.6.176,2.476.266,2.556-.121.133-.619-.808-.75-1.184-1.275-.312-.437-.468-.838-.349-1.017.244-.363.7.1,1.347.5a17.841,17.841,0,0,0,2.369.623,4.011,4.011,0,0,1,1.7,1.246c.709,0,3.95-.346,4.66-.373Z" transform="translate(-46.844 -27.741)" fill="#fda78c"/>
    <path id="Trazado_883043" data-name="Trazado 883043" d="M355.309,179.036l7.8-9.194-3.528-1.113c-.072-.835-.212-3.249-.3-4.733a3.441,3.441,0,0,1-.755-2.006c-.112.016-2.272-6.807-3.594-7.047-3-.544-4.461.3-4.91,1.725a12.574,12.574,0,0,0-.738,3.335c-.531,3.081.015,5.832,1.5,7.071a3.34,3.34,0,0,0,3.014.209l.066,1.739-3.016.976Z" transform="translate(-48.446 -21.48)" fill="#fda78c"/>
    <path id="Trazado_883044" data-name="Trazado 883044" d="M354.61,168.993a5.944,5.944,0,0,0,2.516-1.506c.1-.109.276.04.177.151a6.182,6.182,0,0,1-2.615,1.573c-.139.047-.22-.169-.079-.217" transform="translate(-49.203 -23.239)" fill="#f5816c"/>
    <path id="Trazado_883045" data-name="Trazado 883045" d="M360.826,151.375a4.625,4.625,0,0,0-2.636-1.837,3.377,3.377,0,0,0-2.486.246,4.5,4.5,0,0,0-5.124-.552c-.647.295-3.311,1.337-3.307,3.823,0,1.062.543,2.713,1.559,3.159,1.162.509,1.666.218,2.777-.12,1.188-.358,3.088-.4,3.951.679a25.107,25.107,0,0,1,.267,2.913,1.935,1.935,0,0,0,.163.937,5.325,5.325,0,0,1,.676,1.331,10.784,10.784,0,0,0,.76,2.415,6.858,6.858,0,0,0,1.7,2.116c.068.057.2.018.188-.084-.212-2.283,1.333-4.113,1.989-6.187a7.253,7.253,0,0,0,.236-3.658,6.1,6.1,0,0,0-.714-5.182" transform="translate(-48.195 -20.635)" fill="#14232f"/>
    <path id="Trazado_883046" data-name="Trazado 883046" d="M358.8,162.867c-.413.711-1.13,1.064-1.6.79s-.518-1.07-.1-1.781,1.053-.934,1.524-.661.593.941.181,1.652" transform="translate(-49.52 -22.358)" fill="#fda78c"/>
    <path id="Trazado_883047" data-name="Trazado 883047" d="M361.005,175.868l-5.169,6.095-2.952-5.979Z" transform="translate(-48.974 -24.407)" fill="#fff"/>
    <path id="Trazado_883048" data-name="Trazado 883048" d="M329.583,182.284l-4.183,1.074s-.494-3.571-.686-4.7c-1.561-1.273-2.274-4.167-2.362-4.582a4.05,4.05,0,0,1-.173-1.126c.029-.38.325-2.6,2.138-2.185l-.179-.481a12.593,12.593,0,0,1-.509-1.468c-.06-.258-.2-.758.063-.963s.549.033.693.249a12.364,12.364,0,0,1,.691,1.224,18.159,18.159,0,0,1,1,2.339,4.078,4.078,0,0,1-.006-1.306c.046-.254.116-.6.412-.661a.334.334,0,0,1,.416.267c.059.22.047.475.092.7a6.081,6.081,0,0,0,.228.8,8.617,8.617,0,0,1,.646,2.865,23.273,23.273,0,0,1-.084,3.344,42.344,42.344,0,0,0,1.8,4.608" transform="translate(-44.712 -23.285)" fill="#fda78c"/>
    <path id="Trazado_883049" data-name="Trazado 883049" d="M352.5,240.078l.018,0a.127.127,0,0,0,.108-.14l-.483-3.613a.121.121,0,0,0-.141-.108.125.125,0,0,0-.106.14l.482,3.614a.125.125,0,0,0,.122.109" transform="translate(-48.836 -32.782)" fill="#20759e"/>
    <path id="Trazado_883050" data-name="Trazado 883050" d="M341.224,197.775a.125.125,0,0,0,.125-.115c.324-4.3,1.485-14.616,1.5-14.721a.125.125,0,0,0-.112-.137.126.126,0,0,0-.136.11c-.011.1-1.173,10.428-1.5,14.729a.124.124,0,0,0,.115.133h.009" transform="translate(-47.338 -25.369)" fill="#65bceb"/>
    <path id="Trazado_883051" data-name="Trazado 883051" d="M354.256,199.893l.022,0a68.414,68.414,0,0,1,9.522-.649c3.123-.07,4.234-.117,4.429-.373a.188.188,0,0,0,.034-.162c-.1-.4-.212-.8-.32-1.2a38.048,38.048,0,0,1-1.437-13.671.124.124,0,0,0-.116-.132h-.009a.122.122,0,0,0-.123.117,38.321,38.321,0,0,0,1.444,13.751c.106.39.209.776.312,1.162a23.174,23.174,0,0,1-4.219.264,67.264,67.264,0,0,0-9.56.653.126.126,0,0,0-.1.145.128.128,0,0,0,.123.1" transform="translate(-49.147 -25.494)" fill="#65bceb"/>
    <path id="Trazado_883052" data-name="Trazado 883052" d="M369.254,210.552a.125.125,0,0,0,.125-.114.124.124,0,0,0-.113-.135,87.111,87.111,0,0,1-15.336-2.87.124.124,0,1,0-.074.238,87.37,87.37,0,0,0,15.388,2.882Z" transform="translate(-49.097 -28.787)" fill="#65bceb"/>
    <path id="Trazado_883053" data-name="Trazado 883053" d="M159.823,292.938h-.83a3.945,3.945,0,0,1-3.944-3.944V243.03h8.72v45.964a3.945,3.945,0,0,1-3.945,3.944" transform="translate(-21.518 -33.728)" fill="#b8e2fd"/>
    <path id="Trazado_883054" data-name="Trazado 883054" d="M163.824,242.5h-9.368a.714.714,0,0,1-.713-.714v-1.842a.713.713,0,0,1,.713-.712h9.368a.713.713,0,0,1,.714.712v1.842a.714.714,0,0,1-.714.714" transform="translate(-21.337 -33.201)" fill="#b8e2fd"/>
    <path id="Trazado_883055" data-name="Trazado 883055" d="M163.565,243.191h-8.3a.174.174,0,0,1-.173-.175v-.036a.173.173,0,0,1,.173-.174h8.3a.175.175,0,0,1,.175.174v.036a.176.176,0,0,1-.175.175" transform="translate(-21.523 -33.697)" fill="#88cefc"/>
    <path id="Trazado_883056" data-name="Trazado 883056" d="M157.03,266.324v25.607a2.653,2.653,0,0,0,5.305,0V266.324Z" transform="translate(-21.793 -36.961)" fill="#398fb9"/>
    <path id="Trazado_883057" data-name="Trazado 883057" d="M181.123,292.938h-.832a3.944,3.944,0,0,1-3.944-3.944V243.03h8.719v45.964a3.944,3.944,0,0,1-3.944,3.944" transform="translate(-24.474 -33.728)" fill="#b8e2fd"/>
    <path id="Trazado_883058" data-name="Trazado 883058" d="M185.124,242.5h-9.368a.713.713,0,0,1-.712-.714v-1.842a.713.713,0,0,1,.712-.712h9.368a.713.713,0,0,1,.714.712v1.842a.714.714,0,0,1-.714.714" transform="translate(-24.293 -33.201)" fill="#b8e2fd"/>
    <path id="Trazado_883059" data-name="Trazado 883059" d="M184.864,243.191h-8.3a.175.175,0,0,1-.173-.175v-.036a.174.174,0,0,1,.173-.174h8.3a.175.175,0,0,1,.175.174v.036a.176.176,0,0,1-.175.175" transform="translate(-24.479 -33.697)" fill="#88cefc"/>
    <path id="Trazado_883060" data-name="Trazado 883060" d="M178.33,277.789v15.734a2.652,2.652,0,1,0,5.3,0V277.789Z" transform="translate(-24.749 -38.552)" fill="#ffbd66"/>
    <path id="Trazado_883061" data-name="Trazado 883061" d="M202.422,292.938h-.832a3.944,3.944,0,0,1-3.944-3.944V243.03h8.72v45.964a3.945,3.945,0,0,1-3.944,3.944" transform="translate(-27.43 -33.728)" fill="#b8e2fd"/>
    <path id="Trazado_883062" data-name="Trazado 883062" d="M206.423,242.5h-9.368a.713.713,0,0,1-.712-.714v-1.842a.713.713,0,0,1,.712-.712h9.368a.713.713,0,0,1,.714.712v1.842a.713.713,0,0,1-.714.714" transform="translate(-27.249 -33.201)" fill="#b8e2fd"/>
    <path id="Trazado_883063" data-name="Trazado 883063" d="M206.165,243.191h-8.306a.175.175,0,0,1-.173-.175v-.036a.174.174,0,0,1,.173-.174h8.306a.175.175,0,0,1,.174.174v.036a.176.176,0,0,1-.174.175" transform="translate(-27.435 -33.697)" fill="#88cefc"/>
    <path id="Trazado_883064" data-name="Trazado 883064" d="M199.63,253.667v36.509a2.652,2.652,0,1,0,5.3,0V253.667Z" transform="translate(-27.705 -35.204)" fill="#e3405b"/>
    <rect id="Rect치ngulo_402202" data-name="Rect치ngulo 402202" width="52.707" height="1.362" transform="translate(130.549 259.032)" fill="#20759e"/>
    <rect id="Rect치ngulo_402203" data-name="Rect치ngulo 402203" width="52.707" height="1.362" transform="translate(129.88 246.289)" fill="#20759e"/>
    <path id="Trazado_883065" data-name="Trazado 883065" d="M204.089,296.769h-1.362V267.086a3.626,3.626,0,0,0-3.621-3.621H155a3.625,3.625,0,0,0-3.621,3.621v29.684H150.02V267.086A4.988,4.988,0,0,1,155,262.1h44.1a4.99,4.99,0,0,1,4.984,4.984Z" transform="translate(-20.82 -36.375)" fill="#30617a"/>
    <path id="Trazado_883066" data-name="Trazado 883066" d="M106.189,249.077l2.47,4.408A15,15,0,0,0,117,280.959a14.828,14.828,0,0,0,8.072-2.394h7.481a20.035,20.035,0,1,1-26.362-29.488" transform="translate(-13.454 -34.567)" fill="#88cefc"/>
    <path id="Trazado_883067" data-name="Trazado 883067" d="M118.934,264.427l6.606-4.751a.393.393,0,0,0,.089-.551l-18.336-25.489a.394.394,0,0,0-.551-.089l-6.6,4.75a.4.4,0,0,0-.091.552l18.337,25.489a.4.4,0,0,0,.552.09" transform="translate(-13.874 -32.401)" fill="#ffdec9"/>
    <rect id="Rect치ngulo_402204" data-name="Rect치ngulo 402204" width="5.67" height="7.236" transform="matrix(0.812, -0.584, 0.584, 0.812, 83.037, 199.301)" fill="#88cefc"/>
    <path id="Trazado_883068" data-name="Trazado 883068" d="M96.132,230.839l4.9-3.528a.292.292,0,0,0,.068-.407l-.224-.311a.3.3,0,0,0-.41-.067l-4.9,3.528a.293.293,0,0,0-.067.409l.223.31a.293.293,0,0,0,.409.066" transform="translate(-13.246 -31.43)" fill="#224a5f"/>
    <path id="Trazado_883069" data-name="Trazado 883069" d="M101.514,237.718l4.39-3.159a.118.118,0,0,0,.027-.165l-.04-.056a.12.12,0,0,0-.164-.027l-4.392,3.159a.12.12,0,0,0-.028.165l.041.056a.12.12,0,0,0,.165.027" transform="translate(-14.057 -32.515)" fill="#65bceb"/>
    <rect id="Rect치ngulo_402205" data-name="Rect치ngulo 402205" width="5.896" height="1.282" transform="matrix(0.812, -0.584, 0.584, 0.812, 105.97, 231.371)" fill="#224a5f"/>
    <rect id="Rect치ngulo_402206" data-name="Rect치ngulo 402206" width="3.411" height="0.903" transform="matrix(0.812, -0.584, 0.584, 0.812, 107.713, 231.668)" fill="#224a5f"/>
    <path id="Trazado_883070" data-name="Trazado 883070" d="M128.615,283.157h9.121a.2.2,0,0,0,.2-.2v-.722a.2.2,0,0,0-.2-.2h-9.121a.2.2,0,0,0-.2.2v.722a.2.2,0,0,0,.2.2" transform="translate(-17.822 -39.142)" fill="#224a5f"/>
    <path id="Trazado_883071" data-name="Trazado 883071" d="M114.592,296.912H123.3v-6.219l-.871-5.414a.808.808,0,0,0-.8-.678l-5.34.041a.806.806,0,0,0-.789.672l-.907,5.378Z" transform="translate(-15.903 -39.498)" fill="#ffdec9"/>
    <path id="Trazado_883072" data-name="Trazado 883072" d="M114.122,300.014h9.517v-.922a.2.2,0,0,0-.2-.2h-9.122a.2.2,0,0,0-.2.2Z" transform="translate(-15.838 -41.481)" fill="#224a5f"/>
    <path id="Trazado_883073" data-name="Trazado 883073" d="M107.021,249.616l2.818,3.95a.118.118,0,0,0,.164.028l.055-.04a.119.119,0,0,0,.028-.165l-2.818-3.95a.118.118,0,0,0-.165-.028l-.055.039a.119.119,0,0,0-.028.165" transform="translate(-14.85 -34.611)" fill="#65bceb"/>
    <path id="Trazado_883074" data-name="Trazado 883074" d="M117.8,288.036a1.592,1.592,0,1,0,1.592-1.592,1.593,1.593,0,0,0-1.592,1.592" transform="translate(-16.348 -39.753)" fill="#224a5f"/>
    <path id="Trazado_883075" data-name="Trazado 883075" d="M123.653,285.9l.85,4.659a.118.118,0,0,0,.138.095l.067-.011a.117.117,0,0,0,.095-.138l-.85-4.659a.119.119,0,0,0-.138-.1l-.067.013a.117.117,0,0,0-.095.138" transform="translate(-17.16 -39.657)" fill="#65bceb"/>
    <path id="Trazado_883076" data-name="Trazado 883076" d="M115.576,285.638l-.851,4.66a.118.118,0,0,1-.137.095l-.067-.011a.12.12,0,0,1-.1-.139l.85-4.658a.12.12,0,0,1,.14-.1l.065.013a.118.118,0,0,1,.1.138" transform="translate(-15.88 -39.62)" fill="#65bceb"/>
    <path id="Trazado_883077" data-name="Trazado 883077" d="M105.45,302.056h29.883a.2.2,0,0,0,.2-.2v-1.466a.2.2,0,0,0-.2-.2H105.45a.2.2,0,0,0-.2.2v1.466a.2.2,0,0,0,.2.2" transform="translate(-14.607 -41.662)" fill="#224a5f"/>
  </g>
</svg>
