<svg xmlns="http://www.w3.org/2000/svg" xmlns:xlink="http://www.w3.org/1999/xlink" width="104" height="104" viewBox="0 0 104 104">
  <defs>
    <clipPath id="clip-path">
      <rect id="Rect치ngulo_402224" data-name="Rect치ngulo 402224" width="62.772" height="62.784" fill="none"/>
    </clipPath>
  </defs>
  <g id="Grupo_1103205" data-name="Grupo 1103205" transform="translate(-309.051 -2578)">
    <rect id="Rect치ngulo_402210" data-name="Rect치ngulo 402210" width="104" height="104" rx="8" transform="translate(309.051 2578)" fill="#fff"/>
    <g id="Grupo_1102181" data-name="Grupo 1102181" transform="translate(330.051 2599)">
      <g id="Grupo_1102180" data-name="Grupo 1102180" transform="translate(0 0)" clip-path="url(#clip-path)">
        <path id="Trazado_883344" data-name="Trazado 883344" d="M4.318,1.271a1.021,1.021,0,0,1,0,2.042,1.021,1.021,0,0,1,0-2.042" transform="translate(36.429 13.996)" fill="#f0c75b"/>
        <path id="Trazado_883345" data-name="Trazado 883345" d="M3.357,2.285A2.048,2.048,0,1,1,1.315,4.339,2.045,2.045,0,0,1,3.357,2.285" transform="translate(14.477 25.16)" fill="#f0c75b"/>
        <path id="Trazado_883346" data-name="Trazado 883346" d="M3.4,2.525A1.075,1.075,0,1,1,2.335,3.594,1.071,1.071,0,0,1,3.4,2.525" transform="translate(25.706 27.802)" fill="#f0c75b"/>
        <path id="Trazado_883347" data-name="Trazado 883347" d="M5,3.429A1.97,1.97,0,1,1,3.034,5.4,1.971,1.971,0,0,1,5,3.429" transform="translate(33.402 37.754)" fill="#f0c75b"/>
        <path id="Trazado_883348" data-name="Trazado 883348" d="M62.724,29.687c.024.564.036,1.141.036,1.717A31.38,31.38,0,1,1,31.38,0c.576,0,1.153.024,1.705.048a.835.835,0,0,1,.781.889.819.819,0,0,1-.817.781c-.588-.024-1.117-.048-1.669-.048A29.723,29.723,0,1,0,61.1,31.4c0-.552-.012-1.093-.036-1.633a.83.83,0,1,1,1.657-.084" transform="translate(0 0.004)"/>
        <path id="Trazado_883349" data-name="Trazado 883349" d="M7.545,5.28A.829.829,0,0,1,6.957,6.3l-.216.024a.833.833,0,0,1-.8-.612,28.256,28.256,0,0,0-.961-2.954.836.836,0,0,1,1.561-.6c.384,1.033.733,2.078,1.009,3.122" transform="translate(54.146 17.95)"/>
        <path id="Trazado_883350" data-name="Trazado 883350" d="M7.917,3.9a.82.82,0,0,1-.24,1.153.9.9,0,0,1-.444.132.861.861,0,0,1-.709-.372C5.96,3.947,5.347,3.107,4.7,2.3a.851.851,0,0,1,.132-1.177.81.81,0,0,1,1.153.132A27.555,27.555,0,0,1,7.917,3.9" transform="translate(49.775 10.383)"/>
        <path id="Trazado_883351" data-name="Trazado 883351" d="M50.735,20.713a8.243,8.243,0,0,1,0,12.706,8.229,8.229,0,0,1-6.341,10.976,8.212,8.212,0,0,1-4,5.764,8.309,8.309,0,0,1-6.989.588,8.231,8.231,0,0,1-12.694,0,8.305,8.305,0,0,1-6.989-.588,8.212,8.212,0,0,1-4-5.764A8.226,8.226,0,0,1,3.371,33.418a8.265,8.265,0,0,1,0-12.706A8.226,8.226,0,0,1,9.724,9.736,8.232,8.232,0,0,1,20.713,3.383a8.231,8.231,0,0,1,12.694,0A8.232,8.232,0,0,1,44.395,9.736a8.229,8.229,0,0,1,6.341,10.976m1.333,6.353a6.569,6.569,0,0,0-2.822-5.392.828.828,0,0,1-.276-1.033,6.569,6.569,0,0,0-5.392-9.331.856.856,0,0,1-.757-.757,6.548,6.548,0,0,0-9.343-5.392.837.837,0,0,1-1.033-.288,6.551,6.551,0,0,0-10.772,0,.849.849,0,0,1-1.045.288A6.542,6.542,0,0,0,11.3,10.553a.856.856,0,0,1-.757.757A6.569,6.569,0,0,0,5.149,20.64a.828.828,0,0,1-.276,1.033,6.578,6.578,0,0,0,0,10.784.825.825,0,0,1,.276,1.033,6.569,6.569,0,0,0,5.392,9.331.834.834,0,0,1,.757.757,6.556,6.556,0,0,0,9.331,5.392.964.964,0,0,1,.36-.072.808.808,0,0,1,.685.36,6.583,6.583,0,0,0,10.772,0,.833.833,0,0,1,1.033-.288,6.562,6.562,0,0,0,9.343-5.392.834.834,0,0,1,.757-.757A6.569,6.569,0,0,0,48.97,33.49a.825.825,0,0,1,.276-1.033,6.585,6.585,0,0,0,2.822-5.392" transform="translate(4.327 4.33)"/>
        <path id="Trazado_883352" data-name="Trazado 883352" d="M47.716,20.155a6.551,6.551,0,0,1,0,10.772.849.849,0,0,0-.288,1.045A6.556,6.556,0,0,1,42.036,41.3a.812.812,0,0,0-.745.757,6.583,6.583,0,0,1-9.343,5.392.825.825,0,0,0-1.033.276,6.578,6.578,0,0,1-10.784,0,.833.833,0,0,0-.673-.36.757.757,0,0,0-.36.084A6.569,6.569,0,0,1,9.767,42.06.834.834,0,0,0,9.01,41.3a6.556,6.556,0,0,1-5.392-9.331.849.849,0,0,0-.288-1.045,6.583,6.583,0,0,1,0-10.772.837.837,0,0,0,.288-1.033A6.562,6.562,0,0,1,9.01,9.779a.856.856,0,0,0,.757-.757A6.556,6.556,0,0,1,19.1,3.63a.825.825,0,0,0,1.033-.276,6.562,6.562,0,0,1,10.784,0,.828.828,0,0,0,1.033.276,6.57,6.57,0,0,1,9.343,5.392.833.833,0,0,0,.745.757,6.562,6.562,0,0,1,5.392,9.343.837.837,0,0,0,.288,1.033m-2.174,5.224a.83.83,0,0,0,.829-.829,8.238,8.238,0,1,0-13.642,6.2.841.841,0,0,0,.54.2.791.791,0,0,0,.624-.288.836.836,0,0,0-.084-1.177,6.573,6.573,0,1,1,10.9-4.936.823.823,0,0,0,.829.829M37.58,10.428a2.69,2.69,0,1,0-2.69,2.69,2.691,2.691,0,0,0,2.69-2.69M36.175,37.292a3.627,3.627,0,1,0-3.627,3.627,3.624,3.624,0,0,0,3.627-3.627M29.1,12.7a5.858,5.858,0,0,0-5.848-5.86A5.776,5.776,0,0,0,19.266,8.41a.823.823,0,0,0-.048,1.177.809.809,0,0,0,1.165.036,4.194,4.194,0,1,1,2.87,7.254,4.176,4.176,0,0,1-3.807-2.438.838.838,0,0,0-1.525.7A5.858,5.858,0,0,0,29.1,12.7m-3.122,12.85a2.732,2.732,0,1,0-2.726,2.726,2.734,2.734,0,0,0,2.726-2.726M18.234,42.66a5.78,5.78,0,0,0,2.99-10.724.843.843,0,0,0-.877,1.441,4.1,4.1,0,1,1-6.221,3.507,4.117,4.117,0,0,1,.985-2.678.83.83,0,1,0-1.249-1.093,5.773,5.773,0,0,0,4.371,9.547M15.688,23.638a3.711,3.711,0,1,0-3.723,3.7,3.708,3.708,0,0,0,3.723-3.7" transform="translate(5.857 5.861)" fill="#9299fb"/>
        <path id="Trazado_883353" data-name="Trazado 883353" d="M19.454,10.083a.829.829,0,1,1-1.657,0,6.575,6.575,0,1,0-10.9,4.948.83.83,0,1,1-1.081,1.261,8.235,8.235,0,1,1,13.642-6.209" transform="translate(32.774 20.316)"/>
        <path id="Trazado_883354" data-name="Trazado 883354" d="M7.863,2.478a.823.823,0,0,1,.132,1.165.848.848,0,0,1-.661.312.79.79,0,0,1-.516-.192,27.363,27.363,0,0,0-2.51-1.825A.821.821,0,0,1,4.068.8.836.836,0,0,1,5.221.545,31.642,31.642,0,0,1,7.863,2.478" transform="translate(43.284 4.539)"/>
        <path id="Trazado_883355" data-name="Trazado 883355" d="M7.376,1.137a.82.82,0,0,1,.468,1.069.812.812,0,0,1-.769.528.829.829,0,0,1-.3-.048,29.209,29.209,0,0,0-2.954-.961A.848.848,0,0,1,3.233.705.833.833,0,0,1,4.254.117,28.722,28.722,0,0,1,7.376,1.137" transform="translate(35.317 0.968)"/>
        <path id="Trazado_883356" data-name="Trazado 883356" d="M5.848,1.133A2.678,2.678,0,1,1,3.17,3.811,2.691,2.691,0,0,1,5.848,1.133M6.869,3.811A1.02,1.02,0,0,0,5.848,2.79a1.021,1.021,0,0,0,0,2.042A1.02,1.02,0,0,0,6.869,3.811" transform="translate(34.899 12.477)"/>
        <path id="Trazado_883357" data-name="Trazado 883357" d="M6.523,3.291A3.627,3.627,0,1,1,2.9,6.918,3.624,3.624,0,0,1,6.523,3.291m1.97,3.627a1.97,1.97,0,1,0-1.97,1.97,1.971,1.971,0,0,0,1.97-1.97" transform="translate(31.883 36.235)"/>
        <path id="Trazado_883358" data-name="Trazado 883358" d="M7.375,1.057a5.848,5.848,0,1,1-5.32,8.286.822.822,0,0,1,.4-1.093.83.83,0,0,1,1.117.408,4.194,4.194,0,1,0,.949-4.816A.845.845,0,0,1,3.34,3.807.823.823,0,0,1,3.388,2.63,5.82,5.82,0,0,1,7.375,1.057" transform="translate(21.736 11.64)"/>
        <path id="Trazado_883359" data-name="Trazado 883359" d="M4.934,2.386A2.738,2.738,0,1,1,2.2,5.124,2.734,2.734,0,0,1,4.934,2.386M6,5.124A1.075,1.075,0,1,0,4.934,6.193,1.071,1.071,0,0,0,6,5.124" transform="translate(24.176 26.272)"/>
        <path id="Trazado_883360" data-name="Trazado 883360" d="M13.078,8.2A5.776,5.776,0,1,1,2.93,4.427.834.834,0,0,1,4.191,5.519,4.054,4.054,0,0,0,3.206,8.2,4.1,4.1,0,1,0,9.427,4.679a.849.849,0,0,1-.288-1.141.866.866,0,0,1,1.153-.288A5.777,5.777,0,0,1,13.078,8.2" transform="translate(16.789 34.547)"/>
        <path id="Trazado_883361" data-name="Trazado 883361" d="M4.887,2.147A3.7,3.7,0,1,1,1.176,5.858,3.706,3.706,0,0,1,4.887,2.147M6.94,5.858A2.054,2.054,0,1,0,4.887,7.9,2.053,2.053,0,0,0,6.94,5.858" transform="translate(12.947 23.64)"/>
      </g>
    </g>
  </g>
</svg>
