<svg xmlns="http://www.w3.org/2000/svg" xmlns:xlink="http://www.w3.org/1999/xlink" width="104" height="104" viewBox="0 0 104 104">
  <defs>
    <clipPath id="clip-path">
      <rect id="Rect치ngulo_402223" data-name="Rect치ngulo 402223" width="57.398" height="58.756" fill="none"/>
    </clipPath>
  </defs>
  <g id="Grupo_1103204" data-name="Grupo 1103204" transform="translate(-831.051 -2578)">
    <rect id="Rect치ngulo_402211" data-name="Rect치ngulo 402211" width="104" height="104" rx="8" transform="translate(831.051 2578)" fill="#fff"/>
    <g id="Grupo_1102179" data-name="Grupo 1102179" transform="translate(854.051 2601)">
      <g id="Grupo_1102178" data-name="Grupo 1102178" transform="translate(0 0)" clip-path="url(#clip-path)">
        <path id="Trazado_883326" data-name="Trazado 883326" d="M40.495,33.6a52.239,52.239,0,0,1-8-1.586,23.247,23.247,0,0,1-10.01-10.74l-.228-.411c-.765-3.162-.879-6.563-1.529-9.724A11.494,11.494,0,0,0,21.56,9.92c3.96-6.757-6.528-12.863-10.489-6.129-1.5,2.557-4.383,4.246-6.061,6.78A24.091,24.091,0,0,0,6.038,38.248c7.909,10.443,25.018,14.7,35.906,6.449C45.494,42,46.3,34.447,40.495,33.6" transform="translate(11.63 9.028)" fill="#e79aca"/>
        <path id="Trazado_883327" data-name="Trazado 883327" d="M6.294,3.031A1.923,1.923,0,1,1,4.365,4.948,1.939,1.939,0,0,1,6.294,3.031" transform="translate(45.454 31.564)" fill="#a1e3fd"/>
        <path id="Trazado_883328" data-name="Trazado 883328" d="M5.639,2.369a2.094,2.094,0,1,1-2.1,2.1,2.1,2.1,0,0,1,2.1-2.1" transform="translate(36.853 24.671)" fill="#a1e3fd"/>
        <path id="Trazado_883329" data-name="Trazado 883329" d="M4.827,1.608A1.512,1.512,0,1,1,3.309,3.126,1.522,1.522,0,0,1,4.827,1.608" transform="translate(34.458 16.746)" fill="#a1e3fd"/>
        <path id="Trazado_883330" data-name="Trazado 883330" d="M4.863.139a2.351,2.351,0,1,1-2.34,2.34A2.345,2.345,0,0,1,4.863.139" transform="translate(26.273 1.449)" fill="#a1e3fd"/>
        <path id="Trazado_883331" data-name="Trazado 883331" d="M3.637.626A2.494,2.494,0,1,1,1.149,3.114,2.494,2.494,0,0,1,3.637.626" transform="translate(11.965 6.52)" fill="#a1e3fd"/>
        <path id="Trazado_883332" data-name="Trazado 883332" d="M3.174,1.677A3.03,3.03,0,1,1,.138,4.7,3.03,3.03,0,0,1,3.174,1.677" transform="translate(1.437 17.465)" fill="#a1e3fd"/>
        <path id="Trazado_883333" data-name="Trazado 883333" d="M44.572,13.883a6.156,6.156,0,0,1,1.609,4.577,5.727,5.727,0,0,1-2.111,4.1c-.6.514-1.233.993-1.872,1.438a26.048,26.048,0,0,1-14.837,4.645,26.208,26.208,0,0,1-5.627-.6A25.994,25.994,0,0,1,4.751,15.88,26.028,26.028,0,0,1,1.076,3.725a.807.807,0,0,1,.753-.833.8.8,0,0,1,.822.753A24.6,24.6,0,0,0,6.1,15.07,24.51,24.51,0,0,0,22.065,26.495,24.411,24.411,0,0,0,41.3,22.683a21.764,21.764,0,0,0,1.769-1.335,4.106,4.106,0,0,0,1.541-2.979,4.557,4.557,0,0,0-1.187-3.4.86.86,0,0,1-.205-.708.8.8,0,0,1,.24-.411.782.782,0,0,1,1.119.034" transform="translate(11.193 30.105)"/>
        <path id="Trazado_883334" data-name="Trazado 883334" d="M22.536,17.7a3.51,3.51,0,1,1,0,7.019,3.445,3.445,0,0,1-1.564-.388L19.637,26.2a18.8,18.8,0,0,0,2.762.559.8.8,0,0,1,.673.89.787.787,0,0,1-.776.7h-.1a19.029,19.029,0,0,1-1.986-.365c-.651-.148-1.3-.331-1.929-.536a.6.6,0,0,1-.285-.091A22.245,22.245,0,0,1,6.717,18.921c-.126-.194-.24-.4-.354-.593l-.068-.057L6.272,18.2A22.345,22.345,0,0,1,2.951,8.729l-.023-.194A22.821,22.821,0,0,1,2.882,4.3a.809.809,0,0,1,.867-.719.792.792,0,0,1,.719.856,19.793,19.793,0,0,0-.057,2.728L7.139,5.488a2.76,2.76,0,0,1-.16-.924,3.111,3.111,0,1,1,1,2.26L4.56,8.923a21.043,21.043,0,0,0,2.7,7.9l2.671-1.472A3.633,3.633,0,0,1,9.6,13.831a3.714,3.714,0,1,1,1.3,2.785L8.132,18.156a20.65,20.65,0,0,0,9.918,7.567l1.7-2.408A3.493,3.493,0,0,1,22.536,17.7m1.929,3.5a1.929,1.929,0,1,0-1.929,1.929A1.931,1.931,0,0,0,24.465,21.2M15.38,13.831a2.1,2.1,0,1,0-2.1,2.077,2.095,2.095,0,0,0,2.1-2.077m-3.8-9.268A1.512,1.512,0,1,0,10.072,6.07a1.522,1.522,0,0,0,1.507-1.507" transform="translate(29.212 15.309)"/>
        <path id="Trazado_883335" data-name="Trazado 883335" d="M15.487,4.517a.811.811,0,0,1-.377,1.061,13.558,13.558,0,0,1-5.855,1.37A11.078,11.078,0,0,1,3.64,5.522.777.777,0,0,1,3.4,4.437a.6.6,0,0,1,.126-.16.808.808,0,0,1,.959-.091c.183.126,4.337,2.625,9.941-.046a.9.9,0,0,1,.331-.068.829.829,0,0,1,.73.445" transform="translate(34.093 42.37)"/>
        <path id="Trazado_883336" data-name="Trazado 883336" d="M14.4,8.605a.786.786,0,0,1-.536.982,9.1,9.1,0,0,1-2.682.4c-5.113,0-8.594-4.3-8.765-4.52A.8.8,0,0,1,3.67,4.474c.034.068,4.234,5.239,9.747,3.6a.8.8,0,0,1,.982.536" transform="translate(23.437 43.532)"/>
        <path id="Trazado_883337" data-name="Trazado 883337" d="M12.86,11.614a.787.787,0,0,1,.536.982.766.766,0,0,1-.753.571l-.217-.034A16.256,16.256,0,0,1,5.464,8.783,19.962,19.962,0,0,1,2.131,4.275a.791.791,0,0,1,1.415-.708c.023.057,3.207,6.255,9.313,8.046" transform="translate(21.335 32.603)"/>
        <path id="Trazado_883338" data-name="Trazado 883338" d="M9.212,12.534a.789.789,0,0,1-.331,1.507.648.648,0,0,1-.32-.068C2.593,11.222,2.421,3.529,2.41,3.2a.8.8,0,0,1,1.6-.023c0,.068.171,7.031,5.2,9.359" transform="translate(25.096 24.983)"/>
        <path id="Trazado_883339" data-name="Trazado 883339" d="M7.285,0a3.938,3.938,0,0,1,0,7.875l-.148-.011L6.748,9.279a6.1,6.1,0,0,1,3.116,2.682.8.8,0,0,1-.3,1.084.78.78,0,0,1-.377.1.809.809,0,0,1-.708-.4,4.5,4.5,0,0,0-5.17-2.123A.788.788,0,0,1,2.32,10.1a.8.8,0,0,1,.536-.982,5.874,5.874,0,0,1,2.351-.205L5.6,7.464A3.893,3.893,0,0,1,3.358,3.938,3.943,3.943,0,0,1,7.285,0M9.636,3.938A2.345,2.345,0,1,0,7.285,6.289,2.338,2.338,0,0,0,9.636,3.938" transform="translate(23.851 0.001)"/>
        <path id="Trazado_883340" data-name="Trazado 883340" d="M7.937,1.878a.8.8,0,0,1-.3,1.084c-.251.137-6.186,3.6-3.515,9.587a.8.8,0,0,1-.4,1.039.691.691,0,0,1-.331.068.781.781,0,0,1-.719-.468C-.577,5.873,6.784,1.627,6.864,1.57a.788.788,0,0,1,1.073.308" transform="translate(19.227 15.301)"/>
        <path id="Trazado_883341" data-name="Trazado 883341" d="M7.7,15.454a.761.761,0,0,1,.08,1.107.745.745,0,0,1-.593.285.7.7,0,0,1-.5-.194,14.745,14.745,0,0,1-5-13.422l.023-.068a.784.784,0,0,1,.924-.628.8.8,0,0,1,.628.924,13.129,13.129,0,0,0,4.44,12" transform="translate(15.871 26.241)"/>
        <path id="Trazado_883342" data-name="Trazado 883342" d="M12.948,6.777A.8.8,0,0,1,12.811,7.9,23.657,23.657,0,0,0,7.961,12.94a.8.8,0,0,1-.651.331.836.836,0,0,1-.457-.148.8.8,0,0,1-.194-1.107C7.2,11.274,7.778,10.589,8.372,9.9L7.036,8.112a4.011,4.011,0,0,1-1.952.514A4.069,4.069,0,1,1,9.159,4.551a4,4,0,0,1-.913,2.534L9.479,8.74a24.26,24.26,0,0,1,2.363-2.1.794.794,0,0,1,1.107.137M7.573,4.551a2.488,2.488,0,1,0-2.488,2.5,2.494,2.494,0,0,0,2.488-2.5" transform="translate(10.518 5.083)"/>
        <path id="Trazado_883343" data-name="Trazado 883343" d="M15.442,5.6a.8.8,0,0,1,.411,1.05,24.6,24.6,0,0,0-1.8,6.551L14,13.352a.8.8,0,0,1-.753.548l-.091-.011a.8.8,0,0,1-.685-.89,23.362,23.362,0,0,1,.628-3.1L8.423,8.729a4.613,4.613,0,1,1,.788-2.591,4.393,4.393,0,0,1-.148,1.107l4.474,1.13q.377-1.216.856-2.363a.8.8,0,0,1,1.05-.411m-7.807.536A3.03,3.03,0,1,0,4.611,9.175,3.03,3.03,0,0,0,7.636,6.139" transform="translate(0 16.027)"/>
      </g>
    </g>
  </g>
</svg>
