<svg id="Grupo_1103151" data-name="Grupo 1103151" xmlns="http://www.w3.org/2000/svg" xmlns:xlink="http://www.w3.org/1999/xlink" width="115.625" height="129.476" viewBox="0 0 115.625 129.476">
  <defs>
    <clipPath id="clip-path">
      <rect id="Rectángulo_402647" data-name="Rectángulo 402647" width="115.625" height="129.476" fill="none"/>
    </clipPath>
  </defs>
  <g id="Grupo_1103150" data-name="Grupo 1103150" clip-path="url(#clip-path)">
    <path id="Trazado_885018" data-name="Trazado 885018" d="M32.528,139.807a114.863,114.863,0,0,1,0,48.377c-3.58,2.724-7.122,3.019-10.613,0H11.524A7.527,7.527,0,0,1,4,180.659V139.807a7.525,7.525,0,0,1,7.525-7.525H25a7.523,7.523,0,0,1,7.525,7.525" transform="translate(-2.972 -98.299)" fill="#c3ddda"/>
    <path id="Trazado_885019" data-name="Trazado 885019" d="M122.684,143.046v21.068q-3.818,4.307-7.635,0V103.71a3.818,3.818,0,1,1,7.635,0Z" transform="translate(-85.493 -74.23)" fill="#e7f2f1"/>
    <path id="Trazado_885020" data-name="Trazado 885020" d="M130.061,337.756a3.476,3.476,0,0,1,3.45,3.907c-.7,5.693-3.206,16.259-12.105,22.5a6.42,6.42,0,0,0-2.528,6.983l1.446,5.174H89.974v-5.058a8.423,8.423,0,0,0-3.653-6.954c-12.83-8.8-12.583-26.551-12.583-26.551h28.074c6.711-5.668,13.521-5.51,20.424,0Z" transform="translate(-54.794 -247.871)" fill="#d6eae8"/>
    <path id="Trazado_885021" data-name="Trazado 885021" d="M180.776,378.882l-10.114,16.1,1.749-11.242h-5.862l7.548-12.688v7.83Z" transform="translate(-123.762 -275.729)" fill="#6fceae"/>
    <path id="Trazado_885022" data-name="Trazado 885022" d="M45.7,161.522a4.78,4.78,0,1,1-4.781,4.778,4.779,4.779,0,0,1,4.781-4.778" transform="translate(-30.407 -120.027)" fill="#604533"/>
    <path id="Trazado_885023" data-name="Trazado 885023" d="M182.441,72.4s13.957-5.626,19.851.293,1.436,32.819,2.908,40.58a34.2,34.2,0,0,0,4.668,11.445,3.68,3.68,0,0,1-.406,4.462l-.023.026a3.674,3.674,0,0,1-4.609.642L192.3,122.226a6.037,6.037,0,0,1-2.161-8.085,19.176,19.176,0,0,0,2.325-6.022c.537-3.422-.57-11.918-1.285-16.737a2.878,2.878,0,0,0-3.8-2.292c-2.934,1.033-7.522,2.548-12.362,3.761H154.6c-6.864-3.866-9.826-12.588-9.826-21.068,0-9.5,6.921-36.524,23.178-46.031a4.837,4.837,0,0,0,2.415-4.121,27.731,27.731,0,0,1,.208-3.178c1.323-10.607,8.506-15.329,16.516-14.33s13.814,7.34,12.49,17.947S190.3,43.532,182.3,42.533a10.442,10.442,0,0,1-6.643-4.02c1.732,4.783,2.6,12.462,2.87,17.955,3.967-1.58,9.266.858,8.37,6.926a18.785,18.785,0,0,1-4.452,9.01" transform="translate(-107.578 -2.967)" fill="#fec4b9"/>
    <path id="Trazado_885024" data-name="Trazado 885024" d="M233.716,109.316c4.5,5.711,3.607,10.1,14.859,7.625a9.541,9.541,0,0,1-14.225-1.639c-.7-1.937-1.544-3.4-2.546-4.046-3.913-2.533-7.869.629-8.046.773.154-.239,5.529-8.344,9.957-2.713" transform="translate(-166.275 -79.756)" fill="#f7b6ad"/>
    <path id="Trazado_885025" data-name="Trazado 885025" d="M271.9,206.43c.817,12.47-5.153,12.971-5.153,12.971a12.625,12.625,0,0,0,2.443-6.905,48.353,48.353,0,0,0-.026-5.6,6.688,6.688,0,0,1,2.736-.465Z" transform="translate(-198.221 -153.392)" fill="#f7b6ad"/>
    <path id="Trazado_885026" data-name="Trazado 885026" d="M226.833,213.717a37.376,37.376,0,0,1,3.879-1.251c-1.616,6.888-12.58,13.77-21.264,7.83s-3.278-26.134-3.278-26.134.077,21.117,8.884,23.738c4.7,1.4,8.845-.855,11.779-4.182" transform="translate(-151.97 -144.282)" fill="#f7b6ad"/>
    <path id="Trazado_885027" data-name="Trazado 885027" d="M186.513,439.7,182.559,446l.9-5.809c1.012-.136,2.03-.3,3.049-.486" transform="translate(-135.66 -326.742)" fill="#53b79a"/>
    <path id="Trazado_885028" data-name="Trazado 885028" d="M156.293,349.882a3.476,3.476,0,0,1,3.45,3.907c-.7,5.693-3.206,16.259-12.105,22.5a6.42,6.42,0,0,0-2.528,6.983l1.446,5.174h-30.35v-5.058a8.423,8.423,0,0,0-3.653-6.954,24.382,24.382,0,0,1-3.514-2.931,82.975,82.975,0,0,0,19.792-.059l-.9,5.809,3.954-6.294c11.522-2.137,23.085-8.031,23.085-23.075Z" transform="translate(-81.027 -259.997)" fill="#c3ddda"/>
    <path id="Trazado_885029" data-name="Trazado 885029" d="M33.374,24.635a4.85,4.85,0,0,0-4.845,4.845v6.477a8.534,8.534,0,0,0-6.5-3H8.553A8.562,8.562,0,0,0,0,41.509V82.36a8.562,8.562,0,0,0,8.553,8.552h9.386a42.046,42.046,0,0,0,1.5,9.222c2.083,7.48,6.064,13.41,11.511,17.148a7.4,7.4,0,0,1,3.207,6.107v5.059a1.028,1.028,0,0,0,1.028,1.028H65.529a1.028,1.028,0,0,0,.99-1.3L65.073,123a5.407,5.407,0,0,1,2.128-5.863c9.21-6.459,11.807-17.317,12.535-23.215a4.505,4.505,0,0,0-4.47-5.062h-.429c2.039-.638,3.86-1.254,5.308-1.764a1.849,1.849,0,0,1,2.442,1.473c1.195,8.035,1.664,14.023,1.288,16.429a17.828,17.828,0,0,1-2.207,5.678,7.034,7.034,0,0,0,2.521,9.463l12.527,7.627a4.716,4.716,0,0,0,5.9-.824l.023-.025a4.719,4.719,0,0,0,.521-5.708,32.99,32.99,0,0,1-4.528-11.089c-.495-2.609-.276-7.794-.045-13.284.467-11.1,1-23.671-3.144-27.83-4.549-4.568-13.144-2.937-17.8-1.586a18.6,18.6,0,0,0,2.686-6.839,7.234,7.234,0,0,0-2.43-7.059,7.431,7.431,0,0,0-6-1.363c-.151-2.4-.4-5.074-.763-7.632q-.452-3.211-1.042-5.713a10.1,10.1,0,0,0,4.5,1.775c4.122.514,8.412-1.707,12.075-6.254a30.779,30.779,0,0,0,6.352-15.1c.659-5.283-.359-9.889-2.945-13.322A16.037,16.037,0,0,0,68.1,3.168c-3.349,2.692-5.467,6.908-6.126,12.19a28.918,28.918,0,0,0-.217,3.3A3.828,3.828,0,0,1,59.851,21.9c-9.178,5.366-14.918,15.75-18.117,23.515a83.428,83.428,0,0,0-3.515,10.5V29.479a4.85,4.85,0,0,0-4.845-4.845m-2.79,4.845a2.79,2.79,0,0,1,5.579,0V88.857H30.584ZM38.218,80.6A20.815,20.815,0,0,0,43.8,88.857H38.218ZM8.553,88.857a6.5,6.5,0,0,1-6.5-6.5V41.509a6.5,6.5,0,0,1,6.5-6.5H22.032a6.5,6.5,0,0,1,6.5,6.5V88.857ZM77.1,91.738a2.46,2.46,0,0,1,.6,1.93c-.686,5.559-3.116,15.781-11.676,21.784a7.465,7.465,0,0,0-2.927,8.1l1.082,3.87H36.208v-4.032a9.454,9.454,0,0,0-4.1-7.8C21.619,108.39,20.193,94.733,20,90.913H75.267a2.416,2.416,0,0,1,1.833.826M60.888,23.673a5.893,5.893,0,0,0,2.923-5,26.862,26.862,0,0,1,.2-3.062c.592-4.743,2.45-8.492,5.374-10.843a12.989,12.989,0,0,1,9.994-2.594c8.191,1.021,12.743,7.616,11.6,16.8a29.077,29.077,0,0,1-5.913,14.066c-3.154,3.915-6.881,5.92-10.221,5.5a9.391,9.391,0,0,1-5.875-3.535c-.826-2.2-1.788-3.666-2.882-4.375-3.668-2.376-7.666-.481-9.268.853a1.028,1.028,0,1,0,1.315,1.579c.035-.029,3.506-2.863,6.836-.707,3.781,2.449,5.44,21.215,4.975,26.655a11.86,11.86,0,0,1-2.192,6.315A1.028,1.028,0,1,0,69.3,66.687a13.6,13.6,0,0,0,2.695-7.5,44.125,44.125,0,0,0,.013-4.958,5.372,5.372,0,0,1,4.62.9A5.269,5.269,0,0,1,78.3,60.277a17.713,17.713,0,0,1-7.272,11.148,8.969,8.969,0,0,1-7.649,1.209c-6.618-1.969-8.126-17.094-8.149-22.756A1.028,1.028,0,0,0,54.2,48.854h0a1.028,1.028,0,0,0-1.024,1.031c0,.893.189,21.913,9.618,24.718a10.9,10.9,0,0,0,3.118.461,11.507,11.507,0,0,0,6.222-1.907,16.562,16.562,0,0,0,3.336-2.853c1.747-.657,13.555-4.839,18.521.147,3.506,3.521,2.974,16.148,2.547,26.293-.247,5.855-.46,10.912.079,13.754a35.055,35.055,0,0,0,4.807,11.8,2.661,2.661,0,0,1-.29,3.219l-.023.025a2.656,2.656,0,0,1-3.32.464l-12.527-7.627a4.986,4.986,0,0,1-1.8-6.705,19.811,19.811,0,0,0,2.444-6.364c.529-3.384-.407-11.139-1.286-17.048a3.9,3.9,0,0,0-5.157-3.109c-2.937,1.034-7.42,2.511-12.151,3.7H47.3c-5.69-3.348-9.08-10.812-9.08-20.042,0-9.076,6.744-35.83,22.67-45.142m-45.6,16.793A5.808,5.808,0,1,0,21.1,46.274a5.815,5.815,0,0,0-5.808-5.808m0,9.561a3.753,3.753,0,1,1,3.753-3.753,3.757,3.757,0,0,1-3.753,3.753m27.5,59.012H47.45L45.884,119.1a1.028,1.028,0,0,0,1.886.7l10.113-16.1a1.028,1.028,0,0,0-.87-1.574H51.362v-6.8a1.028,1.028,0,0,0-1.911-.525L41.9,107.486a1.028,1.028,0,0,0,.883,1.553m6.519-9.977v4.093a1.028,1.028,0,0,0,1.028,1.028h4.82l-6.472,10.3.983-6.316a1.027,1.027,0,0,0-1.015-1.186H44.594ZM90.334,48.554l4.093-6.408a1.027,1.027,0,0,1,1.309-.374l3.2,1.531,3.71-5.959a1.028,1.028,0,0,1,1.745,1.086l-4.2,6.739a1.028,1.028,0,0,1-1.316.384L95.67,44.018l-4.1,6.416a1.027,1.027,0,0,1-1.319.369l-3.423-1.683-2.472,3.919a1.028,1.028,0,0,1-1.738-1.1l2.965-4.7a1.027,1.027,0,0,1,1.323-.374ZM115.322,50.2a1.027,1.027,0,0,1,0,1.453l-5.931,5.959a1.027,1.027,0,0,1-1.308.123l-3.179-2.174-5.953,4.732a1.028,1.028,0,0,1-1.3-.018l-3.692-3.109-5.358,3.2A1.028,1.028,0,1,1,87.548,58.6l5.987-3.581a1.027,1.027,0,0,1,1.189.1l3.609,3.039,5.888-4.68a1.027,1.027,0,0,1,1.219-.044l3.1,2.119,5.328-5.353a1.028,1.028,0,0,1,1.453,0" transform="translate(0 0)" fill="#3a322b"/>
  </g>
</svg>
