<svg xmlns="http://www.w3.org/2000/svg" width="295" height="166" viewBox="0 0 295 166">
  <g id="Grupo_1103214" data-name="Grupo 1103214" transform="translate(-1020.051 -2865)">
    <rect id="Rect치ngulo_402231" data-name="Rect치ngulo 402231" width="295" height="166" rx="8" transform="translate(1020.051 2865)" fill="#dbeceb"/>
    <g id="Grupo_1102185" data-name="Grupo 1102185" transform="translate(-10.449 10.609)">
      <g id="Grupo_1102184" data-name="Grupo 1102184" transform="translate(1073 2871.247)">
        <path id="Trazado_883383" data-name="Trazado 883383" d="M1317.379,416.623c-9.34,4.728-10.3,9.233-3.425,16.965-10.338.462-12.846,4.152-9.34,13.854-9.7-3.505-13.393-1-13.854,9.34-7.732-6.872-12.237-5.914-16.965,3.425-4.728-9.34-9.233-10.3-16.965-3.425-.462-10.338-4.151-12.846-13.854-9.34,3.505-9.7,1-13.392-9.34-13.854,6.873-7.732,5.914-12.237-3.425-16.965,9.339-4.729,10.3-9.233,3.425-16.965,10.338-.461,12.846-4.151,9.34-13.854,9.7,3.505,13.393,1,13.854-9.34,7.732,6.872,12.237,5.914,16.965-3.426,4.728,9.34,9.233,10.3,16.965,3.426.461,10.338,4.151,12.845,13.854,9.34-3.506,9.7-1,13.393,9.34,13.854-6.873,7.733-5.915,12.237,3.425,16.965" transform="translate(-1174.637 -356.187)" fill="#31a854"/>
        <path id="Trazado_883384" data-name="Trazado 883384" d="M3612.469,660.793l-1.355-1.137,1.355-1.137s.125-.1.11-.192-.169-.141-.169-.141l-1.663-.605.885-1.531s.083-.141.038-.218-.207-.075-.207-.075h-1.769l.308-1.742s.029-.161-.039-.217-.221,0-.221,0l-1.661.6-.308-1.741s-.027-.162-.111-.192-.207.076-.207.076l-1.355,1.137-.885-1.531a.211.211,0,0,0-.017-.027.067.067,0,0,0-.008-.012l0-.006c-.031-.042-.083-.1-.139-.1-.089,0-.169.142-.169.142l-.885,1.531-1.355-1.137s-.124-.106-.207-.076-.111.192-.111.192l-.307,1.742-1.663-.605s-.153-.057-.221,0-.038.217-.038.217l.308,1.742h-1.769s-.164,0-.208.075.039.218.039.218l.884,1.531-1.663.605s-.153.055-.168.141.111.192.111.192l1.354,1.137-1.354,1.137s-.127.1-.111.192.168.142.168.142l1.663.605-.884,1.531s-.083.142-.039.218.208.075.208.075h1.769l-.308,1.742s-.029.161.038.218.221,0,.221,0l1.663-.6.307,1.741s.027.162.111.192.207-.076.207-.076l1.355-1.137.885,1.532s.08.142.169.142.168-.142.168-.142l.885-1.532,1.355,1.137s.125.106.207.076.111-.192.111-.192l.308-1.741,1.661.6s.153.057.221,0,.039-.218.039-.218l-.308-1.742h1.769s.163,0,.207-.075-.038-.218-.038-.218l-.885-1.531,1.663-.605s.154-.055.169-.142-.11-.192-.11-.192" transform="translate(-3435.004 -622.556)" fill="#adad70"/>
        <path id="Trazado_883385" data-name="Trazado 883385" d="M784.161,1629.164c0-.07,0-.14-.005-.209l1.477-.26-.169-.958-1.475.259a3.879,3.879,0,0,0-.147-.406l1.3-.748-.487-.843-1.3.748a4.256,4.256,0,0,0-.278-.331l.961-1.146-.745-.625-.96,1.145a4.04,4.04,0,0,0-.375-.217l.511-1.4-.914-.333-.51,1.4a3.9,3.9,0,0,0-.427-.075v-1.493h-.972v1.493a3.9,3.9,0,0,0-.427.075l-.51-1.4-.914.333.51,1.4a4.179,4.179,0,0,0-.375.217l-.96-1.145-.745.625.961,1.146a4.317,4.317,0,0,0-.278.331l-1.3-.748-.486.843,1.3.748a4.115,4.115,0,0,0-.147.406l-1.474-.259-.169.958,1.477.26c0,.069,0,.139,0,.209s0,.149.006.222l-1.478.261.169.958,1.479-.261a3.928,3.928,0,0,0,.148.4l-1.3.751.486.843,1.3-.752a4.277,4.277,0,0,0,.277.329l-.967,1.152.745.625.968-1.153a4.046,4.046,0,0,0,.372.215l-.515,1.415.914.332.515-1.415a4.216,4.216,0,0,0,.423.074v1.506h.972v-1.506a4.213,4.213,0,0,0,.423-.074l.515,1.415.914-.332-.515-1.415a4.028,4.028,0,0,0,.371-.215l.968,1.153.745-.625-.968-1.152q.147-.158.277-.329l1.3.752.487-.843-1.3-.751a3.928,3.928,0,0,0,.148-.4l1.479.261.169-.958-1.478-.261c0-.073.005-.148.005-.222" transform="translate(-739.64 -1550.325)" fill="#774518"/>
        <path id="Trazado_883386" data-name="Trazado 883386" d="M3208.306,275.557a.549.549,0,0,0-.54.22l-1.4-.247a4.981,4.981,0,0,0,.04-.628,5.04,5.04,0,0,0-.038-.611l1.4-.247a.547.547,0,1,0-.082-.468l-1.4.246a4.856,4.856,0,0,0-.422-1.166l1.227-.708a.547.547,0,1,0-.238-.412l-1.227.708a4.928,4.928,0,0,0-.8-.951l.909-1.085a.546.546,0,1,0-.365-.305l-.909,1.084a4.934,4.934,0,0,0-1.073-.623l.483-1.327a.547.547,0,1,0-.448-.163l-.483,1.327a4.873,4.873,0,0,0-1.223-.215v-1.414a.549.549,0,0,0,.153-.11.542.542,0,0,0,.157-.382h0a.542.542,0,0,0-.125-.348l0,0-.009-.01a.544.544,0,0,0-.411-.187h-.014a.556.556,0,0,0-.145.023.547.547,0,0,0-.335.288.549.549,0,0,0,.256.729v1.414a4.888,4.888,0,0,0-1.223.215l-.483-1.327a.547.547,0,1,0-.447.163l.483,1.327a4.916,4.916,0,0,0-1.074.623l-.909-1.084a.547.547,0,1,0-.364.305l.91,1.085a4.912,4.912,0,0,0-.8.951l-1.228-.708a.547.547,0,1,0-.238.412l1.228.708a4.879,4.879,0,0,0-.423,1.166l-1.4-.246a.546.546,0,1,0-.082.468l1.4.247a4.992,4.992,0,0,0-.037.611,5.171,5.171,0,0,0,.039.628l-1.4.247a.547.547,0,1,0,.082.468l1.4-.247a4.9,4.9,0,0,0,.426,1.163l-1.234.712a.547.547,0,1,0,.238.411l1.234-.713a4.974,4.974,0,0,0,.8.946l-.918,1.094a.548.548,0,1,0,.364.306l.919-1.095a4.905,4.905,0,0,0,1.071.618l-.488,1.343a.547.547,0,1,0,.447.163l.488-1.342a4.905,4.905,0,0,0,1.218.213v1.431a.548.548,0,1,0,.476,0v-1.431a4.905,4.905,0,0,0,1.218-.213l.488,1.342a.547.547,0,1,0,.448-.163l-.49-1.343a4.9,4.9,0,0,0,1.071-.618l.918,1.095a.547.547,0,1,0,.365-.306l-.918-1.094a4.929,4.929,0,0,0,.8-.946l1.235.713a.548.548,0,1,0,.238-.411l-1.234-.712a4.906,4.906,0,0,0,.426-1.163l1.4.247a.547.547,0,1,0,.622-.687" transform="translate(-3049.918 -255.447)" fill="#52825e"/>
        <path id="Trazado_883387" data-name="Trazado 883387" d="M32.365,177.683a1.276,1.276,0,0,0-.965.955l-3.241.723a11.489,11.489,0,0,0-.477-1.389,11.62,11.62,0,0,0-.629-1.284l2.794-1.785a1.276,1.276,0,1,0-.6-.934l-2.79,1.783a11.432,11.432,0,0,0-1.956-2.135l2.009-2.627a1.277,1.277,0,1,0-.881-.674l-2.01,2.626a11.518,11.518,0,0,0-2.57-1.336l.989-3.152a1.277,1.277,0,1,0-1.058-.332l-.989,3.151a11.457,11.457,0,0,0-2.873-.379l-.148-3.294a1.277,1.277,0,1,0-1.108.05l.148,3.293a11.429,11.429,0,0,0-2.829.633l-1.266-3.046a1.286,1.286,0,0,0,.231-.374,1.271,1.271,0,0,0-.005-.964h0a1.27,1.27,0,0,0-.58-.638l-.008,0-.026-.014a1.273,1.273,0,0,0-1.054-.034l-.012.005-.018.008a1.326,1.326,0,0,0-.29.179,1.277,1.277,0,0,0,.146,2.077,1.29,1.29,0,0,0,.593.184L12.16,172a11.421,11.421,0,0,0-2.444,1.559l-2.23-2.428a1.276,1.276,0,1,0-.817.751L8.9,174.311a11.474,11.474,0,0,0-1.758,2.3L4.21,175.1a1.277,1.277,0,1,0-.511.985L6.633,177.6a11.532,11.532,0,0,0-.865,2.764l-3.278-.427a1.276,1.276,0,1,0-.143,1.1l3.279.427a11.424,11.424,0,0,0,.135,2.892l-3.233.721a1.277,1.277,0,1,0,.241,1.083L6,185.44a11.634,11.634,0,0,0,1.115,2.669l-2.8,1.788a1.276,1.276,0,1,0,.6.934l2.8-1.788a11.42,11.42,0,0,0,1.959,2.125L7.655,193.81a1.276,1.276,0,1,0,.881.674l2.022-2.643a11.538,11.538,0,0,0,2.566,1.326l-1,3.18a1.277,1.277,0,1,0,1.059.332l1-3.181a11.462,11.462,0,0,0,2.863.372l.15,3.331a1.276,1.276,0,1,0,1.108-.05l-.15-3.331a11.461,11.461,0,0,0,2.816-.632l1.282,3.083a1.277,1.277,0,1,0,1.024-.426l-1.282-3.083a11.459,11.459,0,0,0,2.434-1.55l2.256,2.455a1.277,1.277,0,1,0,.817-.75l-2.256-2.455A11.494,11.494,0,0,0,27,188.169l2.959,1.536a1.277,1.277,0,1,0,.511-.985l-2.959-1.535a11.55,11.55,0,0,0,.87-2.754l3.3.43a1.276,1.276,0,1,0,.143-1.1l-3.3-.429a11.4,11.4,0,0,0-.125-2.888l3.241-.723a1.277,1.277,0,1,0,.724-2.038" transform="translate(0 -157.736)" fill="#f9c047"/>
        <path id="Trazado_883388" data-name="Trazado 883388" d="M353.816,581.551a9.885,9.885,0,0,1,1.22-.7l-.977-2.349a5.128,5.128,0,0,0-1.152.86Z" transform="translate(-336.965 -552.371)" fill="#fff"/>
        <path id="Trazado_883389" data-name="Trazado 883389" d="M402.51,564.418a5.133,5.133,0,0,0-1.421.21l.976,2.349a9.953,9.953,0,0,1,1.354-.373Z" transform="translate(-382.97 -538.922)" fill="#fff"/>
        <path id="Trazado_883390" data-name="Trazado 883390" d="M461.33,569.636a7.747,7.747,0,0,1,2.194.146,5.153,5.153,0,0,0-2.977-2.029Z" transform="translate(-439.743 -542.106)" fill="#fff"/>
        <path id="Trazado_883391" data-name="Trazado 883391" d="M320.728,621.616l-.783-1.883a5.153,5.153,0,0,0-.661,3.542,7.774,7.774,0,0,1,1.444-1.659" transform="translate(-304.787 -591.738)" fill="#fff"/>
        <path id="Trazado_883392" data-name="Trazado 883392" d="M223.368,521.654a.293.293,0,0,1-.225,0l-4.4-1.817a.293.293,0,0,1,.224-.542l4.4,1.817a.293.293,0,0,1,0,.542" transform="translate(-208.685 -495.815)" fill="#fff"/>
        <path id="Trazado_883393" data-name="Trazado 883393" d="M247.591,495.612a.293.293,0,0,1-.384-.383l1.817-4.4a.294.294,0,0,1,.543.224l-1.817,4.4a.292.292,0,0,1-.158.159" transform="translate(-236.019 -468.481)" fill="#fff"/>
        <path id="Trazado_883394" data-name="Trazado 883394" d="M425.533,421.628a.293.293,0,0,1-.383-.383l1.817-4.4a.293.293,0,0,1,.542.224l-1.817,4.4a.292.292,0,0,1-.159.159" transform="translate(-405.923 -397.839)" fill="#fff"/>
        <path id="Trazado_883395" data-name="Trazado 883395" d="M401.31,447.67a.294.294,0,0,1-.225,0l-4.4-1.817a.293.293,0,1,1,.224-.542l4.4,1.817a.293.293,0,0,1,0,.542" transform="translate(-378.59 -425.173)" fill="#fff"/>
        <path id="Trazado_883396" data-name="Trazado 883396" d="M466.226,2219.244l-3.242-2.033,2.565-2.84s.239-.261.181-.443-.406-.253-.406-.253l-3.742-.8,1.439-3.546s.135-.327.018-.478-.468-.1-.468-.1l-3.791.527.139-3.824s.016-.354-.146-.456-.474.067-.474.067l-3.382,1.792-1.177-3.642s-.107-.338-.294-.378-.422.225-.422.225l-2.565,2.84-2.351-3.019a.7.7,0,0,0-.046-.053l-.02-.022-.012-.012a.453.453,0,0,0-.327-.168c-.189.026-.32.356-.32.356l-1.439,3.546-3.242-2.033s-.3-.19-.468-.1-.179.444-.179.444l-.139,3.824-3.742-.8s-.346-.076-.474.065-.017.479-.017.479l1.177,3.642-3.791.527s-.352.046-.423.223.148.455.148.455l2.351,3.019-3.382,1.792s-.314.163-.322.354.295.377.295.377l3.243,2.033-2.565,2.84s-.24.262-.181.443.406.253.406.253l3.742.8-1.439,3.546s-.136.328-.018.478.468.1.468.1l3.791-.527-.139,3.824s-.015.354.146.456.474-.067.474-.067l3.382-1.792,1.177,3.641s.107.338.294.378.422-.225.422-.225l2.565-2.84,2.351,3.02s.216.281.4.255.32-.355.32-.355l1.439-3.547,3.242,2.033s.3.191.468.1.179-.444.179-.444l.139-3.824,3.742.8s.346.077.474-.065.016-.478.016-.478l-1.177-3.641,3.79-.527s.352-.046.424-.223-.148-.455-.148-.455l-2.352-3.02,3.382-1.792s.315-.164.321-.355-.294-.376-.294-.376" transform="translate(-413.863 -2103.125)" fill="#5fb9b7"/>
        <path id="Trazado_883397" data-name="Trazado 883397" d="M608.365,2480.27a1.364,1.364,0,1,1-2.191,1.349l-2.337,1.438a3.442,3.442,0,0,0,5.862-3.608Z" transform="translate(-576.56 -2367.445)" fill="#fff"/>
        <path id="Trazado_883398" data-name="Trazado 883398" d="M843.46,2466.463l-2.639-.753a1.364,1.364,0,1,1-2.475-.706l-1.506-.43a3.442,3.442,0,0,0,6.62,1.888" transform="translate(-798.911 -2353.243)" fill="#fff"/>
        <path id="Trazado_883399" data-name="Trazado 883399" d="M692.706,2602.287c-4.339.6-6.3,3.33-4.824,4.677,1.344,1.223,3.141-.4,5.376-.706s4.405.757,5.365-.787c1.056-1.7-1.578-3.787-5.917-3.184" transform="translate(-656.342 -2484.632)" fill="#fff"/>
        <path id="Trazado_883400" data-name="Trazado 883400" d="M226.2,2272.971a7.639,7.639,0,0,0-6.513-4.421c-5.076-.533-4.672,5-.4,4.456,2.25-.289,4.171-2.439,6.915-.035" transform="translate(-206.226 -2166.039)" fill="#43c0ff"/>
        <path id="Trazado_883401" data-name="Trazado 883401" d="M274.405,2421.772a5.1,5.1,0,0,0-4.674.824c-2.949,2.441.42,5.118,2.271,2.472.976-1.395.627-2.314,2.4-3.3" transform="translate(-256.436 -2312.142)" fill="#43c0ff"/>
        <path id="Trazado_883402" data-name="Trazado 883402" d="M3465.784,2211.787a5.4,5.4,0,0,1,.878-7.663,5.4,5.4,0,0,1-3.071-7.074,3.492,3.492,0,0,1-4.835-3.611c-.035-.042-.072-.084-.109-.124a3.157,3.157,0,0,0-.3-.288l-.064-.054c-.043-.035-.089-.069-.134-.1a3.431,3.431,0,0,0-1.335-.585,3.4,3.4,0,0,0-.5-.063,3.435,3.435,0,0,0-.417.005c-.055,0-.109.009-.164.016s-.109.014-.163.023a3.354,3.354,0,0,1-5.835-.688,5.4,5.4,0,0,1-7.075,3.071,5.4,5.4,0,0,1-4.591,6.2,5.4,5.4,0,0,1-.878,7.663,5.4,5.4,0,0,1,3.07,7.075,5.4,5.4,0,0,1,6.2,4.592,5.4,5.4,0,0,1,7.662.878,5.4,5.4,0,0,1,7.075-3.071,5.4,5.4,0,0,1,4.592-6.2" transform="translate(-3281.883 -2092.543)" fill="#777268"/>
        <path id="Trazado_883403" data-name="Trazado 883403" d="M3623.8,2561.768c-3.287-1.3-5.984.435-5.628,2.344.324,1.734,2.36.978,4.053,1.646s2.664,2.612,4.085,1.565c1.565-1.151.777-4.258-2.511-5.556" transform="translate(-3454.701 -2445.616)" fill="#fff"/>
        <path id="Trazado_883404" data-name="Trazado 883404" d="M3585.848,2414.049a.264.264,0,0,1-.138-.122.268.268,0,0,1,.11-.363c1.927-1.033,4.121-.086,5.156.493a5.734,5.734,0,0,0-2.97-3.243.268.268,0,0,1,.2-.5h0a6.116,6.116,0,0,1,3.472,4.274.268.268,0,0,1-.418.273c-.028-.021-2.907-2.049-5.186-.826a.263.263,0,0,1-.225.012" transform="translate(-3423.703 -2301.416)" fill="#fff"/>
        <path id="Trazado_883405" data-name="Trazado 883405" d="M3808.925,2520.876a.266.266,0,0,1-.156-.163c-.831-2.454-4.319-2.933-4.353-2.938a.268.268,0,0,1-.119-.485,6.116,6.116,0,0,1,5.457-.75s0,0,0,0a.268.268,0,0,1-.2.5,5.736,5.736,0,0,0-4.384.341c1.151.283,3.4,1.09,4.1,3.162a.266.266,0,0,1-.168.339.261.261,0,0,1-.183,0" transform="translate(-3632.336 -2402.543)" fill="#fff"/>
        <path id="Trazado_883406" data-name="Trazado 883406" d="M3847.813,2322.231l-1.22-1.547,1.546-1.221-1.671-2.115-1.547,1.221-1.22-1.547-2.117,1.671,1.222,1.546-1.547,1.221,1.671,2.116,1.547-1.221,1.221,1.547Z" transform="translate(-3667.737 -2212.355)" fill="#fff"/>
        <path id="Trazado_883407" data-name="Trazado 883407" d="M3936.572,1417.552c.026-.177.046-.354.062-.53l3.83-.121-.078-2.484-3.825.121a9.819,9.819,0,0,0-.224-1.081l3.55-1.421-.923-2.307-3.549,1.42a10.425,10.425,0,0,0-.582-.939l2.848-2.548-1.657-1.852-2.846,2.545a10.251,10.251,0,0,0-.869-.687l1.8-3.362-2.191-1.174-1.8,3.361a10.21,10.21,0,0,0-1.053-.345l.544-3.775-2.46-.354-.543,3.776a10.27,10.27,0,0,0-1.107.034l-.781-3.733-2.432.509.781,3.735a10.25,10.25,0,0,0-1.027.413l-2.012-3.244-2.113,1.31,2.015,3.247a10.233,10.233,0,0,0-.823.738l-3-2.364-1.536,1.953,3.005,2.364a10.459,10.459,0,0,0-.52.975l-3.634-1.195-.776,2.362,3.641,1.2c-.034.174-.064.349-.089.526s-.05.377-.066.565l-3.833.121.079,2.484,3.834-.121a10.121,10.121,0,0,0,.227,1.077l-3.564,1.426.924,2.307,3.569-1.428a10.672,10.672,0,0,0,.579.931l-2.867,2.564,1.657,1.853,2.867-2.565a10.441,10.441,0,0,0,.862.678l-1.817,3.392,2.19,1.174,1.818-3.392a10.439,10.439,0,0,0,1.042.34l-.549,3.812,2.46.354.549-3.811a10.56,10.56,0,0,0,1.095-.034l.788,3.768,2.432-.509-.787-3.766a10.431,10.431,0,0,0,1.018-.407l2.028,3.27,2.112-1.31-2.028-3.269a10.249,10.249,0,0,0,.819-.729l3.022,2.376,1.537-1.953-3.016-2.373a10.446,10.446,0,0,0,.52-.968l3.645,1.2.776-2.362-3.643-1.2c.038-.185.07-.371.1-.56" transform="translate(-3735.567 -1338.685)" fill="#f08c32"/>
        <path id="Trazado_883408" data-name="Trazado 883408" d="M4262.386,1684.334c.283-.452-.961-1.55-2.362-2.434a1.1,1.1,0,1,1-1.626-.849l.038-.02c-.85-.383-1.545-.545-1.729-.254-.572.914.234,2.453,1.8,3.434s3.3,1.037,3.877.123" transform="translate(-4064.242 -1604.709)" fill="#fff"/>
        <path id="Trazado_883409" data-name="Trazado 883409" d="M4054.453,1670.08c-.145-.513,1.359-1.216,2.952-1.669a1.1,1.1,0,1,0,1.8-.356l-.031-.029c.921-.129,1.636-.087,1.729.243.291,1.039-.916,2.287-2.7,2.787s-3.462.063-3.753-.976" transform="translate(-3871.292 -1592.612)" fill="#fff"/>
        <path id="Trazado_883410" data-name="Trazado 883410" d="M4153.062,1761.988a.265.265,0,0,1-.192-.132,3.085,3.085,0,0,0-4.909-.708.263.263,0,1,1-.371-.374,3.61,3.61,0,0,1,5.739.826.263.263,0,0,1-.267.388" transform="translate(-3960.157 -1680.218)" fill="#fff"/>
        <path id="Trazado_883411" data-name="Trazado 883411" d="M4300.794,1801.3s-1.559,1.208-1.727,2.371a1.376,1.376,0,1,0,2.713.391,4.97,4.97,0,0,0-.986-2.762" transform="translate(-4104.845 -1719.929)" fill="#43c0ff"/>
        <path id="Trazado_883412" data-name="Trazado 883412" d="M843.213,696.988a.929.929,0,0,1-.6-.215c-.075-.062-7.566-6.189-16.553-6.472a.935.935,0,0,1-.905-.964.945.945,0,0,1,.964-.905c9.644.3,17.365,6.633,17.689,6.9a.935.935,0,0,1-.6,1.654" transform="translate(-787.883 -657.333)" fill="#baa095"/>
        <path id="Trazado_883413" data-name="Trazado 883413" d="M3223.161,1520.013a.935.935,0,0,1-.517-1.714,31.662,31.662,0,0,1,23.99-3.182.935.935,0,1,1-.456,1.813,30.355,30.355,0,0,0-22.5,2.929.933.933,0,0,1-.513.154" transform="translate(-3076.667 -1445.696)" fill="#baa095"/>
        <path id="Trazado_883414" data-name="Trazado 883414" d="M1246.492,2192.086a.935.935,0,0,1-.729-1.519c4.753-5.929,14.615-6.421,15.033-6.439a.935.935,0,0,1,.081,1.868c-.094,0-9.437.478-13.655,5.74a.933.933,0,0,1-.73.35" transform="translate(-1189.292 -2085.463)" fill="#baa095"/>
        <path id="Trazado_883415" data-name="Trazado 883415" d="M2931.857,2151.421a.931.931,0,0,1-.634-.248,19.771,19.771,0,0,0-16.574-4.858.935.935,0,0,1-.415-1.823,21.386,21.386,0,0,1,18.257,5.308.935.935,0,0,1-.635,1.622" transform="translate(-2781.896 -2047.293)" fill="#baa095"/>
        <path id="Trazado_883420" data-name="Trazado 883420" d="M2716.139,750.725a3.679,3.679,0,1,0,3.678-3.678,3.679,3.679,0,0,0-3.678,3.678" transform="translate(-2593.443 -713.301)" fill="#ffcfae"/>
        <path id="Trazado_883421" data-name="Trazado 883421" d="M1514.871,750.725a3.679,3.679,0,1,1-3.678-3.678,3.679,3.679,0,0,1,3.678,3.678" transform="translate(-1439.414 -713.301)" fill="#ffcfae"/>
        <path id="Trazado_883422" data-name="Trazado 883422" d="M1604.613,813.531l-5.977,15.572-3.921-18.042-.024.005,0-.027c0-1-.579-1.815-1.293-1.815H1568.7c-.714,0-1.293.813-1.293,1.815l0,.027-.024-.005-3.921,18.043-5.977-15.573-5.4,2.009,9.253,25.688a3.186,3.186,0,0,0,2.225,2,3.153,3.153,0,0,0,3.807-2.323l.017-.068,2.854-11.787.736,4.67-.389,16.073h20.922l-.39-16.073.736-4.67,2.854,11.787.021.088a3.154,3.154,0,0,0,6.027.307l9.254-25.687Z" transform="translate(-1481.974 -772.669)" fill="#efece8"/>
        <path id="Trazado_883423" data-name="Trazado 883423" d="M1909.6,211.872h-23.5s-4.765,16.869-.355,22.28c3.884,4.763,12.1,4.149,12.1,4.149s8.221.614,12.1-4.149c4.412-5.411-.355-22.28-.355-22.28" transform="translate(-1798.772 -202.301)" fill="#282524"/>
        <path id="Sustracci칩n_10" data-name="Sustracci칩n 10" d="M27.87,43.575H1.206C.4,31.035,0,22.654,0,18.664a65.585,65.585,0,0,1,.767-9.79A26.178,26.178,0,0,1,3.462,0H25.614a26.213,26.213,0,0,1,2.695,8.874,65.573,65.573,0,0,1,.767,9.79c0,4-.405,12.381-1.206,24.91Z" transform="translate(84.539 75.02)" fill="#ddd0ba" stroke="rgba(0,0,0,0)" stroke-miterlimit="10" stroke-width="1"/>
        <path id="Trazado_883425" data-name="Trazado 883425" d="M2035.354,809.224h-7.472l7.471,23.128,7.472-23.128Z" transform="translate(-1936.277 -772.669)" fill="#fff"/>
        <path id="Trazado_883426" data-name="Trazado 883426" d="M1949.524,32.954c0-7.97-5.418-14.431-12.1-14.431s-12.1,6.461-12.1,14.431c0,6.912,1.764,14.308,8.6,16.15v5.54a3.506,3.506,0,0,0,7.011,0V49.1c6.835-1.841,8.6-9.237,8.6-16.15" transform="translate(-1838.344 -17.686)" fill="#ffcfae"/>
        <path id="Trazado_883427" data-name="Trazado 883427" d="M1936.1,15.226c0-8.409-3.533-15.226-12.77-15.226s-12.771,6.817-12.771,15.226a24.152,24.152,0,0,0,17.6-6.678c4.209,6.056,7.937,6.678,7.937,6.678" transform="translate(-1824.257)" fill="#383635"/>
      </g>
    </g>
  </g>
</svg>
