<svg xmlns="http://www.w3.org/2000/svg" xmlns:xlink="http://www.w3.org/1999/xlink" width="186.148" height="164.809" viewBox="0 0 186.148 164.809">
  <defs>
    <clipPath id="clip-path">
      <rect id="Rectángulo_402155" data-name="Rectángulo 402155" width="186.148" height="164.809" transform="translate(0 0)" fill="none"/>
    </clipPath>
  </defs>
  <g id="Grupo_1102100" data-name="Grupo 1102100" transform="translate(0 0.005)">
    <g id="Grupo_1102099" data-name="Grupo 1102099" transform="translate(0 -0.005)" clip-path="url(#clip-path)">
      <path id="Trazado_882631" data-name="Trazado 882631" d="M302.108,27.952s5.308-3.342.786-6.684c4.522-3.932,2.752-9.83-3.146-8.847,2.359-5.9-2.949-8.454-7.274-5.9-.786-7.077-8.061-7.274-10.223-3.145-5.5-6.094-12.189-2.949-10.616,1.573-5.7-3.342-11.6,0-10.223,4.522-6.291-2.359-10.026,3.342-7.667,8.257-7.078-.59-6.095,9.437-2.163,10.223-6.291,3.342-3.342,10.42,2.163,8.65-3.146,10.026,10.42,3.932,10.42,3.932l33.028-6.488Z" transform="translate(-211.341 0.005)" fill="#161616"/>
      <path id="Trazado_882632" data-name="Trazado 882632" d="M217.939,357.291s-14.715-5.6-23.835,0S168.2,401.644,168.2,401.644s10.985,1.036,23.42,10.156l3.834-7.461,4.042,40.415h72.125l-1.244-45.8,4.352,4.767s13.057-11.4,22.177-15.959c0,0-17-38.964-31.918-42.9-13.521-3.568-28.6,7.461-28.6,7.461Z" transform="translate(-143.311 -293.224)" fill="#f29c2a"/>
      <path id="Trazado_882633" data-name="Trazado 882633" d="M269.142,442.75H197.017a.43.43,0,0,1-.428-.387l-3.9-38.966-3.169,6.166a.43.43,0,0,1-.637.15,58.331,58.331,0,0,0-16.222-8.426,36.481,36.481,0,0,0-6.984-1.649.43.43,0,0,1-.354-.6c.688-1.587,16.947-38.946,26.077-44.548,4.82-2.958,11.157-2.806,15.624-2.158a46.073,46.073,0,0,1,8.456,2.073l18.239-4.918a52.224,52.224,0,0,1,9.25-5.07c5.044-2.135,12.546-4.287,19.648-2.412,6.3,1.663,13.64,9.442,21.814,23.123a201.575,201.575,0,0,1,10.388,20.023.43.43,0,0,1-.2.557c-8.965,4.482-21.956,15.784-22.086,15.9a.43.43,0,0,1-.6-.034l-3.573-3.914,1.212,44.649a.43.43,0,0,1-.43.442m-71.736-.86H268.7l-1.232-45.362a.43.43,0,0,1,.748-.3l4.07,4.458c2.032-1.745,13.337-11.321,21.582-15.559a202.092,202.092,0,0,0-10.178-19.562c-7.939-13.286-15.3-21.145-21.291-22.725-6.861-1.811-14.16.287-19.075,2.365a50.787,50.787,0,0,0-9.163,5.027.429.429,0,0,1-.142.068l-18.446,4.974a.431.431,0,0,1-.265-.013c-.145-.055-14.625-5.455-23.457-.035-8.328,5.11-23.459,38.982-25.507,43.632a40.5,40.5,0,0,1,6.555,1.6,59.079,59.079,0,0,1,16.087,8.263l3.6-7.015a.43.43,0,0,1,.811.154Z" transform="translate(-140.834 -290.792)" fill="#161616"/>
      <path id="Trazado_882634" data-name="Trazado 882634" d="M185.718,1023.469H.43a.43.43,0,1,1,0-.86H185.718a.43.43,0,1,1,0,.86" transform="translate(0 -871.303)" fill="#161616"/>
      <path id="Trazado_882635" data-name="Trazado 882635" d="M714.86,750.423c4.767.829,9.534-3.316,9.534-3.316s8.108-11.744-2.694-5.8c-12.435,6.84-10.719,8.445-6.839,9.119" transform="translate(-606.656 -630.19)" fill="#fff"/>
      <path id="Trazado_882636" data-name="Trazado 882636" d="M713.7,748.5a8.056,8.056,0,0,1-1.382-.117c-1.385-.241-3-.667-3.193-1.833-.356-2.133,4.8-5.285,9.9-8.087,3.2-1.761,5.071-2.165,5.881-1.268.678.751.422,2.256-.782,4.6a31.159,31.159,0,0,1-1.844,3.091.42.42,0,0,1-.072.08c-.182.158-4.118,3.532-8.508,3.532m9.978-10.906c-.623,0-1.848.307-4.239,1.623-8.5,4.675-9.579,6.512-9.465,7.191.079.474.918.853,2.492,1.127,4.291.746,8.677-2.8,9.138-3.183,1.511-2.2,3.384-5.782,2.663-6.58a.76.76,0,0,0-.589-.178" transform="translate(-604.186 -627.723)" fill="#161616"/>
      <path id="Trazado_882637" data-name="Trazado 882637" d="M493.3,404.349s-3.523,3.938-1.036,10.156l8.29-5.181,9.327,5.181c5.8-8.5,2.28-15.13,2.28-15.13Z" transform="translate(-418.668 -340.283)" fill="#f29c2a"/>
      <path id="Trazado_882638" data-name="Trazado 882638" d="M507.349,412.456a.43.43,0,0,1-.209-.054l-9.1-5.058-8.075,5.047a.43.43,0,0,1-.627-.205c-2.557-6.392.964-10.433,1.115-10.6a.43.43,0,0,1,.211-.129l18.86-4.974a.43.43,0,0,1,.49.214,11.845,11.845,0,0,1,1.086,4.556,17.641,17.641,0,0,1-3.39,11.019.43.43,0,0,1-.356.188m-9.326-6.042a.431.431,0,0,1,.209.054l8.981,4.989c4.624-7.026,2.743-12.7,2.176-14.053l-18.378,4.847c-.491.609-2.9,3.971-1.061,9.132l7.845-4.9a.431.431,0,0,1,.228-.065" transform="translate(-416.14 -337.804)" fill="#161616"/>
      <path id="Trazado_882639" data-name="Trazado 882639" d="M359.945,145.46l4.56,18.446c-4.56,10.363-14.922,8.912-19.068,4.974l.261-1.913.361-2.647-.015.008a.287.287,0,0,0-.043.019l-.05.025c-1.293.574-14.116,5.316-27.872-25.337,0,0,2.073-14.093,18.239-15.959,9.29-1.072,17.2,12.435,17.2,12.435l3.731-.622c1.658-4.974,9.326-5.389,9.326,1.451,0,8.5-6.632,9.119-6.632,9.119" transform="translate(-271.016 -104.813)" fill="#fff"/>
      <path id="Trazado_882640" data-name="Trazado 882640" d="M350.9,169.805a12.339,12.339,0,0,1-8.241-3.081.43.43,0,0,1-.13-.37l.523-3.835c-3.028.963-15.109,2.611-27.847-25.775a.43.43,0,0,1-.033-.239,19.759,19.759,0,0,1,3.126-7.458c2.367-3.5,6.975-7.883,15.488-8.865,3.936-.454,8.239,1.6,12.443,5.944a39.919,39.919,0,0,1,5.026,6.447l3.193-.532a5.717,5.717,0,0,1,6.118-3.7,4.376,4.376,0,0,1,2.8,1.639,6.165,6.165,0,0,1,1.162,3.892c0,2.522-.606,5.974-3.492,8.093A8.063,8.063,0,0,1,358,143.339l4.448,18a.429.429,0,0,1-.024.276c-2.444,5.555-6.3,7.392-9.1,7.955a12.259,12.259,0,0,1-2.416.239m-7.488-3.557a11.634,11.634,0,0,0,9.735,2.474c2.581-.518,6.126-2.212,8.424-7.325l-4.524-18.3a.43.43,0,0,1,.376-.531c.255-.025,6.243-.705,6.243-8.691,0-2.6-1.21-4.353-3.236-4.682a4.856,4.856,0,0,0-5.252,3.367.43.43,0,0,1-.337.288l-3.731.622a.431.431,0,0,1-.442-.207c-.078-.133-7.881-13.251-16.782-12.226-6.559.757-11.557,3.6-14.853,8.462a19.584,19.584,0,0,0-2.988,7.013,75.812,75.812,0,0,0,9.863,16.756,27.43,27.43,0,0,0,8.495,7.3c4.872,2.466,8.223,1.243,8.88.955l.039-.019.023-.011.04-.018a.439.439,0,0,1,.44.039.43.43,0,0,1,.179.4Z" transform="translate(-268.539 -102.346)" fill="#161616"/>
      <path id="Trazado_882641" data-name="Trazado 882641" d="M438.237,202.25a.43.43,0,0,1-.149-.834l4.381-1.613a.43.43,0,1,1,.3.807l-4.381,1.613a.43.43,0,0,1-.149.027" transform="translate(-373.029 -170.216)" fill="#161616"/>
      <path id="Trazado_882642" data-name="Trazado 882642" d="M453.522,208.573c.429.762.438,1.57.021,1.8s-1.1-.193-1.532-.954-.438-1.57-.021-1.8,1.1.192,1.532.954" transform="translate(-384.853 -176.844)" fill="#161616"/>
      <path id="Trazado_882643" data-name="Trazado 882643" d="M351.389,259.681a.43.43,0,0,1-.149-.834l4.381-1.613a.43.43,0,1,1,.3.807l-4.381,1.613a.43.43,0,0,1-.149.027" transform="translate(-299.031 -219.15)" fill="#161616"/>
      <path id="Trazado_882644" data-name="Trazado 882644" d="M366.674,266.006c.429.762.438,1.57.021,1.8s-1.1-.192-1.532-.954-.438-1.57-.021-1.8,1.1.192,1.532.954" transform="translate(-310.854 -225.779)" fill="#161616"/>
      <path id="Trazado_882645" data-name="Trazado 882645" d="M475.308,237.055a1.662,1.662,0,1,0,1.279-1.821,1.578,1.578,0,0,0-1.279,1.821" transform="translate(-404.952 -200.388)" fill="#f29c2a"/>
      <path id="Trazado_882646" data-name="Trazado 882646" d="M380.056,298.689a1.662,1.662,0,1,0,1.279-1.821,1.578,1.578,0,0,0-1.279,1.821" transform="translate(-323.793 -252.903)" fill="#f29c2a"/>
      <path id="Trazado_882647" data-name="Trazado 882647" d="M340.779,228.249a2.921,2.921,0,0,1-.711-.088c-1-.249-2.346-2.289-4.467-5.6-1.463-2.282-2.976-4.641-3.992-5.473-.891-.729-2.564-.709-4.163.048-1.455.69-3.011,2.1-3.011,3.971a.43.43,0,1,1-.86,0c0-2.277,1.809-3.946,3.5-4.748,1.923-.911,3.915-.886,5.076.063,1.122.918,2.672,3.336,4.171,5.674,1.442,2.249,3.236,5.047,3.951,5.226a2.754,2.754,0,0,0,2.472-.9.43.43,0,0,1,.652.561,3.791,3.791,0,0,1-2.622,1.262" transform="translate(-275.7 -183.78)" fill="#161616"/>
      <path id="Trazado_882648" data-name="Trazado 882648" d="M406.651,158.927a.43.43,0,0,1-.4-.59c1.328-3.32,6.318-5.084,10.678-3.776a.43.43,0,0,1-.247.824c-3.89-1.167-8.481.392-9.633,3.271a.43.43,0,0,1-.4.271" transform="translate(-346.117 -131.322)" fill="#161616"/>
      <path id="Trazado_882649" data-name="Trazado 882649" d="M445.846,289.852a7.051,7.051,0,0,1-1.465-.144.43.43,0,1,1,.18-.841,8.656,8.656,0,0,0,6.293-1.46,7.532,7.532,0,0,0,3.138-5.428.43.43,0,0,1,.853.11,8.469,8.469,0,0,1-3.495,6.021,9.749,9.749,0,0,1-5.505,1.742" transform="translate(-378.34 -239.937)" fill="#161616"/>
      <path id="Trazado_882650" data-name="Trazado 882650" d="M595.439,201.069a.43.43,0,0,1-.43-.43c0-.348-.057-.8-.326-.951-.39-.224-1.188.1-1.514.286a.43.43,0,0,1-.623-.514,20.557,20.557,0,0,1,1.107-2.508c.954-1.8,1.867-2.73,2.793-2.839a1.944,1.944,0,0,1,1.841,1.112.43.43,0,1,1-.722.467c-.337-.521-.679-.764-1.017-.725-.966.115-2.124,2.165-2.839,3.869a1.889,1.889,0,0,1,1.4.106,1.793,1.793,0,0,1,.758,1.7.43.43,0,0,1-.43.43" transform="translate(-504.852 -165.381)" fill="#161616"/>
      <path id="Trazado_882651" data-name="Trazado 882651" d="M514.637,329.351c-.073.207.624,10.568-9.892,13.422l.361-2.647c6.839-2.073,9.364-10.558,9.532-10.775" transform="translate(-430.063 -280.62)" fill="#161616"/>
      <path id="Trazado_882652" data-name="Trazado 882652" d="M502.268,340.725a.43.43,0,0,1-.426-.488l.36-2.647a.43.43,0,0,1,.3-.354c2.7-.817,6.47-3.248,9.12-10.187a1.734,1.734,0,0,1,.2-.439.43.43,0,0,1,.765.332c0,.031,0,.081,0,.149-.049,3.276-1.142,11.16-10.2,13.619a.433.433,0,0,1-.113.015m.75-2.749-.234,1.72a11.9,11.9,0,0,0,7.672-6.605,14.2,14.2,0,0,0,1.061-3.6c-2.6,5.46-5.949,7.641-8.5,8.488m9.548-10.961h0m0,0h0Z" transform="translate(-427.586 -278.141)" fill="#161616"/>
      <path id="Trazado_882653" data-name="Trazado 882653" d="M204.626,706.642a.429.429,0,0,1-.29-.112,46.987,46.987,0,0,0-23.172-10.4.43.43,0,0,1,.111-.853,46.393,46.393,0,0,1,17.067,5.982,41.517,41.517,0,0,1,6.574,4.631.43.43,0,0,1-.29.748" transform="translate(-154.04 -592.404)" fill="#161616"/>
      <path id="Trazado_882654" data-name="Trazado 882654" d="M322.934,905.748c1.976.241,6.536-1,6.328,1.692a4.763,4.763,0,0,1-1.826,3.7Z" transform="translate(-275.153 -771.663)" fill="#fff"/>
      <path id="Trazado_882655" data-name="Trazado 882655" d="M324.961,909.1a.43.43,0,0,1-.331-.155l-4.5-5.4a.43.43,0,0,1,.382-.7,12.267,12.267,0,0,0,1.919-.023c1.611-.094,3.437-.2,4.307.685a1.831,1.831,0,0,1,.479,1.491,5.165,5.165,0,0,1-2.027,4.036.429.429,0,0,1-.227.065m-3.559-5.367,3.619,4.336a4.694,4.694,0,0,0,1.337-3.137,1,1,0,0,0-.235-.822c-.6-.607-2.285-.508-3.642-.429-.374.022-.738.043-1.078.051" transform="translate(-272.676 -769.189)" fill="#161616"/>
      <path id="Trazado_882656" data-name="Trazado 882656" d="M415.782,1059.1a9.341,9.341,0,0,0,8.549,5.32h37.513c6.425,0,8.479-6.32,8.479-6.32s-27.754-1.763-27.961-1.763-26.581,2.763-26.581,2.763" transform="translate(-354.263 -900.037)" fill="#fff"/>
      <path id="Trazado_882657" data-name="Trazado 882657" d="M459.367,1062.369H421.853a9.734,9.734,0,0,1-8.929-5.548.43.43,0,0,1,.335-.63c7.936-.832,26.418-2.766,26.626-2.766s23.352,1.469,27.989,1.764a.43.43,0,0,1,.382.562,11.023,11.023,0,0,1-1.909,3.3,8.85,8.85,0,0,1-6.979,3.315M414,1056.978a8.793,8.793,0,0,0,7.852,4.53h37.513c5.03,0,7.229-4.023,7.866-5.5-9.544-.606-26.649-1.69-27.342-1.724-.692.057-16.822,1.742-25.889,2.692" transform="translate(-351.785 -897.56)" fill="#161616"/>
      <path id="Trazado_882658" data-name="Trazado 882658" d="M361.474,1022.536c.622,5.8,69.845,4.974,71.3-1.658s-72-4.94-71.3,1.658" transform="translate(-307.986 -866.24)" fill="#fff"/>
      <path id="Trazado_882659" data-name="Trazado 882659" d="M389.119,1024.384c-4.554,0-9-.108-13.052-.328a93.81,93.81,0,0,1-12.179-1.289c-3.509-.684-5.2-1.526-5.32-2.649-.074-.69.382-1.325,1.357-1.886,4.861-2.8,22.3-4.12,35.76-4.4,13.5-.277,30.56.355,34.243,3.049a1.549,1.549,0,0,1,.784,1.622c-.507,2.318-7.258,4.021-20.065,5.061-6.641.539-14.22.818-21.528.818m12.535-9.745c-17.1,0-36.482,1.559-41.3,4.337-.448.258-.974.65-.931,1.049.026.238.435,1.079,4.629,1.9a94.367,94.367,0,0,0,12.061,1.275,275.018,275.018,0,0,0,34.464-.488,105.088,105.088,0,0,0,13.656-1.836c4.822-1.085,5.549-2.146,5.638-2.552.019-.088.078-.357-.452-.744-2.749-2.011-14.579-2.938-27.765-2.938" transform="translate(-305.507 -863.775)" fill="#161616"/>
      <path id="Trazado_882660" data-name="Trazado 882660" d="M439.4,1049.367a178.916,178.916,0,0,1-20.051-.83c-2.486-.343-3.037-.714-3.249-1.031a.43.43,0,0,1,.713-.481c.112.126,1.043.753,8.472,1.16,4.676.256,10.865.366,17.425.309s12.8-.274,17.569-.612c7.254-.513,8.679-1.119,8.956-1.356a.43.43,0,0,1,.56.653c-.43.369-1.687.917-7.608,1.418-3.842.325-8.888.562-14.591.683-2.6.055-5.392.086-8.2.086" transform="translate(-354.471 -891.594)" fill="#161616"/>
      <path id="Trazado_882661" data-name="Trazado 882661" d="M418.565,946.4a2.613,2.613,0,0,1,1.555-2.61c.851-.293,1.9.271,2.652-.264,1.246-.888.031-4.726,2.4-4.421,1.063.136,1.4,1.382,2.66.784.963-.456,1.388-1.506,2.458-1.837a2.46,2.46,0,0,1,2.7,1.063,8.419,8.419,0,0,1,1.629,4.537c.2,2.3-.315,4.846-2.1,6.312a8.011,8.011,0,0,1-5.059,1.445,17.905,17.905,0,0,1-6.641-.984c-1.381-.557-2.2-2.579-2.264-4.024" transform="translate(-356.631 -799.165)" fill="#7fcc00"/>
      <path id="Trazado_882662" data-name="Trazado 882662" d="M614.615,972.286c2.022-2.528,6.218-3.316,5.389-6.425s-3.316-3.109-4.767-2.28-5.181,1.865-3.938-.415-4.56-3.316-5.181-1.036-8.5,3.109-9.741,1.451-6.01-3.938-8.912-1.451-1.036,13.679-1.036,13.679,24.871.622,28.187-3.523" transform="translate(-499.158 -818.685)" fill="#7fcc00"/>
      <path id="Trazado_882663" data-name="Trazado 882663" d="M607.065,943.218c-2.487,3.523,6.839,14.715,13.057,14.922s5.8-1.036,5.8-1.036,4.974,1.036,5.6,0-18.184-22.772-24.456-13.886" transform="translate(-516.893 -801.845)" fill="#fff"/>
      <path id="Trazado_882664" data-name="Trazado 882664" d="M618.984,956.142q-.639,0-1.363-.024c-2.115-.071-4.722-1.347-7.339-3.594a23.693,23.693,0,0,1-5.582-6.911c-1.1-2.214-1.265-3.976-.474-5.1,2.892-4.1,8.069-1.978,11.9.52a53.718,53.718,0,0,1,9.331,8.115,44.13,44.13,0,0,1,2.977,3.529c1.163,1.575,1.125,1.924.965,2.192-.653,1.088-3.944.613-5.68.275l-.014.019c-.488.654-2.039.975-4.725.975M604.93,941.013h0c-.588.834-.4,2.331.541,4.217,2.25,4.524,8.06,9.89,12.179,10.028,4.458.149,5.25-.475,5.359-.593a.43.43,0,0,1,.518-.434c.012,0,1.242.257,2.525.382a4.916,4.916,0,0,0,2.534-.121c-.327-.815-2.766-3.961-6.368-7.41-2.611-2.5-7.632-6.842-11.918-7.819-2.4-.547-4.153.026-5.37,1.75m18.1,13.773h0m0,0h0Z" transform="translate(-514.406 -799.392)" fill="#161616"/>
      <path id="Trazado_882665" data-name="Trazado 882665" d="M626.778,962.344a.427.427,0,0,1-.181-.04,28.089,28.089,0,0,1-10.2-8.8c-2.257-3.1-3.746-6.292-3.541-7.6a.43.43,0,1,1,.85.133c-.285,1.817,4.854,11.585,13.251,15.489a.43.43,0,0,1-.182.82" transform="translate(-522.165 -805.636)" fill="#161616"/>
      <path id="Trazado_882666" data-name="Trazado 882666" d="M681.3,990.526a.43.43,0,0,1-.43-.43c-.029-.5-2.122-2.1-3.65-3.266-3.249-2.48-6.318-4.822-5.417-6.474a.99.99,0,0,1,.844-.545c.639-.027,1.841.4,5.012,4.437,1.691,2.152,3.156,4.344,3.17,4.366a.42.42,0,0,1,.042.079c.569.56.86,1,.86,1.4a.43.43,0,0,1-.43.43m-8.6-9.856h-.014c-.037,0-.075,0-.127.1-.121.223-.121.8,1.248,2.144a44.2,44.2,0,0,0,3.935,3.234l.652.5c-.429-.587-.912-1.231-1.414-1.87-2.974-3.783-4.015-4.105-4.28-4.105" transform="translate(-572.266 -834.836)" fill="#161616"/>
      <path id="Trazado_882667" data-name="Trazado 882667" d="M334.493,969.486c-9.119.414-20.933,6.425-24.249,8.083s-9.741-1.036-12.908,4.544c-1.542,2.718,11.25.015,11.25.015s-8.865,5.652-6.632,6.425c5.389,1.865,11.4-6.218,11.4-6.218s1.865-.829,7.047,0,22.591,1.036,22.591,1.036Z" transform="translate(-253.232 -826.04)" fill="#fff"/>
      <path id="Trazado_882668" data-name="Trazado 882668" d="M301.149,986.781a5.49,5.49,0,0,1-1.807-.3.87.87,0,0,1-.644-.729c-.064-.546.286-1.492,3.6-3.977.627-.47,1.26-.92,1.816-1.3-.914.163-2.038.348-3.179.5-4.986.658-6.067.139-6.452-.386a1.012,1.012,0,0,1,.01-1.161c2.186-3.853,5.783-3.974,8.957-4.081a10.589,10.589,0,0,0,4.132-.636l.237-.118c3.754-1.88,15.18-7.6,24.185-8.009a.433.433,0,0,1,.386.205l8.5,13.886a.43.43,0,0,1-.367.655h-.005c-.712-.008-17.5-.217-22.654-1.042-4.324-.692-6.281-.2-6.713-.063A24.9,24.9,0,0,1,307.476,984c-2.242,1.841-4.394,2.782-6.327,2.782m-1.6-1.144a.335.335,0,0,0,.071.032c5.028,1.741,10.855-5.99,10.913-6.068a.43.43,0,0,1,.17-.136c.081-.036,2.041-.872,7.289-.032,4.467.715,18.308.967,21.749,1.02l-7.957-13c-8.784.5-19.907,6.064-23.586,7.906l-.237.119a11.124,11.124,0,0,1-4.488.727c-3.092.1-6.289.211-8.238,3.645-.047.082-.091.191-.064.229.44.6,4.714.45,10.85-.847a.43.43,0,0,1,.32.784c-.018.011-1.807,1.155-3.546,2.46-3.068,2.3-3.242,3.048-3.248,3.163" transform="translate(-250.761 -823.563)" fill="#161616"/>
      <path id="Trazado_882669" data-name="Trazado 882669" d="M491.83,1003.486a.423.423,0,0,1-.1-.013c-1.161-.29-1.823-.782-1.968-1.463a2.019,2.019,0,0,1,.578-1.653c-.909-.316-2.352-.98-2.6-2.077-.161-.728.217-1.465,1.126-2.192a.43.43,0,1,1,.537.672c-.434.347-.929.86-.824,1.334.19.857,2.044,1.489,2.678,1.642a.43.43,0,0,1,.164.757c-.31.244-.919.894-.823,1.338.069.323.543.609,1.335.807a.43.43,0,0,1-.1.848" transform="translate(-415.544 -848.626)" fill="#161616"/>
      <path id="Trazado_882670" data-name="Trazado 882670" d="M447.306,1018.173c-2.5,0-3.137-.982-3.292-1.567a2.219,2.219,0,0,1,1.214-2.346.43.43,0,1,1,.427.747,1.387,1.387,0,0,0-.809,1.378c.154.581,1.074.927,2.461.927a.43.43,0,0,1,0,.86" transform="translate(-378.274 -864.141)" fill="#161616"/>
      <path id="Trazado_882671" data-name="Trazado 882671" d="M540.062,969.939c-1.831,2.289,3.387,12.247,9.536,13.247,3.936.64,2.485-1.018,2.485-1.018s3.376,1.11,4.486.866-13.191-17.239-16.507-13.094" transform="translate(-459.838 -825.872)" fill="#fff"/>
      <path id="Trazado_882672" data-name="Trazado 882672" d="M548.629,981.314a10.133,10.133,0,0,1-1.585-.153c-4.159-.676-8.058-5.341-9.616-9.387-.465-1.207-1.107-3.4-.187-4.553s2.38-.866,3.456-.44c3.024,1.2,6.871,4.988,8.9,7.139,1.413,1.5,5.062,5.618,4.981,6.619a.505.505,0,0,1-.4.465,11.041,11.041,0,0,1-3.889-.623.833.833,0,0,1-.1.344c-.22.4-.716.589-1.555.589m5.087-.8h0Zm-14.7-13.243a1.326,1.326,0,0,0-1.1.49c-.461.577-.339,2,.319,3.706,1.972,5.122,6.083,8.381,8.951,8.847,1.977.321,2.249,0,2.251-.006a.732.732,0,0,0-.161-.306.431.431,0,0,1,.46-.69,18.461,18.461,0,0,0,3.84.878,40.34,40.34,0,0,0-5.16-6.259c-3.539-3.666-6.7-6.057-8.671-6.558a2.964,2.964,0,0,0-.726-.1" transform="translate(-457.352 -823.422)" fill="#161616"/>
      <path id="Trazado_882673" data-name="Trazado 882673" d="M580.809,1009.907a.428.428,0,0,1-.283-.106c-.018-.016-1.811-1.581-3.562-3.282-3.678-3.575-3.591-4.256-3.549-4.583a.656.656,0,0,1,.362-.512c.566-.283,1.495-.03,4.418,3.721,1.546,1.983,2.956,4.07,2.971,4.091a.43.43,0,0,1-.357.671m-6.456-7.621a24.569,24.569,0,0,0,3.765,4.157,19.789,19.789,0,0,0-3.765-4.157" transform="translate(-488.564 -853.181)" fill="#161616"/>
      <path id="Trazado_882674" data-name="Trazado 882674" d="M863.492,618.972a.43.43,0,0,1-.387-.618c3.533-7.273,17.307-17.8,23.394-17.872a.43.43,0,0,1,.011.86c-5.735.072-19.271,10.473-22.631,17.388a.43.43,0,0,1-.387.242" transform="translate(-735.364 -511.633)" fill="#161616"/>
      <path id="Trazado_882675" data-name="Trazado 882675" d="M96.714,732.757c-2.28,3.731-15.337,31.5-11.814,40.83s17,4.974,17,4.974,15.544-29.431,18.239-35.648c-9.327-8.083-23.42-10.156-23.42-10.156" transform="translate(-71.828 -624.338)" fill="#fff"/>
      <path id="Trazado_882676" data-name="Trazado 882676" d="M92.718,777.528q-.2,0-.406,0c-5.173-.106-8.7-2.271-10.213-6.263-1.057-2.8-1.268-9.028,3.729-22.812a136.4,136.4,0,0,1,8.121-18.394.432.432,0,0,1,.43-.2c.142.021,14.325,2.184,23.639,10.256a.43.43,0,0,1,.113.5c-2.67,6.162-18.1,35.384-18.253,35.678a.43.43,0,0,1-.248.208,24.884,24.884,0,0,1-6.911,1.035m1.818-46.776a143.664,143.664,0,0,0-7.9,17.991c-3.884,10.715-5.175,18.4-3.733,22.215,1.391,3.682,4.555,5.6,9.405,5.706a24.461,24.461,0,0,0,6.891-.939c1.217-2.307,15.142-28.723,18.013-35.17-8.4-7.123-20.665-9.459-22.678-9.8" transform="translate(-69.429 -621.861)" fill="#161616"/>
      <path id="Trazado_882677" data-name="Trazado 882677" d="M173.021,881.969c-1.895.247-4.56,1.533-4.56,4.352,0,1.658-2.28,2.9-2.9,5.8-.41,1.912-2.9,3.523-3.109,5.6a8.575,8.575,0,0,0,4.974,8.083c8.377,4.188,11.4.207,7.047-1.658s-4.767-4.352-4.767-4.352,13.264,7.668,13.472-.622a3.836,3.836,0,0,0,4.352-4.56c2.28,0,5.029-3.262,1.451-6.84a20.3,20.3,0,0,0-15.959-5.8" transform="translate(-138.393 -751.373)" fill="#fff"/>
      <path id="Trazado_882678" data-name="Trazado 882678" d="M171.3,905.61a15.208,15.208,0,0,1-6.532-1.894,8.963,8.963,0,0,1-5.21-8.511,6.683,6.683,0,0,1,1.706-3.258,6.584,6.584,0,0,0,1.41-2.385,9.3,9.3,0,0,1,1.863-3.675,3.875,3.875,0,0,0,1.029-2.038c0-2.841,2.558-4.469,4.934-4.779A20.606,20.606,0,0,1,186.816,885c2.3,2.3,1.967,4.26,1.566,5.226a3.891,3.891,0,0,1-2.819,2.3,4.644,4.644,0,0,1-1.056,3.218,4.051,4.051,0,0,1-3.393,1.416,3.841,3.841,0,0,1-1.85,3.268c-2.971,1.665-8.644-.867-11.087-2.114a8.86,8.86,0,0,0,4,2.963c1.334.572,2.148,1.4,2.235,2.27a1.577,1.577,0,0,1-.753,1.48,4.174,4.174,0,0,1-2.359.581m-.688-25.687c-1.554.2-4.185,1.258-4.185,3.926a4.47,4.47,0,0,1-1.2,2.549,8.462,8.462,0,0,0-1.714,3.344,7.262,7.262,0,0,1-1.573,2.734,6.094,6.094,0,0,0-1.529,2.815c-.369,3.694,2.631,6.6,4.739,7.655,2.888,1.444,6.487,2.428,8.018,1.374a.738.738,0,0,0,.384-.687c-.042-.418-.515-1.049-1.718-1.565-4.516-1.936-5-4.566-5.022-4.677a.43.43,0,0,1,.64-.443c.08.046,8.045,4.6,11.391,2.729a3.193,3.193,0,0,0,1.435-2.989.43.43,0,0,1,.478-.417,3.365,3.365,0,0,0,3.093-1.083,3.57,3.57,0,0,0,.8-2.931.43.43,0,0,1,.414-.548,2.912,2.912,0,0,0,2.526-1.817c.549-1.326.059-2.849-1.38-4.288a20.1,20.1,0,0,0-7.736-4.742,17.929,17.929,0,0,0-7.863-.939" transform="translate(-135.925 -748.901)" fill="#161616"/>
      <path id="Trazado_882679" data-name="Trazado 882679" d="M258,929.245a.43.43,0,0,1-.351-.182c-3.384-4.777-12.076-6.442-12.163-6.458a.43.43,0,0,1,.157-.846c.371.069,9.125,1.748,12.708,6.807a.43.43,0,0,1-.351.679" transform="translate(-208.863 -785.369)" fill="#161616"/>
      <path id="Trazado_882680" data-name="Trazado 882680" d="M639.861,600.836c5.181,1.244-24.664,34.612-24.664,34.612s1.244,4.56-.207,7.047-6.84,7.461-7.876,6.425,3.523-6.218,3.523-6.218l-1.658-1.036s-3.731,6.218-5.389,5.389c-1.584-.792,3.316-6.632,3.316-6.632l-1.658-.829s-3.731,5.6-5.389,4.352c-1.2-.9,3.1-8.527,7.047-9.741a15.336,15.336,0,0,1,5.181-.622s21.845-34.169,27.772-32.747" transform="translate(-510.932 -511.899)" fill="#161616"/>
      <path id="Trazado_882681" data-name="Trazado 882681" d="M239.325,963.436a.43.43,0,0,1-.347-.175c-2.774-3.765-10.25-5.622-10.326-5.641a.43.43,0,1,1,.2-.836c.319.078,7.854,1.948,10.815,5.966a.43.43,0,0,1-.346.685" transform="translate(-194.541 -815.208)" fill="#161616"/>
      <path id="Trazado_882682" data-name="Trazado 882682" d="M147.069,880.107a.426.426,0,0,1-.128-.02,22.577,22.577,0,0,0-11.911-.046.43.43,0,0,1-.255-.822,23.028,23.028,0,0,1,12.421.046.43.43,0,0,1-.127.841" transform="translate(-114.576 -748.413)" fill="#161616"/>
      <path id="Trazado_882683" data-name="Trazado 882683" d="M721.75,648.646s-14.1-7.1-20.311-6.218c-4.352.622-7.285,5.318-11.192,8.912-5.181,4.767-5.181,7.876-.622,7.668,5.387-.245,11.606-7.668,11.606-7.668s-3.316,8.5-2.487,12.643c.491,2.456,3.109,3.109,5.389,2.487,1.658,4.352,4.767,4.352,6.839,2.487,3.109,3.938,10.777,1.658,10.777,1.658s16.622,29.351,31.5,27.358c23.213-3.109-14.922-59.068-14.922-59.068a36.156,36.156,0,0,0-16.581,9.741" transform="translate(-584.738 -544.372)" fill="#fff"/>
      <path id="Trazado_882684" data-name="Trazado 882684" d="M749.326,696.022c-3.091,0-6.44-1.208-9.979-3.6a52.661,52.661,0,0,1-10.218-9.576,107.825,107.825,0,0,1-10.049-14.2c-1.5.388-7.593,1.707-10.621-1.558a4.258,4.258,0,0,1-3.6.91c-1.02-.246-2.425-1.057-3.449-3.494a5.422,5.422,0,0,1-3.917-.521,3.546,3.546,0,0,1-1.633-2.387c-.6-3,.851-8.066,1.789-10.872-2.189,2.236-6.492,6.063-10.467,6.243-2.461.111-3.338-.726-3.639-1.449-.647-1.553.756-4.027,3.95-6.966,1.071-.985,2.078-2.065,3.052-3.11,2.61-2.8,5.074-5.441,8.37-5.912,2.649-.378,6.922.564,12.7,2.8,3.575,1.384,6.651,2.861,7.579,3.317a36.989,36.989,0,0,1,16.58-9.635.429.429,0,0,1,.449.178,241.923,241.923,0,0,1,13.11,22.122c8.229,15.926,11.067,26.992,8.435,32.891-1.2,2.679-3.524,4.269-6.921,4.724a11.425,11.425,0,0,1-1.519.1m-30.041-28.315a.43.43,0,0,1,.374.218A106.238,106.238,0,0,0,729.793,682.3a51.781,51.781,0,0,0,10.042,9.414c3.946,2.67,7.611,3.8,10.9,3.361,3.124-.418,5.169-1.8,6.25-4.221,2.485-5.567-.424-16.68-8.41-32.138a242.015,242.015,0,0,0-12.893-21.792,36.187,36.187,0,0,0-16.08,9.547.43.43,0,0,1-.506.088c-.14-.07-14.053-7.033-20.057-6.176-3,.428-5.36,2.963-7.863,5.647-.985,1.056-2,2.148-3.1,3.156-4.185,3.85-3.92,5.567-3.739,6,.276.663,1.274.99,2.806.92,5.139-.234,11.235-7.442,11.3-7.515a.43.43,0,0,1,.73.433c-.033.084-3.261,8.428-2.466,12.4a2.671,2.671,0,0,0,1.241,1.824,4.684,4.684,0,0,0,3.612.332.43.43,0,0,1,.515.262c.712,1.869,1.745,3.016,2.988,3.316a3.541,3.541,0,0,0,3.161-1,.43.43,0,0,1,.625.053c2.891,3.662,10.243,1.534,10.317,1.512a.431.431,0,0,1,.122-.018" transform="translate(-582.273 -541.894)" fill="#161616"/>
      <path id="Trazado_882685" data-name="Trazado 882685" d="M951.512,721.762a.429.429,0,0,1-.325-.148c-6.557-7.54-16.767-12.987-23.523-16.591-1.721-.918-3.208-1.711-4.351-2.389a.43.43,0,0,1,.439-.74c1.127.668,2.605,1.456,4.318,2.37,6.812,3.634,17.107,9.126,23.767,16.786a.43.43,0,0,1-.325.712" transform="translate(-786.52 -597.99)" fill="#161616"/>
      <path id="Trazado_882686" data-name="Trazado 882686" d="M804.35,756.324a.43.43,0,0,1-.429-.412,55.364,55.364,0,0,1,1.253-11.716.43.43,0,0,1,.84.184,55.652,55.652,0,0,0-1.234,11.5.43.43,0,0,1-.412.448h-.018" transform="translate(-684.955 -633.795)" fill="#161616"/>
      <path id="Trazado_882687" data-name="Trazado 882687" d="M845.937,777.906a.43.43,0,0,1-.371-.212c-2.148-3.652.274-10.831.378-11.135a.43.43,0,0,1,.814.279c-.024.071-2.4,7.108-.451,10.42a.43.43,0,0,1-.37.648" transform="translate(-719.702 -652.891)" fill="#161616"/>
      <path id="Trazado_882688" data-name="Trazado 882688" d="M902.051,803.434a.43.43,0,0,1-.217-.8c.643-.375,1.394-.953,1.316-1.574-.153-1.219-3.116-2.506-4.948-3.03a.43.43,0,0,1-.287-.558l1.036-2.9a.43.43,0,1,1,.81.289l-.884,2.477c1.323.424,4.891,1.738,5.127,3.616.11.873-.475,1.688-1.736,2.424a.429.429,0,0,1-.216.059" transform="translate(-765.038 -676.76)" fill="#161616"/>
      <path id="Trazado_882689" data-name="Trazado 882689" d="M542.2,511.693a1.658,1.658,0,1,1,1.658,1.658,1.658,1.658,0,0,1-1.658-1.658" transform="translate(-461.977 -434.57)" fill="#161616"/>
      <path id="Trazado_882690" data-name="Trazado 882690" d="M542.2,566.323a1.658,1.658,0,1,1,1.658,1.658,1.658,1.658,0,0,1-1.658-1.658" transform="translate(-461.977 -481.117)" fill="#161616"/>
      <path id="Trazado_882691" data-name="Trazado 882691" d="M528.768,499.711h-.025l-7.254-.414a.43.43,0,0,1-.4-.455l1.244-20.726a.43.43,0,1,1,.859.052l-1.218,20.295,6.823.39a.43.43,0,0,1-.024.86" transform="translate(-443.984 -407.027)" fill="#161616"/>
      <path id="Trazado_882692" data-name="Trazado 882692" d="M343.346,659.406a.43.43,0,0,1-.425-.368,110.329,110.329,0,0,1-1.144-15.613.43.43,0,0,1,.43-.424h.007a.43.43,0,0,1,.424.436,109.376,109.376,0,0,0,1.135,15.476.431.431,0,0,1-.426.493" transform="translate(-291.206 -547.862)" fill="#161616"/>
    </g>
  </g>
</svg>
