<svg id="Grupo_1103153" data-name="Grupo 1103153" xmlns="http://www.w3.org/2000/svg" xmlns:xlink="http://www.w3.org/1999/xlink" width="142.201" height="118.802" viewBox="0 0 142.201 118.802">
  <defs>
    <clipPath id="clip-path">
      <rect id="Rectángulo_402648" data-name="Rectángulo 402648" width="142.201" height="118.802" fill="none"/>
    </clipPath>
  </defs>
  <g id="Grupo_1103152" data-name="Grupo 1103152" clip-path="url(#clip-path)">
    <path id="Trazado_885030" data-name="Trazado 885030" d="M36.347,45.973c4.6,18.567,4.785,36.862,0,54.851-4.29,3.039-8.347,3.537-12.033,0H12.532A8.532,8.532,0,0,1,4,92.292V45.973a8.533,8.533,0,0,1,8.532-8.535H27.815a8.533,8.533,0,0,1,8.532,8.535" transform="translate(-2.871 -26.875)" fill="#e7f2f1"/>
    <path id="Trazado_885031" data-name="Trazado 885031" d="M47.54,67.628a5.42,5.42,0,1,1-5.42,5.42,5.42,5.42,0,0,1,5.42-5.42" transform="translate(-30.236 -48.547)" fill="#655f68"/>
    <path id="Trazado_885032" data-name="Trazado 885032" d="M127.306,8.326V76.818a6.954,6.954,0,0,1-8.656,0V8.326a4.328,4.328,0,1,1,8.656,0" transform="translate(-85.174 -2.87)" fill="#d6eae8"/>
    <path id="Trazado_885033" data-name="Trazado 885033" d="M136.213,262.1H76s-.279,20.122,14.268,30.1a9.552,9.552,0,0,1,4.142,7.886v5.736h34.413l-1.639-5.868a7.276,7.276,0,0,1,2.867-7.914,28.637,28.637,0,0,0,6.848-6.822c3.265-8.325,3.479-16.11-.683-23.121" transform="translate(-54.556 -188.15)" fill="#c3ddda"/>
    <path id="Trazado_885034" data-name="Trazado 885034" d="M249.223,225.011l11.13,10.115a4.156,4.156,0,0,1-4.571,6.833c-3.611-1.7-9.965-4.21-14.982-3.569-7.451.951-33.019,11.768-37.279-1.73-2.649-8.4,7.985-14.079,15.65-17a15.624,15.624,0,0,0-1.326-5.764,13.89,13.89,0,0,0-3.8-4.946c-1.811,4.545-4.322,9.24-7.587,11.932a12.554,12.554,0,0,1-3.479,1.933c-6.52,2.511-17.021,2.364-23.42,1.972a5.87,5.87,0,0,1,.567-11.726c6.365.226,15.777.107,18.294-2.359,2.077-2.037,3.061-6.557,3.877-11.009H171.355a14.682,14.682,0,0,1-3.3-9.249c0-8.436,7.231-15.278,16.153-15.278,3.783,0,7.733,1.941,10.016,3.293a13.178,13.178,0,0,0,4.184,1.292,6.04,6.04,0,0,0,4.328-.894,23.43,23.43,0,0,1,15.69-3.51c10.834,1.275,38.995,26.135,35.626,42a13.807,13.807,0,0,1-4.833,7.666" transform="translate(-120.644 -125.746)" fill="#fec4b9"/>
    <path id="Trazado_885035" data-name="Trazado 885035" d="M219.889,341.054a28.939,28.939,0,0,1-4.647,5.107h0a140.445,140.445,0,0,1-16.412.776c-7.381-.209-7.116-6.653-7.217-7.059a6,6,0,0,0,.937,1.312,5.872,5.872,0,0,0,3.922,1.837c6.4.392,16.9.539,23.42-1.972" transform="translate(-137.549 -243.985)" fill="#b8d3cf"/>
    <path id="Trazado_885036" data-name="Trazado 885036" d="M376.729,351.828l3.036,2.759c-12.169,10.38-34.085,6.283-34.085,6.283s21.079-.547,31.049-9.043" transform="translate(-248.15 -252.563)" fill="#f7b6ad"/>
    <path id="Trazado_885037" data-name="Trazado 885037" d="M334.742,251.388s9.387,12.648,8.707,20.672a65.856,65.856,0,0,0-7.265,2.316,15.624,15.624,0,0,0-1.326-5.764,13.89,13.89,0,0,0-3.8-4.946,77.625,77.625,0,0,0,3.682-12.279" transform="translate(-237.655 -180.461)" fill="#f7b6ad"/>
    <path id="Trazado_885038" data-name="Trazado 885038" d="M276.05,225c.186-16.593,13.4-14.5,13.4-14.5a9.192,9.192,0,0,0-7.271,4.667c-1.069,2.074-1.648,5.925-2.362,9.83H276.05Z" transform="translate(-198.165 -151.049)" fill="#f7b6ad"/>
    <path id="Trazado_885039" data-name="Trazado 885039" d="M17.3,17.951A6.549,6.549,0,1,0,23.851,24.5,6.556,6.556,0,0,0,17.3,17.951m0,10.84A4.291,4.291,0,1,1,21.594,24.5,4.3,4.3,0,0,1,17.3,28.791M130.261,99.267a14.489,14.489,0,0,0,4.256-7.434c1.476-6.947-2.727-14.7-6.514-19.981C119.878,60.519,105.539,49.379,97.92,48.48a24.558,24.558,0,0,0-16.443,3.69,4.907,4.907,0,0,1-3.521.722,11.76,11.76,0,0,1-3.8-1.15C71.5,50.17,67.5,48.294,63.57,48.294c-9.529,0-17.281,7.36-17.281,16.406a15.62,15.62,0,0,0,2.262,8.119H43.261V5.457a5.457,5.457,0,1,0-10.913,0V12.9a9.643,9.643,0,0,0-7.4-3.463H9.661A9.672,9.672,0,0,0,0,19.1V65.416a9.672,9.672,0,0,0,9.661,9.661H20.339a47.553,47.553,0,0,0,1.7,10.483c2.36,8.473,6.868,15.19,13.038,19.424a8.426,8.426,0,0,1,3.652,6.954v5.736a1.129,1.129,0,0,0,1.129,1.129H74.265a1.129,1.129,0,0,0,1.087-1.432l-1.64-5.867a6.168,6.168,0,0,1,2.427-6.688A29.837,29.837,0,0,0,83.052,98a13.38,13.38,0,0,0,3.484-2c3.071-2.532,5.479-6.673,7.291-10.857a12.563,12.563,0,0,1,2.349,3.465,14.22,14.22,0,0,1,1.166,4.538c-5.408,2.141-11.975,5.591-14.7,10.413a9.352,9.352,0,0,0-.837,7.686c1.575,4.991,5.922,7.518,12.927,7.518.24,0,.484,0,.73-.009,6.021-.145,12.772-1.963,18.2-3.424a61.8,61.8,0,0,1,6.643-1.576c4.8-.609,11.055,1.911,14.36,3.469a5.284,5.284,0,0,0,5.81-8.688ZM34.6,5.457a3.2,3.2,0,1,1,6.4,0V72.819H34.6ZM2.257,65.416V19.1a7.412,7.412,0,0,1,7.4-7.4H24.944a7.412,7.412,0,0,1,7.4,7.4V72.819H9.661a7.412,7.412,0,0,1-7.4-7.4m72.586,37.551a8.429,8.429,0,0,0-3.3,9.144l1.239,4.435h-31.8v-4.608a10.682,10.682,0,0,0-4.632-8.815C24.406,94.926,22.814,79.358,22.6,75.077H80.295c-.731,3.784-1.663,7.463-3.306,9.074s-8.166,2.366-17.463,2.037a7,7,0,0,0-7.255,6.994,7.013,7.013,0,0,0,6.578,6.986c2.285.14,4.737.233,7.224.233a61.109,61.109,0,0,0,13.075-1.2,27.018,27.018,0,0,1-4.3,3.766m64.406,11.415a3.025,3.025,0,0,1-3.627.81c-4.308-2.031-10.513-4.315-15.608-3.666a62.45,62.45,0,0,0-6.945,1.636c-10.386,2.8-26.082,7.024-29.114-2.585a7.083,7.083,0,0,1,.649-5.894c4.41-7.8,21.285-11.944,21.455-11.986a1.129,1.129,0,0,0-.528-2.194c-.268.064-2.741.671-6.011,1.836a16.2,16.2,0,0,0-1.289-4.653,14.944,14.944,0,0,0-3.481-4.793,77.649,77.649,0,0,0,3.444-11.748,1.129,1.129,0,0,0-2.215-.434c-.034.174-3.5,17.475-10.879,23.558-3.765,3.1-13.283,4.434-26.113,3.648a4.753,4.753,0,0,1-4.459-4.733,4.745,4.745,0,0,1,4.918-4.739c10.495.374,16.929-.529,19.123-2.681,2.576-2.525,3.541-7.933,4.475-13.162.58-3.25,1.128-6.319,1.977-7.964a7.978,7.978,0,0,1,6.324-4.058,1.128,1.128,0,0,0-.11-2.254A10.268,10.268,0,0,0,83.016,63.6c-1.005,1.948-1.582,5.18-2.193,8.6l-.11.616H51.265a13.458,13.458,0,0,1-2.72-8.119c0-7.8,6.74-14.149,15.024-14.149,3.6,0,7.463,1.964,9.442,3.134a13.687,13.687,0,0,0,4.572,1.433,7.16,7.16,0,0,0,5.134-1.063,22.289,22.289,0,0,1,14.938-3.333c6.274.74,20.1,10.706,28.513,22.445,3.521,4.911,7.445,12.055,6.14,18.2-3.146,14.809-34.492,15.807-34.809,15.815a1.129,1.129,0,0,0,.029,2.257h.03c1.059-.028,20.641-.654,30.984-8.679l10.407,9.459a3.023,3.023,0,0,1,.3,4.166M97.465,21.144,90.984,26.03l2.756,2.432a1.128,1.128,0,0,1-.013,1.7L86.442,36.4l2.133,1.74a1.129,1.129,0,0,1,0,1.746l-6.207,5.1a1.129,1.129,0,0,1-1.434-1.743l5.142-4.229L83.969,37.3a1.129,1.129,0,0,1-.02-1.732L91.272,29.3l-2.819-2.487a1.129,1.129,0,0,1,.067-1.748l7.585-5.719a1.129,1.129,0,0,1,1.359,1.8M80.652,23.3l-5.275,8.006,2.531,1.082a1.128,1.128,0,0,1,.486,1.677l-4.552,6.622a1.129,1.129,0,0,1-1.86-1.278l3.771-5.486-2.506-1.071a1.129,1.129,0,0,1-.5-1.659l5.3-8.049-3.4-1.61a1.129,1.129,0,0,1-.419-1.7l5.707-7.594a1.129,1.129,0,1,1,1.8,1.356l-4.876,6.489,3.321,1.574a1.128,1.128,0,0,1,.459,1.641m-17.7,17.788.461-6.642-2.7.351a1.129,1.129,0,0,1-1.272-1.175l.478-9.628-3.744.339a1.128,1.128,0,0,1-1.223-1.249L56,13.644a1.129,1.129,0,1,1,2.243.251l-.9,8.066,3.66-.331a1.129,1.129,0,0,1,1.229,1.18l-.476,9.576,2.73-.354a1.128,1.128,0,0,1,1.271,1.2L65.2,41.245a1.128,1.128,0,0,1-1.125,1.05l-.079,0a1.129,1.129,0,0,1-1.048-1.2" fill="#3a322b"/>
  </g>
</svg>
