<svg xmlns="http://www.w3.org/2000/svg" xmlns:xlink="http://www.w3.org/1999/xlink" width="295" height="166" viewBox="0 0 295 166">
  <defs>
    <clipPath id="clip-path">
      <path id="Trazado_882593" data-name="Trazado 882593" d="M96.651,0c-.748,0-1.5.041-2.24.116a13.634,13.634,0,0,0-7.746,3,8.439,8.439,0,0,0-2.033,2.742A58.908,58.908,0,0,0,74.9,7.443c-9.472,2.4-18.483,7.754-24.246,15.506a28.514,28.514,0,0,0-10.9-2.417,34.7,34.7,0,0,0-6.883.985c-2.9.633-5.9,1.378-8.2,3.253-2.793,2.275-4.159,5.948-4.38,9.544a35.618,35.618,0,0,0,1.445,10.667c.728,2.934,1.579,5.978,3.42,8.331a42.128,42.128,0,0,0-7.7,3.57C9.939,61.6,5.714,70.144,3.118,78.628-1.63,94.139-1.7,112.305,8.161,125.188c7.216,9.43,18.626,14.655,29.969,18.164a151.971,151.971,0,0,0,92.55-1.1c6.558-2.2,13.152-4.975,18.033-9.876,4.548-4.566,7.263-10.64,9.25-16.771a87.267,87.267,0,0,0,2.018-47.189A116.378,116.378,0,0,0,143.69,31.811c-3.825-5.841-8.12-11.469-13.542-15.867-5.063-4.106-10.584-6.112-16.5-7.457A19.47,19.47,0,0,0,107.15,2.66,21.342,21.342,0,0,0,96.763,0Z" transform="translate(0)" fill="none"/>
    </clipPath>
  </defs>
  <g id="Grupo_1102093" data-name="Grupo 1102093" transform="translate(-180 -597)">
    <rect id="Rectángulo_402120" data-name="Rectángulo 402120" width="295" height="166" transform="translate(180 597)" fill="#fcebcd"/>
    <g id="Grupo_1102091" data-name="Grupo 1102091" transform="translate(10893.17 12992.101)">
      <g id="Grupo_1102090" data-name="Grupo 1102090" transform="translate(-10646.825 -12388.101)">
        <g id="Grupo_1102089" data-name="Grupo 1102089" transform="translate(0)" clip-path="url(#clip-path)">
          <path id="Trazado_882489" data-name="Trazado 882489" d="M111.609,18.1c-1.83-.369-3.7-.691-5.6-1.007-10.274-1.709-20.939-2.175-31.113.4C62.933,20.522,51.7,28.27,46.824,39.61c-2.267,5.273-3.208,11.29-6.943,15.648-5.535,6.458-15.227,7.15-22.429,11.675C9.94,71.653,5.715,80.194,3.118,88.678c-4.747,15.511-4.814,33.677,5.043,46.56,7.215,9.43,18.626,14.654,29.969,18.164a151.97,151.97,0,0,0,92.55-1.1c6.558-2.2,13.152-4.975,18.033-9.876,4.548-4.566,7.262-10.64,9.25-16.77a87.27,87.27,0,0,0,2.018-47.189,116.377,116.377,0,0,0-16.291-36.608c-3.825-5.841-8.12-11.469-13.542-15.867-5.639-4.572-11.845-6.544-18.539-7.894" transform="translate(0 -10.051)" fill="#f1d49b"/>
          <rect id="Rectángulo_402121" data-name="Rectángulo 402121" width="6.03" height="28.977" transform="translate(28.768 79.428)" fill="#f2d39c"/>
          <rect id="Rectángulo_402122" data-name="Rectángulo 402122" width="4.436" height="4.132" transform="translate(81.203 90.989)" fill="#f2d39c"/>
          <rect id="Rectángulo_402123" data-name="Rectángulo 402123" width="7.481" height="13.284" transform="translate(79.681 95.121)" fill="#ffedcc"/>
          <rect id="Rectángulo_402124" data-name="Rectángulo 402124" width="7.481" height="4.181" transform="translate(79.681 99.673)" fill="#e2c086"/>
          <rect id="Rectángulo_402125" data-name="Rectángulo 402125" width="3.302" height="3.075" transform="translate(90.078 95.444)" fill="#f2d39c"/>
          <rect id="Rectángulo_402126" data-name="Rectángulo 402126" width="5.568" height="9.886" transform="translate(88.945 98.519)" fill="#ffedcc"/>
          <rect id="Rectángulo_402127" data-name="Rectángulo 402127" width="3.302" height="3.075" transform="translate(71.659 96.597)" fill="#f2d39c"/>
          <rect id="Rectángulo_402128" data-name="Rectángulo 402128" width="5.568" height="9.886" transform="translate(70.526 99.673)" fill="#ffedcc"/>
          <rect id="Rectángulo_402129" data-name="Rectángulo 402129" width="95.978" height="13.002" transform="translate(2.493 108.405)" fill="#e2c086"/>
          <rect id="Rectángulo_402130" data-name="Rectángulo 402130" width="50.743" height="9.935" transform="translate(6.412 98.47)" fill="#ffedcc"/>
          <rect id="Rectángulo_402131" data-name="Rectángulo 402131" width="6.856" height="45.264" transform="translate(2.493 121.407)" fill="#e2c086"/>
          <rect id="Rectángulo_402132" data-name="Rectángulo 402132" width="7.394" height="45.264" transform="translate(91.077 121.407)" fill="#e2c086"/>
          <rect id="Rectángulo_402133" data-name="Rectángulo 402133" width="35.71" height="27.402" transform="translate(48.34 29.657)" fill="#ffedcc"/>
          <rect id="Rectángulo_402134" data-name="Rectángulo 402134" width="27.656" height="19.348" transform="translate(52.367 33.684)" fill="#e2c086"/>
          <rect id="Rectángulo_402135" data-name="Rectángulo 402135" width="27.402" height="35.71" transform="translate(131.893 35.145)" fill="#ffedcc"/>
          <rect id="Rectángulo_402136" data-name="Rectángulo 402136" width="19.348" height="27.656" transform="translate(135.92 39.172)" fill="#e2c086"/>
          <path id="Trazado_882490" data-name="Trazado 882490" d="M443.437,260.843a3.815,3.815,0,0,0-4.531-.432c-2.25,1.432-2.668,5.031-5.191,5.9-1.164.4-2.486.069-3.646.481-2.063.733-2.653,3.3-3.1,5.442s-1.111,4.5-3.3,4.594c-1.174-.867-.764-2.736.02-3.968s1.872-2.476,1.708-3.927c-.2-1.763-2.227-3.112-1.9-4.856.316-1.69,2.606-2.3,3.228-3.9.66-1.7-.834-3.408-1.325-5.164-.833-2.977,1.3-6.086.843-9.144a5.507,5.507,0,0,0-10.908,1.528c.357,2.705,2.691,5.116,2.13,7.787-.4,1.907-2.236,3.4-2.2,5.351.042,2.063,2.129,3.459,2.891,5.375.8,2.012.047,4.259-.4,6.378s-.377,4.733,1.417,5.944c.594.4.843,1.8,1.323,2.327a9.136,9.136,0,0,0,8.777-6.315c.437-1.456.566-3.14,1.7-4.156a5.727,5.727,0,0,1,2.947-1.1l4.513-.778c2.167-.374,4.617-.939,5.69-2.859a3.815,3.815,0,0,0-.691-4.5" transform="translate(-266.069 -154.519)" fill="#ffedcc"/>
          <path id="Trazado_882491" data-name="Trazado 882491" d="M391.28,303.2a5.229,5.229,0,0,1-1.488-3.726c-.03-1.756.15-3.758-1.081-5.01-.82-.834-2.088-1.1-2.9-1.945-1.423-1.473-.852-3.857-.992-5.9a7.966,7.966,0,0,0-7-7.148,4.333,4.333,0,0,0-2.681.5A2.338,2.338,0,0,0,374,282.317c.522,2.495,5.09,1.9,5.886,4.319.519,1.579-1.056,3.169-.881,4.822.139,1.318,1.333,2.253,2.5,2.881a8.249,8.249,0,0,1,3.211,2.265,10.937,10.937,0,0,1,1.046,3.349,8.426,8.426,0,0,0,6.7,5.97,1.738,1.738,0,0,0,1.19-.132c1.472-.926-1.911-2.1-2.371-2.59" transform="translate(-239.601 -179.042)" fill="#ffedcc"/>
          <path id="Trazado_882492" data-name="Trazado 882492" d="M418.609,367.549l3.088-32.3H396.638l3.088,32.3Z" transform="translate(-254.13 -214.801)" fill="#e2c086"/>
          <path id="Trazado_882493" data-name="Trazado 882493" d="M260.706,202.52c-.4-.577-10.773,3.823-10.773,3.823a7.984,7.984,0,0,0,.61-5.236l-.013-.048c-.043-.156-.117-.318-.267-.36a.429.429,0,0,0-.221.014A2.238,2.238,0,0,0,248.7,202a17.067,17.067,0,0,0-.588,1.818,9.477,9.477,0,0,1-1.967,3.042c-1.331,1.58-.259,5.16-.259,5.16s-.25.164-.589.394l2.786,4.971,2.174-1.241,1.587.169c1.149-.031,10.622-5.206,10.469-5.912a4.71,4.71,0,0,0-.174-.59c-.11-.3-.234-.578-.317-.762-.064-.135-.107-.215-.107-.215a7.061,7.061,0,0,0,.034-.865,3.976,3.976,0,0,0-.076-.829.8.8,0,0,0-.328-.578,4.865,4.865,0,0,0-1.717.232c-2.161.49-5.539,1.489-5.459,1.24.115-.345,6.793-4.336,6.793-4.336a1.511,1.511,0,0,0,0-.554,1.569,1.569,0,0,0-.255-.619" transform="translate(-157.166 -128.584)" fill="#b77158"/>
          <path id="Trazado_882494" data-name="Trazado 882494" d="M282.417,219.459c-.186.08-.376.16-.571.234a17.3,17.3,0,0,1-3.008.846c-.741.136-1.227.18-1.284.184.05-.028.481-.257,1.156-.576.723-.343,1.718-.794,2.839-1.224.27-.1.535-.2.792-.293a4.071,4.071,0,0,1,.077.829" transform="translate(-177.831 -140.079)" fill="#8e503d"/>
          <path id="Trazado_882495" data-name="Trazado 882495" d="M285.989,224.707a18.331,18.331,0,0,1-3.464,1.026,18.307,18.307,0,0,1,3.15-1.787c.083.184.206.461.314.762" transform="translate(-181.017 -143.484)" fill="#8e503d"/>
          <path id="Trazado_882496" data-name="Trazado 882496" d="M245.42,213.612c.027-.018.061-.037.087-.055a4.214,4.214,0,0,0,.426-.309,1.393,1.393,0,0,0,.265-.331,1.825,1.825,0,0,0,.1-1.127,10.071,10.071,0,0,1-.11-3.715c.365-1.427,1.473-2.538,2.1-3.875a10.088,10.088,0,0,1,1.407-2.866c.088-.093.187-.181.287-.277-.043-.151-.116-.318-.265-.358a.5.5,0,0,0-.222.015A2.219,2.219,0,0,0,248.156,202a17.079,17.079,0,0,0-.589,1.815,9.5,9.5,0,0,1-1.964,3.042c-1.334,1.581-.267,5.16-.267,5.16s-.265.124-.583.239c-.023.007-.049.018-.075.029l-.235.094Z" transform="translate(-156.617 -128.586)" fill="#b77158"/>
          <path id="Trazado_882497" data-name="Trazado 882497" d="M255.843,228.568l.2-.1a2.951,2.951,0,0,0,.508-.349,3.618,3.618,0,0,0,1.159-3.746,2.992,2.992,0,0,0-.223-.575l-.107-.2s-.005.082-.013.223-.022.343-.049.583a10.688,10.688,0,0,1-1.071,3.463c-.113.214-.212.391-.289.509l-.115.191" transform="translate(-163.921 -143.262)" fill="#b77158"/>
          <path id="Trazado_882498" data-name="Trazado 882498" d="M103.7,127.607a7.219,7.219,0,0,1-3.082,4.982,11.237,11.237,0,0,1-5.374,1.256c-10.736.625-21.619-.184-32.336-1A13.454,13.454,0,0,1,53,111.583c1.2-1.679,2.874-3.272,2.947-5.338a12.636,12.636,0,0,0-.907-3.762,5.538,5.538,0,0,1-.251-1.612c.049-3.358,4.038-5.19,5.466-8.236,1.575-3.377-.294-7.249-.925-10.92A16.187,16.187,0,0,1,71.206,63.3c4.014-1.042,8.646.221,12.01,2.635A18.017,18.017,0,0,1,90.067,76c1.385,5.509.08,11.41,1.36,16.937a36.836,36.836,0,0,0,2.464,6.63q3.07,6.885,6.14,13.763a55.608,55.608,0,0,1,3.18,8.3,14.224,14.224,0,0,1,.49,5.975" transform="translate(-32.369 -40.319)" fill="#1d1e1e"/>
          <path id="Trazado_882499" data-name="Trazado 882499" d="M95.382,341.362h16.254c2.141,12.494,7.97,48.016,5.518,50.715-2.979,3.279-32.4,33.451-32.4,33.451l-6.681-5.412,23.708-30.8Z" transform="translate(-50.021 -218.714)" fill="#935441"/>
          <path id="Trazado_882500" data-name="Trazado 882500" d="M107.249,426.621l-5.679.427-2.094.109L92.7,376.12s-9.76-25.841-12.031-33.462c.206-2.758.7-6.127,1.259-9.376l5.384.658,17.66,2.157c1.51,11.951,4.434,34.531,4.754,36.31.956,5.509-2.473,54.213-2.473,54.213" transform="translate(-51.684 -213.537)" fill="#b77158"/>
          <path id="Trazado_882501" data-name="Trazado 882501" d="M84.58,345.458s20.774,3.595,38.479-.8l-5.721-32.169H85.846Z" transform="translate(-54.191 -200.216)" fill="#c86b2a"/>
          <path id="Trazado_882502" data-name="Trazado 882502" d="M101.57,427.048l-2.094.109L92.7,376.12s-9.76-25.841-12.031-33.461c.206-2.758.7-6.127,1.259-9.377l5.383.658c-.086,4.125-.212,11.968.154,13.278.5,1.779,9.663,29.411,9.663,29.411Z" transform="translate(-51.684 -213.537)" fill="#cc836d"/>
          <path id="Trazado_882503" data-name="Trazado 882503" d="M89.231,159.661s-9.886,2.282-10.285,2.73,0,38.989,0,38.989l-5.292,21.768s22.638,3.594,27.695,3.794,10.786-3.994,10.786-3.994L106.6,197.084s3.2-14.476,3.2-19.269-6.9-17.351-6.9-17.351l-5.5-.847Z" transform="translate(-47.191 -102.268)" fill="#48311f"/>
          <path id="Trazado_882504" data-name="Trazado 882504" d="M113.683,146.481l9.753-.28c-.263-.226-1.951-.991-2.02-1.81a35.231,35.231,0,0,1,.052-4.6l-6.617-1.021s.064,1.828.045,3.78a6.854,6.854,0,0,1-1.213,3.931" transform="translate(-72.838 -88.911)" fill="#b77158"/>
          <path id="Trazado_882505" data-name="Trazado 882505" d="M116.983,142.549a32.521,32.521,0,0,0,5.049,2.213,2.057,2.057,0,0,0,1.467-.369,35.49,35.49,0,0,1,.056-4.6l-6.617-1.021s.061,1.831.044,3.776" transform="translate(-74.924 -88.913)" fill="#8e503d"/>
          <path id="Trazado_882506" data-name="Trazado 882506" d="M95.619,81.948A11.133,11.133,0,0,1,108.812,77a5.587,5.587,0,0,1,2.6,1.618c2.025,2.717,6.125,13.319,4.8,19.01s-5.038,5.614-6.381,5.473-7.793-1.56-9.532-3.266S93.763,88.569,93.95,85.818a10.83,10.83,0,0,1,1.668-3.87" transform="translate(-60.192 -48.937)" fill="#b77158"/>
          <path id="Trazado_882507" data-name="Trazado 882507" d="M94.083,79.95A11.132,11.132,0,0,1,107.276,75a5.582,5.582,0,0,1,2.6,1.618c2.025,2.717,6.125,13.319,4.8,19.009s-5.038,5.614-6.381,5.473-7.793-1.559-9.532-3.265S92.227,86.57,92.414,83.82a10.83,10.83,0,0,1,1.668-3.87" transform="translate(-59.208 -47.656)" fill="#b77158"/>
          <path id="Trazado_882508" data-name="Trazado 882508" d="M100.419,124.957c-.348-.094-2.349-1.912-3.244-.417s-.807,3.676.481,4.67c1.176.908,2.751,1.831,4.331,1.1Z" transform="translate(-61.881 -79.418)" fill="#b77158"/>
          <path id="Trazado_882509" data-name="Trazado 882509" d="M99.162,128.723a1.639,1.639,0,0,0,.229.844A6.961,6.961,0,0,0,102.51,132a3.192,3.192,0,0,1-.735-1.784c-.02-.224-.018-.452-.059-.673-.165-.891-2.477-2.57-2.555-.821" transform="translate(-63.533 -81.985)" fill="#cc836d"/>
          <path id="Trazado_882510" data-name="Trazado 882510" d="M103.476,132.154l-.068-.025c-.043-.017-.112-.038-.193-.075a2.517,2.517,0,0,1-.624-.4,2.387,2.387,0,0,1-.615-.857,2.118,2.118,0,0,1-.108-1.271,1.15,1.15,0,0,1,.047-.171l.014-.042c0-.011,0,0,0-.005h0l0-.006-.024-.031-.049-.061c-.033-.04-.066-.079-.1-.117a5.38,5.38,0,0,0-.416-.426c-.141-.13-.284-.247-.424-.352a3.186,3.186,0,0,0-.4-.268.74.74,0,0,0-.376-.095.526.526,0,0,0-.283.109.292.292,0,0,0-.106.151.142.142,0,0,0-.005.063.137.137,0,0,1-.011-.064.287.287,0,0,1,.079-.183.586.586,0,0,1,.314-.178.914.914,0,0,1,.484.05,3.034,3.034,0,0,1,.476.235,4.729,4.729,0,0,1,.489.329,4.348,4.348,0,0,1,.476.426c.038.04.075.08.113.122l.055.063.074.09.051.063c-.005.025-.015.051-.023.077l-.035.111a.974.974,0,0,0-.04.148,2.237,2.237,0,0,0,.042,1.135,2.5,2.5,0,0,0,.457.844,2.631,2.631,0,0,0,.508.468c.069.05.129.081.166.106l.059.037" transform="translate(-63.899 -81.905)" fill="#8e503d"/>
          <path id="Trazado_882511" data-name="Trazado 882511" d="M134.484,121.025a1.9,1.9,0,0,0-.834.1,2.707,2.707,0,0,0,1.887.789.4.4,0,0,0,.159-.023.406.406,0,0,0,.146-.13,3.188,3.188,0,0,0,.567-1.109.614.614,0,0,0,.031-.25c-.039-.278-.192-.154-.32-.036a2.528,2.528,0,0,1-1.636.662" transform="translate(-85.631 -77.033)" fill="#b77158"/>
          <path id="Trazado_882512" data-name="Trazado 882512" d="M136.722,113.415c.1-.2.23-.384.336-.581a4.269,4.269,0,0,0,.325-.76c-1.048-.249-1.375-1.114-1.715-2.108a3.051,3.051,0,0,1,.055-2.121,3.022,3.022,0,0,1,.162-.343,1.1,1.1,0,0,1,.224-.27c-.028.078-.037.159-.059.237a5.851,5.851,0,0,0-.166.607,3.781,3.781,0,0,0,.144,1.888,3.076,3.076,0,0,0,.631,1.073,2.423,2.423,0,0,0,1.242.745s-.309.877-.343.952a3.156,3.156,0,0,1-.325.552,1.107,1.107,0,0,1-.471.437.351.351,0,0,1-.2.017.671.671,0,0,0,.066-.116l.023-.054c.022-.053.046-.1.071-.156" transform="translate(-86.819 -68.705)" fill="#8e503d"/>
          <path id="Trazado_882513" data-name="Trazado 882513" d="M129.571,134.238c1.494-1.544,3.557-1.608,5.5-1.149a3.889,3.889,0,0,0-3.119-.543,3.469,3.469,0,0,0-2.377,1.692" transform="translate(-83.018 -84.838)" fill="#8e503d"/>
          <path id="Trazado_882514" data-name="Trazado 882514" d="M140.758,97.028s-1.433-1.436-2.441-1.471-1.426.839-1.058,1.072a21.725,21.725,0,0,0,3.5.4" transform="translate(-87.859 -61.224)" fill="#444"/>
          <path id="Trazado_882515" data-name="Trazado 882515" d="M109.256,103.319s1.787-2.512,3.235-3.157,2.225.107,1.739.6a48.943,48.943,0,0,1-4.974,2.561" transform="translate(-70.002 -64.014)" fill="#444"/>
          <path id="Trazado_882516" data-name="Trazado 882516" d="M116.468,124.77c.024.481-.986.922-2.257.986s-2.32-.275-2.344-.756.986-.922,2.257-.986,2.32.275,2.344.756" transform="translate(-71.674 -79.452)" fill="#cc836d"/>
          <path id="Trazado_882517" data-name="Trazado 882517" d="M151.238,113.049c.213.3-.339,1.056-1.232,1.7s-1.79.919-2,.622.34-1.056,1.233-1.7,1.79-.919,2-.623" transform="translate(-94.798 -72.356)" fill="#cc836d"/>
          <path id="Trazado_882518" data-name="Trazado 882518" d="M116.884,110.6a2.134,2.134,0,0,0,1.307.471.9.9,0,0,1,.505-.562c.6-.226,1.376.369,1.74,1.329s.172,1.921-.425,2.147-1.376-.369-1.739-1.329a2.8,2.8,0,0,1-.182-.87,3.423,3.423,0,0,1-1.2-1.186" transform="translate(-74.889 -70.771)" fill="#1d1e1e"/>
          <path id="Trazado_882519" data-name="Trazado 882519" d="M119.636,114.994a1.785,1.785,0,0,1-2.345-.019,1.786,1.786,0,0,1,2.345.019" transform="translate(-75.15 -73.391)" fill="#fff"/>
          <path id="Trazado_882520" data-name="Trazado 882520" d="M147.1,103.746a1.726,1.726,0,0,1-.642.922.729.729,0,0,0-.6-.134c-.5.13-.736.887-.526,1.691s.785,1.349,1.285,1.218.736-.887.526-1.691a2.264,2.264,0,0,0-.287-.66,2.767,2.767,0,0,0,.24-1.347" transform="translate(-93.069 -66.471)" fill="#1d1e1e"/>
          <path id="Trazado_882521" data-name="Trazado 882521" d="M148.123,108.276a1.444,1.444,0,0,0,1.539-1.11,1.444,1.444,0,0,0-1.539,1.11" transform="translate(-94.904 -68.661)" fill="#fff"/>
          <path id="Trazado_882522" data-name="Trazado 882522" d="M110.524,77.223a13.565,13.565,0,0,1-10.7-.577,7.752,7.752,0,0,0,3.03,2.456,11.3,11.3,0,0,1-7.886-.2,8.8,8.8,0,0,1-1.345,6.473c.215,1.592.626,3.206.841,4.8a4.049,4.049,0,0,0-3.164-.336,11.807,11.807,0,0,1,15.547-17.687,11.122,11.122,0,0,1,3.676,5.071" transform="translate(-56.317 -44.72)" fill="#1d1e1e"/>
          <path id="Trazado_882523" data-name="Trazado 882523" d="M87.679,70.468q-3.906-.551-7.813-1.109c.012.889.018,1.777.024,2.666l-5.068-1.14c.876,1.955.208,4.246-.778,6.146s-2.286,3.683-2.77,5.767c-.987,4.289,1.7,9.105-.282,13.04-1.164,2.3-3.616,3.6-5.84,4.914a18.221,18.221,0,0,0-2.5,1.734,5.538,5.538,0,0,1-.251-1.612c.037-2.353,2.01-3.958,3.677-5.76a10.064,10.064,0,0,0,1.79-2.476c1.574-3.376-.294-7.249-.926-10.92A16.188,16.188,0,0,1,78.818,63.3a14.916,14.916,0,0,1,11.618,2.366c.135.086.263.178.392.269a17.758,17.758,0,0,1,3.842,3.793l-7.819-1.36c.276.7.552,1.4.827,2.1" transform="translate(-39.981 -40.321)" fill="#444"/>
          <path id="Trazado_882524" data-name="Trazado 882524" d="M90.474,67.27q-3.585-.313-7.164-.637c.123.729.252,1.452.374,2.182-1.281-.245-2.555-.484-3.836-.729.539,1.912-.263,3.946-1.293,5.644s-2.316,3.291-2.887,5.19a15.9,15.9,0,0,0-.037,6.587,13.63,13.63,0,0,1-.258,6.563,5.64,5.64,0,0,1-2.739,3.045,10.054,10.054,0,0,0,1.789-2.475c1.575-3.377-.294-7.249-.925-10.92A16.187,16.187,0,0,1,85.376,63.3a14.913,14.913,0,0,1,11.618,2.365l-7.261-.753c.251.784.5,1.575.742,2.359" transform="translate(-46.539 -40.321)" fill="#595959"/>
          <path id="Trazado_882525" data-name="Trazado 882525" d="M123.148,117.028s.1.421.234,1.069a1.486,1.486,0,0,1,.042.168c.117.55.257,1.241.381,1.955.015.085.028.165.042.25.111.635.207,1.286.264,1.87.016.117.024.23.031.342a6.978,6.978,0,0,1,.027,1.012c-.107,1.957-3.738,5.716-4.612,5.993s-10.848-1.582-11.674-2.458-2.96-6.485-2.96-6.485,11.6-4.695,18.224-3.717" transform="translate(-67.226 -74.895)" fill="#fff"/>
          <path id="Trazado_882526" data-name="Trazado 882526" d="M95.948,123.821a5.212,5.212,0,0,1,1.268-.435c.352,0,3.419.98,3.419.98l-.985,1.178s-2.294-1.635-3.7-1.723" transform="translate(-61.475 -79.055)" fill="#fff"/>
          <path id="Trazado_882527" data-name="Trazado 882527" d="M101.929,140.817a5.707,5.707,0,0,0,1.2,1.157,22.523,22.523,0,0,0,3.056.272l-.453-1.058-.67-.1a4.193,4.193,0,0,1-3.137-.267" transform="translate(-65.307 -90.223)" fill="#fff"/>
          <path id="Trazado_882528" data-name="Trazado 882528" d="M126.733,120.241a1.568,1.568,0,0,1,.042.168c-1.487.138-3.411.323-4.106.434-1.2.181-12.516,2.919-12.516,2.919s10.668-3.5,12.856-3.513c1.109,0,2.56-.007,3.724-.007" transform="translate(-70.576 -77.04)" fill="#f4e8d9"/>
          <path id="Trazado_882529" data-name="Trazado 882529" d="M129.421,126.149c.015.086.028.165.042.25-1.3.117-2.7.264-3.259.349-1.2.181-12.516,2.919-12.516,2.919s10.668-3.5,12.857-3.507c.854,0,1.906-.008,2.876-.01" transform="translate(-72.841 -80.825)" fill="#f4e8d9"/>
          <path id="Trazado_882530" data-name="Trazado 882530" d="M131.992,132.051c.015.117.023.23.031.342-.968.1-1.854.186-2.284.256-1.2.181-12.516,2.919-12.516,2.919s10.663-3.5,12.857-3.508c.577-.005,1.238-.005,1.912-.009" transform="translate(-75.106 -84.607)" fill="#f4e8d9"/>
          <path id="Trazado_882531" data-name="Trazado 882531" d="M88.91,242.035l-5.939,27.38H54.762s-.14-39.012,10.712-66.37l-2.336-40.2s3.888-.986,7.917-1.737c1.8-.342,3.625-.627,5.144-.762l.067.23,6.628,23.4c.622,3.193,6.017,58.061,6.017,58.061" transform="translate(-35.086 -102.736)" fill="#fff"/>
          <path id="Trazado_882532" data-name="Trazado 882532" d="M192.394,194.329s-20.03,10.634-21.626,10.342A10.639,10.639,0,0,1,167.4,203c-1.916-1.26-4.14-4.2-5.748-6.583-1.311-1.933-2.219-3.5-2.219-3.5l-4.185-20.164,2.269-10.292a9.933,9.933,0,0,1,5.1,2.292c3.233,3.132,10.813,26.45,10.813,26.45l11.239-5.165,2.23-1.025Z" transform="translate(-99.469 -104.091)" fill="#fff"/>
          <path id="Trazado_882533" data-name="Trazado 882533" d="M160.18,269.875H147.933l-8.718-27.38-5.939-57.546,5.7-23.884,4.583.554s6.242,14.427,6.779,16.926-3.608,23.565-3.608,23.565,5.665,13.379,6.387,18.971c.241,1.843,1.093,7.782,2.123,14.914.695,4.8,1.468,10.135,2.2,15.133,1.473,10.074,2.745,18.747,2.745,18.747" transform="translate(-85.391 -103.196)" fill="#fff"/>
          <path id="Trazado_882534" data-name="Trazado 882534" d="M170.137,183.443s3.269,9.065,3.269,10.017-3.594,13.866-3.594,13.866,5.392-11.383,5.126-13.513-4.8-10.37-4.8-10.37" transform="translate(-108.8 -117.534)" fill="#efdac5"/>
          <path id="Trazado_882535" data-name="Trazado 882535" d="M108.678,190.124s-8.628-7.524-9.962-9.984-.28-6.723-.28-6.723-3.642-3.2-3.922-3.927,1.921-8.281,1.994-8.522v-.006a9.471,9.471,0,0,1,5.143-.756l.067.23,6.628,23.4Z" transform="translate(-60.541 -102.594)" fill="#efdac5"/>
          <path id="Trazado_882536" data-name="Trazado 882536" d="M138.834,160.841a7.857,7.857,0,0,1,4.582.554s.749,9.636.649,10.285-3.813,2.147-3.813,2.147.462,5.093.515,6.99-7.382,9.685-7.382,9.685l-.328-6.29Z" transform="translate(-85.251 -102.973)" fill="#efdac5"/>
          <path id="Trazado_882537" data-name="Trazado 882537" d="M133.971,239.785s3.961,29.4,4.556,32.216,1.132,19.556,1.132,19.556.735-15.831,0-19.556-4.994-34.364-4.994-34.364Z" transform="translate(-85.837 -152.257)" fill="#efdac5"/>
          <path id="Trazado_882538" data-name="Trazado 882538" d="M72.23,369.232l16.375,1.2s-1.464,13.446-2.529,14.512-7.855,3.728-8.521,3.728-6.124-5.472-6.124-5.472Z" transform="translate(-45.767 -236.571)" fill="#efdac5"/>
          <path id="Trazado_882539" data-name="Trazado 882539" d="M186.779,384.75c-1.787-.56-5.362-1.8-5.905-2.891-.734-1.462-1.8-11.581-1.8-11.581l5.508-.661c.695,4.8,1.468,10.135,2.2,15.133" transform="translate(-114.735 -236.818)" fill="#efdac5"/>
          <path id="Trazado_882540" data-name="Trazado 882540" d="M97.033,218.61l.473,3.115,2.026,13.41.193,1.3.192,1.241.193,1.3.185,1.241.2,1.3.246,1.635,1.284,8.588,21.386-3.229,5.635-.851-5-33.132-1.732.263-.119.018-1.42.211-2.364.359-.446.07-1.42.211-.045.009-1.427.211v.008l-2.81.421-1.42.211-3.613.544v.008l-7.538,1.132-.855.131Z" transform="translate(-62.17 -137.452)" fill="#415f4b"/>
          <rect id="Rectángulo_402137" data-name="Rectángulo 402137" width="5.699" height="33.507" transform="translate(56.24 77.928) rotate(-8.586)" fill="#2d4935"/>
          <rect id="Rectángulo_402138" data-name="Rectángulo 402138" width="14.232" height="4.384" transform="translate(39.28 85.32) rotate(-8.585)" fill="#fef1e8"/>
          <rect id="Rectángulo_402139" data-name="Rectángulo 402139" width="10.455" height="1.315" transform="matrix(0.989, -0.149, 0.149, 0.989, 43.821, 102.746)" fill="#fef1e8"/>
          <rect id="Rectángulo_402140" data-name="Rectángulo 402140" width="10.455" height="1.315" transform="matrix(0.989, -0.149, 0.149, 0.989, 44.203, 105.28)" fill="#fef1e8"/>
          <rect id="Rectángulo_402141" data-name="Rectángulo 402141" width="10.455" height="1.315" transform="matrix(0.989, -0.149, 0.149, 0.989, 44.586, 107.814)" fill="#fef1e8"/>
          <path id="Trazado_882541" data-name="Trazado 882541" d="M118.861,212.478l-1.732.263-.119.017-1.42.211-2.364.359-.446.07-1.42.211-.045.008-1.427.211v.008l-2.81.421-1.42.211-3.613.544v.007l-7.538,1.132-.855.131-1.807.272.473,3.114,2.026,13.41.194,1.3.192,1.242.194,1.3.185,1.241.2,1.3.246,1.635h-.008l1.291,8.586-1.695.269-.624.1-3.586-22.4v-.007l-1.189-7.4-.695-4.333-.114-.721.855-.116,7.837-1.1,4.052-.569,3.621-.514,1.428-.2,2.81-.4,1.428-.2.253-.036,1.42-.2,2.811-.392,1.071-.151.377.185Z" transform="translate(-56.983 -135.397)" fill="#2d4935"/>
          <path id="Trazado_882542" data-name="Trazado 882542" d="M119.586,214.071l-.119.018-1.42.211-2.364.359-.446.07-1.42.211-.045.008-1.427.219-2.81.421-1.42.211-3.613.544v.008l-7.538,1.132-.855.131-1.807.272L94.777,221l2.018,13.41H96.8l.193,1.3.185,1.241.2,1.3.185,1.241.194,1.3.246,1.635,1.29,8.586-1.694.27-4.25-29.964-.581-4.231,11.525-1.648,3.628-.514,1.42-.2,2.811-.4,1.427-.2.163-.026,1.42-.2,2.8-.4.669-.1.818.578Z" transform="translate(-59.44 -136.727)" fill="#fef1e8"/>
          <path id="Trazado_882543" data-name="Trazado 882543" d="M140.953,243.654c-.221-.749-12.736.286-12.736.286a8.891,8.891,0,0,0,2.473-5.328c0-.018,0-.037,0-.055a.513.513,0,0,0-.157-.474.478.478,0,0,0-.239-.063,2.493,2.493,0,0,0-1.865.893,19.135,19.135,0,0,0-1.257,1.718,10.555,10.555,0,0,1-3.143,2.533c-1.96,1.208-2.075,5.37-2.075,5.37s-.322.086-.761.211l1.213,6.233,2.734-.555,1.62.732c1.227.368,13.058-1.8,13.142-2.6a5.177,5.177,0,0,0,.022-.685c-.011-.358-.045-.693-.069-.917-.02-.165-.038-.266-.038-.266a7.9,7.9,0,0,0,.338-.9,4.433,4.433,0,0,0,.209-.9.893.893,0,0,0-.146-.727,5.418,5.418,0,0,0-1.9-.354c-2.458-.235-6.382-.357-6.21-.593.243-.325,8.7-2.218,8.7-2.218a1.693,1.693,0,0,0,.19-.588,1.755,1.755,0,0,0-.054-.744" transform="translate(-77.652 -152.5)" fill="#b77158"/>
          <path id="Trazado_882544" data-name="Trazado 882544" d="M141.615,265.588a5.426,5.426,0,0,0-1.9-.354c-.4.6-.661,1.387-1.069,1.919a6.862,6.862,0,0,1-2.4,1.972,10.831,10.831,0,0,1-5.015.854c-1.71-.04-3.422-.249-5.129-.158a17.746,17.746,0,0,0-2.73.378l.458,2.506,2.707-.844,1.62.732c1.227.368,13.058-1.8,13.142-2.6a5.182,5.182,0,0,0,.022-.685c-.011-.358-.045-.694-.069-.917-.02-.165-.038-.266-.038-.266a7.817,7.817,0,0,0,.338-.9,4.429,4.429,0,0,0,.209-.9.893.893,0,0,0-.146-.727" transform="translate(-79.045 -169.938)" fill="#b77158"/>
          <path id="Trazado_882545" data-name="Trazado 882545" d="M164.011,269.146c-.225.02-.454.038-.686.048a19.3,19.3,0,0,1-3.479-.154c-.831-.114-1.361-.238-1.423-.254.063-.011.6-.1,1.425-.206.884-.111,2.1-.24,3.432-.3.323-.015.636-.025.94-.034a4.512,4.512,0,0,1-.208.9" transform="translate(-101.503 -171.866)" fill="#8e503d"/>
          <path id="Trazado_882546" data-name="Trazado 882546" d="M166.15,274.927a20.376,20.376,0,0,1-4.024-.124,20.449,20.449,0,0,1,3.958-.792c.024.223.057.559.066.915" transform="translate(-103.876 -175.562)" fill="#8e503d"/>
          <path id="Trazado_882547" data-name="Trazado 882547" d="M54.053,167.3s-6.365,2.1-7.7,4.009S37.772,206.6,41.777,212.6s30.033-.535,30.033-.535l-1.575-12.292L56.391,200.94Z" transform="translate(-26.002 -107.192)" fill="#fff"/>
          <path id="Trazado_882548" data-name="Trazado 882548" d="M72.1,175.947c-.156-.155-.457.056-.316.244a10.744,10.744,0,0,1,2.041,6.2.4.4,0,0,0,.8,0,8.105,8.105,0,0,0-2.53-6.446" transform="translate(-45.969 -112.697)" fill="#efdac5"/>
          <path id="Trazado_882549" data-name="Trazado 882549" d="M75.241,209.155s-.888,17.432-1.587,18.6l16.375-.373.706,11.028-14.847,3.363L93,239.41l-1.482-13.945H75.888Z" transform="translate(-47.191 -134.008)" fill="#efdac5"/>
          <path id="Trazado_882550" data-name="Trazado 882550" d="M274.462,358.93c-.453,1.458-2.955,2.19-2.955,2.19s-2.287-4.148-3.608-6.447c-.351-.608-.633-1.085-.786-1.325-.737-1.139-1.467-8.771-1.467-8.771l6.738.257c.9,1.415-.032,5.809-.032,5.809a18.918,18.918,0,0,1,.487,3.534l.023.357a.751.751,0,0,1,.062-.108.868.868,0,0,1,1.044-.313Z" transform="translate(-170.202 -220.774)" fill="#ea7c6f"/>
          <path id="Trazado_882551" data-name="Trazado 882551" d="M277.7,231.733h-9.084l0,.237-.167,2.09s-2.169,7.1-2.22,9.5l-.545,27.114-.031,1.6a72.045,72.045,0,0,0,1.171,8,3.07,3.07,0,0,0,.293.764c.153.236.433.718.784,1.323.647,1.138,1.538,2.716,2.266,4.028.342.6.638,1.148.872,1.568.3.533.476.85.476.85a.186.186,0,0,0,.065-.018c.407-.128,2.48-.852,2.885-2.169l-.487-4.81a.869.869,0,0,0-1.045.311.573.573,0,0,0-.066.1.5.5,0,0,0-.008-.081c0-.061-.007-.152-.014-.272s-.024-.273-.031-.444l-.056-.606a11.865,11.865,0,0,0-.4-2.481s.935-4.394.034-5.812l-.724-1.624c.8-4.126,2.595-13.331,3.952-20.986,1.048-5.963,1.835-10.986,1.692-11.948a43.218,43.218,0,0,1,.393-6.242m-5.831,51.785a1.225,1.225,0,0,0,.782.034,6.745,6.745,0,0,0,.338,2.237c-.278.122-.536.1-.814.227-.107-.285-.231-.581-.357-.867-.152-.347-.322-.695-.5-1.033a10.534,10.534,0,0,0-1.69-2.368,25.23,25.23,0,0,0-.84-4.609,8.027,8.027,0,0,0,1.374,1.936c.481.5.174,1.436.3,2.155a3.647,3.647,0,0,0,.83,1.929,1.3,1.3,0,0,0,.173.146,1.218,1.218,0,0,0,.4.213" transform="translate(-170.204 -148.474)" fill="#f3a080"/>
          <path id="Trazado_882552" data-name="Trazado 882552" d="M268.615,231.733l0,.237-.167,2.09s-2.169,7.1-2.22,9.5l-.545,27.114-.031,1.6a72.136,72.136,0,0,0,1.171,8c.851-4.982.067-10.979.107-15.965q.08-8.928.216-17.846a22.9,22.9,0,0,1,.344-4.281c.295-1.351.837-2.624,1.26-3.941a28.068,28.068,0,0,0,.948-6.517Z" transform="translate(-170.204 -148.474)" fill="#f8bf92"/>
          <path id="Trazado_882553" data-name="Trazado 882553" d="M278.38,241.452s.034.088.1.248a1.887,1.887,0,0,0,.146.282,2.719,2.719,0,0,0,.233.351,2.958,2.958,0,0,0,.335.384,3.68,3.68,0,0,0,.442.378,3.744,3.744,0,0,0,1.181.557,3.545,3.545,0,0,0,1.28.074,3.217,3.217,0,0,0,.544-.125,2.561,2.561,0,0,0,.45-.183,2.4,2.4,0,0,0,.345-.2,1.6,1.6,0,0,0,.24-.184c.125-.11.19-.172.19-.172l-.24.057a1.934,1.934,0,0,1-.276.057,3.217,3.217,0,0,1-.362.051,3.589,3.589,0,0,1-.433.025c-.153.01-.318-.007-.488-.012a7.2,7.2,0,0,1-1.089-.18,7.521,7.521,0,0,1-1.051-.368c-.155-.078-.31-.144-.444-.227a3.885,3.885,0,0,1-.38-.233,3.693,3.693,0,0,1-.306-.222,2.166,2.166,0,0,1-.226-.186l-.195-.169" transform="translate(-178.361 -154.701)" fill="#d97b71"/>
          <path id="Trazado_882554" data-name="Trazado 882554" d="M277.915,170.755s-5.611,1.537-6.7,3.718-4.8,21.8-4.8,21.8l9.113,3.175Z" transform="translate(-170.696 -109.405)" fill="#415f4b"/>
          <path id="Trazado_882555" data-name="Trazado 882555" d="M366.916,427.247s6.756,13.011,7.152,18.258c.207,2.731,1.852,33.412,1.852,33.412h-8.454s-8.189-38.889-10.3-43.453c-.952-2.057-2.927-11.157-4.811-20.535,4.943-.492,9.85-1.228,14.664-2.125-.041,7.871-.1,14.443-.1,14.443" transform="translate(-225.756 -264.488)" fill="#f3a080"/>
          <path id="Trazado_882556" data-name="Trazado 882556" d="M386.7,427.247s6.756,13.011,7.152,18.258c.207,2.731,1.852,33.412,1.852,33.412h-1.38c-.529-9.153-2.21-33.419-2.818-34.026-.732-.732-8.275-19.019-8.275-19.019s.263-5.446.5-12.521q1.541-.262,3.07-.547c-.041,7.871-.1,14.443-.1,14.443" transform="translate(-245.54 -264.488)" fill="#ea7c6f"/>
          <path id="Trazado_882557" data-name="Trazado 882557" d="M285.976,359.791c3.273.508,18.315.361,18.315.361l.985-21.79,2.4,20.885c2.153.477,12.07-.447,17.239-.973,1.89-.2,3.145-.337,3.145-.337l-1.6-19.949s.312-8.8.312-12.106c-1.077-3.157-4.38-10.865-4.38-10.865l-6.527,1.291-29.449,5.83s-.875,5.744-1.021,7.781.581,29.871.581,29.871" transform="translate(-182.843 -201.835)" fill="#48311f"/>
          <path id="Trazado_882558" data-name="Trazado 882558" d="M319.226,359.219l5.09,3.732,1.664,25.521.985-21.79-.544-6.375Z" transform="translate(-204.532 -230.155)" fill="#352012"/>
          <path id="Trazado_882559" data-name="Trazado 882559" d="M377.345,328.391c.728,3.346,0,12.21,0,12.21l1.939,17.673c1.89-.2,3.145-.336,3.145-.336l-1.6-19.949s.312-8.8.312-12.106c-1.076-3.156-4.38-10.864-4.38-10.864l-6.527,1.291c2.7,3.921,6.637,9.91,7.108,12.082" transform="translate(-237.215 -201.836)" fill="#352012"/>
          <path id="Trazado_882560" data-name="Trazado 882560" d="M288.6,95.2c.208.061.41.128.618.184a55.814,55.814,0,0,0,28.421.728,53.664,53.664,0,0,0,6.747-2.062c-.006-6.117-.63-12.351-3.224-17.961C318.346,70,312.522,64.3,305.206,63.942c-4.184-.208-9.421,1.376-11.494,5.09-2.227,3.995-2.686,8.54-2.943,12.975-.263,4.466-.41,9.041-2.172,13.189" transform="translate(-184.907 -40.957)" fill="#5b322f"/>
          <path id="Trazado_882561" data-name="Trazado 882561" d="M328.779,165.287l-4.542-2.761-10.138-.2-4.611,2.489s2.128,6.11,4.611,6.655a54.771,54.771,0,0,0,7.56.654s5.846-.927,7.12-6.84" transform="translate(-198.292 -104.006)" fill="#f3a080"/>
          <path id="Trazado_882562" data-name="Trazado 882562" d="M332.458,145.278s-6.749,1.365-7.754.933-2.384-1.13-2.384-1.13c.226-.251,1.786-2.611,1.751-3.413a34.422,34.422,0,0,0-.627-4.444l6.273-1.816s.167,1.777.43,3.663a21.58,21.58,0,0,0,2.311,6.206" transform="translate(-206.514 -86.758)" fill="#f3a080"/>
          <path id="Trazado_882563" data-name="Trazado 882563" d="M332.148,139.071a31.722,31.722,0,0,1-4.608,2.773,2.006,2.006,0,0,1-1.466-.173,34.6,34.6,0,0,0-.63-4.442l6.274-1.816s.17,1.779.43,3.659" transform="translate(-208.516 -86.76)" fill="#ea7c6f"/>
          <path id="Trazado_882564" data-name="Trazado 882564" d="M321.471,80.144a10.859,10.859,0,0,0-13.384-3.137,5.445,5.445,0,0,0-2.31,1.891c-1.618,2.882-4.258,13.652-2.264,18.991s5.577,4.8,6.858,4.5,7.344-2.484,8.813-4.352,4.911-11.715,4.385-14.353a10.575,10.575,0,0,0-2.1-3.535" transform="translate(-194.006 -48.615)" fill="#f8bf92"/>
          <path id="Trazado_882565" data-name="Trazado 882565" d="M322.706,78.018a10.859,10.859,0,0,0-13.384-3.137,5.449,5.449,0,0,0-2.31,1.891c-1.619,2.882-4.258,13.652-2.265,18.991s5.577,4.8,6.859,4.5,7.344-2.484,8.813-4.352S325.33,84.19,324.8,81.553a10.559,10.559,0,0,0-2.1-3.535" transform="translate(-194.797 -47.253)" fill="#f3a080"/>
          <path id="Trazado_882566" data-name="Trazado 882566" d="M318.115,121.923a1.854,1.854,0,0,1,.818-.012,2.641,2.641,0,0,1-1.726,1,.3.3,0,0,1-.315-.11,3.1,3.1,0,0,1-.687-1,.59.59,0,0,1-.061-.238c0-.273.166-.173.305-.075a2.459,2.459,0,0,0,1.666.436" transform="translate(-202.557 -77.773)" fill="#ea7c6f"/>
          <path id="Trazado_882567" data-name="Trazado 882567" d="M316.654,114.379c-.123-.18-.27-.342-.4-.52a4.137,4.137,0,0,1-.41-.695c.982-.371,1.19-1.25,1.4-2.254a2.98,2.98,0,0,0-.319-2.045,2.921,2.921,0,0,0-.2-.312,1.073,1.073,0,0,0-.25-.233c.037.072.055.149.087.221a5.751,5.751,0,0,1,.237.567,3.685,3.685,0,0,1,.137.606,3.624,3.624,0,0,1-.04,1.239,3,3,0,0,1-.476,1.117,2.367,2.367,0,0,1-1.108.877s.409.81.452.878a3.14,3.14,0,0,0,.383.493,1.081,1.081,0,0,0,.511.364.345.345,0,0,0,.2-.009.65.65,0,0,1-.079-.1c-.01-.016-.019-.033-.029-.049-.028-.049-.057-.1-.089-.142" transform="translate(-202.022 -69.402)" fill="#dd5b67"/>
          <path id="Trazado_882568" data-name="Trazado 882568" d="M349.251,120.312c.325-.135,2.033-2.144,3.087-.81s1.241,3.455.119,4.578c-1.024,1.026-2.432,2.117-4.052,1.61Z" transform="translate(-223.227 -76.275)" fill="#f3a080"/>
          <path id="Trazado_882569" data-name="Trazado 882569" d="M353.967,123.589a1.6,1.6,0,0,1-.116.845,6.789,6.789,0,0,1-2.713,2.746,3.114,3.114,0,0,0,.488-1.818c-.009-.22-.039-.439-.027-.659.048-.882,2.075-2.8,2.369-1.114" transform="translate(-224.978 -78.756)" fill="#ea7c6f"/>
          <path id="Trazado_882570" data-name="Trazado 882570" d="M349.6,127.432l.062-.032c.04-.022.1-.051.177-.1a2.451,2.451,0,0,0,.553-.468,2.328,2.328,0,0,0,.488-.906,2.069,2.069,0,0,0-.055-1.243,1.082,1.082,0,0,0-.067-.159l-.019-.039,0-.005h0l0-.006.02-.033.04-.064c.027-.043.054-.085.082-.126a5.268,5.268,0,0,1,.349-.464c.12-.143.244-.274.366-.393a3.146,3.146,0,0,1,.355-.31.725.725,0,0,1,.352-.139.515.515,0,0,1,.288.07.285.285,0,0,1,.121.133.227.227,0,0,1,.015.06.226.226,0,0,0,0-.063.279.279,0,0,0-.1-.167.57.57,0,0,0-.327-.133.894.894,0,0,0-.462.109,2.962,2.962,0,0,0-.432.287,4.622,4.622,0,0,0-.432.38,4.264,4.264,0,0,0-.407.472c-.032.043-.063.087-.093.132l-.045.068-.06.1-.042.068c.008.024.021.048.032.072l.047.1a.984.984,0,0,1,.057.138,2.185,2.185,0,0,1,.1,1.1,2.448,2.448,0,0,1-.336.874,2.581,2.581,0,0,1-.433.517c-.06.056-.114.094-.148.124l-.052.043" transform="translate(-223.994 -78.708)" fill="#b54b57"/>
          <path id="Trazado_882571" data-name="Trazado 882571" d="M308.007,97.53s1.286-1.5,2.264-1.612,1.45.71,1.109.964a21.228,21.228,0,0,1-3.373.649" transform="translate(-197.343 -61.449)" fill="#734641"/>
          <path id="Trazado_882572" data-name="Trazado 882572" d="M333.877,101.284s-2.211-2.038-3.724-2.363-2.1.55-1.539.919a47.715,47.715,0,0,0,5.263,1.444" transform="translate(-210.412 -63.335)" fill="#734641"/>
          <path id="Trazado_882573" data-name="Trazado 882573" d="M333.837,122.291c.037.469,1.07.769,2.307.671s2.21-.557,2.173-1.025-1.07-.769-2.307-.671-2.21.557-2.173,1.025" transform="translate(-213.892 -77.685)" fill="#ea7c6f"/>
          <path id="Trazado_882574" data-name="Trazado 882574" d="M316.824,131.631s1.665-1.281,5.464-.256Z" transform="translate(-202.993 -83.919)" fill="#dd5b67"/>
          <path id="Trazado_882575" data-name="Trazado 882575" d="M300.819,115.473c-.169.313.461.979,1.4,1.487s1.846.665,2.015.351-.461-.979-1.4-1.487-1.846-.665-2.015-.351" transform="translate(-192.721 -73.881)" fill="#ea7c6f"/>
          <path id="Trazado_882576" data-name="Trazado 882576" d="M333.348,108.633a2.076,2.076,0,0,1-1.205.619.876.876,0,0,0-.559-.48c-.607-.144-1.286.529-1.516,1.5s.073,1.881.68,2.024,1.286-.529,1.517-1.5a2.719,2.719,0,0,0,.067-.865,3.336,3.336,0,0,0,1.017-1.3" transform="translate(-211.429 -69.602)" fill="#1d1e1e"/>
          <path id="Trazado_882577" data-name="Trazado 882577" d="M306.927,104.785a1.674,1.674,0,0,0,.672.859.709.709,0,0,1,.571-.162c.492.1.761.82.6,1.61s-.687,1.35-1.18,1.251-.761-.82-.6-1.61a2.184,2.184,0,0,1,.242-.655,2.687,2.687,0,0,1-.306-1.292" transform="translate(-196.652 -67.137)" fill="#1d1e1e"/>
          <path id="Trazado_882578" data-name="Trazado 882578" d="M306.7,109.191a1.4,1.4,0,0,1-1.552-.992,1.4,1.4,0,0,1,1.552.992" transform="translate(-195.514 -69.32)" fill="#fff"/>
          <path id="Trazado_882579" data-name="Trazado 882579" d="M333.248,113.234a1.742,1.742,0,0,0,2.266-.313,1.743,1.743,0,0,0-2.266.313" transform="translate(-213.516 -72.17)" fill="#fff"/>
          <path id="Trazado_882580" data-name="Trazado 882580" d="M304.579,77.494a1.4,1.4,0,0,0,.018.159,6,6,0,0,0,.141.863,5.777,5.777,0,0,0,.171.636,9.309,9.309,0,0,1,4.215-3.291,5.006,5.006,0,0,0,.813,1.994,7.755,7.755,0,0,1,1.7-2.918,4.248,4.248,0,0,0,1.952,2.906,6.669,6.669,0,0,1,1.3-3.175,7.3,7.3,0,0,0,3.432,3.878c0-1.07,0-2.147-.006-3.217a8.32,8.32,0,0,0,4.2,5.757,52.742,52.742,0,0,0-.19,6.447,1.554,1.554,0,0,1,1.817-.024,3.669,3.669,0,0,1,.979,2.306,26.252,26.252,0,0,0,1.756-2.63c.2-.343.4-.7.581-1.052A18.825,18.825,0,0,0,328.767,83a13.642,13.642,0,0,0,.434-1.774c.055-.312.092-.624.122-.942a17.438,17.438,0,0,0-.648-1.652c-.159-.355-.336-.71-.52-1.052a18.676,18.676,0,0,0-3.9-4.924,15.849,15.849,0,0,0-6.827-3.774,11.705,11.705,0,0,0-3.169-.281,17.135,17.135,0,0,0-6.931,1.854,9.617,9.617,0,0,0-2.63,4.979,7.513,7.513,0,0,0-.116,2.062" transform="translate(-195.132 -43.945)" fill="#5b322f"/>
          <path id="Trazado_882581" data-name="Trazado 882581" d="M288.6,95.2c.208.061.41.128.618.184a25.2,25.2,0,0,0,2.465-10.24c.068-2.82-.33-5.714.477-8.411,1.15-3.842,4.49-6.552,7.653-9.017.012,1.138.031,2.276.043,3.414a7.725,7.725,0,0,1,2.667-3.175,6.2,6.2,0,0,0,.465,3.261q1.193-1.789,2.392-3.579a4.905,4.905,0,0,0,1.884,3.334,8.762,8.762,0,0,1,.71-3c3.028,2.943,6.228,5.75,8.742,9.146s4.313,7.506,4.068,11.721a11.562,11.562,0,0,1-3.144,7.273,53.664,53.664,0,0,0,6.747-2.062,63.757,63.757,0,0,0-.349-7,35.042,35.042,0,0,0-2.875-10.962C318.346,70,312.522,64.3,305.206,63.942c-4.184-.208-9.421,1.376-11.494,5.09a17.82,17.82,0,0,0-1.2,2.636,35.672,35.672,0,0,0-1.744,10.339c-.263,4.466-.41,9.041-2.172,13.189" transform="translate(-184.907 -40.957)" fill="#734641"/>
          <path id="Trazado_882582" data-name="Trazado 882582" d="M307.667,65.612c-.018.679-.031,1.358-.049,2.037.918-.655,1.835-1.315,2.759-1.97.116.716.232,1.432.355,2.147a6.178,6.178,0,0,1,1.976-2.117c.33.508.66,1.01.991,1.517l.642-1.285c5.249,2.1,9.408,6.375,12.3,11.232a50.894,50.894,0,0,1,4.374,9.873,35.033,35.033,0,0,0-2.875-10.962C325.328,70,319.5,64.3,312.187,63.942c-4.184-.208-9.421,1.376-11.494,5.09a17.82,17.82,0,0,0-1.2,2.636,19.527,19.527,0,0,1,8.173-6.056" transform="translate(-191.889 -40.957)" fill="#965c51"/>
          <path id="Trazado_882583" data-name="Trazado 882583" d="M277.316,189.907a36.4,36.4,0,0,0,5.077,6.992c-3.033,12.389-6.25,24.927-2.355,31.688,20.554,4.821,39.916-3.9,39.916-3.9l-4.5-10.467s-.361-9.5-.759-19.8c-.043-.985-.079-1.982-.116-2.973-.44-11.189-.9-22.335-.966-22.475a1.385,1.385,0,0,0-.575-.275c-1.107-.379-3.579-.948-5.2-1.3-.905-.2-1.542-.331-1.542-.331s-3.787,7.249-8.7,6.7c-4.8-.532-7.017-6.76-7.194-7l-1.437.367-4.19,1.065s-9.048,18.272-7.463,21.7" transform="translate(-177.56 -106.852)" fill="#415f4b"/>
          <path id="Trazado_882584" data-name="Trazado 882584" d="M282.726,181.623s-6.56,14.05-6.522,16.53,4.461,8.262,4.461,8.262-6.714-5.936-6.205-8.843,8.267-15.948,8.267-15.948" transform="translate(-175.832 -116.368)" fill="#2d4935"/>
          <path id="Trazado_882585" data-name="Trazado 882585" d="M373.489,198.616l2.949-.752,13.6-3.462s-.422-1.2-1.071-3c-1.762-4.888-5.212-14.2-6.484-15.9-1.744-2.331-7.7-3.371-7.7-3.371v.006l-.844,17.306Z" transform="translate(-239.299 -110.288)" fill="#415f4b"/>
          <path id="Trazado_882586" data-name="Trazado 882586" d="M285.225,247.361c20.554,4.821,39.916-3.9,39.916-3.9L320.644,233s-.361-9.5-.758-19.8l13.6-3.462s-.422-1.2-1.07-3l-12.645,3.487-.6.165-1.786-5.61-2.771-8.711,1.156,35.829,2.747,7.653a47.774,47.774,0,0,1-33.291,7.806" transform="translate(-182.747 -125.626)" fill="#2d4935"/>
          <path id="Trazado_882587" data-name="Trazado 882587" d="M334.294,253.531l.318.1.074.031v-.006c2.4.8,25.111,11.311,30.005,4.631,2.508-3.419-.783-17.067-2.214-22.444l-8.393,2.135-2.337.6,3.988,10.993-2.349-.33-16.615-2.325-.288-.037c-.012,0-.031-.006-.049-.006a.119.119,0,0,0-.043-.006c-.245-.024-.465-.061-.6-.079l-.068-.006a.019.019,0,0,1-.012-.006h-.006l-.006-.006a.036.036,0,0,1-.024-.006h-.006l-.2.96-.11.575v.006l-.545,2.667-.116.557-.349,1.731-.049.245v.006Z" transform="translate(-214.186 -151.109)" fill="#f3a080"/>
          <path id="Trazado_882588" data-name="Trazado 882588" d="M337.257,252.109v.006h.012l.612.11.11.018,20.658,3.6-2.667-14.051-2.337.6-.422.1-.4.1,2.465,10.455-16.615-2.325-.287-.037c-.012,0-.031-.006-.049-.006a.122.122,0,0,0-.043-.006c-.245-.024-.465-.061-.6-.08l-.067-.006a.019.019,0,0,1-.012-.006h-.006l-.006-.006a.036.036,0,0,1-.025-.006h-.006Z" transform="translate(-216.084 -154.917)" fill="#f8bf92"/>
          <path id="Trazado_882589" data-name="Trazado 882589" d="M284.478,239.449c.282-.756,13.09,1.221,13.09,1.221a9.178,9.178,0,0,1-2.158-5.665v-.057a.529.529,0,0,1,.2-.476.492.492,0,0,1,.25-.047,2.573,2.573,0,0,1,1.856,1.055,19.693,19.693,0,0,1,1.169,1.86,10.89,10.89,0,0,0,3.052,2.836c1.929,1.385,1.745,5.679,1.745,5.679s.326.112.768.273l-2.14,6.473-2.336-.915-1.721.636c-1.29.29-13.312-2.806-13.34-3.637a5.361,5.361,0,0,1,.028-.707c.037-.368.1-.711.138-.939.033-.168.059-.271.059-.271a8.139,8.139,0,0,1-.282-.955,4.61,4.61,0,0,1-.149-.945.92.92,0,0,1,.2-.738,5.58,5.58,0,0,1,1.979-.226c2.548-.063,6.6.1,6.436-.158-.226-.352-8.8-2.916-8.8-2.916a1.747,1.747,0,0,1-.153-.619,1.81,1.81,0,0,1,.11-.762" transform="translate(-182.195 -150.198)" fill="#f3a080"/>
          <path id="Trazado_882590" data-name="Trazado 882590" d="M285.449,264.44c.23.037.465.072.7.1a19.92,19.92,0,0,0,3.593.095c.864-.057,1.418-.146,1.483-.158-.064-.016-.609-.149-1.452-.316-.9-.178-2.14-.4-3.511-.563-.331-.039-.653-.072-.965-.1a4.659,4.659,0,0,0,.148.946" transform="translate(-182.795 -168.823)" fill="#b54b57"/>
          <path id="Trazado_882591" data-name="Trazado 882591" d="M285.961,270.475a21.047,21.047,0,0,0,4.152.166,21.079,21.079,0,0,0-4.017-1.1c-.041.228-.1.572-.135.938" transform="translate(-183.218 -172.695)" fill="#b54b57"/>
          <path id="Trazado_882592" data-name="Trazado 882592" d="M323.736,247.653c-.035-.013-.078-.024-.113-.037a4.853,4.853,0,0,1-.563-.225,1.608,1.608,0,0,1-.388-.294,2.1,2.1,0,0,1-.43-1.228,11.575,11.575,0,0,0-.927-4.172c-.81-1.489-2.359-2.414-3.432-3.728-.778-.955-1.34-2.138-2.378-2.8-.124-.078-.26-.149-.4-.229a.534.534,0,0,1,.195-.474.564.564,0,0,1,.252-.046,2.553,2.553,0,0,1,1.855,1.058,19.621,19.621,0,0,1,1.169,1.857,10.922,10.922,0,0,0,3.047,2.837c1.934,1.386,1.755,5.678,1.755,5.678s.33.063.717.1c.027,0,.06.006.093.011l.288.039Z" transform="translate(-201.893 -150.198)" fill="#f8bf92"/>
        </g>
      </g>
      <path id="Trazado_882594" data-name="Trazado 882594" d="M211.7,76.662l7.31,1.76-3.621-4.993s1.139-20.642-.329-20.6-14.378-2.585-14.378-2.585l-15.516,15.5s6.062,15.92,6.644,15.782,13.433,1.593,13.433,1.593Z" transform="translate(-10765.46 -12420.291)" fill="#48311f"/>
      <path id="Trazado_882595" data-name="Trazado 882595" d="M216.716,78.045a4.093,4.093,0,0,0-2.71,2.858,7.208,7.208,0,0,1-.529,2.017,3.678,3.678,0,0,1-2.872,1.339,4.534,4.534,0,0,0-3.014,1.1,3.452,3.452,0,0,0-.443,3.051,5.039,5.039,0,0,0,2.1,3.248,6.524,6.524,0,0,0,2.548.721,11.145,11.145,0,0,0,5.812-.4,7.541,7.541,0,0,0,3.327-2.942,12.2,12.2,0,0,0,1.58-4.2,8.637,8.637,0,0,0,.125-3.2,4.136,4.136,0,0,0-1.957-3.013,5.678,5.678,0,0,0-3.967-.58" transform="translate(-10779.449 -12438.001)" fill="#c86b2a"/>
      <rect id="Rectángulo_402142" data-name="Rectángulo 402142" width="4.472" height="19.824" transform="translate(-10573.571 -12355.898) rotate(-61.306)" fill="#fff7e9"/>
      <rect id="Rectángulo_402143" data-name="Rectángulo 402143" width="19.824" height="4.124" transform="matrix(0.525, -0.851, 0.851, 0.525, -10570.763, -12345.748)" fill="#fff7e9"/>
      <path id="Trazado_882596" data-name="Trazado 882596" d="M140.086,42.4l-.854-8.874,5.367.923Z" transform="translate(-10736.032 -12409.583)" fill="#c86b2a"/>
      <path id="Trazado_882597" data-name="Trazado 882597" d="M156.873,62.547l7.031-.354-.922,4.2Z" transform="translate(-10747.335 -12427.949)" fill="#c86b2a"/>
      <path id="Trazado_882598" data-name="Trazado 882598" d="M151.71,39.572,157.825,28l5.839,5.464Z" transform="translate(-10744.027 -12406.037)" fill="#c86b2a"/>
      <path id="Trazado_882599" data-name="Trazado 882599" d="M249.994,302.907l-7.25-3.18.36,4.217Z" transform="translate(-10802.354 -12580.139)" fill="#48311f"/>
      <path id="Trazado_882600" data-name="Trazado 882600" d="M237.207,315.49l-12.175.924,1.786,5.636Z" transform="translate(-10791.006 -12590.238)" fill="#48311f"/>
      <path id="Trazado_882601" data-name="Trazado 882601" d="M248.946,320.858l-6.78,6.1,5.228,1.422Z" transform="translate(-10801.983 -12593.678)" fill="#48311f"/>
    </g>
  </g>
</svg>
