<svg id="Grupo_1103197" data-name="Grupo 1103197" xmlns="http://www.w3.org/2000/svg" xmlns:xlink="http://www.w3.org/1999/xlink" width="389.608" height="301.942" viewBox="0 0 389.608 301.942">
  <defs>
    <clipPath id="clip-path">
      <rect id="Rectángulo_402708" data-name="Rectángulo 402708" width="389.608" height="301.942" fill="none"/>
    </clipPath>
    <clipPath id="clip-path-3">
      <rect id="Rectángulo_402699" data-name="Rectángulo 402699" width="45.265" height="45.263" transform="translate(263.093 126.904)" fill="none"/>
    </clipPath>
    <clipPath id="clip-path-4">
      <rect id="Rectángulo_402700" data-name="Rectángulo 402700" width="25.63" height="37.503" transform="translate(264.858 128.508)" fill="none"/>
    </clipPath>
  </defs>
  <g id="Grupo_1103196" data-name="Grupo 1103196" clip-path="url(#clip-path)">
    <g id="Grupo_1103195" data-name="Grupo 1103195">
      <g id="Grupo_1103194" data-name="Grupo 1103194" clip-path="url(#clip-path)">
        <path id="Trazado_885220" data-name="Trazado 885220" d="M22.1,290.691S-15.286,209.853,7.2,135.536c11.636-38.474,39.059-87.687,95.973-81.848,23.8,2.441,47.01,1.558,63.072-19.732,18.9-25.044,57.453-42.006,92.043-30.029,57.74,19.993,47.224,67.008,63.494,87.779s42.578,21.386,59.316,60.578c24.449,57.245-11.527,138.407-11.527,138.407Z" fill="#ece4d8"/>
        <path id="Trazado_885221" data-name="Trazado 885221" d="M373.4,290.482c0,6.326-79.208,11.46-176.914,11.46s-176.912-5.134-176.912-11.46,79.208-11.453,176.912-11.453S373.4,284.159,373.4,290.482" fill="#87d4c7"/>
        <path id="Trazado_885222" data-name="Trazado 885222" d="M324.562,283.162a5.567,5.567,0,0,0,.719-1.649,3.856,3.856,0,0,0-1.3-4.141,5.039,5.039,0,0,0-4.389-.316,10.585,10.585,0,0,0-1.891.829,25.779,25.779,0,0,0,1.624-2.675c.816-1.553,1.619-3.67.187-5.136-1.1-1.13-2.922-1.108-4.358-.82a17.917,17.917,0,0,0-5.419,2.211c-.452.266-.891.552-1.319.852a28.017,28.017,0,0,0,3.022-6.475c.949-2.985,1.956-7.621-1.268-9.65s-7.43.618-10.066,2.461a38.6,38.6,0,0,0-8.355,8.144,61.486,61.486,0,0,0-5.031,7.74,5.06,5.06,0,0,0-.409-2.074c-.978-2.173-3.39-.77-4.66.261a17.124,17.124,0,0,0-6.01,10.438Z" fill="#87d4c7"/>
        <path id="Trazado_885223" data-name="Trazado 885223" d="M302.218,265.871a75.4,75.4,0,0,0-5.274,18.373c-.046.3.419.435.467.128a74.843,74.843,0,0,1,5.226-18.255c.121-.284-.3-.53-.419-.246" fill="#1c6f73"/>
        <path id="Trazado_885224" data-name="Trazado 885224" d="M314.236,272.717a32.515,32.515,0,0,0-7.83,11.54c-.116.288.351.414.466.128a31.983,31.983,0,0,1,7.707-11.326c.226-.215-.117-.557-.343-.342" fill="#1c6f73"/>
        <path id="Trazado_885225" data-name="Trazado 885225" d="M320.99,278.6c-1.991,1.287-3.447,3.6-4.668,5.587-.164.265.254.508.416.243a31.906,31.906,0,0,1,2.119-3.038,10.242,10.242,0,0,1,2.377-2.374c.262-.169.02-.587-.244-.418" fill="#1c6f73"/>
        <path id="Trazado_885226" data-name="Trazado 885226" d="M283.181,275.258a30.584,30.584,0,0,0-1.674,9.056c-.01.311.474.31.483,0a30.161,30.161,0,0,1,1.658-8.927c.1-.295-.367-.421-.467-.129" fill="#1c6f73"/>
        <path id="Trazado_885227" data-name="Trazado 885227" d="M295.75,274.268q.928,2.712,2.1,5.325c.128.282.545.038.419-.244q-1.143-2.559-2.05-5.208c-.1-.293-.567-.167-.466.127" fill="#1c6f73"/>
        <path id="Trazado_885228" data-name="Trazado 885228" d="M318.073,279a15.933,15.933,0,0,0,.029,2.575c.03.307.512.311.485,0a16.046,16.046,0,0,1-.032-2.575c.022-.311-.462-.309-.482,0" fill="#1c6f73"/>
        <path id="Trazado_885229" data-name="Trazado 885229" d="M283.471,278.995q-.726.873-1.453,1.747c-.2.237.142.581.343.341l1.452-1.746c.2-.238-.142-.581-.342-.342" fill="#1c6f73"/>
        <path id="Trazado_885230" data-name="Trazado 885230" d="M231.214,79.277c5.156-15.9,15.727-20.5,26.731-12.939,13.831,9.505,29.346,31.811,43.178,74.383,8.608,26.488,19.171,79.5,3.992,95.428-7.621,8-24.917-4.1-39.066-12.336-8.817-5.131-21.355,1.59-32.778-8.345-23.1-20.1-1.635-70.7-5.442-86.859-5.261-22.335-2.1-32.416,3.385-49.332" fill="#e3405b"/>
        <path id="Trazado_885231" data-name="Trazado 885231" d="M185.466,79.277c-5.154-15.9-15.726-20.5-26.728-12.939-13.831,9.505-29.346,31.811-43.179,74.383-8.607,26.488-19.171,79.5-3.991,95.428,7.619,8,24.916-4.1,39.066-12.336,8.816-5.131,27.168,3.877,35.373-8.846,23.1-35.821-.961-70.2,2.847-86.358,5.261-22.335,2.1-32.416-3.388-49.332" fill="#e3405b"/>
        <path id="Trazado_885232" data-name="Trazado 885232" d="M220.542,91.474c-4.174-10.833-4.174-40.651-3.811-54.076H200.356c.364,13.425.364,43.243-3.808,54.076-3.4,8.82-11.365,17.216-24.066,27.557l3.564,6.551s16.691-14.047,23.222-22.393c3.868-4.941,5.506-8.881,9.276-9.163,3.789-.282,5.41,4.222,9.276,9.163,6.531,8.346,23.222,22.393,23.222,22.393l3.564-6.551c-12.7-10.341-20.668-18.737-24.064-27.557" fill="#ff999d"/>
        <path id="Trazado_885233" data-name="Trazado 885233" d="M200.021,48.041c6.02,1.96,11.078,2.354,17.047,0,2.15-.848,1.215-4.358-.965-3.5-5.389,2.125-9.68,1.771-15.117,0-2.232-.726-3.18,2.777-.965,3.5" fill="#ff6f7f"/>
        <path id="Trazado_885234" data-name="Trazado 885234" d="M200.021,55.815c6.02,1.96,11.078,2.354,17.048,0,2.15-.848,1.215-4.358-.966-3.5-5.389,2.126-9.68,1.771-15.117,0-2.232-.727-3.18,2.778-.965,3.5" fill="#ff6f7f"/>
        <path id="Trazado_885235" data-name="Trazado 885235" d="M199.506,64.079c6.214,2,11.771,2.4,17.933,0,2.154-.84,1.216-4.35-.965-3.5-5.592,2.18-10.368,1.818-16,0-2.233-.72-3.182,2.784-.964,3.5" fill="#ff6f7f"/>
        <path id="Trazado_885236" data-name="Trazado 885236" d="M199.506,71.348c6.235,2,11.788,2.157,17.933-.254,2.152-.844,1.215-4.354-.965-3.5-5.571,2.185-10.338,2.066-16,.253-2.235-.715-3.184,2.788-.964,3.5" fill="#ff6f7f"/>
        <path id="Trazado_885237" data-name="Trazado 885237" d="M198.573,78.811c6.576,2.083,13.02,2.492,19.545,0,2.162-.826,1.225-4.335-.966-3.5-5.96,2.276-11.6,1.9-17.614,0-2.238-.708-3.188,2.795-.965,3.5" fill="#ff6f7f"/>
        <path id="Trazado_885238" data-name="Trazado 885238" d="M216.732,37.521c0,1.127-3.664,2.042-8.188,2.042s-8.187-.915-8.187-2.042,3.666-2.04,8.187-2.04,8.188.913,8.188,2.04" fill="#ff6f7f"/>
        <path id="Trazado_885239" data-name="Trazado 885239" d="M301.123,140.721c-13.832-42.572-29.348-64.877-43.178-74.383-9.075-6.237-20.413-4.515-23.713,6.233-6.966,22.685,5.813,31.969-4.346,56.038-2.223,5.264-5.444,13.668-4.621,24.458.824,10.829,6.56,21.37,13.207,26.339,9.32,6.966,24.916,9.433,22.738,28.3-1.083,9.392,7.886,18.734,15.421,23.587,11.295,6.583,22.717,10.907,28.484,4.855,15.179-15.928,4.615-68.94-3.992-95.428" fill="#ff6f7f"/>
        <path id="Trazado_885240" data-name="Trazado 885240" d="M115.559,140.721c13.833-42.572,29.349-64.877,43.179-74.383,9.075-6.237,20.412-4.515,23.713,6.233,6.964,22.685-10.9,28.462,4.346,56.038,2.764,5,4.909,15.086,5.8,23.042,1.211,10.792-1.051,21.225-11.975,30.3-8.951,7.433-13.244,12.579-13.968,26.729-.485,9.442-7.705,15.769-15.241,20.621-11.326,8.467-30.707,14.153-39.847,6.851-17.193-13.732-4.616-68.94,3.991-95.428" fill="#ff6f7f"/>
        <path id="Trazado_885241" data-name="Trazado 885241" d="M139.384,172.569c-14.426,0-27.935-8.181-28.59-8.583a.726.726,0,0,1,.761-1.237c.181.111,18.27,11.059,34.391,7.724,23.862-4.937,39.457-24.722,42.147-33.726a.726.726,0,0,1,1.391.416c-2.774,9.284-18.79,29.672-43.243,34.731a33.833,33.833,0,0,1-6.857.675" fill="#e3405b"/>
        <path id="Trazado_885242" data-name="Trazado 885242" d="M159.036,223.13a.649.649,0,0,1-.116-.01.725.725,0,0,1-.6-.831c.564-3.5-.056-6.148-1.894-8.09-3.413-3.606-10.992-4.82-22.532-3.611a32.939,32.939,0,0,1-29.514-11.894.726.726,0,0,1,1.185-.838,31.486,31.486,0,0,0,28.178,11.289c12.011-1.257,20,.106,23.737,4.056,2.169,2.291,2.913,5.339,2.273,9.319a.725.725,0,0,1-.715.61" fill="#e3405b"/>
        <path id="Trazado_885243" data-name="Trazado 885243" d="M281.53,233.654a.716.716,0,0,1-.421-.136c-2.975-2.118-2.709-10.075-2.341-21.088.614-18.366,1.455-43.52-14.641-47.375a52.691,52.691,0,0,1-36.436-30.212.725.725,0,1,1,1.364-.493,51.2,51.2,0,0,0,35.409,29.293c17.25,4.131,16.385,29.97,15.753,48.837-.312,9.354-.608,18.19,1.735,19.857a.726.726,0,0,1-.422,1.317" fill="#e3405b"/>
        <path id="Trazado_885244" data-name="Trazado 885244" d="M144.335,142.429a1.617,1.617,0,1,0,1.617-1.617,1.617,1.617,0,0,0-1.617,1.617" fill="#cc1b38"/>
        <path id="Trazado_885245" data-name="Trazado 885245" d="M140.953,142.429a5,5,0,1,1,5,5,5.007,5.007,0,0,1-5-5m.729,0a4.272,4.272,0,1,0,4.271-4.271,4.275,4.275,0,0,0-4.271,4.271" fill="#cc1b38"/>
        <path id="Trazado_885246" data-name="Trazado 885246" d="M137.935,142.43a8.018,8.018,0,1,1,8.017,8.02,8.026,8.026,0,0,1-8.017-8.02m.726,0a7.291,7.291,0,1,0,7.291-7.292,7.3,7.3,0,0,0-7.291,7.292" fill="#cc1b38"/>
        <path id="Trazado_885247" data-name="Trazado 885247" d="M134.915,142.429a11.038,11.038,0,1,1,11.038,11.038,11.052,11.052,0,0,1-11.038-11.038m.726,0a10.311,10.311,0,1,0,10.312-10.311,10.324,10.324,0,0,0-10.312,10.311" fill="#cc1b38"/>
        <path id="Trazado_885248" data-name="Trazado 885248" d="M155.985,103.37a1,1,0,1,0,1.005-1,1.005,1.005,0,0,0-1.005,1" fill="#cc1b38"/>
        <path id="Trazado_885249" data-name="Trazado 885249" d="M153.885,103.37a3.1,3.1,0,1,1,3.1,3.1,3.108,3.108,0,0,1-3.1-3.1m.453,0a2.653,2.653,0,1,0,2.651-2.652,2.655,2.655,0,0,0-2.651,2.652" fill="#cc1b38"/>
        <path id="Trazado_885250" data-name="Trazado 885250" d="M152.012,103.37a4.978,4.978,0,1,1,4.977,4.978,4.983,4.983,0,0,1-4.977-4.978m.45,0a4.526,4.526,0,1,0,4.527-4.527,4.531,4.531,0,0,0-4.527,4.527" fill="#cc1b38"/>
        <path id="Trazado_885251" data-name="Trazado 885251" d="M150.137,103.37a6.852,6.852,0,1,1,6.852,6.853,6.862,6.862,0,0,1-6.852-6.853m.451,0a6.4,6.4,0,1,0,6.4-6.4,6.408,6.408,0,0,0-6.4,6.4" fill="#cc1b38"/>
        <path id="Trazado_885252" data-name="Trazado 885252" d="M71.691,202.281l-3.506-2.9s3.134-4.719,3.781-5.954c.42-.8.664-2,1.5-2.543.963-.621,2.127-.574,3.662-2.112.195-.2.509.006.5.3a1.569,1.569,0,0,1-.364.934,5.779,5.779,0,0,1-1.14,1.145,8.9,8.9,0,0,0,2.892-.072c.734-.243,1.768-1.909,2.291-1.982.436-.061.641.259.694.637a5.022,5.022,0,0,1-1.774,3.659c-1.391.917-5.817,1.734-5.817,1.734-.222.435-2.718,7.15-2.718,7.15" fill="#a76b63"/>
        <path id="Trazado_885253" data-name="Trazado 885253" d="M58.027,287.628l3.325-.046.741-8.155-4.434.127Z" fill="#a76b63"/>
        <path id="Trazado_885254" data-name="Trazado 885254" d="M65,288.7a14.49,14.49,0,0,0-1.98-1.024,16.577,16.577,0,0,1-1.606-.74,8.566,8.566,0,0,1-3.414.041c-.066.779-.445,3.435.572,4.062,1.037.637,3.218.563,4.549.456,1.059-.085,3.2-.129,3.074-1.378-.064-.647-.687-1.082-1.195-1.417" fill="#14232f"/>
        <path id="Trazado_885255" data-name="Trazado 885255" d="M35.994,287.628l3.325-.046.742-8.155-4.432.127Z" fill="#a76b63"/>
        <path id="Trazado_885256" data-name="Trazado 885256" d="M42.966,288.7a14.455,14.455,0,0,0-1.982-1.024,16.914,16.914,0,0,1-1.606-.74,8.545,8.545,0,0,1-3.41.041c-.07.779-.447,3.435.571,4.062,1.036.637,3.216.563,4.546.456,1.063-.085,3.2-.129,3.076-1.378-.064-.647-.687-1.082-1.195-1.417" fill="#14232f"/>
        <path id="Trazado_885257" data-name="Trazado 885257" d="M65.565,284.085H55.283c.349-5.9,1.2-25.021.5-28.066-.943-4.1-9.613-17.8-9.613-17.8.267,5.248-1.287,14.349-2,22.4-.887,9.963-1.162,17.4-1.1,23.469H33.4s.683-19.1.25-28.828c-.223-5.012-1.327-11.312-2.048-17.037-1.283-10.22-.079-20.032.011-23.513l19.8-.4a6.453,6.453,0,0,0,1.082,5.3c5.373,8.584,13.134,26.893,14.179,33.249.456,2.785-.3,9.429-.482,13.388-.2,4.3-.632,17.843-.632,17.843" fill="#ffdec9"/>
        <path id="Trazado_885258" data-name="Trazado 885258" d="M46.152,237.841c.036-7.069.033-9.741-.014-16.812a.113.113,0,0,1,.225,0c.048,7.071.053,9.743.014,16.812a.113.113,0,0,1-.225,0" fill="#e6b08e"/>
        <path id="Trazado_885259" data-name="Trazado 885259" d="M15.589,209.616c-1.1-3.3,2.641-7.383,5.216-11.487,1.848-2.946,5.432-7.6,8.292-9.045a26.773,26.773,0,0,1,6.963-2.026s13.16-1.464,17.554,1.847c3.233,2.434,8.084,9.181,11.424,13.445a21.544,21.544,0,0,0,3.222-3.573l4.121,2.583c-.266.51-4.2,9.213-8.213,9.235-4.044.023-10.044-9.17-10.546-9.507.634,4.619-.859,9.332-.492,13.791.467,5.649,6.283,15.623,6.283,15.623-11.648,7.941-29.037,4.92-29.037,4.92-1.4-7.265.721-17.7.64-22.941-.061-3.859-1.2-6.834-1.736-11.534,0,0-4.793,4.835-6.257,6.788.853,1.118,3.292,4.855,3.292,4.855l-2.627,3.719c-2.669-1.705-7.4-4.584-8.1-6.693" fill="#398fb9"/>
        <path id="Trazado_885260" data-name="Trazado 885260" d="M44.489,182.834l-.031,2.292,2.427,1.315s-.611,1.637-1.421,3.694h-7.92c-.846-1.968-1.485-3.518-1.485-3.518a24,24,0,0,0,3.057-1.353c.072-.747.193-4.115.283-5.523a3.185,3.185,0,0,0,.715-1.861c.1.015,1.9-5.907,3.146-6.034,2.837-.288,3.885-.249,4.647.414a17.432,17.432,0,0,1,.826,3.82c.479,2.872-.047,5.431-1.436,6.576a3.107,3.107,0,0,1-2.808.178" fill="#a76b63"/>
        <path id="Trazado_885261" data-name="Trazado 885261" d="M44.358,183a5.828,5.828,0,0,1-2.616-1.163c-.112-.094.051-.253.158-.162a5.6,5.6,0,0,0,2.518,1.106c.142.029.082.246-.06.219" fill="#8b5348"/>
        <path id="Trazado_885262" data-name="Trazado 885262" d="M45.125,190.127c-1.336,3.743-3.031,8.2-3.511,8.2-.424,0-2.332-4.461-3.859-8.2Z" fill="#fff"/>
        <path id="Trazado_885263" data-name="Trazado 885263" d="M53.4,200.762q-.132-2.787-.268-5.579c-.007-.144.215-.185.221-.038l.27,5.577c.006.144-.215.185-.223.04" fill="#20759e"/>
        <path id="Trazado_885264" data-name="Trazado 885264" d="M29.177,200.78q-.313-2.6-.628-5.2c-.017-.144.2-.2.222-.051q.313,2.6.626,5.2c.016.144-.2.2-.22.052" fill="#20759e"/>
        <path id="Trazado_885265" data-name="Trazado 885265" d="M27.805,192.845a.108.108,0,0,0,.075.132c3.46.878,7,.037,10.511.063a.108.108,0,0,0,.1-.078,34.856,34.856,0,0,0,1.252-8.61,21.832,21.832,0,0,1,.511-4.582,8.1,8.1,0,0,1,1.5-2.283,11.805,11.805,0,0,0,5.776-5.3,29.235,29.235,0,0,1,1.085,3.2c.13-1.555.322-3.375-.348-4.829a3.954,3.954,0,0,0-2.35-2.191,7.593,7.593,0,0,0-6.813-.152,8.8,8.8,0,0,0-4.356,4.794,14.323,14.323,0,0,0-.912,3.6,39.036,39.036,0,0,1-.517,4.361c-1.055,4.315-4.893,7.406-5.521,11.878" fill="#14232f"/>
        <path id="Trazado_885266" data-name="Trazado 885266" d="M40.282,177.82c.381.666,1.047,1,1.488.747s.489-1,.108-1.66-.977-.875-1.418-.622-.559.872-.178,1.535" fill="#a76b63"/>
        <path id="Trazado_885267" data-name="Trazado 885267" d="M42.31,192.373a.119.119,0,0,0,.1.137c2.6.294,5.161-.6,7.768-.339a.1.1,0,0,0,.113-.109c-.265-4.2-.871-8.452-1.478-12.616a6.188,6.188,0,0,1-1.232,2.918c-.838.818-1.376.806-3.094.47A30.287,30.287,0,0,0,43.2,187.5q-.444,2.435-.886,4.869" fill="#14232f"/>
        <path id="Trazado_885268" data-name="Trazado 885268" d="M33.013,236.675l17.7-10.064a.516.516,0,0,0,.192-.7L44.24,214.184a.514.514,0,0,0-.7-.193l-17.7,10.066a.512.512,0,0,0-.193.7l6.668,11.728a.511.511,0,0,0,.7.191" fill="#14232f"/>
        <path id="Trazado_885269" data-name="Trazado 885269" d="M26.161,212.817a38.973,38.973,0,0,0,4.467,4.472,21.712,21.712,0,0,1,3.349,1.185,3.987,3.987,0,0,1,.71.9c.88,1.344,1.433,4.978.833,5.356-.8.5-1.982-.45-2.4-.948a9.354,9.354,0,0,0-1.839-1.8,7.424,7.424,0,0,1-1.693-1.388,4.506,4.506,0,0,1-.77-1.426c-2.975-1.584-1.985-1.508-4.956-3.1Z" fill="#a76b63"/>
        <path id="Trazado_885270" data-name="Trazado 885270" d="M144.455,240.482h8.5a.641.641,0,0,0,.64-.64V238.16a.64.64,0,0,0-.64-.639h-8.5a.641.641,0,0,0-.642.639v1.682a.642.642,0,0,0,.642.64" fill="#b8e2fd"/>
        <path id="Trazado_885271" data-name="Trazado 885271" d="M144.754,254.023V240.482h7.9v13.541a3.878,3.878,0,0,0,.371,1.657l11.791,25.043a3.9,3.9,0,0,1-3.533,5.565H136.125a3.9,3.9,0,0,1-3.531-5.565l11.79-25.043a3.892,3.892,0,0,0,.37-1.657" fill="#b8e2fd"/>
        <path id="Trazado_885272" data-name="Trazado 885272" d="M144.942,240.656h7.526a.156.156,0,0,0,.156-.156v-.036a.156.156,0,0,0-.156-.156h-7.526a.156.156,0,0,0-.156.156v.036a.156.156,0,0,0,.156.156" fill="#398fb9"/>
        <path id="Trazado_885273" data-name="Trazado 885273" d="M134.357,281.466l9.9-21.018h8.9l9.9,21.018a2.185,2.185,0,0,1-1.978,3.115H136.336a2.185,2.185,0,0,1-1.979-3.115" fill="#ffbd66"/>
        <path id="Trazado_885274" data-name="Trazado 885274" d="M149.8,271.934a2.24,2.24,0,1,0,2.24-2.24,2.239,2.239,0,0,0-2.24,2.24" fill="#ffa53d"/>
        <path id="Trazado_885275" data-name="Trazado 885275" d="M146.963,276.488a1.419,1.419,0,1,0,1.419-1.418,1.42,1.42,0,0,0-1.419,1.418" fill="#ffa53d"/>
        <path id="Trazado_885276" data-name="Trazado 885276" d="M61.367,61.387A30.715,30.715,0,1,0,92.081,30.673,30.715,30.715,0,0,0,61.367,61.387" fill="#f8fcff"/>
        <path id="Trazado_885277" data-name="Trazado 885277" d="M60.774,61.387A31.308,31.308,0,1,1,92.081,92.695,31.341,31.341,0,0,1,60.774,61.387m1.187,0a30.121,30.121,0,1,0,30.12-30.121,30.155,30.155,0,0,0-30.12,30.121" fill="#20759e"/>
        <path id="Trazado_885278" data-name="Trazado 885278" d="M120.83,103.747H150.3a.378.378,0,1,0,0-.755H120.83a1.743,1.743,0,0,1-1.021-.423l-13.8-13.8a.378.378,0,0,0-.535.534l13.8,13.8a2.491,2.491,0,0,0,1.555.644" fill="#224a5f"/>
        <path id="Trazado_885279" data-name="Trazado 885279" d="M150.224,104.845a1.476,1.476,0,1,0-1.476-1.475,1.476,1.476,0,0,0,1.476,1.475" fill="#224a5f"/>
        <path id="Trazado_885280" data-name="Trazado 885280" d="M104.754,90.136a1.476,1.476,0,1,1,2.088,0,1.478,1.478,0,0,1-2.088,0" fill="#224a5f"/>
        <path id="Trazado_885281" data-name="Trazado 885281" d="M93.58,54.738Q95,57.107,96.429,59.474c.136.226.271.452.41.68a.207.207,0,0,1-.358.208l-2.847-4.736c-.138-.226-.273-.453-.411-.68a.207.207,0,0,1,.357-.208" fill="#224a5f"/>
        <path id="Trazado_885282" data-name="Trazado 885282" d="M107.6,56.64q-1.1,1.792-2.208,3.584l-.313.509c-.138.225-.5.019-.356-.209q1.1-1.792,2.206-3.583l.313-.509c.14-.226.5-.019.358.208" fill="#224a5f"/>
        <path id="Trazado_885283" data-name="Trazado 885283" d="M100.763,55.454v4.193a.207.207,0,0,1-.413,0V55.454a.207.207,0,0,1,.413,0" fill="#224a5f"/>
        <path id="Trazado_885284" data-name="Trazado 885284" d="M87.388,62.167q2.652.77,5.3,1.54l.771.225a.206.206,0,0,1-.109.4q-2.65-.771-5.3-1.54l-.769-.225a.206.206,0,0,1,.108-.4" fill="#224a5f"/>
        <path id="Trazado_885285" data-name="Trazado 885285" d="M114.292,63.923l-5.3,1.54-.769.224a.207.207,0,0,1-.111-.4l5.3-1.541c.258-.074.514-.15.772-.223a.206.206,0,0,1,.109.4" fill="#224a5f"/>
        <path id="Trazado_885286" data-name="Trazado 885286" d="M108.273,69.43q1.671.754,3.342,1.51l.479.217c.241.108.033.464-.208.355q-1.674-.754-3.343-1.51l-.478-.216c-.242-.109-.031-.465.208-.356" fill="#224a5f"/>
        <path id="Trazado_885287" data-name="Trazado 885287" d="M105.809,73.745q1.107,1.457,2.218,2.915l.32.42c.161.212-.2.418-.355.209-.742-.972-1.479-1.943-2.22-2.916l-.32-.42c-.162-.212.2-.417.357-.208" fill="#224a5f"/>
        <path id="Trazado_885288" data-name="Trazado 885288" d="M92.428,69.759l-3.5,1.07-.51.156c-.256.078-.364-.32-.11-.4q1.749-.534,3.5-1.071l.51-.155c.254-.078.363.321.109.4" fill="#224a5f"/>
        <path id="Trazado_885289" data-name="Trazado 885289" d="M94.8,74.544q-1.821,1.7-3.645,3.388l-.514.477c-.194.181-.486-.111-.292-.292L94,74.728c.17-.159.341-.317.514-.476.193-.181.485.111.29.292" fill="#224a5f"/>
        <path id="Trazado_885290" data-name="Trazado 885290" d="M99.985,75.114q-.255,1.82-.5,3.638c-.023.171-.047.344-.071.516-.036.261-.435.15-.4-.11q.252-1.818.5-3.637c.025-.172.049-.345.072-.516.036-.262.433-.151.4.109" fill="#224a5f"/>
        <path id="Trazado_885291" data-name="Trazado 885291" d="M91.618,68.086a8.859,8.859,0,1,0,8.858-8.859,8.858,8.858,0,0,0-8.858,8.859" fill="#1c6f73"/>
        <path id="Trazado_885292" data-name="Trazado 885292" d="M98.8,53.9a1.755,1.755,0,1,0,1.756-1.756A1.755,1.755,0,0,0,98.8,53.9" fill="#398fb9"/>
        <path id="Trazado_885293" data-name="Trazado 885293" d="M105.911,54.85a2.512,2.512,0,1,0,2.513-2.512,2.514,2.514,0,0,0-2.513,2.512" fill="#224a5f"/>
        <path id="Trazado_885294" data-name="Trazado 885294" d="M111.776,71.923a1.231,1.231,0,1,0,1.231-1.231,1.231,1.231,0,0,0-1.231,1.231" fill="#398fb9"/>
        <path id="Trazado_885295" data-name="Trazado 885295" d="M83.61,71.519a2.513,2.513,0,1,0,2.512-2.512,2.512,2.512,0,0,0-2.512,2.512" fill="#224a5f"/>
        <path id="Trazado_885296" data-name="Trazado 885296" d="M84.057,61.966a1.757,1.757,0,1,0,1.757-1.755,1.757,1.757,0,0,0-1.757,1.755" fill="#398fb9"/>
        <path id="Trazado_885297" data-name="Trazado 885297" d="M91.662,53.968a1.231,1.231,0,1,0,1.231-1.23,1.231,1.231,0,0,0-1.231,1.23" fill="#398fb9"/>
        <path id="Trazado_885298" data-name="Trazado 885298" d="M108.8,76.772a1.754,1.754,0,1,0,1.846,1.66,1.753,1.753,0,0,0-1.846-1.66" fill="#398fb9"/>
        <path id="Trazado_885299" data-name="Trazado 885299" d="M88.548,78.982a1.231,1.231,0,1,0,1.229-1.23,1.23,1.23,0,0,0-1.229,1.23" fill="#398fb9"/>
        <path id="Trazado_885300" data-name="Trazado 885300" d="M96.484,81.657a2.512,2.512,0,1,0,2.51-2.512,2.509,2.509,0,0,0-2.51,2.512" fill="#224a5f"/>
        <path id="Trazado_885301" data-name="Trazado 885301" d="M113.909,63.364a1.755,1.755,0,1,0,1.754-1.754,1.754,1.754,0,0,0-1.754,1.754" fill="#398fb9"/>
        <path id="Trazado_885302" data-name="Trazado 885302" d="M68.97,52.656q.869,1.442,1.734,2.885l.249.414a.125.125,0,0,1-.215.126Q69.868,54.639,69,53.2c-.084-.138-.166-.275-.25-.414a.126.126,0,0,1,.217-.127" fill="#224a5f"/>
        <path id="Trazado_885303" data-name="Trazado 885303" d="M73.345,53.093v2.553a.126.126,0,0,1-.252,0V53.093a.126.126,0,0,1,.252,0" fill="#224a5f"/>
        <path id="Trazado_885304" data-name="Trazado 885304" d="M66.086,58.023l3.228.938.469.137a.125.125,0,0,1-.067.241L66.489,58.4l-.468-.137a.125.125,0,0,1,.065-.242" fill="#224a5f"/>
        <path id="Trazado_885305" data-name="Trazado 885305" d="M80.675,58.668l-3.226.938-.468.136a.126.126,0,0,1-.068-.242l3.228-.938.469-.137a.126.126,0,0,1,.065.243" fill="#224a5f"/>
        <path id="Trazado_885306" data-name="Trazado 885306" d="M76.418,64.233c.448.591.9,1.184,1.35,1.775.065.086.129.171.2.256.1.129-.12.255-.218.128q-.675-.888-1.352-1.776c-.064-.085-.127-.171-.194-.257-.1-.128.12-.253.218-.126" fill="#224a5f"/>
        <path id="Trazado_885307" data-name="Trazado 885307" d="M70.62,63.583,68.4,65.647c-.105.1-.21.194-.313.291s-.3-.068-.178-.178l2.222-2.065.313-.29c.117-.111.3.068.177.178" fill="#224a5f"/>
        <path id="Trazado_885308" data-name="Trazado 885308" d="M72.871,65.067c-.1.738-.205,1.477-.308,2.215-.013.105-.027.21-.043.315-.022.159-.264.091-.242-.067q.154-1.107.307-2.215c.015-.105.027-.21.043-.315.021-.159.263-.091.243.067" fill="#224a5f"/>
        <path id="Trazado_885309" data-name="Trazado 885309" d="M67.775,60.786a5.4,5.4,0,1,0,5.4-5.4,5.4,5.4,0,0,0-5.4,5.4" fill="#20759e"/>
        <path id="Trazado_885310" data-name="Trazado 885310" d="M72.15,52.148a1.069,1.069,0,1,0,1.07-1.069,1.07,1.07,0,0,0-1.07,1.069" fill="#398fb9"/>
        <path id="Trazado_885311" data-name="Trazado 885311" d="M64.059,57.9a1.069,1.069,0,1,0,1.069-1.068A1.069,1.069,0,0,0,64.059,57.9" fill="#398fb9"/>
        <path id="Trazado_885312" data-name="Trazado 885312" d="M67.8,52.187a.749.749,0,1,0,.75-.749.75.75,0,0,0-.75.749" fill="#224a5f"/>
        <path id="Trazado_885313" data-name="Trazado 885313" d="M78.24,66.076a1.069,1.069,0,1,0,1.123,1.011,1.069,1.069,0,0,0-1.123-1.011" fill="#398fb9"/>
        <path id="Trazado_885314" data-name="Trazado 885314" d="M66.809,66.287a.75.75,0,1,0,.749-.749.75.75,0,0,0-.749.749" fill="#398fb9"/>
        <path id="Trazado_885315" data-name="Trazado 885315" d="M70.739,69.052a1.529,1.529,0,1,0,1.528-1.529,1.528,1.528,0,0,0-1.528,1.529" fill="#224a5f"/>
        <path id="Trazado_885316" data-name="Trazado 885316" d="M80.443,58.327a1.069,1.069,0,1,0,1.069-1.069,1.07,1.07,0,0,0-1.069,1.069" fill="#398fb9"/>
        <path id="Trazado_885317" data-name="Trazado 885317" d="M85.627,36.943l1.267,1.978c.059.094.12.186.179.28.079.124-.11.254-.191.129-.422-.659-.846-1.318-1.265-1.978-.062-.094-.121-.187-.18-.281-.081-.125.11-.255.19-.128" fill="#224a5f"/>
        <path id="Trazado_885318" data-name="Trazado 885318" d="M83.373,40.094l1.846.89c.087.042.175.084.261.127a.114.114,0,0,1-.1.206l-1.846-.89-.262-.125a.115.115,0,0,1,.1-.208" fill="#224a5f"/>
        <path id="Trazado_885319" data-name="Trazado 885319" d="M83.5,48.444l2.059-2.291c.1-.11.2-.222.3-.332s.273.04.172.15q-1.028,1.147-2.058,2.291l-.3.333c-.1.111-.274-.04-.174-.151" fill="#224a5f"/>
        <path id="Trazado_885320" data-name="Trazado 885320" d="M92.22,39.706l1.568-1.314.225-.189c.113-.094.241.1.129.191-.523.439-1.046.876-1.569,1.316l-.225.187c-.114.1-.241-.1-.128-.191" fill="#224a5f"/>
        <path id="Trazado_885321" data-name="Trazado 885321" d="M93.79,41.99l2-.408.29-.059c.144-.03.161.2.018.229l-2,.409c-.1.018-.193.039-.288.059-.147.03-.163-.2-.02-.23" fill="#224a5f"/>
        <path id="Trazado_885322" data-name="Trazado 885322" d="M88.544,47.752q-.156,1.01-.309,2.018c-.016.1-.032.195-.046.294a.115.115,0,0,1-.227-.041q.155-1.01.309-2.019c.016-.1.032-.2.046-.294a.115.115,0,0,1,.227.042" fill="#224a5f"/>
        <path id="Trazado_885323" data-name="Trazado 885323" d="M93.068,45.25q.854.569,1.707,1.135l.242.16c.123.082-.03.255-.151.174l-1.707-1.134c-.081-.053-.161-.107-.242-.162-.124-.081.028-.253.151-.173" fill="#224a5f"/>
        <path id="Trazado_885324" data-name="Trazado 885324" d="M87.506,47.753a4.945,4.945,0,1,0-2.306-6.6,4.945,4.945,0,0,0,2.306,6.6" fill="#224a5f"/>
        <path id="Trazado_885325" data-name="Trazado 885325" d="M82.118,40.7A.98.98,0,1,0,81.66,39.4a.979.979,0,0,0,.458,1.309" fill="#398fb9"/>
        <path id="Trazado_885326" data-name="Trazado 885326" d="M84.317,37.358a1.4,1.4,0,1,0-.653-1.872,1.4,1.4,0,0,0,.653,1.872" fill="#224a5f"/>
        <path id="Trazado_885327" data-name="Trazado 885327" d="M94.322,38.549a.687.687,0,1,0-.32-.917.687.687,0,0,0,.32.917" fill="#398fb9"/>
        <path id="Trazado_885328" data-name="Trazado 885328" d="M87.291,52.61a1.4,1.4,0,1,0-.653-1.872,1.4,1.4,0,0,0,.653,1.872" fill="#398fb9"/>
        <path id="Trazado_885329" data-name="Trazado 885329" d="M82.6,50.07a.98.98,0,1,0-.456-1.309A.981.981,0,0,0,82.6,50.07" fill="#398fb9"/>
        <path id="Trazado_885330" data-name="Trazado 885330" d="M96.039,41.22a.979.979,0,1,0,1.281-.526.975.975,0,0,0-1.281.526" fill="#398fb9"/>
        <path id="Trazado_885331" data-name="Trazado 885331" d="M95.508,48.6a1.4,1.4,0,1,0-.654-1.872,1.4,1.4,0,0,0,.654,1.872" fill="#224a5f"/>
        <path id="Trazado_885332" data-name="Trazado 885332" d="M77.485,192.018h.847a3.261,3.261,0,0,0,3.26-3.26V149.85H74.224v38.908a3.261,3.261,0,0,0,3.261,3.26" fill="#b8e2fd"/>
        <path id="Trazado_885333" data-name="Trazado 885333" d="M74.011,149.85h7.941a.59.59,0,0,0,.59-.59v-1.582a.589.589,0,0,0-.59-.59H74.011a.59.59,0,0,0-.59.59v1.582a.59.59,0,0,0,.59.59" fill="#b8e2fd"/>
        <path id="Trazado_885334" data-name="Trazado 885334" d="M74.4,150.012h7.023a.143.143,0,0,0,.143-.143v-.039a.143.143,0,0,0-.143-.142H74.4a.144.144,0,0,0-.145.142v.039a.144.144,0,0,0,.145.143" fill="#398fb9"/>
        <path id="Trazado_885335" data-name="Trazado 885335" d="M80.15,166.692v21.745a2.241,2.241,0,0,1-4.482,0V166.692Z" fill="#e3405b"/>
        <path id="Trazado_885336" data-name="Trazado 885336" d="M77.056,176.045a1.322,1.322,0,1,0,1.322-1.322,1.323,1.323,0,0,0-1.322,1.322" fill="#cc1b38"/>
        <path id="Trazado_885337" data-name="Trazado 885337" d="M76.238,179.3a.818.818,0,1,0,.818-.817.817.817,0,0,0-.818.817" fill="#cc1b38"/>
        <path id="Trazado_885338" data-name="Trazado 885338" d="M220.806,256.4v-2.551a1.837,1.837,0,0,1,.533-1.206,4.1,4.1,0,0,0,.416-4.937,12.518,12.518,0,0,1-1.657-6.794v-1.091a1.922,1.922,0,0,0-3.827,0v1.094a12.527,12.527,0,0,1-1.656,6.791,4.092,4.092,0,0,0,.415,4.937,1.833,1.833,0,0,1,.534,1.206V256.4l-.762.778a4.868,4.868,0,0,0-1.416,3.366l-.142,23a2.287,2.287,0,0,0,2.386,2.188h5.122a2.288,2.288,0,0,0,2.387-2.175V260.67a4.877,4.877,0,0,0-1.56-3.533Z" fill="#398fb9"/>
        <path id="Trazado_885339" data-name="Trazado 885339" d="M216.792,246.266a8.316,8.316,0,0,0-1.182,3.052,4.7,4.7,0,0,0,.855,2.8c.125.206.451.017.322-.189a4.334,4.334,0,0,1-.8-2.613,7.9,7.9,0,0,1,1.128-2.864c.112-.211-.209-.4-.323-.188" fill="#b8e2fd"/>
        <path id="Trazado_885340" data-name="Trazado 885340" d="M216.161,261.465c.018,3.928-.018,7.855,0,11.782a.187.187,0,0,0,.374,0c-.016-3.927.02-7.854,0-11.782a.187.187,0,0,0-.374,0" fill="#b8e2fd"/>
        <path id="Trazado_885341" data-name="Trazado 885341" d="M216.167,275.818v2.131a.186.186,0,0,0,.372,0v-2.131a.186.186,0,0,0-.372,0" fill="#b8e2fd"/>
        <path id="Trazado_885342" data-name="Trazado 885342" d="M283.674,149.535a2.052,2.052,0,1,0,2.052-2.053,2.054,2.054,0,0,0-2.052,2.053" fill="#cc1b38"/>
        <path id="Trazado_885343" data-name="Trazado 885343" d="M279.384,149.535a6.342,6.342,0,1,1,6.342,6.342,6.351,6.351,0,0,1-6.342-6.342m.924,0a5.419,5.419,0,1,0,5.418-5.418,5.428,5.428,0,0,0-5.418,5.418" fill="#cc1b38"/>
        <path id="Trazado_885344" data-name="Trazado 885344" d="M275.558,149.537a10.169,10.169,0,1,1,10.168,10.171,10.178,10.178,0,0,1-10.168-10.171m.92,0a9.247,9.247,0,1,0,9.248-9.249,9.255,9.255,0,0,0-9.248,9.249" fill="#cc1b38"/>
        <path id="Trazado_885345" data-name="Trazado 885345" d="M271.726,149.535a14,14,0,1,1,14,14,14.016,14.016,0,0,1-14-14m.922,0a13.078,13.078,0,1,0,13.078-13.077,13.091,13.091,0,0,0-13.078,13.077" fill="#cc1b38"/>
        <rect id="Rectángulo_402698" data-name="Rectángulo 402698" width="4.751" height="11.966" transform="translate(297.806 169.969) rotate(-35.657)" fill="#398fb9"/>
        <path id="Trazado_885346" data-name="Trazado 885346" d="M303.679,170a11.986,11.986,0,0,1-3.865,2.768l-.99-1.384,3.861-2.769Z" fill="#20759e"/>
        <path id="Trazado_885347" data-name="Trazado 885347" d="M301.212,171.131a26.723,26.723,0,1,1,6.143-37.289,26.747,26.747,0,0,1-6.143,37.289m-29.531-41.183a23.952,23.952,0,1,0,33.422,5.507,23.989,23.989,0,0,0-33.422-5.507" fill="#398fb9"/>
        <path id="Trazado_885348" data-name="Trazado 885348" d="M300.407,170.01a25.2,25.2,0,1,1,5.793-35.16,25.221,25.221,0,0,1-5.793,35.16m-27.875-38.871a22.64,22.64,0,1,0,31.592,5.2,22.658,22.658,0,0,0-31.592-5.2" fill="#20759e"/>
        <path id="Trazado_885349" data-name="Trazado 885349" d="M335.919,217.438l-1.521,1.087a2.546,2.546,0,0,1-3.557-.586l-26.766-37.314a2.557,2.557,0,0,1,.59-3.563l1.518-1.091a2.554,2.554,0,0,1,3.566.585l26.758,37.317a2.558,2.558,0,0,1-.588,3.565" fill="#14232f"/>
        <g id="Grupo_1103190" data-name="Grupo 1103190" opacity="0.5">
          <g id="Grupo_1103189" data-name="Grupo 1103189">
            <g id="Grupo_1103188" data-name="Grupo 1103188" clip-path="url(#clip-path-3)">
              <path id="Trazado_885350" data-name="Trazado 885350" d="M272.532,131.139a22.64,22.64,0,1,0,31.592,5.2,22.658,22.658,0,0,0-31.592-5.2" fill="#b8e2fd"/>
            </g>
          </g>
        </g>
        <g id="Grupo_1103193" data-name="Grupo 1103193" opacity="0.7">
          <g id="Grupo_1103192" data-name="Grupo 1103192">
            <g id="Grupo_1103191" data-name="Grupo 1103191" clip-path="url(#clip-path-4)">
              <path id="Trazado_885351" data-name="Trazado 885351" d="M272.157,136.572a21.907,21.907,0,0,1,18.33-7.554,21.005,21.005,0,0,0-18.318,36.423c.24.205.5.377.74.57a21.973,21.973,0,0,1-.752-29.439" fill="#fff"/>
            </g>
          </g>
        </g>
        <path id="Trazado_885352" data-name="Trazado 885352" d="M341.939,288.3l-3.221.1-1.07-7.865,4.3-.066Z" fill="#fda78c"/>
        <path id="Trazado_885353" data-name="Trazado 885353" d="M334.14,291.06c-.066,1.217,2.006,1.167,3.035,1.2,1.293.048,3.4.021,4.385-.634.959-.652.473-3.209.375-3.958a8.342,8.342,0,0,1-3.3.108,15.752,15.752,0,0,1-1.523.784,14.267,14.267,0,0,0-1.879,1.078c-.475.34-1.055.794-1.092,1.42" fill="#14232f"/>
        <path id="Trazado_885354" data-name="Trazado 885354" d="M361.554,286.808l-3.148.673-2.457-7.546,4.22-.831Z" fill="#fda78c"/>
        <path id="Trazado_885355" data-name="Trazado 885355" d="M354.376,290.917c.154,1.21,2.185.786,3.2.642,1.281-.183,3.359-.588,4.195-1.412s-.1-3.24-.334-3.959a8.246,8.246,0,0,1-3.228.7,16.713,16.713,0,0,1-1.359,1.043,13.827,13.827,0,0,0-1.653,1.393,2.16,2.16,0,0,0-.824,1.6" fill="#14232f"/>
        <path id="Trazado_885356" data-name="Trazado 885356" d="M337.56,172.621c-.061,1.076-.227,5.3.6,7.473a2.719,2.719,0,0,0,2.908,1.853,11.084,11.084,0,0,1,.043,1.6,16.1,16.1,0,0,0,5.318-.081,15.631,15.631,0,0,1-.227-4.761c-2.492-4.8-8.646-6.084-8.646-6.084" fill="#fda78c"/>
        <path id="Trazado_885357" data-name="Trazado 885357" d="M350.331,167.441a1.279,1.279,0,0,1,.475.057.141.141,0,0,0,.136-.235,5.654,5.654,0,0,0-3.888-1.835.133.133,0,0,0,0-.234,5.131,5.131,0,0,0-4.338-.309.109.109,0,0,0-.084-.087,4.044,4.044,0,0,0-3.1.18,3.843,3.843,0,0,0-1.314,1.012c-.45.537-.655,1.205-1.229,1.638a2.5,2.5,0,0,0-1.1,2.6,3.18,3.18,0,0,0,1.644,2.322,5.23,5.23,0,0,1,.258,1.3,6.878,6.878,0,0,0,.074,1.578,1.012,1.012,0,0,0,.742.758.762.762,0,0,0,.416-.061,2.8,2.8,0,0,0,.9,1.185c.689.528,1.455.943,2.129,1.5a13.693,13.693,0,0,1,1.8,2.053,3.407,3.407,0,0,0,1.888,1.347.144.144,0,0,0,.176-.175,3.067,3.067,0,0,1-.072-.38l.2.178a.144.144,0,0,0,.242-.1c.037-1.252,1.074-2.005,1.924-2.769a4.623,4.623,0,0,0,1.441-2.172,12.681,12.681,0,0,0,.432-4.034c.068.1.133.2.2.3a.142.142,0,0,0,.256-.034c.117-.335.233-.669.342-1.007.09-.277.187-.555.252-.844a.143.143,0,0,0,.267-.015,3.425,3.425,0,0,0-1.062-3.721" fill="#14232f"/>
        <path id="Trazado_885358" data-name="Trazado 885358" d="M340.3,176.848c-.191.747-.75,1.251-1.244,1.124s-.742-.84-.549-1.586.717-1.115,1.213-.987.773.7.58,1.449" fill="#fda78c"/>
        <path id="Trazado_885359" data-name="Trazado 885359" d="M359.314,213.627c1.359-2.1,0-8.83-.389-10.119H354.8v13.32a10.771,10.771,0,0,0,4.51-3.2" fill="#fda78c"/>
        <path id="Trazado_885360" data-name="Trazado 885360" d="M361.909,283.574c-.285-3.592-2.557-19.232-3.539-22.813-1.93-7.016-1.5-24.058-1.93-29.484l-26.953-.8c-.918,6.231-.281,15.526.41,22.5.774,7.793,3.131,21.97,7.545,32.46l5.121-.128c.406-10.01.34-20.014,1.369-29.984.006-.013,1.227,4.087,2.907,8.229,2.209,5.469,8.945,18.83,10.091,21.151Z" fill="#398fb9"/>
        <path id="Trazado_885361" data-name="Trazado 885361" d="M329.454,204.392c-.121,7.252-1.428,29.91-1.441,30.076a43.037,43.037,0,0,1,12.884,0c9.864,1.662,16.3,0,16.3,0,.258-8.035.137-19.591-.484-27.607.709-.346,3.3-1.5,3.3-1.5-1.064-7.27-1.683-11.811-4.564-15.674-2.061-2.757-6.516-4.593-8.076-5.335,0,0-.485-.834-.754-1.34l-6.094-.062a7.689,7.689,0,0,0-.566,1.418c-4.115,1.207-8.174,2.828-10.475,6.171-3.416,4.963-5.816,8.764-5.816,8.764a45.167,45.167,0,0,0,5.783,5.088" fill="#ffdec9"/>
        <path id="Trazado_885362" data-name="Trazado 885362" d="M343.933,255.316q.805-7.1,1.268-14.234c.011-.146-.209-.142-.219,0q-.463,7.131-1.272,14.234c-.017.144.209.144.223,0" fill="#20759e"/>
        <path id="Trazado_885363" data-name="Trazado 885363" d="M356.866,206.815a67.809,67.809,0,0,0-1.947-15.056.111.111,0,0,0-.213.061,66.914,66.914,0,0,1,1.935,14.995c.006.144.229.144.225,0" fill="#e6b08e"/>
        <path id="Trazado_885364" data-name="Trazado 885364" d="M334.341,224.694a82.272,82.272,0,0,0,6.211-14.6c.045-.134-.174-.191-.213-.057a82.881,82.881,0,0,1-6.185,14.544c-.071.124.123.235.187.111" fill="#e6b08e"/>
        <path id="Trazado_885365" data-name="Trazado 885365" d="M338.513,218.729a32.044,32.044,0,0,1-4.016,11.483c-.068.129.118.241.19.116a32.382,32.382,0,0,0,4.043-11.539c.017-.141-.194-.2-.217-.06" fill="#e6b08e"/>
        <path id="Trazado_885366" data-name="Trazado 885366" d="M324.679,200.293a38.567,38.567,0,0,0-2.389,3.227c-.769-.574-3.008-3.013-5.832-5.687.076-.569.162-1.128.241-1.694.056-.385.109-.76.162-1.141a3.074,3.074,0,0,0,.1-.891.364.364,0,0,0-.3-.333c-.177-.018-.267.13-.351.261-.363.6-1.092,1.713-1.389,1.406a41.907,41.907,0,0,1-3.125-4.069,4.433,4.433,0,0,0-.119,3.934,14.437,14.437,0,0,0,2.1,3.248c1.234,2.862,4.752,9.668,6.154,11.139a4.876,4.876,0,0,0,4.215,1.518c2.656-.23,6.773-4.9,7.08-5.328Z" fill="#fda78c"/>
        <path id="Trazado_885367" data-name="Trazado 885367" d="M335.976,186.894c2.234,2.779,2.395,6.659,1.586,10-.9,3.689-2.963,6.978-5.018,10.114-.078.12-.261,0-.185-.124a35.308,35.308,0,0,0,4.8-9.345c1-3.438,1-7.574-1.348-10.5-.092-.109.078-.256.166-.146" fill="#e6b08e"/>
        <path id="Trazado_885368" data-name="Trazado 885368" d="M331.368,205.969c.475.351.455.374.934.727.068.049.13.1.2.148a.113.113,0,0,1,.037.151.108.108,0,0,1-.153.042c-.472-.348-.455-.377-.931-.724-.065-.05-.137-.1-.2-.151a.113.113,0,0,1-.041-.149.112.112,0,0,1,.152-.044" fill="#e6b08e"/>
        <path id="Trazado_885369" data-name="Trazado 885369" d="M203.833,285.148H185.68a2.677,2.677,0,0,1-2.659-2.675V251.061a15.241,15.241,0,0,1,1.165-5.839l2.793-6.726H202.53l2.795,6.726a15.2,15.2,0,0,1,1.164,5.839v31.412a2.675,2.675,0,0,1-2.656,2.675" fill="#1c6f73"/>
        <path id="Trazado_885370" data-name="Trazado 885370" d="M186.806,238.5h15.9a1.07,1.07,0,0,0,1.071-1.069v-8.282a1.071,1.071,0,0,0-1.071-1.07h-15.9a1.069,1.069,0,0,0-1.069,1.07v8.282a1.068,1.068,0,0,0,1.069,1.069" fill="#14232f"/>
        <rect id="Rectángulo_402701" data-name="Rectángulo 402701" width="10.918" height="19.508" transform="translate(195.572 254.127)" fill="#3a8f92"/>
        <path id="Trazado_885371" data-name="Trazado 885371" d="M164.107,290.666l-.025-.383-30.609,2.049a.181.181,0,0,0-.171.193l0,.019a.18.18,0,0,0,.194.17Z" fill="#224a5f"/>
        <path id="Trazado_885372" data-name="Trazado 885372" d="M240.447,291.187l-.775-11.58a.917.917,0,0,0-.973-.853L175,283.013a.914.914,0,0,0-.85.975l.773,11.579a.915.915,0,0,0,.973.852l63.7-4.26a.916.916,0,0,0,.855-.972" fill="#b8e2fd"/>
        <rect id="Rectángulo_402702" data-name="Rectángulo 402702" width="3.764" height="3.512" transform="translate(170.664 288.275) rotate(-3.787)" fill="#b8e2fd"/>
        <rect id="Rectángulo_402703" data-name="Rectángulo 402703" width="12.636" height="2.434" transform="translate(239.978 284.183) rotate(-3.839)" fill="#20759e"/>
        <path id="Trazado_885373" data-name="Trazado 885373" d="M254.3,290.776l.283-.019-.844-12.609-.281.021a1.221,1.221,0,0,0-1.137,1.3l.682,10.174a1.218,1.218,0,0,0,1.3,1.135" fill="#20759e"/>
        <path id="Trazado_885374" data-name="Trazado 885374" d="M170.931,292.286l-5.121-.119a1.809,1.809,0,0,1-.24-3.6l5.06-.8Z" fill="#20759e"/>
        <path id="Trazado_885375" data-name="Trazado 885375" d="M189.227,291.333l-.616-9.229-.655.043.62,9.226a.3.3,0,0,0,.328.291h.032a.311.311,0,0,0,.291-.331" fill="#30617a"/>
        <path id="Trazado_885376" data-name="Trazado 885376" d="M193.788,286.234l-.3-4.459-.655.047.3,4.457a.313.313,0,0,0,.333.291l.03,0a.314.314,0,0,0,.292-.334" fill="#30617a"/>
        <path id="Trazado_885377" data-name="Trazado 885377" d="M198.988,290.677l-.618-9.228-.653.045.614,9.228a.316.316,0,0,0,.334.292l.033,0a.314.314,0,0,0,.29-.334" fill="#30617a"/>
        <path id="Trazado_885378" data-name="Trazado 885378" d="M203.546,285.582l-.3-4.458-.654.043.3,4.459a.311.311,0,0,0,.332.291h.031a.313.313,0,0,0,.291-.335" fill="#30617a"/>
        <path id="Trazado_885379" data-name="Trazado 885379" d="M208.745,290.026l-.617-9.228-.654.042.617,9.232a.311.311,0,0,0,.332.289l.034,0a.311.311,0,0,0,.288-.332" fill="#30617a"/>
        <path id="Trazado_885380" data-name="Trazado 885380" d="M213.308,284.931l-.3-4.46-.652.045.3,4.458a.312.312,0,0,0,.333.291h.032a.315.315,0,0,0,.291-.333" fill="#30617a"/>
        <path id="Trazado_885381" data-name="Trazado 885381" d="M218.505,289.373l-.615-9.229-.654.045.616,9.227a.312.312,0,0,0,.331.291h.031a.314.314,0,0,0,.291-.334" fill="#30617a"/>
        <path id="Trazado_885382" data-name="Trazado 885382" d="M223.065,284.278l-.3-4.461-.654.045.3,4.46a.315.315,0,0,0,.333.291l.034,0a.309.309,0,0,0,.285-.332" fill="#30617a"/>
        <path id="Trazado_885383" data-name="Trazado 885383" d="M228.113,288.732l-.618-9.227-.653.041.614,9.23a.313.313,0,0,0,.33.29l.037,0a.313.313,0,0,0,.29-.331" fill="#30617a"/>
        <path id="Trazado_885384" data-name="Trazado 885384" d="M87.354,236.669l2.957,5.278a17.96,17.96,0,0,0,9.986,32.9,17.77,17.77,0,0,0,9.666-2.867h8.96a23.992,23.992,0,1,1-31.569-35.312" fill="#88cefc"/>
        <path id="Trazado_885385" data-name="Trazado 885385" d="M102.113,257.643l7.91-5.689a.475.475,0,0,0,.106-.661L88.172,220.772a.472.472,0,0,0-.661-.109l-7.91,5.689a.476.476,0,0,0-.108.66l21.958,30.524a.475.475,0,0,0,.662.107" fill="#ffdec9"/>
        <rect id="Rectángulo_402704" data-name="Rectángulo 402704" width="6.79" height="8.664" transform="translate(75.74 218.456) rotate(-35.724)" fill="#88cefc"/>
        <path id="Trazado_885386" data-name="Trazado 885386" d="M75.559,218.586l5.873-4.225a.348.348,0,0,0,.079-.489l-.266-.372a.351.351,0,0,0-.49-.079l-5.873,4.224a.353.353,0,0,0-.08.49l.269.371a.351.351,0,0,0,.488.08" fill="#224a5f"/>
        <path id="Trazado_885387" data-name="Trazado 885387" d="M81.034,225.523l5.256-3.782a.143.143,0,0,0,.033-.2l-.048-.067a.142.142,0,0,0-.2-.033l-5.258,3.783a.143.143,0,0,0-.033.2l.05.066a.142.142,0,0,0,.2.033" fill="#65bceb"/>
        <rect id="Rectángulo_402705" data-name="Rectángulo 402705" width="7.06" height="1.535" transform="translate(103.201 256.86) rotate(-35.721)" fill="#224a5f"/>
        <rect id="Rectángulo_402706" data-name="Rectángulo 402706" width="4.084" height="1.081" transform="matrix(0.812, -0.584, 0.584, 0.812, 105.29, 257.215)" fill="#224a5f"/>
        <path id="Trazado_885388" data-name="Trazado 885388" d="M108.977,272H119.9a.238.238,0,0,0,.237-.237V270.9a.238.238,0,0,0-.237-.238H108.977a.238.238,0,0,0-.235.238v.865a.237.237,0,0,0,.235.237" fill="#224a5f"/>
        <path id="Trazado_885389" data-name="Trazado 885389" d="M94.483,288.046h10.429V280.6l-1.044-6.483a.964.964,0,0,0-.959-.811l-6.4.05a.961.961,0,0,0-.944.8L94.483,280.6Z" fill="#ffdec9"/>
        <path id="Trazado_885390" data-name="Trazado 885390" d="M94,289.386h11.4v-1.1a.237.237,0,0,0-.236-.236H94.235a.237.237,0,0,0-.236.236Z" fill="#224a5f"/>
        <path id="Trazado_885391" data-name="Trazado 885391" d="M86.678,237.262l3.375,4.73a.141.141,0,0,0,.2.034l.066-.047a.144.144,0,0,0,.034-.2l-3.376-4.731a.141.141,0,0,0-.2-.034l-.067.049a.141.141,0,0,0-.033.2" fill="#65bceb"/>
        <path id="Trazado_885392" data-name="Trazado 885392" d="M97.79,277.113a1.907,1.907,0,1,0,1.906-1.906,1.908,1.908,0,0,0-1.906,1.906" fill="#224a5f"/>
        <path id="Trazado_885393" data-name="Trazado 885393" d="M103.827,274.673l1.018,5.579a.141.141,0,0,0,.166.114l.08-.014a.139.139,0,0,0,.112-.165l-1.018-5.58a.143.143,0,0,0-.165-.115l-.08.015a.142.142,0,0,0-.113.166" fill="#65bceb"/>
        <path id="Trazado_885394" data-name="Trazado 885394" d="M95.691,274.4l-1.02,5.58a.143.143,0,0,1-.164.113l-.081-.013a.144.144,0,0,1-.114-.167l1.019-5.578a.143.143,0,0,1,.165-.116l.079.016a.142.142,0,0,1,.116.165" fill="#65bceb"/>
        <path id="Trazado_885395" data-name="Trazado 885395" d="M85.089,291.615h35.783a.237.237,0,0,0,.236-.238v-1.753a.236.236,0,0,0-.236-.238H85.089a.236.236,0,0,0-.237.238v1.753a.236.236,0,0,0,.237.238" fill="#224a5f"/>
      </g>
    </g>
  </g>
</svg>
