<svg id="Grupo_1103203" data-name="Grupo 1103203" xmlns="http://www.w3.org/2000/svg" xmlns:xlink="http://www.w3.org/1999/xlink" width="407.405" height="321.105" viewBox="0 0 407.405 321.105">
  <defs>
    <clipPath id="clip-path">
      <rect id="Rectángulo_402722" data-name="Rectángulo 402722" width="407.405" height="321.105" fill="none"/>
    </clipPath>
  </defs>
  <g id="Grupo_1103202" data-name="Grupo 1103202" clip-path="url(#clip-path)">
    <path id="Trazado_885632" data-name="Trazado 885632" d="M386.693,307.353s39.274-92.67,9.66-167.6c-15.96-40.375-48.724-62.611-97.16-62.342-25.308.143-48.209-16.061-65.229-38.305C213.941,12.938,178.6-8.886,141.952,3.627,80.776,24.516,89.7,79.733,72.462,101.434S36.1,109.8,11.276,159.717c-29.074,58.461,7.257,147.636,7.257,147.636Z" fill="#ece4d8"/>
    <path id="Trazado_885633" data-name="Trazado 885633" d="M391.757,308.308c0,7.064-84.307,12.8-188.3,12.8s-188.3-5.733-188.3-12.8,84.3-12.79,188.3-12.79,188.3,5.728,188.3,12.79" fill="#87d4c7"/>
    <path id="Trazado_885634" data-name="Trazado 885634" d="M136.789,114.182A121.74,121.74,0,0,1,157.46,48.995c5.339-7.917,12.63-19.2,22.4-22.084,7.106-2.094,14.181,2.843,19.574,5.742a10.456,10.456,0,0,0,10.036-.081c5.542-3.077,12.832-8.367,20.175-6.2,9.769,2.879,17.15,14.707,22.488,22.624a121.726,121.726,0,0,1,20.674,65.187c.434,21.279-2.41,44.951-16.7,61.6-12.031,14.008-32.582,21.079-51.306,21.079s-39.647-7.071-51.679-21.079c-14.292-16.647-16.763-40.319-16.327-61.6" fill="#e3405b"/>
    <path id="Trazado_885635" data-name="Trazado 885635" d="M142.21,114.114c.411-18.894,9.682-38.006,21.077-53.826,4.681-6.5,10.384-13.539,18.95-15.9s10.576,4.554,22.56,4.4c13.131-.165,13.983-6.772,22.561-4.4s14.271,9.4,18.95,15.9c11.4,15.82,21.338,34.514,21.75,53.406.379,17.471-7.863,35.943-20.4,49.608-10.551,11.5-26.441,17.125-42.863,17.125S172.485,174.8,161.936,163.3c-12.537-13.665-20.105-31.717-19.726-49.188" fill="#c6353c"/>
    <path id="Trazado_885636" data-name="Trazado 885636" d="M196.318,61.342a2.87,2.87,0,0,1,3.669,3.059c-.454,4.017-1.581,10.3-4.329,14.778a12.159,12.159,0,0,0-1.692,6.368c0,6.609,3.543,11.967,10.944,11.967,6.954,0,10.945-5.358,10.945-11.967a12.7,12.7,0,0,0-1.611-6.24,40.437,40.437,0,0,1-4.989-15.229,2.849,2.849,0,0,1,3.445-3.093c16.547,3.912,28.971,20.392,28.971,40.136,0,22.659-16.359,41.026-36.538,41.026S168.6,123.78,168.6,101.121c0-19.24,11.8-35.351,27.723-39.779" fill="#9e2a30"/>
    <path id="Trazado_885637" data-name="Trazado 885637" d="M264.3,135.795A81.121,81.121,0,0,1,247.659,163.3c-10.55,11.5-26.441,17.125-42.862,17.125S172.485,174.8,161.935,163.3a77.121,77.121,0,0,1-16.294-27.515s21.738-15.381,59.492-15.381c34.958,0,59.165,15.388,59.165,15.388" fill="#ff6f7f"/>
    <path id="Trazado_885638" data-name="Trazado 885638" d="M151.115,80.555a135.955,135.955,0,0,1,12.172-20.267c4.68-6.5,10.384-13.54,18.95-15.9s10.575,4.555,22.56,4.4c13.131-.166,13.983-6.772,22.56-4.4s14.271,9.4,18.951,15.9A152.862,152.862,0,0,1,258.79,80.555S246.8,66,228.287,58.21c-6.906-2.9-39.1-3.591-46.926.252-16.35,8.036-30.246,22.093-30.246,22.093" fill="#fff"/>
    <path id="Trazado_885639" data-name="Trazado 885639" d="M232.081,145.62c-8.064-4.326-17.685-5.621-26.727-5.629-9.443-.01-19.3,1.423-27.842,5.629-.812.4-1.528-.818-.712-1.22,8.771-4.315,18.854-5.835,28.554-5.821,9.3.012,19.151,1.375,27.438,5.821.8.432.09,1.65-.711,1.22" fill="#e3405b"/>
    <path id="Trazado_885640" data-name="Trazado 885640" d="M245.675,165.291c-10.506,10.16-25.474,15.137-40.919,15.137s-30.412-4.977-40.919-15.137a157.667,157.667,0,0,0,17.657,5.3c7.011,1.672,40.617,1.9,48.1,0a123.478,123.478,0,0,0,16.08-5.3" fill="#fff"/>
    <path id="Trazado_885641" data-name="Trazado 885641" d="M215.009,45.411c1.454-3.283.95-7,.471-10.435a.707.707,0,0,1,.476-.84.683.683,0,0,1,.84.476c.539,3.852,1.018,7.819-.607,11.488-.354.8-1.534.108-1.18-.689" fill="#cc1b38"/>
    <path id="Trazado_885642" data-name="Trazado 885642" d="M193.714,46.1c-1.625-3.669-1.147-7.636-.607-11.487a.683.683,0,0,1,.84-.477.7.7,0,0,1,.476.84c-.479,3.435-.982,7.152.471,10.435.353.8-.826,1.493-1.18.689" fill="#cc1b38"/>
    <path id="Trazado_885643" data-name="Trazado 885643" d="M113.5,173.927l-5.176-4.281s4.627-6.963,5.583-8.786c.619-1.186.98-2.953,2.211-3.752,1.419-.916,3.138-.846,5.4-3.116.289-.291.753.008.739.446a2.312,2.312,0,0,1-.534,1.379,8.549,8.549,0,0,1-1.683,1.689,13.138,13.138,0,0,0,4.266-.107c1.083-.358,2.609-2.815,3.383-2.924.644-.092.945.383,1.024.939.138.944-.78,4.192-2.619,5.4-2.051,1.351-8.583,2.558-8.583,2.558-.329.642-4.013,10.552-4.013,10.552" fill="#fda78c"/>
    <path id="Trazado_885644" data-name="Trazado 885644" d="M93.331,299.886l4.91-.066,1.092-12.038-6.544.188Z" fill="#fda78c"/>
    <path id="Trazado_885645" data-name="Trazado 885645" d="M103.619,301.464a21.584,21.584,0,0,0-2.925-1.513,24.052,24.052,0,0,1-2.368-1.089c-1.613.655-5.038.06-5.038.06-.1,1.149-.658,5.068.846,5.995,1.528.939,4.747.831,6.71.672,1.563-.125,4.724-.189,4.539-2.034-.1-.953-1.016-1.6-1.764-2.091" fill="#14232f"/>
    <path id="Trazado_885646" data-name="Trazado 885646" d="M60.814,299.886l4.909-.066,1.093-12.038-6.541.188Z" fill="#fda78c"/>
    <path id="Trazado_885647" data-name="Trazado 885647" d="M71.1,301.464a21.606,21.606,0,0,0-2.927-1.513,24.952,24.952,0,0,1-2.369-1.089c-1.612.655-5.032.06-5.032.06-.1,1.149-.662,5.068.843,5.995,1.528.939,4.746.831,6.709.672,1.566-.125,4.725-.189,4.54-2.034-.1-.953-1.017-1.6-1.764-2.091" fill="#14232f"/>
    <path id="Trazado_885648" data-name="Trazado 885648" d="M104.457,294.658H89.282c.514-8.708,1.768-36.928.734-41.423-1.388-6.051-14.186-26.268-14.186-26.268.395,7.745-1.9,21.177-2.954,33.055-1.308,14.7-1.709,25.674-1.622,34.636H56.987s1.007-28.2.369-42.546c-.329-7.4-1.958-16.7-3.022-25.145-1.894-15.082-.115-29.564.016-34.7l29.227-.6c-.73,2.513-.09,5.127,1.6,7.823,7.93,12.668,19.384,39.692,20.926,49.072.674,4.111-.438,13.918-.71,19.757-.292,6.349-.933,26.336-.933,26.336" fill="#ffdec9"/>
    <path id="Trazado_885649" data-name="Trazado 885649" d="M75.8,226.41c.055-10.434.048-14.376-.02-24.812a.166.166,0,0,1,.332,0c.071,10.436.077,14.378.02,24.812a.166.166,0,0,1-.332,0" fill="#e6b08e"/>
    <path id="Trazado_885650" data-name="Trazado 885650" d="M30.7,184.752c-1.62-4.863,3.9-10.9,7.7-16.952,2.731-4.348,8.02-11.215,12.24-13.35,4.159-2.1,8.9-2.658,10.276-2.988,0,0,19.422-2.162,25.906,2.725,4.77,3.591,11.932,13.549,16.861,19.843a31.723,31.723,0,0,0,4.754-5.275l6.082,3.814c-.393.751-6.2,13.6-12.119,13.63-5.97.033-14.825-13.536-15.565-14.033.934,6.818-1.269,13.772-.727,20.356.689,8.334,9.273,23.054,9.273,23.054-17.192,11.721-42.855,7.263-42.855,7.263-2.069-10.723,1.062-26.124.944-33.858-.087-5.7-1.776-10.086-2.558-17.022,0,0-7.075,7.136-9.237,10.019,1.26,1.65,4.858,7.164,4.858,7.164l-3.876,5.488c-3.94-2.516-10.915-6.765-11.954-9.878" fill="#398fb9"/>
    <path id="Trazado_885651" data-name="Trazado 885651" d="M73.351,145.227l-.047,3.382,3.584,1.94s-.9,2.416-2.1,5.451H63.1c-1.248-2.9-2.19-5.191-2.19-5.191s4.489-1.734,4.51-2c.106-1.1.284-6.072.417-8.148a4.718,4.718,0,0,0,1.056-2.748c.155.021,2.8-8.719,4.642-8.9,4.187-.426,5.734-.369,6.861.609a25.863,25.863,0,0,1,1.217,5.638c.707,4.239-.068,8.016-2.119,9.706-1.058.874-2.971.709-4.145.264" fill="#fda78c"/>
    <path id="Trazado_885652" data-name="Trazado 885652" d="M73.157,145.475a8.594,8.594,0,0,1-3.86-1.716c-.165-.138.073-.373.235-.236a8.274,8.274,0,0,0,3.714,1.631c.211.04.121.363-.089.321" fill="#f5816c"/>
    <path id="Trazado_885653" data-name="Trazado 885653" d="M74.29,155.989c-1.973,5.525-4.474,12.107-5.182,12.107-.624,0-3.441-6.582-5.693-12.107Z" fill="#fff"/>
    <path id="Trazado_885654" data-name="Trazado 885654" d="M86.5,171.685q-.195-4.116-.394-8.233c-.012-.209.318-.272.326-.057q.2,4.116.4,8.233c.008.209-.318.27-.329.057" fill="#20759e"/>
    <path id="Trazado_885655" data-name="Trazado 885655" d="M50.755,171.714q-.467-3.839-.929-7.677c-.025-.211.3-.288.325-.076q.467,3.839.927,7.677c.026.21-.3.288-.323.076" fill="#20759e"/>
    <path id="Trazado_885656" data-name="Trazado 885656" d="M48.728,160a.158.158,0,0,0,.11.2c5.107,1.293,10.335.053,15.511.094a.161.161,0,0,0,.154-.116,51.507,51.507,0,0,0,1.848-12.709,32.108,32.108,0,0,1,.754-6.761,11.927,11.927,0,0,1,2.22-3.371,17.44,17.44,0,0,0,8.526-7.828,42.92,42.92,0,0,1,1.6,4.725c.192-2.293.472-4.981-.514-7.125a5.829,5.829,0,0,0-3.468-3.235c-2.871-1.836-7.068-1.565-10.057-.224a12.981,12.981,0,0,0-6.428,7.073,21.118,21.118,0,0,0-1.344,5.313,57.32,57.32,0,0,1-.767,6.44C55.319,148.84,49.655,153.4,48.728,160" fill="#402013"/>
    <path id="Trazado_885657" data-name="Trazado 885657" d="M67.142,137.829c.561.98,1.547,1.472,2.195,1.1s.721-1.471.159-2.451-1.44-1.293-2.091-.918-.825,1.286-.263,2.268" fill="#fda78c"/>
    <path id="Trazado_885658" data-name="Trazado 885658" d="M70.135,159.3a.171.171,0,0,0,.15.2c3.842.434,7.618-.892,11.466-.5a.152.152,0,0,0,.167-.16c-.39-6.2-1.285-12.474-2.181-18.619a9.124,9.124,0,0,1-1.82,4.308c-1.236,1.206-2.027,1.188-4.566.694a44.243,44.243,0,0,0-1.907,6.89q-.657,3.594-1.309,7.186" fill="#402013"/>
    <rect id="Rectángulo_402717" data-name="Rectángulo 402717" width="29.578" height="8.437" transform="matrix(0.824, -0.566, 0.566, 0.824, 141.74, 141.608)" fill="#88cefc"/>
    <path id="Trazado_885659" data-name="Trazado 885659" d="M161.086,128.329a21.2,21.2,0,0,0,4.775,6.956l2.492-1.711-4.776-6.956Z" fill="#65bceb"/>
    <path id="Trazado_885660" data-name="Trazado 885660" d="M52.026,206.523l1.656,2.416a3.993,3.993,0,0,0,5.548,1.032L146.7,149.937a3.991,3.991,0,0,0,1.031-5.548l-1.656-2.416a3.994,3.994,0,0,0-5.55-1.029L53.057,200.976a3.99,3.99,0,0,0-1.031,5.547" fill="#14232f"/>
    <path id="Trazado_885661" data-name="Trazado 885661" d="M169.826,102.487A20.577,20.577,0,1,1,164.5,131.1a20.6,20.6,0,0,1,5.322-28.614m2.752,4.011a15.714,15.714,0,1,0,21.849,4.065,15.734,15.734,0,0,0-21.849-4.065" fill="#20759e"/>
    <path id="Trazado_885662" data-name="Trazado 885662" d="M171.127,104.6a18.1,18.1,0,1,1-4.68,25.161,18.117,18.117,0,0,1,4.68-25.161" fill="#b8e2fd"/>
    <path id="Trazado_885663" data-name="Trazado 885663" d="M181.378,101.44,197.549,127.6a17.883,17.883,0,0,1-2.072,3.244l-17.925-29a17.982,17.982,0,0,1,3.826-.4" fill="#e7f5fe"/>
    <path id="Trazado_885664" data-name="Trazado 885664" d="M171.127,104.6a17.945,17.945,0,0,1,3.476-1.853l18.741,30.324a17.546,17.546,0,0,1-6.81,3.787l-18.361-29.71a18.133,18.133,0,0,1,2.954-2.548" fill="#e7f5fe"/>
    <path id="Trazado_885665" data-name="Trazado 885665" d="M46.3,189.477c4.677,5.144,6.525,6.567,6.592,6.6a32.084,32.084,0,0,1,4.943,1.752,5.715,5.715,0,0,1,1.048,1.335c1.3,1.98,2.115,7.345,1.229,7.9-1.174.738-2.925-.663-3.536-1.4A13.9,13.9,0,0,0,53.864,203a10.94,10.94,0,0,1-2.5-2.045,6.631,6.631,0,0,1-1.135-2.1c-4.393-2.34-2.933-2.227-7.318-4.575Z" fill="#fda78c"/>
    <path id="Trazado_885666" data-name="Trazado 885666" d="M140.892,230.73a206.776,206.776,0,0,1,8.84,19.89c2.7,7.209,4.9,14.6,7.024,21.993.168.584-.729.888-.894.3-2.1-7.275-4.254-14.541-6.894-21.636a203.424,203.424,0,0,0-8.865-20.029c-.269-.54.517-1.067.789-.523" fill="#87d4c7"/>
    <path id="Trazado_885667" data-name="Trazado 885667" d="M135.259,221.476c4.107,1.61,6.975,6.323,6.006,10.668a.2.2,0,0,1-.258.145c-4.219-1.42-6.762-6.317-6.014-10.663a.2.2,0,0,1,.266-.15" fill="#87d4c7"/>
    <path id="Trazado_885668" data-name="Trazado 885668" d="M134.936,236.725c4.265-1.126,9.366.979,11.149,5.058a.2.2,0,0,1-.122.269c-4.243,1.346-9.189-1.1-11.155-5.048a.2.2,0,0,1,.128-.279" fill="#87d4c7"/>
    <path id="Trazado_885669" data-name="Trazado 885669" d="M153.241,239.885c1.546,4.132-.04,9.413-3.921,11.6a.2.2,0,0,1-.279-.1c-1.763-4.087.176-9.251,3.912-11.6a.2.2,0,0,1,.288.1" fill="#87d4c7"/>
    <path id="Trazado_885670" data-name="Trazado 885670" d="M142.5,255.5c4.323-.871,9.288,1.531,10.827,5.708a.2.2,0,0,1-.136.263c-4.316,1.093-9.106-1.64-10.834-5.7a.2.2,0,0,1,.143-.27" fill="#87d4c7"/>
    <path id="Trazado_885671" data-name="Trazado 885671" d="M153.266,207.56c8.694,18.554,13.815,38.78,17.224,58.918.1.6-.811.852-.912.252-3.394-20.051-8.472-40.219-17.127-58.691-.258-.548.557-1.031.815-.479" fill="#87d4c7"/>
    <path id="Trazado_885672" data-name="Trazado 885672" d="M148.171,198c4.008,1.844,6.6,6.714,5.387,11a.2.2,0,0,1-.265.13c-4.131-1.659-6.394-6.692-5.4-10.989a.2.2,0,0,1,.275-.136" fill="#87d4c7"/>
    <path id="Trazado_885673" data-name="Trazado 885673" d="M145.925,211.258c4.323-.881,9.292,1.514,10.841,5.686a.2.2,0,0,1-.137.262c-4.31,1.1-9.109-1.62-10.846-5.675a.2.2,0,0,1,.142-.273" fill="#87d4c7"/>
    <path id="Trazado_885674" data-name="Trazado 885674" d="M161.378,205.791c1.308,4.212-.578,9.4-4.576,11.355a.2.2,0,0,1-.275-.11c-1.527-4.183.706-9.227,4.566-11.36a.2.2,0,0,1,.285.115" fill="#87d4c7"/>
    <path id="Trazado_885675" data-name="Trazado 885675" d="M150.4,222.772c4.321-.881,9.291,1.512,10.841,5.686a.2.2,0,0,1-.136.262c-4.314,1.1-9.111-1.622-10.847-5.677a.2.2,0,0,1,.142-.271" fill="#87d4c7"/>
    <path id="Trazado_885676" data-name="Trazado 885676" d="M165.848,217.3c1.308,4.212-.577,9.4-4.575,11.354a.2.2,0,0,1-.275-.111c-1.527-4.181.705-9.227,4.565-11.358a.2.2,0,0,1,.285.115" fill="#87d4c7"/>
    <path id="Trazado_885677" data-name="Trazado 885677" d="M154.139,234.092c4.367-.624,9.188,2.059,10.487,6.316a.2.2,0,0,1-.15.254c-4.372.845-9-2.157-10.492-6.308a.2.2,0,0,1,.155-.262" fill="#87d4c7"/>
    <path id="Trazado_885678" data-name="Trazado 885678" d="M169.887,229.546c1.056,4.284-1.132,9.348-5.238,11.065a.2.2,0,0,1-.267-.126c-1.278-4.265,1.248-9.169,5.229-11.071a.2.2,0,0,1,.276.132" fill="#87d4c7"/>
    <path id="Trazado_885679" data-name="Trazado 885679" d="M157.667,247.546c4.389-.449,9.1,2.425,10.226,6.73a.2.2,0,0,1-.162.247c-4.4.67-8.906-2.515-10.231-6.722a.2.2,0,0,1,.167-.255" fill="#87d4c7"/>
    <path id="Trazado_885680" data-name="Trazado 885680" d="M173.584,243.633c.885,4.321-1.506,9.292-5.679,10.845a.2.2,0,0,1-.26-.137c-1.107-4.313,1.614-9.11,5.668-10.85a.2.2,0,0,1,.271.142" fill="#87d4c7"/>
    <path id="Trazado_885681" data-name="Trazado 885681" d="M141.312,269.771l6.321,34.211a3.069,3.069,0,0,0,3.576,2.46l57.123-10.557a3.067,3.067,0,0,0,2.46-3.576L204.47,258.1a3.072,3.072,0,0,0-3.577-2.462l-57.12,10.557a3.069,3.069,0,0,0-2.461,3.577" fill="#ffdec9"/>
    <path id="Trazado_885682" data-name="Trazado 885682" d="M201.673,276.048l-51.333,9.486a.227.227,0,0,0-.177.261l.01.058a.223.223,0,0,0,.261.178l51.33-9.486a.221.221,0,0,0,.177-.26l-.011-.056a.223.223,0,0,0-.257-.181" fill="#e6b08e"/>
    <path id="Trazado_885683" data-name="Trazado 885683" d="M192.748,268.345l4.049-.748-.73-3.949a1.811,1.811,0,0,0-2.112-1.453l-.483.089a1.812,1.812,0,0,0-1.453,2.113Z" fill="#20759e"/>
    <path id="Trazado_885684" data-name="Trazado 885684" d="M195.589,273.748l.484-.089a1.815,1.815,0,0,0,1.453-2.113l-.73-3.948-4.049.748.728,3.947a1.816,1.816,0,0,0,2.114,1.455" fill="#88cefc"/>
    <path id="Trazado_885685" data-name="Trazado 885685" d="M182.52,270.236l4.051-.748-.731-3.949a1.816,1.816,0,0,0-2.113-1.455l-.482.09a1.814,1.814,0,0,0-1.455,2.113Z" fill="#20759e"/>
    <path id="Trazado_885686" data-name="Trazado 885686" d="M185.362,275.637l.483-.089a1.813,1.813,0,0,0,1.454-2.114l-.728-3.947-4.051.749.729,3.946a1.815,1.815,0,0,0,2.113,1.455" fill="#88cefc"/>
    <path id="Trazado_885687" data-name="Trazado 885687" d="M172.148,272.153l4.049-.75-.729-3.948A1.81,1.81,0,0,0,173.355,266l-.483.088a1.811,1.811,0,0,0-1.453,2.112Z" fill="#20759e"/>
    <path id="Trazado_885688" data-name="Trazado 885688" d="M174.99,277.553l.483-.089a1.813,1.813,0,0,0,1.454-2.113l-.73-3.948-4.049.75.731,3.946a1.811,1.811,0,0,0,2.111,1.454" fill="#88cefc"/>
    <path id="Trazado_885689" data-name="Trazado 885689" d="M162.375,273.96l4.05-.749-.73-3.949a1.815,1.815,0,0,0-2.114-1.453l-.481.09a1.811,1.811,0,0,0-1.454,2.112Z" fill="#20759e"/>
    <path id="Trazado_885690" data-name="Trazado 885690" d="M165.217,279.359l.482-.088a1.812,1.812,0,0,0,1.454-2.113l-.729-3.947-4.05.749.729,3.947a1.814,1.814,0,0,0,2.114,1.452" fill="#88cefc"/>
    <path id="Trazado_885691" data-name="Trazado 885691" d="M151.873,275.9l4.049-.748-.73-3.948a1.808,1.808,0,0,0-2.112-1.453l-.482.09a1.811,1.811,0,0,0-1.454,2.112Z" fill="#20759e"/>
    <path id="Trazado_885692" data-name="Trazado 885692" d="M154.714,281.3l.482-.09a1.814,1.814,0,0,0,1.456-2.113l-.731-3.947-4.049.748.731,3.947a1.812,1.812,0,0,0,2.111,1.455" fill="#88cefc"/>
    <path id="Trazado_885693" data-name="Trazado 885693" d="M196.429,288.264l4.051-.747-.732-3.948a1.813,1.813,0,0,0-2.112-1.455l-.483.089a1.814,1.814,0,0,0-1.454,2.114Z" fill="#20759e"/>
    <path id="Trazado_885694" data-name="Trazado 885694" d="M199.271,293.667l.483-.09a1.812,1.812,0,0,0,1.454-2.113l-.728-3.947-4.051.748.729,3.948a1.816,1.816,0,0,0,2.113,1.454" fill="#88cefc"/>
    <path id="Trazado_885695" data-name="Trazado 885695" d="M186.2,290.155l4.048-.749-.73-3.947a1.812,1.812,0,0,0-2.113-1.454l-.482.088a1.817,1.817,0,0,0-1.455,2.114Z" fill="#20759e"/>
    <path id="Trazado_885696" data-name="Trazado 885696" d="M189.046,295.556l.481-.089a1.816,1.816,0,0,0,1.455-2.113l-.731-3.948-4.049.749.728,3.947a1.817,1.817,0,0,0,2.116,1.454" fill="#88cefc"/>
    <path id="Trazado_885697" data-name="Trazado 885697" d="M175.83,292.072l4.05-.749-.73-3.947a1.813,1.813,0,0,0-2.113-1.455l-.483.089a1.814,1.814,0,0,0-1.454,2.113Z" fill="#20759e"/>
    <path id="Trazado_885698" data-name="Trazado 885698" d="M178.671,297.473l.482-.09a1.81,1.81,0,0,0,1.455-2.113l-.729-3.947-4.05.749.73,3.946a1.812,1.812,0,0,0,2.112,1.455" fill="#88cefc"/>
    <path id="Trazado_885699" data-name="Trazado 885699" d="M166.055,293.879l4.05-.749-.729-3.947a1.813,1.813,0,0,0-2.114-1.454l-.483.088a1.812,1.812,0,0,0-1.453,2.112Z" fill="#20759e"/>
    <path id="Trazado_885700" data-name="Trazado 885700" d="M168.9,299.28l.481-.089a1.814,1.814,0,0,0,1.455-2.114l-.73-3.947-4.05.749.73,3.947a1.816,1.816,0,0,0,2.114,1.454" fill="#88cefc"/>
    <path id="Trazado_885701" data-name="Trazado 885701" d="M155.554,295.819l4.05-.748-.729-3.948a1.815,1.815,0,0,0-2.114-1.455l-.483.089a1.816,1.816,0,0,0-1.454,2.114Z" fill="#20759e"/>
    <path id="Trazado_885702" data-name="Trazado 885702" d="M158.4,301.22l.483-.09a1.814,1.814,0,0,0,1.454-2.113l-.729-3.946-4.05.748.73,3.947a1.813,1.813,0,0,0,2.112,1.454" fill="#88cefc"/>
    <path id="Trazado_885703" data-name="Trazado 885703" d="M219.831,228.793a3.536,3.536,0,0,0,2.7-3.307h21.128a3.535,3.535,0,0,0,2.695,3.307,13.37,13.37,0,0,1,10.211,12.661v60.068a4.089,4.089,0,0,1-4.231,3.928H213.852a4.09,4.09,0,0,1-4.233-3.928V241.454a13.37,13.37,0,0,1,10.212-12.661" fill="#3a8f92"/>
    <path id="Trazado_885704" data-name="Trazado 885704" d="M220.661,225.486h24.858a1.751,1.751,0,0,0,1.75-1.753v-7.792a1.75,1.75,0,0,0-1.75-1.751H220.661a1.751,1.751,0,0,0-1.752,1.751v7.792a1.752,1.752,0,0,0,1.752,1.753" fill="#224a5f"/>
    <rect id="Rectángulo_402718" data-name="Rectángulo 402718" width="26.074" height="31.303" transform="translate(230.486 252.561)" fill="#1c6f73"/>
    <path id="Trazado_885705" data-name="Trazado 885705" d="M238.349,260.593H256.56v1.5H238.349a.748.748,0,1,1,0-1.5" fill="#87d4c7"/>
    <path id="Trazado_885706" data-name="Trazado 885706" d="M238.349,268.1H256.56v1.5H238.349a.749.749,0,1,1,0-1.5" fill="#87d4c7"/>
    <path id="Trazado_885707" data-name="Trazado 885707" d="M247.989,275.409h8.57v1.5h-8.57a.749.749,0,0,1,0-1.5" fill="#87d4c7"/>
    <path id="Trazado_885708" data-name="Trazado 885708" d="M199.039,311.36h23.408a3.922,3.922,0,0,0,3.922-3.922V259.753H195.117v47.685a3.922,3.922,0,0,0,3.922,3.922" fill="#ffbd66"/>
    <path id="Trazado_885709" data-name="Trazado 885709" d="M195.117,258.11h31.252v-5.2a1.434,1.434,0,0,0-1.435-1.435H196.551a1.433,1.433,0,0,0-1.434,1.435Z" fill="#224a5f"/>
    <path id="Trazado_885710" data-name="Trazado 885710" d="M194.124,259.753h33.237a.78.78,0,0,0,.781-.78v-.081a.78.78,0,0,0-.781-.782H194.124a.78.78,0,0,0-.78.782v.081a.78.78,0,0,0,.78.78" fill="#224a5f"/>
    <path id="Trazado_885711" data-name="Trazado 885711" d="M195.311,258.11h30.864a.18.18,0,0,0,.18-.182v-.018a.179.179,0,0,0-.18-.18H195.311a.18.18,0,0,0-.182.18v.018a.181.181,0,0,0,.182.182" fill="#20759e"/>
    <rect id="Rectángulo_402719" data-name="Rectángulo 402719" width="18.047" height="20.956" transform="translate(208.308 273.731)" fill="#ffa53d"/>
    <path id="Trazado_885712" data-name="Trazado 885712" d="M223.493,256.728v-3.87a.181.181,0,0,0-.182-.181h-.017a.181.181,0,0,0-.183.181v3.87a.183.183,0,0,0,.183.181h.017a.182.182,0,0,0,.182-.181" fill="#20759e"/>
    <path id="Trazado_885713" data-name="Trazado 885713" d="M220.959,256.728v-3.87a.181.181,0,0,0-.181-.181h-.018a.181.181,0,0,0-.183.181v3.87a.182.182,0,0,0,.183.181h.018a.182.182,0,0,0,.181-.181" fill="#20759e"/>
    <path id="Trazado_885714" data-name="Trazado 885714" d="M218.527,256.728v-3.87a.181.181,0,0,0-.182-.181h-.018a.181.181,0,0,0-.182.181v3.87a.182.182,0,0,0,.182.181h.018a.182.182,0,0,0,.182-.181" fill="#20759e"/>
    <path id="Trazado_885715" data-name="Trazado 885715" d="M215.992,256.728v-3.87a.181.181,0,0,0-.182-.181h-.019a.181.181,0,0,0-.181.181v3.87a.182.182,0,0,0,.181.181h.019a.182.182,0,0,0,.182-.181" fill="#20759e"/>
    <path id="Trazado_885716" data-name="Trazado 885716" d="M213.464,256.728v-3.87a.181.181,0,0,0-.183-.181h-.017a.181.181,0,0,0-.183.181v3.87a.183.183,0,0,0,.183.181h.017a.182.182,0,0,0,.183-.181" fill="#20759e"/>
    <path id="Trazado_885717" data-name="Trazado 885717" d="M210.929,256.728v-3.87a.181.181,0,0,0-.182-.181h-.019a.18.18,0,0,0-.181.181v3.87a.182.182,0,0,0,.181.181h.019a.182.182,0,0,0,.182-.181" fill="#20759e"/>
    <path id="Trazado_885718" data-name="Trazado 885718" d="M208.5,256.728v-3.87a.181.181,0,0,0-.182-.181H208.3a.181.181,0,0,0-.182.181v3.87a.182.182,0,0,0,.182.181h.018a.182.182,0,0,0,.182-.181" fill="#20759e"/>
    <path id="Trazado_885719" data-name="Trazado 885719" d="M205.962,256.728v-3.87a.18.18,0,0,0-.182-.181h-.017a.181.181,0,0,0-.182.181v3.87a.182.182,0,0,0,.182.181h.017a.181.181,0,0,0,.182-.181" fill="#20759e"/>
    <path id="Trazado_885720" data-name="Trazado 885720" d="M203.339,256.728v-3.87a.18.18,0,0,0-.181-.181h-.018a.181.181,0,0,0-.182.181v3.87a.182.182,0,0,0,.182.181h.018a.181.181,0,0,0,.181-.181" fill="#20759e"/>
    <path id="Trazado_885721" data-name="Trazado 885721" d="M200.8,256.728v-3.87a.18.18,0,0,0-.181-.181h-.017a.181.181,0,0,0-.183.181v3.87a.182.182,0,0,0,.183.181h.017a.182.182,0,0,0,.181-.181" fill="#20759e"/>
    <path id="Trazado_885722" data-name="Trazado 885722" d="M198.374,256.728v-3.87a.181.181,0,0,0-.182-.181h-.018a.18.18,0,0,0-.181.181v3.87a.182.182,0,0,0,.181.181h.018a.182.182,0,0,0,.182-.181" fill="#20759e"/>
    <path id="Trazado_885723" data-name="Trazado 885723" d="M200.4,300.884c18.869,7.664,51.423,12.7,53.142,12.961l-.357,2.512c-1.725-.229-34.39-4.479-54.649-2.38a114.882,114.882,0,0,1-28-.72l-40.284-5.736a4.685,4.685,0,0,1-3.98-5.3l1.454-10.217a4.683,4.683,0,0,1,5.3-3.977l40.286,5.733a114.752,114.752,0,0,1,27.084,7.123" fill="#398fb9"/>
    <path id="Trazado_885724" data-name="Trazado 885724" d="M260.444,316.036l-.016.127a1.211,1.211,0,0,1-1.371,1.029l-5.871-.835.36-2.525,5.871.836a1.207,1.207,0,0,1,1.027,1.368" fill="#20759e"/>
    <path id="Trazado_885725" data-name="Trazado 885725" d="M161.877,299.462l-.714,5.015a1.3,1.3,0,0,0,1.1,1.473l15.809,2.249a1.3,1.3,0,0,0,1.471-1.1l.714-5.017a1.3,1.3,0,0,0-1.107-1.473l-15.805-2.248a1.3,1.3,0,0,0-1.472,1.1" fill="#b8e2fd"/>
    <path id="Trazado_885726" data-name="Trazado 885726" d="M163.324,297.616l16.059,2.286A1.908,1.908,0,0,1,181,302.058l-.75,5.262a1.907,1.907,0,0,1-2.153,1.621l-16.059-2.287a1.907,1.907,0,0,1-1.618-2.155l.749-5.263a1.906,1.906,0,0,1,2.154-1.62m16.23,4.235a.445.445,0,0,0-.376-.5l-16.059-2.286a.445.445,0,0,0-.5.379l-.749,5.265a.444.444,0,0,0,.378.5l16.057,2.287a.446.446,0,0,0,.5-.375Z" fill="#20759e"/>
    <path id="Trazado_885727" data-name="Trazado 885727" d="M136.226,308.372l-5.97-.851a4.684,4.684,0,0,1-3.979-5.3l1.454-10.217a4.684,4.684,0,0,1,5.3-3.978l5.968.849Z" fill="#20759e"/>
    <path id="Trazado_885728" data-name="Trazado 885728" d="M150.727,297.436a3.025,3.025,0,1,0,2.568,3.42,3.026,3.026,0,0,0-2.568-3.42" fill="#20759e"/>
    <path id="Trazado_885729" data-name="Trazado 885729" d="M352.505,299.929l4.627.068,1.353-11.31h-6.169Z" fill="#a76b63"/>
    <path id="Trazado_885730" data-name="Trazado 885730" d="M351.95,301.9a25.837,25.837,0,0,0,.256,3.346,3.059,3.059,0,0,0,1.484,2.218,4.516,4.516,0,0,0,2.774.295,3.043,3.043,0,0,0,2.191-1.464c.842-1.477.27-3.347-.428-4.848a5.419,5.419,0,0,0-3.433-3.254,2.24,2.24,0,0,0-2.205.772,4.847,4.847,0,0,0-.639,2.935" fill="#14232f"/>
    <path id="Trazado_885731" data-name="Trazado 885731" d="M338.351,299.929l-4.629.068-1.353-11.31h6.171Z" fill="#a76b63"/>
    <path id="Trazado_885732" data-name="Trazado 885732" d="M338.265,298.968a2.239,2.239,0,0,0-2.205-.772,5.426,5.426,0,0,0-3.434,3.254c-.7,1.5-1.269,3.371-.429,4.847a3.054,3.054,0,0,0,2.2,1.465,4.523,4.523,0,0,0,2.773-.295,3.068,3.068,0,0,0,1.487-2.219,25.83,25.83,0,0,0,.252-3.345,4.806,4.806,0,0,0-.639-2.935" fill="#14232f"/>
    <path id="Trazado_885733" data-name="Trazado 885733" d="M365.4,212.373c.18,8.867-.2,29.9-1.166,41.4-1.041,12.331-3.508,40.338-3.66,42.011H349.513c-1.76-14.747-3.73-45.352-4.746-60.17-1.014,14.818-1.822,45.423-3.584,60.17H330.128c-.152-1.673-2.621-29.68-3.66-42.011-.97-11.5-1.765-29.437-1.769-40.979Z" fill="#88cefc"/>
    <path id="Trazado_885734" data-name="Trazado 885734" d="M282.562,146.614c.578-.848,2.279.127,2.76.387a7.972,7.972,0,0,0,4.717,1.133,14.507,14.507,0,0,1,4.5.3,5.649,5.649,0,0,1,4.066,4.45c4.125,4.7,8.885,8.785,12.943,13.543,1.9-1.864,3.133-3.577,5.18-5.282l6.973,9.283c-3.239,3.17-12.485,8.485-14.616,7.186-5.023-3.059-12.25-20.58-14.343-23.027a9.09,9.09,0,0,0-4.055-2.977,15.479,15.479,0,0,0-2.174-.187,7.729,7.729,0,0,1-1.748-.416,7.909,7.909,0,0,1-3.051-2.016c-.416-.445-1.631-1.674-1.152-2.379" fill="#a76b63"/>
    <path id="Trazado_885735" data-name="Trazado 885735" d="M371.962,173.326c.492,2.933.98,7.575,1.176,10.594,3.375,2.3,7.26,6.335,10.76,8.445a19.242,19.242,0,0,1,9.607,2.823c.365.225,3.187,1.91,1.73,2.361a2.748,2.748,0,0,1-1.087-.055c-.489-.068-.969-.158-1.448-.271-.3-.069-.576-.159-.863-.243a13.044,13.044,0,0,0,3.352,3.572c.8.583,3.839,1.876,2.453,3.341a2.26,2.26,0,0,1-1.772.453,36.365,36.365,0,0,1-3.67-.385,7.983,7.983,0,0,1-4.855-2.8c-1.3-1.437-2.656-2.961-3.942-4.49l0,0c-2.929-1.128-6.691-1.952-9.621-3.079-2.541-.982-5.6-1.747-7.568-3.742-1.889-1.913-1.963-4.943-2.348-7.458-.42-2.759-.814-5.524-1.213-8.288Z" fill="#a76b63"/>
    <path id="Trazado_885736" data-name="Trazado 885736" d="M313.861,162.823s8.48-10.748,13.075-13.314c3.522-1.967,10.331-3.161,11.363-3.161l16.136.073s3.246.661,5.669,1.357a15.467,15.467,0,0,1,8.628,6.267c3.044,5,6.833,20.048,6.98,21.011,0,0-7.462,2.118-10.323,2.585.128,11.036-.446,8,.547,27.091.151,2.9.406,9.364.406,9.364-19.763,2.3-42.165.039-42.165.039,1.055-21.734.582-38.118.582-38.118-.849.3-3.888,1.6-3.888,1.6-.448-.845-7.01-14.793-7.01-14.793" fill="#ffdec9"/>
    <path id="Trazado_885737" data-name="Trazado 885737" d="M365.409,177.518q-.08-7.956.324-15.909c.008-.13.211-.13.2,0q-.406,7.949-.326,15.909a.1.1,0,0,1-.2,0" fill="#e6b08e"/>
    <path id="Trazado_885738" data-name="Trazado 885738" d="M324.7,175.815c.064-5.944.174-9.017.33-14.959a.1.1,0,0,1,.2,0c-.156,5.942-.267,9.015-.328,14.959a.1.1,0,0,1-.205,0" fill="#e6b08e"/>
    <path id="Trazado_885739" data-name="Trazado 885739" d="M344.654,236.114q-.354-7.164-.719-14.34c-.008-.127.2-.127.2,0q.366,7.171.723,14.34c.007.133-.2.133-.2,0" fill="#65bceb"/>
    <path id="Trazado_885740" data-name="Trazado 885740" d="M359.427,187.446a90.3,90.3,0,0,1-3.676,16.5c-.041.124-.234.073-.193-.054a90.163,90.163,0,0,0,3.664-16.449c.018-.129.221-.129.205,0" fill="#e6b08e"/>
    <path id="Trazado_885741" data-name="Trazado 885741" d="M355.413,192.371a100.893,100.893,0,0,0,.781-14.18.1.1,0,0,1,.207,0,101.353,101.353,0,0,1-.785,14.18c-.016.126-.219.129-.2,0" fill="#e6b08e"/>
    <path id="Trazado_885742" data-name="Trazado 885742" d="M345.6,161.147l8.838-14.727s-3.865-.78-3.916-1.6c-.092-1.494-.235-3.917-.3-5.67a4.958,4.958,0,0,1-1.027-2.92c-.16.018-2.666-9.516-4.614-9.506-4.244.02-6.293.529-7.507,1.525-.684,1.335-.762,2.682-1.176,4.8-.871,4.437-.174,8.432,1.933,10.275,1.088.95,3.1.835,4.354.4l-.008.351a1.771,1.771,0,0,1-1.277,1.676l-2.6.59Z" fill="#a76b63"/>
    <path id="Trazado_885743" data-name="Trazado 885743" d="M354.722,129.979a4.908,4.908,0,0,1-.5-3.01,3.867,3.867,0,0,0-1.285-3.948,3.59,3.59,0,0,0-3.815-.315c.217-.987-.6-1.661-1.455-1.942a9.68,9.68,0,0,0-3.933-.57,4.066,4.066,0,0,0-1.508.459c-.516.286-.869.857-1.4,1.094a2.061,2.061,0,0,1-1.17.015,4.943,4.943,0,0,0-1.1,0,5.192,5.192,0,0,0-1.694.479,3.494,3.494,0,0,0-1.306,1.045,5.738,5.738,0,0,1-1.272,1.515c-.857.58-1.806.888-2.115,1.988a3.144,3.144,0,0,0,.645,2.766,5.923,5.923,0,0,0,2.838,1.779c.525.079.779-.383,1.107-.724a11.51,11.51,0,0,1,1.734-1.5,12.022,12.022,0,0,1,3.368-1.653,6.5,6.5,0,0,1,3.66,4.056,8.831,8.831,0,0,0,.709,2.966,1.909,1.909,0,0,0,1.736.973,19.166,19.166,0,0,0,.6,2.763c.236.81.5,1.606.779,2.4a2.416,2.416,0,0,0,.891,1.49.121.121,0,0,0,.171-.138c-.183-1.206,1.008-1.872,1.727-2.614a4.074,4.074,0,0,0,.955-2.049,6.21,6.21,0,0,1,.408-1.342,9.516,9.516,0,0,1,.8-1.246,4.735,4.735,0,0,0,.908-2.213,4.973,4.973,0,0,0-.49-2.525" fill="#14232f"/>
    <path id="Trazado_885744" data-name="Trazado 885744" d="M348.937,136.137c-.621,1.014-1.668,1.5-2.342,1.09s-.713-1.569-.09-2.584,1.551-1.313,2.225-.9.828,1.38.207,2.395" fill="#a76b63"/>
    <path id="Trazado_885745" data-name="Trazado 885745" d="M342.3,143.723a8.7,8.7,0,0,0,3.715-2.115c.092-.094.234.05.144.142a8.881,8.881,0,0,1-3.8,2.168c-.125.039-.178-.156-.055-.195" fill="#8b5348"/>
    <path id="Trazado_885746" data-name="Trazado 885746" d="M351.349,151.561l-5.752,9.586-4.726-9.586Z" fill="#fff"/>
    <path id="Trazado_885747" data-name="Trazado 885747" d="M350.972,144.632a32.272,32.272,0,0,1,2.353,8.618c.04.287-.417.286-.453,0a31.607,31.607,0,0,0-2.3-8.389c-.113-.263.276-.495.395-.229" fill="#14232f"/>
    <path id="Trazado_885748" data-name="Trazado 885748" d="M341.573,145.409a24.885,24.885,0,0,0-5.17,12.541c-.033.287-.488.289-.453,0a25.427,25.427,0,0,1,5.3-12.863c.179-.231.5.1.322.322" fill="#14232f"/>
    <path id="Trazado_885749" data-name="Trazado 885749" d="M334.257,159.055a1.736,1.736,0,1,0,2.07-1.318,1.736,1.736,0,0,0-2.07,1.318" fill="#14232f"/>
    <path id="Trazado_885750" data-name="Trazado 885750" d="M353.273,153.093a14.447,14.447,0,0,1-.334,12.421c-.135.265-.525.033-.4-.229a13.955,13.955,0,0,0,.337-11.964c-.115-.264.278-.5.393-.228" fill="#14232f"/>
    <path id="Trazado_885751" data-name="Trazado 885751" d="M353.3,153.208a13.813,13.813,0,0,0,3.691,11.386c.2.216-.121.537-.324.322a14.264,14.264,0,0,1-3.82-11.708c.035-.286.49-.293.453,0" fill="#14232f"/>
    <path id="Trazado_885752" data-name="Trazado 885752" d="M356.835,165.381c.252.262.6.333.777.161s.121-.521-.129-.784-.6-.332-.777-.159-.121.522.129.782" fill="#14232f"/>
    <path id="Trazado_885753" data-name="Trazado 885753" d="M352.138,165.609c-.162.325-.111.677.109.787s.534-.062.694-.387.113-.673-.108-.783-.535.06-.7.383" fill="#14232f"/>
    <path id="Trazado_885754" data-name="Trazado 885754" d="M295.282,123.278l.773.079,7.5-74.061a.37.37,0,0,0-.33-.4l-.041,0a.37.37,0,0,0-.4.33Z" fill="#14232f"/>
    <path id="Trazado_885755" data-name="Trazado 885755" d="M268.327,276.208l23.486,2.376a1.86,1.86,0,0,0,2.039-1.664l13.082-129.2a1.863,1.863,0,0,0-1.666-2.037L281.78,143.31a1.856,1.856,0,0,0-2.035,1.661l-13.084,129.2a1.865,1.865,0,0,0,1.666,2.038" fill="#b8e2fd"/>
    <rect id="Rectángulo_402720" data-name="Rectángulo 402720" width="7.658" height="7.137" transform="translate(289.977 144.139) rotate(-84.234)" fill="#b8e2fd"/>
    <rect id="Rectángulo_402721" data-name="Rectángulo 402721" width="25.701" height="4.949" transform="translate(275.016 302.717) rotate(-84.202)" fill="#20759e"/>
    <path id="Trazado_885756" data-name="Trazado 885756" d="M264.444,304.142l-.059.571,25.577,2.587.056-.568a2.483,2.483,0,0,0-2.22-2.72l-20.635-2.09a2.486,2.486,0,0,0-2.719,2.22" fill="#20759e"/>
    <path id="Trazado_885757" data-name="Trazado 885757" d="M289.72,136.415l1.975-10.23a3.681,3.681,0,0,1,7.295.739l-.116,10.419Z" fill="#20759e"/>
    <path id="Trazado_885758" data-name="Trazado 885758" d="M285.421,173.428l18.719,1.9.133-1.324-18.719-1.9a.631.631,0,0,0-.692.565l-.007.066a.628.628,0,0,0,.566.692" fill="#398fb9"/>
    <path id="Trazado_885759" data-name="Trazado 885759" d="M294.091,184.31l9.047.916.133-1.328-9.043-.918a.639.639,0,0,0-.7.566l-.006.068a.638.638,0,0,0,.565.7" fill="#398fb9"/>
    <path id="Trazado_885760" data-name="Trazado 885760" d="M283.417,193.228l18.717,1.9.135-1.33L283.552,191.9a.634.634,0,0,0-.694.565l-.005.064a.636.636,0,0,0,.564.7" fill="#398fb9"/>
    <path id="Trazado_885761" data-name="Trazado 885761" d="M292.089,204.107l9.045.911.133-1.324-9.045-.915a.631.631,0,0,0-.693.567l-.006.063a.637.637,0,0,0,.566.7" fill="#398fb9"/>
    <path id="Trazado_885762" data-name="Trazado 885762" d="M281.413,213.022l18.719,1.892.133-1.325L281.548,211.7a.63.63,0,0,0-.694.566l-.007.066a.631.631,0,0,0,.566.694" fill="#398fb9"/>
    <path id="Trazado_885763" data-name="Trazado 885763" d="M290.085,223.9l9.043.916.135-1.324-9.045-.918a.633.633,0,0,0-.692.564l-.005.068a.628.628,0,0,0,.564.694" fill="#398fb9"/>
    <path id="Trazado_885764" data-name="Trazado 885764" d="M279.409,232.816l18.715,1.9.137-1.328-18.717-1.894a.633.633,0,0,0-.7.566l-.007.067a.631.631,0,0,0,.568.691" fill="#398fb9"/>
    <path id="Trazado_885765" data-name="Trazado 885765" d="M288.081,243.693l9.045.918.133-1.322-9.045-.92a.632.632,0,0,0-.694.565l0,.065a.625.625,0,0,0,.566.694" fill="#398fb9"/>
    <path id="Trazado_885766" data-name="Trazado 885766" d="M277.439,252.3l18.715,1.9.135-1.328-18.719-1.893a.63.63,0,0,0-.692.563l-.011.07a.634.634,0,0,0,.572.692" fill="#398fb9"/>
  </g>
</svg>
