<svg id="Grupo_1103199" data-name="Grupo 1103199" xmlns="http://www.w3.org/2000/svg" xmlns:xlink="http://www.w3.org/1999/xlink" width="392.544" height="294.078" viewBox="0 0 392.544 294.078">
  <defs>
    <clipPath id="clip-path">
      <rect id="Rectángulo_402712" data-name="Rectángulo 402712" width="392.544" height="294.078" fill="none"/>
    </clipPath>
  </defs>
  <g id="Grupo_1103198" data-name="Grupo 1103198" clip-path="url(#clip-path)">
    <path id="Trazado_885396" data-name="Trazado 885396" d="M19.662,281.555s-34.8-77.823-11.805-150.465c11.907-37.608,42.776-78.811,94.514-66.178,23.859,5.826,48.32-13.5,64.754-34.308C186.457,6.123,223.363-10.184,256.717,7.33c51.275,26.925,44.683,71.548,61.328,91.851s48.023,14.108,65.146,52.416c25.015,55.955-8.064,129.958-8.064,129.958Z" fill="#ece4d8"/>
    <path id="Trazado_885397" data-name="Trazado 885397" d="M182.154,135.16s4.395,19.986,13.5,33.677c10.178,15.3,22.477,41.7,5.617,60.118s-43.738-15.491-36.621-28.334c15.99-28.852,5.088-53.891,5.088-53.891Z" fill="#14232f"/>
    <path id="Trazado_885398" data-name="Trazado 885398" d="M35.025,278.791c2.432-15.96,10.037-38.484,18.254-52.56,12.2-20.9,39.586-34.4,83.307-46.189h41.873c10.861,3.341,37.492,11.976,54.886,26.249,13.694,11.235,33.422,62.058,36.123,72.5Z" fill="#b8e2fd"/>
    <path id="Trazado_885399" data-name="Trazado 885399" d="M228.328,207.2a268.219,268.219,0,0,1,22.15,70.583c.1.586-.8.841-.9.248a267.273,267.273,0,0,0-22.059-70.36c-.256-.541.551-1.017.809-.471" fill="#88cefc"/>
    <path id="Trazado_885400" data-name="Trazado 885400" d="M73.576,208.238c12.693,20.845,15.555,45.608,17.932,69.406.06.6-.875.6-.934,0-2.361-23.632-5.2-48.235-17.8-68.934a.467.467,0,0,1,.8-.472" fill="#88cefc"/>
    <path id="Trazado_885401" data-name="Trazado 885401" d="M190.642,185.015c-14.918,13.162-39.07,15.767-57.1,7.884a29.742,29.742,0,0,1-11.07-7.884c-.383-.457.275-1.123.662-.659,5.389,6.456,13.981,9.591,22.037,11.007a59.571,59.571,0,0,0,29.686-2.289,45.419,45.419,0,0,0,15.121-8.718c.451-.4,1.113.262.66.659" fill="#88cefc"/>
    <path id="Trazado_885402" data-name="Trazado 885402" d="M177.7,164.438l.758,15.6c-16.453,14.062-45.5,1.1-45.5,1.1,1.141-15.54-.584-26.258-2.115-41.765-1.7-17.236,3.064-35.555,3.064-35.555,6.639-76.53,69-60.436,72.506-37.717a139.7,139.7,0,0,1,4.332,28.458c.8,12.6,14.287,31.94-8.018,60.548-5.662,7.261-13.291,12.2-25.027,9.33" fill="#fda78c"/>
    <path id="Trazado_885403" data-name="Trazado 885403" d="M116.475,127.639s-4.4,19.987-13.5,33.677C92.8,176.617,79.043,204.9,95.9,223.31s18.041,21.277,17.382,28.683c0,0,17.1-3.18,23.331-14.837,6.491-12.132,4.482-31.215-2.637-44.057-15.988-28.85-7.84-55.079-7.84-55.079Z" fill="#14232f"/>
    <path id="Trazado_885404" data-name="Trazado 885404" d="M102.957,65.447c4.086-13.717,12.471-31.178,37.592-37.577,15.488-3.944,32.447-3.94,47.3,6.7a25.681,25.681,0,0,0,9.791,4.379c15.824,2.051,14.916,24.447,12.3,46.1,0,0-1.062-13.85-7.525-20.367-.186,4.548-1.988,15.215-22.338,21.286,0,0,8.535-10.009,6.4-19.036,0,0-1.97,19.365-24.781,24.78,0,0,4.6-9.027,2.625-18.38,0,0-.555,12.624-10.664,25.928-5.738,7.55-10.879,10.011-23.187,19.037,6.281,13.621,5.134,22.644,1.417,31.145-23.863-5.9-38.128-53.135-28.937-83.987" fill="#14232f"/>
    <path id="Trazado_885405" data-name="Trazado 885405" d="M120.885,124.286c3.506,3.714,10.145,4.377,14.289,1.825,6.074-3.74,6.184-9.529,4.295-15.713-1.639-5.37-6.047-7.913-11.572-7.569-4.658.289-8.52,3.876-9.905,8.288a13.7,13.7,0,0,0,2.893,13.169" fill="#fda78c"/>
    <path id="Trazado_885406" data-name="Trazado 885406" d="M126.67,107.522A7.486,7.486,0,0,1,132,110.489a8.5,8.5,0,0,1,1.492,6.339.557.557,0,0,1-.679.389.567.567,0,0,1-.385-.68c.523-3.676-1.865-7.584-5.76-7.911-.7-.058-.711-1.165,0-1.1" fill="#f5816c"/>
    <path id="Trazado_885407" data-name="Trazado 885407" d="M177.7,164.438l.236,5.192s-14.142-3.821-19.859-14.522c0,0,11.658,7.7,19.623,9.33" fill="#f5816c"/>
    <path id="Trazado_885408" data-name="Trazado 885408" d="M123.244,149.91c-4.937-1.8-8.883-6.248-11.441-10.7-1.446-2.517,2.289-5.068,3.74-2.537,2.222,3.863,5.416,7.622,9.713,9.188,2.732.992.7,5.033-2.012,4.046" fill="#398fb9"/>
    <path id="Trazado_885409" data-name="Trazado 885409" d="M377.916,282.356c0,6.471-80.846,11.722-180.572,11.722S16.773,288.827,16.773,282.356s80.844-11.717,180.571-11.717,180.572,5.247,180.572,11.717" fill="#87d4c7"/>
    <path id="Trazado_885410" data-name="Trazado 885410" d="M177.781,272.4a6.883,6.883,0,0,1-.9-2.078,4.85,4.85,0,0,1,1.642-5.217c1.6-1.122,3.758-.968,5.53-.4a13.159,13.159,0,0,1,2.384,1.045,32.845,32.845,0,0,1-2.047-3.373c-1.029-1.956-2.039-4.625-.234-6.471,1.391-1.424,3.682-1.4,5.488-1.034a22.633,22.633,0,0,1,6.83,2.785q.856.507,1.665,1.075a35.225,35.225,0,0,1-3.809-8.16c-1.2-3.761-2.467-9.6,1.6-12.16s9.363.779,12.683,3.1a48.633,48.633,0,0,1,10.531,10.264,77.038,77.038,0,0,1,6.338,9.754,6.387,6.387,0,0,1,.514-2.616c1.236-2.738,4.275-.97,5.875.331a21.578,21.578,0,0,1,7.574,13.152Z" fill="#3a8f92"/>
    <path id="Trazado_885411" data-name="Trazado 885411" d="M205.937,250.608a94.9,94.9,0,0,1,6.645,23.153c.06.382-.526.548-.588.16a94.39,94.39,0,0,0-6.584-23c-.155-.358.371-.666.527-.309" fill="#1c6f73"/>
    <path id="Trazado_885412" data-name="Trazado 885412" d="M190.793,259.236a40.943,40.943,0,0,1,9.867,14.542c.145.363-.443.519-.586.16a40.3,40.3,0,0,0-9.713-14.271c-.285-.271.147-.7.432-.431" fill="#1c6f73"/>
    <path id="Trazado_885413" data-name="Trazado 885413" d="M182.281,266.652c2.51,1.621,4.346,4.541,5.883,7.038a.3.3,0,0,1-.526.308,39.086,39.086,0,0,0-2.669-3.828,12.874,12.874,0,0,0-3-2.991c-.328-.214-.021-.741.309-.527" fill="#1c6f73"/>
    <path id="Trazado_885414" data-name="Trazado 885414" d="M229.928,262.438a38.656,38.656,0,0,1,2.109,11.41.3.3,0,0,1-.609,0A38.094,38.094,0,0,0,229.34,262.6c-.129-.371.461-.529.588-.161" fill="#1c6f73"/>
    <path id="Trazado_885415" data-name="Trazado 885415" d="M214.088,261.189q-1.168,3.417-2.643,6.71c-.16.357-.685.05-.527-.307q1.438-3.225,2.582-6.563c.125-.368.715-.21.588.16" fill="#1c6f73"/>
    <path id="Trazado_885416" data-name="Trazado 885416" d="M185.959,267.151a20.191,20.191,0,0,1-.039,3.244c-.037.389-.645.393-.611,0a19.853,19.853,0,0,0,.039-3.244c-.028-.392.586-.39.611,0" fill="#1c6f73"/>
    <path id="Trazado_885417" data-name="Trazado 885417" d="M229.56,267.147c.609.731,1.223,1.465,1.834,2.2.248.3-.18.732-.434.428q-.914-1.1-1.83-2.2c-.25-.3.178-.735.43-.431" fill="#1c6f73"/>
    <path id="Trazado_885418" data-name="Trazado 885418" d="M90.787,282.636H77.117a2.014,2.014,0,0,1-2-2.013V256.969a11.453,11.453,0,0,1,.879-4.4l2.1-5.065H89.807l2.105,5.065a11.486,11.486,0,0,1,.875,4.4v23.654a2.013,2.013,0,0,1-2,2.013" fill="#3a8f92"/>
    <path id="Trazado_885419" data-name="Trazado 885419" d="M77.967,247.507H89.94a.805.805,0,0,0,.806-.805v-6.236a.805.805,0,0,0-.806-.805H77.967a.806.806,0,0,0-.807.805V246.7a.806.806,0,0,0,.807.805" fill="#224a5f"/>
    <rect id="Rectángulo_402709" data-name="Rectángulo 402709" width="8.221" height="14.689" transform="translate(84.566 259.278)" fill="#1c6f73"/>
    <path id="Trazado_885420" data-name="Trazado 885420" d="M81.1,239.661l1.332-11.639a.869.869,0,0,1,.863-.771h1.317a.874.874,0,0,1,.863.771l1.334,11.639Z" fill="#224a5f"/>
    <path id="Trazado_885421" data-name="Trazado 885421" d="M81.426,239.934h5.092a.262.262,0,0,0,.26-.262v-.025a.262.262,0,0,0-.26-.262H81.426a.262.262,0,0,0-.26.262v.025a.261.261,0,0,0,.26.262" fill="#14232f"/>
    <path id="Trazado_885422" data-name="Trazado 885422" d="M151.1,280.572h17.191a2.881,2.881,0,0,0,2.881-2.88V242.67H148.22v35.022a2.88,2.88,0,0,0,2.881,2.88" fill="#ffbd66"/>
    <path id="Trazado_885423" data-name="Trazado 885423" d="M148.221,241.463h22.953v-3.816a1.055,1.055,0,0,0-1.055-1.055H149.274a1.054,1.054,0,0,0-1.053,1.055Z" fill="#224a5f"/>
    <path id="Trazado_885424" data-name="Trazado 885424" d="M147.49,242.67H171.9a.572.572,0,0,0,.572-.572v-.06a.574.574,0,0,0-.572-.575H147.49a.575.575,0,0,0-.572.575v.06a.573.573,0,0,0,.572.572" fill="#224a5f"/>
    <path id="Trazado_885425" data-name="Trazado 885425" d="M148.363,241.463h22.668a.13.13,0,0,0,.131-.132v-.014a.13.13,0,0,0-.131-.132H148.363a.134.134,0,0,0-.135.132v.014a.135.135,0,0,0,.135.132" fill="#20759e"/>
    <rect id="Rectángulo_402710" data-name="Rectángulo 402710" width="13.252" height="15.391" transform="translate(157.91 252.936)" fill="#ffa53d"/>
    <path id="Trazado_885426" data-name="Trazado 885426" d="M169.06,240.449v-2.842a.135.135,0,0,0-.133-.134h-.013a.133.133,0,0,0-.133.134v2.842a.132.132,0,0,0,.133.133h.013a.134.134,0,0,0,.133-.133" fill="#20759e"/>
    <path id="Trazado_885427" data-name="Trazado 885427" d="M167.2,240.449v-2.842a.136.136,0,0,0-.135-.134h-.013a.133.133,0,0,0-.131.134v2.842a.132.132,0,0,0,.131.133h.013a.135.135,0,0,0,.135-.133" fill="#20759e"/>
    <path id="Trazado_885428" data-name="Trazado 885428" d="M165.412,240.449v-2.842a.134.134,0,0,0-.133-.134h-.013a.133.133,0,0,0-.133.134v2.842a.132.132,0,0,0,.133.133h.013a.133.133,0,0,0,.133-.133" fill="#20759e"/>
    <path id="Trazado_885429" data-name="Trazado 885429" d="M163.551,240.449v-2.842a.134.134,0,0,0-.133-.134H163.4a.135.135,0,0,0-.135.134v2.842a.134.134,0,0,0,.135.133h.013a.133.133,0,0,0,.133-.133" fill="#20759e"/>
    <path id="Trazado_885430" data-name="Trazado 885430" d="M161.7,240.449v-2.842a.135.135,0,0,0-.133-.134h-.015a.133.133,0,0,0-.131.134v2.842a.132.132,0,0,0,.131.133h.015a.134.134,0,0,0,.133-.133" fill="#20759e"/>
    <path id="Trazado_885431" data-name="Trazado 885431" d="M159.832,240.449v-2.842a.134.134,0,0,0-.133-.134h-.013a.133.133,0,0,0-.133.134v2.842a.132.132,0,0,0,.133.133h.013a.133.133,0,0,0,.133-.133" fill="#20759e"/>
    <path id="Trazado_885432" data-name="Trazado 885432" d="M158.047,240.449v-2.842a.134.134,0,0,0-.133-.134H157.9a.133.133,0,0,0-.133.134v2.842a.132.132,0,0,0,.133.133h.013a.133.133,0,0,0,.133-.133" fill="#20759e"/>
    <path id="Trazado_885433" data-name="Trazado 885433" d="M156.185,240.449v-2.842a.134.134,0,0,0-.133-.134h-.012a.133.133,0,0,0-.134.134v2.842a.133.133,0,0,0,.134.133h.012a.133.133,0,0,0,.133-.133" fill="#20759e"/>
    <path id="Trazado_885434" data-name="Trazado 885434" d="M154.26,240.449v-2.842a.135.135,0,0,0-.133-.134h-.013a.136.136,0,0,0-.135.134v2.842a.135.135,0,0,0,.135.133h.013a.134.134,0,0,0,.133-.133" fill="#20759e"/>
    <path id="Trazado_885435" data-name="Trazado 885435" d="M152.4,240.449v-2.842a.135.135,0,0,0-.133-.134h-.015a.134.134,0,0,0-.133.134v2.842a.134.134,0,0,0,.133.133h.015a.134.134,0,0,0,.133-.133" fill="#20759e"/>
    <path id="Trazado_885436" data-name="Trazado 885436" d="M150.613,240.449v-2.842a.136.136,0,0,0-.135-.134h-.011a.135.135,0,0,0-.135.134v2.842a.134.134,0,0,0,.135.133h.011a.135.135,0,0,0,.135-.133" fill="#20759e"/>
    <path id="Trazado_885437" data-name="Trazado 885437" d="M43.933,275.166l.148,4.9,3.336.156.782-4.992Z" fill="#fda78c"/>
    <path id="Trazado_885438" data-name="Trazado 885438" d="M50.9,281.822a14.341,14.341,0,0,0-1.865-1.211,16.911,16.911,0,0,1-1.522-.891,9.43,9.43,0,0,1-3.443-.213c-.145.765-.729,3.281.219,4,.966.735,3.136.877,4.468.9,1.061.018,3.19.188,3.19-1.064,0-.649-.576-1.142-1.047-1.526" fill="#14232f"/>
    <path id="Trazado_885439" data-name="Trazado 885439" d="M32.959,275.363l.33,4.708,3.432.041.424-4.618Z" fill="#fda78c"/>
    <path id="Trazado_885440" data-name="Trazado 885440" d="M40.125,281.822a14.1,14.1,0,0,0-1.867-1.211c-.483-.282-1.065-.559-1.518-.891a10.571,10.571,0,0,1-3.508-.119c-.144.767-.666,3.187.284,3.908.966.735,3.136.877,4.466.9,1.061.018,3.19.188,3.19-1.064,0-.649-.574-1.142-1.047-1.526" fill="#14232f"/>
    <path id="Trazado_885441" data-name="Trazado 885441" d="M50.478,220.637H22.585c-.285,9.349,1.942,16.529,4.8,25.423a61.867,61.867,0,0,1,2.518,8.551L31,277.426h9.2l1.558-20.469c.182-1.668.3-2.971.438-4.642.125,1.427.207,3.192.248,4.627,0,0-.313,17.923-.383,20.484h8.518c.431-2.43,2.755-16.052,3.1-20.391.526-17.625-2.359-20.1-3-30.3q-.2-3.045-.195-6.1" fill="#398fb9"/>
    <path id="Trazado_885442" data-name="Trazado 885442" d="M42.269,252.652q-.279-10.465-1.373-20.887c-.016-.141-.238-.143-.225,0q1.1,10.416,1.373,20.887c0,.142.229.142.225,0" fill="#20759e"/>
    <path id="Trazado_885443" data-name="Trazado 885443" d="M27.094,230.1a112.588,112.588,0,0,0,4.564,20.476c.043.136.26.081.217-.059A112.046,112.046,0,0,1,27.319,230.1c-.018-.142-.243-.144-.225,0" fill="#20759e"/>
    <path id="Trazado_885444" data-name="Trazado 885444" d="M32.424,253.995a33.345,33.345,0,0,0,3.59,5.948c.09.114.281,0,.2-.113a33.078,33.078,0,0,1-3.594-5.947c-.06-.131-.254-.017-.193.112" fill="#20759e"/>
    <path id="Trazado_885445" data-name="Trazado 885445" d="M29.328,229.495a8.579,8.579,0,0,0,5.234-6.308c.028-.142-.189-.205-.214-.062a8.365,8.365,0,0,1-5.081,6.154c-.132.051-.074.268.061.216" fill="#20759e"/>
    <path id="Trazado_885446" data-name="Trazado 885446" d="M42.234,274.98c2.883-.027,5.764.009,8.645.07.134,0,.134-.222,0-.226-2.881-.059-5.762-.1-8.645-.069a.113.113,0,0,0,0,.225" fill="#20759e"/>
    <path id="Trazado_885447" data-name="Trazado 885447" d="M30.99,274.937c3.086-.027,6.172.009,9.258.07a.113.113,0,0,0,0-.226c-3.086-.059-6.172-.1-9.258-.069a.113.113,0,0,0,0,.225" fill="#20759e"/>
    <path id="Trazado_885448" data-name="Trazado 885448" d="M63.523,189.107l1.367-1.4a3.26,3.26,0,0,0,2.26,1.9c1.887.134,4.133-1.434,5.848-3.963a12.342,12.342,0,0,0,1.74-2.847c-.1-1.057-.832-2.282-2.84-4.328-.92-.935-6.684,2.4-6.754,2.312a3.342,3.342,0,0,1-1.889.9c-1.343,1.241-3.546,3.159-3.546,3.159a13.232,13.232,0,0,0,3.814,4.271" fill="#fda78c"/>
    <path id="Trazado_885449" data-name="Trazado 885449" d="M78.109,180.078a1.821,1.821,0,0,0-.191-.973,3.462,3.462,0,0,0-.631-.867,6.525,6.525,0,0,1-.77-.826c-.24-.359-.15-.759-.207-1.163a2,2,0,0,0-.332-.831,3.043,3.043,0,0,0-1.428-1.1,3.5,3.5,0,0,1-.99-.435c-.263-.218-.383-.556-.637-.786a1.96,1.96,0,0,0-1-.431,4.592,4.592,0,0,0-1.271-.069,2.721,2.721,0,0,0-.836.217,5.974,5.974,0,0,0-.6-.185,3.908,3.908,0,0,0-3.56.5,2.211,2.211,0,0,0-.522.654,4.987,4.987,0,0,1-.484.884,10.869,10.869,0,0,1-1.359,1.153,3.5,3.5,0,0,0-1,1.385,2.492,2.492,0,0,0-.163.826,5.065,5.065,0,0,0,.131.94,1.768,1.768,0,0,1-.115,1.164,3.171,3.171,0,0,0-.346.9,7.908,7.908,0,0,0,.092,1.106,1.468,1.468,0,0,1-.422,1.03.1.1,0,0,0,.043.158A2.827,2.827,0,0,0,64.8,182.3a2.379,2.379,0,0,1,.346-.446,1.332,1.332,0,0,1,.606-.279,1.225,1.225,0,0,1,.417-.043c.252.026.338.172.338.418a.618.618,0,0,0,.375.637.852.852,0,0,0,.811-.1,3.4,3.4,0,0,0,.807-.859c.1-.135.189-.273.277-.414a1.751,1.751,0,0,0,1.633-.928,1.873,1.873,0,0,0,2.363-.3c.059.137.119.274.182.414a1.773,1.773,0,0,1,.123.3c.031.145-.043.231-.1.35a1.751,1.751,0,0,0-.2.865,1.285,1.285,0,0,0,.781,1.141,1.928,1.928,0,0,0,.295,1.285c-.191.334-.726,1.112-.726,1.112a1.243,1.243,0,0,0,1.414.126,1.6,1.6,0,0,0,.7-1.217,2.006,2.006,0,0,0,1.648,0,1.933,1.933,0,0,0,1.073-1.371,1.98,1.98,0,0,0-.018-.893c-.1-.374-.326-.714-.184-1.108a3.752,3.752,0,0,0,.348-.911" fill="#14232f"/>
    <path id="Trazado_885450" data-name="Trazado 885450" d="M65.051,181.244c-.191.781.074,1.514.592,1.641s1.092-.4,1.281-1.186-.107-1.369-.625-1.5-1.057.257-1.248,1.04" fill="#fda78c"/>
    <path id="Trazado_885451" data-name="Trazado 885451" d="M85.459,225a5.369,5.369,0,0,0-1.992-1.24c-.942-.276-4.444.607-5.5.457-2.717-1.959-11.25-9.014-12.528-10.4-1.111-1.2-.056-3.762-.056-3.762l-8.746-3.237a12.9,12.9,0,0,0-1.078,7.612c.607,2.857,6.834,7.055,21.535,12.033a18.218,18.218,0,0,0,4.935.848c.955.137,3.239,1.69,4.6.628.59-.458-.779-2.589-1.172-2.943" fill="#fda78c"/>
    <path id="Trazado_885452" data-name="Trazado 885452" d="M67.492,198.072c-.209-3.457-.967-6.729-3.715-9.227a13.151,13.151,0,0,1-3.277-4.7,11.756,11.756,0,0,0-4.4-3.529,8.924,8.924,0,0,0-6.289-.621c-4.394,1.057-8.429,3.726-11.9,6.531-2.092,1.7-5.121,4.722-5.6,6,0,0,.948,1.119,1.323,1.667-11.678,13.355-11.411,24.592-11.582,27.357,15.291-.19,19.537,3.283,28.9,6.616,0,0,1.4-9.193,3.818-13.085,1.088-1.751,2.324-3.4,3.561-5.044,2.769.359,4.894.643,7.648,1.076a44.678,44.678,0,0,0,1.508-13.036" fill="#ffdec9"/>
    <path id="Trazado_885453" data-name="Trazado 885453" d="M28.1,207.812a33.783,33.783,0,0,0,3.967,9.7c.074.12.263.01.189-.111a33.7,33.7,0,0,1-3.943-9.647c-.033-.138-.244-.079-.213.059" fill="#e6b08e"/>
    <path id="Trazado_885454" data-name="Trazado 885454" d="M31.3,213.193a32.115,32.115,0,0,0,11.856,9.457c.128.056.242-.133.111-.191a31.937,31.937,0,0,1-11.809-9.422c-.088-.113-.242.047-.158.156" fill="#e6b08e"/>
    <path id="Trazado_885455" data-name="Trazado 885455" d="M42.6,201.844c3.488-2.543,7.041-5.214,9.462-8.852a16.345,16.345,0,0,0,2.432-5.572c.362-1.685.693-4.086-.425-5.558-.086-.11-.278,0-.19.111,1.176,1.547.719,4.212.267,5.953a16.715,16.715,0,0,1-2.54,5.344c-2.393,3.41-5.785,5.956-9.117,8.383-.113.081-.006.273.111.191" fill="#e6b08e"/>
    <path id="Trazado_885456" data-name="Trazado 885456" d="M58.592,210.006a38.02,38.02,0,0,0,4.191-8.534,37.179,37.179,0,0,0,1.266-4.644,15.184,15.184,0,0,0,.133-5.1c-.018-.137-.239-.138-.219,0a15.248,15.248,0,0,1-.15,5.158,37.476,37.476,0,0,1-5.411,13c-.078.118.114.229.19.112" fill="#e6b08e"/>
    <path id="Trazado_885457" data-name="Trazado 885457" d="M58.219,221.049a5.42,5.42,0,0,0-1.586-1.731c-.832-.516-4.441-.609-5.416-1.038-2.09-2.618-7.715-10.17-8.68-11.786a6.1,6.1,0,0,1-1.185-2.963,2.448,2.448,0,0,1,1.06-1.808l-7.05-5.94a12.859,12.859,0,0,0-3.088,7.041c-.188,2.912,6.67,11.133,17.494,17.387a33.33,33.33,0,0,0,4.527,2.146c.883.389,2.662,2.5,4.258,1.844.691-.283-.053-2.707-.334-3.152" fill="#fda78c"/>
    <path id="Trazado_885458" data-name="Trazado 885458" d="M154.123,255.615l2.307,25.134a2.227,2.227,0,0,1-2.012,2.421l-41.965,3.854a2.228,2.228,0,0,1-2.424-2.013l-2.308-25.135a2.225,2.225,0,0,1,2.013-2.42L151.7,253.6a2.225,2.225,0,0,1,2.422,2.013" fill="#398fb9"/>
    <path id="Trazado_885459" data-name="Trazado 885459" d="M113.205,271.862l37.711-3.464a.161.161,0,0,1,.174.147l0,.043a.16.16,0,0,1-.145.174l-37.713,3.463a.162.162,0,0,1-.176-.145v-.043a.159.159,0,0,1,.146-.175" fill="#20759e"/>
    <path id="Trazado_885460" data-name="Trazado 885460" d="M117.92,264.727l-2.975.274-.265-2.9a1.322,1.322,0,0,1,1.189-1.435l.354-.03a1.313,1.313,0,0,1,1.431,1.191Z" fill="#fff"/>
    <path id="Trazado_885461" data-name="Trazado 885461" d="M117,269.059l-.355.03a1.31,1.31,0,0,1-1.428-1.188l-.27-2.9,2.975-.274.267,2.9a1.316,1.316,0,0,1-1.189,1.43" fill="#30617a"/>
    <path id="Trazado_885462" data-name="Trazado 885462" d="M125.433,264.038l-2.975.273-.265-2.9a1.317,1.317,0,0,1,1.189-1.431l.356-.033a1.315,1.315,0,0,1,1.429,1.19Z" fill="#fff"/>
    <path id="Trazado_885463" data-name="Trazado 885463" d="M124.512,268.368l-.354.033a1.313,1.313,0,0,1-1.431-1.189l-.268-2.9,2.975-.273.267,2.9a1.312,1.312,0,0,1-1.189,1.43" fill="#30617a"/>
    <path id="Trazado_885464" data-name="Trazado 885464" d="M133.055,263.337l-2.976.273-.266-2.9A1.315,1.315,0,0,1,131,259.28l.353-.034a1.317,1.317,0,0,1,1.431,1.193Z" fill="#fff"/>
    <path id="Trazado_885465" data-name="Trazado 885465" d="M132.131,267.67l-.354.031a1.314,1.314,0,0,1-1.431-1.189l-.266-2.9,2.975-.273.265,2.9a1.315,1.315,0,0,1-1.189,1.432" fill="#30617a"/>
    <path id="Trazado_885466" data-name="Trazado 885466" d="M140.236,262.679l-2.975.272-.267-2.9a1.313,1.313,0,0,1,1.189-1.431l.354-.034a1.318,1.318,0,0,1,1.433,1.192Z" fill="#fff"/>
    <path id="Trazado_885467" data-name="Trazado 885467" d="M139.312,267.009l-.354.032a1.318,1.318,0,0,1-1.433-1.188l-.264-2.9,2.975-.272.265,2.9a1.312,1.312,0,0,1-1.189,1.43" fill="#30617a"/>
    <path id="Trazado_885468" data-name="Trazado 885468" d="M147.951,261.97l-2.975.273-.267-2.9a1.32,1.32,0,0,1,1.189-1.434l.358-.031a1.32,1.32,0,0,1,1.431,1.189Z" fill="#fff"/>
    <path id="Trazado_885469" data-name="Trazado 885469" d="M147.027,266.3l-.355.033a1.314,1.314,0,0,1-1.43-1.188l-.266-2.9,2.975-.273.265,2.9a1.309,1.309,0,0,1-1.189,1.428" fill="#30617a"/>
    <path id="Trazado_885470" data-name="Trazado 885470" d="M119.266,279.361l-2.975.274-.265-2.9a1.312,1.312,0,0,1,1.189-1.429l.356-.032a1.316,1.316,0,0,1,1.429,1.19Z" fill="#fff"/>
    <path id="Trazado_885471" data-name="Trazado 885471" d="M118.342,283.692l-.354.034a1.316,1.316,0,0,1-1.431-1.192l-.266-2.9,2.975-.274.265,2.9a1.312,1.312,0,0,1-1.189,1.43" fill="#e3405b"/>
    <path id="Trazado_885472" data-name="Trazado 885472" d="M126.779,278.671l-2.977.273-.265-2.9a1.313,1.313,0,0,1,1.193-1.43l.354-.034a1.312,1.312,0,0,1,1.427,1.191Z" fill="#fff"/>
    <path id="Trazado_885473" data-name="Trazado 885473" d="M125.857,283l-.355.033a1.315,1.315,0,0,1-1.432-1.19l-.268-2.9,2.977-.273.267,2.9A1.317,1.317,0,0,1,125.857,283" fill="#e3405b"/>
    <path id="Trazado_885474" data-name="Trazado 885474" d="M134.4,277.973l-2.973.272-.269-2.9a1.322,1.322,0,0,1,1.191-1.433l.354-.03a1.314,1.314,0,0,1,1.431,1.19Z" fill="#fff"/>
    <path id="Trazado_885475" data-name="Trazado 885475" d="M133.476,282.3l-.357.032a1.316,1.316,0,0,1-1.428-1.192l-.266-2.9,2.973-.272.267,2.9a1.317,1.317,0,0,1-1.189,1.434" fill="#e3405b"/>
    <path id="Trazado_885476" data-name="Trazado 885476" d="M141.58,277.312l-2.975.272-.265-2.9a1.314,1.314,0,0,1,1.189-1.429l.354-.032a1.314,1.314,0,0,1,1.429,1.189Z" fill="#fff"/>
    <path id="Trazado_885477" data-name="Trazado 885477" d="M140.656,281.643l-.355.033a1.318,1.318,0,0,1-1.43-1.192l-.266-2.9,2.975-.272.267,2.9a1.317,1.317,0,0,1-1.191,1.432" fill="#e3405b"/>
    <path id="Trazado_885478" data-name="Trazado 885478" d="M149.295,276.6l-2.975.274-.265-2.9a1.311,1.311,0,0,1,1.189-1.429l.356-.032a1.313,1.313,0,0,1,1.429,1.188Z" fill="#fff"/>
    <path id="Trazado_885479" data-name="Trazado 885479" d="M148.371,280.935l-.354.031a1.313,1.313,0,0,1-1.431-1.189l-.266-2.9,2.975-.274.267,2.9a1.317,1.317,0,0,1-1.191,1.433" fill="#e3405b"/>
    <path id="Trazado_885480" data-name="Trazado 885480" d="M333.623,278.556a.543.543,0,0,0,.08-.008.515.515,0,0,0,.43-.586L318.465,176.536a.508.508,0,0,0-.584-.428.513.513,0,0,0-.43.587l15.664,101.423a.515.515,0,0,0,.508.438" fill="#224a5f"/>
    <path id="Trazado_885481" data-name="Trazado 885481" d="M358.76,278.556a.491.491,0,0,0,.078-.008.514.514,0,0,0,.434-.586L343.61,176.536a.516.516,0,0,0-1.02.159l15.66,101.423a.52.52,0,0,0,.51.438" fill="#224a5f"/>
    <path id="Trazado_885482" data-name="Trazado 885482" d="M319.418,186.557h25.135a.515.515,0,0,0,0-1.03H319.418a.515.515,0,1,0,0,1.03" fill="#224a5f"/>
    <path id="Trazado_885483" data-name="Trazado 885483" d="M321.941,202.921H347.08a.515.515,0,1,0,0-1.03H321.941a.515.515,0,1,0,0,1.03" fill="#224a5f"/>
    <path id="Trazado_885484" data-name="Trazado 885484" d="M324.473,219.288h25.136a.516.516,0,0,0,0-1.032H324.473a.516.516,0,1,0,0,1.032" fill="#224a5f"/>
    <path id="Trazado_885485" data-name="Trazado 885485" d="M327,235.649h25.141a.516.516,0,0,0,0-1.032H327a.516.516,0,0,0,0,1.032" fill="#224a5f"/>
    <path id="Trazado_885486" data-name="Trazado 885486" d="M329.523,252.015h25.141a.516.516,0,0,0,0-1.031H329.523a.516.516,0,1,0,0,1.031" fill="#224a5f"/>
    <path id="Trazado_885487" data-name="Trazado 885487" d="M327.361,278.556a.517.517,0,0,0,.51-.438L343.533,176.7a.515.515,0,0,0-1.018-.159L326.851,277.962a.515.515,0,0,0,.432.586.544.544,0,0,0,.078.008" fill="#224a5f"/>
    <path id="Trazado_885488" data-name="Trazado 885488" d="M302.223,278.556a.518.518,0,0,0,.51-.438L318.395,176.7a.516.516,0,0,0-1.019-.159L301.712,277.962a.515.515,0,0,0,.431.586.6.6,0,0,0,.08.008" fill="#224a5f"/>
    <path id="Trazado_885489" data-name="Trazado 885489" d="M306.32,252.015h25.141a.516.516,0,0,0,0-1.031H306.32a.516.516,0,1,0,0,1.031" fill="#224a5f"/>
    <path id="Trazado_885490" data-name="Trazado 885490" d="M316.01,178.422h29.117a1.288,1.288,0,1,0,0-2.577H316.01a1.289,1.289,0,1,0,0,2.577" fill="#30617a"/>
    <path id="Trazado_885491" data-name="Trazado 885491" d="M308.459,263.546l-1.986,2.479-6.578-4.223,2.7-3.268Z" fill="#a76b63"/>
    <path id="Trazado_885492" data-name="Trazado 885492" d="M305.543,271.159c.867.825,2.154-.761,2.842-1.512.861-.939,2.193-2.537,2.322-3.692.127-1.136-2.1-2.407-2.725-2.812a8.163,8.163,0,0,1-2.031,2.545,15.805,15.805,0,0,1-.385,1.644,13.79,13.79,0,0,0-.392,2.094,2.132,2.132,0,0,0,.369,1.733" fill="#14232f"/>
    <path id="Trazado_885493" data-name="Trazado 885493" d="M280.275,279.5l-3.166.252-1.432-7.684,4.227-.277Z" fill="#a76b63"/>
    <path id="Trazado_885494" data-name="Trazado 885494" d="M272.732,282.589c-.008,1.2,2.029,1.05,3.047,1.035,1.277-.014,3.353-.139,4.281-.836s.317-3.179.182-3.913a8.228,8.228,0,0,1-3.246.266c-.438.315-.994.578-1.459.844a13.763,13.763,0,0,0-1.795,1.152c-.453.361-1,.833-1.01,1.452" fill="#14232f"/>
    <path id="Trazado_885495" data-name="Trazado 885495" d="M246.531,196.6c-.217-.483-.582-2.509.42-2.555.435-.02,1.99,1.722,2.766,1.973a5.513,5.513,0,0,0,2.187.361c-.029-.957-.941-.838-1.361-1.243-.215-.211-.762-1-.235-1.189.116-.042,1.266.55,1.92.711.733.181,1.3.971,1.8,1.533a15.078,15.078,0,0,1,1.311,1.747c3.849,1.67,8.033,2.641,11.744,4.6.146-.473.793-2.112.949-2.582l6.385,1.241c-.668,2.08-3.426,7.271-5.637,7.447-3.053.245-12.582-6.341-14.416-7.786a30.674,30.674,0,0,1-4.033-.881,7.344,7.344,0,0,1-3.8-3.377" fill="#a76b63"/>
    <path id="Trazado_885496" data-name="Trazado 885496" d="M271.357,215.754l22.287-.97c1.318,3.531.6,9.747-.814,16.038-1.028,4.587-2.9,12.874-3.008,13.229,9.17,5.031,15.082,15.311,15.082,15.311-.279,1.864-3.389,4.464-3.389,4.464-.053.081-18.011-9.29-19.668-11.034.1,1.124,1.629,13.225-1.006,21.239h-5.164c-3.216-6.423-7.045-22.792-7.318-26.9-.533-8.041,2.133-27.9,3-31.374" fill="#398fb9"/>
    <path id="Trazado_885497" data-name="Trazado 885497" d="M293.931,199.371c-.062,3.518-1.122,8.361,1.049,17.352-14.139,4.342-24.6.995-24.6.995a101.77,101.77,0,0,0,.453-16.973l-3.755-.772c.349-1.81.851-4.668,1.154-5.857,1.1-4.35,1.551-10.146,5.838-12.653a26.888,26.888,0,0,1,4.754-2.347l6.677-.415a27.486,27.486,0,0,1,5.293,1.541c5.041,2.07,7.024,9.435,8.52,17.226l-5.379,1.9" fill="#ffdec9"/>
    <path id="Trazado_885498" data-name="Trazado 885498" d="M274.133,165.862c.7-.7,1.728-.815,4.537-.732,1.233.039,5.287,7.085,5.287,7.085A19.779,19.779,0,0,0,285.5,178.7s-5.777,3.086-6.678.415L278.231,176a3.062,3.062,0,0,1-2.768.025c-1.447-1.03-2.141-3.5-1.869-6.36a17.168,17.168,0,0,1,.539-3.807" fill="#a76b63"/>
    <path id="Trazado_885499" data-name="Trazado 885499" d="M278.306,175.988a5.573,5.573,0,0,0,2.424-1.283c.068-.066.156.051.09.117a5.635,5.635,0,0,1-2.457,1.3c-.09.025-.147-.111-.057-.135" fill="#8b5348"/>
    <path id="Trazado_885500" data-name="Trazado 885500" d="M273.676,168.688s.715-2.148,1.17-3.065c.053.129.107.262.168.386a9.573,9.573,0,0,0,3.172,3.865,4.205,4.205,0,0,0,1.052.475c.2.053.469.052.651.12.369.144.381.364.5.659a6.46,6.46,0,0,0,1.26,1.895,11.469,11.469,0,0,0,2.543,1.993c1.992-2.378,2.418-2.879,2.855-4.283a8.944,8.944,0,0,0,.537-3A7.036,7.036,0,0,0,286.3,164a2.44,2.44,0,0,0,.545-.4,2.57,2.57,0,0,0,.383-.464,3.317,3.317,0,0,0,1.832.049,1.139,1.139,0,0,0,.146-.041c.014.054.026.107.041.156a2.9,2.9,0,0,0,.623,1.141,1.987,1.987,0,0,0,.516.391,2.3,2.3,0,0,0-.152,1.023,2.411,2.411,0,0,0,.74,1.561,2.783,2.783,0,0,0-.494,1.354,2.284,2.284,0,0,0,.24,1.177,3.876,3.876,0,0,0-.391.9,2.417,2.417,0,0,0,.112,1.9,1.445,1.445,0,0,0,.123.175,3.094,3.094,0,0,0-.416.957,1.852,1.852,0,0,0,.246,1.476,6.1,6.1,0,0,0-1.065,2.08,20.188,20.188,0,0,0-.449,3.39.134.134,0,0,0,.113.147,3.04,3.04,0,0,0,2.778-1.617,4.637,4.637,0,0,0,.261-3.465,1.409,1.409,0,0,0,.655-1.265,2.773,2.773,0,0,0-.178-1.186,1.7,1.7,0,0,0,1-1.16,2.585,2.585,0,0,0-.225-1.613,2.1,2.1,0,0,0,.862-1.968,2.231,2.231,0,0,0-.53-1.412,2.234,2.234,0,0,0,.186-.226,2.755,2.755,0,0,0-.559-3.593,1.836,1.836,0,0,0,.036-.3,2.439,2.439,0,0,0-.981-1.977,3.146,3.146,0,0,0-1.668-.585,1.865,1.865,0,0,0-.424-.678,3.145,3.145,0,0,0-2.148-.738,3.925,3.925,0,0,0-1.8.428,3.649,3.649,0,0,0-2.494.5,3.1,3.1,0,0,0-1.119,1.033c-2.237-.925-5-1.167-6.7.226a3.278,3.278,0,0,0-2.786,1.867,6.031,6.031,0,0,0,.516,5.439" fill="#14232f"/>
    <path id="Trazado_885501" data-name="Trazado 885501" d="M281.174,170.77c-.326.679-.957,1.052-1.406.835s-.549-.942-.223-1.622.9-.929,1.348-.709.609.818.281,1.5" fill="#a76b63"/>
    <path id="Trazado_885502" data-name="Trazado 885502" d="M289.113,200.55a6.049,6.049,0,0,0,1.676-.346.107.107,0,0,0,.066-.133.1.1,0,0,0-.133-.067,6.766,6.766,0,0,1-1.525.333c-3.062-13.616.674-17.179.713-17.213a.1.1,0,0,0,.008-.148.106.106,0,0,0-.149-.008c-.162.142-3.888,3.668-.758,17.5a.1.1,0,0,0,.1.08" fill="#e6b08e"/>
    <path id="Trazado_885503" data-name="Trazado 885503" d="M270.83,200.85h.014a.106.106,0,0,0,.091-.116c-1.14-9.353,1.463-15.075,1.491-15.133a.1.1,0,0,0-.051-.14.107.107,0,0,0-.141.051c-.025.058-2.654,5.836-1.508,15.244a.1.1,0,0,0,.1.1" fill="#e6b08e"/>
    <path id="Trazado_885504" data-name="Trazado 885504" d="M281.848,252.9a.1.1,0,0,0,.066-.025.106.106,0,0,0,.016-.146,4.773,4.773,0,0,0-.617-.537,10.632,10.632,0,0,1-4.356-6.895c-.789-4.849,2.328-20.835,2.359-21a.1.1,0,0,0-.082-.121.106.106,0,0,0-.125.081c-.031.162-3.155,16.187-2.359,21.073a10.818,10.818,0,0,0,4.432,7.026,4.824,4.824,0,0,1,.584.5.11.11,0,0,0,.082.038" fill="#20759e"/>
    <rect id="Rectángulo_402711" data-name="Rectángulo 402711" width="5.408" height="18.952" transform="translate(233.252 184.166) rotate(-52.058)" fill="#398fb9"/>
    <path id="Trazado_885505" data-name="Trazado 885505" d="M236.344,186.571a13.612,13.612,0,0,0,3.324-4.263l-1.525-1.19-3.326,4.262Z" fill="#20759e"/>
    <path id="Trazado_885506" data-name="Trazado 885506" d="M305.207,238.058l1.154-1.48a2.556,2.556,0,0,0-.443-3.588l-53.594-41.81a2.555,2.555,0,0,0-3.586.442l-1.154,1.48a2.557,2.557,0,0,0,.443,3.589L301.619,238.5a2.557,2.557,0,0,0,3.588-.444" fill="#224a5f"/>
    <path id="Trazado_885507" data-name="Trazado 885507" d="M218.867,186.231a13.184,13.184,0,1,1,18.506-2.284,13.2,13.2,0,0,1-18.506,2.284m1.918-2.455a10.068,10.068,0,1,0-1.746-14.134,10.082,10.082,0,0,0,1.746,14.134" fill="#398fb9"/>
    <path id="Trazado_885508" data-name="Trazado 885508" d="M219.91,185.03a11.6,11.6,0,1,1,16.273-2.011,11.61,11.61,0,0,1-16.273,2.011" fill="#b8e2fd"/>
    <path id="Trazado_885509" data-name="Trazado 885509" d="M215.992,179.381l12.854-14.941a11.571,11.571,0,0,1,2.382.636L216.98,181.638a11.443,11.443,0,0,1-.988-2.257" fill="#e7f5fe"/>
    <path id="Trazado_885510" data-name="Trazado 885510" d="M219.91,185.03a11.592,11.592,0,0,1-1.807-1.767L233,165.949a11.233,11.233,0,0,1,3.631,3.427l-14.594,16.963a11.558,11.558,0,0,1-2.127-1.309" fill="#e7f5fe"/>
    <path id="Trazado_885511" data-name="Trazado 885511" d="M290.906,200.017c.551,1.552,1.844,3.95,1.518,4.555-.348.348-4.477,2.265-10.008,5.607a15.284,15.284,0,0,0-2.164-.247,6.1,6.1,0,0,0-2.42.269,10.182,10.182,0,0,0-2,1.087c-.223.511.834.632,1.306.469a1.707,1.707,0,0,1,1.577-.061,3.979,3.979,0,0,1-1.584,1.325c-1.039.472-3.868.3-3.573,1.292.45,1.511,2.481,1.776,3.1,1.779a9.644,9.644,0,0,0,4.348-1.2c.714-.4,2.052-1.617,2.695-2.093.533-.076,13.527-3.1,14.93-5.578,1.2-2.136-1-6.844-1.379-9.026-1.745.558-6.35,1.82-6.35,1.82" fill="#a76b63"/>
    <path id="Trazado_885512" data-name="Trazado 885512" d="M334.516,135.172h-4.824l.992-5.081,3.332.284Z" fill="#398fb9"/>
    <path id="Trazado_885513" data-name="Trazado 885513" d="M342.576,172.018l-3.354.215-1.382-8.154,4.472-.22Z" fill="#fda78c"/>
    <path id="Trazado_885514" data-name="Trazado 885514" d="M334.549,175.161c-.033,1.268,2.129,1.144,3.2,1.146,1.352,0,3.549-.091,4.543-.818.977-.708.387-3.352.26-4.129a8.694,8.694,0,0,1-3.442.224,17.34,17.34,0,0,1-1.554.87,14.431,14.431,0,0,0-1.92,1.187c-.483.377-1.076.863-1.09,1.52" fill="#14232f"/>
    <path id="Trazado_885515" data-name="Trazado 885515" d="M324.68,172.019l-3.355.213-1.381-8.153,4.476-.218Z" fill="#fda78c"/>
    <path id="Trazado_885516" data-name="Trazado 885516" d="M316.652,175.161c-.033,1.27,2.129,1.144,3.2,1.146,1.348,0,3.551-.091,4.543-.814.977-.71.387-3.354.258-4.132a8.657,8.657,0,0,1-3.438.224,16.741,16.741,0,0,1-1.56.869,14.733,14.733,0,0,0-1.916,1.187c-.485.377-1.076.864-1.09,1.52" fill="#14232f"/>
    <path id="Trazado_885517" data-name="Trazado 885517" d="M317.348,155.447c.485,4.079,1.6,10.028,2.182,14.091l6.505-.214c.1-7.3.366-16.691.223-23.991,1.812-5.169,4.6-10.1,6.875-15.085.157,3.456.329,6.91.575,10.36q.625,8.634,1.879,17.2c.456,3.092.862,8.788,1.439,11.861l6.737-.223c.057-2.467-.1-20.959-.215-24.18,1.474-8.965,4.8-29.926,4.71-31.4l-25.2.832c-.73,2.129-6.933,25.135-6.769,30.216.136,4.055.576,6.508,1.054,10.536" fill="#ffdec9"/>
    <path id="Trazado_885518" data-name="Trazado 885518" d="M333.144,130.189c-.4-3.289-.8-6.587-1.061-9.893-.009-.137-.226-.13-.212.008.259,3.3.654,6.6,1.062,9.893.018.135.231.131.211-.008" fill="#e6b08e"/>
    <path id="Trazado_885519" data-name="Trazado 885519" d="M340.137,68.088l-5.7.472c-1.168.429-7.746,1.206-10.4,5.9-.5.886-.986,1.821-1.451,2.789l1.248,37.853c3.477.243,13.524.875,20.782.711l-1.553-47.043c-.91-.247-1.889-.478-2.924-.678" fill="#88cefc"/>
    <path id="Trazado_885520" data-name="Trazado 885520" d="M340.137,68.088s-.277-2.9-.4-4.73a3.327,3.327,0,0,1-.75-1.952c-.112.016-2.268-6.631-3.565-6.855-2.933-.514-4.349.323-4.781,1.715a12.339,12.339,0,0,0-.695,3.263c-.5,3.013.052,5.7,1.513,6.9a3.265,3.265,0,0,0,2.946.182l.029,1.953a13.178,13.178,0,0,0,5.7-.472" fill="#fda78c"/>
    <path id="Trazado_885521" data-name="Trazado 885521" d="M334.461,66.559a5.8,5.8,0,0,0,2.447-1.486c.1-.106.27.036.172.144a6.019,6.019,0,0,1-2.537,1.554c-.141.045-.221-.162-.082-.212" fill="#f5816c"/>
    <path id="Trazado_885522" data-name="Trazado 885522" d="M341.41,51.847a4.494,4.494,0,0,0-2.588-1.775,3.283,3.283,0,0,0-2.424.257,3.936,3.936,0,0,0-4.029-1.467,3.136,3.136,0,0,0-1.894,1.423c-.352.6-.612,1.128-1.325,1.355a2.5,2.5,0,0,1-2.041-.376.109.109,0,0,0-.158.1,3.128,3.128,0,0,0,.443,1.431c-.236-.083-.5-.15-.621.073-.215.387.035,1.154.176,1.526a4.62,4.62,0,0,0,2.1,2.589c1.138.489,2.314-.126,3.4-.46,1.157-.36,3.014-.417,3.864.633A24.834,24.834,0,0,1,336.586,60a1.943,1.943,0,0,0,.162.914,5.154,5.154,0,0,1,.674,1.294,10.347,10.347,0,0,0,.756,2.356,6.764,6.764,0,0,0,1.681,2.053c.069.055.192.017.182-.082-.225-2.23,1.273-4.027,1.9-6.057a7.088,7.088,0,0,0,.207-3.571,5.954,5.954,0,0,0-.734-5.058" fill="#14232f"/>
    <path id="Trazado_885523" data-name="Trazado 885523" d="M338.211,61.409c-.4.7-1.1,1.048-1.561.784s-.509-1.042-.113-1.739,1.022-.92,1.484-.654.588.913.19,1.609" fill="#fda78c"/>
    <path id="Trazado_885524" data-name="Trazado 885524" d="M322.848,93.673q.059-7.563.7-15.107c.011-.139-.2-.128-.215.007q-.641,7.539-.7,15.108c0,.138.212.133.215-.008" fill="#20759e"/>
    <path id="Trazado_885525" data-name="Trazado 885525" d="M339.693,104.783A30.3,30.3,0,0,1,335.56,97.3c-.051-.129-.256-.069-.209.062a30.765,30.765,0,0,0,4.16,7.538c.082.113.264,0,.182-.115" fill="#65bceb"/>
    <path id="Trazado_885526" data-name="Trazado 885526" d="M337.992,99.92a19.458,19.458,0,0,1-.314-8.1c.025-.134-.184-.187-.206-.05a19.772,19.772,0,0,0,.311,8.211c.035.134.24.072.209-.062" fill="#65bceb"/>
    <path id="Trazado_885527" data-name="Trazado 885527" d="M304.576,86.787a3.351,3.351,0,0,0,1.41,2.887,3.237,3.237,0,0,0,2.481.822c1.158.461,2.337.871,3.529,1.234l1.268-3.765q-1.683-.67-3.333-1.415a19.959,19.959,0,0,1-1.212-1.62,4.976,4.976,0,0,0-1.2-1.36,1.8,1.8,0,0,0-2.459.156,4.014,4.014,0,0,0-.48,3.061" fill="#fda78c"/>
    <path id="Trazado_885528" data-name="Trazado 885528" d="M324.2,135.172c-.631-64.682,8.275-66.117,8.275-66.117-2.486.64-6.507,1.979-8.445,5.4-2.369,4.186-4.369,9.527-6.318,13.921l-4.457-.53-1.508,4.642c1.848.78,6.764,3,8.2,3.008a3.629,3.629,0,0,0,2.793-1.709c-.338,6.932-3.258,26.64-6.449,39.186,2.373,1.479,7.912,2.2,7.912,2.2" fill="#398fb9"/>
    <path id="Trazado_885529" data-name="Trazado 885529" d="M365.348,86.357c-.8-1.466-12.371-12.715-15.31-14.741a28.311,28.311,0,0,0-9.194-3.384l1.475,67.2c2.779.211,5.9-.779,8.337-1.562a461.656,461.656,0,0,1-1.69-49.735s6.336,3.764,7.486,4.537L349.3,95.512l2.927,3.979c3.241-1.932,12.181-7.971,13.051-9.257a3.546,3.546,0,0,0,.072-3.877" fill="#398fb9"/>
    <path id="Trazado_885530" data-name="Trazado 885530" d="M322.848,93.673q.053-7.563.7-15.107c.012-.139-.2-.128-.214.007q-.642,7.539-.7,15.108c0,.138.212.133.215-.008" fill="#20759e"/>
    <path id="Trazado_885531" data-name="Trazado 885531" d="M349,84.132c-3.414-2.47-7.074-6.015-6.383-10.651.02-.133-.189-.187-.209-.05-.7,4.719,2.957,8.333,6.444,10.859.113.078.259-.078.148-.158" fill="#20759e"/>
    <path id="Trazado_885532" data-name="Trazado 885532" d="M356.555,88.7a15.421,15.421,0,0,1,3.346-2.466c.119-.071,0-.252-.116-.183a15.845,15.845,0,0,0-3.387,2.5.108.108,0,0,0,.157.148" fill="#20759e"/>
    <path id="Trazado_885533" data-name="Trazado 885533" d="M349.726,96.1a20.5,20.5,0,0,1-1.893,1.437,10.976,10.976,0,0,1-1.888-.334,3.993,3.993,0,0,0-2.36-.193,5.368,5.368,0,0,0-1.826,1.554,11.323,11.323,0,0,0-1.67,2.253,2.025,2.025,0,0,0-.211,1.864c.332.535,1.082.492,1.563.363.933-.254,1.689-1.228,2.625-1.349a4.316,4.316,0,0,1,1.385.258,6.783,6.783,0,0,0,1.341.159,3.739,3.739,0,0,0,3.659-2.37,13.7,13.7,0,0,1,1.271-.929Z" fill="#fda78c"/>
    <path id="Trazado_885534" data-name="Trazado 885534" d="M325.6,76.07l3.25,11.546a.33.33,0,0,1-.309.421l-19.55.645a.328.328,0,0,1-.328-.24L305.421,76.91a.338.338,0,0,1,.293-.442l19.569-.644a.323.323,0,0,1,.32.246" fill="#14232f"/>
    <path id="Trazado_885535" data-name="Trazado 885535" d="M306.16,83.169c1.76-.146,5.482,1.125,5.543,1.891.082,1.018-1.43,1.686-2.119,1.837a10.106,10.106,0,0,0-2.666.868c-.19.1-.377.236-.592.379Z" fill="#fda78c"/>
  </g>
</svg>
